%TF.GenerationSoftware,KiCad,Pcbnew,7.0.11-2.fc39*%
%TF.CreationDate,2024-04-30T19:09:02-04:00*%
%TF.ProjectId,OS42Mini,4f533432-4d69-46e6-992e-6b696361645f,rev?*%
%TF.SameCoordinates,Original*%
%TF.FileFunction,Copper,L2,Bot*%
%TF.FilePolarity,Positive*%
%FSLAX46Y46*%
G04 Gerber Fmt 4.6, Leading zero omitted, Abs format (unit mm)*
G04 Created by KiCad (PCBNEW 7.0.11-2.fc39) date 2024-04-30 19:09:02*
%MOMM*%
%LPD*%
G01*
G04 APERTURE LIST*
G04 Aperture macros list*
%AMRoundRect*
0 Rectangle with rounded corners*
0 $1 Rounding radius*
0 $2 $3 $4 $5 $6 $7 $8 $9 X,Y pos of 4 corners*
0 Add a 4 corners polygon primitive as box body*
4,1,4,$2,$3,$4,$5,$6,$7,$8,$9,$2,$3,0*
0 Add four circle primitives for the rounded corners*
1,1,$1+$1,$2,$3*
1,1,$1+$1,$4,$5*
1,1,$1+$1,$6,$7*
1,1,$1+$1,$8,$9*
0 Add four rect primitives between the rounded corners*
20,1,$1+$1,$2,$3,$4,$5,0*
20,1,$1+$1,$4,$5,$6,$7,0*
20,1,$1+$1,$6,$7,$8,$9,0*
20,1,$1+$1,$8,$9,$2,$3,0*%
G04 Aperture macros list end*
%TA.AperFunction,ComponentPad*%
%ADD10C,1.665000*%
%TD*%
%TA.AperFunction,ComponentPad*%
%ADD11R,1.665000X1.665000*%
%TD*%
%TA.AperFunction,ComponentPad*%
%ADD12R,1.700000X1.700000*%
%TD*%
%TA.AperFunction,ComponentPad*%
%ADD13O,1.700000X1.700000*%
%TD*%
%TA.AperFunction,ComponentPad*%
%ADD14C,1.508000*%
%TD*%
%TA.AperFunction,ComponentPad*%
%ADD15C,1.920000*%
%TD*%
%TA.AperFunction,SMDPad,CuDef*%
%ADD16R,1.200000X2.660000*%
%TD*%
%TA.AperFunction,SMDPad,CuDef*%
%ADD17RoundRect,0.250000X0.475000X-0.337500X0.475000X0.337500X-0.475000X0.337500X-0.475000X-0.337500X0*%
%TD*%
%TA.AperFunction,ViaPad*%
%ADD18C,0.600000*%
%TD*%
%TA.AperFunction,Conductor*%
%ADD19C,0.200000*%
%TD*%
%TA.AperFunction,Conductor*%
%ADD20C,1.500000*%
%TD*%
G04 APERTURE END LIST*
D10*
%TO.P,IC1,1,IO4*%
%TO.N,SCK*%
X138684000Y-107696000D03*
%TO.P,IC1,2,IO2*%
%TO.N,MOSI*%
X138684000Y-105156000D03*
%TO.P,IC1,3,IO14*%
%TO.N,BATTREAD*%
X138684000Y-102616000D03*
%TO.P,IC1,4,IO15*%
%TO.N,RESET*%
X138684000Y-100076000D03*
%TO.P,IC1,5,IO13*%
%TO.N,MISO*%
X138684000Y-97536000D03*
%TO.P,IC1,6,IO12*%
%TO.N,NSS*%
X138684000Y-94996000D03*
%TO.P,IC1,7,GND_1*%
%TO.N,GND*%
X138684000Y-92456000D03*
D11*
%TO.P,IC1,8,5V*%
%TO.N,unconnected-(IC1-5V-Pad8)*%
X138684000Y-89916000D03*
%TO.P,IC1,9,3V3*%
%TO.N,VCC*%
X161544000Y-89916000D03*
D10*
%TO.P,IC1,10,IO16*%
%TO.N,unconnected-(IC1-IO16-Pad10)*%
X161544000Y-92456000D03*
%TO.P,IC1,11,IO0*%
%TO.N,PROG_EN*%
X161544000Y-94996000D03*
%TO.P,IC1,12,GND_2*%
%TO.N,GND*%
X161544000Y-97536000D03*
%TO.P,IC1,13,VCC*%
%TO.N,unconnected-(IC1-VCC-Pad13)*%
X161544000Y-100076000D03*
%TO.P,IC1,14,U0R*%
%TO.N,RXD*%
X161544000Y-102616000D03*
%TO.P,IC1,15,U0T*%
%TO.N,TXD*%
X161544000Y-105156000D03*
%TO.P,IC1,16,GND_3*%
%TO.N,GND*%
X161544000Y-107696000D03*
%TD*%
D12*
%TO.P,PRG,1,Pin_1*%
%TO.N,PWRIN_VCC*%
X134340200Y-92720000D03*
D13*
%TO.P,PRG,2,Pin_2*%
%TO.N,RXD*%
X134340200Y-95260000D03*
%TO.P,PRG,3,Pin_3*%
%TO.N,TXD*%
X134340200Y-97800000D03*
%TO.P,PRG,4,Pin_4*%
%TO.N,GND*%
X134340200Y-100340000D03*
%TD*%
D14*
%TO.P,RF OUT,1*%
%TO.N,Net-(U2-ANT)*%
X155969000Y-130696000D03*
D15*
%TO.P,RF OUT,G1*%
%TO.N,Net-(J5-PadG1)*%
X153569000Y-128296000D03*
%TO.P,RF OUT,G2*%
X153569000Y-133096000D03*
%TO.P,RF OUT,G3*%
X158369000Y-133096000D03*
%TO.P,RF OUT,G4*%
X158369000Y-128296000D03*
%TD*%
D12*
%TO.P,GF,1,Pin_1*%
%TO.N,GPSFREEZE_1*%
X134442200Y-116840000D03*
D13*
%TO.P,GF,2,Pin_2*%
%TO.N,GND*%
X134442200Y-119380000D03*
%TD*%
D12*
%TO.P,EN,1,Pin_1*%
%TO.N,PROG_EN*%
X134518000Y-107462000D03*
D13*
%TO.P,EN,2,Pin_2*%
%TO.N,GND*%
X134518000Y-110002000D03*
%TD*%
D12*
%TO.P,J1,1,Pin_1*%
%TO.N,PWRIN_VCC*%
X142240000Y-129540000D03*
D13*
%TO.P,J1,2,Pin_2*%
%TO.N,GND*%
X139700000Y-129540000D03*
%TD*%
D16*
%TO.P,U2,1,GND*%
%TO.N,GND*%
X141860000Y-107080000D03*
%TO.P,U2,2,MISO*%
%TO.N,MISO*%
X143860000Y-107080000D03*
%TO.P,U2,3,MOSI*%
%TO.N,MOSI*%
X145860000Y-107080000D03*
%TO.P,U2,4,SCK*%
%TO.N,SCK*%
X147860000Y-107080000D03*
%TO.P,U2,5,NSS*%
%TO.N,NSS*%
X149860000Y-107080000D03*
%TO.P,U2,6,NRESET*%
%TO.N,RESET*%
X151860000Y-107080000D03*
%TO.P,U2,7,DIO5*%
%TO.N,unconnected-(U2-DIO5-Pad7)*%
X153860000Y-107080000D03*
%TO.P,U2,8,GND*%
%TO.N,GND*%
X155860000Y-107080000D03*
%TO.P,U2,9,DIO2*%
%TO.N,DIO2*%
X141860000Y-123080000D03*
%TO.P,U2,10,DIO1*%
%TO.N,DIO1*%
X143860000Y-123080000D03*
%TO.P,U2,11,DIO0*%
%TO.N,DIO0*%
X145860000Y-123080000D03*
%TO.P,U2,12,VCC*%
%TO.N,VCC*%
X147860000Y-123080000D03*
%TO.P,U2,13,DIO4*%
%TO.N,unconnected-(U2-DIO4-Pad13)*%
X149860000Y-123080000D03*
%TO.P,U2,14,DIO3*%
%TO.N,unconnected-(U2-DIO3-Pad14)*%
X151860000Y-123080000D03*
%TO.P,U2,15,GND*%
%TO.N,Net-(J5-PadG1)*%
X153860000Y-123080000D03*
%TO.P,U2,16,ANT*%
%TO.N,Net-(U2-ANT)*%
X155860000Y-123080000D03*
%TD*%
D17*
%TO.P,C5,1*%
%TO.N,GND*%
X159766000Y-121433500D03*
%TO.P,C5,2*%
%TO.N,VCC*%
X159766000Y-119358500D03*
%TD*%
D18*
%TO.N,GND*%
X141478000Y-97663000D03*
X152654000Y-93980000D03*
X146812000Y-113030000D03*
X157226000Y-118364000D03*
X146812000Y-93980000D03*
X145415000Y-92837000D03*
X138430000Y-118618000D03*
X152146000Y-92075000D03*
X153162000Y-120650000D03*
X149098000Y-119634000D03*
X156718000Y-97282000D03*
X144272000Y-120142000D03*
X153670000Y-95758000D03*
X159512000Y-97028000D03*
X138303000Y-87884000D03*
X142875000Y-93980000D03*
X159512000Y-101092000D03*
X162814000Y-110998000D03*
X152146000Y-116078000D03*
X155702000Y-89154000D03*
X141224000Y-92964000D03*
X143764000Y-92710000D03*
X149098000Y-93726000D03*
X151384000Y-89662000D03*
X141986000Y-114808000D03*
X156718000Y-107696000D03*
X140462000Y-96520000D03*
X154940000Y-93218000D03*
X147066000Y-94996000D03*
X142759998Y-107696000D03*
X159512000Y-93726000D03*
X150114000Y-113792000D03*
X159639000Y-86233000D03*
X142748000Y-105410000D03*
X159258000Y-98552000D03*
X156718000Y-98552000D03*
X144018000Y-88900000D03*
X149098000Y-97536000D03*
X140716000Y-90170000D03*
X139192000Y-120904000D03*
X151130000Y-97536000D03*
X138811000Y-86233000D03*
X143764000Y-91186000D03*
X148082000Y-91948000D03*
X160020000Y-113030000D03*
X162433000Y-87884000D03*
X157480000Y-96012000D03*
X153162000Y-97282000D03*
X150622000Y-110744000D03*
X156972000Y-91694000D03*
X150622000Y-96266000D03*
X153416000Y-89662000D03*
X145542000Y-96266000D03*
X163068000Y-119126000D03*
X139313201Y-96170593D03*
X143764000Y-94996000D03*
X147066000Y-89662000D03*
X154686000Y-120142000D03*
X159004000Y-90932000D03*
X154813000Y-92075000D03*
X161036000Y-115316000D03*
X144780000Y-113030000D03*
X150114000Y-112268000D03*
X149098000Y-89662000D03*
X140208000Y-86614000D03*
X158750000Y-116332000D03*
X156972000Y-89408000D03*
X140208000Y-87630000D03*
%TO.N,VCC*%
X146304000Y-120142000D03*
X148082000Y-113030000D03*
X150866982Y-108719092D03*
X152654000Y-104648000D03*
%TO.N,BATTREAD*%
X142494000Y-103632000D03*
%TO.N,RESET*%
X152654000Y-105448003D03*
%TO.N,PROG_EN*%
X140462000Y-103886000D03*
%TO.N,RXD*%
X142367000Y-98425000D03*
X144228735Y-99270735D03*
X145259998Y-99935391D03*
X140483798Y-100330000D03*
%TO.N,TXD*%
X147283713Y-99513266D03*
X139954000Y-93472000D03*
%TO.N,GPSFREEZE_1*%
X141986000Y-111506000D03*
X155956000Y-103632000D03*
%TD*%
D19*
%TO.N,GND*%
X160368744Y-118364000D02*
X157226000Y-118364000D01*
X142759998Y-107696000D02*
X142476000Y-107696000D01*
X144760000Y-120329471D02*
X145963471Y-119126000D01*
X141860000Y-107080000D02*
X141860000Y-106298000D01*
X139313201Y-96170593D02*
X138447810Y-96170593D01*
X160791000Y-120408500D02*
X160791000Y-118786256D01*
X134340200Y-100278203D02*
X134340200Y-100340000D01*
X141860000Y-106298000D02*
X142748000Y-105410000D01*
X139772200Y-124710000D02*
X144760000Y-124710000D01*
X138447810Y-96170593D02*
X134340200Y-100278203D01*
X148590000Y-119126000D02*
X149098000Y-119634000D01*
X142476000Y-107696000D02*
X141860000Y-107080000D01*
X139700000Y-124637800D02*
X139772200Y-124710000D01*
X139700000Y-129540000D02*
X139700000Y-124637800D01*
X144760000Y-124710000D02*
X144760000Y-120329471D01*
X160791000Y-118786256D02*
X160368744Y-118364000D01*
X155860000Y-107080000D02*
X156102000Y-107080000D01*
X156102000Y-107080000D02*
X156718000Y-107696000D01*
X139700000Y-124637800D02*
X134442200Y-119380000D01*
X145963471Y-119126000D02*
X148590000Y-119126000D01*
X159766000Y-121433500D02*
X160791000Y-120408500D01*
%TO.N,VCC*%
X147860000Y-123080000D02*
X147860000Y-122350000D01*
X147860000Y-121698000D02*
X147860000Y-123080000D01*
X146304000Y-120142000D02*
X147860000Y-121698000D01*
X150851500Y-119358500D02*
X159766000Y-119358500D01*
X150866982Y-108719092D02*
X150866982Y-105543018D01*
X150866982Y-105543018D02*
X151762000Y-104648000D01*
X150851500Y-119358500D02*
X148082000Y-116589000D01*
X147860000Y-122350000D02*
X150851500Y-119358500D01*
X151762000Y-104648000D02*
X152654000Y-104648000D01*
X148082000Y-116589000D02*
X148082000Y-113030000D01*
%TO.N,SCK*%
X147860000Y-107810000D02*
X146960000Y-108710000D01*
X147860000Y-107080000D02*
X147860000Y-107810000D01*
X146960000Y-109072000D02*
X144926000Y-111106000D01*
X140098000Y-108710000D02*
X139698000Y-108710000D01*
X144926000Y-111106000D02*
X142494000Y-111106000D01*
X142494000Y-111106000D02*
X140098000Y-108710000D01*
X139698000Y-108710000D02*
X138684000Y-107696000D01*
X146960000Y-108710000D02*
X146960000Y-109072000D01*
%TO.N,MOSI*%
X145860000Y-107080000D02*
X145860000Y-106350000D01*
X145860000Y-106350000D02*
X144158000Y-104648000D01*
X144158000Y-104648000D02*
X142661471Y-104648000D01*
X142661471Y-104648000D02*
X142153471Y-105156000D01*
X142153471Y-105156000D02*
X138684000Y-105156000D01*
X139192000Y-104648000D02*
X138684000Y-105156000D01*
%TO.N,BATTREAD*%
X141640000Y-104486000D02*
X140046000Y-104486000D01*
X140046000Y-104486000D02*
X138684000Y-103124000D01*
X138684000Y-103124000D02*
X138684000Y-102616000D01*
X142494000Y-103632000D02*
X141640000Y-104486000D01*
%TO.N,RESET*%
X151860000Y-106242003D02*
X152654000Y-105448003D01*
X151860000Y-107080000D02*
X151860000Y-106242003D01*
%TO.N,MISO*%
X139816500Y-107442000D02*
X139816500Y-107226903D01*
X137551500Y-98668500D02*
X138684000Y-97536000D01*
X143860000Y-107080000D02*
X143860000Y-107810000D01*
X141084500Y-108710000D02*
X139816500Y-107442000D01*
X143860000Y-107810000D02*
X142960000Y-108710000D01*
X137551500Y-105625097D02*
X137551500Y-98668500D01*
X142960000Y-108710000D02*
X141084500Y-108710000D01*
X138352403Y-106426000D02*
X137551500Y-105625097D01*
X139816500Y-107226903D02*
X139015597Y-106426000D01*
X139015597Y-106426000D02*
X138352403Y-106426000D01*
%TO.N,NSS*%
X133190200Y-103803797D02*
X133190200Y-99863654D01*
X141492403Y-112106000D02*
X133190200Y-103803797D01*
X149860000Y-107080000D02*
X149860000Y-108175685D01*
X134816546Y-99190000D02*
X138684000Y-95322546D01*
X133190200Y-99863654D02*
X133863854Y-99190000D01*
X138684000Y-95322546D02*
X138684000Y-94996000D01*
X149860000Y-108175685D02*
X145929685Y-112106000D01*
X145929685Y-112106000D02*
X141492403Y-112106000D01*
X133863854Y-99190000D02*
X134816546Y-99190000D01*
%TO.N,PROG_EN*%
X149352000Y-94996000D02*
X161544000Y-94996000D01*
X140462000Y-103886000D02*
X149352000Y-94996000D01*
%TO.N,RXD*%
X158496000Y-102616000D02*
X161544000Y-102616000D01*
X145259998Y-99935391D02*
X146643389Y-98552000D01*
X146643389Y-98552000D02*
X154432000Y-98552000D01*
X154432000Y-98552000D02*
X158496000Y-102616000D01*
X143510000Y-98552000D02*
X144228735Y-99270735D01*
X140483798Y-100330000D02*
X142261798Y-98552000D01*
X142367000Y-98425000D02*
X143510000Y-98552000D01*
X142261798Y-98552000D02*
X142367000Y-98425000D01*
%TO.N,TXD*%
X160366668Y-105156000D02*
X154723934Y-99513266D01*
X139954000Y-93472000D02*
X139837500Y-93588500D01*
X154723934Y-99513266D02*
X147283713Y-99513266D01*
X138313500Y-93588500D02*
X134340200Y-97561800D01*
X139837500Y-93588500D02*
X138313500Y-93588500D01*
X134340200Y-97561800D02*
X134340200Y-97800000D01*
X161544000Y-105156000D02*
X160366668Y-105156000D01*
%TO.N,GPSFREEZE_1*%
X148844000Y-108626000D02*
X148844000Y-105566000D01*
X148844000Y-105566000D02*
X150778000Y-103632000D01*
X150778000Y-103632000D02*
X155956000Y-103632000D01*
X145964000Y-111506000D02*
X148844000Y-108626000D01*
X141986000Y-111506000D02*
X145964000Y-111506000D01*
%TO.N,Net-(J5-PadG1)*%
X153569000Y-133096000D02*
X158369000Y-133096000D01*
X153860000Y-128005000D02*
X153569000Y-128296000D01*
X153569000Y-128296000D02*
X153569000Y-133096000D01*
X158369000Y-133096000D02*
X158369000Y-128296000D01*
X153860000Y-123080000D02*
X153860000Y-128005000D01*
D20*
%TO.N,Net-(U2-ANT)*%
X155860000Y-130587000D02*
X155969000Y-130696000D01*
X155860000Y-123080000D02*
X155860000Y-130587000D01*
%TD*%
%TA.AperFunction,Conductor*%
%TO.N,PROG_EN*%
G36*
X161229891Y-94237710D02*
G01*
X161230218Y-94238428D01*
X161543134Y-94991511D01*
X161543144Y-95000465D01*
X161543134Y-95000489D01*
X161230218Y-95753571D01*
X161223879Y-95759896D01*
X161214925Y-95759886D01*
X161214207Y-95759559D01*
X159885493Y-95099226D01*
X159879609Y-95092476D01*
X159879000Y-95088749D01*
X159879000Y-94903250D01*
X159882427Y-94894977D01*
X159885493Y-94892773D01*
X161214208Y-94232439D01*
X161223141Y-94231826D01*
X161229891Y-94237710D01*
G37*
%TD.AperFunction*%
%TD*%
%TA.AperFunction,Conductor*%
%TO.N,GND*%
G36*
X140485298Y-129214719D02*
G01*
X139700000Y-129541000D01*
X138914702Y-129214719D01*
X139600000Y-127840000D01*
X139800000Y-127840000D01*
X140485298Y-129214719D01*
G37*
%TD.AperFunction*%
%TD*%
%TA.AperFunction,Conductor*%
%TO.N,MOSI*%
G36*
X139013074Y-104392113D02*
G01*
X139013792Y-104392440D01*
X140342507Y-105052773D01*
X140348391Y-105059523D01*
X140349000Y-105063250D01*
X140349000Y-105248749D01*
X140345573Y-105257022D01*
X140342507Y-105259226D01*
X139013792Y-105919559D01*
X139004858Y-105920173D01*
X138998108Y-105914289D01*
X138997781Y-105913571D01*
X138684865Y-105160489D01*
X138684855Y-105151535D01*
X138684865Y-105151511D01*
X138721539Y-105063250D01*
X138997781Y-104398427D01*
X139004120Y-104392103D01*
X139013074Y-104392113D01*
G37*
%TD.AperFunction*%
%TD*%
%TA.AperFunction,Conductor*%
%TO.N,GND*%
G36*
X135436481Y-99045393D02*
G01*
X135439780Y-99047710D01*
X135570984Y-99178914D01*
X135574411Y-99187187D01*
X135573905Y-99190591D01*
X135129246Y-100652952D01*
X135123561Y-100659870D01*
X135114648Y-100660742D01*
X135113586Y-100660362D01*
X134343985Y-100342562D01*
X134337647Y-100336238D01*
X134019591Y-99566015D01*
X134019600Y-99557062D01*
X134025939Y-99550737D01*
X134026395Y-99550560D01*
X134190918Y-99491194D01*
X134194889Y-99490500D01*
X134765620Y-99490500D01*
X134769336Y-99491105D01*
X134774311Y-99492773D01*
X134823221Y-99490511D01*
X134823761Y-99490500D01*
X134844389Y-99490500D01*
X134844390Y-99490500D01*
X134850469Y-99489362D01*
X134852052Y-99489178D01*
X134886538Y-99487585D01*
X134904800Y-99479520D01*
X134907362Y-99478727D01*
X134926979Y-99475061D01*
X134956318Y-99456894D01*
X134957739Y-99456146D01*
X134989311Y-99442206D01*
X135003421Y-99428094D01*
X135005526Y-99426426D01*
X135022498Y-99415919D01*
X135043292Y-99388381D01*
X135044348Y-99387167D01*
X135361551Y-99069964D01*
X135365838Y-99067240D01*
X135427539Y-99044977D01*
X135436481Y-99045393D01*
G37*
%TD.AperFunction*%
%TD*%
%TA.AperFunction,Conductor*%
%TO.N,GND*%
G36*
X142759998Y-107596000D02*
G01*
X142759998Y-107796000D01*
X142421365Y-108191305D01*
X141859000Y-107080000D01*
X142460000Y-106764071D01*
X142759998Y-107596000D01*
G37*
%TD.AperFunction*%
%TD*%
%TA.AperFunction,Conductor*%
%TO.N,NSS*%
G36*
X138685149Y-94998719D02*
G01*
X138687696Y-95002533D01*
X138788549Y-95246779D01*
X138997282Y-95752290D01*
X138997272Y-95761244D01*
X138990933Y-95767569D01*
X138989864Y-95767951D01*
X138847326Y-95811189D01*
X138845082Y-95811636D01*
X138841094Y-95812030D01*
X138841076Y-95812033D01*
X138790735Y-95823508D01*
X138665106Y-95869383D01*
X138661093Y-95870093D01*
X138498737Y-95870093D01*
X138495020Y-95869487D01*
X138490046Y-95867820D01*
X138490044Y-95867820D01*
X138441136Y-95870081D01*
X138440596Y-95870093D01*
X138419963Y-95870093D01*
X138413894Y-95871227D01*
X138412287Y-95871413D01*
X138377821Y-95873007D01*
X138377814Y-95873009D01*
X138359563Y-95881067D01*
X138356989Y-95881865D01*
X138337376Y-95885532D01*
X138308041Y-95903694D01*
X138306608Y-95904449D01*
X138275046Y-95918386D01*
X138260936Y-95932495D01*
X138258823Y-95934168D01*
X138241860Y-95944672D01*
X138241856Y-95944675D01*
X138221062Y-95972209D01*
X138219999Y-95973431D01*
X137864675Y-96328754D01*
X137861600Y-96330963D01*
X137780657Y-96371105D01*
X137771723Y-96371710D01*
X137767186Y-96368896D01*
X137636020Y-96237730D01*
X137632593Y-96229457D01*
X137632772Y-96227419D01*
X137849787Y-95005643D01*
X137854607Y-94998098D01*
X137861293Y-94995991D01*
X138676874Y-94995299D01*
X138685149Y-94998719D01*
G37*
%TD.AperFunction*%
%TD*%
%TA.AperFunction,Conductor*%
%TO.N,GND*%
G36*
X157826000Y-118264000D02*
G01*
X157826000Y-118464000D01*
X157340805Y-118641164D01*
X157225000Y-118364000D01*
X157340805Y-118086836D01*
X157826000Y-118264000D01*
G37*
%TD.AperFunction*%
%TD*%
%TA.AperFunction,Conductor*%
%TO.N,Net-(J5-PadG1)*%
G36*
X153864808Y-123096802D02*
G01*
X153870666Y-123102660D01*
X154456991Y-124403325D01*
X154457267Y-124412275D01*
X154455313Y-124415623D01*
X153963508Y-125005790D01*
X153955579Y-125009952D01*
X153954520Y-125010000D01*
X153765480Y-125010000D01*
X153757207Y-125006573D01*
X153756492Y-125005790D01*
X153264686Y-124415623D01*
X153262022Y-124407074D01*
X153263006Y-124403330D01*
X153849334Y-123102659D01*
X153855858Y-123096526D01*
X153864808Y-123096802D01*
G37*
%TD.AperFunction*%
%TD*%
%TA.AperFunction,Conductor*%
%TO.N,Net-(J5-PadG1)*%
G36*
X153670086Y-131179427D02*
G01*
X153672249Y-131182411D01*
X154450219Y-132717369D01*
X154450903Y-132726297D01*
X154445072Y-132733094D01*
X154444271Y-132733463D01*
X153573488Y-133095135D01*
X153564533Y-133095144D01*
X153564512Y-133095135D01*
X152693728Y-132733463D01*
X152687402Y-132727125D01*
X152687411Y-132718170D01*
X152687780Y-132717369D01*
X153465751Y-131182411D01*
X153472548Y-131176580D01*
X153476187Y-131176000D01*
X153661813Y-131176000D01*
X153670086Y-131179427D01*
G37*
%TD.AperFunction*%
%TD*%
%TA.AperFunction,Conductor*%
%TO.N,SCK*%
G36*
X139451012Y-107382000D02*
G01*
X139457341Y-107388335D01*
X139457445Y-107388593D01*
X139872237Y-108463005D01*
X139928202Y-108607966D01*
X139928987Y-108612180D01*
X139928987Y-108795438D01*
X139925560Y-108803711D01*
X139917287Y-108807138D01*
X139914767Y-108806863D01*
X138379031Y-108468133D01*
X138371690Y-108463005D01*
X138370126Y-108454188D01*
X138370737Y-108452243D01*
X138681146Y-107700489D01*
X138687470Y-107694150D01*
X139442058Y-107381996D01*
X139451012Y-107382000D01*
G37*
%TD.AperFunction*%
%TD*%
%TA.AperFunction,Conductor*%
%TO.N,TXD*%
G36*
X147876026Y-99410459D02*
G01*
X147882622Y-99416515D01*
X147883713Y-99421449D01*
X147883713Y-99605082D01*
X147880286Y-99613355D01*
X147876026Y-99616072D01*
X147409018Y-99786596D01*
X147400071Y-99786215D01*
X147394209Y-99780117D01*
X147284596Y-99517775D01*
X147284570Y-99508822D01*
X147284575Y-99508808D01*
X147394209Y-99246413D01*
X147400561Y-99240102D01*
X147409015Y-99239935D01*
X147876026Y-99410459D01*
G37*
%TD.AperFunction*%
%TD*%
%TA.AperFunction,Conductor*%
%TO.N,Net-(J5-PadG1)*%
G36*
X153946829Y-132214411D02*
G01*
X153947631Y-132214780D01*
X155482590Y-132992751D01*
X155488420Y-132999547D01*
X155489000Y-133003186D01*
X155489000Y-133188813D01*
X155485573Y-133197086D01*
X155482589Y-133199249D01*
X153947630Y-133977219D01*
X153938702Y-133977903D01*
X153931905Y-133972072D01*
X153931536Y-133971271D01*
X153569864Y-133100488D01*
X153569855Y-133091533D01*
X153569864Y-133091512D01*
X153931536Y-132220728D01*
X153937874Y-132214402D01*
X153946829Y-132214411D01*
G37*
%TD.AperFunction*%
%TD*%
%TA.AperFunction,Conductor*%
%TO.N,RXD*%
G36*
X143882599Y-98779210D02*
G01*
X144333406Y-98988858D01*
X144339461Y-98995453D01*
X144339294Y-99003910D01*
X144231298Y-99266919D01*
X144224986Y-99273271D01*
X144224919Y-99273298D01*
X143961910Y-99381294D01*
X143952955Y-99381267D01*
X143946858Y-99375406D01*
X143737210Y-98924600D01*
X143736830Y-98915655D01*
X143739545Y-98911397D01*
X143869396Y-98781546D01*
X143877668Y-98778120D01*
X143882599Y-98779210D01*
G37*
%TD.AperFunction*%
%TD*%
%TA.AperFunction,Conductor*%
%TO.N,Net-(J5-PadG1)*%
G36*
X158006094Y-132219927D02*
G01*
X158006463Y-132220728D01*
X158368135Y-133091512D01*
X158368144Y-133100467D01*
X158368135Y-133100488D01*
X158006463Y-133971271D01*
X158000125Y-133977597D01*
X157991170Y-133977588D01*
X157990369Y-133977219D01*
X156455411Y-133199249D01*
X156449580Y-133192452D01*
X156449000Y-133188813D01*
X156449000Y-133003186D01*
X156452427Y-132994913D01*
X156455407Y-132992752D01*
X157990369Y-132214779D01*
X157999297Y-132214096D01*
X158006094Y-132219927D01*
G37*
%TD.AperFunction*%
%TD*%
%TA.AperFunction,Conductor*%
%TO.N,Net-(J5-PadG1)*%
G36*
X158470086Y-131179427D02*
G01*
X158472249Y-131182411D01*
X159250219Y-132717369D01*
X159250903Y-132726297D01*
X159245072Y-132733094D01*
X159244271Y-132733463D01*
X158373488Y-133095135D01*
X158364533Y-133095144D01*
X158364512Y-133095135D01*
X157493728Y-132733463D01*
X157487402Y-132727125D01*
X157487411Y-132718170D01*
X157487780Y-132717369D01*
X158265751Y-131182411D01*
X158272548Y-131176580D01*
X158276187Y-131176000D01*
X158461813Y-131176000D01*
X158470086Y-131179427D01*
G37*
%TD.AperFunction*%
%TD*%
%TA.AperFunction,Conductor*%
%TO.N,VCC*%
G36*
X146579779Y-120031467D02*
G01*
X146585877Y-120037329D01*
X146795523Y-120488132D01*
X146795904Y-120497079D01*
X146793187Y-120501339D01*
X146663339Y-120631187D01*
X146655066Y-120634614D01*
X146650132Y-120633523D01*
X146356736Y-120497079D01*
X146199328Y-120423876D01*
X146193273Y-120417281D01*
X146193439Y-120408825D01*
X146301436Y-120145814D01*
X146307746Y-120139464D01*
X146570825Y-120031440D01*
X146579779Y-120031467D01*
G37*
%TD.AperFunction*%
%TD*%
%TA.AperFunction,Conductor*%
%TO.N,VCC*%
G36*
X159201941Y-118796605D02*
G01*
X159758657Y-119350204D01*
X159762107Y-119358467D01*
X159758703Y-119366750D01*
X159758657Y-119366796D01*
X159201941Y-119920394D01*
X159193658Y-119923798D01*
X159187445Y-119921991D01*
X158884916Y-119730942D01*
X158458953Y-119461943D01*
X158453787Y-119454628D01*
X158453500Y-119452050D01*
X158453500Y-119264949D01*
X158456927Y-119256676D01*
X158458950Y-119255057D01*
X159187447Y-118795007D01*
X159196269Y-118793488D01*
X159201941Y-118796605D01*
G37*
%TD.AperFunction*%
%TD*%
%TA.AperFunction,Conductor*%
%TO.N,GND*%
G36*
X135224869Y-119059511D02*
G01*
X135231194Y-119065850D01*
X135231475Y-119066603D01*
X135598537Y-120163400D01*
X135712694Y-120504504D01*
X135712070Y-120513437D01*
X135709872Y-120516490D01*
X135578690Y-120647672D01*
X135570417Y-120651099D01*
X135566704Y-120650494D01*
X135157172Y-120513437D01*
X134902435Y-120428184D01*
X134128803Y-120169275D01*
X134122045Y-120163400D01*
X134121421Y-120154467D01*
X134121697Y-120153726D01*
X134439638Y-119383783D01*
X134445959Y-119377448D01*
X135215915Y-119059502D01*
X135224869Y-119059511D01*
G37*
%TD.AperFunction*%
%TD*%
%TA.AperFunction,Conductor*%
%TO.N,VCC*%
G36*
X150967072Y-108122519D02*
G01*
X150969788Y-108126778D01*
X151058790Y-108370525D01*
X151059500Y-108374536D01*
X151059500Y-108429747D01*
X151071133Y-108488231D01*
X151115447Y-108554551D01*
X151115448Y-108554552D01*
X151126207Y-108561741D01*
X151130697Y-108567456D01*
X151140311Y-108593787D01*
X151139930Y-108602734D01*
X151133832Y-108608596D01*
X150871493Y-108718207D01*
X150862538Y-108718234D01*
X150862471Y-108718207D01*
X150600130Y-108608595D01*
X150593818Y-108602243D01*
X150593651Y-108593789D01*
X150611627Y-108544558D01*
X150612882Y-108542084D01*
X150648867Y-108488231D01*
X150660500Y-108429748D01*
X150660500Y-108412779D01*
X150661210Y-108408766D01*
X150675175Y-108370523D01*
X150764175Y-108126778D01*
X150770231Y-108120183D01*
X150775165Y-108119092D01*
X150958799Y-108119092D01*
X150967072Y-108122519D01*
G37*
%TD.AperFunction*%
%TD*%
%TA.AperFunction,Conductor*%
%TO.N,RXD*%
G36*
X140843137Y-99840812D02*
G01*
X140972985Y-99970660D01*
X140976412Y-99978933D01*
X140975321Y-99983867D01*
X140765675Y-100434670D01*
X140759079Y-100440726D01*
X140750622Y-100440559D01*
X140487613Y-100332563D01*
X140481261Y-100326251D01*
X140481234Y-100326184D01*
X140373238Y-100063175D01*
X140373265Y-100054220D01*
X140379124Y-100048124D01*
X140829932Y-99838475D01*
X140838877Y-99838095D01*
X140843137Y-99840812D01*
G37*
%TD.AperFunction*%
%TD*%
%TA.AperFunction,Conductor*%
%TO.N,RESET*%
G36*
X152387174Y-105337442D02*
G01*
X152550804Y-105404632D01*
X152650184Y-105445439D01*
X152656536Y-105451751D01*
X152656563Y-105451818D01*
X152764559Y-105714827D01*
X152764532Y-105723782D01*
X152758670Y-105729880D01*
X152307867Y-105939526D01*
X152298920Y-105939907D01*
X152294660Y-105937190D01*
X152164812Y-105807342D01*
X152161385Y-105799069D01*
X152162474Y-105794139D01*
X152372124Y-105343330D01*
X152378718Y-105337276D01*
X152387174Y-105337442D01*
G37*
%TD.AperFunction*%
%TD*%
%TA.AperFunction,Conductor*%
%TO.N,TXD*%
G36*
X139843625Y-93205884D02*
G01*
X139844552Y-93207657D01*
X139954088Y-93469817D01*
X139954992Y-93474367D01*
X139954044Y-93758527D01*
X139950590Y-93766789D01*
X139942305Y-93770188D01*
X139940666Y-93770067D01*
X139387991Y-93689952D01*
X139380295Y-93685374D01*
X139377969Y-93678373D01*
X139377969Y-93494920D01*
X139381396Y-93486647D01*
X139383381Y-93485053D01*
X139827474Y-93202298D01*
X139836291Y-93200746D01*
X139843625Y-93205884D01*
G37*
%TD.AperFunction*%
%TD*%
%TA.AperFunction,Conductor*%
%TO.N,GND*%
G36*
X139314201Y-96170593D02*
G01*
X139198396Y-96447757D01*
X138713201Y-96270593D01*
X138713201Y-96070593D01*
X138861226Y-96016542D01*
X138886503Y-96014053D01*
X139081225Y-95954985D01*
X139192066Y-95895739D01*
X139198396Y-95893429D01*
X139314201Y-96170593D01*
G37*
%TD.AperFunction*%
%TD*%
%TA.AperFunction,Conductor*%
%TO.N,Net-(J5-PadG1)*%
G36*
X153959828Y-126437311D02*
G01*
X153962660Y-126441900D01*
X154452500Y-127918305D01*
X154451852Y-127927236D01*
X154445883Y-127932794D01*
X153576232Y-128293995D01*
X153567277Y-128294004D01*
X153563465Y-128291457D01*
X152897271Y-127624282D01*
X152893851Y-127616007D01*
X152896123Y-127609087D01*
X153756494Y-126438654D01*
X153764155Y-126434018D01*
X153765921Y-126433884D01*
X153951555Y-126433884D01*
X153959828Y-126437311D01*
G37*
%TD.AperFunction*%
%TD*%
%TA.AperFunction,Conductor*%
%TO.N,TXD*%
G36*
X135334459Y-96437476D02*
G01*
X135465660Y-96568677D01*
X135469087Y-96576950D01*
X135468809Y-96579487D01*
X135128516Y-98111689D01*
X135123377Y-98119022D01*
X135114557Y-98120574D01*
X135112628Y-98119966D01*
X134343985Y-97802562D01*
X134337647Y-97796238D01*
X134019270Y-97025238D01*
X134019279Y-97016284D01*
X134025337Y-97010079D01*
X135321442Y-96435053D01*
X135330393Y-96434832D01*
X135334459Y-96437476D01*
G37*
%TD.AperFunction*%
%TD*%
%TA.AperFunction,Conductor*%
%TO.N,SCK*%
G36*
X147271702Y-106940585D02*
G01*
X147851031Y-107076889D01*
X147858298Y-107082120D01*
X147860050Y-107088214D01*
X147867265Y-108403272D01*
X147863883Y-108411564D01*
X147861505Y-108413416D01*
X147062749Y-108884116D01*
X147056809Y-108885736D01*
X146874347Y-108885736D01*
X146866074Y-108882309D01*
X146862647Y-108874036D01*
X146862886Y-108871683D01*
X147229119Y-107088214D01*
X147257578Y-106949624D01*
X147262599Y-106942210D01*
X147271392Y-106940517D01*
X147271702Y-106940585D01*
G37*
%TD.AperFunction*%
%TD*%
%TA.AperFunction,Conductor*%
%TO.N,GND*%
G36*
X156788710Y-107625289D02*
G01*
X156647289Y-107766710D01*
X156368001Y-108183341D01*
X155859293Y-107079293D01*
X156460000Y-106772006D01*
X156788710Y-107625289D01*
G37*
%TD.AperFunction*%
%TD*%
%TA.AperFunction,Conductor*%
%TO.N,VCC*%
G36*
X147551391Y-121246312D02*
G01*
X148177309Y-121745348D01*
X148181641Y-121753185D01*
X148181386Y-121757251D01*
X147868728Y-123047603D01*
X147863449Y-123054837D01*
X147854602Y-123056219D01*
X147847368Y-123050940D01*
X147846693Y-123049662D01*
X147262010Y-121754453D01*
X147261730Y-121745502D01*
X147261753Y-121745440D01*
X147400905Y-121383531D01*
X147403550Y-121379461D01*
X147535825Y-121247186D01*
X147544097Y-121243760D01*
X147551391Y-121246312D01*
G37*
%TD.AperFunction*%
%TD*%
%TA.AperFunction,Conductor*%
%TO.N,GND*%
G36*
X156031620Y-85109685D02*
G01*
X156068897Y-85146962D01*
X156081854Y-85167125D01*
X156081857Y-85167128D01*
X156102488Y-85185006D01*
X156114992Y-85197510D01*
X156132870Y-85218141D01*
X156132872Y-85218143D01*
X156155844Y-85232905D01*
X156169996Y-85243500D01*
X156190627Y-85261377D01*
X156213899Y-85272005D01*
X156215451Y-85272714D01*
X156230978Y-85281192D01*
X156253947Y-85295953D01*
X156280136Y-85303643D01*
X156296713Y-85309826D01*
X156321538Y-85321163D01*
X156321539Y-85321163D01*
X156321543Y-85321165D01*
X156348564Y-85325050D01*
X156365846Y-85328809D01*
X156392039Y-85336500D01*
X156428201Y-85336500D01*
X163459500Y-85336500D01*
X163526539Y-85356185D01*
X163572294Y-85408989D01*
X163583500Y-85460500D01*
X163583500Y-125867500D01*
X163563815Y-125934539D01*
X163511011Y-125980294D01*
X163459500Y-125991500D01*
X159837961Y-125991500D01*
X159694039Y-125991500D01*
X159694036Y-125991500D01*
X159694034Y-125991501D01*
X159667842Y-125999190D01*
X159650568Y-126002948D01*
X159623544Y-126006834D01*
X159623541Y-126006835D01*
X159598710Y-126018175D01*
X159582141Y-126024355D01*
X159569171Y-126028163D01*
X159555947Y-126032047D01*
X159555945Y-126032047D01*
X159555945Y-126032048D01*
X159532982Y-126046805D01*
X159517461Y-126055280D01*
X159492628Y-126066621D01*
X159492625Y-126066623D01*
X159472000Y-126084495D01*
X159457840Y-126095095D01*
X159434876Y-126109853D01*
X159434871Y-126109857D01*
X159416993Y-126130489D01*
X159404489Y-126142993D01*
X159383857Y-126160871D01*
X159383853Y-126160876D01*
X159369095Y-126183840D01*
X159358495Y-126198000D01*
X159340623Y-126218625D01*
X159340621Y-126218628D01*
X159329280Y-126243461D01*
X159320805Y-126258982D01*
X159306048Y-126281945D01*
X159298355Y-126308141D01*
X159292175Y-126324710D01*
X159280835Y-126349541D01*
X159280834Y-126349544D01*
X159276948Y-126376568D01*
X159273194Y-126393831D01*
X159270526Y-126402918D01*
X159232763Y-126461700D01*
X159169212Y-126490735D01*
X159151545Y-126492000D01*
X157234500Y-126492000D01*
X157167461Y-126472315D01*
X157121706Y-126419511D01*
X157110500Y-126368000D01*
X157110500Y-123023852D01*
X157110500Y-123023845D01*
X157095377Y-122855812D01*
X157095376Y-122855807D01*
X157035496Y-122638839D01*
X157035491Y-122638826D01*
X156972779Y-122508601D01*
X156960499Y-122454800D01*
X156960499Y-121702129D01*
X156960498Y-121702123D01*
X156960497Y-121702116D01*
X156958496Y-121683500D01*
X158541001Y-121683500D01*
X158541001Y-121820986D01*
X158551494Y-121923697D01*
X158606641Y-122090119D01*
X158606643Y-122090124D01*
X158698684Y-122239345D01*
X158822654Y-122363315D01*
X158971875Y-122455356D01*
X158971880Y-122455358D01*
X159138302Y-122510505D01*
X159138309Y-122510506D01*
X159241019Y-122520999D01*
X159515999Y-122520999D01*
X159516000Y-122520998D01*
X159516000Y-121683500D01*
X160016000Y-121683500D01*
X160016000Y-122520999D01*
X160290972Y-122520999D01*
X160290986Y-122520998D01*
X160393697Y-122510505D01*
X160560119Y-122455358D01*
X160560124Y-122455356D01*
X160709345Y-122363315D01*
X160833315Y-122239345D01*
X160925356Y-122090124D01*
X160925358Y-122090119D01*
X160980505Y-121923697D01*
X160980506Y-121923690D01*
X160990999Y-121820986D01*
X160991000Y-121820973D01*
X160991000Y-121683500D01*
X160016000Y-121683500D01*
X159516000Y-121683500D01*
X158541001Y-121683500D01*
X156958496Y-121683500D01*
X156954091Y-121642517D01*
X156903796Y-121507669D01*
X156903795Y-121507668D01*
X156903793Y-121507664D01*
X156817547Y-121392455D01*
X156817544Y-121392452D01*
X156702335Y-121306206D01*
X156702328Y-121306202D01*
X156567482Y-121255908D01*
X156567483Y-121255908D01*
X156507883Y-121249501D01*
X156507881Y-121249500D01*
X156507873Y-121249500D01*
X156507864Y-121249500D01*
X155212129Y-121249500D01*
X155212123Y-121249501D01*
X155152516Y-121255908D01*
X155017671Y-121306202D01*
X155017669Y-121306203D01*
X154934311Y-121368606D01*
X154868847Y-121393023D01*
X154800574Y-121378172D01*
X154785689Y-121368606D01*
X154702330Y-121306203D01*
X154702328Y-121306202D01*
X154567482Y-121255908D01*
X154567483Y-121255908D01*
X154507883Y-121249501D01*
X154507881Y-121249500D01*
X154507873Y-121249500D01*
X154507864Y-121249500D01*
X153212129Y-121249500D01*
X153212123Y-121249501D01*
X153152516Y-121255908D01*
X153017671Y-121306202D01*
X153017669Y-121306203D01*
X152934311Y-121368606D01*
X152868847Y-121393023D01*
X152800574Y-121378172D01*
X152785689Y-121368606D01*
X152702330Y-121306203D01*
X152702328Y-121306202D01*
X152567482Y-121255908D01*
X152567483Y-121255908D01*
X152507883Y-121249501D01*
X152507881Y-121249500D01*
X152507873Y-121249500D01*
X152507864Y-121249500D01*
X151212129Y-121249500D01*
X151212123Y-121249501D01*
X151152516Y-121255908D01*
X151017671Y-121306202D01*
X151017669Y-121306203D01*
X150934311Y-121368606D01*
X150868847Y-121393023D01*
X150800574Y-121378172D01*
X150785689Y-121368606D01*
X150702330Y-121306203D01*
X150702328Y-121306202D01*
X150567482Y-121255908D01*
X150567483Y-121255908D01*
X150507883Y-121249501D01*
X150507881Y-121249500D01*
X150507873Y-121249500D01*
X150507865Y-121249500D01*
X150109096Y-121249500D01*
X150042057Y-121229815D01*
X149996302Y-121177011D01*
X149986358Y-121107853D01*
X150015383Y-121044297D01*
X150021415Y-121037819D01*
X151063916Y-119995319D01*
X151125239Y-119961834D01*
X151151597Y-119959000D01*
X158263455Y-119959000D01*
X158329664Y-119978155D01*
X158826263Y-120291761D01*
X158872435Y-120344200D01*
X158882927Y-120413278D01*
X158854407Y-120477062D01*
X158825160Y-120502137D01*
X158822663Y-120503677D01*
X158822655Y-120503683D01*
X158698684Y-120627654D01*
X158606643Y-120776875D01*
X158606641Y-120776880D01*
X158551494Y-120943302D01*
X158551493Y-120943309D01*
X158541000Y-121046013D01*
X158541000Y-121183500D01*
X160990999Y-121183500D01*
X160990999Y-121046028D01*
X160990998Y-121046013D01*
X160980505Y-120943302D01*
X160925358Y-120776880D01*
X160925356Y-120776875D01*
X160833315Y-120627654D01*
X160709344Y-120503683D01*
X160709341Y-120503681D01*
X160706339Y-120501829D01*
X160704713Y-120500021D01*
X160703677Y-120499202D01*
X160703817Y-120499024D01*
X160659617Y-120449880D01*
X160648397Y-120380917D01*
X160676243Y-120316836D01*
X160706344Y-120290754D01*
X160709656Y-120288712D01*
X160833712Y-120164656D01*
X160925814Y-120015334D01*
X160980999Y-119848797D01*
X160991500Y-119746009D01*
X160991499Y-118970992D01*
X160980999Y-118868203D01*
X160925814Y-118701666D01*
X160833712Y-118552344D01*
X160709656Y-118428288D01*
X160560334Y-118336186D01*
X160393797Y-118281001D01*
X160393795Y-118281000D01*
X160291010Y-118270500D01*
X159240998Y-118270500D01*
X159240980Y-118270501D01*
X159138199Y-118281001D01*
X159071245Y-118303187D01*
X159059803Y-118306379D01*
X159048885Y-118308867D01*
X159039636Y-118313003D01*
X159028032Y-118317507D01*
X158971661Y-118336187D01*
X158936160Y-118358084D01*
X158921699Y-118365735D01*
X158917548Y-118367591D01*
X158917536Y-118367597D01*
X158329662Y-118738844D01*
X158263452Y-118758000D01*
X151151598Y-118758000D01*
X151084559Y-118738315D01*
X151063917Y-118721681D01*
X148718819Y-116376583D01*
X148685334Y-116315260D01*
X148682500Y-116288902D01*
X148682500Y-113755025D01*
X148690022Y-113712494D01*
X148830166Y-113328686D01*
X148843071Y-113288117D01*
X148843241Y-113286739D01*
X148849262Y-113260994D01*
X148867368Y-113209255D01*
X148887565Y-113030000D01*
X148867368Y-112850745D01*
X148807789Y-112680478D01*
X148711816Y-112527738D01*
X148584262Y-112400184D01*
X148431523Y-112304211D01*
X148261254Y-112244631D01*
X148261249Y-112244630D01*
X148082004Y-112224435D01*
X148081996Y-112224435D01*
X147902750Y-112244630D01*
X147902745Y-112244631D01*
X147732476Y-112304211D01*
X147579737Y-112400184D01*
X147452184Y-112527737D01*
X147356211Y-112680476D01*
X147296631Y-112850745D01*
X147296630Y-112850750D01*
X147276435Y-113029996D01*
X147276435Y-113030003D01*
X147296631Y-113209252D01*
X147324268Y-113288236D01*
X147328570Y-113303663D01*
X147333833Y-113328685D01*
X147473978Y-113712494D01*
X147481500Y-113755025D01*
X147481500Y-116541512D01*
X147480439Y-116557697D01*
X147476318Y-116588998D01*
X147476318Y-116589000D01*
X147481500Y-116628360D01*
X147481500Y-116628361D01*
X147496955Y-116745760D01*
X147496956Y-116745762D01*
X147557464Y-116891841D01*
X147653718Y-117017282D01*
X147653719Y-117017283D01*
X147678769Y-117036504D01*
X147690963Y-117047198D01*
X149914584Y-119270820D01*
X149948068Y-119332141D01*
X149943084Y-119401833D01*
X149914583Y-119446180D01*
X148532719Y-120828044D01*
X148506255Y-120848199D01*
X148203426Y-121020111D01*
X148135408Y-121036088D01*
X148069549Y-121012756D01*
X148064908Y-121009231D01*
X147866526Y-120851064D01*
X147855991Y-120843095D01*
X147843120Y-120831885D01*
X147241287Y-120230052D01*
X147216532Y-120194659D01*
X147044246Y-119824190D01*
X147044243Y-119824185D01*
X147044236Y-119824169D01*
X147037874Y-119811873D01*
X147030970Y-119795855D01*
X147029789Y-119792478D01*
X146933816Y-119639738D01*
X146806262Y-119512184D01*
X146653523Y-119416211D01*
X146483254Y-119356631D01*
X146483249Y-119356630D01*
X146304004Y-119336435D01*
X146303996Y-119336435D01*
X146124750Y-119356630D01*
X146124745Y-119356631D01*
X145954476Y-119416211D01*
X145801737Y-119512184D01*
X145674184Y-119639737D01*
X145578211Y-119792476D01*
X145518631Y-119962745D01*
X145518630Y-119962750D01*
X145498435Y-120141996D01*
X145498435Y-120142003D01*
X145518630Y-120321249D01*
X145518631Y-120321254D01*
X145578211Y-120491523D01*
X145585852Y-120503683D01*
X145674184Y-120644262D01*
X145801738Y-120771816D01*
X145954478Y-120867789D01*
X145954480Y-120867790D01*
X145960865Y-120870024D01*
X145982082Y-120880464D01*
X145982294Y-120880084D01*
X145986155Y-120882226D01*
X145986168Y-120882235D01*
X146244388Y-121002320D01*
X146267490Y-121013064D01*
X146319977Y-121059182D01*
X146339198Y-121126356D01*
X146319051Y-121193258D01*
X146265933Y-121238647D01*
X146215201Y-121249500D01*
X145212129Y-121249500D01*
X145212123Y-121249501D01*
X145152516Y-121255908D01*
X145017671Y-121306202D01*
X145017669Y-121306203D01*
X144934311Y-121368606D01*
X144868847Y-121393023D01*
X144800574Y-121378172D01*
X144785689Y-121368606D01*
X144702330Y-121306203D01*
X144702328Y-121306202D01*
X144567482Y-121255908D01*
X144567483Y-121255908D01*
X144507883Y-121249501D01*
X144507881Y-121249500D01*
X144507873Y-121249500D01*
X144507864Y-121249500D01*
X143212129Y-121249500D01*
X143212123Y-121249501D01*
X143152516Y-121255908D01*
X143017671Y-121306202D01*
X143017669Y-121306203D01*
X142934311Y-121368606D01*
X142868847Y-121393023D01*
X142800574Y-121378172D01*
X142785689Y-121368606D01*
X142702330Y-121306203D01*
X142702328Y-121306202D01*
X142567482Y-121255908D01*
X142567483Y-121255908D01*
X142507883Y-121249501D01*
X142507881Y-121249500D01*
X142507873Y-121249500D01*
X142507864Y-121249500D01*
X141212129Y-121249500D01*
X141212123Y-121249501D01*
X141152516Y-121255908D01*
X141017671Y-121306202D01*
X141017664Y-121306206D01*
X140902455Y-121392452D01*
X140902452Y-121392455D01*
X140816206Y-121507664D01*
X140816202Y-121507671D01*
X140765908Y-121642517D01*
X140759501Y-121702116D01*
X140759501Y-121702123D01*
X140759500Y-121702135D01*
X140759500Y-124457870D01*
X140759501Y-124457876D01*
X140765908Y-124517483D01*
X140816202Y-124652328D01*
X140816206Y-124652335D01*
X140902452Y-124767544D01*
X140902455Y-124767547D01*
X141017664Y-124853793D01*
X141017671Y-124853797D01*
X141152517Y-124904091D01*
X141152516Y-124904091D01*
X141159444Y-124904835D01*
X141212127Y-124910500D01*
X142507872Y-124910499D01*
X142567483Y-124904091D01*
X142702331Y-124853796D01*
X142785689Y-124791393D01*
X142851153Y-124766977D01*
X142919426Y-124781828D01*
X142934311Y-124791394D01*
X143017669Y-124853796D01*
X143017671Y-124853797D01*
X143152517Y-124904091D01*
X143152516Y-124904091D01*
X143159444Y-124904835D01*
X143212127Y-124910500D01*
X144507872Y-124910499D01*
X144567483Y-124904091D01*
X144702331Y-124853796D01*
X144785689Y-124791393D01*
X144851153Y-124766977D01*
X144919426Y-124781828D01*
X144934311Y-124791394D01*
X145017669Y-124853796D01*
X145017671Y-124853797D01*
X145152517Y-124904091D01*
X145152516Y-124904091D01*
X145159444Y-124904835D01*
X145212127Y-124910500D01*
X146507872Y-124910499D01*
X146567483Y-124904091D01*
X146702331Y-124853796D01*
X146785689Y-124791393D01*
X146851153Y-124766977D01*
X146919426Y-124781828D01*
X146934311Y-124791394D01*
X147017669Y-124853796D01*
X147017671Y-124853797D01*
X147152517Y-124904091D01*
X147152516Y-124904091D01*
X147159444Y-124904835D01*
X147212127Y-124910500D01*
X148507872Y-124910499D01*
X148567483Y-124904091D01*
X148702331Y-124853796D01*
X148785689Y-124791393D01*
X148851153Y-124766977D01*
X148919426Y-124781828D01*
X148934311Y-124791394D01*
X149017669Y-124853796D01*
X149017671Y-124853797D01*
X149152517Y-124904091D01*
X149152516Y-124904091D01*
X149159444Y-124904835D01*
X149212127Y-124910500D01*
X150507872Y-124910499D01*
X150567483Y-124904091D01*
X150702331Y-124853796D01*
X150785689Y-124791393D01*
X150851153Y-124766977D01*
X150919426Y-124781828D01*
X150934311Y-124791394D01*
X151017669Y-124853796D01*
X151017671Y-124853797D01*
X151152517Y-124904091D01*
X151152516Y-124904091D01*
X151159444Y-124904835D01*
X151212127Y-124910500D01*
X152507872Y-124910499D01*
X152567483Y-124904091D01*
X152702331Y-124853796D01*
X152774065Y-124800095D01*
X152839528Y-124775678D01*
X152907801Y-124790529D01*
X152943635Y-124819979D01*
X153019069Y-124910499D01*
X153230759Y-125164526D01*
X153258555Y-125228628D01*
X153259500Y-125243908D01*
X153259500Y-126220605D01*
X153239815Y-126287644D01*
X153235419Y-126294036D01*
X153127061Y-126441444D01*
X153071496Y-126483800D01*
X153027152Y-126492000D01*
X152760455Y-126492000D01*
X152693416Y-126472315D01*
X152647661Y-126419511D01*
X152641479Y-126402938D01*
X152638812Y-126393856D01*
X152635050Y-126376564D01*
X152631165Y-126349546D01*
X152631165Y-126349544D01*
X152631165Y-126349543D01*
X152631163Y-126349538D01*
X152619826Y-126324713D01*
X152613643Y-126308136D01*
X152605953Y-126281948D01*
X152605953Y-126281946D01*
X152591192Y-126258978D01*
X152582714Y-126243451D01*
X152572280Y-126220605D01*
X152571377Y-126218627D01*
X152553500Y-126197996D01*
X152542903Y-126183840D01*
X152528143Y-126160872D01*
X152528142Y-126160871D01*
X152507510Y-126142992D01*
X152495006Y-126130488D01*
X152477128Y-126109857D01*
X152477123Y-126109853D01*
X152454160Y-126095095D01*
X152440000Y-126084496D01*
X152433007Y-126078437D01*
X152419373Y-126066623D01*
X152394541Y-126055282D01*
X152379019Y-126046806D01*
X152379017Y-126046805D01*
X152356053Y-126032047D01*
X152356051Y-126032046D01*
X152329858Y-126024355D01*
X152313288Y-126018174D01*
X152288457Y-126006835D01*
X152261423Y-126002947D01*
X152244154Y-125999190D01*
X152217963Y-125991500D01*
X152217961Y-125991500D01*
X152181799Y-125991500D01*
X146375961Y-125991500D01*
X146232039Y-125991500D01*
X146232036Y-125991500D01*
X146232034Y-125991501D01*
X146205842Y-125999190D01*
X146188568Y-126002948D01*
X146161544Y-126006834D01*
X146161541Y-126006835D01*
X146136710Y-126018175D01*
X146120141Y-126024355D01*
X146107171Y-126028163D01*
X146093947Y-126032047D01*
X146093945Y-126032047D01*
X146093945Y-126032048D01*
X146070982Y-126046805D01*
X146055461Y-126055280D01*
X146030628Y-126066621D01*
X146030625Y-126066623D01*
X146010000Y-126084495D01*
X145995840Y-126095095D01*
X145972876Y-126109853D01*
X145972871Y-126109857D01*
X145954993Y-126130489D01*
X145942489Y-126142993D01*
X145921857Y-126160871D01*
X145921853Y-126160876D01*
X145907095Y-126183840D01*
X145896495Y-126198000D01*
X145878623Y-126218625D01*
X145878621Y-126218628D01*
X145867280Y-126243461D01*
X145858805Y-126258982D01*
X145844048Y-126281945D01*
X145836355Y-126308141D01*
X145830175Y-126324710D01*
X145818835Y-126349541D01*
X145818834Y-126349544D01*
X145814948Y-126376568D01*
X145811190Y-126393842D01*
X145803501Y-126420034D01*
X145803500Y-126420042D01*
X145803500Y-131455500D01*
X145783815Y-131522539D01*
X145731011Y-131568294D01*
X145679500Y-131579500D01*
X136522000Y-131579500D01*
X136454961Y-131559815D01*
X136409206Y-131507011D01*
X136398000Y-131455500D01*
X136398000Y-129790000D01*
X138369364Y-129790000D01*
X138426567Y-130003486D01*
X138426570Y-130003492D01*
X138526399Y-130217578D01*
X138661894Y-130411082D01*
X138828917Y-130578105D01*
X139022421Y-130713600D01*
X139236507Y-130813429D01*
X139236516Y-130813433D01*
X139450000Y-130870634D01*
X139450000Y-129975501D01*
X139557685Y-130024680D01*
X139664237Y-130040000D01*
X139735763Y-130040000D01*
X139842315Y-130024680D01*
X139950000Y-129975501D01*
X139950000Y-130870633D01*
X140163483Y-130813433D01*
X140163492Y-130813429D01*
X140377578Y-130713600D01*
X140571078Y-130578108D01*
X140693133Y-130456053D01*
X140754456Y-130422568D01*
X140824148Y-130427552D01*
X140880082Y-130469423D01*
X140896997Y-130500401D01*
X140946202Y-130632328D01*
X140946206Y-130632335D01*
X141032452Y-130747544D01*
X141032455Y-130747547D01*
X141147664Y-130833793D01*
X141147671Y-130833797D01*
X141282517Y-130884091D01*
X141282516Y-130884091D01*
X141289444Y-130884835D01*
X141342127Y-130890500D01*
X143137872Y-130890499D01*
X143197483Y-130884091D01*
X143332331Y-130833796D01*
X143447546Y-130747546D01*
X143533796Y-130632331D01*
X143584091Y-130497483D01*
X143590500Y-130437873D01*
X143590499Y-128642128D01*
X143584091Y-128582517D01*
X143583002Y-128579598D01*
X143533797Y-128447671D01*
X143533793Y-128447664D01*
X143447547Y-128332455D01*
X143447544Y-128332452D01*
X143332335Y-128246206D01*
X143332328Y-128246202D01*
X143197482Y-128195908D01*
X143197483Y-128195908D01*
X143137883Y-128189501D01*
X143137881Y-128189500D01*
X143137873Y-128189500D01*
X143137864Y-128189500D01*
X141342129Y-128189500D01*
X141342123Y-128189501D01*
X141282516Y-128195908D01*
X141147671Y-128246202D01*
X141147664Y-128246206D01*
X141032455Y-128332452D01*
X141032452Y-128332455D01*
X140946206Y-128447664D01*
X140946202Y-128447671D01*
X140896997Y-128579598D01*
X140855126Y-128635532D01*
X140789661Y-128659949D01*
X140721388Y-128645097D01*
X140693134Y-128623946D01*
X140571082Y-128501894D01*
X140377578Y-128366399D01*
X140163492Y-128266570D01*
X140163486Y-128266567D01*
X139950000Y-128209364D01*
X139950000Y-129104498D01*
X139842315Y-129055320D01*
X139735763Y-129040000D01*
X139664237Y-129040000D01*
X139557685Y-129055320D01*
X139450000Y-129104498D01*
X139450000Y-128209364D01*
X139449999Y-128209364D01*
X139236513Y-128266567D01*
X139236507Y-128266570D01*
X139022422Y-128366399D01*
X139022420Y-128366400D01*
X138828926Y-128501886D01*
X138828920Y-128501891D01*
X138661891Y-128668920D01*
X138661886Y-128668926D01*
X138526400Y-128862420D01*
X138526399Y-128862422D01*
X138426570Y-129076507D01*
X138426567Y-129076513D01*
X138369364Y-129289999D01*
X138369364Y-129290000D01*
X139266314Y-129290000D01*
X139240507Y-129330156D01*
X139200000Y-129468111D01*
X139200000Y-129611889D01*
X139240507Y-129749844D01*
X139266314Y-129790000D01*
X138369364Y-129790000D01*
X136398000Y-129790000D01*
X136398000Y-108160194D01*
X136417685Y-108093155D01*
X136470489Y-108047400D01*
X136539647Y-108037456D01*
X136603203Y-108066481D01*
X136609681Y-108072513D01*
X141034202Y-112497034D01*
X141044896Y-112509228D01*
X141064121Y-112534282D01*
X141103415Y-112564433D01*
X141189562Y-112630536D01*
X141189565Y-112630537D01*
X141189566Y-112630538D01*
X141262601Y-112660790D01*
X141335641Y-112691044D01*
X141414022Y-112701363D01*
X141492402Y-112711682D01*
X141492403Y-112711682D01*
X141523705Y-112707560D01*
X141539890Y-112706500D01*
X145882198Y-112706500D01*
X145898382Y-112707560D01*
X145929685Y-112711682D01*
X145929686Y-112711682D01*
X145981939Y-112704802D01*
X146086447Y-112691044D01*
X146232521Y-112630538D01*
X146232522Y-112630538D01*
X146232522Y-112630537D01*
X146232526Y-112630536D01*
X146318673Y-112564433D01*
X146357967Y-112534282D01*
X146377194Y-112509223D01*
X146387875Y-112497043D01*
X149565337Y-109319581D01*
X149583392Y-109304657D01*
X149972192Y-109040893D01*
X150038719Y-109019547D01*
X150106228Y-109037558D01*
X150146798Y-109077536D01*
X150237164Y-109221352D01*
X150237166Y-109221354D01*
X150364720Y-109348908D01*
X150517460Y-109444881D01*
X150563120Y-109460858D01*
X150687727Y-109504460D01*
X150687732Y-109504461D01*
X150866978Y-109524657D01*
X150866982Y-109524657D01*
X150866986Y-109524657D01*
X151046231Y-109504461D01*
X151046234Y-109504460D01*
X151046237Y-109504460D01*
X151216504Y-109444881D01*
X151369244Y-109348908D01*
X151496798Y-109221354D01*
X151592771Y-109068614D01*
X151619038Y-108993543D01*
X151659759Y-108936769D01*
X151724712Y-108911021D01*
X151736080Y-108910499D01*
X152507871Y-108910499D01*
X152507872Y-108910499D01*
X152567483Y-108904091D01*
X152702331Y-108853796D01*
X152785689Y-108791393D01*
X152851153Y-108766977D01*
X152919426Y-108781828D01*
X152934311Y-108791394D01*
X153017669Y-108853796D01*
X153017671Y-108853797D01*
X153152517Y-108904091D01*
X153152516Y-108904091D01*
X153159444Y-108904835D01*
X153212127Y-108910500D01*
X154507872Y-108910499D01*
X154567483Y-108904091D01*
X154702331Y-108853796D01*
X154786105Y-108791082D01*
X154851569Y-108766665D01*
X154919842Y-108781516D01*
X154934727Y-108791082D01*
X155017910Y-108853352D01*
X155017913Y-108853354D01*
X155152620Y-108903596D01*
X155152627Y-108903598D01*
X155212155Y-108909999D01*
X155212172Y-108910000D01*
X155610000Y-108910000D01*
X155610000Y-107330000D01*
X156110000Y-107330000D01*
X156110000Y-108910000D01*
X156507828Y-108910000D01*
X156507844Y-108909999D01*
X156567372Y-108903598D01*
X156567379Y-108903596D01*
X156702086Y-108853354D01*
X156702093Y-108853350D01*
X156817187Y-108767190D01*
X156817190Y-108767187D01*
X156903350Y-108652093D01*
X156903354Y-108652086D01*
X156953596Y-108517379D01*
X156953598Y-108517372D01*
X156959999Y-108457844D01*
X156960000Y-108457827D01*
X156960000Y-107330000D01*
X156110000Y-107330000D01*
X155610000Y-107330000D01*
X155610000Y-105250000D01*
X156110000Y-105250000D01*
X156110000Y-106830000D01*
X156960000Y-106830000D01*
X156960000Y-105702172D01*
X156959999Y-105702155D01*
X156953598Y-105642627D01*
X156953596Y-105642620D01*
X156903354Y-105507913D01*
X156903350Y-105507906D01*
X156817190Y-105392812D01*
X156817187Y-105392809D01*
X156702093Y-105306649D01*
X156702086Y-105306645D01*
X156567379Y-105256403D01*
X156567372Y-105256401D01*
X156507844Y-105250000D01*
X156110000Y-105250000D01*
X155610000Y-105250000D01*
X155212155Y-105250000D01*
X155152627Y-105256401D01*
X155152620Y-105256403D01*
X155017913Y-105306645D01*
X155017910Y-105306647D01*
X154934727Y-105368918D01*
X154869262Y-105393335D01*
X154800989Y-105378483D01*
X154786106Y-105368918D01*
X154702331Y-105306204D01*
X154702328Y-105306202D01*
X154567482Y-105255908D01*
X154567483Y-105255908D01*
X154507883Y-105249501D01*
X154507881Y-105249500D01*
X154507873Y-105249500D01*
X154507865Y-105249500D01*
X153520615Y-105249500D01*
X153453576Y-105229815D01*
X153407821Y-105177011D01*
X153403579Y-105166470D01*
X153379789Y-105098481D01*
X153379787Y-105098478D01*
X153377488Y-105091907D01*
X153379637Y-105091154D01*
X153370034Y-105032875D01*
X153378393Y-105004411D01*
X153377489Y-105004095D01*
X153439366Y-104827262D01*
X153439369Y-104827249D01*
X153459565Y-104648003D01*
X153459565Y-104647996D01*
X153439369Y-104468750D01*
X153439367Y-104468742D01*
X153414423Y-104397454D01*
X153410862Y-104327675D01*
X153445591Y-104267048D01*
X153507585Y-104234821D01*
X153531465Y-104232500D01*
X155230975Y-104232500D01*
X155273506Y-104240022D01*
X155596031Y-104357789D01*
X155657312Y-104380165D01*
X155697824Y-104393054D01*
X155699230Y-104393228D01*
X155724956Y-104399246D01*
X155776745Y-104417368D01*
X155776749Y-104417368D01*
X155776751Y-104417369D01*
X155955996Y-104437565D01*
X155956000Y-104437565D01*
X155956004Y-104437565D01*
X156135249Y-104417369D01*
X156135252Y-104417368D01*
X156135255Y-104417368D01*
X156305522Y-104357789D01*
X156458262Y-104261816D01*
X156585816Y-104134262D01*
X156681789Y-103981522D01*
X156741368Y-103811255D01*
X156741369Y-103811249D01*
X156761565Y-103632003D01*
X156761565Y-103631996D01*
X156741369Y-103452750D01*
X156741368Y-103452745D01*
X156705887Y-103351347D01*
X156681789Y-103282478D01*
X156585816Y-103129738D01*
X156458262Y-103002184D01*
X156412553Y-102973463D01*
X156305523Y-102906211D01*
X156135254Y-102846631D01*
X156135249Y-102846630D01*
X155956004Y-102826435D01*
X155955996Y-102826435D01*
X155776746Y-102846631D01*
X155776745Y-102846631D01*
X155697764Y-102874267D01*
X155682338Y-102878569D01*
X155657314Y-102883833D01*
X155273503Y-103023978D01*
X155230972Y-103031500D01*
X150825487Y-103031500D01*
X150809302Y-103030439D01*
X150778000Y-103026318D01*
X150738639Y-103031500D01*
X150621239Y-103046955D01*
X150621237Y-103046956D01*
X150475157Y-103107464D01*
X150349718Y-103203716D01*
X150330489Y-103228775D01*
X150319798Y-103240965D01*
X148452965Y-105107798D01*
X148440775Y-105118489D01*
X148415716Y-105137718D01*
X148367170Y-105200986D01*
X148310742Y-105242189D01*
X148268794Y-105249500D01*
X147212129Y-105249500D01*
X147212123Y-105249501D01*
X147152516Y-105255908D01*
X147017671Y-105306202D01*
X147017669Y-105306203D01*
X146934311Y-105368606D01*
X146868847Y-105393023D01*
X146800574Y-105378172D01*
X146785689Y-105368606D01*
X146702330Y-105306203D01*
X146702328Y-105306202D01*
X146567482Y-105255908D01*
X146567483Y-105255908D01*
X146507883Y-105249501D01*
X146507881Y-105249500D01*
X146507873Y-105249500D01*
X146507865Y-105249500D01*
X145953387Y-105249500D01*
X145892170Y-105233335D01*
X145213747Y-104848201D01*
X145187283Y-104828047D01*
X144616199Y-104256964D01*
X144605504Y-104244769D01*
X144586283Y-104219719D01*
X144561343Y-104200582D01*
X144460841Y-104123464D01*
X144314762Y-104062956D01*
X144314760Y-104062955D01*
X144274975Y-104057718D01*
X144158001Y-104042318D01*
X144158000Y-104042318D01*
X144126697Y-104046439D01*
X144110513Y-104047500D01*
X143371465Y-104047500D01*
X143304426Y-104027815D01*
X143258671Y-103975011D01*
X143248727Y-103905853D01*
X143254423Y-103882546D01*
X143279367Y-103811257D01*
X143279368Y-103811255D01*
X143279369Y-103811249D01*
X143299565Y-103632003D01*
X143299565Y-103631996D01*
X143279369Y-103452750D01*
X143279368Y-103452745D01*
X143243887Y-103351347D01*
X143219789Y-103282478D01*
X143123816Y-103129738D01*
X142996262Y-103002184D01*
X142950553Y-102973463D01*
X142843523Y-102906211D01*
X142673254Y-102846631D01*
X142673249Y-102846630D01*
X142639144Y-102842788D01*
X142574730Y-102815722D01*
X142535174Y-102758127D01*
X142533037Y-102688290D01*
X142565344Y-102631889D01*
X144610614Y-100586620D01*
X144671935Y-100553137D01*
X144741627Y-100558121D01*
X144764261Y-100569307D01*
X144910476Y-100661180D01*
X145080743Y-100720759D01*
X145080748Y-100720760D01*
X145259994Y-100740956D01*
X145259998Y-100740956D01*
X145260002Y-100740956D01*
X145439247Y-100720760D01*
X145439250Y-100720759D01*
X145439253Y-100720759D01*
X145609520Y-100661180D01*
X145762260Y-100565207D01*
X145889814Y-100437653D01*
X145985787Y-100284913D01*
X145988022Y-100278523D01*
X145998468Y-100257308D01*
X145998083Y-100257095D01*
X146000223Y-100253236D01*
X146000234Y-100253221D01*
X146172530Y-99882728D01*
X146197281Y-99847341D01*
X146320895Y-99723727D01*
X146382216Y-99690244D01*
X146451908Y-99695228D01*
X146507841Y-99737100D01*
X146525616Y-99770456D01*
X146557923Y-99862787D01*
X146557924Y-99862788D01*
X146653897Y-100015528D01*
X146781451Y-100143082D01*
X146934191Y-100239055D01*
X147047007Y-100278531D01*
X147104458Y-100298634D01*
X147104463Y-100298635D01*
X147283709Y-100318831D01*
X147283713Y-100318831D01*
X147283717Y-100318831D01*
X147462962Y-100298635D01*
X147462963Y-100298634D01*
X147462968Y-100298634D01*
X147541964Y-100270991D01*
X147557364Y-100266697D01*
X147582400Y-100261432D01*
X147966208Y-100121288D01*
X148008739Y-100113766D01*
X154423837Y-100113766D01*
X154490876Y-100133451D01*
X154511518Y-100150085D01*
X159602803Y-105241370D01*
X159608493Y-105247456D01*
X159631264Y-105273513D01*
X159631268Y-105273516D01*
X159631272Y-105273521D01*
X159652841Y-105292052D01*
X159653867Y-105292934D01*
X159660738Y-105299305D01*
X159908467Y-105547034D01*
X159919161Y-105559228D01*
X159938385Y-105584281D01*
X159938386Y-105584282D01*
X159976655Y-105613646D01*
X159994393Y-105627257D01*
X159994394Y-105627259D01*
X160063826Y-105680535D01*
X160063828Y-105680537D01*
X160125013Y-105705880D01*
X160158367Y-105726386D01*
X160617693Y-106121025D01*
X160643483Y-106141687D01*
X160653626Y-106150773D01*
X160683891Y-106181038D01*
X160874954Y-106314822D01*
X160874959Y-106314824D01*
X160879640Y-106317527D01*
X160878781Y-106319013D01*
X160925408Y-106360073D01*
X160944555Y-106427268D01*
X160924335Y-106494148D01*
X160879022Y-106533412D01*
X160879887Y-106534910D01*
X160875204Y-106537613D01*
X160795190Y-106593637D01*
X161368631Y-107167078D01*
X161252920Y-107217339D01*
X161134573Y-107313621D01*
X161046591Y-107438263D01*
X161016729Y-107522282D01*
X160441637Y-106947190D01*
X160385614Y-107027202D01*
X160287078Y-107238515D01*
X160287075Y-107238521D01*
X160226731Y-107463727D01*
X160226730Y-107463735D01*
X160206410Y-107695998D01*
X160206410Y-107696001D01*
X160226730Y-107928264D01*
X160226731Y-107928272D01*
X160287075Y-108153478D01*
X160287078Y-108153484D01*
X160385612Y-108364793D01*
X160385613Y-108364795D01*
X160441638Y-108444807D01*
X160441639Y-108444808D01*
X161013842Y-107872604D01*
X161016128Y-107883606D01*
X161086319Y-108019067D01*
X161190453Y-108130567D01*
X161320809Y-108209838D01*
X161369946Y-108223605D01*
X160795190Y-108798360D01*
X160875209Y-108854388D01*
X161086515Y-108952921D01*
X161086521Y-108952924D01*
X161311727Y-109013268D01*
X161311735Y-109013269D01*
X161543998Y-109033590D01*
X161544002Y-109033590D01*
X161776264Y-109013269D01*
X161776272Y-109013268D01*
X162001478Y-108952924D01*
X162001484Y-108952921D01*
X162212794Y-108854386D01*
X162292808Y-108798360D01*
X161719369Y-108224921D01*
X161835080Y-108174661D01*
X161953427Y-108078379D01*
X162041409Y-107953737D01*
X162071269Y-107869717D01*
X162646360Y-108444808D01*
X162702386Y-108364794D01*
X162800921Y-108153484D01*
X162800924Y-108153478D01*
X162861268Y-107928272D01*
X162861269Y-107928264D01*
X162881590Y-107696001D01*
X162881590Y-107695998D01*
X162861269Y-107463735D01*
X162861268Y-107463727D01*
X162800924Y-107238521D01*
X162800921Y-107238515D01*
X162702388Y-107027209D01*
X162646359Y-106947190D01*
X162074157Y-107519393D01*
X162071872Y-107508394D01*
X162001681Y-107372933D01*
X161897547Y-107261433D01*
X161767191Y-107182162D01*
X161718053Y-107168394D01*
X162292808Y-106593639D01*
X162292807Y-106593638D01*
X162212795Y-106537613D01*
X162208104Y-106534905D01*
X162209004Y-106533346D01*
X162162600Y-106492491D01*
X162143444Y-106425299D01*
X162163656Y-106358417D01*
X162209188Y-106318962D01*
X162208360Y-106317527D01*
X162213035Y-106314826D01*
X162213046Y-106314822D01*
X162404109Y-106181038D01*
X162569038Y-106016109D01*
X162702822Y-105825046D01*
X162801395Y-105613654D01*
X162861763Y-105388357D01*
X162882092Y-105156000D01*
X162861763Y-104923643D01*
X162801395Y-104698346D01*
X162777918Y-104648000D01*
X162702823Y-104486957D01*
X162702822Y-104486955D01*
X162702822Y-104486954D01*
X162569038Y-104295891D01*
X162404109Y-104130962D01*
X162213046Y-103997178D01*
X162213044Y-103997177D01*
X162208360Y-103994473D01*
X162209313Y-103992820D01*
X162163192Y-103952216D01*
X162144036Y-103885024D01*
X162164248Y-103818141D01*
X162209280Y-103779120D01*
X162208360Y-103777527D01*
X162213035Y-103774826D01*
X162213046Y-103774822D01*
X162404109Y-103641038D01*
X162569038Y-103476109D01*
X162702822Y-103285046D01*
X162801395Y-103073654D01*
X162861763Y-102848357D01*
X162882092Y-102616000D01*
X162861763Y-102383643D01*
X162801395Y-102158346D01*
X162702822Y-101946954D01*
X162569038Y-101755891D01*
X162404109Y-101590962D01*
X162213046Y-101457178D01*
X162213044Y-101457177D01*
X162208360Y-101454473D01*
X162209313Y-101452820D01*
X162163192Y-101412216D01*
X162144036Y-101345024D01*
X162164248Y-101278141D01*
X162209280Y-101239120D01*
X162208360Y-101237527D01*
X162213035Y-101234826D01*
X162213046Y-101234822D01*
X162404109Y-101101038D01*
X162569038Y-100936109D01*
X162702822Y-100745046D01*
X162801395Y-100533654D01*
X162861763Y-100308357D01*
X162882092Y-100076000D01*
X162861763Y-99843643D01*
X162801395Y-99618346D01*
X162794250Y-99603024D01*
X162702823Y-99406957D01*
X162702822Y-99406955D01*
X162702822Y-99406954D01*
X162569038Y-99215891D01*
X162404109Y-99050962D01*
X162213046Y-98917178D01*
X162213044Y-98917177D01*
X162208360Y-98914473D01*
X162209216Y-98912989D01*
X162162581Y-98871910D01*
X162143444Y-98804712D01*
X162163675Y-98737835D01*
X162208980Y-98698600D01*
X162208109Y-98697092D01*
X162212793Y-98694387D01*
X162292808Y-98638360D01*
X161719369Y-98064921D01*
X161835080Y-98014661D01*
X161953427Y-97918379D01*
X162041409Y-97793737D01*
X162071269Y-97709717D01*
X162646360Y-98284808D01*
X162702386Y-98204794D01*
X162800921Y-97993484D01*
X162800924Y-97993478D01*
X162861268Y-97768272D01*
X162861269Y-97768264D01*
X162881590Y-97536001D01*
X162881590Y-97535998D01*
X162861269Y-97303735D01*
X162861268Y-97303727D01*
X162800924Y-97078521D01*
X162800921Y-97078515D01*
X162702388Y-96867209D01*
X162646359Y-96787190D01*
X162074157Y-97359393D01*
X162071872Y-97348394D01*
X162001681Y-97212933D01*
X161897547Y-97101433D01*
X161767191Y-97022162D01*
X161718053Y-97008394D01*
X162292808Y-96433639D01*
X162292807Y-96433638D01*
X162212795Y-96377613D01*
X162208104Y-96374905D01*
X162209004Y-96373346D01*
X162162600Y-96332491D01*
X162143444Y-96265299D01*
X162163656Y-96198417D01*
X162209188Y-96158962D01*
X162208360Y-96157527D01*
X162213035Y-96154826D01*
X162213046Y-96154822D01*
X162404109Y-96021038D01*
X162569038Y-95856109D01*
X162702822Y-95665046D01*
X162801395Y-95453654D01*
X162861763Y-95228357D01*
X162882092Y-94996000D01*
X162861763Y-94763643D01*
X162801395Y-94538346D01*
X162702822Y-94326954D01*
X162569038Y-94135891D01*
X162404109Y-93970962D01*
X162213046Y-93837178D01*
X162213044Y-93837177D01*
X162208360Y-93834473D01*
X162209313Y-93832820D01*
X162163192Y-93792216D01*
X162144036Y-93725024D01*
X162164248Y-93658141D01*
X162209280Y-93619120D01*
X162208360Y-93617527D01*
X162213035Y-93614826D01*
X162213046Y-93614822D01*
X162404109Y-93481038D01*
X162569038Y-93316109D01*
X162702822Y-93125046D01*
X162801395Y-92913654D01*
X162861763Y-92688357D01*
X162882092Y-92456000D01*
X162861763Y-92223643D01*
X162801395Y-91998346D01*
X162791599Y-91977339D01*
X162756002Y-91901000D01*
X162702822Y-91786954D01*
X162569038Y-91595891D01*
X162424233Y-91451086D01*
X162390748Y-91389763D01*
X162395732Y-91320071D01*
X162437604Y-91264138D01*
X162476890Y-91245773D01*
X162476715Y-91245302D01*
X162482578Y-91243115D01*
X162483413Y-91242725D01*
X162483970Y-91242592D01*
X162483983Y-91242591D01*
X162618831Y-91192296D01*
X162734046Y-91106046D01*
X162820296Y-90990831D01*
X162870591Y-90855983D01*
X162877000Y-90796373D01*
X162876999Y-89035628D01*
X162870591Y-88976017D01*
X162869078Y-88971961D01*
X162820297Y-88841171D01*
X162820293Y-88841164D01*
X162734047Y-88725955D01*
X162734044Y-88725952D01*
X162618835Y-88639706D01*
X162618828Y-88639702D01*
X162483982Y-88589408D01*
X162483983Y-88589408D01*
X162424383Y-88583001D01*
X162424381Y-88583000D01*
X162424373Y-88583000D01*
X162424364Y-88583000D01*
X160663629Y-88583000D01*
X160663623Y-88583001D01*
X160604016Y-88589408D01*
X160469171Y-88639702D01*
X160469164Y-88639706D01*
X160353955Y-88725952D01*
X160353952Y-88725955D01*
X160267706Y-88841164D01*
X160267702Y-88841171D01*
X160217408Y-88976017D01*
X160211001Y-89035616D01*
X160211001Y-89035623D01*
X160211000Y-89035635D01*
X160211000Y-90796370D01*
X160211001Y-90796376D01*
X160217408Y-90855983D01*
X160267702Y-90990828D01*
X160267706Y-90990835D01*
X160353952Y-91106044D01*
X160353955Y-91106047D01*
X160469164Y-91192293D01*
X160469171Y-91192297D01*
X160604014Y-91242590D01*
X160604017Y-91242591D01*
X160604019Y-91242591D01*
X160604589Y-91242726D01*
X160604989Y-91242953D01*
X160611285Y-91245302D01*
X160610904Y-91246321D01*
X160665308Y-91277294D01*
X160697700Y-91339201D01*
X160691479Y-91408794D01*
X160663767Y-91451086D01*
X160518963Y-91595890D01*
X160385177Y-91786955D01*
X160385176Y-91786957D01*
X160286607Y-91998339D01*
X160286602Y-91998353D01*
X160226238Y-92223637D01*
X160226236Y-92223647D01*
X160205908Y-92455999D01*
X160205908Y-92456000D01*
X160226236Y-92688352D01*
X160226238Y-92688362D01*
X160286602Y-92913646D01*
X160286607Y-92913660D01*
X160385060Y-93124794D01*
X160385178Y-93125046D01*
X160518962Y-93316109D01*
X160683891Y-93481038D01*
X160874954Y-93614822D01*
X160874959Y-93614824D01*
X160879640Y-93617527D01*
X160878585Y-93619352D01*
X160924179Y-93659469D01*
X160943354Y-93726656D01*
X160923162Y-93793544D01*
X160874543Y-93836758D01*
X159776325Y-94382543D01*
X159721140Y-94395500D01*
X149399494Y-94395500D01*
X149383308Y-94394439D01*
X149352001Y-94390317D01*
X149351999Y-94390317D01*
X149195238Y-94410955D01*
X149049157Y-94471464D01*
X148923718Y-94567716D01*
X148904489Y-94592775D01*
X148893798Y-94604965D01*
X144878820Y-98619943D01*
X144817497Y-98653428D01*
X144747805Y-98648444D01*
X144725167Y-98637256D01*
X144578259Y-98544947D01*
X144578258Y-98544946D01*
X144578257Y-98544946D01*
X144571860Y-98542707D01*
X144550646Y-98532267D01*
X144550436Y-98532647D01*
X144546565Y-98530498D01*
X144176072Y-98358200D01*
X144140680Y-98333445D01*
X143996176Y-98188941D01*
X143987029Y-98178722D01*
X143982960Y-98173637D01*
X143982958Y-98173633D01*
X143955062Y-98146844D01*
X143931177Y-98123906D01*
X143929386Y-98122150D01*
X143906790Y-98099554D01*
X143903734Y-98096874D01*
X143903735Y-98096872D01*
X143896996Y-98091083D01*
X143892053Y-98086336D01*
X143868914Y-98064115D01*
X143847712Y-98052439D01*
X143832041Y-98042197D01*
X143812841Y-98027464D01*
X143812839Y-98027463D01*
X143812837Y-98027462D01*
X143776876Y-98012567D01*
X143764516Y-98006626D01*
X143730415Y-97987848D01*
X143730413Y-97987847D01*
X143730411Y-97987846D01*
X143730409Y-97987845D01*
X143730403Y-97987843D01*
X143706906Y-97982054D01*
X143689120Y-97976217D01*
X143666762Y-97966956D01*
X143651356Y-97964927D01*
X143628156Y-97961873D01*
X143619439Y-97960230D01*
X143619439Y-97960232D01*
X143615437Y-97959520D01*
X143583659Y-97955989D01*
X143581169Y-97955687D01*
X143510004Y-97946318D01*
X143503492Y-97946318D01*
X143489798Y-97945560D01*
X143004097Y-97891593D01*
X142939642Y-97864625D01*
X142930110Y-97856032D01*
X142869262Y-97795184D01*
X142716523Y-97699211D01*
X142546254Y-97639631D01*
X142546249Y-97639630D01*
X142367004Y-97619435D01*
X142366996Y-97619435D01*
X142187750Y-97639630D01*
X142187745Y-97639631D01*
X142017476Y-97699211D01*
X141864737Y-97795184D01*
X141737184Y-97922737D01*
X141641210Y-98075478D01*
X141581630Y-98245750D01*
X141569069Y-98357234D01*
X141542002Y-98421648D01*
X141533530Y-98431031D01*
X140571853Y-99392708D01*
X140536461Y-99417463D01*
X140165957Y-99589767D01*
X140153668Y-99596125D01*
X140137668Y-99603024D01*
X140134273Y-99604212D01*
X140098975Y-99626391D01*
X140031738Y-99645390D01*
X139964903Y-99625021D01*
X139920623Y-99573800D01*
X139842823Y-99406957D01*
X139842822Y-99406955D01*
X139842822Y-99406954D01*
X139709038Y-99215891D01*
X139544109Y-99050962D01*
X139353046Y-98917178D01*
X139353044Y-98917177D01*
X139348360Y-98914473D01*
X139349313Y-98912820D01*
X139303192Y-98872216D01*
X139284036Y-98805024D01*
X139304248Y-98738141D01*
X139349280Y-98699120D01*
X139348360Y-98697527D01*
X139353035Y-98694826D01*
X139353046Y-98694822D01*
X139544109Y-98561038D01*
X139709038Y-98396109D01*
X139842822Y-98205046D01*
X139941395Y-97993654D01*
X140001763Y-97768357D01*
X140022092Y-97536000D01*
X140001763Y-97303643D01*
X139941395Y-97078346D01*
X139931599Y-97057339D01*
X139842941Y-96867209D01*
X139842822Y-96866954D01*
X139709038Y-96675891D01*
X139544109Y-96510962D01*
X139353046Y-96377178D01*
X139353044Y-96377177D01*
X139348360Y-96374473D01*
X139349309Y-96372828D01*
X139303168Y-96332178D01*
X139284036Y-96264979D01*
X139304272Y-96198103D01*
X139349284Y-96159127D01*
X139348360Y-96157527D01*
X139353035Y-96154826D01*
X139353046Y-96154822D01*
X139544109Y-96021038D01*
X139709038Y-95856109D01*
X139842822Y-95665046D01*
X139941395Y-95453654D01*
X140001763Y-95228357D01*
X140022092Y-94996000D01*
X140001763Y-94763643D01*
X139941395Y-94538346D01*
X139899379Y-94448242D01*
X139888888Y-94379169D01*
X139917407Y-94315385D01*
X139975884Y-94277145D01*
X139997878Y-94272621D01*
X140021945Y-94269909D01*
X140133249Y-94257369D01*
X140133252Y-94257368D01*
X140133255Y-94257368D01*
X140303522Y-94197789D01*
X140456262Y-94101816D01*
X140583816Y-93974262D01*
X140679789Y-93821522D01*
X140739368Y-93651255D01*
X140742989Y-93619120D01*
X140759565Y-93472003D01*
X140759565Y-93471996D01*
X140739369Y-93292750D01*
X140739368Y-93292745D01*
X140692995Y-93160218D01*
X140679789Y-93122478D01*
X140583816Y-92969738D01*
X140456262Y-92842184D01*
X140446602Y-92836114D01*
X140303523Y-92746211D01*
X140133254Y-92686631D01*
X140133249Y-92686630D01*
X140122885Y-92685463D01*
X140058471Y-92658397D01*
X140018916Y-92600802D01*
X140013240Y-92551435D01*
X140021590Y-92456000D01*
X140021590Y-92455998D01*
X140001269Y-92223735D01*
X140001268Y-92223727D01*
X139940924Y-91998521D01*
X139940921Y-91998515D01*
X139842387Y-91787206D01*
X139842386Y-91787204D01*
X139786360Y-91707191D01*
X139786360Y-91707190D01*
X139214157Y-92279392D01*
X139211872Y-92268394D01*
X139141681Y-92132933D01*
X139037547Y-92021433D01*
X138907191Y-91942162D01*
X138858053Y-91928394D01*
X139443699Y-91342747D01*
X139449215Y-91315306D01*
X139497831Y-91265123D01*
X139558975Y-91248999D01*
X139564372Y-91248999D01*
X139623983Y-91242591D01*
X139758831Y-91192296D01*
X139874046Y-91106046D01*
X139960296Y-90990831D01*
X140010591Y-90855983D01*
X140017000Y-90796373D01*
X140016999Y-89035628D01*
X140010591Y-88976017D01*
X140009078Y-88971961D01*
X139960297Y-88841171D01*
X139960293Y-88841164D01*
X139874047Y-88725955D01*
X139874044Y-88725952D01*
X139758835Y-88639706D01*
X139758828Y-88639702D01*
X139623982Y-88589408D01*
X139623983Y-88589408D01*
X139564383Y-88583001D01*
X139564381Y-88583000D01*
X139564373Y-88583000D01*
X139564364Y-88583000D01*
X137803629Y-88583000D01*
X137803623Y-88583001D01*
X137744016Y-88589408D01*
X137609171Y-88639702D01*
X137609164Y-88639706D01*
X137493955Y-88725952D01*
X137493952Y-88725955D01*
X137407706Y-88841164D01*
X137407702Y-88841171D01*
X137357408Y-88976017D01*
X137351001Y-89035616D01*
X137351001Y-89035623D01*
X137351000Y-89035635D01*
X137351000Y-90796370D01*
X137351001Y-90796376D01*
X137357408Y-90855983D01*
X137407702Y-90990828D01*
X137407706Y-90990835D01*
X137493952Y-91106044D01*
X137493955Y-91106047D01*
X137609164Y-91192293D01*
X137609171Y-91192297D01*
X137654118Y-91209061D01*
X137744017Y-91242591D01*
X137803627Y-91249000D01*
X137809012Y-91248999D01*
X137876050Y-91268676D01*
X137921811Y-91321475D01*
X137925721Y-91344168D01*
X138508631Y-91927078D01*
X138392920Y-91977339D01*
X138274573Y-92073621D01*
X138186591Y-92198263D01*
X138156729Y-92282282D01*
X137581637Y-91707190D01*
X137525614Y-91787202D01*
X137427078Y-91998515D01*
X137427075Y-91998521D01*
X137366731Y-92223727D01*
X137366730Y-92223735D01*
X137346410Y-92455998D01*
X137346410Y-92456001D01*
X137366730Y-92688264D01*
X137366731Y-92688272D01*
X137427075Y-92913478D01*
X137427078Y-92913484D01*
X137525613Y-93124794D01*
X137631639Y-93276214D01*
X137653966Y-93342420D01*
X137636956Y-93410188D01*
X137617745Y-93435019D01*
X136609681Y-94443084D01*
X136548358Y-94476569D01*
X136478666Y-94471585D01*
X136422733Y-94429713D01*
X136398316Y-94364249D01*
X136398000Y-94355403D01*
X136398000Y-89399417D01*
X136417685Y-89332378D01*
X136454961Y-89295102D01*
X136475128Y-89282143D01*
X136493015Y-89261499D01*
X136505499Y-89249015D01*
X136526143Y-89231128D01*
X136540910Y-89208148D01*
X136551497Y-89194006D01*
X136569377Y-89173373D01*
X136580717Y-89148540D01*
X136589192Y-89133020D01*
X136603953Y-89110053D01*
X136611642Y-89083862D01*
X136617824Y-89067287D01*
X136629165Y-89042457D01*
X136633050Y-89015436D01*
X136636809Y-88998153D01*
X136644500Y-88971961D01*
X136644500Y-88828039D01*
X136644500Y-85460500D01*
X136664185Y-85393461D01*
X136716989Y-85347706D01*
X136768500Y-85336500D01*
X151963960Y-85336500D01*
X151963961Y-85336500D01*
X151990153Y-85328809D01*
X152007436Y-85325050D01*
X152011882Y-85324410D01*
X152034457Y-85321165D01*
X152059287Y-85309824D01*
X152075862Y-85303642D01*
X152102053Y-85295953D01*
X152125020Y-85281192D01*
X152140540Y-85272717D01*
X152165373Y-85261377D01*
X152186006Y-85243497D01*
X152200148Y-85232910D01*
X152223128Y-85218143D01*
X152241015Y-85197499D01*
X152253499Y-85185015D01*
X152274143Y-85167128D01*
X152287101Y-85146964D01*
X152339903Y-85101207D01*
X152391418Y-85090000D01*
X155964581Y-85090000D01*
X156031620Y-85109685D01*
G37*
%TD.AperFunction*%
%TA.AperFunction,Conductor*%
G36*
X140703039Y-105776185D02*
G01*
X140748794Y-105828989D01*
X140760000Y-105880500D01*
X140760000Y-106830000D01*
X141986000Y-106830000D01*
X142053039Y-106849685D01*
X142098794Y-106902489D01*
X142110000Y-106954000D01*
X142110000Y-107206000D01*
X142090315Y-107273039D01*
X142037511Y-107318794D01*
X141986000Y-107330000D01*
X140759999Y-107330000D01*
X140744547Y-107345452D01*
X140683224Y-107378936D01*
X140613532Y-107373951D01*
X140569186Y-107345451D01*
X140447631Y-107223896D01*
X140414146Y-107162573D01*
X140412373Y-107152400D01*
X140410872Y-107141000D01*
X140401544Y-107070141D01*
X140353437Y-106954000D01*
X140341037Y-106924062D01*
X140341036Y-106924061D01*
X140333799Y-106914631D01*
X140333794Y-106914625D01*
X140283964Y-106849685D01*
X140244782Y-106798621D01*
X140242044Y-106796520D01*
X140219728Y-106779396D01*
X140207534Y-106768702D01*
X139743034Y-106304202D01*
X139709549Y-106242879D01*
X139714533Y-106173187D01*
X139756405Y-106117254D01*
X139775521Y-106105483D01*
X140451672Y-105769457D01*
X140506857Y-105756500D01*
X140636000Y-105756500D01*
X140703039Y-105776185D01*
G37*
%TD.AperFunction*%
%TA.AperFunction,Conductor*%
G36*
X159776328Y-95609457D02*
G01*
X160875118Y-96155525D01*
X160926392Y-96202988D01*
X160943866Y-96270637D01*
X160921992Y-96336995D01*
X160878980Y-96373340D01*
X160879887Y-96374910D01*
X160875204Y-96377613D01*
X160795190Y-96433637D01*
X161368631Y-97007078D01*
X161252920Y-97057339D01*
X161134573Y-97153621D01*
X161046591Y-97278263D01*
X161016729Y-97362282D01*
X160441637Y-96787190D01*
X160385614Y-96867202D01*
X160287078Y-97078515D01*
X160287075Y-97078521D01*
X160226731Y-97303727D01*
X160226730Y-97303735D01*
X160206410Y-97535998D01*
X160206410Y-97536001D01*
X160226730Y-97768264D01*
X160226731Y-97768272D01*
X160287075Y-97993478D01*
X160287078Y-97993484D01*
X160385612Y-98204793D01*
X160385613Y-98204795D01*
X160441638Y-98284807D01*
X160441639Y-98284808D01*
X161013842Y-97712604D01*
X161016128Y-97723606D01*
X161086319Y-97859067D01*
X161190453Y-97970567D01*
X161320809Y-98049838D01*
X161369946Y-98063605D01*
X160795190Y-98638360D01*
X160875212Y-98694390D01*
X160879896Y-98697095D01*
X160878993Y-98698657D01*
X160925389Y-98739490D01*
X160944555Y-98806680D01*
X160924354Y-98873565D01*
X160878816Y-98913046D01*
X160879640Y-98914473D01*
X160874955Y-98917177D01*
X160874954Y-98917178D01*
X160683891Y-99050962D01*
X160683889Y-99050963D01*
X160683886Y-99050966D01*
X160518966Y-99215886D01*
X160518963Y-99215889D01*
X160518962Y-99215891D01*
X160514509Y-99222251D01*
X160385177Y-99406955D01*
X160385176Y-99406957D01*
X160286607Y-99618339D01*
X160286602Y-99618353D01*
X160226238Y-99843637D01*
X160226236Y-99843647D01*
X160205908Y-100075999D01*
X160205908Y-100076000D01*
X160226236Y-100308352D01*
X160226238Y-100308362D01*
X160286602Y-100533646D01*
X160286607Y-100533660D01*
X160345020Y-100658927D01*
X160385178Y-100745046D01*
X160518962Y-100936109D01*
X160683891Y-101101038D01*
X160874954Y-101234822D01*
X160874959Y-101234824D01*
X160879640Y-101237527D01*
X160878585Y-101239352D01*
X160924179Y-101279469D01*
X160943354Y-101346656D01*
X160923162Y-101413544D01*
X160874543Y-101456758D01*
X159776325Y-102002543D01*
X159721140Y-102015500D01*
X158796097Y-102015500D01*
X158729058Y-101995815D01*
X158708416Y-101979181D01*
X154890199Y-98160964D01*
X154879504Y-98148769D01*
X154860283Y-98123719D01*
X154859424Y-98123060D01*
X154734841Y-98027464D01*
X154734836Y-98027462D01*
X154588762Y-97966956D01*
X154588760Y-97966955D01*
X154432001Y-97946318D01*
X154432000Y-97946318D01*
X154400697Y-97950439D01*
X154384513Y-97951500D01*
X147545097Y-97951500D01*
X147478058Y-97931815D01*
X147432303Y-97879011D01*
X147422359Y-97809853D01*
X147451384Y-97746297D01*
X147457416Y-97739819D01*
X149564416Y-95632819D01*
X149625739Y-95599334D01*
X149652097Y-95596500D01*
X159721143Y-95596500D01*
X159776328Y-95609457D01*
G37*
%TD.AperFunction*%
%TD*%
%TA.AperFunction,Conductor*%
%TO.N,VCC*%
G36*
X152537641Y-104375050D02*
G01*
X152543503Y-104381148D01*
X152653115Y-104643489D01*
X152653142Y-104652444D01*
X152653115Y-104652511D01*
X152543503Y-104914851D01*
X152537151Y-104921163D01*
X152528694Y-104921329D01*
X152394947Y-104872493D01*
X152061687Y-104750806D01*
X152055091Y-104744750D01*
X152054000Y-104739816D01*
X152054000Y-104556183D01*
X152057427Y-104547910D01*
X152061687Y-104545193D01*
X152528697Y-104374669D01*
X152537641Y-104375050D01*
G37*
%TD.AperFunction*%
%TD*%
%TA.AperFunction,Conductor*%
%TO.N,GPSFREEZE_1*%
G36*
X142241461Y-111280195D02*
G01*
X142247921Y-111285969D01*
X142250041Y-111290227D01*
X142250042Y-111290228D01*
X142286218Y-111323207D01*
X142286609Y-111323580D01*
X142301200Y-111338172D01*
X142301205Y-111338176D01*
X142306295Y-111341662D01*
X142307566Y-111342669D01*
X142333064Y-111365914D01*
X142333065Y-111365914D01*
X142333067Y-111365916D01*
X142351679Y-111373126D01*
X142354061Y-111374382D01*
X142370517Y-111385656D01*
X142370520Y-111385657D01*
X142404103Y-111393556D01*
X142405647Y-111394033D01*
X142418458Y-111398996D01*
X142437826Y-111406500D01*
X142437827Y-111406500D01*
X142457780Y-111406500D01*
X142460459Y-111406811D01*
X142479881Y-111411379D01*
X142514054Y-111406611D01*
X142515669Y-111406500D01*
X142574300Y-111406500D01*
X142582573Y-111409927D01*
X142586000Y-111418200D01*
X142586000Y-111597816D01*
X142582573Y-111606089D01*
X142578313Y-111608806D01*
X142111305Y-111779330D01*
X142102358Y-111778949D01*
X142096496Y-111772851D01*
X141986883Y-111510509D01*
X141986857Y-111501556D01*
X141986862Y-111501542D01*
X142096496Y-111239147D01*
X142102848Y-111232836D01*
X142111302Y-111232669D01*
X142241461Y-111280195D01*
G37*
%TD.AperFunction*%
%TD*%
%TA.AperFunction,Conductor*%
%TO.N,GND*%
G36*
X142760705Y-107696707D02*
G01*
X142547866Y-107908132D01*
X142179811Y-107541232D01*
X142321232Y-107399811D01*
X142759998Y-107396000D01*
X142760705Y-107696707D01*
G37*
%TD.AperFunction*%
%TD*%
%TA.AperFunction,Conductor*%
%TO.N,RXD*%
G36*
X145619337Y-99446203D02*
G01*
X145749185Y-99576051D01*
X145752612Y-99584324D01*
X145751521Y-99589258D01*
X145541875Y-100040061D01*
X145535279Y-100046117D01*
X145526822Y-100045950D01*
X145263813Y-99937954D01*
X145257461Y-99931642D01*
X145257434Y-99931575D01*
X145149438Y-99668566D01*
X145149465Y-99659611D01*
X145155324Y-99653515D01*
X145606132Y-99443866D01*
X145615077Y-99443486D01*
X145619337Y-99446203D01*
G37*
%TD.AperFunction*%
%TD*%
%TA.AperFunction,Conductor*%
%TO.N,Net-(J5-PadG1)*%
G36*
X158373488Y-128296864D02*
G01*
X159244271Y-128658536D01*
X159250597Y-128664874D01*
X159250588Y-128673829D01*
X159250219Y-128674630D01*
X158472249Y-130209589D01*
X158465452Y-130215420D01*
X158461813Y-130216000D01*
X158276187Y-130216000D01*
X158267914Y-130212573D01*
X158265751Y-130209589D01*
X157487780Y-128674630D01*
X157487096Y-128665702D01*
X157492927Y-128658905D01*
X157493718Y-128658540D01*
X158364512Y-128296863D01*
X158373466Y-128296855D01*
X158373488Y-128296864D01*
G37*
%TD.AperFunction*%
%TD*%
%TA.AperFunction,Conductor*%
%TO.N,TXD*%
G36*
X161224135Y-104390860D02*
G01*
X161229509Y-104396740D01*
X161541706Y-105149473D01*
X161541710Y-105158427D01*
X161539162Y-105162238D01*
X160963004Y-105737014D01*
X160954727Y-105740431D01*
X160947116Y-105737605D01*
X159960695Y-104890101D01*
X159956653Y-104882111D01*
X159959446Y-104873602D01*
X159960034Y-104872967D01*
X160090510Y-104742491D01*
X160095291Y-104739599D01*
X161215217Y-104390053D01*
X161224135Y-104390860D01*
G37*
%TD.AperFunction*%
%TD*%
%TA.AperFunction,Conductor*%
%TO.N,VCC*%
G36*
X148819853Y-121261326D02*
G01*
X148950195Y-121391668D01*
X148953622Y-121399941D01*
X148953223Y-121402972D01*
X148463031Y-123230572D01*
X148457577Y-123237675D01*
X148448699Y-123238842D01*
X148448698Y-123238841D01*
X147868529Y-123083185D01*
X147861427Y-123077732D01*
X147859883Y-123071164D01*
X147941250Y-121756321D01*
X147945182Y-121748278D01*
X147947144Y-121746876D01*
X148805806Y-121259423D01*
X148814690Y-121258320D01*
X148819853Y-121261326D01*
G37*
%TD.AperFunction*%
%TD*%
%TA.AperFunction,Conductor*%
%TO.N,VCC*%
G36*
X148348851Y-113140496D02*
G01*
X148355163Y-113146848D01*
X148355330Y-113155305D01*
X148184807Y-113622313D01*
X148178751Y-113628909D01*
X148173817Y-113630000D01*
X147990183Y-113630000D01*
X147981910Y-113626573D01*
X147979193Y-113622313D01*
X147808669Y-113155302D01*
X147809050Y-113146358D01*
X147815147Y-113140496D01*
X148077490Y-113030883D01*
X148086444Y-113030857D01*
X148348851Y-113140496D01*
G37*
%TD.AperFunction*%
%TD*%
%TA.AperFunction,Conductor*%
%TO.N,GND*%
G36*
X160820970Y-120519951D02*
G01*
X160491000Y-121539351D01*
X159765293Y-121434207D01*
X159522650Y-120846000D01*
X160679549Y-120378530D01*
X160820970Y-120519951D01*
G37*
%TD.AperFunction*%
%TD*%
%TA.AperFunction,Conductor*%
%TO.N,RESET*%
G36*
X152589258Y-105383262D02*
G01*
X152720508Y-105514512D01*
X152723935Y-105522785D01*
X152723795Y-105524586D01*
X152461930Y-107205131D01*
X152457271Y-107212778D01*
X152448569Y-107214890D01*
X152447772Y-107214738D01*
X151868257Y-107082748D01*
X151860952Y-107077570D01*
X151859157Y-107071515D01*
X151839812Y-105757340D01*
X151843117Y-105749019D01*
X151846264Y-105746711D01*
X152575743Y-105381074D01*
X152584674Y-105380432D01*
X152589258Y-105383262D01*
G37*
%TD.AperFunction*%
%TD*%
%TA.AperFunction,Conductor*%
%TO.N,BATTREAD*%
G36*
X142227174Y-103521439D02*
G01*
X142390804Y-103588629D01*
X142490184Y-103629436D01*
X142496536Y-103635748D01*
X142496563Y-103635815D01*
X142604559Y-103898824D01*
X142604532Y-103907779D01*
X142598670Y-103913877D01*
X142147867Y-104123523D01*
X142138920Y-104123904D01*
X142134660Y-104121187D01*
X142004812Y-103991339D01*
X142001385Y-103983066D01*
X142002474Y-103978136D01*
X142212124Y-103527327D01*
X142218718Y-103521273D01*
X142227174Y-103521439D01*
G37*
%TD.AperFunction*%
%TD*%
%TA.AperFunction,Conductor*%
%TO.N,Net-(J5-PadG1)*%
G36*
X153573488Y-128296864D02*
G01*
X154444271Y-128658536D01*
X154450597Y-128664874D01*
X154450588Y-128673829D01*
X154450219Y-128674630D01*
X153672249Y-130209589D01*
X153665452Y-130215420D01*
X153661813Y-130216000D01*
X153476187Y-130216000D01*
X153467914Y-130212573D01*
X153465751Y-130209589D01*
X152687780Y-128674630D01*
X152687096Y-128665702D01*
X152692927Y-128658905D01*
X152693718Y-128658540D01*
X153564512Y-128296863D01*
X153573466Y-128296855D01*
X153573488Y-128296864D01*
G37*
%TD.AperFunction*%
%TD*%
%TA.AperFunction,Conductor*%
%TO.N,MOSI*%
G36*
X144914193Y-105259423D02*
G01*
X145772847Y-105746871D01*
X145778350Y-105753936D01*
X145778749Y-105756323D01*
X145860116Y-107071162D01*
X145857206Y-107079631D01*
X145851470Y-107083185D01*
X145271301Y-107238841D01*
X145262422Y-107237675D01*
X145256969Y-107230573D01*
X145256968Y-107230572D01*
X144766776Y-105402971D01*
X144767943Y-105394094D01*
X144769800Y-105391672D01*
X144900147Y-105261325D01*
X144908419Y-105257899D01*
X144914193Y-105259423D01*
G37*
%TD.AperFunction*%
%TD*%
%TA.AperFunction,Conductor*%
%TO.N,GPSFREEZE_1*%
G36*
X155839641Y-103359050D02*
G01*
X155845503Y-103365148D01*
X155955115Y-103627489D01*
X155955142Y-103636444D01*
X155955115Y-103636511D01*
X155845503Y-103898851D01*
X155839151Y-103905163D01*
X155830694Y-103905329D01*
X155696947Y-103856493D01*
X155363687Y-103734806D01*
X155357091Y-103728750D01*
X155356000Y-103723816D01*
X155356000Y-103540183D01*
X155359427Y-103531910D01*
X155363687Y-103529193D01*
X155830697Y-103358669D01*
X155839641Y-103359050D01*
G37*
%TD.AperFunction*%
%TD*%
%TA.AperFunction,Conductor*%
%TO.N,BATTREAD*%
G36*
X139505657Y-102615990D02*
G01*
X139513926Y-102619424D01*
X139517313Y-102626812D01*
X139613636Y-103907262D01*
X139610839Y-103915769D01*
X139610242Y-103916413D01*
X139479096Y-104047559D01*
X139470823Y-104050986D01*
X139464773Y-104049300D01*
X138374013Y-103390324D01*
X138368704Y-103383113D01*
X138369248Y-103375847D01*
X138680303Y-102622532D01*
X138686627Y-102616195D01*
X138691122Y-102615299D01*
X139505657Y-102615990D01*
G37*
%TD.AperFunction*%
%TD*%
%TA.AperFunction,Conductor*%
%TO.N,MISO*%
G36*
X137926756Y-97222324D02*
G01*
X138679510Y-97533146D01*
X138685849Y-97539471D01*
X138685856Y-97539488D01*
X138997707Y-98293342D01*
X138997703Y-98302296D01*
X138991368Y-98308625D01*
X138990420Y-98308971D01*
X137653219Y-98731360D01*
X137649695Y-98731903D01*
X137467315Y-98731903D01*
X137459042Y-98728476D01*
X137455615Y-98720203D01*
X137456127Y-98716780D01*
X137911107Y-97229714D01*
X137916803Y-97222807D01*
X137925717Y-97221951D01*
X137926756Y-97222324D01*
G37*
%TD.AperFunction*%
%TD*%
%TA.AperFunction,Conductor*%
%TO.N,GND*%
G36*
X142818710Y-105480712D02*
G01*
X142460000Y-107229030D01*
X141859293Y-107080707D01*
X141887536Y-105750000D01*
X142677288Y-105339290D01*
X142818710Y-105480712D01*
G37*
%TD.AperFunction*%
%TD*%
%TA.AperFunction,Conductor*%
%TO.N,NSS*%
G36*
X149272788Y-106974474D02*
G01*
X149852052Y-107077750D01*
X149859595Y-107082575D01*
X149861633Y-107088035D01*
X150001005Y-108403024D01*
X149998469Y-108411612D01*
X149995938Y-108413939D01*
X149280134Y-108899544D01*
X149271364Y-108901353D01*
X149265293Y-108898135D01*
X149134492Y-108767334D01*
X149131065Y-108759061D01*
X149131094Y-108758245D01*
X149134646Y-108709022D01*
X149135403Y-108705652D01*
X149144500Y-108682173D01*
X149144500Y-108662218D01*
X149144811Y-108659539D01*
X149149379Y-108640119D01*
X149144611Y-108605945D01*
X149144500Y-108604329D01*
X149144500Y-108572926D01*
X149144530Y-108572084D01*
X149156732Y-108403024D01*
X149259065Y-106985147D01*
X149263078Y-106977145D01*
X149271576Y-106974322D01*
X149272788Y-106974474D01*
G37*
%TD.AperFunction*%
%TD*%
%TA.AperFunction,Conductor*%
%TO.N,GND*%
G36*
X149212805Y-119356836D02*
G01*
X149098707Y-119634707D01*
X148820836Y-119748805D01*
X148603026Y-119280447D01*
X148744447Y-119139026D01*
X149212805Y-119356836D01*
G37*
%TD.AperFunction*%
%TD*%
%TA.AperFunction,Conductor*%
%TO.N,RXD*%
G36*
X161229891Y-101857710D02*
G01*
X161230218Y-101858428D01*
X161543134Y-102611511D01*
X161543144Y-102620465D01*
X161543134Y-102620489D01*
X161230218Y-103373571D01*
X161223879Y-103379896D01*
X161214925Y-103379886D01*
X161214207Y-103379559D01*
X159885493Y-102719226D01*
X159879609Y-102712476D01*
X159879000Y-102708749D01*
X159879000Y-102523250D01*
X159882427Y-102514977D01*
X159885493Y-102512773D01*
X161214208Y-101852439D01*
X161223141Y-101851826D01*
X161229891Y-101857710D01*
G37*
%TD.AperFunction*%
%TD*%
%TA.AperFunction,Conductor*%
%TO.N,GND*%
G36*
X156832805Y-107418836D02*
G01*
X156718707Y-107696707D01*
X156440836Y-107810805D01*
X156223026Y-107342447D01*
X156364447Y-107201026D01*
X156832805Y-107418836D01*
G37*
%TD.AperFunction*%
%TD*%
%TA.AperFunction,Conductor*%
%TO.N,GND*%
G36*
X142748707Y-105409293D02*
G01*
X142862805Y-105687164D01*
X142394447Y-105904974D01*
X142253026Y-105763553D01*
X142470836Y-105295195D01*
X142748707Y-105409293D01*
G37*
%TD.AperFunction*%
%TD*%
%TA.AperFunction,Conductor*%
%TO.N,MISO*%
G36*
X143271328Y-106904601D02*
G01*
X143851544Y-107077187D01*
X143858497Y-107082830D01*
X143859825Y-107089794D01*
X143702322Y-108403346D01*
X143697934Y-108411152D01*
X143695382Y-108412678D01*
X142800641Y-108802858D01*
X142791688Y-108803023D01*
X142785239Y-108796810D01*
X142784264Y-108792133D01*
X142784264Y-108611597D01*
X142784693Y-108608459D01*
X142903647Y-108181192D01*
X142909165Y-108174145D01*
X142911606Y-108173113D01*
X142970051Y-108155953D01*
X143091126Y-108078143D01*
X143185375Y-107969373D01*
X143245163Y-107838457D01*
X143265645Y-107696000D01*
X143245163Y-107553543D01*
X143185375Y-107422627D01*
X143136103Y-107365764D01*
X143133276Y-107357268D01*
X143133672Y-107354981D01*
X143256807Y-106912700D01*
X143262326Y-106905651D01*
X143271215Y-106904569D01*
X143271328Y-106904601D01*
G37*
%TD.AperFunction*%
%TD*%
%TA.AperFunction,Conductor*%
%TO.N,PROG_EN*%
G36*
X140821339Y-103396812D02*
G01*
X140951187Y-103526660D01*
X140954614Y-103534933D01*
X140953523Y-103539867D01*
X140743877Y-103990670D01*
X140737281Y-103996726D01*
X140728824Y-103996559D01*
X140465815Y-103888563D01*
X140459463Y-103882251D01*
X140459436Y-103882184D01*
X140351440Y-103619175D01*
X140351467Y-103610220D01*
X140357326Y-103604124D01*
X140808134Y-103394475D01*
X140817079Y-103394095D01*
X140821339Y-103396812D01*
G37*
%TD.AperFunction*%
%TD*%
M02*
