%TF.GenerationSoftware,KiCad,Pcbnew,8.0.3-1.fc40*%
%TF.CreationDate,2024-06-24T14:15:41-04:00*%
%TF.ProjectId,OS42Micro,4f533432-4d69-4637-926f-2e6b69636164,rev?*%
%TF.SameCoordinates,Original*%
%TF.FileFunction,Copper,L3,Inr*%
%TF.FilePolarity,Positive*%
%FSLAX46Y46*%
G04 Gerber Fmt 4.6, Leading zero omitted, Abs format (unit mm)*
G04 Created by KiCad (PCBNEW 8.0.3-1.fc40) date 2024-06-24 14:15:41*
%MOMM*%
%LPD*%
G01*
G04 APERTURE LIST*
%TA.AperFunction,ComponentPad*%
%ADD10R,1.700000X1.700000*%
%TD*%
%TA.AperFunction,ComponentPad*%
%ADD11O,1.700000X1.700000*%
%TD*%
%TA.AperFunction,ComponentPad*%
%ADD12C,1.508000*%
%TD*%
%TA.AperFunction,ComponentPad*%
%ADD13C,1.920000*%
%TD*%
%TA.AperFunction,ComponentPad*%
%ADD14C,1.308000*%
%TD*%
%TA.AperFunction,ViaPad*%
%ADD15C,0.600000*%
%TD*%
%TA.AperFunction,Conductor*%
%ADD16C,0.200000*%
%TD*%
G04 APERTURE END LIST*
D10*
%TO.N,RESET*%
%TO.C,RST1*%
X134000000Y-125960000D03*
D11*
%TO.N,GND*%
X134000000Y-128500000D03*
%TD*%
D10*
%TO.N,VCC*%
%TO.C,PO1*%
X154850000Y-142850000D03*
D11*
%TO.N,GND*%
X154850000Y-145390000D03*
%TD*%
D10*
%TO.N,GPSFREEZE_1*%
%TO.C,GF1*%
X155000000Y-121460000D03*
D11*
%TO.N,GND*%
X155000000Y-124000000D03*
%TD*%
D10*
%TO.N,PWRIN_VCC*%
%TO.C,PWR1*%
X145150000Y-151425000D03*
D11*
%TO.N,GND*%
X147690000Y-151425000D03*
%TD*%
D10*
%TO.N,A4*%
%TO.C,GPIO1*%
X133975000Y-119100000D03*
D11*
%TO.N,A5*%
X133975000Y-116560000D03*
%TO.N,A3*%
X133975000Y-114020000D03*
%TO.N,D4*%
X133975000Y-111480000D03*
%TO.N,GND*%
X133975000Y-108940000D03*
%TO.N,D1*%
X133975000Y-106400000D03*
%TO.N,D0*%
X133975000Y-103860000D03*
%TD*%
D12*
%TO.N,Net-(U2-ANT)*%
%TO.C,J5*%
X137637500Y-150400000D03*
D13*
%TO.N,GND*%
X135237500Y-148000000D03*
X135237500Y-152800000D03*
X140037500Y-152800000D03*
X140037500Y-148000000D03*
%TD*%
D10*
%TO.N,VCC*%
%TO.C,PO2*%
X154850000Y-134950000D03*
D11*
%TO.N,GND*%
X154850000Y-137490000D03*
%TD*%
D10*
%TO.N,PWRIN_VCC*%
%TO.C,UART1*%
X134000000Y-133960000D03*
D11*
%TO.N,RXD*%
X134000000Y-136500000D03*
%TO.N,TXD*%
X134000000Y-139040000D03*
%TO.N,GND*%
X134000000Y-141580000D03*
%TD*%
D14*
%TO.N,GND*%
%TO.C,U5*%
X141420000Y-121460000D03*
%TO.N,MISO*%
X146500000Y-124000000D03*
%TO.N,MOSI*%
X143960000Y-121460000D03*
%TO.N,RESET*%
X141420000Y-124000000D03*
%TO.N,SCK*%
X143960000Y-124000000D03*
%TO.N,VCC_PROG*%
X146500000Y-121460000D03*
%TD*%
D15*
%TO.N,GND*%
X142400000Y-150600000D03*
X137000000Y-107900000D03*
X141500000Y-138000000D03*
X148600000Y-132200000D03*
X142991263Y-109900001D03*
X148600000Y-139200000D03*
X142600000Y-153200000D03*
X141200000Y-105800000D03*
X144000000Y-114000000D03*
X137600000Y-152800000D03*
X152800000Y-127200000D03*
X140325735Y-138674265D03*
X149400000Y-148800000D03*
X152500000Y-129000000D03*
X151800000Y-105800000D03*
X155000000Y-147500000D03*
X140053554Y-119653554D03*
X139400000Y-106400000D03*
X156500000Y-126000000D03*
X144600000Y-107000000D03*
X137500000Y-119500000D03*
X152000000Y-124600000D03*
X141774000Y-125098365D03*
X137600000Y-141400000D03*
X135000000Y-150200000D03*
X156500000Y-119000000D03*
X149000000Y-153400000D03*
X153500000Y-119000000D03*
X140500000Y-141800000D03*
X148200000Y-105800000D03*
X135300000Y-121600000D03*
X156500000Y-132500000D03*
X142800000Y-148200000D03*
X151800000Y-112000000D03*
X152500000Y-101800000D03*
X137400000Y-138200000D03*
X152500000Y-136000000D03*
X150400000Y-146800000D03*
X138200000Y-105500000D03*
X142800000Y-146600000D03*
X154000000Y-141000000D03*
X153500000Y-132000000D03*
X156500000Y-130500000D03*
X156500000Y-127000000D03*
X148465641Y-101443761D03*
X151400000Y-133800000D03*
X143500000Y-115500000D03*
X140000000Y-150400000D03*
X139600000Y-108400000D03*
%TO.N,VCC*%
X149000000Y-125500000D03*
X145500000Y-146000000D03*
X150500000Y-107500000D03*
X151000000Y-126000000D03*
X148500000Y-123925000D03*
X151000000Y-120000000D03*
%TO.N,Net-(U4-AREF)*%
X150647500Y-114500000D03*
X143323340Y-119893249D03*
%TO.N,VCC_PROG*%
X148000000Y-109000000D03*
X146146000Y-116124265D03*
%TO.N,Net-(D2-A)*%
X144008042Y-120306997D03*
X140500000Y-123000000D03*
%TO.N,RXD*%
X139500000Y-120600000D03*
X141098529Y-113098529D03*
%TO.N,TXD*%
X141000000Y-119900000D03*
X141664216Y-113664216D03*
%TO.N,RESET*%
X138500000Y-113000000D03*
X136500000Y-120000000D03*
%TO.N,A4*%
X138000000Y-114500000D03*
%TO.N,A5*%
X137325735Y-113325735D03*
%TO.N,D4*%
X142000000Y-109900000D03*
%TO.N,D1*%
X138500000Y-111000000D03*
%TO.N,BATTREAD*%
X135834358Y-119556239D03*
X138400000Y-131000000D03*
%TO.N,NSS*%
X146900000Y-114500000D03*
X144124265Y-125375735D03*
%TO.N,Net-(U4-PD6)*%
X141056413Y-111494707D03*
%TO.N,MOSI*%
X146900000Y-115500000D03*
%TO.N,SCK*%
X145500000Y-126000000D03*
%TO.N,RESET_TX*%
X142000000Y-126000000D03*
X146500000Y-113500000D03*
%TO.N,DIO2*%
X150247500Y-111000000D03*
X151500000Y-142500000D03*
%TO.N,DIO1*%
X149647500Y-142147500D03*
X141500000Y-107500000D03*
%TO.N,DIO0*%
X141000000Y-110500000D03*
X147500000Y-142000000D03*
%TD*%
D16*
%TO.N,GND*%
X137500000Y-119500000D02*
X138000000Y-120000000D01*
X138000000Y-120000000D02*
X139960000Y-120000000D01*
X139960000Y-120000000D02*
X139960000Y-119747108D01*
X139960000Y-119747108D02*
X140053554Y-119653554D01*
X139960000Y-120000000D02*
X141420000Y-121460000D01*
%TO.N,Net-(U4-AREF)*%
X150647500Y-114500000D02*
X147454000Y-117693500D01*
X143875736Y-125975735D02*
X143006000Y-125105999D01*
X143006000Y-125105999D02*
X143006000Y-120210589D01*
X147454000Y-117693500D02*
X147454000Y-124395160D01*
X145394529Y-124954000D02*
X144372794Y-125975735D01*
X146895160Y-124954000D02*
X145394529Y-124954000D01*
X144372794Y-125975735D02*
X143875736Y-125975735D01*
X147454000Y-124395160D02*
X146895160Y-124954000D01*
X143006000Y-120210589D02*
X143323340Y-119893249D01*
%TO.N,RXD*%
X134000000Y-136500000D02*
X139500000Y-131000000D01*
X139500000Y-131000000D02*
X139500000Y-120600000D01*
%TO.N,RESET*%
X136500000Y-120000000D02*
X136500000Y-115000000D01*
X136500000Y-115000000D02*
X138500000Y-113000000D01*
%TO.N,D1*%
X138500000Y-110925000D02*
X138500000Y-111000000D01*
X133975000Y-106400000D02*
X138500000Y-110925000D01*
%TO.N,NSS*%
X145546000Y-115854000D02*
X146900000Y-114500000D01*
X145546000Y-123954000D02*
X145546000Y-115854000D01*
X144124265Y-125375735D02*
X145546000Y-123954000D01*
%TD*%
%TA.AperFunction,Conductor*%
%TO.N,GND*%
G36*
X150942539Y-95770185D02*
G01*
X150988294Y-95822989D01*
X150999500Y-95874500D01*
X150999500Y-101065891D01*
X151033608Y-101193187D01*
X151066554Y-101250250D01*
X151099500Y-101307314D01*
X151192686Y-101400500D01*
X151306814Y-101466392D01*
X151434108Y-101500500D01*
X152875500Y-101500500D01*
X152942539Y-101520185D01*
X152988294Y-101572989D01*
X152999500Y-101624500D01*
X152999500Y-118065891D01*
X153033608Y-118193187D01*
X153038771Y-118202129D01*
X153099500Y-118307314D01*
X153192686Y-118400500D01*
X153306814Y-118466392D01*
X153434108Y-118500500D01*
X156875500Y-118500500D01*
X156942539Y-118520185D01*
X156988294Y-118572989D01*
X156999500Y-118624500D01*
X156999500Y-153875500D01*
X156979815Y-153942539D01*
X156927011Y-153988294D01*
X156875500Y-153999500D01*
X140934809Y-153999500D01*
X140867770Y-153979815D01*
X140847128Y-153963181D01*
X140277335Y-153393388D01*
X140340654Y-153367161D01*
X140445476Y-153297121D01*
X140534621Y-153207976D01*
X140604661Y-153103154D01*
X140630888Y-153039835D01*
X141232035Y-153640983D01*
X141325934Y-153497262D01*
X141325935Y-153497260D01*
X141423126Y-153275684D01*
X141482523Y-153041128D01*
X141502504Y-152800005D01*
X141502504Y-152799994D01*
X141482523Y-152558871D01*
X141423126Y-152324315D01*
X141325932Y-152102733D01*
X141232035Y-151959015D01*
X140630887Y-152560163D01*
X140604661Y-152496846D01*
X140534621Y-152392024D01*
X140445476Y-152302879D01*
X140340654Y-152232839D01*
X140277335Y-152206611D01*
X140879052Y-151604893D01*
X140838778Y-151573546D01*
X140625986Y-151458388D01*
X140625981Y-151458386D01*
X140397140Y-151379825D01*
X140158478Y-151340000D01*
X139916522Y-151340000D01*
X139677859Y-151379825D01*
X139449018Y-151458386D01*
X139449013Y-151458388D01*
X139236221Y-151573547D01*
X139195946Y-151604893D01*
X139195945Y-151604893D01*
X139797664Y-152206611D01*
X139734346Y-152232839D01*
X139629524Y-152302879D01*
X139540379Y-152392024D01*
X139470339Y-152496846D01*
X139444112Y-152560164D01*
X138842963Y-151959015D01*
X138749066Y-152102735D01*
X138651873Y-152324315D01*
X138592476Y-152558871D01*
X138572496Y-152799994D01*
X138572496Y-152800005D01*
X138592476Y-153041128D01*
X138651873Y-153275684D01*
X138749065Y-153497261D01*
X138842963Y-153640983D01*
X139444111Y-153039834D01*
X139470339Y-153103154D01*
X139540379Y-153207976D01*
X139629524Y-153297121D01*
X139734346Y-153367161D01*
X139797664Y-153393388D01*
X139227871Y-153963181D01*
X139166548Y-153996666D01*
X139140190Y-153999500D01*
X136134809Y-153999500D01*
X136067770Y-153979815D01*
X136047128Y-153963181D01*
X135477335Y-153393388D01*
X135540654Y-153367161D01*
X135645476Y-153297121D01*
X135734621Y-153207976D01*
X135804661Y-153103154D01*
X135830887Y-153039835D01*
X136432035Y-153640983D01*
X136525934Y-153497262D01*
X136525935Y-153497260D01*
X136623126Y-153275684D01*
X136682523Y-153041128D01*
X136702504Y-152800005D01*
X136702504Y-152799994D01*
X136682523Y-152558871D01*
X136623126Y-152324315D01*
X136525932Y-152102733D01*
X136432035Y-151959015D01*
X135830887Y-152560163D01*
X135804661Y-152496846D01*
X135734621Y-152392024D01*
X135645476Y-152302879D01*
X135540654Y-152232839D01*
X135477335Y-152206611D01*
X136079052Y-151604893D01*
X136038778Y-151573546D01*
X135825986Y-151458388D01*
X135825981Y-151458386D01*
X135597140Y-151379825D01*
X135358478Y-151340000D01*
X135116522Y-151340000D01*
X134877859Y-151379825D01*
X134649018Y-151458386D01*
X134649013Y-151458388D01*
X134436221Y-151573547D01*
X134395946Y-151604893D01*
X134395945Y-151604893D01*
X134997664Y-152206611D01*
X134934346Y-152232839D01*
X134829524Y-152302879D01*
X134740379Y-152392024D01*
X134670339Y-152496846D01*
X134644111Y-152560164D01*
X134036819Y-151952872D01*
X134003334Y-151891549D01*
X134000500Y-151865191D01*
X134000500Y-150399997D01*
X136378208Y-150399997D01*
X136378208Y-150400002D01*
X136390668Y-150542431D01*
X136397339Y-150618674D01*
X136454153Y-150830703D01*
X136454154Y-150830706D01*
X136454155Y-150830708D01*
X136546919Y-151029642D01*
X136546923Y-151029650D01*
X136672822Y-151209452D01*
X136672827Y-151209458D01*
X136828041Y-151364672D01*
X136828047Y-151364677D01*
X137007849Y-151490576D01*
X137007851Y-151490577D01*
X137007854Y-151490579D01*
X137206797Y-151583347D01*
X137418826Y-151640161D01*
X137575021Y-151653826D01*
X137637498Y-151659292D01*
X137637500Y-151659292D01*
X137637502Y-151659292D01*
X137692168Y-151654509D01*
X137856174Y-151640161D01*
X138068203Y-151583347D01*
X138267146Y-151490579D01*
X138446957Y-151364674D01*
X138602174Y-151209457D01*
X138728079Y-151029646D01*
X138820847Y-150830703D01*
X138877661Y-150618674D01*
X138885669Y-150527135D01*
X143799500Y-150527135D01*
X143799500Y-152322870D01*
X143799501Y-152322876D01*
X143805908Y-152382483D01*
X143856202Y-152517328D01*
X143856206Y-152517335D01*
X143942452Y-152632544D01*
X143942455Y-152632547D01*
X144057664Y-152718793D01*
X144057671Y-152718797D01*
X144192517Y-152769091D01*
X144192516Y-152769091D01*
X144199444Y-152769835D01*
X144252127Y-152775500D01*
X146047872Y-152775499D01*
X146107483Y-152769091D01*
X146242331Y-152718796D01*
X146357546Y-152632546D01*
X146443796Y-152517331D01*
X146493002Y-152385401D01*
X146534872Y-152329468D01*
X146600337Y-152305050D01*
X146668610Y-152319901D01*
X146696865Y-152341053D01*
X146818917Y-152463105D01*
X147012421Y-152598600D01*
X147226507Y-152698429D01*
X147226516Y-152698433D01*
X147440000Y-152755634D01*
X147440000Y-151858012D01*
X147497007Y-151890925D01*
X147624174Y-151925000D01*
X147755826Y-151925000D01*
X147882993Y-151890925D01*
X147940000Y-151858012D01*
X147940000Y-152755633D01*
X148153483Y-152698433D01*
X148153492Y-152698429D01*
X148367578Y-152598600D01*
X148561082Y-152463105D01*
X148728105Y-152296082D01*
X148863600Y-152102578D01*
X148963429Y-151888492D01*
X148963432Y-151888486D01*
X149020636Y-151675000D01*
X148123012Y-151675000D01*
X148155925Y-151617993D01*
X148190000Y-151490826D01*
X148190000Y-151359174D01*
X148155925Y-151232007D01*
X148123012Y-151175000D01*
X149020636Y-151175000D01*
X149020635Y-151174999D01*
X148963432Y-150961513D01*
X148963429Y-150961507D01*
X148863600Y-150747422D01*
X148863599Y-150747420D01*
X148728113Y-150553926D01*
X148728108Y-150553920D01*
X148561082Y-150386894D01*
X148367578Y-150251399D01*
X148153492Y-150151570D01*
X148153486Y-150151567D01*
X147940000Y-150094364D01*
X147940000Y-150991988D01*
X147882993Y-150959075D01*
X147755826Y-150925000D01*
X147624174Y-150925000D01*
X147497007Y-150959075D01*
X147440000Y-150991988D01*
X147440000Y-150094364D01*
X147439999Y-150094364D01*
X147226513Y-150151567D01*
X147226507Y-150151570D01*
X147012422Y-150251399D01*
X147012420Y-150251400D01*
X146818926Y-150386886D01*
X146696865Y-150508947D01*
X146635542Y-150542431D01*
X146565850Y-150537447D01*
X146509917Y-150495575D01*
X146493002Y-150464598D01*
X146443797Y-150332671D01*
X146443793Y-150332664D01*
X146357547Y-150217455D01*
X146357544Y-150217452D01*
X146242335Y-150131206D01*
X146242328Y-150131202D01*
X146107482Y-150080908D01*
X146107483Y-150080908D01*
X146047883Y-150074501D01*
X146047881Y-150074500D01*
X146047873Y-150074500D01*
X146047864Y-150074500D01*
X144252129Y-150074500D01*
X144252123Y-150074501D01*
X144192516Y-150080908D01*
X144057671Y-150131202D01*
X144057664Y-150131206D01*
X143942455Y-150217452D01*
X143942452Y-150217455D01*
X143856206Y-150332664D01*
X143856202Y-150332671D01*
X143805908Y-150467517D01*
X143799501Y-150527116D01*
X143799500Y-150527135D01*
X138885669Y-150527135D01*
X138896792Y-150400000D01*
X138895645Y-150386894D01*
X138889617Y-150317997D01*
X138877661Y-150181326D01*
X138820847Y-149969297D01*
X138728079Y-149770354D01*
X138728077Y-149770351D01*
X138728076Y-149770349D01*
X138602177Y-149590547D01*
X138602172Y-149590541D01*
X138446958Y-149435327D01*
X138446952Y-149435322D01*
X138267150Y-149309423D01*
X138267142Y-149309419D01*
X138068208Y-149216655D01*
X138068206Y-149216654D01*
X138068203Y-149216653D01*
X137917385Y-149176240D01*
X137856175Y-149159839D01*
X137856168Y-149159838D01*
X137637502Y-149140708D01*
X137637498Y-149140708D01*
X137418831Y-149159838D01*
X137418824Y-149159839D01*
X137296402Y-149192642D01*
X137206797Y-149216653D01*
X137206795Y-149216653D01*
X137206791Y-149216655D01*
X137007857Y-149309419D01*
X137007849Y-149309423D01*
X136828047Y-149435322D01*
X136828041Y-149435327D01*
X136672827Y-149590541D01*
X136672822Y-149590547D01*
X136546923Y-149770349D01*
X136546919Y-149770357D01*
X136454155Y-149969291D01*
X136397339Y-150181324D01*
X136397338Y-150181331D01*
X136378208Y-150399997D01*
X134000500Y-150399997D01*
X134000500Y-148934808D01*
X134020185Y-148867769D01*
X134036819Y-148847127D01*
X134644111Y-148239834D01*
X134670339Y-148303154D01*
X134740379Y-148407976D01*
X134829524Y-148497121D01*
X134934346Y-148567161D01*
X134997664Y-148593387D01*
X134395946Y-149195105D01*
X134436220Y-149226452D01*
X134649013Y-149341611D01*
X134649018Y-149341613D01*
X134877859Y-149420174D01*
X135116522Y-149460000D01*
X135358478Y-149460000D01*
X135597140Y-149420174D01*
X135825981Y-149341613D01*
X135825986Y-149341611D01*
X136038784Y-149226449D01*
X136038785Y-149226448D01*
X136079052Y-149195106D01*
X136079053Y-149195105D01*
X135477335Y-148593388D01*
X135540654Y-148567161D01*
X135645476Y-148497121D01*
X135734621Y-148407976D01*
X135804661Y-148303154D01*
X135830887Y-148239835D01*
X136432035Y-148840983D01*
X136525934Y-148697262D01*
X136525935Y-148697260D01*
X136623126Y-148475684D01*
X136682523Y-148241128D01*
X136702504Y-148000005D01*
X136702504Y-147999994D01*
X138572496Y-147999994D01*
X138572496Y-148000005D01*
X138592476Y-148241128D01*
X138651873Y-148475684D01*
X138749065Y-148697261D01*
X138842963Y-148840983D01*
X139444111Y-148239834D01*
X139470339Y-148303154D01*
X139540379Y-148407976D01*
X139629524Y-148497121D01*
X139734346Y-148567161D01*
X139797664Y-148593387D01*
X139195946Y-149195105D01*
X139236220Y-149226452D01*
X139449013Y-149341611D01*
X139449018Y-149341613D01*
X139677859Y-149420174D01*
X139916522Y-149460000D01*
X140158478Y-149460000D01*
X140397140Y-149420174D01*
X140625981Y-149341613D01*
X140625986Y-149341611D01*
X140838784Y-149226449D01*
X140838785Y-149226448D01*
X140879052Y-149195106D01*
X140879053Y-149195105D01*
X140277335Y-148593388D01*
X140340654Y-148567161D01*
X140445476Y-148497121D01*
X140534621Y-148407976D01*
X140604661Y-148303154D01*
X140630888Y-148239835D01*
X141232035Y-148840983D01*
X141325934Y-148697262D01*
X141325935Y-148697260D01*
X141423126Y-148475684D01*
X141482523Y-148241128D01*
X141502504Y-148000005D01*
X141502504Y-147999994D01*
X141482523Y-147758871D01*
X141423126Y-147524315D01*
X141325932Y-147302733D01*
X141232035Y-147159015D01*
X140630887Y-147760163D01*
X140604661Y-147696846D01*
X140534621Y-147592024D01*
X140445476Y-147502879D01*
X140340654Y-147432839D01*
X140277335Y-147406611D01*
X140879052Y-146804893D01*
X140838778Y-146773546D01*
X140625986Y-146658388D01*
X140625981Y-146658386D01*
X140397140Y-146579825D01*
X140158478Y-146540000D01*
X139916522Y-146540000D01*
X139677859Y-146579825D01*
X139449018Y-146658386D01*
X139449013Y-146658388D01*
X139236221Y-146773547D01*
X139195946Y-146804893D01*
X139195945Y-146804893D01*
X139797664Y-147406611D01*
X139734346Y-147432839D01*
X139629524Y-147502879D01*
X139540379Y-147592024D01*
X139470339Y-147696846D01*
X139444112Y-147760164D01*
X138842963Y-147159015D01*
X138749066Y-147302735D01*
X138651873Y-147524315D01*
X138592476Y-147758871D01*
X138572496Y-147999994D01*
X136702504Y-147999994D01*
X136682523Y-147758871D01*
X136623126Y-147524315D01*
X136525932Y-147302733D01*
X136432035Y-147159015D01*
X135830887Y-147760163D01*
X135804661Y-147696846D01*
X135734621Y-147592024D01*
X135645476Y-147502879D01*
X135540654Y-147432839D01*
X135477334Y-147406611D01*
X136079052Y-146804893D01*
X136038777Y-146773545D01*
X136034480Y-146770738D01*
X136035781Y-146768746D01*
X135993237Y-146726495D01*
X135978150Y-146658274D01*
X135982087Y-146634610D01*
X136000500Y-146565892D01*
X136000500Y-145999996D01*
X144694435Y-145999996D01*
X144694435Y-146000003D01*
X144714630Y-146179249D01*
X144714631Y-146179254D01*
X144774211Y-146349523D01*
X144823588Y-146428105D01*
X144870184Y-146502262D01*
X144997738Y-146629816D01*
X145150478Y-146725789D01*
X145152496Y-146726495D01*
X145320745Y-146785368D01*
X145320750Y-146785369D01*
X145499996Y-146805565D01*
X145500000Y-146805565D01*
X145500004Y-146805565D01*
X145679249Y-146785369D01*
X145679252Y-146785368D01*
X145679255Y-146785368D01*
X145849522Y-146725789D01*
X146002262Y-146629816D01*
X146129816Y-146502262D01*
X146225789Y-146349522D01*
X146285368Y-146179255D01*
X146297951Y-146067578D01*
X146305565Y-146000003D01*
X146305565Y-145999996D01*
X146285369Y-145820750D01*
X146285368Y-145820745D01*
X146225789Y-145650478D01*
X146129816Y-145497738D01*
X146002262Y-145370184D01*
X145929038Y-145324174D01*
X145849523Y-145274211D01*
X145679254Y-145214631D01*
X145679249Y-145214630D01*
X145500004Y-145194435D01*
X145499996Y-145194435D01*
X145320750Y-145214630D01*
X145320745Y-145214631D01*
X145150476Y-145274211D01*
X144997737Y-145370184D01*
X144870184Y-145497737D01*
X144774211Y-145650476D01*
X144714631Y-145820745D01*
X144714630Y-145820750D01*
X144694435Y-145999996D01*
X136000500Y-145999996D01*
X136000500Y-144184108D01*
X135966392Y-144056814D01*
X135900500Y-143942686D01*
X135807314Y-143849500D01*
X135734537Y-143807482D01*
X135693187Y-143783608D01*
X135629539Y-143766554D01*
X135565892Y-143749500D01*
X135565891Y-143749500D01*
X132624500Y-143749500D01*
X132557461Y-143729815D01*
X132511706Y-143677011D01*
X132500500Y-143625500D01*
X132500500Y-142118011D01*
X132520185Y-142050972D01*
X132572989Y-142005217D01*
X132642147Y-141995273D01*
X132705703Y-142024298D01*
X132736882Y-142065606D01*
X132826399Y-142257578D01*
X132961894Y-142451082D01*
X133128917Y-142618105D01*
X133322421Y-142753600D01*
X133536507Y-142853429D01*
X133536516Y-142853433D01*
X133750000Y-142910634D01*
X133750000Y-142013012D01*
X133807007Y-142045925D01*
X133934174Y-142080000D01*
X134065826Y-142080000D01*
X134192993Y-142045925D01*
X134250000Y-142013012D01*
X134250000Y-142910633D01*
X134463483Y-142853433D01*
X134463492Y-142853429D01*
X134677578Y-142753600D01*
X134871082Y-142618105D01*
X135038105Y-142451082D01*
X135173600Y-142257578D01*
X135273429Y-142043492D01*
X135273432Y-142043486D01*
X135285085Y-141999996D01*
X146694435Y-141999996D01*
X146694435Y-142000003D01*
X146714630Y-142179249D01*
X146714631Y-142179254D01*
X146774211Y-142349523D01*
X146838025Y-142451082D01*
X146870184Y-142502262D01*
X146997738Y-142629816D01*
X147150478Y-142725789D01*
X147297731Y-142777315D01*
X147320745Y-142785368D01*
X147320750Y-142785369D01*
X147499996Y-142805565D01*
X147500000Y-142805565D01*
X147500004Y-142805565D01*
X147679249Y-142785369D01*
X147679252Y-142785368D01*
X147679255Y-142785368D01*
X147849522Y-142725789D01*
X148002262Y-142629816D01*
X148129816Y-142502262D01*
X148225789Y-142349522D01*
X148285368Y-142179255D01*
X148285369Y-142179249D01*
X148288947Y-142147496D01*
X148841935Y-142147496D01*
X148841935Y-142147503D01*
X148862130Y-142326749D01*
X148862131Y-142326754D01*
X148921711Y-142497023D01*
X149005150Y-142629815D01*
X149017684Y-142649762D01*
X149145238Y-142777316D01*
X149297978Y-142873289D01*
X149404701Y-142910633D01*
X149468245Y-142932868D01*
X149468250Y-142932869D01*
X149647496Y-142953065D01*
X149647500Y-142953065D01*
X149647504Y-142953065D01*
X149826749Y-142932869D01*
X149826752Y-142932868D01*
X149826755Y-142932868D01*
X149997022Y-142873289D01*
X150149762Y-142777316D01*
X150277316Y-142649762D01*
X150371420Y-142499996D01*
X150694435Y-142499996D01*
X150694435Y-142500003D01*
X150714630Y-142679249D01*
X150714631Y-142679254D01*
X150774211Y-142849523D01*
X150812610Y-142910634D01*
X150870184Y-143002262D01*
X150997738Y-143129816D01*
X151150478Y-143225789D01*
X151320745Y-143285368D01*
X151320750Y-143285369D01*
X151499996Y-143305565D01*
X151500000Y-143305565D01*
X151500004Y-143305565D01*
X151679249Y-143285369D01*
X151679252Y-143285368D01*
X151679255Y-143285368D01*
X151849522Y-143225789D01*
X152002262Y-143129816D01*
X152129816Y-143002262D01*
X152225789Y-142849522D01*
X152285368Y-142679255D01*
X152288691Y-142649762D01*
X152305565Y-142500003D01*
X152305565Y-142499996D01*
X152285369Y-142320750D01*
X152285368Y-142320745D01*
X152263265Y-142257578D01*
X152225789Y-142150478D01*
X152223915Y-142147496D01*
X152131237Y-142000000D01*
X152129816Y-141997738D01*
X152084213Y-141952135D01*
X153499500Y-141952135D01*
X153499500Y-143747870D01*
X153499501Y-143747876D01*
X153505908Y-143807483D01*
X153556202Y-143942328D01*
X153556206Y-143942335D01*
X153642452Y-144057544D01*
X153642455Y-144057547D01*
X153757664Y-144143793D01*
X153757671Y-144143797D01*
X153757674Y-144143798D01*
X153889598Y-144193002D01*
X153945531Y-144234873D01*
X153969949Y-144300337D01*
X153955098Y-144368610D01*
X153933947Y-144396865D01*
X153811886Y-144518926D01*
X153676400Y-144712420D01*
X153676399Y-144712422D01*
X153576570Y-144926507D01*
X153576567Y-144926513D01*
X153519364Y-145139999D01*
X153519364Y-145140000D01*
X154416988Y-145140000D01*
X154384075Y-145197007D01*
X154350000Y-145324174D01*
X154350000Y-145455826D01*
X154384075Y-145582993D01*
X154416988Y-145640000D01*
X153519364Y-145640000D01*
X153576567Y-145853486D01*
X153576570Y-145853492D01*
X153676399Y-146067578D01*
X153811894Y-146261082D01*
X153978917Y-146428105D01*
X154172421Y-146563600D01*
X154386507Y-146663429D01*
X154386516Y-146663433D01*
X154600000Y-146720634D01*
X154600000Y-145823012D01*
X154657007Y-145855925D01*
X154784174Y-145890000D01*
X154915826Y-145890000D01*
X155042993Y-145855925D01*
X155100000Y-145823012D01*
X155100000Y-146720633D01*
X155313483Y-146663433D01*
X155313492Y-146663429D01*
X155527578Y-146563600D01*
X155721082Y-146428105D01*
X155888105Y-146261082D01*
X156023600Y-146067578D01*
X156123429Y-145853492D01*
X156123432Y-145853486D01*
X156180636Y-145640000D01*
X155283012Y-145640000D01*
X155315925Y-145582993D01*
X155350000Y-145455826D01*
X155350000Y-145324174D01*
X155315925Y-145197007D01*
X155283012Y-145140000D01*
X156180636Y-145140000D01*
X156180635Y-145139999D01*
X156123432Y-144926513D01*
X156123429Y-144926507D01*
X156023600Y-144712422D01*
X156023599Y-144712420D01*
X155888113Y-144518926D01*
X155888108Y-144518920D01*
X155766053Y-144396865D01*
X155732568Y-144335542D01*
X155737552Y-144265850D01*
X155779424Y-144209917D01*
X155810400Y-144193002D01*
X155942331Y-144143796D01*
X156057546Y-144057546D01*
X156143796Y-143942331D01*
X156194091Y-143807483D01*
X156200500Y-143747873D01*
X156200499Y-141952128D01*
X156194091Y-141892517D01*
X156185761Y-141870184D01*
X156143797Y-141757671D01*
X156143793Y-141757664D01*
X156057547Y-141642455D01*
X156057544Y-141642452D01*
X155942335Y-141556206D01*
X155942328Y-141556202D01*
X155807482Y-141505908D01*
X155807483Y-141505908D01*
X155747883Y-141499501D01*
X155747881Y-141499500D01*
X155747873Y-141499500D01*
X155747864Y-141499500D01*
X153952129Y-141499500D01*
X153952123Y-141499501D01*
X153892516Y-141505908D01*
X153757671Y-141556202D01*
X153757664Y-141556206D01*
X153642455Y-141642452D01*
X153642452Y-141642455D01*
X153556206Y-141757664D01*
X153556202Y-141757671D01*
X153505908Y-141892517D01*
X153499501Y-141952116D01*
X153499501Y-141952123D01*
X153499500Y-141952135D01*
X152084213Y-141952135D01*
X152002262Y-141870184D01*
X151938310Y-141830000D01*
X151849523Y-141774211D01*
X151679254Y-141714631D01*
X151679249Y-141714630D01*
X151500004Y-141694435D01*
X151499996Y-141694435D01*
X151320750Y-141714630D01*
X151320745Y-141714631D01*
X151150476Y-141774211D01*
X150997737Y-141870184D01*
X150870184Y-141997737D01*
X150774211Y-142150476D01*
X150714631Y-142320745D01*
X150714630Y-142320750D01*
X150694435Y-142499996D01*
X150371420Y-142499996D01*
X150373289Y-142497022D01*
X150432868Y-142326755D01*
X150433545Y-142320745D01*
X150453065Y-142147503D01*
X150453065Y-142147496D01*
X150432869Y-141968250D01*
X150432868Y-141968245D01*
X150427224Y-141952116D01*
X150373289Y-141797978D01*
X150277316Y-141645238D01*
X150149762Y-141517684D01*
X150120824Y-141499501D01*
X149997023Y-141421711D01*
X149826754Y-141362131D01*
X149826749Y-141362130D01*
X149647504Y-141341935D01*
X149647496Y-141341935D01*
X149468250Y-141362130D01*
X149468245Y-141362131D01*
X149297976Y-141421711D01*
X149145237Y-141517684D01*
X149017684Y-141645237D01*
X148921711Y-141797976D01*
X148862131Y-141968245D01*
X148862130Y-141968250D01*
X148841935Y-142147496D01*
X148288947Y-142147496D01*
X148305565Y-142000003D01*
X148305565Y-141999996D01*
X148285369Y-141820750D01*
X148285368Y-141820745D01*
X148225788Y-141650476D01*
X148134950Y-141505909D01*
X148129816Y-141497738D01*
X148002262Y-141370184D01*
X147938308Y-141329999D01*
X147849523Y-141274211D01*
X147679254Y-141214631D01*
X147679249Y-141214630D01*
X147500004Y-141194435D01*
X147499996Y-141194435D01*
X147320750Y-141214630D01*
X147320745Y-141214631D01*
X147150476Y-141274211D01*
X146997737Y-141370184D01*
X146870184Y-141497737D01*
X146774211Y-141650476D01*
X146714631Y-141820745D01*
X146714630Y-141820750D01*
X146694435Y-141999996D01*
X135285085Y-141999996D01*
X135330636Y-141830000D01*
X134433012Y-141830000D01*
X134465925Y-141772993D01*
X134500000Y-141645826D01*
X134500000Y-141514174D01*
X134465925Y-141387007D01*
X134433012Y-141330000D01*
X135330636Y-141330000D01*
X135330635Y-141329999D01*
X135273432Y-141116513D01*
X135273429Y-141116507D01*
X135173600Y-140902422D01*
X135173599Y-140902420D01*
X135038113Y-140708926D01*
X135038108Y-140708920D01*
X134871078Y-140541890D01*
X134685405Y-140411879D01*
X134641780Y-140357302D01*
X134634588Y-140287804D01*
X134666110Y-140225449D01*
X134685406Y-140208730D01*
X134871401Y-140078495D01*
X135038495Y-139911401D01*
X135174035Y-139717830D01*
X135273903Y-139503663D01*
X135335063Y-139275408D01*
X135355659Y-139040000D01*
X135335063Y-138804592D01*
X135286888Y-138624799D01*
X135273905Y-138576344D01*
X135273904Y-138576343D01*
X135273903Y-138576337D01*
X135174035Y-138362171D01*
X135173273Y-138361082D01*
X135038494Y-138168597D01*
X134871402Y-138001506D01*
X134871396Y-138001501D01*
X134685842Y-137871575D01*
X134642217Y-137816998D01*
X134635023Y-137747500D01*
X134666546Y-137685145D01*
X134685842Y-137668425D01*
X134708026Y-137652891D01*
X134871401Y-137538495D01*
X135038495Y-137371401D01*
X135174035Y-137177830D01*
X135273903Y-136963663D01*
X135335063Y-136735408D01*
X135355659Y-136500000D01*
X135335063Y-136264592D01*
X135300671Y-136136239D01*
X135302334Y-136066393D01*
X135332763Y-136016470D01*
X137297099Y-134052135D01*
X153499500Y-134052135D01*
X153499500Y-135847870D01*
X153499501Y-135847876D01*
X153505908Y-135907483D01*
X153556202Y-136042328D01*
X153556206Y-136042335D01*
X153642452Y-136157544D01*
X153642455Y-136157547D01*
X153757664Y-136243793D01*
X153757671Y-136243797D01*
X153757674Y-136243798D01*
X153889598Y-136293002D01*
X153945531Y-136334873D01*
X153969949Y-136400337D01*
X153955098Y-136468610D01*
X153933947Y-136496865D01*
X153811886Y-136618926D01*
X153676400Y-136812420D01*
X153676399Y-136812422D01*
X153576570Y-137026507D01*
X153576567Y-137026513D01*
X153519364Y-137239999D01*
X153519364Y-137240000D01*
X154416988Y-137240000D01*
X154384075Y-137297007D01*
X154350000Y-137424174D01*
X154350000Y-137555826D01*
X154384075Y-137682993D01*
X154416988Y-137740000D01*
X153519364Y-137740000D01*
X153576567Y-137953486D01*
X153576570Y-137953492D01*
X153676399Y-138167578D01*
X153811894Y-138361082D01*
X153978917Y-138528105D01*
X154172421Y-138663600D01*
X154386507Y-138763429D01*
X154386516Y-138763433D01*
X154600000Y-138820634D01*
X154600000Y-137923012D01*
X154657007Y-137955925D01*
X154784174Y-137990000D01*
X154915826Y-137990000D01*
X155042993Y-137955925D01*
X155100000Y-137923012D01*
X155100000Y-138820633D01*
X155313483Y-138763433D01*
X155313492Y-138763429D01*
X155527578Y-138663600D01*
X155721082Y-138528105D01*
X155888105Y-138361082D01*
X156023600Y-138167578D01*
X156123429Y-137953492D01*
X156123432Y-137953486D01*
X156180636Y-137740000D01*
X155283012Y-137740000D01*
X155315925Y-137682993D01*
X155350000Y-137555826D01*
X155350000Y-137424174D01*
X155315925Y-137297007D01*
X155283012Y-137240000D01*
X156180636Y-137240000D01*
X156180635Y-137239999D01*
X156123432Y-137026513D01*
X156123429Y-137026507D01*
X156023600Y-136812422D01*
X156023599Y-136812420D01*
X155888113Y-136618926D01*
X155888108Y-136618920D01*
X155766053Y-136496865D01*
X155732568Y-136435542D01*
X155737552Y-136365850D01*
X155779424Y-136309917D01*
X155810400Y-136293002D01*
X155942331Y-136243796D01*
X156057546Y-136157546D01*
X156143796Y-136042331D01*
X156194091Y-135907483D01*
X156200500Y-135847873D01*
X156200499Y-134052128D01*
X156194091Y-133992517D01*
X156143796Y-133857669D01*
X156143795Y-133857668D01*
X156143793Y-133857664D01*
X156057547Y-133742455D01*
X156057544Y-133742452D01*
X155942335Y-133656206D01*
X155942328Y-133656202D01*
X155807482Y-133605908D01*
X155807483Y-133605908D01*
X155747883Y-133599501D01*
X155747881Y-133599500D01*
X155747873Y-133599500D01*
X155747864Y-133599500D01*
X153952129Y-133599500D01*
X153952123Y-133599501D01*
X153892516Y-133605908D01*
X153757671Y-133656202D01*
X153757664Y-133656206D01*
X153642455Y-133742452D01*
X153642452Y-133742455D01*
X153556206Y-133857664D01*
X153556202Y-133857671D01*
X153505908Y-133992517D01*
X153505007Y-134000902D01*
X153499501Y-134052123D01*
X153499500Y-134052135D01*
X137297099Y-134052135D01*
X139980520Y-131368716D01*
X140059577Y-131231784D01*
X140100501Y-131079057D01*
X140100501Y-130920942D01*
X140100501Y-130913347D01*
X140100500Y-130913329D01*
X140100500Y-124466932D01*
X140120185Y-124399893D01*
X140172989Y-124354138D01*
X140242147Y-124344194D01*
X140305703Y-124373219D01*
X140334734Y-124414483D01*
X140336293Y-124413708D01*
X140433786Y-124609500D01*
X140434219Y-124610370D01*
X140563159Y-124781114D01*
X140721278Y-124925258D01*
X140721283Y-124925261D01*
X140721286Y-124925263D01*
X140903186Y-125037891D01*
X140903187Y-125037891D01*
X140903190Y-125037893D01*
X141102703Y-125115185D01*
X141313020Y-125154500D01*
X141313022Y-125154500D01*
X141414060Y-125154500D01*
X141481099Y-125174185D01*
X141526854Y-125226989D01*
X141536798Y-125296147D01*
X141507773Y-125359703D01*
X141501741Y-125366181D01*
X141370184Y-125497737D01*
X141274211Y-125650476D01*
X141214631Y-125820745D01*
X141214630Y-125820750D01*
X141194435Y-125999996D01*
X141194435Y-126000003D01*
X141214630Y-126179249D01*
X141214631Y-126179254D01*
X141274211Y-126349523D01*
X141302778Y-126394986D01*
X141370184Y-126502262D01*
X141497738Y-126629816D01*
X141650478Y-126725789D01*
X141820745Y-126785368D01*
X141820750Y-126785369D01*
X141999996Y-126805565D01*
X142000000Y-126805565D01*
X142000004Y-126805565D01*
X142179249Y-126785369D01*
X142179252Y-126785368D01*
X142179255Y-126785368D01*
X142349522Y-126725789D01*
X142502262Y-126629816D01*
X142629816Y-126502262D01*
X142725789Y-126349522D01*
X142785368Y-126179255D01*
X142790939Y-126129816D01*
X142801565Y-126035498D01*
X142828631Y-125971084D01*
X142886225Y-125931529D01*
X142956062Y-125929390D01*
X143012466Y-125961700D01*
X143390875Y-126340109D01*
X143390885Y-126340120D01*
X143395215Y-126344450D01*
X143395216Y-126344451D01*
X143507020Y-126456255D01*
X143507022Y-126456256D01*
X143507026Y-126456259D01*
X143578178Y-126497338D01*
X143643952Y-126535312D01*
X143755755Y-126565269D01*
X143796678Y-126576235D01*
X143796679Y-126576235D01*
X144286125Y-126576235D01*
X144286141Y-126576236D01*
X144293737Y-126576236D01*
X144451848Y-126576236D01*
X144451851Y-126576236D01*
X144604579Y-126535312D01*
X144661823Y-126502262D01*
X144712082Y-126473244D01*
X144779978Y-126456772D01*
X144846005Y-126479623D01*
X144864993Y-126497604D01*
X144865260Y-126497338D01*
X144870184Y-126502262D01*
X144997738Y-126629816D01*
X145150478Y-126725789D01*
X145320745Y-126785368D01*
X145320750Y-126785369D01*
X145499996Y-126805565D01*
X145500000Y-126805565D01*
X145500004Y-126805565D01*
X145679249Y-126785369D01*
X145679252Y-126785368D01*
X145679255Y-126785368D01*
X145849522Y-126725789D01*
X146002262Y-126629816D01*
X146129816Y-126502262D01*
X146225789Y-126349522D01*
X146285368Y-126179255D01*
X146285369Y-126179249D01*
X146305565Y-126000003D01*
X146305565Y-125999996D01*
X146285369Y-125820750D01*
X146285366Y-125820737D01*
X146249926Y-125719455D01*
X146246364Y-125649676D01*
X146281092Y-125589049D01*
X146343086Y-125556821D01*
X146366967Y-125554500D01*
X146808491Y-125554500D01*
X146808507Y-125554501D01*
X146816103Y-125554501D01*
X146974214Y-125554501D01*
X146974217Y-125554501D01*
X147126945Y-125513577D01*
X147177064Y-125484639D01*
X147263876Y-125434520D01*
X147375680Y-125322716D01*
X147375680Y-125322714D01*
X147385888Y-125312507D01*
X147385890Y-125312504D01*
X147822713Y-124875681D01*
X147822716Y-124875680D01*
X147934520Y-124763876D01*
X147975554Y-124692799D01*
X148026119Y-124644585D01*
X148094725Y-124631360D01*
X148144024Y-124648143D01*
X148144205Y-124647769D01*
X148147294Y-124649257D01*
X148148922Y-124649811D01*
X148150478Y-124650789D01*
X148320745Y-124710368D01*
X148320749Y-124710369D01*
X148367577Y-124715645D01*
X148431991Y-124742711D01*
X148471546Y-124800306D01*
X148473684Y-124870142D01*
X148441376Y-124926546D01*
X148370183Y-124997739D01*
X148274211Y-125150476D01*
X148214631Y-125320745D01*
X148214630Y-125320750D01*
X148194435Y-125499996D01*
X148194435Y-125500003D01*
X148214630Y-125679249D01*
X148214631Y-125679254D01*
X148274211Y-125849523D01*
X148368760Y-125999996D01*
X148370184Y-126002262D01*
X148497738Y-126129816D01*
X148650478Y-126225789D01*
X148820745Y-126285368D01*
X148820750Y-126285369D01*
X148999996Y-126305565D01*
X149000000Y-126305565D01*
X149000004Y-126305565D01*
X149179249Y-126285369D01*
X149179252Y-126285368D01*
X149179255Y-126285368D01*
X149349522Y-126225789D01*
X149502262Y-126129816D01*
X149629816Y-126002262D01*
X149631240Y-125999996D01*
X150194435Y-125999996D01*
X150194435Y-126000003D01*
X150214630Y-126179249D01*
X150214631Y-126179254D01*
X150274211Y-126349523D01*
X150302778Y-126394986D01*
X150370184Y-126502262D01*
X150497738Y-126629816D01*
X150650478Y-126725789D01*
X150820745Y-126785368D01*
X150820750Y-126785369D01*
X150999996Y-126805565D01*
X151000000Y-126805565D01*
X151000004Y-126805565D01*
X151179249Y-126785369D01*
X151179252Y-126785368D01*
X151179255Y-126785368D01*
X151349522Y-126725789D01*
X151502262Y-126629816D01*
X151629816Y-126502262D01*
X151725789Y-126349522D01*
X151785368Y-126179255D01*
X151785369Y-126179249D01*
X151805565Y-126000003D01*
X151805565Y-125999996D01*
X151785369Y-125820750D01*
X151785368Y-125820745D01*
X151739000Y-125688234D01*
X151725789Y-125650478D01*
X151629816Y-125497738D01*
X151502262Y-125370184D01*
X151485582Y-125359703D01*
X151349523Y-125274211D01*
X151179254Y-125214631D01*
X151179249Y-125214630D01*
X151000004Y-125194435D01*
X150999996Y-125194435D01*
X150820750Y-125214630D01*
X150820745Y-125214631D01*
X150650476Y-125274211D01*
X150497737Y-125370184D01*
X150370184Y-125497737D01*
X150274211Y-125650476D01*
X150214631Y-125820745D01*
X150214630Y-125820750D01*
X150194435Y-125999996D01*
X149631240Y-125999996D01*
X149725789Y-125849522D01*
X149785368Y-125679255D01*
X149785369Y-125679249D01*
X149805565Y-125500003D01*
X149805565Y-125499996D01*
X149785369Y-125320750D01*
X149785368Y-125320745D01*
X149734084Y-125174185D01*
X149725789Y-125150478D01*
X149629816Y-124997738D01*
X149502262Y-124870184D01*
X149482198Y-124857577D01*
X149349523Y-124774211D01*
X149179252Y-124714631D01*
X149132420Y-124709354D01*
X149068007Y-124682287D01*
X149028452Y-124624692D01*
X149026315Y-124554855D01*
X149058621Y-124498456D01*
X149129816Y-124427262D01*
X149225789Y-124274522D01*
X149285368Y-124104255D01*
X149297115Y-124000000D01*
X149305565Y-123925003D01*
X149305565Y-123924996D01*
X149285369Y-123745750D01*
X149285368Y-123745745D01*
X149225788Y-123575476D01*
X149129815Y-123422737D01*
X149002262Y-123295184D01*
X148849523Y-123199211D01*
X148679254Y-123139631D01*
X148679249Y-123139630D01*
X148500004Y-123119435D01*
X148499996Y-123119435D01*
X148320750Y-123139630D01*
X148320742Y-123139632D01*
X148219454Y-123175074D01*
X148149675Y-123178635D01*
X148089048Y-123143906D01*
X148056821Y-123081912D01*
X148054500Y-123058032D01*
X148054500Y-119999996D01*
X150194435Y-119999996D01*
X150194435Y-120000003D01*
X150214630Y-120179249D01*
X150214631Y-120179254D01*
X150274211Y-120349523D01*
X150337658Y-120450498D01*
X150370184Y-120502262D01*
X150497738Y-120629816D01*
X150650478Y-120725789D01*
X150795948Y-120776691D01*
X150820745Y-120785368D01*
X150820750Y-120785369D01*
X150999996Y-120805565D01*
X151000000Y-120805565D01*
X151000004Y-120805565D01*
X151179249Y-120785369D01*
X151179252Y-120785368D01*
X151179255Y-120785368D01*
X151349522Y-120725789D01*
X151502262Y-120629816D01*
X151569943Y-120562135D01*
X153649500Y-120562135D01*
X153649500Y-122357870D01*
X153649501Y-122357876D01*
X153655908Y-122417483D01*
X153706202Y-122552328D01*
X153706206Y-122552335D01*
X153792452Y-122667544D01*
X153792455Y-122667547D01*
X153907664Y-122753793D01*
X153907671Y-122753797D01*
X153907674Y-122753798D01*
X154039598Y-122803002D01*
X154095531Y-122844873D01*
X154119949Y-122910337D01*
X154105098Y-122978610D01*
X154083947Y-123006865D01*
X153961886Y-123128926D01*
X153826400Y-123322420D01*
X153826399Y-123322422D01*
X153726570Y-123536507D01*
X153726567Y-123536513D01*
X153669364Y-123749999D01*
X153669364Y-123750000D01*
X154566988Y-123750000D01*
X154534075Y-123807007D01*
X154500000Y-123934174D01*
X154500000Y-124065826D01*
X154534075Y-124192993D01*
X154566988Y-124250000D01*
X153669364Y-124250000D01*
X153726567Y-124463486D01*
X153726570Y-124463492D01*
X153826399Y-124677578D01*
X153961894Y-124871082D01*
X154128917Y-125038105D01*
X154322421Y-125173600D01*
X154536507Y-125273429D01*
X154536516Y-125273433D01*
X154750000Y-125330634D01*
X154750000Y-124433012D01*
X154807007Y-124465925D01*
X154934174Y-124500000D01*
X155065826Y-124500000D01*
X155192993Y-124465925D01*
X155250000Y-124433012D01*
X155250000Y-125330633D01*
X155463483Y-125273433D01*
X155463492Y-125273429D01*
X155677578Y-125173600D01*
X155871082Y-125038105D01*
X156038105Y-124871082D01*
X156173600Y-124677578D01*
X156273429Y-124463492D01*
X156273432Y-124463486D01*
X156330636Y-124250000D01*
X155433012Y-124250000D01*
X155465925Y-124192993D01*
X155500000Y-124065826D01*
X155500000Y-123934174D01*
X155465925Y-123807007D01*
X155433012Y-123750000D01*
X156330636Y-123750000D01*
X156330635Y-123749999D01*
X156273432Y-123536513D01*
X156273429Y-123536507D01*
X156173600Y-123322422D01*
X156173599Y-123322420D01*
X156038113Y-123128926D01*
X156038108Y-123128920D01*
X155916053Y-123006865D01*
X155882568Y-122945542D01*
X155887552Y-122875850D01*
X155929424Y-122819917D01*
X155960400Y-122803002D01*
X156092331Y-122753796D01*
X156207546Y-122667546D01*
X156293796Y-122552331D01*
X156344091Y-122417483D01*
X156350500Y-122357873D01*
X156350499Y-120562128D01*
X156344091Y-120502517D01*
X156343995Y-120502260D01*
X156293797Y-120367671D01*
X156293793Y-120367664D01*
X156207547Y-120252455D01*
X156207544Y-120252452D01*
X156092335Y-120166206D01*
X156092328Y-120166202D01*
X155957482Y-120115908D01*
X155957483Y-120115908D01*
X155897883Y-120109501D01*
X155897881Y-120109500D01*
X155897873Y-120109500D01*
X155897864Y-120109500D01*
X154102129Y-120109500D01*
X154102123Y-120109501D01*
X154042516Y-120115908D01*
X153907671Y-120166202D01*
X153907664Y-120166206D01*
X153792455Y-120252452D01*
X153792452Y-120252455D01*
X153706206Y-120367664D01*
X153706202Y-120367671D01*
X153655908Y-120502517D01*
X153649501Y-120562116D01*
X153649501Y-120562123D01*
X153649500Y-120562135D01*
X151569943Y-120562135D01*
X151629816Y-120502262D01*
X151725789Y-120349522D01*
X151785368Y-120179255D01*
X151785369Y-120179249D01*
X151805565Y-120000003D01*
X151805565Y-119999996D01*
X151785369Y-119820750D01*
X151785368Y-119820745D01*
X151779766Y-119804735D01*
X151725789Y-119650478D01*
X151629816Y-119497738D01*
X151502262Y-119370184D01*
X151349523Y-119274211D01*
X151179254Y-119214631D01*
X151179249Y-119214630D01*
X151000004Y-119194435D01*
X150999996Y-119194435D01*
X150820750Y-119214630D01*
X150820745Y-119214631D01*
X150650476Y-119274211D01*
X150497737Y-119370184D01*
X150370184Y-119497737D01*
X150274211Y-119650476D01*
X150214631Y-119820745D01*
X150214630Y-119820750D01*
X150194435Y-119999996D01*
X148054500Y-119999996D01*
X148054500Y-117993596D01*
X148074185Y-117926557D01*
X148090814Y-117905920D01*
X150666035Y-115330698D01*
X150727356Y-115297215D01*
X150739811Y-115295163D01*
X150826755Y-115285368D01*
X150997022Y-115225789D01*
X151149762Y-115129816D01*
X151277316Y-115002262D01*
X151373289Y-114849522D01*
X151432868Y-114679255D01*
X151438273Y-114631284D01*
X151453065Y-114500003D01*
X151453065Y-114499996D01*
X151432869Y-114320750D01*
X151432868Y-114320745D01*
X151410007Y-114255413D01*
X151373289Y-114150478D01*
X151277316Y-113997738D01*
X151149762Y-113870184D01*
X150997023Y-113774211D01*
X150826754Y-113714631D01*
X150826749Y-113714630D01*
X150647504Y-113694435D01*
X150647496Y-113694435D01*
X150468250Y-113714630D01*
X150468245Y-113714631D01*
X150297976Y-113774211D01*
X150145237Y-113870184D01*
X150017684Y-113997737D01*
X149921710Y-114150478D01*
X149862130Y-114320750D01*
X149852337Y-114407668D01*
X149825270Y-114472082D01*
X149816798Y-114481465D01*
X147085286Y-117212978D01*
X146973481Y-117324782D01*
X146973479Y-117324785D01*
X146923361Y-117411594D01*
X146923359Y-117411596D01*
X146894425Y-117461709D01*
X146894424Y-117461710D01*
X146894423Y-117461715D01*
X146853499Y-117614443D01*
X146853499Y-117614445D01*
X146853499Y-117782546D01*
X146853500Y-117782559D01*
X146853500Y-120202255D01*
X146833815Y-120269294D01*
X146781011Y-120315049D01*
X146711853Y-120324993D01*
X146706730Y-120324146D01*
X146606980Y-120305500D01*
X146393020Y-120305500D01*
X146293283Y-120324143D01*
X146223770Y-120317113D01*
X146169091Y-120273615D01*
X146146609Y-120207461D01*
X146146500Y-120202255D01*
X146146500Y-117040586D01*
X146166185Y-116973547D01*
X146218989Y-116927792D01*
X146256612Y-116917366D01*
X146325255Y-116909633D01*
X146495522Y-116850054D01*
X146648262Y-116754081D01*
X146775816Y-116626527D01*
X146871789Y-116473787D01*
X146906177Y-116375509D01*
X146946897Y-116318735D01*
X147009332Y-116293246D01*
X147079255Y-116285368D01*
X147249522Y-116225789D01*
X147402262Y-116129816D01*
X147529816Y-116002262D01*
X147625789Y-115849522D01*
X147685368Y-115679255D01*
X147703142Y-115521505D01*
X147705565Y-115500003D01*
X147705565Y-115499996D01*
X147685369Y-115320750D01*
X147685368Y-115320745D01*
X147625788Y-115150475D01*
X147572691Y-115065973D01*
X147553690Y-114998736D01*
X147572691Y-114934027D01*
X147625788Y-114849524D01*
X147625789Y-114849522D01*
X147685368Y-114679255D01*
X147690773Y-114631284D01*
X147705565Y-114500003D01*
X147705565Y-114499996D01*
X147685369Y-114320750D01*
X147685368Y-114320745D01*
X147662507Y-114255413D01*
X147625789Y-114150478D01*
X147529816Y-113997738D01*
X147402262Y-113870184D01*
X147335397Y-113828169D01*
X147289107Y-113775836D01*
X147278459Y-113706783D01*
X147284330Y-113682219D01*
X147285368Y-113679255D01*
X147285819Y-113675258D01*
X147305565Y-113500003D01*
X147305565Y-113499996D01*
X147285369Y-113320750D01*
X147285368Y-113320745D01*
X147270333Y-113277778D01*
X147225789Y-113150478D01*
X147224608Y-113148599D01*
X147131237Y-113000000D01*
X147129816Y-112997738D01*
X147002262Y-112870184D01*
X146963718Y-112845965D01*
X146849523Y-112774211D01*
X146679254Y-112714631D01*
X146679249Y-112714630D01*
X146500004Y-112694435D01*
X146499996Y-112694435D01*
X146320750Y-112714630D01*
X146320745Y-112714631D01*
X146150476Y-112774211D01*
X145997737Y-112870184D01*
X145870184Y-112997737D01*
X145774211Y-113150476D01*
X145714631Y-113320745D01*
X145714630Y-113320750D01*
X145694435Y-113499996D01*
X145694435Y-113500003D01*
X145714630Y-113679249D01*
X145714631Y-113679254D01*
X145774211Y-113849523D01*
X145802420Y-113894417D01*
X145870184Y-114002262D01*
X145997738Y-114129816D01*
X146064600Y-114171828D01*
X146110891Y-114224163D01*
X146121539Y-114293216D01*
X146115673Y-114317767D01*
X146114632Y-114320742D01*
X146114631Y-114320746D01*
X146104837Y-114407668D01*
X146077770Y-114472082D01*
X146069298Y-114481465D01*
X145177286Y-115373478D01*
X145065481Y-115485282D01*
X145065477Y-115485287D01*
X145022632Y-115559499D01*
X145022632Y-115559500D01*
X144986423Y-115622214D01*
X144986423Y-115622215D01*
X144945499Y-115774943D01*
X144945499Y-115774945D01*
X144945499Y-115943046D01*
X144945500Y-115943059D01*
X144945500Y-119863930D01*
X144925815Y-119930969D01*
X144873011Y-119976724D01*
X144803853Y-119986668D01*
X144740297Y-119957643D01*
X144716506Y-119929902D01*
X144647921Y-119820750D01*
X144637858Y-119804735D01*
X144510304Y-119677181D01*
X144357563Y-119581207D01*
X144187291Y-119521627D01*
X144082997Y-119509876D01*
X144018583Y-119482809D01*
X143991887Y-119452628D01*
X143953156Y-119390987D01*
X143825602Y-119263433D01*
X143747936Y-119214632D01*
X143672863Y-119167460D01*
X143502594Y-119107880D01*
X143502589Y-119107879D01*
X143323344Y-119087684D01*
X143323336Y-119087684D01*
X143144090Y-119107879D01*
X143144085Y-119107880D01*
X142973816Y-119167460D01*
X142821077Y-119263433D01*
X142693524Y-119390986D01*
X142597550Y-119543727D01*
X142537970Y-119713999D01*
X142525994Y-119820287D01*
X142510165Y-119868396D01*
X142491925Y-119899993D01*
X142491921Y-119899999D01*
X142446424Y-119978800D01*
X142446423Y-119978801D01*
X142425341Y-120057483D01*
X142405499Y-120131532D01*
X142405499Y-120131534D01*
X142405499Y-120299635D01*
X142405500Y-120299648D01*
X142405500Y-120776691D01*
X142385815Y-120843730D01*
X142369181Y-120864372D01*
X141820000Y-121413553D01*
X141820000Y-121407339D01*
X141792741Y-121305606D01*
X141740080Y-121214394D01*
X141665606Y-121139920D01*
X141574394Y-121087259D01*
X141472661Y-121060000D01*
X141466447Y-121060000D01*
X142039912Y-120486533D01*
X141936586Y-120422556D01*
X141936585Y-120422555D01*
X141809505Y-120373325D01*
X141754104Y-120330752D01*
X141730513Y-120264985D01*
X141737257Y-120216747D01*
X141773481Y-120113224D01*
X141785367Y-120079259D01*
X141785369Y-120079249D01*
X141805565Y-119900003D01*
X141805565Y-119899993D01*
X141785369Y-119720750D01*
X141785368Y-119720745D01*
X141770124Y-119677181D01*
X141725789Y-119550478D01*
X141690864Y-119494896D01*
X141629815Y-119397737D01*
X141502262Y-119270184D01*
X141349523Y-119174211D01*
X141179254Y-119114631D01*
X141179249Y-119114630D01*
X141000004Y-119094435D01*
X140999996Y-119094435D01*
X140820750Y-119114630D01*
X140820745Y-119114631D01*
X140650476Y-119174211D01*
X140497737Y-119270184D01*
X140370184Y-119397737D01*
X140274211Y-119550476D01*
X140214631Y-119720745D01*
X140214630Y-119720749D01*
X140196439Y-119882206D01*
X140169372Y-119946620D01*
X140111778Y-119986175D01*
X140041941Y-119988312D01*
X140007247Y-119973316D01*
X139849523Y-119874211D01*
X139679254Y-119814631D01*
X139679249Y-119814630D01*
X139500004Y-119794435D01*
X139499996Y-119794435D01*
X139320750Y-119814630D01*
X139320745Y-119814631D01*
X139150476Y-119874211D01*
X138997737Y-119970184D01*
X138870184Y-120097737D01*
X138774211Y-120250476D01*
X138714631Y-120420745D01*
X138714630Y-120420750D01*
X138694435Y-120599996D01*
X138694435Y-120600003D01*
X138714630Y-120779249D01*
X138714631Y-120779254D01*
X138774211Y-120949523D01*
X138870185Y-121102263D01*
X138872445Y-121105097D01*
X138873334Y-121107275D01*
X138873889Y-121108158D01*
X138873734Y-121108255D01*
X138898855Y-121169783D01*
X138899500Y-121182412D01*
X138899500Y-130151928D01*
X138879815Y-130218967D01*
X138827011Y-130264722D01*
X138757853Y-130274666D01*
X138734546Y-130268970D01*
X138579257Y-130214632D01*
X138579249Y-130214630D01*
X138400004Y-130194435D01*
X138399996Y-130194435D01*
X138220750Y-130214630D01*
X138220745Y-130214631D01*
X138050476Y-130274211D01*
X137897737Y-130370184D01*
X137770184Y-130497737D01*
X137674211Y-130650476D01*
X137614631Y-130820745D01*
X137614630Y-130820750D01*
X137594435Y-130999996D01*
X137594435Y-131000003D01*
X137614630Y-131179249D01*
X137614631Y-131179254D01*
X137674211Y-131349523D01*
X137770184Y-131502262D01*
X137871661Y-131603739D01*
X137905146Y-131665062D01*
X137900162Y-131734754D01*
X137871661Y-131779101D01*
X135562180Y-134088583D01*
X135500857Y-134122068D01*
X135431165Y-134117084D01*
X135375232Y-134075212D01*
X135350815Y-134009748D01*
X135350499Y-134000902D01*
X135350499Y-133062129D01*
X135350498Y-133062123D01*
X135344091Y-133002516D01*
X135293797Y-132867671D01*
X135293793Y-132867664D01*
X135207547Y-132752455D01*
X135207544Y-132752452D01*
X135092335Y-132666206D01*
X135092328Y-132666202D01*
X134957482Y-132615908D01*
X134957483Y-132615908D01*
X134897883Y-132609501D01*
X134897881Y-132609500D01*
X134897873Y-132609500D01*
X134897864Y-132609500D01*
X133102129Y-132609500D01*
X133102123Y-132609501D01*
X133042516Y-132615908D01*
X132907671Y-132666202D01*
X132907664Y-132666206D01*
X132792455Y-132752452D01*
X132792452Y-132752455D01*
X132723766Y-132844208D01*
X132667832Y-132886079D01*
X132598141Y-132891063D01*
X132536818Y-132857577D01*
X132503334Y-132796254D01*
X132500500Y-132769897D01*
X132500500Y-129038011D01*
X132520185Y-128970972D01*
X132572989Y-128925217D01*
X132642147Y-128915273D01*
X132705703Y-128944298D01*
X132736882Y-128985606D01*
X132826399Y-129177578D01*
X132961894Y-129371082D01*
X133128917Y-129538105D01*
X133322421Y-129673600D01*
X133536507Y-129773429D01*
X133536516Y-129773433D01*
X133750000Y-129830634D01*
X133750000Y-128933012D01*
X133807007Y-128965925D01*
X133934174Y-129000000D01*
X134065826Y-129000000D01*
X134192993Y-128965925D01*
X134250000Y-128933012D01*
X134250000Y-129830633D01*
X134463483Y-129773433D01*
X134463492Y-129773429D01*
X134677578Y-129673600D01*
X134871082Y-129538105D01*
X135038105Y-129371082D01*
X135173600Y-129177578D01*
X135273429Y-128963492D01*
X135273432Y-128963486D01*
X135330636Y-128750000D01*
X134433012Y-128750000D01*
X134465925Y-128692993D01*
X134500000Y-128565826D01*
X134500000Y-128434174D01*
X134465925Y-128307007D01*
X134433012Y-128250000D01*
X135330636Y-128250000D01*
X135330635Y-128249999D01*
X135273432Y-128036513D01*
X135273429Y-128036507D01*
X135173600Y-127822422D01*
X135173599Y-127822420D01*
X135038113Y-127628926D01*
X135038108Y-127628920D01*
X134916053Y-127506865D01*
X134882568Y-127445542D01*
X134887552Y-127375850D01*
X134929424Y-127319917D01*
X134960400Y-127303002D01*
X135092331Y-127253796D01*
X135207546Y-127167546D01*
X135293796Y-127052331D01*
X135344091Y-126917483D01*
X135350500Y-126857873D01*
X135350499Y-125062128D01*
X135344091Y-125002517D01*
X135342308Y-124997737D01*
X135293797Y-124867671D01*
X135293793Y-124867664D01*
X135207547Y-124752455D01*
X135207544Y-124752452D01*
X135092335Y-124666206D01*
X135092328Y-124666202D01*
X134957482Y-124615908D01*
X134957483Y-124615908D01*
X134897883Y-124609501D01*
X134897881Y-124609500D01*
X134897873Y-124609500D01*
X134897864Y-124609500D01*
X133102129Y-124609500D01*
X133102123Y-124609501D01*
X133042516Y-124615908D01*
X132907671Y-124666202D01*
X132907664Y-124666206D01*
X132792455Y-124752452D01*
X132792452Y-124752455D01*
X132723766Y-124844208D01*
X132667832Y-124886079D01*
X132598141Y-124891063D01*
X132536818Y-124857577D01*
X132503334Y-124796254D01*
X132500500Y-124769897D01*
X132500500Y-120323498D01*
X132520185Y-120256459D01*
X132572989Y-120210704D01*
X132642147Y-120200760D01*
X132705703Y-120229785D01*
X132723764Y-120249183D01*
X132767454Y-120307546D01*
X132767457Y-120307548D01*
X132882664Y-120393793D01*
X132882671Y-120393797D01*
X133017517Y-120444091D01*
X133017516Y-120444091D01*
X133024444Y-120444835D01*
X133077127Y-120450500D01*
X134872872Y-120450499D01*
X134932483Y-120444091D01*
X135067331Y-120393796D01*
X135182546Y-120307546D01*
X135223761Y-120252488D01*
X135279693Y-120210620D01*
X135349384Y-120205636D01*
X135388996Y-120221807D01*
X135401692Y-120229785D01*
X135484833Y-120282027D01*
X135484836Y-120282028D01*
X135655103Y-120341607D01*
X135718594Y-120348760D01*
X135783005Y-120375825D01*
X135809702Y-120406007D01*
X135870182Y-120502260D01*
X135870184Y-120502262D01*
X135997738Y-120629816D01*
X136150478Y-120725789D01*
X136295948Y-120776691D01*
X136320745Y-120785368D01*
X136320750Y-120785369D01*
X136499996Y-120805565D01*
X136500000Y-120805565D01*
X136500004Y-120805565D01*
X136679249Y-120785369D01*
X136679252Y-120785368D01*
X136679255Y-120785368D01*
X136849522Y-120725789D01*
X137002262Y-120629816D01*
X137129816Y-120502262D01*
X137225789Y-120349522D01*
X137285368Y-120179255D01*
X137285369Y-120179249D01*
X137305565Y-120000003D01*
X137305565Y-119999996D01*
X137285369Y-119820750D01*
X137285368Y-119820745D01*
X137279766Y-119804735D01*
X137225789Y-119650478D01*
X137129816Y-119497738D01*
X137129814Y-119497736D01*
X137129813Y-119497734D01*
X137127550Y-119494896D01*
X137126659Y-119492715D01*
X137126111Y-119491842D01*
X137126264Y-119491745D01*
X137101144Y-119430209D01*
X137100500Y-119417587D01*
X137100500Y-115300096D01*
X137120185Y-115233057D01*
X137136815Y-115212419D01*
X137270897Y-115078336D01*
X137332220Y-115044852D01*
X137401912Y-115049836D01*
X137446259Y-115078337D01*
X137497738Y-115129816D01*
X137650478Y-115225789D01*
X137716054Y-115248735D01*
X137820745Y-115285368D01*
X137820750Y-115285369D01*
X137999996Y-115305565D01*
X138000000Y-115305565D01*
X138000004Y-115305565D01*
X138179249Y-115285369D01*
X138179252Y-115285368D01*
X138179255Y-115285368D01*
X138349522Y-115225789D01*
X138502262Y-115129816D01*
X138629816Y-115002262D01*
X138725789Y-114849522D01*
X138785368Y-114679255D01*
X138790773Y-114631284D01*
X138805565Y-114500003D01*
X138805565Y-114499996D01*
X138785369Y-114320750D01*
X138785368Y-114320745D01*
X138762507Y-114255413D01*
X138725789Y-114150478D01*
X138629816Y-113997738D01*
X138624745Y-113992667D01*
X138591260Y-113931344D01*
X138596244Y-113861652D01*
X138638116Y-113805719D01*
X138673300Y-113789435D01*
X138672682Y-113787668D01*
X138706496Y-113775836D01*
X138849522Y-113725789D01*
X139002262Y-113629816D01*
X139129816Y-113502262D01*
X139225789Y-113349522D01*
X139285368Y-113179255D01*
X139285369Y-113179249D01*
X139305565Y-113000003D01*
X139305565Y-112999996D01*
X139285369Y-112820750D01*
X139285368Y-112820745D01*
X139229129Y-112660024D01*
X139225789Y-112650478D01*
X139129816Y-112497738D01*
X139002262Y-112370184D01*
X138972360Y-112351395D01*
X138849523Y-112274211D01*
X138679254Y-112214631D01*
X138679249Y-112214630D01*
X138500004Y-112194435D01*
X138499996Y-112194435D01*
X138320750Y-112214630D01*
X138320745Y-112214631D01*
X138150476Y-112274211D01*
X137997737Y-112370184D01*
X137870182Y-112497739D01*
X137834555Y-112554440D01*
X137782220Y-112600731D01*
X137713167Y-112611378D01*
X137681906Y-112602026D01*
X137681830Y-112602246D01*
X137677065Y-112600578D01*
X137675769Y-112600191D01*
X137675268Y-112599950D01*
X137504989Y-112540366D01*
X137504984Y-112540365D01*
X137325739Y-112520170D01*
X137325731Y-112520170D01*
X137146485Y-112540365D01*
X137146480Y-112540366D01*
X136976211Y-112599946D01*
X136823472Y-112695919D01*
X136695919Y-112823472D01*
X136599946Y-112976211D01*
X136540366Y-113146480D01*
X136540365Y-113146485D01*
X136520170Y-113325731D01*
X136520170Y-113325738D01*
X136540365Y-113504984D01*
X136540366Y-113504989D01*
X136599946Y-113675258D01*
X136692256Y-113822167D01*
X136711256Y-113889403D01*
X136690888Y-113956239D01*
X136674943Y-113975820D01*
X136131286Y-114519478D01*
X136019481Y-114631282D01*
X136019480Y-114631284D01*
X135983020Y-114694435D01*
X135940423Y-114768215D01*
X135899499Y-114920943D01*
X135899499Y-114920945D01*
X135899499Y-115089046D01*
X135899500Y-115089059D01*
X135899500Y-118632520D01*
X135879815Y-118699559D01*
X135827011Y-118745314D01*
X135789384Y-118755740D01*
X135655107Y-118770869D01*
X135655103Y-118770870D01*
X135490454Y-118828484D01*
X135420675Y-118832045D01*
X135360047Y-118797316D01*
X135327820Y-118735323D01*
X135325499Y-118711442D01*
X135325499Y-118202129D01*
X135325498Y-118202123D01*
X135324537Y-118193187D01*
X135319091Y-118142517D01*
X135290511Y-118065891D01*
X135268797Y-118007671D01*
X135268793Y-118007664D01*
X135182547Y-117892455D01*
X135182544Y-117892452D01*
X135067335Y-117806206D01*
X135067328Y-117806202D01*
X134935917Y-117757189D01*
X134879983Y-117715318D01*
X134855566Y-117649853D01*
X134870418Y-117581580D01*
X134891563Y-117553332D01*
X135013495Y-117431401D01*
X135149035Y-117237830D01*
X135248903Y-117023663D01*
X135310063Y-116795408D01*
X135330659Y-116560000D01*
X135310063Y-116324592D01*
X135248903Y-116096337D01*
X135149035Y-115882171D01*
X135073954Y-115774943D01*
X135013494Y-115688597D01*
X134846402Y-115521506D01*
X134846396Y-115521501D01*
X134660842Y-115391575D01*
X134617217Y-115336998D01*
X134610023Y-115267500D01*
X134641546Y-115205145D01*
X134660842Y-115188425D01*
X134744544Y-115129816D01*
X134846401Y-115058495D01*
X135013495Y-114891401D01*
X135149035Y-114697830D01*
X135248903Y-114483663D01*
X135310063Y-114255408D01*
X135330659Y-114020000D01*
X135310063Y-113784592D01*
X135248903Y-113556337D01*
X135149035Y-113342171D01*
X135137527Y-113325735D01*
X135013494Y-113148597D01*
X134846402Y-112981506D01*
X134846396Y-112981501D01*
X134660842Y-112851575D01*
X134617217Y-112796998D01*
X134610023Y-112727500D01*
X134641546Y-112665145D01*
X134660842Y-112648425D01*
X134735331Y-112596267D01*
X134846401Y-112518495D01*
X135013495Y-112351401D01*
X135149035Y-112157830D01*
X135248903Y-111943663D01*
X135310063Y-111715408D01*
X135330659Y-111480000D01*
X135310063Y-111244592D01*
X135248903Y-111016337D01*
X135149035Y-110802171D01*
X135090003Y-110717863D01*
X135013494Y-110608597D01*
X134846402Y-110441506D01*
X134846401Y-110441505D01*
X134660405Y-110311269D01*
X134616781Y-110256692D01*
X134609588Y-110187193D01*
X134641110Y-110124839D01*
X134660405Y-110108119D01*
X134846082Y-109978105D01*
X135013105Y-109811082D01*
X135148600Y-109617578D01*
X135248429Y-109403492D01*
X135248432Y-109403486D01*
X135305636Y-109190000D01*
X134408012Y-109190000D01*
X134440925Y-109132993D01*
X134475000Y-109005826D01*
X134475000Y-108874174D01*
X134440925Y-108747007D01*
X134408012Y-108690000D01*
X135364403Y-108690000D01*
X135431442Y-108709685D01*
X135452084Y-108726319D01*
X137659775Y-110934010D01*
X137693260Y-110995333D01*
X137695314Y-111007807D01*
X137714630Y-111179250D01*
X137714631Y-111179254D01*
X137774211Y-111349523D01*
X137856195Y-111479999D01*
X137870184Y-111502262D01*
X137997738Y-111629816D01*
X138067986Y-111673956D01*
X138133964Y-111715413D01*
X138150478Y-111725789D01*
X138320745Y-111785368D01*
X138320750Y-111785369D01*
X138499996Y-111805565D01*
X138500000Y-111805565D01*
X138500004Y-111805565D01*
X138679249Y-111785369D01*
X138679252Y-111785368D01*
X138679255Y-111785368D01*
X138849522Y-111725789D01*
X139002262Y-111629816D01*
X139129816Y-111502262D01*
X139225789Y-111349522D01*
X139285368Y-111179255D01*
X139289207Y-111145183D01*
X139305565Y-111000003D01*
X139305565Y-110999996D01*
X139285369Y-110820750D01*
X139285368Y-110820745D01*
X139245065Y-110705565D01*
X139225789Y-110650478D01*
X139131235Y-110499996D01*
X140194435Y-110499996D01*
X140194435Y-110500003D01*
X140214630Y-110679249D01*
X140214631Y-110679254D01*
X140257641Y-110802169D01*
X140274211Y-110849522D01*
X140327298Y-110934010D01*
X140353853Y-110976271D01*
X140372853Y-111043507D01*
X140353854Y-111108213D01*
X140330622Y-111145187D01*
X140271046Y-111315444D01*
X140271043Y-111315457D01*
X140250848Y-111494703D01*
X140250848Y-111494710D01*
X140271043Y-111673956D01*
X140271044Y-111673961D01*
X140330624Y-111844230D01*
X140415366Y-111979095D01*
X140426597Y-111996969D01*
X140554151Y-112124523D01*
X140679274Y-112203143D01*
X140681999Y-112204855D01*
X140728290Y-112257190D01*
X140738938Y-112326243D01*
X140710563Y-112390092D01*
X140682000Y-112414842D01*
X140596269Y-112468711D01*
X140596266Y-112468713D01*
X140468713Y-112596266D01*
X140372740Y-112749005D01*
X140313160Y-112919274D01*
X140313159Y-112919279D01*
X140292964Y-113098525D01*
X140292964Y-113098532D01*
X140313159Y-113277778D01*
X140313160Y-113277783D01*
X140372740Y-113448052D01*
X140440785Y-113556344D01*
X140468713Y-113600791D01*
X140596267Y-113728345D01*
X140719407Y-113805719D01*
X140749007Y-113824318D01*
X140832961Y-113853695D01*
X140889738Y-113894417D01*
X140909048Y-113929781D01*
X140938427Y-114013739D01*
X140938428Y-114013740D01*
X141034400Y-114166478D01*
X141161954Y-114294032D01*
X141314694Y-114390005D01*
X141484961Y-114449584D01*
X141484966Y-114449585D01*
X141664212Y-114469781D01*
X141664216Y-114469781D01*
X141664220Y-114469781D01*
X141843465Y-114449585D01*
X141843468Y-114449584D01*
X141843471Y-114449584D01*
X142013738Y-114390005D01*
X142166478Y-114294032D01*
X142294032Y-114166478D01*
X142390005Y-114013738D01*
X142449584Y-113843471D01*
X142451308Y-113828171D01*
X142469781Y-113664219D01*
X142469781Y-113664212D01*
X142449585Y-113484966D01*
X142449584Y-113484961D01*
X142402192Y-113349522D01*
X142390005Y-113314694D01*
X142294032Y-113161954D01*
X142166478Y-113034400D01*
X142111731Y-113000000D01*
X142013740Y-112938428D01*
X142013739Y-112938427D01*
X141929781Y-112909048D01*
X141873005Y-112868325D01*
X141853695Y-112832961D01*
X141824318Y-112749007D01*
X141795411Y-112703002D01*
X141728345Y-112596267D01*
X141600791Y-112468713D01*
X141472942Y-112388380D01*
X141426651Y-112336045D01*
X141416003Y-112266991D01*
X141444378Y-112203143D01*
X141472939Y-112178394D01*
X141558675Y-112124523D01*
X141686229Y-111996969D01*
X141782202Y-111844229D01*
X141841781Y-111673962D01*
X141861978Y-111494707D01*
X141841781Y-111315452D01*
X141782202Y-111145185D01*
X141702559Y-111018434D01*
X141697349Y-110999996D01*
X149441935Y-110999996D01*
X149441935Y-111000003D01*
X149462130Y-111179249D01*
X149462131Y-111179254D01*
X149521711Y-111349523D01*
X149603695Y-111479999D01*
X149617684Y-111502262D01*
X149745238Y-111629816D01*
X149815486Y-111673956D01*
X149881464Y-111715413D01*
X149897978Y-111725789D01*
X150068245Y-111785368D01*
X150068250Y-111785369D01*
X150247496Y-111805565D01*
X150247500Y-111805565D01*
X150247504Y-111805565D01*
X150426749Y-111785369D01*
X150426752Y-111785368D01*
X150426755Y-111785368D01*
X150597022Y-111725789D01*
X150749762Y-111629816D01*
X150877316Y-111502262D01*
X150973289Y-111349522D01*
X151032868Y-111179255D01*
X151036707Y-111145183D01*
X151053065Y-111000003D01*
X151053065Y-110999996D01*
X151032869Y-110820750D01*
X151032868Y-110820745D01*
X150992565Y-110705565D01*
X150973289Y-110650478D01*
X150877316Y-110497738D01*
X150749762Y-110370184D01*
X150597023Y-110274211D01*
X150426754Y-110214631D01*
X150426749Y-110214630D01*
X150247504Y-110194435D01*
X150247496Y-110194435D01*
X150068250Y-110214630D01*
X150068245Y-110214631D01*
X149897976Y-110274211D01*
X149745237Y-110370184D01*
X149617684Y-110497737D01*
X149521711Y-110650476D01*
X149462131Y-110820745D01*
X149462130Y-110820750D01*
X149441935Y-110999996D01*
X141697349Y-110999996D01*
X141683559Y-110951197D01*
X141702559Y-110886491D01*
X141725789Y-110849522D01*
X141751992Y-110774636D01*
X141792711Y-110717863D01*
X141857663Y-110692115D01*
X141882916Y-110692373D01*
X141999997Y-110705565D01*
X142000000Y-110705565D01*
X142000004Y-110705565D01*
X142179249Y-110685369D01*
X142179252Y-110685368D01*
X142179255Y-110685368D01*
X142349522Y-110625789D01*
X142502262Y-110529816D01*
X142629816Y-110402262D01*
X142725789Y-110249522D01*
X142785368Y-110079255D01*
X142805565Y-109900000D01*
X142795546Y-109811082D01*
X142785369Y-109720750D01*
X142785368Y-109720745D01*
X142771858Y-109682137D01*
X142725789Y-109550478D01*
X142629816Y-109397738D01*
X142502262Y-109270184D01*
X142465376Y-109247007D01*
X142349523Y-109174211D01*
X142179254Y-109114631D01*
X142179249Y-109114630D01*
X142000004Y-109094435D01*
X141999996Y-109094435D01*
X141820750Y-109114630D01*
X141820745Y-109114631D01*
X141650476Y-109174211D01*
X141497737Y-109270184D01*
X141370184Y-109397737D01*
X141274209Y-109550480D01*
X141248007Y-109625361D01*
X141207286Y-109682137D01*
X141142333Y-109707884D01*
X141117083Y-109707626D01*
X141000004Y-109694435D01*
X140999996Y-109694435D01*
X140820750Y-109714630D01*
X140820745Y-109714631D01*
X140650476Y-109774211D01*
X140497737Y-109870184D01*
X140370184Y-109997737D01*
X140274211Y-110150476D01*
X140214631Y-110320745D01*
X140214630Y-110320750D01*
X140194435Y-110499996D01*
X139131235Y-110499996D01*
X139129816Y-110497738D01*
X139002262Y-110370184D01*
X138849521Y-110274210D01*
X138729447Y-110232195D01*
X138679255Y-110214632D01*
X138679253Y-110214631D01*
X138679251Y-110214631D01*
X138676844Y-110214360D01*
X138675396Y-110213751D01*
X138672467Y-110213083D01*
X138672584Y-110212569D01*
X138612433Y-110187288D01*
X138603057Y-110178822D01*
X137424231Y-108999996D01*
X147194435Y-108999996D01*
X147194435Y-109000003D01*
X147214630Y-109179249D01*
X147214631Y-109179254D01*
X147274211Y-109349523D01*
X147331062Y-109440000D01*
X147370184Y-109502262D01*
X147497738Y-109629816D01*
X147581006Y-109682137D01*
X147642450Y-109720745D01*
X147650478Y-109725789D01*
X147788860Y-109774211D01*
X147820745Y-109785368D01*
X147820750Y-109785369D01*
X147999996Y-109805565D01*
X148000000Y-109805565D01*
X148000004Y-109805565D01*
X148179249Y-109785369D01*
X148179252Y-109785368D01*
X148179255Y-109785368D01*
X148349522Y-109725789D01*
X148502262Y-109629816D01*
X148629816Y-109502262D01*
X148725789Y-109349522D01*
X148785368Y-109179255D01*
X148785369Y-109179249D01*
X148805565Y-109000003D01*
X148805565Y-108999996D01*
X148785369Y-108820750D01*
X148785368Y-108820745D01*
X148725788Y-108650476D01*
X148629815Y-108497737D01*
X148502262Y-108370184D01*
X148349523Y-108274211D01*
X148179254Y-108214631D01*
X148179249Y-108214630D01*
X148000004Y-108194435D01*
X147999996Y-108194435D01*
X147820750Y-108214630D01*
X147820745Y-108214631D01*
X147650476Y-108274211D01*
X147497737Y-108370184D01*
X147370184Y-108497737D01*
X147274211Y-108650476D01*
X147214631Y-108820745D01*
X147214630Y-108820750D01*
X147194435Y-108999996D01*
X137424231Y-108999996D01*
X135924231Y-107499996D01*
X140694435Y-107499996D01*
X140694435Y-107500003D01*
X140714630Y-107679249D01*
X140714631Y-107679254D01*
X140774211Y-107849523D01*
X140870184Y-108002262D01*
X140997738Y-108129816D01*
X141088080Y-108186582D01*
X141132721Y-108214632D01*
X141150478Y-108225789D01*
X141255169Y-108262422D01*
X141320745Y-108285368D01*
X141320750Y-108285369D01*
X141499996Y-108305565D01*
X141500000Y-108305565D01*
X141500004Y-108305565D01*
X141679249Y-108285369D01*
X141679252Y-108285368D01*
X141679255Y-108285368D01*
X141849522Y-108225789D01*
X142002262Y-108129816D01*
X142129816Y-108002262D01*
X142225789Y-107849522D01*
X142285368Y-107679255D01*
X142291672Y-107623307D01*
X142305565Y-107500003D01*
X142305565Y-107499996D01*
X149694435Y-107499996D01*
X149694435Y-107500003D01*
X149714630Y-107679249D01*
X149714631Y-107679254D01*
X149774211Y-107849523D01*
X149870184Y-108002262D01*
X149997738Y-108129816D01*
X150088080Y-108186582D01*
X150132721Y-108214632D01*
X150150478Y-108225789D01*
X150255169Y-108262422D01*
X150320745Y-108285368D01*
X150320750Y-108285369D01*
X150499996Y-108305565D01*
X150500000Y-108305565D01*
X150500004Y-108305565D01*
X150679249Y-108285369D01*
X150679252Y-108285368D01*
X150679255Y-108285368D01*
X150849522Y-108225789D01*
X151002262Y-108129816D01*
X151129816Y-108002262D01*
X151225789Y-107849522D01*
X151285368Y-107679255D01*
X151291672Y-107623307D01*
X151305565Y-107500003D01*
X151305565Y-107499996D01*
X151285369Y-107320750D01*
X151285368Y-107320745D01*
X151225788Y-107150476D01*
X151129815Y-106997737D01*
X151002262Y-106870184D01*
X150849523Y-106774211D01*
X150679254Y-106714631D01*
X150679249Y-106714630D01*
X150500004Y-106694435D01*
X150499996Y-106694435D01*
X150320750Y-106714630D01*
X150320745Y-106714631D01*
X150150476Y-106774211D01*
X149997737Y-106870184D01*
X149870184Y-106997737D01*
X149774211Y-107150476D01*
X149714631Y-107320745D01*
X149714630Y-107320750D01*
X149694435Y-107499996D01*
X142305565Y-107499996D01*
X142285369Y-107320750D01*
X142285368Y-107320745D01*
X142225788Y-107150476D01*
X142129815Y-106997737D01*
X142002262Y-106870184D01*
X141849523Y-106774211D01*
X141679254Y-106714631D01*
X141679249Y-106714630D01*
X141500004Y-106694435D01*
X141499996Y-106694435D01*
X141320750Y-106714630D01*
X141320745Y-106714631D01*
X141150476Y-106774211D01*
X140997737Y-106870184D01*
X140870184Y-106997737D01*
X140774211Y-107150476D01*
X140714631Y-107320745D01*
X140714630Y-107320750D01*
X140694435Y-107499996D01*
X135924231Y-107499996D01*
X135307766Y-106883531D01*
X135274281Y-106822208D01*
X135275672Y-106763757D01*
X135288835Y-106714631D01*
X135310063Y-106635408D01*
X135330659Y-106400000D01*
X135310063Y-106164592D01*
X135248903Y-105936337D01*
X135149035Y-105722171D01*
X135013495Y-105528599D01*
X135013494Y-105528597D01*
X134846402Y-105361506D01*
X134846396Y-105361501D01*
X134660842Y-105231575D01*
X134617217Y-105176998D01*
X134610023Y-105107500D01*
X134641546Y-105045145D01*
X134660842Y-105028425D01*
X134683026Y-105012891D01*
X134846401Y-104898495D01*
X135013495Y-104731401D01*
X135149035Y-104537830D01*
X135248903Y-104323663D01*
X135310063Y-104095408D01*
X135330659Y-103860000D01*
X135310063Y-103624592D01*
X135248903Y-103396337D01*
X135149035Y-103182171D01*
X135013495Y-102988599D01*
X135013494Y-102988597D01*
X134846402Y-102821506D01*
X134846395Y-102821501D01*
X134652834Y-102685967D01*
X134652830Y-102685965D01*
X134652828Y-102685964D01*
X134438663Y-102586097D01*
X134438659Y-102586096D01*
X134438655Y-102586094D01*
X134210413Y-102524938D01*
X134210403Y-102524936D01*
X133975001Y-102504341D01*
X133974999Y-102504341D01*
X133739596Y-102524936D01*
X133739586Y-102524938D01*
X133511344Y-102586094D01*
X133511335Y-102586098D01*
X133297171Y-102685964D01*
X133297169Y-102685965D01*
X133103597Y-102821505D01*
X132936505Y-102988597D01*
X132800965Y-103182169D01*
X132800964Y-103182171D01*
X132736882Y-103319596D01*
X132690709Y-103372035D01*
X132623516Y-103391187D01*
X132556635Y-103370971D01*
X132511300Y-103317806D01*
X132500500Y-103267191D01*
X132500500Y-101624500D01*
X132520185Y-101557461D01*
X132572989Y-101511706D01*
X132624500Y-101500500D01*
X147865890Y-101500500D01*
X147865892Y-101500500D01*
X147993186Y-101466392D01*
X148107314Y-101400500D01*
X148200500Y-101307314D01*
X148266392Y-101193186D01*
X148300500Y-101065892D01*
X148300500Y-95874500D01*
X148320185Y-95807461D01*
X148372989Y-95761706D01*
X148424500Y-95750500D01*
X150875500Y-95750500D01*
X150942539Y-95770185D01*
G37*
%TD.AperFunction*%
%TA.AperFunction,Conductor*%
G36*
X142369181Y-122055627D02*
G01*
X142402666Y-122116950D01*
X142405500Y-122143308D01*
X142405500Y-123055341D01*
X142385815Y-123122380D01*
X142333011Y-123168135D01*
X142263853Y-123178079D01*
X142200297Y-123149054D01*
X142197963Y-123146979D01*
X142167748Y-123119435D01*
X142118722Y-123074742D01*
X142118715Y-123074738D01*
X142118713Y-123074736D01*
X141936813Y-122962108D01*
X141936807Y-122962106D01*
X141737297Y-122884815D01*
X141602395Y-122859597D01*
X141559795Y-122851634D01*
X141497514Y-122819965D01*
X141462241Y-122759653D01*
X141465175Y-122689845D01*
X141505384Y-122632705D01*
X141559795Y-122607856D01*
X141737163Y-122574700D01*
X141936585Y-122497444D01*
X141936589Y-122497442D01*
X142039911Y-122433466D01*
X142039911Y-122433465D01*
X141466446Y-121860000D01*
X141472661Y-121860000D01*
X141574394Y-121832741D01*
X141665606Y-121780080D01*
X141740080Y-121705606D01*
X141792741Y-121614394D01*
X141820000Y-121512661D01*
X141820000Y-121506446D01*
X142369181Y-122055627D01*
G37*
%TD.AperFunction*%
%TD*%
M02*
