M48
; DRILL file {KiCad 8.0.3-1.fc40} date 2024-06-24T14:15:43-0400
; FORMAT={-:-/ absolute / inch / decimal}
; #@! TF.CreationDate,2024-06-24T14:15:43-04:00
; #@! TF.GenerationSoftware,Kicad,Pcbnew,8.0.3-1.fc40
; #@! TF.FileFunction,Plated,1,4,PTH
FMAT,2
INCH
; #@! TA.AperFunction,Plated,PTH,ViaDrill
T1C0.0118
; #@! TA.AperFunction,Plated,PTH,ComponentDrill
T2C0.0315
; #@! TA.AperFunction,Plated,PTH,ComponentDrill
T3C0.0394
; #@! TA.AperFunction,Plated,PTH,ComponentDrill
T4C0.0504
%
G90
G05
T1
X5.315Y-5.9134
X5.3268Y-4.7874
X5.3478Y-4.7069
X5.374Y-4.7244
X5.3937Y-4.248
X5.4065Y-4.4616
X5.4094Y-5.4409
X5.4134Y-4.7047
X5.4173Y-5.5669
X5.4173Y-6.0157
X5.4331Y-4.5079
X5.4409Y-4.1535
X5.4488Y-5.1575
X5.4528Y-4.3701
X5.4528Y-4.4488
X5.4882Y-4.189
X5.4921Y-4.748
X5.4961Y-4.2677
X5.5118Y-5.9213
X5.5139Y-4.7108
X5.5246Y-5.4596
X5.5315Y-4.8425
X5.5315Y-5.5827
X5.5512Y-4.3504
X5.5512Y-4.7205
X5.5534Y-4.3896
X5.5551Y-4.4527
X5.5591Y-4.1654
X5.5709Y-4.2323
X5.5709Y-5.4331
X5.5773Y-4.475
X5.5817Y-4.9251
X5.5906Y-4.3268
X5.5906Y-4.9606
X5.6063Y-5.9291
X5.6142Y-6.0315
X5.622Y-5.7717
X5.622Y-5.8346
X5.6296Y-4.3268
X5.6427Y-4.7202
X5.6496Y-4.5472
X5.6693Y-4.4882
X5.6696Y-4.7365
X5.6742Y-4.9361
X5.6929Y-4.2126
X5.7283Y-4.9606
X5.7283Y-5.748
X5.7538Y-4.5718
X5.7677Y-4.4685
X5.7835Y-4.5079
X5.7835Y-4.5472
X5.8071Y-5.5906
X5.8268Y-4.2913
X5.8346Y-4.1654
X5.8451Y-3.9938
X5.8465Y-4.8789
X5.8504Y-5.2047
X5.8504Y-5.4803
X5.8661Y-4.9409
X5.8661Y-6.0394
X5.8819Y-5.8583
X5.8916Y-5.5964
X5.9153Y-4.3701
X5.9213Y-5.7795
X5.9252Y-4.2323
X5.931Y-4.5079
X5.9449Y-4.7244
X5.9449Y-4.9606
X5.9606Y-5.2677
X5.9646Y-5.6102
X5.9764Y-4.1654
X5.9764Y-4.4094
X5.9843Y-4.9055
X6.0039Y-4.0079
X6.0039Y-5.0787
X6.0039Y-5.3543
X6.0157Y-5.0079
X6.0433Y-4.685
X6.0433Y-5.1969
X6.063Y-5.5512
X6.1024Y-5.8071
X6.1614Y-4.685
X6.1614Y-4.9606
X6.1614Y-5.0
X6.1614Y-5.1378
X6.1614Y-5.2165
T2
X5.5677Y-4.7819
X5.5677Y-4.8819
X5.6677Y-4.7819
X5.6677Y-4.8819
X5.7677Y-4.7819
X5.7677Y-4.8819
T3
X5.2746Y-4.089
X5.2746Y-4.189
X5.2746Y-4.289
X5.2746Y-4.389
X5.2746Y-4.489
X5.2746Y-4.589
X5.2746Y-4.689
X5.2756Y-4.9591
X5.2756Y-5.0591
X5.2756Y-5.274
X5.2756Y-5.374
X5.2756Y-5.474
X5.2756Y-5.574
X5.4188Y-5.9213
X5.7146Y-5.9616
X5.8146Y-5.9616
X6.0965Y-5.313
X6.0965Y-5.413
X6.0965Y-5.624
X6.0965Y-5.724
X6.1024Y-4.7819
X6.1024Y-4.8819
T4
X5.3243Y-5.8268
X5.3243Y-6.0157
X5.5133Y-5.8268
X5.5133Y-6.0157
M30
