%TF.GenerationSoftware,KiCad,Pcbnew,8.0.3-1.fc40*%
%TF.CreationDate,2024-06-24T14:15:41-04:00*%
%TF.ProjectId,OS42Micro,4f533432-4d69-4637-926f-2e6b69636164,rev?*%
%TF.SameCoordinates,Original*%
%TF.FileFunction,Copper,L4,Bot*%
%TF.FilePolarity,Positive*%
%FSLAX46Y46*%
G04 Gerber Fmt 4.6, Leading zero omitted, Abs format (unit mm)*
G04 Created by KiCad (PCBNEW 8.0.3-1.fc40) date 2024-06-24 14:15:41*
%MOMM*%
%LPD*%
G01*
G04 APERTURE LIST*
G04 Aperture macros list*
%AMRoundRect*
0 Rectangle with rounded corners*
0 $1 Rounding radius*
0 $2 $3 $4 $5 $6 $7 $8 $9 X,Y pos of 4 corners*
0 Add a 4 corners polygon primitive as box body*
4,1,4,$2,$3,$4,$5,$6,$7,$8,$9,$2,$3,0*
0 Add four circle primitives for the rounded corners*
1,1,$1+$1,$2,$3*
1,1,$1+$1,$4,$5*
1,1,$1+$1,$6,$7*
1,1,$1+$1,$8,$9*
0 Add four rect primitives between the rounded corners*
20,1,$1+$1,$2,$3,$4,$5,0*
20,1,$1+$1,$4,$5,$6,$7,0*
20,1,$1+$1,$6,$7,$8,$9,0*
20,1,$1+$1,$8,$9,$2,$3,0*%
G04 Aperture macros list end*
%TA.AperFunction,ComponentPad*%
%ADD10R,1.700000X1.700000*%
%TD*%
%TA.AperFunction,ComponentPad*%
%ADD11O,1.700000X1.700000*%
%TD*%
%TA.AperFunction,ComponentPad*%
%ADD12C,1.508000*%
%TD*%
%TA.AperFunction,ComponentPad*%
%ADD13C,1.920000*%
%TD*%
%TA.AperFunction,SMDPad,CuDef*%
%ADD14RoundRect,0.250000X0.337500X0.475000X-0.337500X0.475000X-0.337500X-0.475000X0.337500X-0.475000X0*%
%TD*%
%TA.AperFunction,SMDPad,CuDef*%
%ADD15RoundRect,0.250000X-0.475000X0.337500X-0.475000X-0.337500X0.475000X-0.337500X0.475000X0.337500X0*%
%TD*%
%TA.AperFunction,SMDPad,CuDef*%
%ADD16RoundRect,0.250000X0.625000X-0.400000X0.625000X0.400000X-0.625000X0.400000X-0.625000X-0.400000X0*%
%TD*%
%TA.AperFunction,SMDPad,CuDef*%
%ADD17RoundRect,0.250001X0.624999X-0.462499X0.624999X0.462499X-0.624999X0.462499X-0.624999X-0.462499X0*%
%TD*%
%TA.AperFunction,SMDPad,CuDef*%
%ADD18RoundRect,0.097900X-0.887100X-0.347100X0.887100X-0.347100X0.887100X0.347100X-0.887100X0.347100X0*%
%TD*%
%TA.AperFunction,SMDPad,CuDef*%
%ADD19RoundRect,0.788000X-0.197000X-0.807000X0.197000X-0.807000X0.197000X0.807000X-0.197000X0.807000X0*%
%TD*%
%TA.AperFunction,SMDPad,CuDef*%
%ADD20RoundRect,0.249999X1.075001X-0.450001X1.075001X0.450001X-1.075001X0.450001X-1.075001X-0.450001X0*%
%TD*%
%TA.AperFunction,ComponentPad*%
%ADD21C,1.308000*%
%TD*%
%TA.AperFunction,SMDPad,CuDef*%
%ADD22RoundRect,0.068750X-0.206250X0.666250X-0.206250X-0.666250X0.206250X-0.666250X0.206250X0.666250X0*%
%TD*%
%TA.AperFunction,SMDPad,CuDef*%
%ADD23RoundRect,0.068750X-0.666250X0.206250X-0.666250X-0.206250X0.666250X-0.206250X0.666250X0.206250X0*%
%TD*%
%TA.AperFunction,SMDPad,CuDef*%
%ADD24RoundRect,0.249999X-1.075001X0.450001X-1.075001X-0.450001X1.075001X-0.450001X1.075001X0.450001X0*%
%TD*%
%TA.AperFunction,ViaPad*%
%ADD25C,0.600000*%
%TD*%
%TA.AperFunction,Conductor*%
%ADD26C,0.200000*%
%TD*%
G04 APERTURE END LIST*
D10*
%TO.P,RST1,1,Pin_1*%
%TO.N,RESET*%
X134000000Y-125960000D03*
D11*
%TO.P,RST1,2,Pin_2*%
%TO.N,GND*%
X134000000Y-128500000D03*
%TD*%
D10*
%TO.P,PO1,1,Pin_1*%
%TO.N,VCC*%
X154850000Y-142850000D03*
D11*
%TO.P,PO1,2,Pin_2*%
%TO.N,GND*%
X154850000Y-145390000D03*
%TD*%
D10*
%TO.P,GF1,1,Pin_1*%
%TO.N,GPSFREEZE_1*%
X155000000Y-121460000D03*
D11*
%TO.P,GF1,2,Pin_2*%
%TO.N,GND*%
X155000000Y-124000000D03*
%TD*%
D10*
%TO.P,PWR1,1,Pin_1*%
%TO.N,PWRIN_VCC*%
X145150000Y-151425000D03*
D11*
%TO.P,PWR1,2,Pin_2*%
%TO.N,GND*%
X147690000Y-151425000D03*
%TD*%
D10*
%TO.P,GPIO1,1,Pin_1*%
%TO.N,A4*%
X133975000Y-119100000D03*
D11*
%TO.P,GPIO1,2,Pin_2*%
%TO.N,A5*%
X133975000Y-116560000D03*
%TO.P,GPIO1,3,Pin_3*%
%TO.N,A3*%
X133975000Y-114020000D03*
%TO.P,GPIO1,4,Pin_4*%
%TO.N,D4*%
X133975000Y-111480000D03*
%TO.P,GPIO1,5,Pin_5*%
%TO.N,GND*%
X133975000Y-108940000D03*
%TO.P,GPIO1,6,Pin_6*%
%TO.N,D1*%
X133975000Y-106400000D03*
%TO.P,GPIO1,7,Pin_7*%
%TO.N,D0*%
X133975000Y-103860000D03*
%TD*%
D12*
%TO.P,J5,1*%
%TO.N,Net-(U2-ANT)*%
X137637500Y-150400000D03*
D13*
%TO.P,J5,G1*%
%TO.N,GND*%
X135237500Y-148000000D03*
%TO.P,J5,G2*%
X135237500Y-152800000D03*
%TO.P,J5,G3*%
X140037500Y-152800000D03*
%TO.P,J5,G4*%
X140037500Y-148000000D03*
%TD*%
D10*
%TO.P,PO2,1,Pin_1*%
%TO.N,VCC*%
X154850000Y-134950000D03*
D11*
%TO.P,PO2,2,Pin_2*%
%TO.N,GND*%
X154850000Y-137490000D03*
%TD*%
D10*
%TO.P,UART1,1,Pin_1*%
%TO.N,PWRIN_VCC*%
X134000000Y-133960000D03*
D11*
%TO.P,UART1,2,Pin_2*%
%TO.N,RXD*%
X134000000Y-136500000D03*
%TO.P,UART1,3,Pin_3*%
%TO.N,TXD*%
X134000000Y-139040000D03*
%TO.P,UART1,4,Pin_4*%
%TO.N,GND*%
X134000000Y-141580000D03*
%TD*%
D14*
%TO.P,C7,1*%
%TO.N,VCC_PROG*%
X145787500Y-105350000D03*
%TO.P,C7,2*%
%TO.N,GND*%
X143712500Y-105350000D03*
%TD*%
D15*
%TO.P,C2,1*%
%TO.N,VCC*%
X141500000Y-134962500D03*
%TO.P,C2,2*%
%TO.N,GND*%
X141500000Y-137037500D03*
%TD*%
D16*
%TO.P,R4,1*%
%TO.N,VCC*%
X137400000Y-129100000D03*
%TO.P,R4,2*%
%TO.N,RESET*%
X137400000Y-126000000D03*
%TD*%
D15*
%TO.P,C6,1*%
%TO.N,Net-(U4-AREF)*%
X151550000Y-113662500D03*
%TO.P,C6,2*%
%TO.N,GND*%
X151550000Y-115737500D03*
%TD*%
D17*
%TO.P,D1,1,K*%
%TO.N,VCC_PROG*%
X151800000Y-110287500D03*
%TO.P,D1,2,A*%
%TO.N,VCC*%
X151800000Y-107312500D03*
%TD*%
D18*
%TO.P,U3,1,VIN*%
%TO.N,PWRIN_VCC*%
X144975000Y-139800000D03*
%TO.P,U3,2,GND_(TAB)*%
%TO.N,GND*%
X144975000Y-137500000D03*
%TO.P,U3,3,VOUT*%
%TO.N,VCC*%
X144975000Y-135200000D03*
D19*
%TO.P,U3,4,GND_(TAB)_2*%
%TO.N,GND*%
X151025000Y-137500000D03*
%TD*%
D20*
%TO.P,R1,1*%
%TO.N,BATTREAD*%
X141500000Y-132300000D03*
%TO.P,R1,2*%
%TO.N,PWRIN_VCC*%
X141500000Y-127500000D03*
%TD*%
D21*
%TO.P,U5,GND,GND*%
%TO.N,GND*%
X141420000Y-121460000D03*
%TO.P,U5,MISO,MISO*%
%TO.N,MISO*%
X146500000Y-124000000D03*
%TO.P,U5,MOSI,MOSI*%
%TO.N,MOSI*%
X143960000Y-121460000D03*
%TO.P,U5,RST,RST*%
%TO.N,RESET*%
X141420000Y-124000000D03*
%TO.P,U5,SCK,SCK*%
%TO.N,SCK*%
X143960000Y-124000000D03*
%TO.P,U5,VCC,VCC*%
%TO.N,VCC_PROG*%
X146500000Y-121460000D03*
%TD*%
D14*
%TO.P,C4,1*%
%TO.N,GND*%
X152087500Y-125750000D03*
%TO.P,C4,2*%
%TO.N,VCC*%
X150012500Y-125750000D03*
%TD*%
D22*
%TO.P,U4,1,PD3*%
%TO.N,DIO1*%
X141200000Y-108830000D03*
%TO.P,U4,2,PD4*%
%TO.N,D4*%
X142000000Y-108830000D03*
%TO.P,U4,3,GND*%
%TO.N,GND*%
X142800000Y-108830000D03*
%TO.P,U4,4,VCC*%
%TO.N,VCC_PROG*%
X143600000Y-108830000D03*
%TO.P,U4,5,GND*%
%TO.N,GND*%
X144400000Y-108830000D03*
%TO.P,U4,6,VCC*%
%TO.N,VCC_PROG*%
X145200000Y-108830000D03*
%TO.P,U4,7,PB6*%
%TO.N,unconnected-(U4-PB6-Pad7)*%
X146000000Y-108830000D03*
%TO.P,U4,8,PB7*%
%TO.N,unconnected-(U4-PB7-Pad8)*%
X146800000Y-108830000D03*
D23*
%TO.P,U4,9,PD5*%
%TO.N,DIO2*%
X148170000Y-110200000D03*
%TO.P,U4,10,PD6*%
%TO.N,Net-(U4-PD6)*%
X148170000Y-111000000D03*
%TO.P,U4,11,PD7*%
%TO.N,RXD*%
X148170000Y-111800000D03*
%TO.P,U4,12,PB0*%
%TO.N,TXD*%
X148170000Y-112600000D03*
%TO.P,U4,13,PB1*%
%TO.N,RESET_TX*%
X148170000Y-113400000D03*
%TO.P,U4,14,PB2*%
%TO.N,NSS*%
X148170000Y-114200000D03*
%TO.P,U4,15,PB3*%
%TO.N,MOSI*%
X148170000Y-115000000D03*
%TO.P,U4,16,PB4*%
%TO.N,MISO*%
X148170000Y-115800000D03*
D22*
%TO.P,U4,17,PB5*%
%TO.N,SCK*%
X146800000Y-117170000D03*
%TO.P,U4,18,AVCC*%
%TO.N,VCC_PROG*%
X146000000Y-117170000D03*
%TO.P,U4,19,ADC6*%
%TO.N,unconnected-(U4-ADC6-Pad19)*%
X145200000Y-117170000D03*
%TO.P,U4,20,AREF*%
%TO.N,Net-(U4-AREF)*%
X144400000Y-117170000D03*
%TO.P,U4,21,GND*%
%TO.N,GND*%
X143600000Y-117170000D03*
%TO.P,U4,22,ADC7*%
%TO.N,unconnected-(U4-ADC7-Pad22)*%
X142800000Y-117170000D03*
%TO.P,U4,23,PC0*%
%TO.N,BATTREAD*%
X142000000Y-117170000D03*
%TO.P,U4,24,PC1*%
%TO.N,unconnected-(U4-PC1-Pad24)*%
X141200000Y-117170000D03*
D23*
%TO.P,U4,25,PC2*%
%TO.N,unconnected-(U4-PC2-Pad25)*%
X139830000Y-115800000D03*
%TO.P,U4,26,PC3*%
%TO.N,A3*%
X139830000Y-115000000D03*
%TO.P,U4,27,PC4*%
%TO.N,A4*%
X139830000Y-114200000D03*
%TO.P,U4,28,PC5*%
%TO.N,A5*%
X139830000Y-113400000D03*
%TO.P,U4,29,PC6/~{RESET}*%
%TO.N,RESET*%
X139830000Y-112600000D03*
%TO.P,U4,30,PD0*%
%TO.N,D0*%
X139830000Y-111800000D03*
%TO.P,U4,31,PD1*%
%TO.N,D1*%
X139830000Y-111000000D03*
%TO.P,U4,32,PD2*%
%TO.N,DIO0*%
X139830000Y-110200000D03*
%TD*%
D14*
%TO.P,C5,1*%
%TO.N,GND*%
X147737500Y-147450000D03*
%TO.P,C5,2*%
%TO.N,VCC*%
X145662500Y-147450000D03*
%TD*%
%TO.P,C1,1*%
%TO.N,PWRIN_VCC*%
X142500000Y-140000000D03*
%TO.P,C1,2*%
%TO.N,GND*%
X140425000Y-140000000D03*
%TD*%
D24*
%TO.P,R2,1*%
%TO.N,GND*%
X145400000Y-127500000D03*
%TO.P,R2,2*%
%TO.N,BATTREAD*%
X145400000Y-132300000D03*
%TD*%
D14*
%TO.P,C3,1*%
%TO.N,GND*%
X152087500Y-123500000D03*
%TO.P,C3,2*%
%TO.N,VCC*%
X150012500Y-123500000D03*
%TD*%
D25*
%TO.N,GND*%
X142400000Y-150600000D03*
X137000000Y-107900000D03*
X141500000Y-138000000D03*
X148600000Y-132200000D03*
X142991263Y-109900001D03*
X148600000Y-139200000D03*
X142600000Y-153200000D03*
X141200000Y-105800000D03*
X144000000Y-114000000D03*
X137600000Y-152800000D03*
X152800000Y-127200000D03*
X140325735Y-138674265D03*
X149400000Y-148800000D03*
X152500000Y-129000000D03*
X151800000Y-105800000D03*
X155000000Y-147500000D03*
X140053554Y-119653554D03*
X139400000Y-106400000D03*
X156500000Y-126000000D03*
X144600000Y-107000000D03*
X137500000Y-119500000D03*
X152000000Y-124600000D03*
X141774000Y-125098365D03*
X137600000Y-141400000D03*
X135000000Y-150200000D03*
X156500000Y-119000000D03*
X149000000Y-153400000D03*
X153500000Y-119000000D03*
X140500000Y-141800000D03*
X148200000Y-105800000D03*
X135300000Y-121600000D03*
X156500000Y-132500000D03*
X142800000Y-148200000D03*
X151800000Y-112000000D03*
X152500000Y-101800000D03*
X137400000Y-138200000D03*
X152500000Y-136000000D03*
X150400000Y-146800000D03*
X138200000Y-105500000D03*
X142800000Y-146600000D03*
X154000000Y-141000000D03*
X153500000Y-132000000D03*
X156500000Y-130500000D03*
X156500000Y-127000000D03*
X148465641Y-101443761D03*
X151400000Y-133800000D03*
X143500000Y-115500000D03*
X140000000Y-150400000D03*
X139600000Y-108400000D03*
%TO.N,VCC*%
X149000000Y-125500000D03*
X145500000Y-146000000D03*
X150500000Y-107500000D03*
X151000000Y-126000000D03*
X148500000Y-123925000D03*
X151000000Y-120000000D03*
%TO.N,Net-(U4-AREF)*%
X150647500Y-114500000D03*
X143323340Y-119893249D03*
%TO.N,VCC_PROG*%
X148000000Y-109000000D03*
X146146000Y-116124265D03*
%TO.N,Net-(D2-A)*%
X144008042Y-120306997D03*
X140500000Y-123000000D03*
%TO.N,RXD*%
X139500000Y-120600000D03*
X141098529Y-113098529D03*
%TO.N,TXD*%
X141000000Y-119900000D03*
X141664216Y-113664216D03*
%TO.N,RESET*%
X138500000Y-113000000D03*
X136500000Y-120000000D03*
%TO.N,A4*%
X138000000Y-114500000D03*
%TO.N,A5*%
X137325735Y-113325735D03*
%TO.N,D4*%
X142000000Y-109900000D03*
%TO.N,D1*%
X138500000Y-111000000D03*
%TO.N,BATTREAD*%
X135834358Y-119556239D03*
X138400000Y-131000000D03*
%TO.N,NSS*%
X146900000Y-114500000D03*
X144124265Y-125375735D03*
%TO.N,Net-(U4-PD6)*%
X141056413Y-111494707D03*
%TO.N,MOSI*%
X146900000Y-115500000D03*
%TO.N,SCK*%
X145500000Y-126000000D03*
%TO.N,RESET_TX*%
X142000000Y-126000000D03*
X146500000Y-113500000D03*
%TO.N,DIO2*%
X150247500Y-111000000D03*
X151500000Y-142500000D03*
%TO.N,DIO1*%
X149647500Y-142147500D03*
X141500000Y-107500000D03*
%TO.N,DIO0*%
X141000000Y-110500000D03*
X147500000Y-142000000D03*
%TD*%
D26*
%TO.N,PWRIN_VCC*%
X144975000Y-139800000D02*
X144530000Y-140245000D01*
X144975000Y-139800000D02*
X142700000Y-139800000D01*
X144530000Y-140245000D02*
X144530000Y-150805000D01*
X141500000Y-127500000D02*
X137190256Y-127500000D01*
X142700000Y-139800000D02*
X142500000Y-140000000D01*
X136460000Y-133960000D02*
X136000000Y-133960000D01*
X136000000Y-133960000D02*
X134000000Y-133960000D01*
X136000000Y-128690256D02*
X136000000Y-133960000D01*
X142500000Y-140000000D02*
X136460000Y-133960000D01*
X137190256Y-127500000D02*
X136000000Y-128690256D01*
X144530000Y-150805000D02*
X145150000Y-151425000D01*
%TO.N,GND*%
X142401635Y-125098365D02*
X142700000Y-124800000D01*
X151062500Y-124525000D02*
X152087500Y-123500000D01*
X135580000Y-140000000D02*
X134000000Y-141580000D01*
X140425000Y-140000000D02*
X135580000Y-140000000D01*
X152000000Y-137500000D02*
X152010000Y-137490000D01*
X144600000Y-107000000D02*
X144600000Y-106700000D01*
X142800000Y-109708738D02*
X142991263Y-109900001D01*
X144400000Y-106750000D02*
X144400000Y-106500000D01*
X151550000Y-115737500D02*
X152087500Y-116275000D01*
X145400000Y-127500000D02*
X148375000Y-124525000D01*
X140425000Y-140000000D02*
X140425000Y-138773530D01*
X143600000Y-117170000D02*
X143600000Y-117905000D01*
X145400000Y-127500000D02*
X142700000Y-124800000D01*
X144400000Y-106500000D02*
X144400000Y-106037500D01*
X144600000Y-106700000D02*
X144400000Y-106500000D01*
X147737500Y-151377500D02*
X147690000Y-151425000D01*
X143500000Y-115500000D02*
X143500000Y-117070000D01*
X142374000Y-122414000D02*
X141420000Y-121460000D01*
X143500000Y-117070000D02*
X143600000Y-117170000D01*
X152000000Y-125662500D02*
X152087500Y-125750000D01*
X152000000Y-124600000D02*
X152000000Y-125662500D01*
X147737500Y-147450000D02*
X152790000Y-147450000D01*
X141774000Y-125098365D02*
X142401635Y-125098365D01*
X144512500Y-137037500D02*
X144975000Y-137500000D01*
X142205000Y-119300000D02*
X140407108Y-119300000D01*
X147737500Y-147450000D02*
X147737500Y-151377500D01*
X141500000Y-138000000D02*
X141500000Y-137037500D01*
X151025000Y-137500000D02*
X152500000Y-136025000D01*
X142800000Y-108830000D02*
X142800000Y-109708738D01*
X152087500Y-125750000D02*
X152087500Y-126487500D01*
X144145000Y-106750000D02*
X144400000Y-106750000D01*
X152087500Y-126487500D02*
X152800000Y-127200000D01*
X144400000Y-108830000D02*
X144400000Y-106750000D01*
X142800000Y-108830000D02*
X142800000Y-108095000D01*
X152500000Y-136025000D02*
X152500000Y-136000000D01*
X141500000Y-137037500D02*
X144512500Y-137037500D01*
X151000000Y-124525000D02*
X151062500Y-124525000D01*
X152790000Y-147450000D02*
X154850000Y-145390000D01*
X140425000Y-138773530D02*
X140325735Y-138674265D01*
X152087500Y-123500000D02*
X154500000Y-123500000D01*
X142800000Y-108095000D02*
X144145000Y-106750000D01*
X152010000Y-137490000D02*
X154850000Y-137490000D01*
X142700000Y-124800000D02*
X142374000Y-124474000D01*
X140407108Y-119300000D02*
X140053554Y-119653554D01*
X144975000Y-137500000D02*
X151025000Y-137500000D01*
X143600000Y-117905000D02*
X142205000Y-119300000D01*
X148375000Y-124525000D02*
X151000000Y-124525000D01*
X151000000Y-124525000D02*
X151000000Y-124662500D01*
X154500000Y-123500000D02*
X155000000Y-124000000D01*
X144400000Y-106037500D02*
X143712500Y-105350000D01*
X151000000Y-124662500D02*
X152087500Y-125750000D01*
X152087500Y-116275000D02*
X152087500Y-123500000D01*
X142374000Y-124474000D02*
X142374000Y-122414000D01*
X151025000Y-137500000D02*
X152000000Y-137500000D01*
%TO.N,VCC*%
X154850000Y-134950000D02*
X154550000Y-134950000D01*
X143962500Y-134962500D02*
X141500000Y-134962500D01*
X151000000Y-120000000D02*
X151000000Y-121000000D01*
X154550000Y-134950000D02*
X154300000Y-135200000D01*
X156900000Y-140800000D02*
X156900000Y-137000000D01*
X151000000Y-126000000D02*
X150262500Y-126000000D01*
X141462500Y-134962500D02*
X137400000Y-130900000D01*
X150262500Y-126000000D02*
X150012500Y-125750000D01*
X150012500Y-123500000D02*
X148925000Y-123500000D01*
X145500000Y-146000000D02*
X145500000Y-147287500D01*
X151000000Y-121000000D02*
X150012500Y-121987500D01*
X150012500Y-121987500D02*
X150012500Y-123500000D01*
X144975000Y-135200000D02*
X144200000Y-135200000D01*
X156900000Y-137000000D02*
X154850000Y-134950000D01*
X154850000Y-142850000D02*
X156900000Y-140800000D01*
X145500000Y-147287500D02*
X145662500Y-147450000D01*
X137400000Y-130900000D02*
X137400000Y-129100000D01*
X154300000Y-135200000D02*
X144975000Y-135200000D01*
X149762500Y-125500000D02*
X150012500Y-125750000D01*
X150500000Y-107500000D02*
X151612500Y-107500000D01*
X144200000Y-135200000D02*
X143962500Y-134962500D01*
X141500000Y-134962500D02*
X141462500Y-134962500D01*
X149000000Y-125500000D02*
X149762500Y-125500000D01*
X151612500Y-107500000D02*
X151800000Y-107312500D01*
X148925000Y-123500000D02*
X148500000Y-123925000D01*
%TO.N,Net-(U4-AREF)*%
X151550000Y-113662500D02*
X151485000Y-113662500D01*
X151485000Y-113662500D02*
X150647500Y-114500000D01*
X143323340Y-119893249D02*
X144400000Y-118816589D01*
X144400000Y-118816589D02*
X144400000Y-117170000D01*
%TO.N,VCC_PROG*%
X145200000Y-105937500D02*
X145200000Y-108830000D01*
X146500000Y-121460000D02*
X146500000Y-119700000D01*
X148468750Y-108031250D02*
X145787500Y-105350000D01*
X146500000Y-119700000D02*
X146000000Y-119200000D01*
X146146000Y-117024000D02*
X146000000Y-117170000D01*
X146000000Y-119200000D02*
X146000000Y-117170000D01*
X148000000Y-108500000D02*
X148000000Y-109000000D01*
X143600000Y-109850000D02*
X143600000Y-108830000D01*
X146146000Y-116124265D02*
X146146000Y-117024000D01*
X145200000Y-108830000D02*
X145200000Y-109565000D01*
X151800000Y-110287500D02*
X150725000Y-110287500D01*
X150725000Y-110287500D02*
X148468750Y-108031250D01*
X145787500Y-105350000D02*
X145200000Y-105937500D01*
X143615000Y-109865000D02*
X143600000Y-109850000D01*
X145200000Y-109565000D02*
X144900000Y-109865000D01*
X144900000Y-109865000D02*
X143615000Y-109865000D01*
X148468750Y-108031250D02*
X148000000Y-108500000D01*
%TO.N,Net-(D2-A)*%
X140466000Y-121034000D02*
X141000000Y-120500000D01*
X140466000Y-122966000D02*
X140466000Y-121034000D01*
X140500000Y-123000000D02*
X140466000Y-122966000D01*
X143815039Y-120500000D02*
X144008042Y-120306997D01*
X141000000Y-120500000D02*
X143815039Y-120500000D01*
%TO.N,RXD*%
X142397058Y-111800000D02*
X148170000Y-111800000D01*
X141098529Y-113098529D02*
X142397058Y-111800000D01*
%TO.N,TXD*%
X141664216Y-113664216D02*
X142728432Y-112600000D01*
X142728432Y-112600000D02*
X148170000Y-112600000D01*
%TO.N,RESET*%
X137400000Y-126000000D02*
X136500000Y-126000000D01*
X139420000Y-126000000D02*
X141420000Y-124000000D01*
X141420000Y-124000000D02*
X140495105Y-124000000D01*
X138900000Y-112600000D02*
X138500000Y-113000000D01*
X139830000Y-112600000D02*
X138900000Y-112600000D01*
X136500000Y-126000000D02*
X136460000Y-125960000D01*
X137400000Y-126000000D02*
X139420000Y-126000000D01*
X140495105Y-124000000D02*
X136500000Y-120004895D01*
X136500000Y-120004895D02*
X136500000Y-120000000D01*
X136460000Y-125960000D02*
X134000000Y-125960000D01*
%TO.N,A4*%
X138300000Y-114200000D02*
X138000000Y-114500000D01*
X139830000Y-114200000D02*
X138300000Y-114200000D01*
%TO.N,A5*%
X139630000Y-113600000D02*
X137600000Y-113600000D01*
X139830000Y-113400000D02*
X139630000Y-113600000D01*
X137600000Y-113600000D02*
X137325735Y-113325735D01*
%TO.N,A3*%
X133975000Y-114020000D02*
X135055000Y-115100000D01*
X135055000Y-115100000D02*
X139730000Y-115100000D01*
X139730000Y-115100000D02*
X139830000Y-115000000D01*
%TO.N,D4*%
X142000000Y-108830000D02*
X142000000Y-109900000D01*
%TO.N,D1*%
X139830000Y-111000000D02*
X138500000Y-111000000D01*
%TO.N,D0*%
X137900000Y-111400000D02*
X138300000Y-111800000D01*
X133975000Y-103860000D02*
X137900000Y-107785000D01*
X137900000Y-107785000D02*
X137900000Y-111400000D01*
X138300000Y-111800000D02*
X139830000Y-111800000D01*
%TO.N,BATTREAD*%
X141500000Y-132300000D02*
X139700000Y-132300000D01*
X135834358Y-119556239D02*
X136490597Y-118900000D01*
X145400000Y-132300000D02*
X141500000Y-132300000D01*
X142000000Y-117905000D02*
X142000000Y-117170000D01*
X139700000Y-132300000D02*
X138400000Y-131000000D01*
X136490597Y-118900000D02*
X141005000Y-118900000D01*
X141005000Y-118900000D02*
X142000000Y-117905000D01*
%TO.N,NSS*%
X148170000Y-114200000D02*
X147200000Y-114200000D01*
X147200000Y-114200000D02*
X146900000Y-114500000D01*
%TO.N,Net-(U4-PD6)*%
X141551120Y-111000000D02*
X148170000Y-111000000D01*
X141056413Y-111494707D02*
X141551120Y-111000000D01*
%TO.N,MISO*%
X148170000Y-122330000D02*
X146500000Y-124000000D01*
X148170000Y-115800000D02*
X148170000Y-122330000D01*
%TO.N,MOSI*%
X147400000Y-115000000D02*
X146900000Y-115500000D01*
X148170000Y-115000000D02*
X147400000Y-115000000D01*
%TO.N,SCK*%
X146895160Y-122414000D02*
X147454000Y-121855160D01*
X147454000Y-117824000D02*
X146800000Y-117170000D01*
X145546000Y-122414000D02*
X146895160Y-122414000D01*
X143960000Y-124000000D02*
X145546000Y-122414000D01*
X147454000Y-121855160D02*
X147454000Y-117824000D01*
%TO.N,RESET_TX*%
X146600000Y-113400000D02*
X146500000Y-113500000D01*
X148170000Y-113400000D02*
X146600000Y-113400000D01*
%TO.N,DIO2*%
X150247500Y-111000000D02*
X149447500Y-110200000D01*
X149447500Y-110200000D02*
X148170000Y-110200000D01*
%TO.N,DIO1*%
X141200000Y-107800000D02*
X141200000Y-108830000D01*
X141500000Y-107500000D02*
X141200000Y-107800000D01*
%TO.N,DIO0*%
X140700000Y-110200000D02*
X141000000Y-110500000D01*
X139830000Y-110200000D02*
X140700000Y-110200000D01*
%TD*%
%TA.AperFunction,Conductor*%
%TO.N,GND*%
G36*
X136226942Y-134580185D02*
G01*
X136247584Y-134596819D01*
X140214084Y-138563319D01*
X140247569Y-138624642D01*
X140242585Y-138694334D01*
X140200713Y-138750267D01*
X140135249Y-138774684D01*
X140126404Y-138775000D01*
X140037529Y-138775000D01*
X140037512Y-138775001D01*
X139934802Y-138785494D01*
X139768380Y-138840641D01*
X139768375Y-138840643D01*
X139619154Y-138932684D01*
X139495184Y-139056654D01*
X139403143Y-139205875D01*
X139403141Y-139205880D01*
X139347994Y-139372302D01*
X139347993Y-139372309D01*
X139337500Y-139475013D01*
X139337500Y-139750000D01*
X140551000Y-139750000D01*
X140618039Y-139769685D01*
X140663794Y-139822489D01*
X140675000Y-139874000D01*
X140675000Y-141224999D01*
X140812472Y-141224999D01*
X140812486Y-141224998D01*
X140915197Y-141214505D01*
X141081619Y-141159358D01*
X141081624Y-141159356D01*
X141230845Y-141067315D01*
X141354818Y-140943342D01*
X141356665Y-140940348D01*
X141358469Y-140938724D01*
X141359298Y-140937677D01*
X141359476Y-140937818D01*
X141408610Y-140893621D01*
X141477573Y-140882396D01*
X141541656Y-140910236D01*
X141567743Y-140940341D01*
X141569788Y-140943656D01*
X141693844Y-141067712D01*
X141843166Y-141159814D01*
X142009703Y-141214999D01*
X142112491Y-141225500D01*
X142887508Y-141225499D01*
X142887516Y-141225498D01*
X142887519Y-141225498D01*
X142943802Y-141219748D01*
X142990297Y-141214999D01*
X143156834Y-141159814D01*
X143306156Y-141067712D01*
X143430212Y-140943656D01*
X143522314Y-140794334D01*
X143553844Y-140699182D01*
X143593615Y-140641739D01*
X143658131Y-140614916D01*
X143726907Y-140627231D01*
X143747035Y-140639812D01*
X143786118Y-140669802D01*
X143852955Y-140697486D01*
X143907355Y-140741325D01*
X143929421Y-140807619D01*
X143929500Y-140812046D01*
X143929500Y-150193486D01*
X143909815Y-150260525D01*
X143904767Y-150267797D01*
X143856204Y-150332668D01*
X143856202Y-150332671D01*
X143805908Y-150467517D01*
X143799501Y-150527116D01*
X143799500Y-150527135D01*
X143799500Y-152322870D01*
X143799501Y-152322876D01*
X143805908Y-152382483D01*
X143856202Y-152517328D01*
X143856206Y-152517335D01*
X143942452Y-152632544D01*
X143942455Y-152632547D01*
X144057664Y-152718793D01*
X144057671Y-152718797D01*
X144192517Y-152769091D01*
X144192516Y-152769091D01*
X144199444Y-152769835D01*
X144252127Y-152775500D01*
X146047872Y-152775499D01*
X146107483Y-152769091D01*
X146242331Y-152718796D01*
X146357546Y-152632546D01*
X146443796Y-152517331D01*
X146493002Y-152385401D01*
X146534872Y-152329468D01*
X146600337Y-152305050D01*
X146668610Y-152319901D01*
X146696865Y-152341053D01*
X146818917Y-152463105D01*
X147012421Y-152598600D01*
X147226507Y-152698429D01*
X147226516Y-152698433D01*
X147440000Y-152755634D01*
X147440000Y-151858012D01*
X147497007Y-151890925D01*
X147624174Y-151925000D01*
X147755826Y-151925000D01*
X147882993Y-151890925D01*
X147940000Y-151858012D01*
X147940000Y-152755633D01*
X148153483Y-152698433D01*
X148153492Y-152698429D01*
X148367578Y-152598600D01*
X148561082Y-152463105D01*
X148728105Y-152296082D01*
X148863600Y-152102578D01*
X148963429Y-151888492D01*
X148963432Y-151888486D01*
X149020636Y-151675000D01*
X148123012Y-151675000D01*
X148155925Y-151617993D01*
X148190000Y-151490826D01*
X148190000Y-151359174D01*
X148155925Y-151232007D01*
X148123012Y-151175000D01*
X149020636Y-151175000D01*
X149020635Y-151174999D01*
X148963432Y-150961513D01*
X148963429Y-150961507D01*
X148863600Y-150747422D01*
X148863599Y-150747420D01*
X148728113Y-150553926D01*
X148728108Y-150553920D01*
X148561082Y-150386894D01*
X148367578Y-150251399D01*
X148153492Y-150151570D01*
X148153486Y-150151567D01*
X147940000Y-150094364D01*
X147940000Y-150991988D01*
X147882993Y-150959075D01*
X147755826Y-150925000D01*
X147624174Y-150925000D01*
X147497007Y-150959075D01*
X147440000Y-150991988D01*
X147440000Y-150094364D01*
X147439999Y-150094364D01*
X147226513Y-150151567D01*
X147226507Y-150151570D01*
X147012422Y-150251399D01*
X147012420Y-150251400D01*
X146818926Y-150386886D01*
X146696865Y-150508947D01*
X146635542Y-150542431D01*
X146565850Y-150537447D01*
X146509917Y-150495575D01*
X146493002Y-150464598D01*
X146443797Y-150332671D01*
X146443793Y-150332664D01*
X146357547Y-150217455D01*
X146357544Y-150217452D01*
X146242335Y-150131206D01*
X146242328Y-150131202D01*
X146107482Y-150080908D01*
X146107483Y-150080908D01*
X146047883Y-150074501D01*
X146047881Y-150074500D01*
X146047873Y-150074500D01*
X146047865Y-150074500D01*
X145254500Y-150074500D01*
X145187461Y-150054815D01*
X145141706Y-150002011D01*
X145130500Y-149950500D01*
X145130500Y-148798052D01*
X145150185Y-148731013D01*
X145202989Y-148685258D01*
X145267103Y-148674694D01*
X145274991Y-148675500D01*
X146050008Y-148675499D01*
X146050016Y-148675498D01*
X146050019Y-148675498D01*
X146106302Y-148669748D01*
X146152797Y-148664999D01*
X146319334Y-148609814D01*
X146468656Y-148517712D01*
X146592712Y-148393656D01*
X146594752Y-148390347D01*
X146596745Y-148388555D01*
X146597193Y-148387989D01*
X146597289Y-148388065D01*
X146646694Y-148343623D01*
X146715656Y-148332395D01*
X146779740Y-148360234D01*
X146805829Y-148390339D01*
X146807681Y-148393341D01*
X146807683Y-148393344D01*
X146931654Y-148517315D01*
X147080875Y-148609356D01*
X147080880Y-148609358D01*
X147247302Y-148664505D01*
X147247309Y-148664506D01*
X147350019Y-148674999D01*
X147487499Y-148674999D01*
X147987500Y-148674999D01*
X148124972Y-148674999D01*
X148124986Y-148674998D01*
X148227697Y-148664505D01*
X148394119Y-148609358D01*
X148394124Y-148609356D01*
X148543345Y-148517315D01*
X148667315Y-148393345D01*
X148759356Y-148244124D01*
X148759358Y-148244119D01*
X148814505Y-148077697D01*
X148814506Y-148077690D01*
X148824999Y-147974986D01*
X148825000Y-147974973D01*
X148825000Y-147700000D01*
X147987500Y-147700000D01*
X147987500Y-148674999D01*
X147487499Y-148674999D01*
X147487500Y-148674998D01*
X147487500Y-147200000D01*
X147987500Y-147200000D01*
X148824999Y-147200000D01*
X148824999Y-146925028D01*
X148824998Y-146925013D01*
X148814505Y-146822302D01*
X148759358Y-146655880D01*
X148759356Y-146655875D01*
X148667315Y-146506654D01*
X148543345Y-146382684D01*
X148394124Y-146290643D01*
X148394119Y-146290641D01*
X148227697Y-146235494D01*
X148227690Y-146235493D01*
X148124986Y-146225000D01*
X147987500Y-146225000D01*
X147987500Y-147200000D01*
X147487500Y-147200000D01*
X147487500Y-146225000D01*
X147350027Y-146225000D01*
X147350012Y-146225001D01*
X147247302Y-146235494D01*
X147080880Y-146290641D01*
X147080875Y-146290643D01*
X146931654Y-146382684D01*
X146807683Y-146506655D01*
X146807679Y-146506660D01*
X146805826Y-146509665D01*
X146804018Y-146511290D01*
X146803202Y-146512323D01*
X146803025Y-146512183D01*
X146753874Y-146556385D01*
X146684911Y-146567601D01*
X146620831Y-146539752D01*
X146594753Y-146509653D01*
X146594737Y-146509628D01*
X146592712Y-146506344D01*
X146468656Y-146382288D01*
X146342815Y-146304669D01*
X146296092Y-146252722D01*
X146284693Y-146185247D01*
X146305565Y-146000002D01*
X146305565Y-145999996D01*
X146285369Y-145820750D01*
X146285368Y-145820745D01*
X146225789Y-145650478D01*
X146129816Y-145497738D01*
X146002262Y-145370184D01*
X145929038Y-145324174D01*
X145849523Y-145274211D01*
X145679254Y-145214631D01*
X145679249Y-145214630D01*
X145500004Y-145194435D01*
X145499996Y-145194435D01*
X145320750Y-145214630D01*
X145320739Y-145214633D01*
X145295453Y-145223481D01*
X145225675Y-145227042D01*
X145165048Y-145192313D01*
X145132821Y-145130319D01*
X145130500Y-145106439D01*
X145130500Y-141999996D01*
X146694435Y-141999996D01*
X146694435Y-142000003D01*
X146714630Y-142179249D01*
X146714631Y-142179254D01*
X146774211Y-142349523D01*
X146805989Y-142400097D01*
X146870184Y-142502262D01*
X146997738Y-142629816D01*
X147150478Y-142725789D01*
X147297731Y-142777315D01*
X147320745Y-142785368D01*
X147320750Y-142785369D01*
X147499996Y-142805565D01*
X147500000Y-142805565D01*
X147500004Y-142805565D01*
X147679249Y-142785369D01*
X147679252Y-142785368D01*
X147679255Y-142785368D01*
X147849522Y-142725789D01*
X148002262Y-142629816D01*
X148129816Y-142502262D01*
X148225789Y-142349522D01*
X148285368Y-142179255D01*
X148285369Y-142179249D01*
X148288947Y-142147496D01*
X148841935Y-142147496D01*
X148841935Y-142147503D01*
X148862130Y-142326749D01*
X148862131Y-142326754D01*
X148921711Y-142497023D01*
X149005150Y-142629815D01*
X149017684Y-142649762D01*
X149145238Y-142777316D01*
X149297978Y-142873289D01*
X149404701Y-142910633D01*
X149468245Y-142932868D01*
X149468250Y-142932869D01*
X149647496Y-142953065D01*
X149647500Y-142953065D01*
X149647504Y-142953065D01*
X149826749Y-142932869D01*
X149826752Y-142932868D01*
X149826755Y-142932868D01*
X149997022Y-142873289D01*
X150149762Y-142777316D01*
X150277316Y-142649762D01*
X150371420Y-142499996D01*
X150694435Y-142499996D01*
X150694435Y-142500003D01*
X150714630Y-142679249D01*
X150714631Y-142679254D01*
X150774211Y-142849523D01*
X150812610Y-142910634D01*
X150870184Y-143002262D01*
X150997738Y-143129816D01*
X151150478Y-143225789D01*
X151320745Y-143285368D01*
X151320750Y-143285369D01*
X151499996Y-143305565D01*
X151500000Y-143305565D01*
X151500004Y-143305565D01*
X151679249Y-143285369D01*
X151679252Y-143285368D01*
X151679255Y-143285368D01*
X151849522Y-143225789D01*
X152002262Y-143129816D01*
X152129816Y-143002262D01*
X152225789Y-142849522D01*
X152285368Y-142679255D01*
X152288691Y-142649762D01*
X152305565Y-142500003D01*
X152305565Y-142499996D01*
X152285369Y-142320750D01*
X152285368Y-142320745D01*
X152263265Y-142257578D01*
X152225789Y-142150478D01*
X152223915Y-142147496D01*
X152131237Y-142000000D01*
X152129816Y-141997738D01*
X152002262Y-141870184D01*
X151938310Y-141830000D01*
X151849523Y-141774211D01*
X151679254Y-141714631D01*
X151679249Y-141714630D01*
X151500004Y-141694435D01*
X151499996Y-141694435D01*
X151320750Y-141714630D01*
X151320745Y-141714631D01*
X151150476Y-141774211D01*
X150997737Y-141870184D01*
X150870184Y-141997737D01*
X150774211Y-142150476D01*
X150714631Y-142320745D01*
X150714630Y-142320750D01*
X150694435Y-142499996D01*
X150371420Y-142499996D01*
X150373289Y-142497022D01*
X150432868Y-142326755D01*
X150434484Y-142312416D01*
X150453065Y-142147503D01*
X150453065Y-142147496D01*
X150432869Y-141968250D01*
X150432868Y-141968245D01*
X150427224Y-141952116D01*
X150373289Y-141797978D01*
X150277316Y-141645238D01*
X150149762Y-141517684D01*
X150120824Y-141499501D01*
X149997023Y-141421711D01*
X149826754Y-141362131D01*
X149826749Y-141362130D01*
X149647504Y-141341935D01*
X149647496Y-141341935D01*
X149468250Y-141362130D01*
X149468245Y-141362131D01*
X149297976Y-141421711D01*
X149145237Y-141517684D01*
X149017684Y-141645237D01*
X148921711Y-141797976D01*
X148862131Y-141968245D01*
X148862130Y-141968250D01*
X148841935Y-142147496D01*
X148288947Y-142147496D01*
X148305565Y-142000003D01*
X148305565Y-141999996D01*
X148285369Y-141820750D01*
X148285368Y-141820745D01*
X148225788Y-141650476D01*
X148134950Y-141505909D01*
X148129816Y-141497738D01*
X148002262Y-141370184D01*
X147938308Y-141329999D01*
X147849523Y-141274211D01*
X147679254Y-141214631D01*
X147679249Y-141214630D01*
X147500004Y-141194435D01*
X147499996Y-141194435D01*
X147320750Y-141214630D01*
X147320745Y-141214631D01*
X147150476Y-141274211D01*
X146997737Y-141370184D01*
X146870184Y-141497737D01*
X146774211Y-141650476D01*
X146714631Y-141820745D01*
X146714630Y-141820750D01*
X146694435Y-141999996D01*
X145130500Y-141999996D01*
X145130500Y-140869500D01*
X145150185Y-140802461D01*
X145202989Y-140756706D01*
X145254500Y-140745500D01*
X145901317Y-140745500D01*
X145901324Y-140745500D01*
X146018314Y-140730098D01*
X146163882Y-140669802D01*
X146288884Y-140573884D01*
X146384802Y-140448882D01*
X146445098Y-140303314D01*
X146460500Y-140186324D01*
X146460500Y-139413676D01*
X146445098Y-139296686D01*
X146384802Y-139151118D01*
X146288884Y-139026116D01*
X146163882Y-138930198D01*
X146163878Y-138930196D01*
X146018317Y-138869903D01*
X146018315Y-138869902D01*
X146018314Y-138869902D01*
X146003690Y-138867976D01*
X145901331Y-138854500D01*
X145901324Y-138854500D01*
X144048676Y-138854500D01*
X144048668Y-138854500D01*
X143931686Y-138869902D01*
X143931682Y-138869903D01*
X143786121Y-138930196D01*
X143786118Y-138930197D01*
X143786118Y-138930198D01*
X143661116Y-139026116D01*
X143661115Y-139026117D01*
X143661114Y-139026118D01*
X143632264Y-139063716D01*
X143575836Y-139104919D01*
X143506090Y-139109073D01*
X143445170Y-139074860D01*
X143434965Y-139061795D01*
X143434693Y-139062011D01*
X143430211Y-139056343D01*
X143306157Y-138932289D01*
X143306156Y-138932288D01*
X143156834Y-138840186D01*
X142990297Y-138785001D01*
X142990295Y-138785000D01*
X142887516Y-138774500D01*
X142887509Y-138774500D01*
X142175097Y-138774500D01*
X142108058Y-138754815D01*
X142087416Y-138738181D01*
X141685915Y-138336680D01*
X141652430Y-138275357D01*
X141657414Y-138205665D01*
X141699286Y-138149732D01*
X141764750Y-138125315D01*
X141773596Y-138124999D01*
X142024972Y-138124999D01*
X142024986Y-138124998D01*
X142127697Y-138114505D01*
X142294119Y-138059358D01*
X142294124Y-138059356D01*
X142443345Y-137967315D01*
X142524367Y-137886293D01*
X143490000Y-137886293D01*
X143505390Y-138003182D01*
X143505390Y-138003183D01*
X143565635Y-138148628D01*
X143661473Y-138273526D01*
X143786371Y-138369364D01*
X143931817Y-138429609D01*
X144048706Y-138444999D01*
X144048721Y-138445000D01*
X144725000Y-138445000D01*
X145225000Y-138445000D01*
X145901279Y-138445000D01*
X145901293Y-138444999D01*
X146018182Y-138429609D01*
X146018183Y-138429609D01*
X146163628Y-138369364D01*
X146171610Y-138363239D01*
X149540001Y-138363239D01*
X149554722Y-138531511D01*
X149554722Y-138531512D01*
X149613051Y-138749200D01*
X149613055Y-138749211D01*
X149708296Y-138953456D01*
X149708302Y-138953466D01*
X149837566Y-139138073D01*
X149996926Y-139297433D01*
X150181533Y-139426697D01*
X150181543Y-139426703D01*
X150385788Y-139521944D01*
X150385799Y-139521948D01*
X150603485Y-139580277D01*
X150603492Y-139580278D01*
X150771755Y-139594999D01*
X150771765Y-139595000D01*
X150775000Y-139594999D01*
X151275000Y-139594999D01*
X151278236Y-139594999D01*
X151278239Y-139594998D01*
X151446511Y-139580277D01*
X151446512Y-139580277D01*
X151664200Y-139521948D01*
X151664211Y-139521944D01*
X151868456Y-139426703D01*
X151868466Y-139426697D01*
X152053073Y-139297433D01*
X152212433Y-139138073D01*
X152341697Y-138953466D01*
X152341703Y-138953456D01*
X152436944Y-138749211D01*
X152436948Y-138749200D01*
X152495277Y-138531514D01*
X152495278Y-138531507D01*
X152509999Y-138363240D01*
X152510000Y-138363238D01*
X152510000Y-137750000D01*
X151275000Y-137750000D01*
X151275000Y-139594999D01*
X150775000Y-139594999D01*
X150775000Y-137750000D01*
X149540001Y-137750000D01*
X149540001Y-138363239D01*
X146171610Y-138363239D01*
X146288526Y-138273526D01*
X146384364Y-138148628D01*
X146444609Y-138003183D01*
X146444609Y-138003182D01*
X146459999Y-137886293D01*
X146460000Y-137886279D01*
X146460000Y-137750000D01*
X145225000Y-137750000D01*
X145225000Y-138445000D01*
X144725000Y-138445000D01*
X144725000Y-137750000D01*
X143490000Y-137750000D01*
X143490000Y-137886293D01*
X142524367Y-137886293D01*
X142567315Y-137843345D01*
X142659356Y-137694124D01*
X142659358Y-137694119D01*
X142714505Y-137527697D01*
X142714506Y-137527690D01*
X142724999Y-137424986D01*
X142725000Y-137424973D01*
X142725000Y-137287500D01*
X141374000Y-137287500D01*
X141306961Y-137267815D01*
X141261206Y-137215011D01*
X141250000Y-137163500D01*
X141250000Y-137113706D01*
X143490000Y-137113706D01*
X143490000Y-137250000D01*
X144725000Y-137250000D01*
X145225000Y-137250000D01*
X146460000Y-137250000D01*
X146460000Y-137113720D01*
X146459999Y-137113706D01*
X146444609Y-136996817D01*
X146444609Y-136996816D01*
X146384364Y-136851371D01*
X146288526Y-136726473D01*
X146163628Y-136630635D01*
X146018182Y-136570390D01*
X145901293Y-136555000D01*
X145225000Y-136555000D01*
X145225000Y-137250000D01*
X144725000Y-137250000D01*
X144725000Y-136555000D01*
X144048706Y-136555000D01*
X143931817Y-136570390D01*
X143931816Y-136570390D01*
X143786371Y-136630635D01*
X143661473Y-136726473D01*
X143565635Y-136851371D01*
X143505390Y-136996816D01*
X143505390Y-136996817D01*
X143490000Y-137113706D01*
X141250000Y-137113706D01*
X141250000Y-136911500D01*
X141269685Y-136844461D01*
X141322489Y-136798706D01*
X141374000Y-136787500D01*
X142724999Y-136787500D01*
X142724999Y-136650028D01*
X142724998Y-136650013D01*
X142714505Y-136547302D01*
X142659358Y-136380880D01*
X142659356Y-136380875D01*
X142567315Y-136231654D01*
X142443344Y-136107683D01*
X142443341Y-136107681D01*
X142440339Y-136105829D01*
X142438713Y-136104021D01*
X142437677Y-136103202D01*
X142437817Y-136103024D01*
X142393617Y-136053880D01*
X142382397Y-135984917D01*
X142410243Y-135920836D01*
X142440344Y-135894754D01*
X142443656Y-135892712D01*
X142567712Y-135768656D01*
X142658229Y-135621902D01*
X142710177Y-135575179D01*
X142763768Y-135563000D01*
X143377684Y-135563000D01*
X143444723Y-135582685D01*
X143490478Y-135635489D01*
X143500623Y-135670813D01*
X143504902Y-135703313D01*
X143504903Y-135703317D01*
X143564779Y-135847872D01*
X143565198Y-135848882D01*
X143661116Y-135973884D01*
X143786118Y-136069802D01*
X143931686Y-136130098D01*
X144048676Y-136145500D01*
X144048683Y-136145500D01*
X145901317Y-136145500D01*
X145901324Y-136145500D01*
X146018314Y-136130098D01*
X146163882Y-136069802D01*
X146288884Y-135973884D01*
X146375004Y-135861651D01*
X146384702Y-135849013D01*
X146441130Y-135807811D01*
X146483077Y-135800500D01*
X149642376Y-135800500D01*
X149709415Y-135820185D01*
X149755170Y-135872989D01*
X149765114Y-135942147D01*
X149743950Y-135995624D01*
X149708301Y-136046533D01*
X149708296Y-136046543D01*
X149613055Y-136250788D01*
X149613051Y-136250799D01*
X149554722Y-136468485D01*
X149554721Y-136468492D01*
X149540000Y-136636759D01*
X149540000Y-137250000D01*
X152509999Y-137250000D01*
X152509999Y-136636764D01*
X152509998Y-136636760D01*
X152495277Y-136468488D01*
X152495277Y-136468487D01*
X152436948Y-136250799D01*
X152436944Y-136250788D01*
X152341703Y-136046543D01*
X152341698Y-136046533D01*
X152306050Y-135995624D01*
X152283722Y-135929419D01*
X152300731Y-135861651D01*
X152351679Y-135813838D01*
X152407624Y-135800500D01*
X153383023Y-135800500D01*
X153450062Y-135820185D01*
X153495817Y-135872989D01*
X153503266Y-135900134D01*
X153504124Y-135899932D01*
X153505907Y-135907479D01*
X153556202Y-136042328D01*
X153556206Y-136042335D01*
X153642452Y-136157544D01*
X153642455Y-136157547D01*
X153757664Y-136243793D01*
X153757671Y-136243797D01*
X153776445Y-136250799D01*
X153889598Y-136293002D01*
X153945531Y-136334873D01*
X153969949Y-136400337D01*
X153955098Y-136468610D01*
X153933947Y-136496865D01*
X153811886Y-136618926D01*
X153676400Y-136812420D01*
X153676399Y-136812422D01*
X153576570Y-137026507D01*
X153576567Y-137026513D01*
X153519364Y-137239999D01*
X153519364Y-137240000D01*
X154416988Y-137240000D01*
X154384075Y-137297007D01*
X154350000Y-137424174D01*
X154350000Y-137555826D01*
X154384075Y-137682993D01*
X154416988Y-137740000D01*
X153519364Y-137740000D01*
X153576567Y-137953486D01*
X153576570Y-137953492D01*
X153676399Y-138167578D01*
X153811894Y-138361082D01*
X153978917Y-138528105D01*
X154172421Y-138663600D01*
X154386507Y-138763429D01*
X154386516Y-138763433D01*
X154600000Y-138820634D01*
X154600000Y-137923012D01*
X154657007Y-137955925D01*
X154784174Y-137990000D01*
X154915826Y-137990000D01*
X155042993Y-137955925D01*
X155100000Y-137923012D01*
X155100000Y-138820633D01*
X155313483Y-138763433D01*
X155313492Y-138763429D01*
X155527578Y-138663600D01*
X155721082Y-138528105D01*
X155888105Y-138361082D01*
X156023600Y-138167577D01*
X156023601Y-138167575D01*
X156063118Y-138082832D01*
X156109290Y-138030392D01*
X156176483Y-138011240D01*
X156243365Y-138031455D01*
X156288699Y-138084621D01*
X156299500Y-138135236D01*
X156299500Y-140499902D01*
X156279815Y-140566941D01*
X156263181Y-140587583D01*
X155387582Y-141463181D01*
X155326259Y-141496666D01*
X155299901Y-141499500D01*
X153952129Y-141499500D01*
X153952123Y-141499501D01*
X153892516Y-141505908D01*
X153757671Y-141556202D01*
X153757664Y-141556206D01*
X153642455Y-141642452D01*
X153642452Y-141642455D01*
X153556206Y-141757664D01*
X153556202Y-141757671D01*
X153505908Y-141892517D01*
X153499501Y-141952116D01*
X153499500Y-141952135D01*
X153499500Y-143747870D01*
X153499501Y-143747876D01*
X153505908Y-143807483D01*
X153556202Y-143942328D01*
X153556206Y-143942335D01*
X153642452Y-144057544D01*
X153642455Y-144057547D01*
X153757664Y-144143793D01*
X153757671Y-144143797D01*
X153757674Y-144143798D01*
X153889598Y-144193002D01*
X153945531Y-144234873D01*
X153969949Y-144300337D01*
X153955098Y-144368610D01*
X153933947Y-144396865D01*
X153811886Y-144518926D01*
X153676400Y-144712420D01*
X153676399Y-144712422D01*
X153576570Y-144926507D01*
X153576567Y-144926513D01*
X153519364Y-145139999D01*
X153519364Y-145140000D01*
X154416988Y-145140000D01*
X154384075Y-145197007D01*
X154350000Y-145324174D01*
X154350000Y-145455826D01*
X154384075Y-145582993D01*
X154416988Y-145640000D01*
X153519364Y-145640000D01*
X153576567Y-145853486D01*
X153576570Y-145853492D01*
X153676399Y-146067578D01*
X153811894Y-146261082D01*
X153978917Y-146428105D01*
X154172421Y-146563600D01*
X154386507Y-146663429D01*
X154386516Y-146663433D01*
X154600000Y-146720634D01*
X154600000Y-145823012D01*
X154657007Y-145855925D01*
X154784174Y-145890000D01*
X154915826Y-145890000D01*
X155042993Y-145855925D01*
X155100000Y-145823012D01*
X155100000Y-146720633D01*
X155313483Y-146663433D01*
X155313492Y-146663429D01*
X155527578Y-146563600D01*
X155721082Y-146428105D01*
X155888105Y-146261082D01*
X156023600Y-146067578D01*
X156123429Y-145853492D01*
X156123432Y-145853486D01*
X156180636Y-145640000D01*
X155283012Y-145640000D01*
X155315925Y-145582993D01*
X155350000Y-145455826D01*
X155350000Y-145324174D01*
X155315925Y-145197007D01*
X155283012Y-145140000D01*
X156180636Y-145140000D01*
X156180635Y-145139999D01*
X156123432Y-144926513D01*
X156123429Y-144926507D01*
X156023600Y-144712422D01*
X156023599Y-144712420D01*
X155888113Y-144518926D01*
X155888108Y-144518920D01*
X155766053Y-144396865D01*
X155732568Y-144335542D01*
X155737552Y-144265850D01*
X155779424Y-144209917D01*
X155810400Y-144193002D01*
X155942331Y-144143796D01*
X156057546Y-144057546D01*
X156143796Y-143942331D01*
X156194091Y-143807483D01*
X156200500Y-143747873D01*
X156200499Y-142400096D01*
X156220184Y-142333058D01*
X156236813Y-142312421D01*
X156787819Y-141761416D01*
X156849142Y-141727931D01*
X156918834Y-141732915D01*
X156974767Y-141774787D01*
X156999184Y-141840251D01*
X156999500Y-141849097D01*
X156999500Y-153875500D01*
X156979815Y-153942539D01*
X156927011Y-153988294D01*
X156875500Y-153999500D01*
X140934809Y-153999500D01*
X140867770Y-153979815D01*
X140847128Y-153963181D01*
X140277335Y-153393388D01*
X140340654Y-153367161D01*
X140445476Y-153297121D01*
X140534621Y-153207976D01*
X140604661Y-153103154D01*
X140630888Y-153039835D01*
X141232035Y-153640983D01*
X141325934Y-153497262D01*
X141325935Y-153497260D01*
X141423126Y-153275684D01*
X141482523Y-153041128D01*
X141502504Y-152800005D01*
X141502504Y-152799994D01*
X141482523Y-152558871D01*
X141423126Y-152324315D01*
X141325932Y-152102733D01*
X141232035Y-151959015D01*
X140630887Y-152560163D01*
X140604661Y-152496846D01*
X140534621Y-152392024D01*
X140445476Y-152302879D01*
X140340654Y-152232839D01*
X140277335Y-152206611D01*
X140879052Y-151604893D01*
X140838778Y-151573546D01*
X140625986Y-151458388D01*
X140625981Y-151458386D01*
X140397140Y-151379825D01*
X140158478Y-151340000D01*
X139916522Y-151340000D01*
X139677859Y-151379825D01*
X139449018Y-151458386D01*
X139449013Y-151458388D01*
X139236221Y-151573547D01*
X139195946Y-151604893D01*
X139195945Y-151604893D01*
X139797664Y-152206611D01*
X139734346Y-152232839D01*
X139629524Y-152302879D01*
X139540379Y-152392024D01*
X139470339Y-152496846D01*
X139444112Y-152560164D01*
X138842963Y-151959015D01*
X138749066Y-152102735D01*
X138651873Y-152324315D01*
X138592476Y-152558871D01*
X138572496Y-152799994D01*
X138572496Y-152800005D01*
X138592476Y-153041128D01*
X138651873Y-153275684D01*
X138749065Y-153497261D01*
X138842963Y-153640983D01*
X139444111Y-153039834D01*
X139470339Y-153103154D01*
X139540379Y-153207976D01*
X139629524Y-153297121D01*
X139734346Y-153367161D01*
X139797664Y-153393388D01*
X139227871Y-153963181D01*
X139166548Y-153996666D01*
X139140190Y-153999500D01*
X136134809Y-153999500D01*
X136067770Y-153979815D01*
X136047128Y-153963181D01*
X135477335Y-153393388D01*
X135540654Y-153367161D01*
X135645476Y-153297121D01*
X135734621Y-153207976D01*
X135804661Y-153103154D01*
X135830887Y-153039835D01*
X136432035Y-153640983D01*
X136525934Y-153497262D01*
X136525935Y-153497260D01*
X136623126Y-153275684D01*
X136682523Y-153041128D01*
X136702504Y-152800005D01*
X136702504Y-152799994D01*
X136682523Y-152558871D01*
X136623126Y-152324315D01*
X136525932Y-152102733D01*
X136432035Y-151959015D01*
X135830887Y-152560163D01*
X135804661Y-152496846D01*
X135734621Y-152392024D01*
X135645476Y-152302879D01*
X135540654Y-152232839D01*
X135477335Y-152206611D01*
X136079052Y-151604893D01*
X136038778Y-151573546D01*
X135825986Y-151458388D01*
X135825981Y-151458386D01*
X135597140Y-151379825D01*
X135358478Y-151340000D01*
X135116522Y-151340000D01*
X134877859Y-151379825D01*
X134649018Y-151458386D01*
X134649013Y-151458388D01*
X134436221Y-151573547D01*
X134395946Y-151604893D01*
X134395945Y-151604893D01*
X134997664Y-152206611D01*
X134934346Y-152232839D01*
X134829524Y-152302879D01*
X134740379Y-152392024D01*
X134670339Y-152496846D01*
X134644111Y-152560164D01*
X134036819Y-151952872D01*
X134003334Y-151891549D01*
X134000500Y-151865191D01*
X134000500Y-150399997D01*
X136378208Y-150399997D01*
X136378208Y-150400002D01*
X136390668Y-150542431D01*
X136397339Y-150618674D01*
X136454153Y-150830703D01*
X136454154Y-150830706D01*
X136454155Y-150830708D01*
X136546919Y-151029642D01*
X136546923Y-151029650D01*
X136672822Y-151209452D01*
X136672827Y-151209458D01*
X136828041Y-151364672D01*
X136828047Y-151364677D01*
X137007849Y-151490576D01*
X137007851Y-151490577D01*
X137007854Y-151490579D01*
X137206797Y-151583347D01*
X137418826Y-151640161D01*
X137575021Y-151653826D01*
X137637498Y-151659292D01*
X137637500Y-151659292D01*
X137637502Y-151659292D01*
X137692168Y-151654509D01*
X137856174Y-151640161D01*
X138068203Y-151583347D01*
X138267146Y-151490579D01*
X138446957Y-151364674D01*
X138602174Y-151209457D01*
X138728079Y-151029646D01*
X138820847Y-150830703D01*
X138877661Y-150618674D01*
X138896792Y-150400000D01*
X138895645Y-150386894D01*
X138884590Y-150260525D01*
X138877661Y-150181326D01*
X138820847Y-149969297D01*
X138728079Y-149770354D01*
X138728077Y-149770351D01*
X138728076Y-149770349D01*
X138602177Y-149590547D01*
X138602172Y-149590541D01*
X138446958Y-149435327D01*
X138446952Y-149435322D01*
X138267150Y-149309423D01*
X138267142Y-149309419D01*
X138068208Y-149216655D01*
X138068206Y-149216654D01*
X138068203Y-149216653D01*
X137917385Y-149176240D01*
X137856175Y-149159839D01*
X137856168Y-149159838D01*
X137637502Y-149140708D01*
X137637498Y-149140708D01*
X137418831Y-149159838D01*
X137418824Y-149159839D01*
X137296402Y-149192642D01*
X137206797Y-149216653D01*
X137206795Y-149216653D01*
X137206791Y-149216655D01*
X137007857Y-149309419D01*
X137007849Y-149309423D01*
X136828047Y-149435322D01*
X136828041Y-149435327D01*
X136672827Y-149590541D01*
X136672822Y-149590547D01*
X136546923Y-149770349D01*
X136546919Y-149770357D01*
X136454155Y-149969291D01*
X136397339Y-150181324D01*
X136397338Y-150181331D01*
X136378208Y-150399997D01*
X134000500Y-150399997D01*
X134000500Y-148934808D01*
X134020185Y-148867769D01*
X134036819Y-148847127D01*
X134644111Y-148239834D01*
X134670339Y-148303154D01*
X134740379Y-148407976D01*
X134829524Y-148497121D01*
X134934346Y-148567161D01*
X134997664Y-148593387D01*
X134395946Y-149195105D01*
X134436220Y-149226452D01*
X134649013Y-149341611D01*
X134649018Y-149341613D01*
X134877859Y-149420174D01*
X135116522Y-149460000D01*
X135358478Y-149460000D01*
X135597140Y-149420174D01*
X135825981Y-149341613D01*
X135825986Y-149341611D01*
X136038784Y-149226449D01*
X136038785Y-149226448D01*
X136079052Y-149195106D01*
X136079053Y-149195105D01*
X135477335Y-148593388D01*
X135540654Y-148567161D01*
X135645476Y-148497121D01*
X135734621Y-148407976D01*
X135804661Y-148303154D01*
X135830887Y-148239835D01*
X136432035Y-148840983D01*
X136525934Y-148697262D01*
X136525935Y-148697260D01*
X136623126Y-148475684D01*
X136682523Y-148241128D01*
X136702504Y-148000005D01*
X136702504Y-147999994D01*
X138572496Y-147999994D01*
X138572496Y-148000005D01*
X138592476Y-148241128D01*
X138651873Y-148475684D01*
X138749065Y-148697261D01*
X138842963Y-148840983D01*
X139444111Y-148239834D01*
X139470339Y-148303154D01*
X139540379Y-148407976D01*
X139629524Y-148497121D01*
X139734346Y-148567161D01*
X139797664Y-148593387D01*
X139195946Y-149195105D01*
X139236220Y-149226452D01*
X139449013Y-149341611D01*
X139449018Y-149341613D01*
X139677859Y-149420174D01*
X139916522Y-149460000D01*
X140158478Y-149460000D01*
X140397140Y-149420174D01*
X140625981Y-149341613D01*
X140625986Y-149341611D01*
X140838784Y-149226449D01*
X140838785Y-149226448D01*
X140879052Y-149195106D01*
X140879053Y-149195105D01*
X140277335Y-148593388D01*
X140340654Y-148567161D01*
X140445476Y-148497121D01*
X140534621Y-148407976D01*
X140604661Y-148303154D01*
X140630888Y-148239835D01*
X141232035Y-148840983D01*
X141325934Y-148697262D01*
X141325935Y-148697260D01*
X141423126Y-148475684D01*
X141482523Y-148241128D01*
X141502504Y-148000005D01*
X141502504Y-147999994D01*
X141482523Y-147758871D01*
X141423126Y-147524315D01*
X141325932Y-147302733D01*
X141232035Y-147159015D01*
X140630887Y-147760163D01*
X140604661Y-147696846D01*
X140534621Y-147592024D01*
X140445476Y-147502879D01*
X140340654Y-147432839D01*
X140277335Y-147406611D01*
X140879052Y-146804893D01*
X140838778Y-146773546D01*
X140625986Y-146658388D01*
X140625981Y-146658386D01*
X140397140Y-146579825D01*
X140158478Y-146540000D01*
X139916522Y-146540000D01*
X139677859Y-146579825D01*
X139449018Y-146658386D01*
X139449013Y-146658388D01*
X139236221Y-146773547D01*
X139195946Y-146804893D01*
X139195945Y-146804893D01*
X139797664Y-147406611D01*
X139734346Y-147432839D01*
X139629524Y-147502879D01*
X139540379Y-147592024D01*
X139470339Y-147696846D01*
X139444112Y-147760164D01*
X138842963Y-147159015D01*
X138749066Y-147302735D01*
X138651873Y-147524315D01*
X138592476Y-147758871D01*
X138572496Y-147999994D01*
X136702504Y-147999994D01*
X136682523Y-147758871D01*
X136623126Y-147524315D01*
X136525932Y-147302733D01*
X136432035Y-147159015D01*
X135830887Y-147760163D01*
X135804661Y-147696846D01*
X135734621Y-147592024D01*
X135645476Y-147502879D01*
X135540654Y-147432839D01*
X135477334Y-147406611D01*
X136079052Y-146804893D01*
X136038777Y-146773545D01*
X136034480Y-146770738D01*
X136035781Y-146768746D01*
X135993237Y-146726495D01*
X135978150Y-146658274D01*
X135982087Y-146634610D01*
X136000500Y-146565892D01*
X136000500Y-144184108D01*
X135966392Y-144056814D01*
X135900500Y-143942686D01*
X135807314Y-143849500D01*
X135734537Y-143807482D01*
X135693187Y-143783608D01*
X135629539Y-143766554D01*
X135565892Y-143749500D01*
X135565891Y-143749500D01*
X132624500Y-143749500D01*
X132557461Y-143729815D01*
X132511706Y-143677011D01*
X132500500Y-143625500D01*
X132500500Y-142118011D01*
X132520185Y-142050972D01*
X132572989Y-142005217D01*
X132642147Y-141995273D01*
X132705703Y-142024298D01*
X132736882Y-142065606D01*
X132826399Y-142257578D01*
X132961894Y-142451082D01*
X133128917Y-142618105D01*
X133322421Y-142753600D01*
X133536507Y-142853429D01*
X133536516Y-142853433D01*
X133750000Y-142910634D01*
X133750000Y-142013012D01*
X133807007Y-142045925D01*
X133934174Y-142080000D01*
X134065826Y-142080000D01*
X134192993Y-142045925D01*
X134250000Y-142013012D01*
X134250000Y-142910633D01*
X134463483Y-142853433D01*
X134463492Y-142853429D01*
X134677578Y-142753600D01*
X134871082Y-142618105D01*
X135038105Y-142451082D01*
X135173600Y-142257578D01*
X135273429Y-142043492D01*
X135273432Y-142043486D01*
X135330636Y-141830000D01*
X134433012Y-141830000D01*
X134465925Y-141772993D01*
X134500000Y-141645826D01*
X134500000Y-141514174D01*
X134465925Y-141387007D01*
X134433012Y-141330000D01*
X135330636Y-141330000D01*
X135330635Y-141329999D01*
X135273432Y-141116513D01*
X135273429Y-141116507D01*
X135173600Y-140902422D01*
X135173599Y-140902420D01*
X135038113Y-140708926D01*
X135038108Y-140708920D01*
X134871078Y-140541890D01*
X134846937Y-140524986D01*
X139337501Y-140524986D01*
X139347994Y-140627697D01*
X139403141Y-140794119D01*
X139403143Y-140794124D01*
X139495184Y-140943345D01*
X139619154Y-141067315D01*
X139768375Y-141159356D01*
X139768380Y-141159358D01*
X139934802Y-141214505D01*
X139934809Y-141214506D01*
X140037519Y-141224999D01*
X140174999Y-141224999D01*
X140175000Y-141224998D01*
X140175000Y-140250000D01*
X139337501Y-140250000D01*
X139337501Y-140524986D01*
X134846937Y-140524986D01*
X134685405Y-140411879D01*
X134641780Y-140357302D01*
X134634588Y-140287804D01*
X134666110Y-140225449D01*
X134685406Y-140208730D01*
X134717415Y-140186317D01*
X134871401Y-140078495D01*
X135038495Y-139911401D01*
X135174035Y-139717830D01*
X135273903Y-139503663D01*
X135335063Y-139275408D01*
X135355659Y-139040000D01*
X135354444Y-139026118D01*
X135338177Y-138840185D01*
X135335063Y-138804592D01*
X135286846Y-138624642D01*
X135273905Y-138576344D01*
X135273904Y-138576343D01*
X135273903Y-138576337D01*
X135174035Y-138362171D01*
X135173273Y-138361082D01*
X135038494Y-138168597D01*
X134871402Y-138001506D01*
X134871396Y-138001501D01*
X134685842Y-137871575D01*
X134642217Y-137816998D01*
X134635023Y-137747500D01*
X134666546Y-137685145D01*
X134685842Y-137668425D01*
X134708026Y-137652891D01*
X134871401Y-137538495D01*
X135038495Y-137371401D01*
X135174035Y-137177830D01*
X135273903Y-136963663D01*
X135335063Y-136735408D01*
X135355659Y-136500000D01*
X135335063Y-136264592D01*
X135282870Y-136069802D01*
X135273905Y-136036344D01*
X135273904Y-136036343D01*
X135273903Y-136036337D01*
X135174035Y-135822171D01*
X135172644Y-135820185D01*
X135038496Y-135628600D01*
X134985075Y-135575179D01*
X134916567Y-135506671D01*
X134883084Y-135445351D01*
X134888068Y-135375659D01*
X134929939Y-135319725D01*
X134960915Y-135302810D01*
X135092331Y-135253796D01*
X135207546Y-135167546D01*
X135293796Y-135052331D01*
X135344091Y-134917483D01*
X135350500Y-134857873D01*
X135350500Y-134684500D01*
X135370185Y-134617461D01*
X135422989Y-134571706D01*
X135474500Y-134560500D01*
X135920943Y-134560500D01*
X136079057Y-134560500D01*
X136159903Y-134560500D01*
X136226942Y-134580185D01*
G37*
%TD.AperFunction*%
%TA.AperFunction,Conductor*%
G36*
X152944458Y-111396543D02*
G01*
X152989228Y-111450185D01*
X152999500Y-111499600D01*
X152999500Y-113111455D01*
X152979815Y-113178494D01*
X152927011Y-113224249D01*
X152857853Y-113234193D01*
X152794297Y-113205168D01*
X152757794Y-113150459D01*
X152722895Y-113045143D01*
X152709814Y-113005666D01*
X152617712Y-112856344D01*
X152493656Y-112732288D01*
X152344334Y-112640186D01*
X152177797Y-112585001D01*
X152177795Y-112585000D01*
X152075010Y-112574500D01*
X151024998Y-112574500D01*
X151024980Y-112574501D01*
X150922203Y-112585000D01*
X150922200Y-112585001D01*
X150755668Y-112640185D01*
X150755663Y-112640187D01*
X150606342Y-112732289D01*
X150482289Y-112856342D01*
X150390187Y-113005663D01*
X150390185Y-113005668D01*
X150362349Y-113089670D01*
X150335001Y-113172203D01*
X150335001Y-113172204D01*
X150335000Y-113172204D01*
X150324500Y-113274983D01*
X150324500Y-113689014D01*
X150304815Y-113756053D01*
X150266473Y-113794006D01*
X150216004Y-113825718D01*
X150145237Y-113870184D01*
X150017684Y-113997737D01*
X149921711Y-114150476D01*
X149862131Y-114320745D01*
X149862130Y-114320750D01*
X149841935Y-114499996D01*
X149841935Y-114500003D01*
X149862130Y-114679249D01*
X149862131Y-114679254D01*
X149921711Y-114849523D01*
X149948025Y-114891401D01*
X150017684Y-115002262D01*
X150145238Y-115129816D01*
X150270083Y-115208261D01*
X150316373Y-115260595D01*
X150327468Y-115325854D01*
X150325001Y-115350006D01*
X150325000Y-115350026D01*
X150325000Y-115487500D01*
X151676000Y-115487500D01*
X151743039Y-115507185D01*
X151788794Y-115559989D01*
X151800000Y-115611500D01*
X151800000Y-116824999D01*
X152074972Y-116824999D01*
X152074986Y-116824998D01*
X152177697Y-116814505D01*
X152344119Y-116759358D01*
X152344124Y-116759356D01*
X152493345Y-116667315D01*
X152617315Y-116543345D01*
X152709356Y-116394124D01*
X152709358Y-116394119D01*
X152757794Y-116247950D01*
X152797566Y-116190505D01*
X152862082Y-116163682D01*
X152930858Y-116175997D01*
X152982058Y-116223540D01*
X152999500Y-116286954D01*
X152999500Y-117934108D01*
X152999500Y-118065892D01*
X153012555Y-118114615D01*
X153033608Y-118193187D01*
X153038771Y-118202129D01*
X153099500Y-118307314D01*
X153192686Y-118400500D01*
X153291521Y-118457563D01*
X153300003Y-118462460D01*
X153306814Y-118466392D01*
X153434108Y-118500500D01*
X156875500Y-118500500D01*
X156942539Y-118520185D01*
X156988294Y-118572989D01*
X156999500Y-118624500D01*
X156999500Y-135950902D01*
X156979815Y-136017941D01*
X156927011Y-136063696D01*
X156857853Y-136073640D01*
X156794297Y-136044615D01*
X156787819Y-136038583D01*
X156236818Y-135487582D01*
X156203333Y-135426259D01*
X156200499Y-135399901D01*
X156200499Y-134052129D01*
X156200498Y-134052123D01*
X156200497Y-134052116D01*
X156194091Y-133992517D01*
X156174573Y-133940187D01*
X156143797Y-133857671D01*
X156143793Y-133857664D01*
X156057547Y-133742455D01*
X156057544Y-133742452D01*
X155942335Y-133656206D01*
X155942328Y-133656202D01*
X155807482Y-133605908D01*
X155807483Y-133605908D01*
X155747883Y-133599501D01*
X155747881Y-133599500D01*
X155747873Y-133599500D01*
X155747864Y-133599500D01*
X153952129Y-133599500D01*
X153952123Y-133599501D01*
X153892516Y-133605908D01*
X153757671Y-133656202D01*
X153757664Y-133656206D01*
X153642455Y-133742452D01*
X153642452Y-133742455D01*
X153556206Y-133857664D01*
X153556202Y-133857671D01*
X153505908Y-133992517D01*
X153499501Y-134052116D01*
X153499501Y-134052123D01*
X153499500Y-134052135D01*
X153499500Y-134475500D01*
X153479815Y-134542539D01*
X153427011Y-134588294D01*
X153375500Y-134599500D01*
X146483077Y-134599500D01*
X146416038Y-134579815D01*
X146384702Y-134550987D01*
X146326778Y-134475500D01*
X146288884Y-134426116D01*
X146163882Y-134330198D01*
X146163878Y-134330196D01*
X146018317Y-134269903D01*
X146018315Y-134269902D01*
X146018314Y-134269902D01*
X146003690Y-134267976D01*
X145901331Y-134254500D01*
X145901324Y-134254500D01*
X144048676Y-134254500D01*
X144048668Y-134254500D01*
X143931686Y-134269902D01*
X143931682Y-134269903D01*
X143786119Y-134330196D01*
X143786113Y-134330200D01*
X143778064Y-134336377D01*
X143712895Y-134361570D01*
X143702580Y-134362000D01*
X142763768Y-134362000D01*
X142696729Y-134342315D01*
X142658229Y-134303097D01*
X142637755Y-134269903D01*
X142567712Y-134156344D01*
X142443656Y-134032288D01*
X142294334Y-133940186D01*
X142127797Y-133885001D01*
X142127795Y-133885000D01*
X142025016Y-133874500D01*
X142025009Y-133874500D01*
X141275098Y-133874500D01*
X141208059Y-133854815D01*
X141187417Y-133838181D01*
X141061417Y-133712181D01*
X141027932Y-133650858D01*
X141032916Y-133581166D01*
X141074788Y-133525233D01*
X141140252Y-133500816D01*
X141149098Y-133500500D01*
X142625005Y-133500500D01*
X142625010Y-133500500D01*
X142727798Y-133489999D01*
X142894335Y-133434814D01*
X143043656Y-133342712D01*
X143167712Y-133218656D01*
X143259814Y-133069335D01*
X143287596Y-132985494D01*
X143327368Y-132928051D01*
X143391883Y-132901228D01*
X143405301Y-132900500D01*
X143494699Y-132900500D01*
X143561738Y-132920185D01*
X143607493Y-132972989D01*
X143612401Y-132985487D01*
X143640186Y-133069335D01*
X143732288Y-133218656D01*
X143856344Y-133342712D01*
X144005665Y-133434814D01*
X144172202Y-133489999D01*
X144274990Y-133500500D01*
X144274995Y-133500500D01*
X146525005Y-133500500D01*
X146525010Y-133500500D01*
X146627798Y-133489999D01*
X146794335Y-133434814D01*
X146943656Y-133342712D01*
X147067712Y-133218656D01*
X147159814Y-133069335D01*
X147214999Y-132902798D01*
X147225500Y-132800010D01*
X147225500Y-131799990D01*
X147214999Y-131697202D01*
X147159814Y-131530665D01*
X147067712Y-131381344D01*
X146943656Y-131257288D01*
X146794335Y-131165186D01*
X146627798Y-131110001D01*
X146627796Y-131110000D01*
X146525017Y-131099500D01*
X146525010Y-131099500D01*
X144274990Y-131099500D01*
X144274982Y-131099500D01*
X144172203Y-131110000D01*
X144172202Y-131110001D01*
X144089669Y-131137349D01*
X144005667Y-131165185D01*
X144005662Y-131165187D01*
X143856342Y-131257289D01*
X143732289Y-131381342D01*
X143640187Y-131530662D01*
X143640186Y-131530665D01*
X143612403Y-131614505D01*
X143572632Y-131671949D01*
X143508117Y-131698772D01*
X143494699Y-131699500D01*
X143405301Y-131699500D01*
X143338262Y-131679815D01*
X143292507Y-131627011D01*
X143287598Y-131614512D01*
X143259814Y-131530665D01*
X143167712Y-131381344D01*
X143043656Y-131257288D01*
X142894335Y-131165186D01*
X142727798Y-131110001D01*
X142727796Y-131110000D01*
X142625017Y-131099500D01*
X142625010Y-131099500D01*
X140374990Y-131099500D01*
X140374982Y-131099500D01*
X140272203Y-131110000D01*
X140272202Y-131110001D01*
X140189669Y-131137349D01*
X140105667Y-131165185D01*
X140105662Y-131165187D01*
X139956342Y-131257289D01*
X139832282Y-131381349D01*
X139829636Y-131384696D01*
X139827238Y-131386393D01*
X139827181Y-131386451D01*
X139827171Y-131386441D01*
X139772611Y-131425069D01*
X139702812Y-131428202D01*
X139644695Y-131395459D01*
X139230700Y-130981465D01*
X139197215Y-130920142D01*
X139195163Y-130907686D01*
X139185368Y-130820745D01*
X139125789Y-130650478D01*
X139029816Y-130497738D01*
X138902262Y-130370184D01*
X138799500Y-130305614D01*
X138749523Y-130274211D01*
X138611797Y-130226019D01*
X138555021Y-130185297D01*
X138529274Y-130120344D01*
X138542730Y-130051783D01*
X138565069Y-130021298D01*
X138617712Y-129968656D01*
X138709814Y-129819334D01*
X138764999Y-129652797D01*
X138775500Y-129550009D01*
X138775499Y-128649992D01*
X138773948Y-128634812D01*
X138764999Y-128547203D01*
X138764998Y-128547200D01*
X138735596Y-128458471D01*
X138709814Y-128380666D01*
X138653641Y-128289595D01*
X138635202Y-128222204D01*
X138656125Y-128155541D01*
X138709767Y-128110771D01*
X138759181Y-128100500D01*
X139594699Y-128100500D01*
X139661738Y-128120185D01*
X139707493Y-128172989D01*
X139712401Y-128185487D01*
X139740186Y-128269335D01*
X139832288Y-128418656D01*
X139956344Y-128542712D01*
X140105665Y-128634814D01*
X140272202Y-128689999D01*
X140374990Y-128700500D01*
X140374995Y-128700500D01*
X142625005Y-128700500D01*
X142625010Y-128700500D01*
X142727798Y-128689999D01*
X142894335Y-128634814D01*
X143043656Y-128542712D01*
X143167712Y-128418656D01*
X143259814Y-128269335D01*
X143314999Y-128102798D01*
X143325500Y-128000010D01*
X143325500Y-127999986D01*
X143575001Y-127999986D01*
X143585494Y-128102696D01*
X143585494Y-128102698D01*
X143640640Y-128269119D01*
X143640645Y-128269130D01*
X143732680Y-128418340D01*
X143732683Y-128418344D01*
X143856655Y-128542316D01*
X143856659Y-128542319D01*
X144005869Y-128634354D01*
X144005880Y-128634359D01*
X144172302Y-128689505D01*
X144275020Y-128699999D01*
X145149999Y-128699999D01*
X145650000Y-128699999D01*
X146524972Y-128699999D01*
X146524986Y-128699998D01*
X146627696Y-128689505D01*
X146627698Y-128689505D01*
X146794119Y-128634359D01*
X146794130Y-128634354D01*
X146943340Y-128542319D01*
X146943344Y-128542316D01*
X147067316Y-128418344D01*
X147067319Y-128418340D01*
X147159354Y-128269130D01*
X147159359Y-128269119D01*
X147214505Y-128102697D01*
X147224999Y-127999986D01*
X147225000Y-127999973D01*
X147225000Y-127750000D01*
X145650000Y-127750000D01*
X145650000Y-128699999D01*
X145149999Y-128699999D01*
X145150000Y-128699998D01*
X145150000Y-127750000D01*
X143575001Y-127750000D01*
X143575001Y-127999986D01*
X143325500Y-127999986D01*
X143325500Y-126999990D01*
X143314999Y-126897202D01*
X143259814Y-126730665D01*
X143167712Y-126581344D01*
X143043656Y-126457288D01*
X142894335Y-126365186D01*
X142894334Y-126365185D01*
X142894333Y-126365185D01*
X142870107Y-126357157D01*
X142858066Y-126353167D01*
X142800622Y-126313395D01*
X142773799Y-126248879D01*
X142780030Y-126194509D01*
X142785368Y-126179255D01*
X142790939Y-126129815D01*
X142805565Y-126000000D01*
X142805565Y-125999996D01*
X142785369Y-125820750D01*
X142785368Y-125820745D01*
X142725789Y-125650478D01*
X142629816Y-125497738D01*
X142502262Y-125370184D01*
X142485259Y-125359500D01*
X142349523Y-125274211D01*
X142179254Y-125214631D01*
X142179249Y-125214630D01*
X142088546Y-125204411D01*
X142024132Y-125177345D01*
X141984576Y-125119750D01*
X141982439Y-125049913D01*
X142018397Y-124990006D01*
X142037152Y-124975764D01*
X142061568Y-124960646D01*
X142118722Y-124925258D01*
X142276841Y-124781114D01*
X142405781Y-124610370D01*
X142501151Y-124418840D01*
X142501151Y-124418837D01*
X142501153Y-124418835D01*
X142559703Y-124213050D01*
X142559704Y-124213047D01*
X142566529Y-124139395D01*
X142592315Y-124074457D01*
X142649116Y-124033770D01*
X142718897Y-124030250D01*
X142779503Y-124065015D01*
X142811693Y-124127028D01*
X142813471Y-124139395D01*
X142820295Y-124213047D01*
X142820296Y-124213050D01*
X142878846Y-124418835D01*
X142878849Y-124418841D01*
X142952978Y-124567712D01*
X142974219Y-124610370D01*
X143103159Y-124781114D01*
X143261278Y-124925258D01*
X143261283Y-124925261D01*
X143261285Y-124925263D01*
X143318432Y-124960646D01*
X143365068Y-125012673D01*
X143376172Y-125081655D01*
X143370197Y-125107027D01*
X143338897Y-125196477D01*
X143338895Y-125196485D01*
X143318700Y-125375731D01*
X143318700Y-125375738D01*
X143338895Y-125554984D01*
X143338896Y-125554989D01*
X143398476Y-125725258D01*
X143494449Y-125877997D01*
X143622003Y-126005551D01*
X143774743Y-126101524D01*
X143945010Y-126161103D01*
X143945011Y-126161103D01*
X143949778Y-126162771D01*
X144006554Y-126203493D01*
X144032302Y-126268445D01*
X144018846Y-126337007D01*
X143973922Y-126385351D01*
X143856656Y-126457682D01*
X143732683Y-126581655D01*
X143732680Y-126581659D01*
X143640645Y-126730869D01*
X143640640Y-126730880D01*
X143585494Y-126897302D01*
X143575000Y-127000013D01*
X143575000Y-127250000D01*
X147224999Y-127250000D01*
X147224999Y-127000028D01*
X147224998Y-127000013D01*
X147214505Y-126897303D01*
X147214505Y-126897301D01*
X147159359Y-126730880D01*
X147159354Y-126730869D01*
X147067319Y-126581659D01*
X147067316Y-126581655D01*
X146943344Y-126457683D01*
X146943340Y-126457680D01*
X146794130Y-126365645D01*
X146794119Y-126365640D01*
X146627697Y-126310494D01*
X146524986Y-126300000D01*
X146410520Y-126300000D01*
X146343481Y-126280315D01*
X146297726Y-126227511D01*
X146287300Y-126162117D01*
X146305565Y-126000000D01*
X146305565Y-125999996D01*
X146285369Y-125820750D01*
X146285368Y-125820745D01*
X146225789Y-125650478D01*
X146129816Y-125497738D01*
X146002262Y-125370184D01*
X145985259Y-125359500D01*
X145849523Y-125274211D01*
X145679254Y-125214631D01*
X145679249Y-125214630D01*
X145500004Y-125194435D01*
X145499996Y-125194435D01*
X145320750Y-125214630D01*
X145320745Y-125214631D01*
X145150476Y-125274211D01*
X145100832Y-125305405D01*
X145033595Y-125324405D01*
X144966760Y-125304037D01*
X144921546Y-125250769D01*
X144911640Y-125214294D01*
X144909633Y-125196480D01*
X144850054Y-125026213D01*
X144808855Y-124960646D01*
X144795191Y-124938899D01*
X144776191Y-124871662D01*
X144796559Y-124804827D01*
X144813093Y-124785457D01*
X144812978Y-124785352D01*
X144816197Y-124781820D01*
X144816658Y-124781280D01*
X144816841Y-124781114D01*
X144945781Y-124610370D01*
X145041151Y-124418840D01*
X145041151Y-124418837D01*
X145041153Y-124418835D01*
X145099703Y-124213050D01*
X145099704Y-124213047D01*
X145106529Y-124139395D01*
X145132315Y-124074457D01*
X145189116Y-124033770D01*
X145258897Y-124030250D01*
X145319503Y-124065015D01*
X145351693Y-124127028D01*
X145353471Y-124139395D01*
X145360295Y-124213047D01*
X145360296Y-124213050D01*
X145418846Y-124418835D01*
X145418849Y-124418841D01*
X145492978Y-124567712D01*
X145514219Y-124610370D01*
X145643159Y-124781114D01*
X145801278Y-124925258D01*
X145801283Y-124925261D01*
X145801286Y-124925263D01*
X145983186Y-125037891D01*
X145983187Y-125037891D01*
X145983190Y-125037893D01*
X146182703Y-125115185D01*
X146393020Y-125154500D01*
X146393022Y-125154500D01*
X146606978Y-125154500D01*
X146606980Y-125154500D01*
X146817297Y-125115185D01*
X147016810Y-125037893D01*
X147198722Y-124925258D01*
X147356841Y-124781114D01*
X147485781Y-124610370D01*
X147581151Y-124418840D01*
X147593415Y-124375733D01*
X147630694Y-124316641D01*
X147694003Y-124287083D01*
X147763243Y-124296444D01*
X147816430Y-124341754D01*
X147817673Y-124343692D01*
X147870184Y-124427262D01*
X147997738Y-124554816D01*
X148150478Y-124650789D01*
X148227037Y-124677578D01*
X148320745Y-124710368D01*
X148320749Y-124710369D01*
X148367577Y-124715645D01*
X148431991Y-124742711D01*
X148471546Y-124800306D01*
X148473684Y-124870142D01*
X148441376Y-124926546D01*
X148370183Y-124997739D01*
X148274211Y-125150476D01*
X148214631Y-125320745D01*
X148214630Y-125320750D01*
X148194435Y-125499996D01*
X148194435Y-125500000D01*
X148214630Y-125679249D01*
X148214631Y-125679254D01*
X148274211Y-125849523D01*
X148292103Y-125877997D01*
X148370184Y-126002262D01*
X148497738Y-126129816D01*
X148650478Y-126225789D01*
X148820745Y-126285368D01*
X148828861Y-126286282D01*
X148893275Y-126313348D01*
X148932831Y-126370942D01*
X148933275Y-126372587D01*
X148935000Y-126377795D01*
X148935001Y-126377797D01*
X148990186Y-126544334D01*
X149082288Y-126693656D01*
X149206344Y-126817712D01*
X149355666Y-126909814D01*
X149522203Y-126964999D01*
X149624991Y-126975500D01*
X150400008Y-126975499D01*
X150400016Y-126975498D01*
X150400019Y-126975498D01*
X150456302Y-126969748D01*
X150502797Y-126964999D01*
X150669334Y-126909814D01*
X150818656Y-126817712D01*
X150818657Y-126817710D01*
X150824803Y-126813920D01*
X150826218Y-126816214D01*
X150879418Y-126794730D01*
X150905454Y-126794911D01*
X150988497Y-126804268D01*
X150999999Y-126805565D01*
X151000000Y-126805565D01*
X151000003Y-126805565D01*
X151183234Y-126784920D01*
X151252055Y-126796974D01*
X151275334Y-126813671D01*
X151275993Y-126812839D01*
X151281653Y-126817315D01*
X151430875Y-126909356D01*
X151430880Y-126909358D01*
X151597302Y-126964505D01*
X151597309Y-126964506D01*
X151700019Y-126974999D01*
X151837499Y-126974999D01*
X152337500Y-126974999D01*
X152474972Y-126974999D01*
X152474986Y-126974998D01*
X152577697Y-126964505D01*
X152744119Y-126909358D01*
X152744124Y-126909356D01*
X152893345Y-126817315D01*
X153017315Y-126693345D01*
X153109356Y-126544124D01*
X153109358Y-126544119D01*
X153164505Y-126377697D01*
X153164506Y-126377690D01*
X153174999Y-126274986D01*
X153175000Y-126274973D01*
X153175000Y-126000000D01*
X152337500Y-126000000D01*
X152337500Y-126974999D01*
X151837499Y-126974999D01*
X151837500Y-126974998D01*
X151837500Y-125500000D01*
X152337500Y-125500000D01*
X153174999Y-125500000D01*
X153174999Y-125225028D01*
X153174998Y-125225013D01*
X153164505Y-125122302D01*
X153109358Y-124955880D01*
X153109356Y-124955875D01*
X153017315Y-124806654D01*
X152923342Y-124712681D01*
X152889857Y-124651358D01*
X152894841Y-124581666D01*
X152923342Y-124537319D01*
X153017315Y-124443345D01*
X153109356Y-124294124D01*
X153109358Y-124294119D01*
X153164505Y-124127697D01*
X153164506Y-124127690D01*
X153174999Y-124024986D01*
X153175000Y-124024973D01*
X153175000Y-123750000D01*
X152337500Y-123750000D01*
X152337500Y-125500000D01*
X151837500Y-125500000D01*
X151837500Y-123250000D01*
X152337500Y-123250000D01*
X153174999Y-123250000D01*
X153174999Y-122975028D01*
X153174998Y-122975013D01*
X153164505Y-122872302D01*
X153109358Y-122705880D01*
X153109356Y-122705875D01*
X153017315Y-122556654D01*
X152893345Y-122432684D01*
X152744124Y-122340643D01*
X152744119Y-122340641D01*
X152577697Y-122285494D01*
X152577690Y-122285493D01*
X152474986Y-122275000D01*
X152337500Y-122275000D01*
X152337500Y-123250000D01*
X151837500Y-123250000D01*
X151837500Y-122275000D01*
X151700027Y-122275000D01*
X151700012Y-122275001D01*
X151597302Y-122285494D01*
X151430880Y-122340641D01*
X151430875Y-122340643D01*
X151281654Y-122432684D01*
X151157683Y-122556655D01*
X151157679Y-122556660D01*
X151155826Y-122559665D01*
X151154018Y-122561290D01*
X151153202Y-122562323D01*
X151153025Y-122562183D01*
X151103874Y-122606385D01*
X151034911Y-122617601D01*
X150970831Y-122589752D01*
X150944753Y-122559653D01*
X150944737Y-122559628D01*
X150942712Y-122556344D01*
X150818656Y-122432288D01*
X150703671Y-122361365D01*
X150656948Y-122309418D01*
X150645725Y-122240455D01*
X150673569Y-122176373D01*
X150681078Y-122168156D01*
X151358506Y-121490727D01*
X151358511Y-121490724D01*
X151368714Y-121480520D01*
X151368716Y-121480520D01*
X151480520Y-121368716D01*
X151546370Y-121254660D01*
X151559577Y-121231785D01*
X151600501Y-121079057D01*
X151600501Y-120920943D01*
X151600501Y-120913348D01*
X151600500Y-120913330D01*
X151600500Y-120582412D01*
X151606454Y-120562135D01*
X153649500Y-120562135D01*
X153649500Y-122357870D01*
X153649501Y-122357876D01*
X153655908Y-122417483D01*
X153706202Y-122552328D01*
X153706206Y-122552335D01*
X153792452Y-122667544D01*
X153792455Y-122667547D01*
X153907664Y-122753793D01*
X153907671Y-122753797D01*
X153907674Y-122753798D01*
X154039598Y-122803002D01*
X154095531Y-122844873D01*
X154119949Y-122910337D01*
X154105098Y-122978610D01*
X154083947Y-123006865D01*
X153961886Y-123128926D01*
X153826400Y-123322420D01*
X153826399Y-123322422D01*
X153726570Y-123536507D01*
X153726567Y-123536513D01*
X153669364Y-123749999D01*
X153669364Y-123750000D01*
X154566988Y-123750000D01*
X154534075Y-123807007D01*
X154500000Y-123934174D01*
X154500000Y-124065826D01*
X154534075Y-124192993D01*
X154566988Y-124250000D01*
X153669364Y-124250000D01*
X153726567Y-124463486D01*
X153726570Y-124463492D01*
X153826399Y-124677578D01*
X153961894Y-124871082D01*
X154128917Y-125038105D01*
X154322421Y-125173600D01*
X154536507Y-125273429D01*
X154536516Y-125273433D01*
X154750000Y-125330634D01*
X154750000Y-124433012D01*
X154807007Y-124465925D01*
X154934174Y-124500000D01*
X155065826Y-124500000D01*
X155192993Y-124465925D01*
X155250000Y-124433012D01*
X155250000Y-125330633D01*
X155463483Y-125273433D01*
X155463492Y-125273429D01*
X155677578Y-125173600D01*
X155871082Y-125038105D01*
X156038105Y-124871082D01*
X156173600Y-124677578D01*
X156273429Y-124463492D01*
X156273432Y-124463486D01*
X156330636Y-124250000D01*
X155433012Y-124250000D01*
X155465925Y-124192993D01*
X155500000Y-124065826D01*
X155500000Y-123934174D01*
X155465925Y-123807007D01*
X155433012Y-123750000D01*
X156330636Y-123750000D01*
X156330635Y-123749999D01*
X156273432Y-123536513D01*
X156273429Y-123536507D01*
X156173600Y-123322422D01*
X156173599Y-123322420D01*
X156038113Y-123128926D01*
X156038108Y-123128920D01*
X155916053Y-123006865D01*
X155882568Y-122945542D01*
X155887552Y-122875850D01*
X155929424Y-122819917D01*
X155960400Y-122803002D01*
X156092331Y-122753796D01*
X156207546Y-122667546D01*
X156293796Y-122552331D01*
X156344091Y-122417483D01*
X156350500Y-122357873D01*
X156350499Y-120562128D01*
X156344697Y-120508158D01*
X156344091Y-120502516D01*
X156293797Y-120367671D01*
X156293793Y-120367664D01*
X156207547Y-120252455D01*
X156207544Y-120252452D01*
X156092335Y-120166206D01*
X156092328Y-120166202D01*
X155957482Y-120115908D01*
X155957483Y-120115908D01*
X155897883Y-120109501D01*
X155897881Y-120109500D01*
X155897873Y-120109500D01*
X155897864Y-120109500D01*
X154102129Y-120109500D01*
X154102123Y-120109501D01*
X154042516Y-120115908D01*
X153907671Y-120166202D01*
X153907664Y-120166206D01*
X153792455Y-120252452D01*
X153792452Y-120252455D01*
X153706206Y-120367664D01*
X153706202Y-120367671D01*
X153655908Y-120502517D01*
X153652784Y-120531578D01*
X153649501Y-120562123D01*
X153649500Y-120562135D01*
X151606454Y-120562135D01*
X151620185Y-120515373D01*
X151627555Y-120505097D01*
X151629810Y-120502267D01*
X151629816Y-120502262D01*
X151725789Y-120349522D01*
X151785368Y-120179255D01*
X151785369Y-120179249D01*
X151805565Y-120000003D01*
X151805565Y-119999996D01*
X151785369Y-119820750D01*
X151785368Y-119820745D01*
X151779766Y-119804735D01*
X151725789Y-119650478D01*
X151720554Y-119642147D01*
X151658713Y-119543727D01*
X151629816Y-119497738D01*
X151502262Y-119370184D01*
X151349523Y-119274211D01*
X151179254Y-119214631D01*
X151179249Y-119214630D01*
X151000004Y-119194435D01*
X150999996Y-119194435D01*
X150820750Y-119214630D01*
X150820745Y-119214631D01*
X150650476Y-119274211D01*
X150497737Y-119370184D01*
X150370184Y-119497737D01*
X150274211Y-119650476D01*
X150214631Y-119820745D01*
X150214630Y-119820750D01*
X150194435Y-119999996D01*
X150194435Y-120000003D01*
X150214630Y-120179249D01*
X150214631Y-120179254D01*
X150274211Y-120349523D01*
X150333633Y-120444091D01*
X150360124Y-120486252D01*
X150370185Y-120502263D01*
X150372445Y-120505097D01*
X150373334Y-120507275D01*
X150373889Y-120508158D01*
X150373734Y-120508255D01*
X150398855Y-120569783D01*
X150399500Y-120582412D01*
X150399500Y-120699902D01*
X150379815Y-120766941D01*
X150363181Y-120787583D01*
X149531981Y-121618782D01*
X149531979Y-121618784D01*
X149509958Y-121656926D01*
X149500651Y-121673048D01*
X149452923Y-121755715D01*
X149411999Y-121908443D01*
X149411999Y-121908445D01*
X149411999Y-122076546D01*
X149412000Y-122076559D01*
X149412000Y-122236232D01*
X149392315Y-122303271D01*
X149353098Y-122341769D01*
X149282584Y-122385263D01*
X149206342Y-122432289D01*
X149082289Y-122556342D01*
X148990187Y-122705663D01*
X148990186Y-122705666D01*
X148954057Y-122814696D01*
X148914284Y-122872140D01*
X148852545Y-122898629D01*
X148845948Y-122899497D01*
X148772380Y-122919210D01*
X148751718Y-122924746D01*
X148681869Y-122923084D01*
X148624006Y-122883922D01*
X148596502Y-122819694D01*
X148608088Y-122750791D01*
X148631943Y-122717292D01*
X148650520Y-122698716D01*
X148729577Y-122561784D01*
X148770501Y-122409057D01*
X148770501Y-122250942D01*
X148770501Y-122243347D01*
X148770500Y-122243329D01*
X148770500Y-116697812D01*
X148790185Y-116630773D01*
X148842989Y-116585018D01*
X148878317Y-116574873D01*
X148984845Y-116560850D01*
X148984849Y-116560848D01*
X148984854Y-116560848D01*
X149123331Y-116503489D01*
X149242244Y-116412244D01*
X149333489Y-116293331D01*
X149390848Y-116154854D01*
X149394780Y-116124986D01*
X150325001Y-116124986D01*
X150335494Y-116227697D01*
X150390641Y-116394119D01*
X150390643Y-116394124D01*
X150482684Y-116543345D01*
X150606654Y-116667315D01*
X150755875Y-116759356D01*
X150755880Y-116759358D01*
X150922302Y-116814505D01*
X150922309Y-116814506D01*
X151025019Y-116824999D01*
X151299999Y-116824999D01*
X151300000Y-116824998D01*
X151300000Y-115987500D01*
X150325001Y-115987500D01*
X150325001Y-116124986D01*
X149394780Y-116124986D01*
X149405500Y-116043561D01*
X149405499Y-115556440D01*
X149390848Y-115445146D01*
X149390847Y-115445143D01*
X149388744Y-115437292D01*
X149390658Y-115436779D01*
X149384332Y-115377997D01*
X149388815Y-115362728D01*
X149388744Y-115362709D01*
X149390847Y-115354858D01*
X149390848Y-115354854D01*
X149405500Y-115243561D01*
X149405499Y-114756440D01*
X149390848Y-114645146D01*
X149390847Y-114645143D01*
X149388744Y-114637292D01*
X149390658Y-114636779D01*
X149384332Y-114577997D01*
X149388815Y-114562728D01*
X149388744Y-114562709D01*
X149390847Y-114554858D01*
X149392044Y-114545769D01*
X149405500Y-114443561D01*
X149405499Y-113956440D01*
X149390848Y-113845146D01*
X149390847Y-113845143D01*
X149388744Y-113837292D01*
X149390658Y-113836779D01*
X149384332Y-113777997D01*
X149388815Y-113762728D01*
X149388744Y-113762709D01*
X149390847Y-113754858D01*
X149399105Y-113692134D01*
X149405500Y-113643561D01*
X149405499Y-113156440D01*
X149390848Y-113045146D01*
X149390847Y-113045143D01*
X149388744Y-113037292D01*
X149390658Y-113036779D01*
X149384332Y-112977997D01*
X149388815Y-112962728D01*
X149388744Y-112962709D01*
X149390847Y-112954858D01*
X149390848Y-112954854D01*
X149405500Y-112843561D01*
X149405499Y-112356440D01*
X149402310Y-112332219D01*
X149401056Y-112322693D01*
X149390848Y-112245146D01*
X149390847Y-112245143D01*
X149388744Y-112237292D01*
X149390658Y-112236779D01*
X149384332Y-112177997D01*
X149388815Y-112162728D01*
X149388744Y-112162709D01*
X149390847Y-112154858D01*
X149390848Y-112154854D01*
X149405500Y-112043561D01*
X149405499Y-111589438D01*
X149425183Y-111522400D01*
X149477987Y-111476645D01*
X149547146Y-111466701D01*
X149610702Y-111495726D01*
X149617180Y-111501758D01*
X149617684Y-111502262D01*
X149745238Y-111629816D01*
X149779788Y-111651525D01*
X149881464Y-111715413D01*
X149897978Y-111725789D01*
X150020659Y-111768717D01*
X150068245Y-111785368D01*
X150068250Y-111785369D01*
X150247496Y-111805565D01*
X150247500Y-111805565D01*
X150247504Y-111805565D01*
X150426749Y-111785369D01*
X150426752Y-111785368D01*
X150426755Y-111785368D01*
X150597022Y-111725789D01*
X150749762Y-111629816D01*
X150868508Y-111511069D01*
X150929827Y-111477587D01*
X150995187Y-111481046D01*
X151022203Y-111489999D01*
X151124992Y-111500500D01*
X151124997Y-111500500D01*
X152475003Y-111500500D01*
X152475008Y-111500500D01*
X152577797Y-111489999D01*
X152744334Y-111434814D01*
X152810403Y-111394061D01*
X152877795Y-111375621D01*
X152944458Y-111396543D01*
G37*
%TD.AperFunction*%
%TA.AperFunction,Conductor*%
G36*
X132705703Y-128944298D02*
G01*
X132736882Y-128985606D01*
X132826399Y-129177578D01*
X132961894Y-129371082D01*
X133128917Y-129538105D01*
X133322421Y-129673600D01*
X133536507Y-129773429D01*
X133536516Y-129773433D01*
X133750000Y-129830634D01*
X133750000Y-128933012D01*
X133807007Y-128965925D01*
X133934174Y-129000000D01*
X134065826Y-129000000D01*
X134192993Y-128965925D01*
X134250000Y-128933012D01*
X134250000Y-129830633D01*
X134463483Y-129773433D01*
X134463492Y-129773429D01*
X134677578Y-129673600D01*
X134871082Y-129538105D01*
X135038105Y-129371082D01*
X135173925Y-129177114D01*
X135228503Y-129133489D01*
X135298001Y-129126297D01*
X135360356Y-129157819D01*
X135395769Y-129218049D01*
X135399500Y-129248238D01*
X135399500Y-132648428D01*
X135379815Y-132715467D01*
X135327011Y-132761222D01*
X135257853Y-132771166D01*
X135201189Y-132747695D01*
X135158138Y-132715467D01*
X135092331Y-132666204D01*
X135092329Y-132666203D01*
X135092328Y-132666202D01*
X134957482Y-132615908D01*
X134957483Y-132615908D01*
X134897883Y-132609501D01*
X134897881Y-132609500D01*
X134897873Y-132609500D01*
X134897864Y-132609500D01*
X133102129Y-132609500D01*
X133102123Y-132609501D01*
X133042516Y-132615908D01*
X132907671Y-132666202D01*
X132907664Y-132666206D01*
X132792455Y-132752452D01*
X132792452Y-132752455D01*
X132723766Y-132844208D01*
X132667832Y-132886079D01*
X132598141Y-132891063D01*
X132536818Y-132857577D01*
X132503334Y-132796254D01*
X132500500Y-132769897D01*
X132500500Y-129038011D01*
X132520185Y-128970972D01*
X132572989Y-128925217D01*
X132642147Y-128915273D01*
X132705703Y-128944298D01*
G37*
%TD.AperFunction*%
%TA.AperFunction,Conductor*%
G36*
X141313020Y-125154500D02*
G01*
X141313022Y-125154500D01*
X141414060Y-125154500D01*
X141481099Y-125174185D01*
X141526854Y-125226989D01*
X141536798Y-125296147D01*
X141507773Y-125359703D01*
X141501741Y-125366181D01*
X141370184Y-125497737D01*
X141274211Y-125650476D01*
X141214631Y-125820745D01*
X141214630Y-125820750D01*
X141194435Y-125999996D01*
X141194435Y-126000000D01*
X141212644Y-126161617D01*
X141200589Y-126230439D01*
X141153240Y-126281818D01*
X141089424Y-126299500D01*
X140374980Y-126299500D01*
X140270367Y-126310188D01*
X140201674Y-126297419D01*
X140150790Y-126249538D01*
X140133869Y-126181748D01*
X140156285Y-126115572D01*
X140170078Y-126099155D01*
X141099746Y-125169487D01*
X141161067Y-125136004D01*
X141210210Y-125135281D01*
X141313020Y-125154500D01*
G37*
%TD.AperFunction*%
%TA.AperFunction,Conductor*%
G36*
X132705703Y-120229785D02*
G01*
X132723764Y-120249183D01*
X132767454Y-120307546D01*
X132767457Y-120307548D01*
X132882664Y-120393793D01*
X132882671Y-120393797D01*
X133017517Y-120444091D01*
X133017516Y-120444091D01*
X133024444Y-120444835D01*
X133077127Y-120450500D01*
X134872872Y-120450499D01*
X134932483Y-120444091D01*
X135067331Y-120393796D01*
X135182546Y-120307546D01*
X135223761Y-120252488D01*
X135279693Y-120210620D01*
X135349384Y-120205636D01*
X135388996Y-120221807D01*
X135401692Y-120229785D01*
X135484833Y-120282027D01*
X135484836Y-120282028D01*
X135655103Y-120341607D01*
X135718594Y-120348760D01*
X135783005Y-120375825D01*
X135809702Y-120406007D01*
X135870182Y-120502260D01*
X135870184Y-120502262D01*
X135997738Y-120629816D01*
X136150478Y-120725789D01*
X136268084Y-120766941D01*
X136320745Y-120785368D01*
X136320750Y-120785369D01*
X136402150Y-120794540D01*
X136466565Y-120821606D01*
X136475949Y-120830079D01*
X140020636Y-124374766D01*
X140054121Y-124436089D01*
X140049137Y-124505781D01*
X140020636Y-124550128D01*
X139207584Y-125363181D01*
X139146261Y-125396666D01*
X139119903Y-125399500D01*
X138838733Y-125399500D01*
X138771694Y-125379815D01*
X138725939Y-125327011D01*
X138721028Y-125314506D01*
X138711982Y-125287209D01*
X138709814Y-125280666D01*
X138617712Y-125131344D01*
X138493656Y-125007288D01*
X138360672Y-124925263D01*
X138344336Y-124915187D01*
X138344331Y-124915185D01*
X138342862Y-124914698D01*
X138177797Y-124860001D01*
X138177795Y-124860000D01*
X138075010Y-124849500D01*
X136724998Y-124849500D01*
X136724981Y-124849501D01*
X136622203Y-124860000D01*
X136622200Y-124860001D01*
X136455668Y-124915185D01*
X136455663Y-124915187D01*
X136306342Y-125007289D01*
X136182289Y-125131342D01*
X136090187Y-125280663D01*
X136087136Y-125287209D01*
X136084344Y-125285907D01*
X136052410Y-125331986D01*
X135987882Y-125358778D01*
X135974522Y-125359500D01*
X135474499Y-125359500D01*
X135407460Y-125339815D01*
X135361705Y-125287011D01*
X135350499Y-125235500D01*
X135350499Y-125062129D01*
X135350498Y-125062123D01*
X135347916Y-125038105D01*
X135344091Y-125002517D01*
X135315276Y-124925261D01*
X135293797Y-124867671D01*
X135293793Y-124867664D01*
X135207547Y-124752455D01*
X135207544Y-124752452D01*
X135092335Y-124666206D01*
X135092328Y-124666202D01*
X134957482Y-124615908D01*
X134957483Y-124615908D01*
X134897883Y-124609501D01*
X134897881Y-124609500D01*
X134897873Y-124609500D01*
X134897864Y-124609500D01*
X133102129Y-124609500D01*
X133102123Y-124609501D01*
X133042516Y-124615908D01*
X132907671Y-124666202D01*
X132907664Y-124666206D01*
X132792455Y-124752452D01*
X132792452Y-124752455D01*
X132723766Y-124844208D01*
X132667832Y-124886079D01*
X132598141Y-124891063D01*
X132536818Y-124857577D01*
X132503334Y-124796254D01*
X132500500Y-124769897D01*
X132500500Y-120323498D01*
X132520185Y-120256459D01*
X132572989Y-120210704D01*
X132642147Y-120200760D01*
X132705703Y-120229785D01*
G37*
%TD.AperFunction*%
%TA.AperFunction,Conductor*%
G36*
X142779252Y-121522308D02*
G01*
X142811442Y-121584321D01*
X142813220Y-121596687D01*
X142820296Y-121673048D01*
X142829243Y-121704494D01*
X142878846Y-121878835D01*
X142878849Y-121878840D01*
X142974219Y-122070370D01*
X143103159Y-122241114D01*
X143261278Y-122385258D01*
X143261283Y-122385261D01*
X143261286Y-122385263D01*
X143443186Y-122497891D01*
X143443187Y-122497891D01*
X143443190Y-122497893D01*
X143642703Y-122575185D01*
X143818845Y-122608111D01*
X143881125Y-122639779D01*
X143916398Y-122700092D01*
X143913464Y-122769900D01*
X143873255Y-122827040D01*
X143818845Y-122851888D01*
X143642703Y-122884815D01*
X143543920Y-122923084D01*
X143443192Y-122962106D01*
X143443186Y-122962108D01*
X143261286Y-123074736D01*
X143261283Y-123074738D01*
X143261279Y-123074740D01*
X143261278Y-123074742D01*
X143201841Y-123128926D01*
X143103158Y-123218887D01*
X142974219Y-123389629D01*
X142878849Y-123581158D01*
X142878846Y-123581164D01*
X142820296Y-123786949D01*
X142820295Y-123786952D01*
X142813471Y-123860604D01*
X142787685Y-123925542D01*
X142730884Y-123966229D01*
X142661103Y-123969749D01*
X142600497Y-123934984D01*
X142568307Y-123872971D01*
X142566529Y-123860604D01*
X142559704Y-123786952D01*
X142559703Y-123786949D01*
X142501153Y-123581164D01*
X142501150Y-123581158D01*
X142497714Y-123574257D01*
X142405781Y-123389630D01*
X142276841Y-123218886D01*
X142118722Y-123074742D01*
X142118716Y-123074738D01*
X142118713Y-123074736D01*
X141936813Y-122962108D01*
X141936807Y-122962106D01*
X141737297Y-122884815D01*
X141602395Y-122859597D01*
X141559795Y-122851634D01*
X141497514Y-122819965D01*
X141462241Y-122759653D01*
X141465175Y-122689845D01*
X141505384Y-122632705D01*
X141559795Y-122607856D01*
X141737163Y-122574700D01*
X141936585Y-122497444D01*
X141936589Y-122497442D01*
X142039911Y-122433466D01*
X142039911Y-122433465D01*
X141466446Y-121860000D01*
X141472661Y-121860000D01*
X141574394Y-121832741D01*
X141665606Y-121780080D01*
X141740080Y-121705606D01*
X141792741Y-121614394D01*
X141820000Y-121512661D01*
X141820000Y-121506446D01*
X142396018Y-122082464D01*
X142396019Y-122082464D01*
X142405352Y-122070107D01*
X142405355Y-122070102D01*
X142500678Y-121878669D01*
X142500684Y-121878654D01*
X142559210Y-121672956D01*
X142559211Y-121672954D01*
X142566278Y-121596688D01*
X142592064Y-121531751D01*
X142648864Y-121491063D01*
X142718645Y-121487543D01*
X142779252Y-121522308D01*
G37*
%TD.AperFunction*%
%TA.AperFunction,Conductor*%
G36*
X140183976Y-119520185D02*
G01*
X140229731Y-119572989D01*
X140239675Y-119642147D01*
X140233978Y-119665455D01*
X140214633Y-119720737D01*
X140214630Y-119720749D01*
X140196439Y-119882206D01*
X140169372Y-119946620D01*
X140111778Y-119986175D01*
X140041941Y-119988312D01*
X140007247Y-119973316D01*
X139849523Y-119874211D01*
X139679254Y-119814631D01*
X139679249Y-119814630D01*
X139500004Y-119794435D01*
X139499996Y-119794435D01*
X139320750Y-119814630D01*
X139320745Y-119814631D01*
X139150476Y-119874211D01*
X138997737Y-119970184D01*
X138870184Y-120097737D01*
X138774211Y-120250476D01*
X138714631Y-120420745D01*
X138714630Y-120420750D01*
X138694435Y-120599996D01*
X138694435Y-120600003D01*
X138714630Y-120779249D01*
X138714631Y-120779254D01*
X138774211Y-120949523D01*
X138843629Y-121060000D01*
X138870184Y-121102262D01*
X138997738Y-121229816D01*
X139150478Y-121325789D01*
X139273159Y-121368717D01*
X139320745Y-121385368D01*
X139320750Y-121385369D01*
X139499996Y-121405565D01*
X139500000Y-121405565D01*
X139500004Y-121405565D01*
X139679249Y-121385369D01*
X139679252Y-121385368D01*
X139679255Y-121385368D01*
X139679256Y-121385367D01*
X139679259Y-121385367D01*
X139700544Y-121377919D01*
X139770323Y-121374356D01*
X139830951Y-121409085D01*
X139863178Y-121471078D01*
X139865500Y-121494960D01*
X139865500Y-122221798D01*
X139845815Y-122288837D01*
X139793011Y-122334592D01*
X139723853Y-122344536D01*
X139660297Y-122315511D01*
X139653819Y-122309479D01*
X137331322Y-119986982D01*
X137297837Y-119925659D01*
X137295783Y-119913183D01*
X137285369Y-119820750D01*
X137285367Y-119820742D01*
X137231030Y-119665454D01*
X137227469Y-119595676D01*
X137262198Y-119535048D01*
X137324191Y-119502821D01*
X137348072Y-119500500D01*
X140116937Y-119500500D01*
X140183976Y-119520185D01*
G37*
%TD.AperFunction*%
%TA.AperFunction,Conductor*%
G36*
X143688717Y-118114615D02*
G01*
X143698373Y-118125758D01*
X143773876Y-118224156D01*
X143799070Y-118289323D01*
X143799500Y-118299641D01*
X143799500Y-118516491D01*
X143779815Y-118583530D01*
X143763181Y-118604172D01*
X143304805Y-119062547D01*
X143243482Y-119096032D01*
X143231008Y-119098086D01*
X143144090Y-119107879D01*
X142973818Y-119167459D01*
X142821077Y-119263433D01*
X142693524Y-119390986D01*
X142597551Y-119543725D01*
X142537971Y-119713994D01*
X142537970Y-119713998D01*
X142529477Y-119789384D01*
X142502410Y-119853798D01*
X142444816Y-119893353D01*
X142406257Y-119899500D01*
X141916322Y-119899500D01*
X141849283Y-119879815D01*
X141803528Y-119827011D01*
X141793102Y-119789383D01*
X141785369Y-119720750D01*
X141785368Y-119720748D01*
X141785368Y-119720745D01*
X141725789Y-119550478D01*
X141629816Y-119397738D01*
X141580837Y-119348759D01*
X141547352Y-119287436D01*
X141552336Y-119217744D01*
X141580837Y-119173397D01*
X141925750Y-118828484D01*
X142330043Y-118424190D01*
X142391364Y-118390707D01*
X142436822Y-118391795D01*
X142437087Y-118389787D01*
X142445145Y-118390847D01*
X142445146Y-118390848D01*
X142556439Y-118405500D01*
X143043560Y-118405499D01*
X143154854Y-118390848D01*
X143154857Y-118390846D01*
X143162707Y-118388744D01*
X143163167Y-118390461D01*
X143222665Y-118384064D01*
X143237387Y-118388386D01*
X143237422Y-118388257D01*
X143245271Y-118390360D01*
X143350000Y-118404148D01*
X143350000Y-118351155D01*
X143369685Y-118284116D01*
X143398514Y-118252779D01*
X143412244Y-118242244D01*
X143501626Y-118125758D01*
X143558050Y-118084558D01*
X143627796Y-118080403D01*
X143688717Y-118114615D01*
G37*
%TD.AperFunction*%
%TA.AperFunction,Conductor*%
G36*
X145656463Y-113220185D02*
G01*
X145702218Y-113272989D01*
X145712644Y-113338383D01*
X145694435Y-113499996D01*
X145694435Y-113500003D01*
X145714630Y-113679249D01*
X145714631Y-113679254D01*
X145774211Y-113849523D01*
X145841391Y-113956438D01*
X145870184Y-114002262D01*
X145997738Y-114129816D01*
X146064600Y-114171828D01*
X146110891Y-114224163D01*
X146121539Y-114293216D01*
X146115673Y-114317767D01*
X146114632Y-114320742D01*
X146114631Y-114320746D01*
X146094435Y-114499996D01*
X146094435Y-114500003D01*
X146114630Y-114679249D01*
X146114633Y-114679262D01*
X146174209Y-114849520D01*
X146227309Y-114934029D01*
X146246309Y-115001266D01*
X146227309Y-115065971D01*
X146174209Y-115150479D01*
X146139822Y-115248753D01*
X146099101Y-115305529D01*
X146036665Y-115331018D01*
X145966750Y-115338895D01*
X145796478Y-115398475D01*
X145643737Y-115494449D01*
X145516184Y-115622002D01*
X145420212Y-115774740D01*
X145420211Y-115774741D01*
X145393367Y-115851456D01*
X145352644Y-115908232D01*
X145287691Y-115933978D01*
X145276326Y-115934500D01*
X144956437Y-115934500D01*
X144845153Y-115949150D01*
X144837300Y-115951255D01*
X144836788Y-115949345D01*
X144777969Y-115955662D01*
X144762723Y-115951185D01*
X144762705Y-115951256D01*
X144754855Y-115949152D01*
X144754854Y-115949152D01*
X144643561Y-115934500D01*
X144156437Y-115934500D01*
X144045146Y-115949151D01*
X144037299Y-115951254D01*
X144036840Y-115949541D01*
X143977303Y-115955930D01*
X143962607Y-115951614D01*
X143962573Y-115951742D01*
X143954726Y-115949639D01*
X143850000Y-115935850D01*
X143850000Y-115988844D01*
X143830315Y-116055883D01*
X143801487Y-116087220D01*
X143787758Y-116097754D01*
X143787757Y-116097755D01*
X143787756Y-116097756D01*
X143698376Y-116214239D01*
X143641948Y-116255441D01*
X143572202Y-116259596D01*
X143511281Y-116225383D01*
X143501624Y-116214239D01*
X143412244Y-116097756D01*
X143398512Y-116087219D01*
X143357311Y-116030792D01*
X143350000Y-115988844D01*
X143350000Y-115935850D01*
X143245278Y-115949638D01*
X143237430Y-115951742D01*
X143236877Y-115949678D01*
X143178613Y-115955930D01*
X143162563Y-115951216D01*
X143154858Y-115949152D01*
X143043561Y-115934500D01*
X142556437Y-115934500D01*
X142445153Y-115949150D01*
X142437300Y-115951255D01*
X142436788Y-115949345D01*
X142377969Y-115955662D01*
X142362723Y-115951185D01*
X142362705Y-115951256D01*
X142354855Y-115949152D01*
X142354854Y-115949152D01*
X142243561Y-115934500D01*
X141756437Y-115934500D01*
X141645153Y-115949150D01*
X141637300Y-115951255D01*
X141636788Y-115949345D01*
X141577969Y-115955662D01*
X141562723Y-115951185D01*
X141562705Y-115951256D01*
X141554855Y-115949152D01*
X141554854Y-115949152D01*
X141540942Y-115947320D01*
X141443568Y-115934500D01*
X141443561Y-115934500D01*
X141189499Y-115934500D01*
X141122460Y-115914815D01*
X141076705Y-115862011D01*
X141065499Y-115810500D01*
X141065499Y-115556438D01*
X141057338Y-115494449D01*
X141050848Y-115445146D01*
X141050847Y-115445143D01*
X141048744Y-115437292D01*
X141050658Y-115436779D01*
X141044332Y-115377997D01*
X141048815Y-115362728D01*
X141048744Y-115362709D01*
X141050847Y-115354858D01*
X141050848Y-115354854D01*
X141065500Y-115243561D01*
X141065499Y-114756440D01*
X141050848Y-114645146D01*
X141050847Y-114645143D01*
X141048744Y-114637292D01*
X141050658Y-114636779D01*
X141044332Y-114577997D01*
X141048815Y-114562728D01*
X141048744Y-114562709D01*
X141050847Y-114554858D01*
X141055556Y-114519095D01*
X141065500Y-114443561D01*
X141065499Y-114443559D01*
X141065819Y-114441136D01*
X141094085Y-114377239D01*
X141152410Y-114338768D01*
X141222274Y-114337937D01*
X141254730Y-114352328D01*
X141314689Y-114390003D01*
X141314693Y-114390004D01*
X141314694Y-114390005D01*
X141420451Y-114427011D01*
X141484961Y-114449584D01*
X141484966Y-114449585D01*
X141664212Y-114469781D01*
X141664216Y-114469781D01*
X141664220Y-114469781D01*
X141843465Y-114449585D01*
X141843468Y-114449584D01*
X141843471Y-114449584D01*
X142013738Y-114390005D01*
X142166478Y-114294032D01*
X142294032Y-114166478D01*
X142390005Y-114013738D01*
X142449584Y-113843471D01*
X142459377Y-113756545D01*
X142486442Y-113692134D01*
X142494896Y-113682769D01*
X142940850Y-113236816D01*
X143002172Y-113203334D01*
X143028530Y-113200500D01*
X145589424Y-113200500D01*
X145656463Y-113220185D01*
G37*
%TD.AperFunction*%
%TA.AperFunction,Conductor*%
G36*
X135524473Y-106260911D02*
G01*
X135539431Y-106273666D01*
X137263181Y-107997416D01*
X137296666Y-108058739D01*
X137299500Y-108085097D01*
X137299500Y-111313330D01*
X137299499Y-111313348D01*
X137299499Y-111479054D01*
X137299498Y-111479054D01*
X137311113Y-111522400D01*
X137339895Y-111629816D01*
X137340424Y-111631787D01*
X137351819Y-111651523D01*
X137351820Y-111651525D01*
X137419477Y-111768712D01*
X137419481Y-111768717D01*
X137538349Y-111887585D01*
X137538355Y-111887590D01*
X137815139Y-112164374D01*
X137815149Y-112164385D01*
X137819479Y-112168715D01*
X137819480Y-112168716D01*
X137921662Y-112270898D01*
X137955146Y-112332219D01*
X137950162Y-112401911D01*
X137921663Y-112446258D01*
X137870182Y-112497740D01*
X137834555Y-112554440D01*
X137782220Y-112600731D01*
X137713167Y-112611378D01*
X137681906Y-112602026D01*
X137681830Y-112602246D01*
X137677065Y-112600578D01*
X137675769Y-112600191D01*
X137675268Y-112599950D01*
X137504989Y-112540366D01*
X137504984Y-112540365D01*
X137325739Y-112520170D01*
X137325731Y-112520170D01*
X137146485Y-112540365D01*
X137146480Y-112540366D01*
X136976211Y-112599946D01*
X136823472Y-112695919D01*
X136695919Y-112823472D01*
X136599946Y-112976211D01*
X136540366Y-113146480D01*
X136540365Y-113146485D01*
X136520170Y-113325731D01*
X136520170Y-113325738D01*
X136540365Y-113504984D01*
X136540366Y-113504989D01*
X136599946Y-113675258D01*
X136656291Y-113764930D01*
X136695919Y-113827997D01*
X136823473Y-113955551D01*
X136976213Y-114051524D01*
X137086946Y-114090271D01*
X137153053Y-114113403D01*
X137152239Y-114115728D01*
X137203219Y-114144240D01*
X137236080Y-114205900D01*
X137231695Y-114271982D01*
X137214630Y-114320750D01*
X137206898Y-114389383D01*
X137179832Y-114453797D01*
X137122237Y-114493352D01*
X137083678Y-114499500D01*
X135406259Y-114499500D01*
X135339220Y-114479815D01*
X135293465Y-114427011D01*
X135283521Y-114357853D01*
X135286484Y-114343407D01*
X135295319Y-114310430D01*
X135310063Y-114255408D01*
X135330659Y-114020000D01*
X135310063Y-113784592D01*
X135248903Y-113556337D01*
X135149035Y-113342171D01*
X135137527Y-113325735D01*
X135013494Y-113148597D01*
X134846402Y-112981506D01*
X134846396Y-112981501D01*
X134660842Y-112851575D01*
X134617217Y-112796998D01*
X134610023Y-112727500D01*
X134641546Y-112665145D01*
X134660842Y-112648425D01*
X134730077Y-112599946D01*
X134846401Y-112518495D01*
X135013495Y-112351401D01*
X135149035Y-112157830D01*
X135248903Y-111943663D01*
X135310063Y-111715408D01*
X135330659Y-111480000D01*
X135330576Y-111479057D01*
X135316743Y-111320943D01*
X135310063Y-111244592D01*
X135248903Y-111016337D01*
X135149035Y-110802171D01*
X135013495Y-110608599D01*
X135013494Y-110608597D01*
X134846402Y-110441506D01*
X134846401Y-110441505D01*
X134660405Y-110311269D01*
X134616781Y-110256692D01*
X134609588Y-110187193D01*
X134641110Y-110124839D01*
X134660405Y-110108119D01*
X134846082Y-109978105D01*
X135013105Y-109811082D01*
X135148600Y-109617578D01*
X135248429Y-109403492D01*
X135248432Y-109403486D01*
X135305636Y-109190000D01*
X134408012Y-109190000D01*
X134440925Y-109132993D01*
X134475000Y-109005826D01*
X134475000Y-108874174D01*
X134440925Y-108747007D01*
X134408012Y-108690000D01*
X135305636Y-108690000D01*
X135305635Y-108689999D01*
X135248432Y-108476513D01*
X135248429Y-108476507D01*
X135148600Y-108262422D01*
X135148599Y-108262420D01*
X135013113Y-108068926D01*
X135013108Y-108068920D01*
X134846078Y-107901890D01*
X134660405Y-107771879D01*
X134616780Y-107717302D01*
X134609588Y-107647804D01*
X134641110Y-107585449D01*
X134660406Y-107568730D01*
X134846401Y-107438495D01*
X135013495Y-107271401D01*
X135149035Y-107077830D01*
X135248903Y-106863663D01*
X135310063Y-106635408D01*
X135330659Y-106400000D01*
X135328222Y-106372154D01*
X135341987Y-106303657D01*
X135390601Y-106253473D01*
X135458629Y-106237538D01*
X135524473Y-106260911D01*
G37*
%TD.AperFunction*%
%TA.AperFunction,Conductor*%
G36*
X148943039Y-95770185D02*
G01*
X148988794Y-95822989D01*
X149000000Y-95874500D01*
X149000000Y-100100000D01*
X150875500Y-100100000D01*
X150942539Y-100119685D01*
X150988294Y-100172489D01*
X150999500Y-100224000D01*
X150999500Y-101065891D01*
X151033608Y-101193187D01*
X151066554Y-101250250D01*
X151099500Y-101307314D01*
X151192686Y-101400500D01*
X151306814Y-101466392D01*
X151434108Y-101500500D01*
X152875500Y-101500500D01*
X152942539Y-101520185D01*
X152988294Y-101572989D01*
X152999500Y-101624500D01*
X152999500Y-106100399D01*
X152979815Y-106167438D01*
X152927011Y-106213193D01*
X152857853Y-106223137D01*
X152810403Y-106205938D01*
X152747985Y-106167438D01*
X152744334Y-106165186D01*
X152744333Y-106165185D01*
X152744332Y-106165185D01*
X152660329Y-106137349D01*
X152577797Y-106110001D01*
X152577795Y-106110000D01*
X152475015Y-106099500D01*
X152475008Y-106099500D01*
X151124992Y-106099500D01*
X151124984Y-106099500D01*
X151022204Y-106110000D01*
X151022203Y-106110001D01*
X150855664Y-106165186D01*
X150855662Y-106165187D01*
X150706348Y-106257286D01*
X150706344Y-106257289D01*
X150582289Y-106381344D01*
X150582286Y-106381348D01*
X150490187Y-106530662D01*
X150458395Y-106626604D01*
X150418622Y-106684048D01*
X150354575Y-106710819D01*
X150320750Y-106714630D01*
X150150478Y-106774210D01*
X149997737Y-106870184D01*
X149870184Y-106997737D01*
X149774211Y-107150476D01*
X149714631Y-107320745D01*
X149714630Y-107320750D01*
X149694435Y-107499996D01*
X149694435Y-107500001D01*
X149714630Y-107679249D01*
X149714631Y-107679254D01*
X149774211Y-107849523D01*
X149818241Y-107919596D01*
X149870184Y-108002262D01*
X149997738Y-108129816D01*
X150150478Y-108225789D01*
X150255169Y-108262422D01*
X150320745Y-108285368D01*
X150320750Y-108285369D01*
X150499996Y-108305565D01*
X150500000Y-108305565D01*
X150500002Y-108305565D01*
X150570257Y-108297649D01*
X150639079Y-108309703D01*
X150671822Y-108333188D01*
X150706344Y-108367710D01*
X150706348Y-108367713D01*
X150855662Y-108459812D01*
X150855664Y-108459813D01*
X150855666Y-108459814D01*
X151022203Y-108514999D01*
X151124992Y-108525500D01*
X151124997Y-108525500D01*
X152475003Y-108525500D01*
X152475008Y-108525500D01*
X152577797Y-108514999D01*
X152744334Y-108459814D01*
X152810403Y-108419061D01*
X152877795Y-108400621D01*
X152944458Y-108421543D01*
X152989228Y-108475185D01*
X152999500Y-108524600D01*
X152999500Y-109075399D01*
X152979815Y-109142438D01*
X152927011Y-109188193D01*
X152857853Y-109198137D01*
X152810403Y-109180938D01*
X152747985Y-109142438D01*
X152744334Y-109140186D01*
X152744333Y-109140185D01*
X152744332Y-109140185D01*
X152660329Y-109112349D01*
X152577797Y-109085001D01*
X152577795Y-109085000D01*
X152475015Y-109074500D01*
X152475008Y-109074500D01*
X151124992Y-109074500D01*
X151124984Y-109074500D01*
X151022204Y-109085000D01*
X151022203Y-109085001D01*
X150855664Y-109140186D01*
X150855662Y-109140187D01*
X150706348Y-109232286D01*
X150706342Y-109232291D01*
X150700361Y-109238272D01*
X150639037Y-109271754D01*
X150569345Y-109266767D01*
X150525003Y-109238268D01*
X148956340Y-107669605D01*
X148956337Y-107669601D01*
X148956337Y-107669602D01*
X148949270Y-107662535D01*
X148949270Y-107662534D01*
X148837466Y-107550730D01*
X148837465Y-107550729D01*
X148833135Y-107546399D01*
X148833124Y-107546389D01*
X146911818Y-105625083D01*
X146878333Y-105563760D01*
X146875499Y-105537402D01*
X146875499Y-104824998D01*
X146875498Y-104824981D01*
X146864999Y-104722203D01*
X146864998Y-104722200D01*
X146809814Y-104555666D01*
X146717712Y-104406344D01*
X146593656Y-104282288D01*
X146444334Y-104190186D01*
X146277797Y-104135001D01*
X146277795Y-104135000D01*
X146175010Y-104124500D01*
X145399998Y-104124500D01*
X145399980Y-104124501D01*
X145297203Y-104135000D01*
X145297200Y-104135001D01*
X145130668Y-104190185D01*
X145130663Y-104190187D01*
X144981342Y-104282289D01*
X144857288Y-104406343D01*
X144857283Y-104406349D01*
X144855241Y-104409661D01*
X144853247Y-104411453D01*
X144852807Y-104412011D01*
X144852711Y-104411935D01*
X144803291Y-104456383D01*
X144734328Y-104467602D01*
X144670247Y-104439755D01*
X144644168Y-104409656D01*
X144642319Y-104406659D01*
X144642316Y-104406655D01*
X144518345Y-104282684D01*
X144369124Y-104190643D01*
X144369119Y-104190641D01*
X144202697Y-104135494D01*
X144202690Y-104135493D01*
X144099986Y-104125000D01*
X143962500Y-104125000D01*
X143962500Y-106574999D01*
X144099972Y-106574999D01*
X144099986Y-106574998D01*
X144202697Y-106564505D01*
X144369119Y-106509358D01*
X144369130Y-106509353D01*
X144410403Y-106483896D01*
X144477795Y-106465455D01*
X144544459Y-106486377D01*
X144589229Y-106540019D01*
X144599500Y-106589434D01*
X144599500Y-107700357D01*
X144579815Y-107767396D01*
X144573876Y-107775843D01*
X144498375Y-107874238D01*
X144441947Y-107915441D01*
X144372201Y-107919596D01*
X144311281Y-107885384D01*
X144301624Y-107874239D01*
X144212244Y-107757756D01*
X144198512Y-107747219D01*
X144157311Y-107690792D01*
X144150000Y-107648844D01*
X144150000Y-107595850D01*
X144045278Y-107609638D01*
X144037430Y-107611742D01*
X144036877Y-107609678D01*
X143978613Y-107615930D01*
X143962563Y-107611216D01*
X143954858Y-107609152D01*
X143843561Y-107594500D01*
X143356437Y-107594500D01*
X143245146Y-107609151D01*
X143237299Y-107611254D01*
X143236840Y-107609541D01*
X143177303Y-107615930D01*
X143162607Y-107611614D01*
X143162573Y-107611742D01*
X143154726Y-107609639D01*
X143050000Y-107595850D01*
X143050000Y-107648844D01*
X143030315Y-107715883D01*
X143001487Y-107747220D01*
X142987758Y-107757754D01*
X142987757Y-107757755D01*
X142987756Y-107757756D01*
X142898376Y-107874239D01*
X142841948Y-107915441D01*
X142772202Y-107919596D01*
X142711281Y-107885383D01*
X142701624Y-107874239D01*
X142612244Y-107757756D01*
X142598512Y-107747219D01*
X142557311Y-107690792D01*
X142550000Y-107648844D01*
X142550000Y-107595850D01*
X142549999Y-107595850D01*
X142445040Y-107609670D01*
X142376005Y-107598905D01*
X142323749Y-107552525D01*
X142305634Y-107500614D01*
X142305564Y-107499996D01*
X142285368Y-107320745D01*
X142225789Y-107150478D01*
X142129816Y-106997738D01*
X142002262Y-106870184D01*
X142002081Y-106870070D01*
X141849523Y-106774211D01*
X141679254Y-106714631D01*
X141679249Y-106714630D01*
X141500004Y-106694435D01*
X141499996Y-106694435D01*
X141320750Y-106714630D01*
X141320745Y-106714631D01*
X141150476Y-106774211D01*
X140997737Y-106870184D01*
X140870184Y-106997737D01*
X140774210Y-107150478D01*
X140714630Y-107320750D01*
X140700877Y-107442812D01*
X140685044Y-107490928D01*
X140640424Y-107568211D01*
X140636434Y-107583098D01*
X140599499Y-107720943D01*
X140599499Y-107720945D01*
X140597396Y-107728794D01*
X140594609Y-107728047D01*
X140575855Y-107773263D01*
X140496511Y-107876668D01*
X140439152Y-108015145D01*
X140439152Y-108015146D01*
X140424500Y-108126431D01*
X140424500Y-109300500D01*
X140404815Y-109367539D01*
X140352011Y-109413294D01*
X140300500Y-109424500D01*
X139126437Y-109424500D01*
X139015153Y-109439150D01*
X139015145Y-109439152D01*
X138876670Y-109496510D01*
X138757753Y-109587758D01*
X138722875Y-109633213D01*
X138666447Y-109674416D01*
X138596701Y-109678570D01*
X138535781Y-109644357D01*
X138503029Y-109582639D01*
X138500500Y-109557726D01*
X138500500Y-107705944D01*
X138500499Y-107705940D01*
X138496980Y-107692805D01*
X138493875Y-107681216D01*
X138459577Y-107553215D01*
X138459575Y-107553212D01*
X138459575Y-107553210D01*
X138459574Y-107553209D01*
X138428854Y-107500001D01*
X138428852Y-107499999D01*
X138428850Y-107499996D01*
X138380520Y-107416284D01*
X138268716Y-107304480D01*
X138268715Y-107304479D01*
X138264385Y-107300149D01*
X138264374Y-107300139D01*
X136839221Y-105874986D01*
X142625001Y-105874986D01*
X142635494Y-105977697D01*
X142690641Y-106144119D01*
X142690643Y-106144124D01*
X142782684Y-106293345D01*
X142906654Y-106417315D01*
X143055875Y-106509356D01*
X143055880Y-106509358D01*
X143222302Y-106564505D01*
X143222309Y-106564506D01*
X143325019Y-106574999D01*
X143462499Y-106574999D01*
X143462500Y-106574998D01*
X143462500Y-105600000D01*
X142625001Y-105600000D01*
X142625001Y-105874986D01*
X136839221Y-105874986D01*
X135789248Y-104825013D01*
X142625000Y-104825013D01*
X142625000Y-105100000D01*
X143462500Y-105100000D01*
X143462500Y-104125000D01*
X143325027Y-104125000D01*
X143325012Y-104125001D01*
X143222302Y-104135494D01*
X143055880Y-104190641D01*
X143055875Y-104190643D01*
X142906654Y-104282684D01*
X142782684Y-104406654D01*
X142690643Y-104555875D01*
X142690641Y-104555880D01*
X142635494Y-104722302D01*
X142635493Y-104722309D01*
X142625000Y-104825013D01*
X135789248Y-104825013D01*
X135307766Y-104343531D01*
X135274281Y-104282208D01*
X135275672Y-104223757D01*
X135284667Y-104190186D01*
X135310063Y-104095408D01*
X135330659Y-103860000D01*
X135310063Y-103624592D01*
X135248903Y-103396337D01*
X135149035Y-103182171D01*
X135013495Y-102988599D01*
X135013494Y-102988597D01*
X134846402Y-102821506D01*
X134846395Y-102821501D01*
X134652834Y-102685967D01*
X134652830Y-102685965D01*
X134652828Y-102685964D01*
X134438663Y-102586097D01*
X134438659Y-102586096D01*
X134438655Y-102586094D01*
X134210413Y-102524938D01*
X134210403Y-102524936D01*
X133975001Y-102504341D01*
X133974999Y-102504341D01*
X133739596Y-102524936D01*
X133739586Y-102524938D01*
X133511344Y-102586094D01*
X133511335Y-102586098D01*
X133297171Y-102685964D01*
X133297169Y-102685965D01*
X133103597Y-102821505D01*
X132936505Y-102988597D01*
X132800965Y-103182169D01*
X132800964Y-103182171D01*
X132736882Y-103319596D01*
X132690709Y-103372035D01*
X132623516Y-103391187D01*
X132556635Y-103370971D01*
X132511300Y-103317806D01*
X132500500Y-103267191D01*
X132500500Y-101624500D01*
X132520185Y-101557461D01*
X132572989Y-101511706D01*
X132624500Y-101500500D01*
X147865890Y-101500500D01*
X147865892Y-101500500D01*
X147993186Y-101466392D01*
X148107314Y-101400500D01*
X148200500Y-101307314D01*
X148266392Y-101193186D01*
X148300500Y-101065892D01*
X148300500Y-95874500D01*
X148320185Y-95807461D01*
X148372989Y-95761706D01*
X148424500Y-95750500D01*
X148876000Y-95750500D01*
X148943039Y-95770185D01*
G37*
%TD.AperFunction*%
%TD*%
M02*
