%TF.GenerationSoftware,KiCad,Pcbnew,7.0.11-2.fc39*%
%TF.CreationDate,2024-04-30T19:09:01-04:00*%
%TF.ProjectId,OS42Mini,4f533432-4d69-46e6-992e-6b696361645f,rev?*%
%TF.SameCoordinates,Original*%
%TF.FileFunction,Drillmap*%
%TF.FilePolarity,Positive*%
%FSLAX45Y45*%
G04 Gerber Fmt 4.5, Leading zero omitted, Abs format (unit mm)*
G04 Created by KiCad (PCBNEW 7.0.11-2.fc39) date 2024-04-30 19:09:01*
%MOMM*%
%LPD*%
G01*
G04 APERTURE LIST*
%ADD10C,0.050000*%
%ADD11C,0.200000*%
G04 APERTURE END LIST*
D10*
X13614400Y-8483600D02*
X15189200Y-8483600D01*
X14630400Y-12649200D02*
X14630400Y-13208000D01*
X15214600Y-13462000D02*
X15976600Y-13462000D01*
X13208000Y-8890000D02*
X13614400Y-8890000D01*
X13614400Y-8890000D02*
X13614400Y-8483600D01*
X15214600Y-12649200D02*
X15214600Y-13462000D01*
X13512800Y-13208000D02*
X13512800Y-12192000D01*
X16408400Y-8483600D02*
X16408400Y-10718800D01*
X15646400Y-7366000D02*
X15646400Y-8483600D01*
X15189200Y-8483600D02*
X15189200Y-7366000D01*
X14630400Y-12649200D02*
X15214600Y-12649200D01*
X15976600Y-12649200D02*
X16408400Y-12649200D01*
X13512800Y-12192000D02*
X13208000Y-12192000D01*
X13208000Y-12192000D02*
X13208000Y-8890000D01*
X14630400Y-13208000D02*
X13512800Y-13208000D01*
X15189200Y-7366000D02*
X15646400Y-7366000D01*
X16408400Y-10718800D02*
X16408400Y-12649200D01*
X15646400Y-8483600D02*
X16408400Y-8483600D01*
X15976600Y-13462000D02*
X15976600Y-12649200D01*
D11*
X13466277Y-13775984D02*
X13466277Y-13575984D01*
X13466277Y-13575984D02*
X13513896Y-13575984D01*
X13513896Y-13575984D02*
X13542467Y-13585508D01*
X13542467Y-13585508D02*
X13561515Y-13604555D01*
X13561515Y-13604555D02*
X13571039Y-13623603D01*
X13571039Y-13623603D02*
X13580562Y-13661698D01*
X13580562Y-13661698D02*
X13580562Y-13690269D01*
X13580562Y-13690269D02*
X13571039Y-13728365D01*
X13571039Y-13728365D02*
X13561515Y-13747412D01*
X13561515Y-13747412D02*
X13542467Y-13766460D01*
X13542467Y-13766460D02*
X13513896Y-13775984D01*
X13513896Y-13775984D02*
X13466277Y-13775984D01*
X13666277Y-13775984D02*
X13666277Y-13642650D01*
X13666277Y-13680746D02*
X13675801Y-13661698D01*
X13675801Y-13661698D02*
X13685324Y-13652174D01*
X13685324Y-13652174D02*
X13704372Y-13642650D01*
X13704372Y-13642650D02*
X13723420Y-13642650D01*
X13790086Y-13775984D02*
X13790086Y-13642650D01*
X13790086Y-13575984D02*
X13780562Y-13585508D01*
X13780562Y-13585508D02*
X13790086Y-13595031D01*
X13790086Y-13595031D02*
X13799610Y-13585508D01*
X13799610Y-13585508D02*
X13790086Y-13575984D01*
X13790086Y-13575984D02*
X13790086Y-13595031D01*
X13913896Y-13775984D02*
X13894848Y-13766460D01*
X13894848Y-13766460D02*
X13885324Y-13747412D01*
X13885324Y-13747412D02*
X13885324Y-13575984D01*
X14018658Y-13775984D02*
X13999610Y-13766460D01*
X13999610Y-13766460D02*
X13990086Y-13747412D01*
X13990086Y-13747412D02*
X13990086Y-13575984D01*
X14247229Y-13775984D02*
X14247229Y-13575984D01*
X14247229Y-13575984D02*
X14313896Y-13718841D01*
X14313896Y-13718841D02*
X14380562Y-13575984D01*
X14380562Y-13575984D02*
X14380562Y-13775984D01*
X14561515Y-13775984D02*
X14561515Y-13671222D01*
X14561515Y-13671222D02*
X14551991Y-13652174D01*
X14551991Y-13652174D02*
X14532943Y-13642650D01*
X14532943Y-13642650D02*
X14494848Y-13642650D01*
X14494848Y-13642650D02*
X14475801Y-13652174D01*
X14561515Y-13766460D02*
X14542467Y-13775984D01*
X14542467Y-13775984D02*
X14494848Y-13775984D01*
X14494848Y-13775984D02*
X14475801Y-13766460D01*
X14475801Y-13766460D02*
X14466277Y-13747412D01*
X14466277Y-13747412D02*
X14466277Y-13728365D01*
X14466277Y-13728365D02*
X14475801Y-13709317D01*
X14475801Y-13709317D02*
X14494848Y-13699793D01*
X14494848Y-13699793D02*
X14542467Y-13699793D01*
X14542467Y-13699793D02*
X14561515Y-13690269D01*
X14656753Y-13642650D02*
X14656753Y-13842650D01*
X14656753Y-13652174D02*
X14675801Y-13642650D01*
X14675801Y-13642650D02*
X14713896Y-13642650D01*
X14713896Y-13642650D02*
X14732943Y-13652174D01*
X14732943Y-13652174D02*
X14742467Y-13661698D01*
X14742467Y-13661698D02*
X14751991Y-13680746D01*
X14751991Y-13680746D02*
X14751991Y-13737888D01*
X14751991Y-13737888D02*
X14742467Y-13756936D01*
X14742467Y-13756936D02*
X14732943Y-13766460D01*
X14732943Y-13766460D02*
X14713896Y-13775984D01*
X14713896Y-13775984D02*
X14675801Y-13775984D01*
X14675801Y-13775984D02*
X14656753Y-13766460D01*
X14837705Y-13756936D02*
X14847229Y-13766460D01*
X14847229Y-13766460D02*
X14837705Y-13775984D01*
X14837705Y-13775984D02*
X14828182Y-13766460D01*
X14828182Y-13766460D02*
X14837705Y-13756936D01*
X14837705Y-13756936D02*
X14837705Y-13775984D01*
X14837705Y-13652174D02*
X14847229Y-13661698D01*
X14847229Y-13661698D02*
X14837705Y-13671222D01*
X14837705Y-13671222D02*
X14828182Y-13661698D01*
X14828182Y-13661698D02*
X14837705Y-13652174D01*
X14837705Y-13652174D02*
X14837705Y-13671222D01*
M02*
