%TF.GenerationSoftware,KiCad,Pcbnew,7.0.11-2.fc39*%
%TF.CreationDate,2024-04-30T19:09:01-04:00*%
%TF.ProjectId,OS42Mini,4f533432-4d69-46e6-992e-6b696361645f,rev?*%
%TF.SameCoordinates,Original*%
%TF.FileFunction,Drillmap*%
%TF.FilePolarity,Positive*%
%FSLAX45Y45*%
G04 Gerber Fmt 4.5, Leading zero omitted, Abs format (unit mm)*
G04 Created by KiCad (PCBNEW 7.0.11-2.fc39) date 2024-04-30 19:09:01*
%MOMM*%
%LPD*%
G01*
G04 APERTURE LIST*
%ADD10C,0.050000*%
%ADD11C,0.200000*%
%ADD12C,0.100000*%
%ADD13C,0.111000*%
%ADD14C,0.128000*%
G04 APERTURE END LIST*
D10*
X13614400Y-8483600D02*
X15189200Y-8483600D01*
X14630400Y-12649200D02*
X14630400Y-13208000D01*
X15214600Y-13462000D02*
X15976600Y-13462000D01*
X13208000Y-8890000D02*
X13614400Y-8890000D01*
X13614400Y-8890000D02*
X13614400Y-8483600D01*
X15214600Y-12649200D02*
X15214600Y-13462000D01*
X13512800Y-13208000D02*
X13512800Y-12192000D01*
X16408400Y-8483600D02*
X16408400Y-10718800D01*
X15646400Y-7366000D02*
X15646400Y-8483600D01*
X15189200Y-8483600D02*
X15189200Y-7366000D01*
X14630400Y-12649200D02*
X15214600Y-12649200D01*
X15976600Y-12649200D02*
X16408400Y-12649200D01*
X13512800Y-12192000D02*
X13208000Y-12192000D01*
X13208000Y-12192000D02*
X13208000Y-8890000D01*
X14630400Y-13208000D02*
X13512800Y-13208000D01*
X15189200Y-7366000D02*
X15646400Y-7366000D01*
X16408400Y-10718800D02*
X16408400Y-12649200D01*
X15646400Y-8483600D02*
X16408400Y-8483600D01*
X15976600Y-13462000D02*
X15976600Y-12649200D01*
D11*
D12*
X13815300Y-8773400D02*
X13845300Y-8803400D01*
X13845300Y-8773400D02*
X13815300Y-8803400D01*
X13828000Y-11846800D02*
X13858000Y-11876800D01*
X13858000Y-11846800D02*
X13828000Y-11876800D01*
X13866100Y-8608300D02*
X13896100Y-8638300D01*
X13896100Y-8608300D02*
X13866100Y-8638300D01*
X13904200Y-12075400D02*
X13934200Y-12105400D01*
X13934200Y-12075400D02*
X13904200Y-12105400D01*
X13916320Y-9602059D02*
X13946320Y-9632059D01*
X13946320Y-9602059D02*
X13916320Y-9632059D01*
X13980400Y-9332200D02*
X14010400Y-9362200D01*
X14010400Y-9332200D02*
X13980400Y-9362200D01*
X14005800Y-8646400D02*
X14035800Y-8676400D01*
X14035800Y-8646400D02*
X14005800Y-8676400D01*
X14005800Y-8748000D02*
X14035800Y-8778000D01*
X14035800Y-8748000D02*
X14005800Y-8778000D01*
X14031200Y-9637000D02*
X14061200Y-9667000D01*
X14061200Y-9637000D02*
X14031200Y-9667000D01*
X14031200Y-10373600D02*
X14061200Y-10403600D01*
X14061200Y-10373600D02*
X14031200Y-10403600D01*
X14033380Y-10018000D02*
X14063380Y-10048000D01*
X14063380Y-10018000D02*
X14033380Y-10048000D01*
X14056600Y-9002000D02*
X14086600Y-9032000D01*
X14086600Y-9002000D02*
X14056600Y-9032000D01*
X14107400Y-9281400D02*
X14137400Y-9311400D01*
X14137400Y-9281400D02*
X14107400Y-9311400D01*
X14132800Y-9751300D02*
X14162800Y-9781300D01*
X14162800Y-9751300D02*
X14132800Y-9781300D01*
X14183600Y-11135600D02*
X14213600Y-11165600D01*
X14213600Y-11135600D02*
X14183600Y-11165600D01*
X14183600Y-11465800D02*
X14213600Y-11495800D01*
X14213600Y-11465800D02*
X14183600Y-11495800D01*
X14221700Y-9827500D02*
X14251700Y-9857500D01*
X14251700Y-9827500D02*
X14221700Y-9857500D01*
X14234400Y-10348200D02*
X14264400Y-10378200D01*
X14264400Y-10348200D02*
X14234400Y-10378200D01*
X14259800Y-10526000D02*
X14289800Y-10556000D01*
X14289800Y-10526000D02*
X14259800Y-10556000D01*
X14261000Y-10754600D02*
X14291000Y-10784600D01*
X14291000Y-10754600D02*
X14261000Y-10784600D01*
X14272500Y-9383000D02*
X14302500Y-9413000D01*
X14302500Y-9383000D02*
X14272500Y-9413000D01*
X14361400Y-9103600D02*
X14391400Y-9133600D01*
X14391400Y-9103600D02*
X14361400Y-9133600D01*
X14361400Y-9256000D02*
X14391400Y-9286000D01*
X14391400Y-9256000D02*
X14361400Y-9286000D01*
X14361400Y-9484600D02*
X14391400Y-9514600D01*
X14391400Y-9484600D02*
X14361400Y-9514600D01*
X14386800Y-8875000D02*
X14416800Y-8905000D01*
X14416800Y-8875000D02*
X14386800Y-8905000D01*
X14407873Y-9912074D02*
X14437873Y-9942074D01*
X14437873Y-9912074D02*
X14407873Y-9942074D01*
X14412200Y-11999200D02*
X14442200Y-12029200D01*
X14442200Y-11999200D02*
X14412200Y-12029200D01*
X14463000Y-11288000D02*
X14493000Y-11318000D01*
X14493000Y-11288000D02*
X14463000Y-11318000D01*
X14511000Y-9978539D02*
X14541000Y-10008539D01*
X14541000Y-9978539D02*
X14511000Y-10008539D01*
X14526500Y-9268700D02*
X14556500Y-9298700D01*
X14556500Y-9268700D02*
X14526500Y-9298700D01*
X14539200Y-9611600D02*
X14569200Y-9641600D01*
X14569200Y-9611600D02*
X14539200Y-9641600D01*
X14615400Y-11999200D02*
X14645400Y-12029200D01*
X14645400Y-11999200D02*
X14615400Y-12029200D01*
X14666200Y-9383000D02*
X14696200Y-9413000D01*
X14696200Y-9383000D02*
X14666200Y-9413000D01*
X14666200Y-11288000D02*
X14696200Y-11318000D01*
X14696200Y-11288000D02*
X14666200Y-11318000D01*
X14691600Y-8951200D02*
X14721600Y-8981200D01*
X14721600Y-8951200D02*
X14691600Y-8981200D01*
X14691600Y-9484600D02*
X14721600Y-9514600D01*
X14721600Y-9484600D02*
X14691600Y-9514600D01*
X14713371Y-9936327D02*
X14743371Y-9966327D01*
X14743371Y-9936327D02*
X14713371Y-9966327D01*
X14793200Y-9179800D02*
X14823200Y-9209800D01*
X14823200Y-9179800D02*
X14793200Y-9209800D01*
X14793200Y-11288000D02*
X14823200Y-11318000D01*
X14823200Y-11288000D02*
X14793200Y-11318000D01*
X14894800Y-8951200D02*
X14924800Y-8981200D01*
X14924800Y-8951200D02*
X14894800Y-8981200D01*
X14894800Y-9357600D02*
X14924800Y-9387600D01*
X14924800Y-9357600D02*
X14894800Y-9387600D01*
X14894800Y-9738600D02*
X14924800Y-9768600D01*
X14924800Y-9738600D02*
X14894800Y-9768600D01*
X14894800Y-11948400D02*
X14924800Y-11978400D01*
X14924800Y-11948400D02*
X14894800Y-11978400D01*
X14996400Y-11211800D02*
X15026400Y-11241800D01*
X15026400Y-11211800D02*
X14996400Y-11241800D01*
X14996400Y-11364200D02*
X15026400Y-11394200D01*
X15026400Y-11364200D02*
X14996400Y-11394200D01*
X15047200Y-9611600D02*
X15077200Y-9641600D01*
X15077200Y-9611600D02*
X15047200Y-9641600D01*
X15047200Y-11059400D02*
X15077200Y-11089400D01*
X15077200Y-11059400D02*
X15047200Y-11089400D01*
X15071698Y-10856909D02*
X15101698Y-10886909D01*
X15101698Y-10856909D02*
X15071698Y-10886909D01*
X15098000Y-9738600D02*
X15128000Y-9768600D01*
X15128000Y-9738600D02*
X15098000Y-9768600D01*
X15123400Y-8951200D02*
X15153400Y-8981200D01*
X15153400Y-8951200D02*
X15123400Y-8981200D01*
X15199600Y-9192500D02*
X15229600Y-9222500D01*
X15229600Y-9192500D02*
X15199600Y-9222500D01*
X15199600Y-11592800D02*
X15229600Y-11622800D01*
X15229600Y-11592800D02*
X15199600Y-11622800D01*
X15250400Y-9383000D02*
X15280400Y-9413000D01*
X15280400Y-9383000D02*
X15250400Y-9413000D01*
X15250400Y-10449800D02*
X15280400Y-10479800D01*
X15280400Y-10449800D02*
X15250400Y-10479800D01*
X15250400Y-10529800D02*
X15280400Y-10559800D01*
X15280400Y-10529800D02*
X15250400Y-10559800D01*
X15301200Y-9713200D02*
X15331200Y-9743200D01*
X15331200Y-9713200D02*
X15301200Y-9743200D01*
X15301200Y-12050000D02*
X15331200Y-12080000D01*
X15331200Y-12050000D02*
X15301200Y-12080000D01*
X15326600Y-8951200D02*
X15356600Y-8981200D01*
X15356600Y-8951200D02*
X15326600Y-8981200D01*
X15352000Y-9560800D02*
X15382000Y-9590800D01*
X15382000Y-9560800D02*
X15352000Y-9590800D01*
X15453600Y-11999200D02*
X15483600Y-12029200D01*
X15483600Y-11999200D02*
X15453600Y-12029200D01*
X15466300Y-9192500D02*
X15496300Y-9222500D01*
X15496300Y-9192500D02*
X15466300Y-9222500D01*
X15479000Y-9306800D02*
X15509000Y-9336800D01*
X15509000Y-9306800D02*
X15479000Y-9336800D01*
X15555200Y-8900400D02*
X15585200Y-8930400D01*
X15585200Y-8900400D02*
X15555200Y-8930400D01*
X15580600Y-10348200D02*
X15610600Y-10378200D01*
X15610600Y-10348200D02*
X15580600Y-10378200D01*
X15656800Y-9713200D02*
X15686800Y-9743200D01*
X15686800Y-9713200D02*
X15656800Y-9743200D01*
X15656800Y-9840200D02*
X15686800Y-9870200D01*
X15686800Y-9840200D02*
X15656800Y-9870200D01*
X15656800Y-10754600D02*
X15686800Y-10784600D01*
X15686800Y-10754600D02*
X15656800Y-10784600D01*
X15682200Y-8925800D02*
X15712200Y-8955800D01*
X15712200Y-8925800D02*
X15682200Y-8955800D01*
X15682200Y-9154400D02*
X15712200Y-9184400D01*
X15712200Y-9154400D02*
X15682200Y-9184400D01*
X15707600Y-11821400D02*
X15737600Y-11851400D01*
X15737600Y-11821400D02*
X15707600Y-11851400D01*
X15733000Y-9586200D02*
X15763000Y-9616200D01*
X15763000Y-9586200D02*
X15733000Y-9616200D01*
X15860000Y-11618200D02*
X15890000Y-11648200D01*
X15890000Y-11618200D02*
X15860000Y-11648200D01*
X15885400Y-9078200D02*
X15915400Y-9108200D01*
X15915400Y-9078200D02*
X15885400Y-9108200D01*
X15910800Y-9840200D02*
X15940800Y-9870200D01*
X15940800Y-9840200D02*
X15910800Y-9870200D01*
X15936200Y-9357600D02*
X15966200Y-9387600D01*
X15966200Y-9357600D02*
X15936200Y-9387600D01*
X15936200Y-9687800D02*
X15966200Y-9717800D01*
X15966200Y-9687800D02*
X15936200Y-9717800D01*
X15936200Y-10094200D02*
X15966200Y-10124200D01*
X15966200Y-10094200D02*
X15936200Y-10124200D01*
X15948900Y-8608300D02*
X15978900Y-8638300D01*
X15978900Y-8608300D02*
X15948900Y-8638300D01*
X15987000Y-11288000D02*
X16017000Y-11318000D01*
X16017000Y-11288000D02*
X15987000Y-11318000D01*
X16088600Y-11516600D02*
X16118600Y-11546600D01*
X16118600Y-11516600D02*
X16088600Y-11546600D01*
X16228300Y-8773400D02*
X16258300Y-8803400D01*
X16258300Y-8773400D02*
X16228300Y-8803400D01*
X16266400Y-11084800D02*
X16296400Y-11114800D01*
X16296400Y-11084800D02*
X16266400Y-11114800D01*
X16291800Y-11897600D02*
X16321800Y-11927600D01*
X16321800Y-11897600D02*
X16291800Y-11927600D01*
X13484020Y-9272000D02*
G75*
G03*
X13384020Y-9272000I-50000J0D01*
G01*
X13384020Y-9272000D02*
G75*
G03*
X13484020Y-9272000I50000J0D01*
G01*
X13484020Y-9526000D02*
G75*
G03*
X13384020Y-9526000I-50000J0D01*
G01*
X13384020Y-9526000D02*
G75*
G03*
X13484020Y-9526000I50000J0D01*
G01*
X13484020Y-9780000D02*
G75*
G03*
X13384020Y-9780000I-50000J0D01*
G01*
X13384020Y-9780000D02*
G75*
G03*
X13484020Y-9780000I50000J0D01*
G01*
X13484020Y-10034000D02*
G75*
G03*
X13384020Y-10034000I-50000J0D01*
G01*
X13384020Y-10034000D02*
G75*
G03*
X13484020Y-10034000I50000J0D01*
G01*
X13494220Y-11684000D02*
G75*
G03*
X13394220Y-11684000I-50000J0D01*
G01*
X13394220Y-11684000D02*
G75*
G03*
X13494220Y-11684000I50000J0D01*
G01*
X13494220Y-11938000D02*
G75*
G03*
X13394220Y-11938000I-50000J0D01*
G01*
X13394220Y-11938000D02*
G75*
G03*
X13494220Y-11938000I50000J0D01*
G01*
X13501800Y-10746200D02*
G75*
G03*
X13401800Y-10746200I-50000J0D01*
G01*
X13401800Y-10746200D02*
G75*
G03*
X13501800Y-10746200I50000J0D01*
G01*
X13501800Y-11000200D02*
G75*
G03*
X13401800Y-11000200I-50000J0D01*
G01*
X13401800Y-11000200D02*
G75*
G03*
X13501800Y-11000200I50000J0D01*
G01*
X14020000Y-12954000D02*
G75*
G03*
X13920000Y-12954000I-50000J0D01*
G01*
X13920000Y-12954000D02*
G75*
G03*
X14020000Y-12954000I50000J0D01*
G01*
X14274000Y-12954000D02*
G75*
G03*
X14174000Y-12954000I-50000J0D01*
G01*
X14174000Y-12954000D02*
G75*
G03*
X14274000Y-12954000I50000J0D01*
G01*
X15646900Y-13069600D02*
G75*
G03*
X15546900Y-13069600I-50000J0D01*
G01*
X15546900Y-13069600D02*
G75*
G03*
X15646900Y-13069600I50000J0D01*
G01*
D13*
X13868400Y-8936100D02*
X13868400Y-9047100D01*
X13812900Y-8991600D02*
X13923900Y-8991600D01*
X13868400Y-9190100D02*
X13868400Y-9301100D01*
X13812900Y-9245600D02*
X13923900Y-9245600D01*
X13868400Y-9444100D02*
X13868400Y-9555100D01*
X13812900Y-9499600D02*
X13923900Y-9499600D01*
X13868400Y-9698100D02*
X13868400Y-9809100D01*
X13812900Y-9753600D02*
X13923900Y-9753600D01*
X13868400Y-9952100D02*
X13868400Y-10063100D01*
X13812900Y-10007600D02*
X13923900Y-10007600D01*
X13868400Y-10206100D02*
X13868400Y-10317100D01*
X13812900Y-10261600D02*
X13923900Y-10261600D01*
X13868400Y-10460100D02*
X13868400Y-10571100D01*
X13812900Y-10515600D02*
X13923900Y-10515600D01*
X13868400Y-10714100D02*
X13868400Y-10825100D01*
X13812900Y-10769600D02*
X13923900Y-10769600D01*
X16154400Y-8936100D02*
X16154400Y-9047100D01*
X16098900Y-8991600D02*
X16209900Y-8991600D01*
X16154400Y-9190100D02*
X16154400Y-9301100D01*
X16098900Y-9245600D02*
X16209900Y-9245600D01*
X16154400Y-9444100D02*
X16154400Y-9555100D01*
X16098900Y-9499600D02*
X16209900Y-9499600D01*
X16154400Y-9698100D02*
X16154400Y-9809100D01*
X16098900Y-9753600D02*
X16209900Y-9753600D01*
X16154400Y-9952100D02*
X16154400Y-10063100D01*
X16098900Y-10007600D02*
X16209900Y-10007600D01*
X16154400Y-10206100D02*
X16154400Y-10317100D01*
X16098900Y-10261600D02*
X16209900Y-10261600D01*
X16154400Y-10460100D02*
X16154400Y-10571100D01*
X16098900Y-10515600D02*
X16209900Y-10515600D01*
X16154400Y-10714100D02*
X16154400Y-10825100D01*
X16098900Y-10769600D02*
X16209900Y-10769600D01*
D14*
X15402155Y-12874855D02*
X15402155Y-12784345D01*
X15311645Y-12784345D01*
X15311645Y-12874855D01*
X15402155Y-12874855D01*
X15402155Y-13354855D02*
X15402155Y-13264345D01*
X15311645Y-13264345D01*
X15311645Y-13354855D01*
X15402155Y-13354855D01*
X15882155Y-12874855D02*
X15882155Y-12784345D01*
X15791645Y-12784345D01*
X15791645Y-12874855D01*
X15882155Y-12874855D01*
X15882155Y-13354855D02*
X15882155Y-13264345D01*
X15791645Y-13264345D01*
X15791645Y-13354855D01*
X15882155Y-13354855D01*
D11*
X13466277Y-13775984D02*
X13466277Y-13575984D01*
X13466277Y-13575984D02*
X13513896Y-13575984D01*
X13513896Y-13575984D02*
X13542467Y-13585508D01*
X13542467Y-13585508D02*
X13561515Y-13604555D01*
X13561515Y-13604555D02*
X13571039Y-13623603D01*
X13571039Y-13623603D02*
X13580562Y-13661698D01*
X13580562Y-13661698D02*
X13580562Y-13690269D01*
X13580562Y-13690269D02*
X13571039Y-13728365D01*
X13571039Y-13728365D02*
X13561515Y-13747412D01*
X13561515Y-13747412D02*
X13542467Y-13766460D01*
X13542467Y-13766460D02*
X13513896Y-13775984D01*
X13513896Y-13775984D02*
X13466277Y-13775984D01*
X13666277Y-13775984D02*
X13666277Y-13642650D01*
X13666277Y-13680746D02*
X13675801Y-13661698D01*
X13675801Y-13661698D02*
X13685324Y-13652174D01*
X13685324Y-13652174D02*
X13704372Y-13642650D01*
X13704372Y-13642650D02*
X13723420Y-13642650D01*
X13790086Y-13775984D02*
X13790086Y-13642650D01*
X13790086Y-13575984D02*
X13780562Y-13585508D01*
X13780562Y-13585508D02*
X13790086Y-13595031D01*
X13790086Y-13595031D02*
X13799610Y-13585508D01*
X13799610Y-13585508D02*
X13790086Y-13575984D01*
X13790086Y-13575984D02*
X13790086Y-13595031D01*
X13913896Y-13775984D02*
X13894848Y-13766460D01*
X13894848Y-13766460D02*
X13885324Y-13747412D01*
X13885324Y-13747412D02*
X13885324Y-13575984D01*
X14018658Y-13775984D02*
X13999610Y-13766460D01*
X13999610Y-13766460D02*
X13990086Y-13747412D01*
X13990086Y-13747412D02*
X13990086Y-13575984D01*
X14247229Y-13775984D02*
X14247229Y-13575984D01*
X14247229Y-13575984D02*
X14313896Y-13718841D01*
X14313896Y-13718841D02*
X14380562Y-13575984D01*
X14380562Y-13575984D02*
X14380562Y-13775984D01*
X14561515Y-13775984D02*
X14561515Y-13671222D01*
X14561515Y-13671222D02*
X14551991Y-13652174D01*
X14551991Y-13652174D02*
X14532943Y-13642650D01*
X14532943Y-13642650D02*
X14494848Y-13642650D01*
X14494848Y-13642650D02*
X14475801Y-13652174D01*
X14561515Y-13766460D02*
X14542467Y-13775984D01*
X14542467Y-13775984D02*
X14494848Y-13775984D01*
X14494848Y-13775984D02*
X14475801Y-13766460D01*
X14475801Y-13766460D02*
X14466277Y-13747412D01*
X14466277Y-13747412D02*
X14466277Y-13728365D01*
X14466277Y-13728365D02*
X14475801Y-13709317D01*
X14475801Y-13709317D02*
X14494848Y-13699793D01*
X14494848Y-13699793D02*
X14542467Y-13699793D01*
X14542467Y-13699793D02*
X14561515Y-13690269D01*
X14656753Y-13642650D02*
X14656753Y-13842650D01*
X14656753Y-13652174D02*
X14675801Y-13642650D01*
X14675801Y-13642650D02*
X14713896Y-13642650D01*
X14713896Y-13642650D02*
X14732943Y-13652174D01*
X14732943Y-13652174D02*
X14742467Y-13661698D01*
X14742467Y-13661698D02*
X14751991Y-13680746D01*
X14751991Y-13680746D02*
X14751991Y-13737888D01*
X14751991Y-13737888D02*
X14742467Y-13756936D01*
X14742467Y-13756936D02*
X14732943Y-13766460D01*
X14732943Y-13766460D02*
X14713896Y-13775984D01*
X14713896Y-13775984D02*
X14675801Y-13775984D01*
X14675801Y-13775984D02*
X14656753Y-13766460D01*
X14837705Y-13756936D02*
X14847229Y-13766460D01*
X14847229Y-13766460D02*
X14837705Y-13775984D01*
X14837705Y-13775984D02*
X14828182Y-13766460D01*
X14828182Y-13766460D02*
X14837705Y-13756936D01*
X14837705Y-13756936D02*
X14837705Y-13775984D01*
X14837705Y-13652174D02*
X14847229Y-13661698D01*
X14847229Y-13661698D02*
X14837705Y-13671222D01*
X14837705Y-13671222D02*
X14828182Y-13661698D01*
X14828182Y-13661698D02*
X14837705Y-13652174D01*
X14837705Y-13652174D02*
X14837705Y-13671222D01*
D12*
X13175500Y-14089500D02*
X13205500Y-14119500D01*
X13205500Y-14089500D02*
X13175500Y-14119500D01*
D11*
X13504372Y-13995984D02*
X13523420Y-13995984D01*
X13523420Y-13995984D02*
X13542467Y-14005508D01*
X13542467Y-14005508D02*
X13551991Y-14015031D01*
X13551991Y-14015031D02*
X13561515Y-14034079D01*
X13561515Y-14034079D02*
X13571039Y-14072174D01*
X13571039Y-14072174D02*
X13571039Y-14119793D01*
X13571039Y-14119793D02*
X13561515Y-14157888D01*
X13561515Y-14157888D02*
X13551991Y-14176936D01*
X13551991Y-14176936D02*
X13542467Y-14186460D01*
X13542467Y-14186460D02*
X13523420Y-14195984D01*
X13523420Y-14195984D02*
X13504372Y-14195984D01*
X13504372Y-14195984D02*
X13485324Y-14186460D01*
X13485324Y-14186460D02*
X13475801Y-14176936D01*
X13475801Y-14176936D02*
X13466277Y-14157888D01*
X13466277Y-14157888D02*
X13456753Y-14119793D01*
X13456753Y-14119793D02*
X13456753Y-14072174D01*
X13456753Y-14072174D02*
X13466277Y-14034079D01*
X13466277Y-14034079D02*
X13475801Y-14015031D01*
X13475801Y-14015031D02*
X13485324Y-14005508D01*
X13485324Y-14005508D02*
X13504372Y-13995984D01*
X13656753Y-14176936D02*
X13666277Y-14186460D01*
X13666277Y-14186460D02*
X13656753Y-14195984D01*
X13656753Y-14195984D02*
X13647229Y-14186460D01*
X13647229Y-14186460D02*
X13656753Y-14176936D01*
X13656753Y-14176936D02*
X13656753Y-14195984D01*
X13732943Y-13995984D02*
X13856753Y-13995984D01*
X13856753Y-13995984D02*
X13790086Y-14072174D01*
X13790086Y-14072174D02*
X13818658Y-14072174D01*
X13818658Y-14072174D02*
X13837705Y-14081698D01*
X13837705Y-14081698D02*
X13847229Y-14091222D01*
X13847229Y-14091222D02*
X13856753Y-14110269D01*
X13856753Y-14110269D02*
X13856753Y-14157888D01*
X13856753Y-14157888D02*
X13847229Y-14176936D01*
X13847229Y-14176936D02*
X13837705Y-14186460D01*
X13837705Y-14186460D02*
X13818658Y-14195984D01*
X13818658Y-14195984D02*
X13761515Y-14195984D01*
X13761515Y-14195984D02*
X13742467Y-14186460D01*
X13742467Y-14186460D02*
X13732943Y-14176936D01*
X13980562Y-13995984D02*
X13999610Y-13995984D01*
X13999610Y-13995984D02*
X14018658Y-14005508D01*
X14018658Y-14005508D02*
X14028182Y-14015031D01*
X14028182Y-14015031D02*
X14037705Y-14034079D01*
X14037705Y-14034079D02*
X14047229Y-14072174D01*
X14047229Y-14072174D02*
X14047229Y-14119793D01*
X14047229Y-14119793D02*
X14037705Y-14157888D01*
X14037705Y-14157888D02*
X14028182Y-14176936D01*
X14028182Y-14176936D02*
X14018658Y-14186460D01*
X14018658Y-14186460D02*
X13999610Y-14195984D01*
X13999610Y-14195984D02*
X13980562Y-14195984D01*
X13980562Y-14195984D02*
X13961515Y-14186460D01*
X13961515Y-14186460D02*
X13951991Y-14176936D01*
X13951991Y-14176936D02*
X13942467Y-14157888D01*
X13942467Y-14157888D02*
X13932943Y-14119793D01*
X13932943Y-14119793D02*
X13932943Y-14072174D01*
X13932943Y-14072174D02*
X13942467Y-14034079D01*
X13942467Y-14034079D02*
X13951991Y-14015031D01*
X13951991Y-14015031D02*
X13961515Y-14005508D01*
X13961515Y-14005508D02*
X13980562Y-13995984D01*
X14171039Y-13995984D02*
X14190086Y-13995984D01*
X14190086Y-13995984D02*
X14209134Y-14005508D01*
X14209134Y-14005508D02*
X14218658Y-14015031D01*
X14218658Y-14015031D02*
X14228182Y-14034079D01*
X14228182Y-14034079D02*
X14237705Y-14072174D01*
X14237705Y-14072174D02*
X14237705Y-14119793D01*
X14237705Y-14119793D02*
X14228182Y-14157888D01*
X14228182Y-14157888D02*
X14218658Y-14176936D01*
X14218658Y-14176936D02*
X14209134Y-14186460D01*
X14209134Y-14186460D02*
X14190086Y-14195984D01*
X14190086Y-14195984D02*
X14171039Y-14195984D01*
X14171039Y-14195984D02*
X14151991Y-14186460D01*
X14151991Y-14186460D02*
X14142467Y-14176936D01*
X14142467Y-14176936D02*
X14132943Y-14157888D01*
X14132943Y-14157888D02*
X14123420Y-14119793D01*
X14123420Y-14119793D02*
X14123420Y-14072174D01*
X14123420Y-14072174D02*
X14132943Y-14034079D01*
X14132943Y-14034079D02*
X14142467Y-14015031D01*
X14142467Y-14015031D02*
X14151991Y-14005508D01*
X14151991Y-14005508D02*
X14171039Y-13995984D01*
X14323420Y-14195984D02*
X14323420Y-14062650D01*
X14323420Y-14081698D02*
X14332943Y-14072174D01*
X14332943Y-14072174D02*
X14351991Y-14062650D01*
X14351991Y-14062650D02*
X14380563Y-14062650D01*
X14380563Y-14062650D02*
X14399610Y-14072174D01*
X14399610Y-14072174D02*
X14409134Y-14091222D01*
X14409134Y-14091222D02*
X14409134Y-14195984D01*
X14409134Y-14091222D02*
X14418658Y-14072174D01*
X14418658Y-14072174D02*
X14437705Y-14062650D01*
X14437705Y-14062650D02*
X14466277Y-14062650D01*
X14466277Y-14062650D02*
X14485324Y-14072174D01*
X14485324Y-14072174D02*
X14494848Y-14091222D01*
X14494848Y-14091222D02*
X14494848Y-14195984D01*
X14590086Y-14195984D02*
X14590086Y-14062650D01*
X14590086Y-14081698D02*
X14599610Y-14072174D01*
X14599610Y-14072174D02*
X14618658Y-14062650D01*
X14618658Y-14062650D02*
X14647229Y-14062650D01*
X14647229Y-14062650D02*
X14666277Y-14072174D01*
X14666277Y-14072174D02*
X14675801Y-14091222D01*
X14675801Y-14091222D02*
X14675801Y-14195984D01*
X14675801Y-14091222D02*
X14685324Y-14072174D01*
X14685324Y-14072174D02*
X14704372Y-14062650D01*
X14704372Y-14062650D02*
X14732943Y-14062650D01*
X14732943Y-14062650D02*
X14751991Y-14072174D01*
X14751991Y-14072174D02*
X14761515Y-14091222D01*
X14761515Y-14091222D02*
X14761515Y-14195984D01*
X15151991Y-13986460D02*
X14980563Y-14243603D01*
X15409134Y-13995984D02*
X15428182Y-13995984D01*
X15428182Y-13995984D02*
X15447229Y-14005508D01*
X15447229Y-14005508D02*
X15456753Y-14015031D01*
X15456753Y-14015031D02*
X15466277Y-14034079D01*
X15466277Y-14034079D02*
X15475801Y-14072174D01*
X15475801Y-14072174D02*
X15475801Y-14119793D01*
X15475801Y-14119793D02*
X15466277Y-14157888D01*
X15466277Y-14157888D02*
X15456753Y-14176936D01*
X15456753Y-14176936D02*
X15447229Y-14186460D01*
X15447229Y-14186460D02*
X15428182Y-14195984D01*
X15428182Y-14195984D02*
X15409134Y-14195984D01*
X15409134Y-14195984D02*
X15390086Y-14186460D01*
X15390086Y-14186460D02*
X15380563Y-14176936D01*
X15380563Y-14176936D02*
X15371039Y-14157888D01*
X15371039Y-14157888D02*
X15361515Y-14119793D01*
X15361515Y-14119793D02*
X15361515Y-14072174D01*
X15361515Y-14072174D02*
X15371039Y-14034079D01*
X15371039Y-14034079D02*
X15380563Y-14015031D01*
X15380563Y-14015031D02*
X15390086Y-14005508D01*
X15390086Y-14005508D02*
X15409134Y-13995984D01*
X15561515Y-14176936D02*
X15571039Y-14186460D01*
X15571039Y-14186460D02*
X15561515Y-14195984D01*
X15561515Y-14195984D02*
X15551991Y-14186460D01*
X15551991Y-14186460D02*
X15561515Y-14176936D01*
X15561515Y-14176936D02*
X15561515Y-14195984D01*
X15694848Y-13995984D02*
X15713896Y-13995984D01*
X15713896Y-13995984D02*
X15732944Y-14005508D01*
X15732944Y-14005508D02*
X15742467Y-14015031D01*
X15742467Y-14015031D02*
X15751991Y-14034079D01*
X15751991Y-14034079D02*
X15761515Y-14072174D01*
X15761515Y-14072174D02*
X15761515Y-14119793D01*
X15761515Y-14119793D02*
X15751991Y-14157888D01*
X15751991Y-14157888D02*
X15742467Y-14176936D01*
X15742467Y-14176936D02*
X15732944Y-14186460D01*
X15732944Y-14186460D02*
X15713896Y-14195984D01*
X15713896Y-14195984D02*
X15694848Y-14195984D01*
X15694848Y-14195984D02*
X15675801Y-14186460D01*
X15675801Y-14186460D02*
X15666277Y-14176936D01*
X15666277Y-14176936D02*
X15656753Y-14157888D01*
X15656753Y-14157888D02*
X15647229Y-14119793D01*
X15647229Y-14119793D02*
X15647229Y-14072174D01*
X15647229Y-14072174D02*
X15656753Y-14034079D01*
X15656753Y-14034079D02*
X15666277Y-14015031D01*
X15666277Y-14015031D02*
X15675801Y-14005508D01*
X15675801Y-14005508D02*
X15694848Y-13995984D01*
X15951991Y-14195984D02*
X15837706Y-14195984D01*
X15894848Y-14195984D02*
X15894848Y-13995984D01*
X15894848Y-13995984D02*
X15875801Y-14024555D01*
X15875801Y-14024555D02*
X15856753Y-14043603D01*
X15856753Y-14043603D02*
X15837706Y-14053127D01*
X16142467Y-14195984D02*
X16028182Y-14195984D01*
X16085325Y-14195984D02*
X16085325Y-13995984D01*
X16085325Y-13995984D02*
X16066277Y-14024555D01*
X16066277Y-14024555D02*
X16047229Y-14043603D01*
X16047229Y-14043603D02*
X16028182Y-14053127D01*
X16256753Y-14081698D02*
X16237706Y-14072174D01*
X16237706Y-14072174D02*
X16228182Y-14062650D01*
X16228182Y-14062650D02*
X16218658Y-14043603D01*
X16218658Y-14043603D02*
X16218658Y-14034079D01*
X16218658Y-14034079D02*
X16228182Y-14015031D01*
X16228182Y-14015031D02*
X16237706Y-14005508D01*
X16237706Y-14005508D02*
X16256753Y-13995984D01*
X16256753Y-13995984D02*
X16294848Y-13995984D01*
X16294848Y-13995984D02*
X16313896Y-14005508D01*
X16313896Y-14005508D02*
X16323420Y-14015031D01*
X16323420Y-14015031D02*
X16332944Y-14034079D01*
X16332944Y-14034079D02*
X16332944Y-14043603D01*
X16332944Y-14043603D02*
X16323420Y-14062650D01*
X16323420Y-14062650D02*
X16313896Y-14072174D01*
X16313896Y-14072174D02*
X16294848Y-14081698D01*
X16294848Y-14081698D02*
X16256753Y-14081698D01*
X16256753Y-14081698D02*
X16237706Y-14091222D01*
X16237706Y-14091222D02*
X16228182Y-14100746D01*
X16228182Y-14100746D02*
X16218658Y-14119793D01*
X16218658Y-14119793D02*
X16218658Y-14157888D01*
X16218658Y-14157888D02*
X16228182Y-14176936D01*
X16228182Y-14176936D02*
X16237706Y-14186460D01*
X16237706Y-14186460D02*
X16256753Y-14195984D01*
X16256753Y-14195984D02*
X16294848Y-14195984D01*
X16294848Y-14195984D02*
X16313896Y-14186460D01*
X16313896Y-14186460D02*
X16323420Y-14176936D01*
X16323420Y-14176936D02*
X16332944Y-14157888D01*
X16332944Y-14157888D02*
X16332944Y-14119793D01*
X16332944Y-14119793D02*
X16323420Y-14100746D01*
X16323420Y-14100746D02*
X16313896Y-14091222D01*
X16313896Y-14091222D02*
X16294848Y-14081698D01*
X16409134Y-13995984D02*
X16409134Y-14034079D01*
X16485325Y-13995984D02*
X16485325Y-14034079D01*
X16780563Y-14272174D02*
X16771039Y-14262650D01*
X16771039Y-14262650D02*
X16751991Y-14234079D01*
X16751991Y-14234079D02*
X16742468Y-14215031D01*
X16742468Y-14215031D02*
X16732944Y-14186460D01*
X16732944Y-14186460D02*
X16723420Y-14138841D01*
X16723420Y-14138841D02*
X16723420Y-14100746D01*
X16723420Y-14100746D02*
X16732944Y-14053127D01*
X16732944Y-14053127D02*
X16742468Y-14024555D01*
X16742468Y-14024555D02*
X16751991Y-14005508D01*
X16751991Y-14005508D02*
X16771039Y-13976936D01*
X16771039Y-13976936D02*
X16780563Y-13967412D01*
X16885325Y-14081698D02*
X16866277Y-14072174D01*
X16866277Y-14072174D02*
X16856753Y-14062650D01*
X16856753Y-14062650D02*
X16847230Y-14043603D01*
X16847230Y-14043603D02*
X16847230Y-14034079D01*
X16847230Y-14034079D02*
X16856753Y-14015031D01*
X16856753Y-14015031D02*
X16866277Y-14005508D01*
X16866277Y-14005508D02*
X16885325Y-13995984D01*
X16885325Y-13995984D02*
X16923420Y-13995984D01*
X16923420Y-13995984D02*
X16942468Y-14005508D01*
X16942468Y-14005508D02*
X16951991Y-14015031D01*
X16951991Y-14015031D02*
X16961515Y-14034079D01*
X16961515Y-14034079D02*
X16961515Y-14043603D01*
X16961515Y-14043603D02*
X16951991Y-14062650D01*
X16951991Y-14062650D02*
X16942468Y-14072174D01*
X16942468Y-14072174D02*
X16923420Y-14081698D01*
X16923420Y-14081698D02*
X16885325Y-14081698D01*
X16885325Y-14081698D02*
X16866277Y-14091222D01*
X16866277Y-14091222D02*
X16856753Y-14100746D01*
X16856753Y-14100746D02*
X16847230Y-14119793D01*
X16847230Y-14119793D02*
X16847230Y-14157888D01*
X16847230Y-14157888D02*
X16856753Y-14176936D01*
X16856753Y-14176936D02*
X16866277Y-14186460D01*
X16866277Y-14186460D02*
X16885325Y-14195984D01*
X16885325Y-14195984D02*
X16923420Y-14195984D01*
X16923420Y-14195984D02*
X16942468Y-14186460D01*
X16942468Y-14186460D02*
X16951991Y-14176936D01*
X16951991Y-14176936D02*
X16961515Y-14157888D01*
X16961515Y-14157888D02*
X16961515Y-14119793D01*
X16961515Y-14119793D02*
X16951991Y-14100746D01*
X16951991Y-14100746D02*
X16942468Y-14091222D01*
X16942468Y-14091222D02*
X16923420Y-14081698D01*
X17028182Y-13995984D02*
X17151991Y-13995984D01*
X17151991Y-13995984D02*
X17085325Y-14072174D01*
X17085325Y-14072174D02*
X17113896Y-14072174D01*
X17113896Y-14072174D02*
X17132944Y-14081698D01*
X17132944Y-14081698D02*
X17142468Y-14091222D01*
X17142468Y-14091222D02*
X17151991Y-14110269D01*
X17151991Y-14110269D02*
X17151991Y-14157888D01*
X17151991Y-14157888D02*
X17142468Y-14176936D01*
X17142468Y-14176936D02*
X17132944Y-14186460D01*
X17132944Y-14186460D02*
X17113896Y-14195984D01*
X17113896Y-14195984D02*
X17056753Y-14195984D01*
X17056753Y-14195984D02*
X17037706Y-14186460D01*
X17037706Y-14186460D02*
X17028182Y-14176936D01*
X17390087Y-14195984D02*
X17390087Y-13995984D01*
X17475801Y-14195984D02*
X17475801Y-14091222D01*
X17475801Y-14091222D02*
X17466277Y-14072174D01*
X17466277Y-14072174D02*
X17447230Y-14062650D01*
X17447230Y-14062650D02*
X17418658Y-14062650D01*
X17418658Y-14062650D02*
X17399611Y-14072174D01*
X17399611Y-14072174D02*
X17390087Y-14081698D01*
X17599611Y-14195984D02*
X17580563Y-14186460D01*
X17580563Y-14186460D02*
X17571039Y-14176936D01*
X17571039Y-14176936D02*
X17561515Y-14157888D01*
X17561515Y-14157888D02*
X17561515Y-14100746D01*
X17561515Y-14100746D02*
X17571039Y-14081698D01*
X17571039Y-14081698D02*
X17580563Y-14072174D01*
X17580563Y-14072174D02*
X17599611Y-14062650D01*
X17599611Y-14062650D02*
X17628182Y-14062650D01*
X17628182Y-14062650D02*
X17647230Y-14072174D01*
X17647230Y-14072174D02*
X17656753Y-14081698D01*
X17656753Y-14081698D02*
X17666277Y-14100746D01*
X17666277Y-14100746D02*
X17666277Y-14157888D01*
X17666277Y-14157888D02*
X17656753Y-14176936D01*
X17656753Y-14176936D02*
X17647230Y-14186460D01*
X17647230Y-14186460D02*
X17628182Y-14195984D01*
X17628182Y-14195984D02*
X17599611Y-14195984D01*
X17780563Y-14195984D02*
X17761515Y-14186460D01*
X17761515Y-14186460D02*
X17751992Y-14167412D01*
X17751992Y-14167412D02*
X17751992Y-13995984D01*
X17932944Y-14186460D02*
X17913896Y-14195984D01*
X17913896Y-14195984D02*
X17875801Y-14195984D01*
X17875801Y-14195984D02*
X17856753Y-14186460D01*
X17856753Y-14186460D02*
X17847230Y-14167412D01*
X17847230Y-14167412D02*
X17847230Y-14091222D01*
X17847230Y-14091222D02*
X17856753Y-14072174D01*
X17856753Y-14072174D02*
X17875801Y-14062650D01*
X17875801Y-14062650D02*
X17913896Y-14062650D01*
X17913896Y-14062650D02*
X17932944Y-14072174D01*
X17932944Y-14072174D02*
X17942468Y-14091222D01*
X17942468Y-14091222D02*
X17942468Y-14110269D01*
X17942468Y-14110269D02*
X17847230Y-14129317D01*
X18018658Y-14186460D02*
X18037706Y-14195984D01*
X18037706Y-14195984D02*
X18075801Y-14195984D01*
X18075801Y-14195984D02*
X18094849Y-14186460D01*
X18094849Y-14186460D02*
X18104373Y-14167412D01*
X18104373Y-14167412D02*
X18104373Y-14157888D01*
X18104373Y-14157888D02*
X18094849Y-14138841D01*
X18094849Y-14138841D02*
X18075801Y-14129317D01*
X18075801Y-14129317D02*
X18047230Y-14129317D01*
X18047230Y-14129317D02*
X18028182Y-14119793D01*
X18028182Y-14119793D02*
X18018658Y-14100746D01*
X18018658Y-14100746D02*
X18018658Y-14091222D01*
X18018658Y-14091222D02*
X18028182Y-14072174D01*
X18028182Y-14072174D02*
X18047230Y-14062650D01*
X18047230Y-14062650D02*
X18075801Y-14062650D01*
X18075801Y-14062650D02*
X18094849Y-14072174D01*
X18171039Y-14272174D02*
X18180563Y-14262650D01*
X18180563Y-14262650D02*
X18199611Y-14234079D01*
X18199611Y-14234079D02*
X18209134Y-14215031D01*
X18209134Y-14215031D02*
X18218658Y-14186460D01*
X18218658Y-14186460D02*
X18228182Y-14138841D01*
X18228182Y-14138841D02*
X18228182Y-14100746D01*
X18228182Y-14100746D02*
X18218658Y-14053127D01*
X18218658Y-14053127D02*
X18209134Y-14024555D01*
X18209134Y-14024555D02*
X18199611Y-14005508D01*
X18199611Y-14005508D02*
X18180563Y-13976936D01*
X18180563Y-13976936D02*
X18171039Y-13967412D01*
D12*
X13205500Y-14368500D02*
G75*
G03*
X13105500Y-14368500I-50000J0D01*
G01*
X13105500Y-14368500D02*
G75*
G03*
X13205500Y-14368500I50000J0D01*
G01*
D11*
X13571039Y-14459984D02*
X13456753Y-14459984D01*
X13513896Y-14459984D02*
X13513896Y-14259984D01*
X13513896Y-14259984D02*
X13494848Y-14288555D01*
X13494848Y-14288555D02*
X13475801Y-14307603D01*
X13475801Y-14307603D02*
X13456753Y-14317127D01*
X13656753Y-14440936D02*
X13666277Y-14450460D01*
X13666277Y-14450460D02*
X13656753Y-14459984D01*
X13656753Y-14459984D02*
X13647229Y-14450460D01*
X13647229Y-14450460D02*
X13656753Y-14440936D01*
X13656753Y-14440936D02*
X13656753Y-14459984D01*
X13790086Y-14259984D02*
X13809134Y-14259984D01*
X13809134Y-14259984D02*
X13828182Y-14269508D01*
X13828182Y-14269508D02*
X13837705Y-14279031D01*
X13837705Y-14279031D02*
X13847229Y-14298079D01*
X13847229Y-14298079D02*
X13856753Y-14336174D01*
X13856753Y-14336174D02*
X13856753Y-14383793D01*
X13856753Y-14383793D02*
X13847229Y-14421888D01*
X13847229Y-14421888D02*
X13837705Y-14440936D01*
X13837705Y-14440936D02*
X13828182Y-14450460D01*
X13828182Y-14450460D02*
X13809134Y-14459984D01*
X13809134Y-14459984D02*
X13790086Y-14459984D01*
X13790086Y-14459984D02*
X13771039Y-14450460D01*
X13771039Y-14450460D02*
X13761515Y-14440936D01*
X13761515Y-14440936D02*
X13751991Y-14421888D01*
X13751991Y-14421888D02*
X13742467Y-14383793D01*
X13742467Y-14383793D02*
X13742467Y-14336174D01*
X13742467Y-14336174D02*
X13751991Y-14298079D01*
X13751991Y-14298079D02*
X13761515Y-14279031D01*
X13761515Y-14279031D02*
X13771039Y-14269508D01*
X13771039Y-14269508D02*
X13790086Y-14259984D01*
X13980562Y-14259984D02*
X13999610Y-14259984D01*
X13999610Y-14259984D02*
X14018658Y-14269508D01*
X14018658Y-14269508D02*
X14028182Y-14279031D01*
X14028182Y-14279031D02*
X14037705Y-14298079D01*
X14037705Y-14298079D02*
X14047229Y-14336174D01*
X14047229Y-14336174D02*
X14047229Y-14383793D01*
X14047229Y-14383793D02*
X14037705Y-14421888D01*
X14037705Y-14421888D02*
X14028182Y-14440936D01*
X14028182Y-14440936D02*
X14018658Y-14450460D01*
X14018658Y-14450460D02*
X13999610Y-14459984D01*
X13999610Y-14459984D02*
X13980562Y-14459984D01*
X13980562Y-14459984D02*
X13961515Y-14450460D01*
X13961515Y-14450460D02*
X13951991Y-14440936D01*
X13951991Y-14440936D02*
X13942467Y-14421888D01*
X13942467Y-14421888D02*
X13932943Y-14383793D01*
X13932943Y-14383793D02*
X13932943Y-14336174D01*
X13932943Y-14336174D02*
X13942467Y-14298079D01*
X13942467Y-14298079D02*
X13951991Y-14279031D01*
X13951991Y-14279031D02*
X13961515Y-14269508D01*
X13961515Y-14269508D02*
X13980562Y-14259984D01*
X14171039Y-14259984D02*
X14190086Y-14259984D01*
X14190086Y-14259984D02*
X14209134Y-14269508D01*
X14209134Y-14269508D02*
X14218658Y-14279031D01*
X14218658Y-14279031D02*
X14228182Y-14298079D01*
X14228182Y-14298079D02*
X14237705Y-14336174D01*
X14237705Y-14336174D02*
X14237705Y-14383793D01*
X14237705Y-14383793D02*
X14228182Y-14421888D01*
X14228182Y-14421888D02*
X14218658Y-14440936D01*
X14218658Y-14440936D02*
X14209134Y-14450460D01*
X14209134Y-14450460D02*
X14190086Y-14459984D01*
X14190086Y-14459984D02*
X14171039Y-14459984D01*
X14171039Y-14459984D02*
X14151991Y-14450460D01*
X14151991Y-14450460D02*
X14142467Y-14440936D01*
X14142467Y-14440936D02*
X14132943Y-14421888D01*
X14132943Y-14421888D02*
X14123420Y-14383793D01*
X14123420Y-14383793D02*
X14123420Y-14336174D01*
X14123420Y-14336174D02*
X14132943Y-14298079D01*
X14132943Y-14298079D02*
X14142467Y-14279031D01*
X14142467Y-14279031D02*
X14151991Y-14269508D01*
X14151991Y-14269508D02*
X14171039Y-14259984D01*
X14323420Y-14459984D02*
X14323420Y-14326650D01*
X14323420Y-14345698D02*
X14332943Y-14336174D01*
X14332943Y-14336174D02*
X14351991Y-14326650D01*
X14351991Y-14326650D02*
X14380563Y-14326650D01*
X14380563Y-14326650D02*
X14399610Y-14336174D01*
X14399610Y-14336174D02*
X14409134Y-14355222D01*
X14409134Y-14355222D02*
X14409134Y-14459984D01*
X14409134Y-14355222D02*
X14418658Y-14336174D01*
X14418658Y-14336174D02*
X14437705Y-14326650D01*
X14437705Y-14326650D02*
X14466277Y-14326650D01*
X14466277Y-14326650D02*
X14485324Y-14336174D01*
X14485324Y-14336174D02*
X14494848Y-14355222D01*
X14494848Y-14355222D02*
X14494848Y-14459984D01*
X14590086Y-14459984D02*
X14590086Y-14326650D01*
X14590086Y-14345698D02*
X14599610Y-14336174D01*
X14599610Y-14336174D02*
X14618658Y-14326650D01*
X14618658Y-14326650D02*
X14647229Y-14326650D01*
X14647229Y-14326650D02*
X14666277Y-14336174D01*
X14666277Y-14336174D02*
X14675801Y-14355222D01*
X14675801Y-14355222D02*
X14675801Y-14459984D01*
X14675801Y-14355222D02*
X14685324Y-14336174D01*
X14685324Y-14336174D02*
X14704372Y-14326650D01*
X14704372Y-14326650D02*
X14732943Y-14326650D01*
X14732943Y-14326650D02*
X14751991Y-14336174D01*
X14751991Y-14336174D02*
X14761515Y-14355222D01*
X14761515Y-14355222D02*
X14761515Y-14459984D01*
X15151991Y-14250460D02*
X14980563Y-14507603D01*
X15409134Y-14259984D02*
X15428182Y-14259984D01*
X15428182Y-14259984D02*
X15447229Y-14269508D01*
X15447229Y-14269508D02*
X15456753Y-14279031D01*
X15456753Y-14279031D02*
X15466277Y-14298079D01*
X15466277Y-14298079D02*
X15475801Y-14336174D01*
X15475801Y-14336174D02*
X15475801Y-14383793D01*
X15475801Y-14383793D02*
X15466277Y-14421888D01*
X15466277Y-14421888D02*
X15456753Y-14440936D01*
X15456753Y-14440936D02*
X15447229Y-14450460D01*
X15447229Y-14450460D02*
X15428182Y-14459984D01*
X15428182Y-14459984D02*
X15409134Y-14459984D01*
X15409134Y-14459984D02*
X15390086Y-14450460D01*
X15390086Y-14450460D02*
X15380563Y-14440936D01*
X15380563Y-14440936D02*
X15371039Y-14421888D01*
X15371039Y-14421888D02*
X15361515Y-14383793D01*
X15361515Y-14383793D02*
X15361515Y-14336174D01*
X15361515Y-14336174D02*
X15371039Y-14298079D01*
X15371039Y-14298079D02*
X15380563Y-14279031D01*
X15380563Y-14279031D02*
X15390086Y-14269508D01*
X15390086Y-14269508D02*
X15409134Y-14259984D01*
X15561515Y-14440936D02*
X15571039Y-14450460D01*
X15571039Y-14450460D02*
X15561515Y-14459984D01*
X15561515Y-14459984D02*
X15551991Y-14450460D01*
X15551991Y-14450460D02*
X15561515Y-14440936D01*
X15561515Y-14440936D02*
X15561515Y-14459984D01*
X15694848Y-14259984D02*
X15713896Y-14259984D01*
X15713896Y-14259984D02*
X15732944Y-14269508D01*
X15732944Y-14269508D02*
X15742467Y-14279031D01*
X15742467Y-14279031D02*
X15751991Y-14298079D01*
X15751991Y-14298079D02*
X15761515Y-14336174D01*
X15761515Y-14336174D02*
X15761515Y-14383793D01*
X15761515Y-14383793D02*
X15751991Y-14421888D01*
X15751991Y-14421888D02*
X15742467Y-14440936D01*
X15742467Y-14440936D02*
X15732944Y-14450460D01*
X15732944Y-14450460D02*
X15713896Y-14459984D01*
X15713896Y-14459984D02*
X15694848Y-14459984D01*
X15694848Y-14459984D02*
X15675801Y-14450460D01*
X15675801Y-14450460D02*
X15666277Y-14440936D01*
X15666277Y-14440936D02*
X15656753Y-14421888D01*
X15656753Y-14421888D02*
X15647229Y-14383793D01*
X15647229Y-14383793D02*
X15647229Y-14336174D01*
X15647229Y-14336174D02*
X15656753Y-14298079D01*
X15656753Y-14298079D02*
X15666277Y-14279031D01*
X15666277Y-14279031D02*
X15675801Y-14269508D01*
X15675801Y-14269508D02*
X15694848Y-14259984D01*
X15828182Y-14259984D02*
X15951991Y-14259984D01*
X15951991Y-14259984D02*
X15885325Y-14336174D01*
X15885325Y-14336174D02*
X15913896Y-14336174D01*
X15913896Y-14336174D02*
X15932944Y-14345698D01*
X15932944Y-14345698D02*
X15942467Y-14355222D01*
X15942467Y-14355222D02*
X15951991Y-14374269D01*
X15951991Y-14374269D02*
X15951991Y-14421888D01*
X15951991Y-14421888D02*
X15942467Y-14440936D01*
X15942467Y-14440936D02*
X15932944Y-14450460D01*
X15932944Y-14450460D02*
X15913896Y-14459984D01*
X15913896Y-14459984D02*
X15856753Y-14459984D01*
X15856753Y-14459984D02*
X15837706Y-14450460D01*
X15837706Y-14450460D02*
X15828182Y-14440936D01*
X16047229Y-14459984D02*
X16085325Y-14459984D01*
X16085325Y-14459984D02*
X16104372Y-14450460D01*
X16104372Y-14450460D02*
X16113896Y-14440936D01*
X16113896Y-14440936D02*
X16132944Y-14412365D01*
X16132944Y-14412365D02*
X16142467Y-14374269D01*
X16142467Y-14374269D02*
X16142467Y-14298079D01*
X16142467Y-14298079D02*
X16132944Y-14279031D01*
X16132944Y-14279031D02*
X16123420Y-14269508D01*
X16123420Y-14269508D02*
X16104372Y-14259984D01*
X16104372Y-14259984D02*
X16066277Y-14259984D01*
X16066277Y-14259984D02*
X16047229Y-14269508D01*
X16047229Y-14269508D02*
X16037706Y-14279031D01*
X16037706Y-14279031D02*
X16028182Y-14298079D01*
X16028182Y-14298079D02*
X16028182Y-14345698D01*
X16028182Y-14345698D02*
X16037706Y-14364746D01*
X16037706Y-14364746D02*
X16047229Y-14374269D01*
X16047229Y-14374269D02*
X16066277Y-14383793D01*
X16066277Y-14383793D02*
X16104372Y-14383793D01*
X16104372Y-14383793D02*
X16123420Y-14374269D01*
X16123420Y-14374269D02*
X16132944Y-14364746D01*
X16132944Y-14364746D02*
X16142467Y-14345698D01*
X16313896Y-14326650D02*
X16313896Y-14459984D01*
X16266277Y-14250460D02*
X16218658Y-14393317D01*
X16218658Y-14393317D02*
X16342467Y-14393317D01*
X16409134Y-14259984D02*
X16409134Y-14298079D01*
X16485325Y-14259984D02*
X16485325Y-14298079D01*
X16780563Y-14536174D02*
X16771039Y-14526650D01*
X16771039Y-14526650D02*
X16751991Y-14498079D01*
X16751991Y-14498079D02*
X16742468Y-14479031D01*
X16742468Y-14479031D02*
X16732944Y-14450460D01*
X16732944Y-14450460D02*
X16723420Y-14402841D01*
X16723420Y-14402841D02*
X16723420Y-14364746D01*
X16723420Y-14364746D02*
X16732944Y-14317127D01*
X16732944Y-14317127D02*
X16742468Y-14288555D01*
X16742468Y-14288555D02*
X16751991Y-14269508D01*
X16751991Y-14269508D02*
X16771039Y-14240936D01*
X16771039Y-14240936D02*
X16780563Y-14231412D01*
X16961515Y-14459984D02*
X16847230Y-14459984D01*
X16904372Y-14459984D02*
X16904372Y-14259984D01*
X16904372Y-14259984D02*
X16885325Y-14288555D01*
X16885325Y-14288555D02*
X16866277Y-14307603D01*
X16866277Y-14307603D02*
X16847230Y-14317127D01*
X17151991Y-14459984D02*
X17037706Y-14459984D01*
X17094849Y-14459984D02*
X17094849Y-14259984D01*
X17094849Y-14259984D02*
X17075801Y-14288555D01*
X17075801Y-14288555D02*
X17056753Y-14307603D01*
X17056753Y-14307603D02*
X17037706Y-14317127D01*
X17390087Y-14459984D02*
X17390087Y-14259984D01*
X17475801Y-14459984D02*
X17475801Y-14355222D01*
X17475801Y-14355222D02*
X17466277Y-14336174D01*
X17466277Y-14336174D02*
X17447230Y-14326650D01*
X17447230Y-14326650D02*
X17418658Y-14326650D01*
X17418658Y-14326650D02*
X17399611Y-14336174D01*
X17399611Y-14336174D02*
X17390087Y-14345698D01*
X17599611Y-14459984D02*
X17580563Y-14450460D01*
X17580563Y-14450460D02*
X17571039Y-14440936D01*
X17571039Y-14440936D02*
X17561515Y-14421888D01*
X17561515Y-14421888D02*
X17561515Y-14364746D01*
X17561515Y-14364746D02*
X17571039Y-14345698D01*
X17571039Y-14345698D02*
X17580563Y-14336174D01*
X17580563Y-14336174D02*
X17599611Y-14326650D01*
X17599611Y-14326650D02*
X17628182Y-14326650D01*
X17628182Y-14326650D02*
X17647230Y-14336174D01*
X17647230Y-14336174D02*
X17656753Y-14345698D01*
X17656753Y-14345698D02*
X17666277Y-14364746D01*
X17666277Y-14364746D02*
X17666277Y-14421888D01*
X17666277Y-14421888D02*
X17656753Y-14440936D01*
X17656753Y-14440936D02*
X17647230Y-14450460D01*
X17647230Y-14450460D02*
X17628182Y-14459984D01*
X17628182Y-14459984D02*
X17599611Y-14459984D01*
X17780563Y-14459984D02*
X17761515Y-14450460D01*
X17761515Y-14450460D02*
X17751992Y-14431412D01*
X17751992Y-14431412D02*
X17751992Y-14259984D01*
X17932944Y-14450460D02*
X17913896Y-14459984D01*
X17913896Y-14459984D02*
X17875801Y-14459984D01*
X17875801Y-14459984D02*
X17856753Y-14450460D01*
X17856753Y-14450460D02*
X17847230Y-14431412D01*
X17847230Y-14431412D02*
X17847230Y-14355222D01*
X17847230Y-14355222D02*
X17856753Y-14336174D01*
X17856753Y-14336174D02*
X17875801Y-14326650D01*
X17875801Y-14326650D02*
X17913896Y-14326650D01*
X17913896Y-14326650D02*
X17932944Y-14336174D01*
X17932944Y-14336174D02*
X17942468Y-14355222D01*
X17942468Y-14355222D02*
X17942468Y-14374269D01*
X17942468Y-14374269D02*
X17847230Y-14393317D01*
X18018658Y-14450460D02*
X18037706Y-14459984D01*
X18037706Y-14459984D02*
X18075801Y-14459984D01*
X18075801Y-14459984D02*
X18094849Y-14450460D01*
X18094849Y-14450460D02*
X18104373Y-14431412D01*
X18104373Y-14431412D02*
X18104373Y-14421888D01*
X18104373Y-14421888D02*
X18094849Y-14402841D01*
X18094849Y-14402841D02*
X18075801Y-14393317D01*
X18075801Y-14393317D02*
X18047230Y-14393317D01*
X18047230Y-14393317D02*
X18028182Y-14383793D01*
X18028182Y-14383793D02*
X18018658Y-14364746D01*
X18018658Y-14364746D02*
X18018658Y-14355222D01*
X18018658Y-14355222D02*
X18028182Y-14336174D01*
X18028182Y-14336174D02*
X18047230Y-14326650D01*
X18047230Y-14326650D02*
X18075801Y-14326650D01*
X18075801Y-14326650D02*
X18094849Y-14336174D01*
X18171039Y-14536174D02*
X18180563Y-14526650D01*
X18180563Y-14526650D02*
X18199611Y-14498079D01*
X18199611Y-14498079D02*
X18209134Y-14479031D01*
X18209134Y-14479031D02*
X18218658Y-14450460D01*
X18218658Y-14450460D02*
X18228182Y-14402841D01*
X18228182Y-14402841D02*
X18228182Y-14364746D01*
X18228182Y-14364746D02*
X18218658Y-14317127D01*
X18218658Y-14317127D02*
X18209134Y-14288555D01*
X18209134Y-14288555D02*
X18199611Y-14269508D01*
X18199611Y-14269508D02*
X18180563Y-14240936D01*
X18180563Y-14240936D02*
X18171039Y-14231412D01*
D13*
X13150000Y-14577000D02*
X13150000Y-14688000D01*
X13094500Y-14632500D02*
X13205500Y-14632500D01*
D11*
X13571039Y-14723984D02*
X13456753Y-14723984D01*
X13513896Y-14723984D02*
X13513896Y-14523984D01*
X13513896Y-14523984D02*
X13494848Y-14552555D01*
X13494848Y-14552555D02*
X13475801Y-14571603D01*
X13475801Y-14571603D02*
X13456753Y-14581127D01*
X13656753Y-14704936D02*
X13666277Y-14714460D01*
X13666277Y-14714460D02*
X13656753Y-14723984D01*
X13656753Y-14723984D02*
X13647229Y-14714460D01*
X13647229Y-14714460D02*
X13656753Y-14704936D01*
X13656753Y-14704936D02*
X13656753Y-14723984D01*
X13856753Y-14723984D02*
X13742467Y-14723984D01*
X13799610Y-14723984D02*
X13799610Y-14523984D01*
X13799610Y-14523984D02*
X13780562Y-14552555D01*
X13780562Y-14552555D02*
X13761515Y-14571603D01*
X13761515Y-14571603D02*
X13742467Y-14581127D01*
X14047229Y-14723984D02*
X13932943Y-14723984D01*
X13990086Y-14723984D02*
X13990086Y-14523984D01*
X13990086Y-14523984D02*
X13971039Y-14552555D01*
X13971039Y-14552555D02*
X13951991Y-14571603D01*
X13951991Y-14571603D02*
X13932943Y-14581127D01*
X14171039Y-14523984D02*
X14190086Y-14523984D01*
X14190086Y-14523984D02*
X14209134Y-14533508D01*
X14209134Y-14533508D02*
X14218658Y-14543031D01*
X14218658Y-14543031D02*
X14228182Y-14562079D01*
X14228182Y-14562079D02*
X14237705Y-14600174D01*
X14237705Y-14600174D02*
X14237705Y-14647793D01*
X14237705Y-14647793D02*
X14228182Y-14685888D01*
X14228182Y-14685888D02*
X14218658Y-14704936D01*
X14218658Y-14704936D02*
X14209134Y-14714460D01*
X14209134Y-14714460D02*
X14190086Y-14723984D01*
X14190086Y-14723984D02*
X14171039Y-14723984D01*
X14171039Y-14723984D02*
X14151991Y-14714460D01*
X14151991Y-14714460D02*
X14142467Y-14704936D01*
X14142467Y-14704936D02*
X14132943Y-14685888D01*
X14132943Y-14685888D02*
X14123420Y-14647793D01*
X14123420Y-14647793D02*
X14123420Y-14600174D01*
X14123420Y-14600174D02*
X14132943Y-14562079D01*
X14132943Y-14562079D02*
X14142467Y-14543031D01*
X14142467Y-14543031D02*
X14151991Y-14533508D01*
X14151991Y-14533508D02*
X14171039Y-14523984D01*
X14323420Y-14723984D02*
X14323420Y-14590650D01*
X14323420Y-14609698D02*
X14332943Y-14600174D01*
X14332943Y-14600174D02*
X14351991Y-14590650D01*
X14351991Y-14590650D02*
X14380563Y-14590650D01*
X14380563Y-14590650D02*
X14399610Y-14600174D01*
X14399610Y-14600174D02*
X14409134Y-14619222D01*
X14409134Y-14619222D02*
X14409134Y-14723984D01*
X14409134Y-14619222D02*
X14418658Y-14600174D01*
X14418658Y-14600174D02*
X14437705Y-14590650D01*
X14437705Y-14590650D02*
X14466277Y-14590650D01*
X14466277Y-14590650D02*
X14485324Y-14600174D01*
X14485324Y-14600174D02*
X14494848Y-14619222D01*
X14494848Y-14619222D02*
X14494848Y-14723984D01*
X14590086Y-14723984D02*
X14590086Y-14590650D01*
X14590086Y-14609698D02*
X14599610Y-14600174D01*
X14599610Y-14600174D02*
X14618658Y-14590650D01*
X14618658Y-14590650D02*
X14647229Y-14590650D01*
X14647229Y-14590650D02*
X14666277Y-14600174D01*
X14666277Y-14600174D02*
X14675801Y-14619222D01*
X14675801Y-14619222D02*
X14675801Y-14723984D01*
X14675801Y-14619222D02*
X14685324Y-14600174D01*
X14685324Y-14600174D02*
X14704372Y-14590650D01*
X14704372Y-14590650D02*
X14732943Y-14590650D01*
X14732943Y-14590650D02*
X14751991Y-14600174D01*
X14751991Y-14600174D02*
X14761515Y-14619222D01*
X14761515Y-14619222D02*
X14761515Y-14723984D01*
X15151991Y-14514460D02*
X14980563Y-14771603D01*
X15409134Y-14523984D02*
X15428182Y-14523984D01*
X15428182Y-14523984D02*
X15447229Y-14533508D01*
X15447229Y-14533508D02*
X15456753Y-14543031D01*
X15456753Y-14543031D02*
X15466277Y-14562079D01*
X15466277Y-14562079D02*
X15475801Y-14600174D01*
X15475801Y-14600174D02*
X15475801Y-14647793D01*
X15475801Y-14647793D02*
X15466277Y-14685888D01*
X15466277Y-14685888D02*
X15456753Y-14704936D01*
X15456753Y-14704936D02*
X15447229Y-14714460D01*
X15447229Y-14714460D02*
X15428182Y-14723984D01*
X15428182Y-14723984D02*
X15409134Y-14723984D01*
X15409134Y-14723984D02*
X15390086Y-14714460D01*
X15390086Y-14714460D02*
X15380563Y-14704936D01*
X15380563Y-14704936D02*
X15371039Y-14685888D01*
X15371039Y-14685888D02*
X15361515Y-14647793D01*
X15361515Y-14647793D02*
X15361515Y-14600174D01*
X15361515Y-14600174D02*
X15371039Y-14562079D01*
X15371039Y-14562079D02*
X15380563Y-14543031D01*
X15380563Y-14543031D02*
X15390086Y-14533508D01*
X15390086Y-14533508D02*
X15409134Y-14523984D01*
X15561515Y-14704936D02*
X15571039Y-14714460D01*
X15571039Y-14714460D02*
X15561515Y-14723984D01*
X15561515Y-14723984D02*
X15551991Y-14714460D01*
X15551991Y-14714460D02*
X15561515Y-14704936D01*
X15561515Y-14704936D02*
X15561515Y-14723984D01*
X15694848Y-14523984D02*
X15713896Y-14523984D01*
X15713896Y-14523984D02*
X15732944Y-14533508D01*
X15732944Y-14533508D02*
X15742467Y-14543031D01*
X15742467Y-14543031D02*
X15751991Y-14562079D01*
X15751991Y-14562079D02*
X15761515Y-14600174D01*
X15761515Y-14600174D02*
X15761515Y-14647793D01*
X15761515Y-14647793D02*
X15751991Y-14685888D01*
X15751991Y-14685888D02*
X15742467Y-14704936D01*
X15742467Y-14704936D02*
X15732944Y-14714460D01*
X15732944Y-14714460D02*
X15713896Y-14723984D01*
X15713896Y-14723984D02*
X15694848Y-14723984D01*
X15694848Y-14723984D02*
X15675801Y-14714460D01*
X15675801Y-14714460D02*
X15666277Y-14704936D01*
X15666277Y-14704936D02*
X15656753Y-14685888D01*
X15656753Y-14685888D02*
X15647229Y-14647793D01*
X15647229Y-14647793D02*
X15647229Y-14600174D01*
X15647229Y-14600174D02*
X15656753Y-14562079D01*
X15656753Y-14562079D02*
X15666277Y-14543031D01*
X15666277Y-14543031D02*
X15675801Y-14533508D01*
X15675801Y-14533508D02*
X15694848Y-14523984D01*
X15932944Y-14590650D02*
X15932944Y-14723984D01*
X15885325Y-14514460D02*
X15837706Y-14657317D01*
X15837706Y-14657317D02*
X15961515Y-14657317D01*
X16018658Y-14523984D02*
X16142467Y-14523984D01*
X16142467Y-14523984D02*
X16075801Y-14600174D01*
X16075801Y-14600174D02*
X16104372Y-14600174D01*
X16104372Y-14600174D02*
X16123420Y-14609698D01*
X16123420Y-14609698D02*
X16132944Y-14619222D01*
X16132944Y-14619222D02*
X16142467Y-14638269D01*
X16142467Y-14638269D02*
X16142467Y-14685888D01*
X16142467Y-14685888D02*
X16132944Y-14704936D01*
X16132944Y-14704936D02*
X16123420Y-14714460D01*
X16123420Y-14714460D02*
X16104372Y-14723984D01*
X16104372Y-14723984D02*
X16047229Y-14723984D01*
X16047229Y-14723984D02*
X16028182Y-14714460D01*
X16028182Y-14714460D02*
X16018658Y-14704936D01*
X16209134Y-14523984D02*
X16342467Y-14523984D01*
X16342467Y-14523984D02*
X16256753Y-14723984D01*
X16409134Y-14523984D02*
X16409134Y-14562079D01*
X16485325Y-14523984D02*
X16485325Y-14562079D01*
X16780563Y-14800174D02*
X16771039Y-14790650D01*
X16771039Y-14790650D02*
X16751991Y-14762079D01*
X16751991Y-14762079D02*
X16742468Y-14743031D01*
X16742468Y-14743031D02*
X16732944Y-14714460D01*
X16732944Y-14714460D02*
X16723420Y-14666841D01*
X16723420Y-14666841D02*
X16723420Y-14628746D01*
X16723420Y-14628746D02*
X16732944Y-14581127D01*
X16732944Y-14581127D02*
X16742468Y-14552555D01*
X16742468Y-14552555D02*
X16751991Y-14533508D01*
X16751991Y-14533508D02*
X16771039Y-14504936D01*
X16771039Y-14504936D02*
X16780563Y-14495412D01*
X16961515Y-14723984D02*
X16847230Y-14723984D01*
X16904372Y-14723984D02*
X16904372Y-14523984D01*
X16904372Y-14523984D02*
X16885325Y-14552555D01*
X16885325Y-14552555D02*
X16866277Y-14571603D01*
X16866277Y-14571603D02*
X16847230Y-14581127D01*
X17132944Y-14523984D02*
X17094849Y-14523984D01*
X17094849Y-14523984D02*
X17075801Y-14533508D01*
X17075801Y-14533508D02*
X17066277Y-14543031D01*
X17066277Y-14543031D02*
X17047230Y-14571603D01*
X17047230Y-14571603D02*
X17037706Y-14609698D01*
X17037706Y-14609698D02*
X17037706Y-14685888D01*
X17037706Y-14685888D02*
X17047230Y-14704936D01*
X17047230Y-14704936D02*
X17056753Y-14714460D01*
X17056753Y-14714460D02*
X17075801Y-14723984D01*
X17075801Y-14723984D02*
X17113896Y-14723984D01*
X17113896Y-14723984D02*
X17132944Y-14714460D01*
X17132944Y-14714460D02*
X17142468Y-14704936D01*
X17142468Y-14704936D02*
X17151991Y-14685888D01*
X17151991Y-14685888D02*
X17151991Y-14638269D01*
X17151991Y-14638269D02*
X17142468Y-14619222D01*
X17142468Y-14619222D02*
X17132944Y-14609698D01*
X17132944Y-14609698D02*
X17113896Y-14600174D01*
X17113896Y-14600174D02*
X17075801Y-14600174D01*
X17075801Y-14600174D02*
X17056753Y-14609698D01*
X17056753Y-14609698D02*
X17047230Y-14619222D01*
X17047230Y-14619222D02*
X17037706Y-14638269D01*
X17390087Y-14723984D02*
X17390087Y-14523984D01*
X17475801Y-14723984D02*
X17475801Y-14619222D01*
X17475801Y-14619222D02*
X17466277Y-14600174D01*
X17466277Y-14600174D02*
X17447230Y-14590650D01*
X17447230Y-14590650D02*
X17418658Y-14590650D01*
X17418658Y-14590650D02*
X17399611Y-14600174D01*
X17399611Y-14600174D02*
X17390087Y-14609698D01*
X17599611Y-14723984D02*
X17580563Y-14714460D01*
X17580563Y-14714460D02*
X17571039Y-14704936D01*
X17571039Y-14704936D02*
X17561515Y-14685888D01*
X17561515Y-14685888D02*
X17561515Y-14628746D01*
X17561515Y-14628746D02*
X17571039Y-14609698D01*
X17571039Y-14609698D02*
X17580563Y-14600174D01*
X17580563Y-14600174D02*
X17599611Y-14590650D01*
X17599611Y-14590650D02*
X17628182Y-14590650D01*
X17628182Y-14590650D02*
X17647230Y-14600174D01*
X17647230Y-14600174D02*
X17656753Y-14609698D01*
X17656753Y-14609698D02*
X17666277Y-14628746D01*
X17666277Y-14628746D02*
X17666277Y-14685888D01*
X17666277Y-14685888D02*
X17656753Y-14704936D01*
X17656753Y-14704936D02*
X17647230Y-14714460D01*
X17647230Y-14714460D02*
X17628182Y-14723984D01*
X17628182Y-14723984D02*
X17599611Y-14723984D01*
X17780563Y-14723984D02*
X17761515Y-14714460D01*
X17761515Y-14714460D02*
X17751992Y-14695412D01*
X17751992Y-14695412D02*
X17751992Y-14523984D01*
X17932944Y-14714460D02*
X17913896Y-14723984D01*
X17913896Y-14723984D02*
X17875801Y-14723984D01*
X17875801Y-14723984D02*
X17856753Y-14714460D01*
X17856753Y-14714460D02*
X17847230Y-14695412D01*
X17847230Y-14695412D02*
X17847230Y-14619222D01*
X17847230Y-14619222D02*
X17856753Y-14600174D01*
X17856753Y-14600174D02*
X17875801Y-14590650D01*
X17875801Y-14590650D02*
X17913896Y-14590650D01*
X17913896Y-14590650D02*
X17932944Y-14600174D01*
X17932944Y-14600174D02*
X17942468Y-14619222D01*
X17942468Y-14619222D02*
X17942468Y-14638269D01*
X17942468Y-14638269D02*
X17847230Y-14657317D01*
X18018658Y-14714460D02*
X18037706Y-14723984D01*
X18037706Y-14723984D02*
X18075801Y-14723984D01*
X18075801Y-14723984D02*
X18094849Y-14714460D01*
X18094849Y-14714460D02*
X18104373Y-14695412D01*
X18104373Y-14695412D02*
X18104373Y-14685888D01*
X18104373Y-14685888D02*
X18094849Y-14666841D01*
X18094849Y-14666841D02*
X18075801Y-14657317D01*
X18075801Y-14657317D02*
X18047230Y-14657317D01*
X18047230Y-14657317D02*
X18028182Y-14647793D01*
X18028182Y-14647793D02*
X18018658Y-14628746D01*
X18018658Y-14628746D02*
X18018658Y-14619222D01*
X18018658Y-14619222D02*
X18028182Y-14600174D01*
X18028182Y-14600174D02*
X18047230Y-14590650D01*
X18047230Y-14590650D02*
X18075801Y-14590650D01*
X18075801Y-14590650D02*
X18094849Y-14600174D01*
X18171039Y-14800174D02*
X18180563Y-14790650D01*
X18180563Y-14790650D02*
X18199611Y-14762079D01*
X18199611Y-14762079D02*
X18209134Y-14743031D01*
X18209134Y-14743031D02*
X18218658Y-14714460D01*
X18218658Y-14714460D02*
X18228182Y-14666841D01*
X18228182Y-14666841D02*
X18228182Y-14628746D01*
X18228182Y-14628746D02*
X18218658Y-14581127D01*
X18218658Y-14581127D02*
X18209134Y-14552555D01*
X18209134Y-14552555D02*
X18199611Y-14533508D01*
X18199611Y-14533508D02*
X18180563Y-14504936D01*
X18180563Y-14504936D02*
X18171039Y-14495412D01*
D14*
X13186755Y-14941755D02*
X13186755Y-14851245D01*
X13096245Y-14851245D01*
X13096245Y-14941755D01*
X13186755Y-14941755D01*
D11*
X13571039Y-14987984D02*
X13456753Y-14987984D01*
X13513896Y-14987984D02*
X13513896Y-14787984D01*
X13513896Y-14787984D02*
X13494848Y-14816555D01*
X13494848Y-14816555D02*
X13475801Y-14835603D01*
X13475801Y-14835603D02*
X13456753Y-14845127D01*
X13656753Y-14968936D02*
X13666277Y-14978460D01*
X13666277Y-14978460D02*
X13656753Y-14987984D01*
X13656753Y-14987984D02*
X13647229Y-14978460D01*
X13647229Y-14978460D02*
X13656753Y-14968936D01*
X13656753Y-14968936D02*
X13656753Y-14987984D01*
X13742467Y-14807031D02*
X13751991Y-14797508D01*
X13751991Y-14797508D02*
X13771039Y-14787984D01*
X13771039Y-14787984D02*
X13818658Y-14787984D01*
X13818658Y-14787984D02*
X13837705Y-14797508D01*
X13837705Y-14797508D02*
X13847229Y-14807031D01*
X13847229Y-14807031D02*
X13856753Y-14826079D01*
X13856753Y-14826079D02*
X13856753Y-14845127D01*
X13856753Y-14845127D02*
X13847229Y-14873698D01*
X13847229Y-14873698D02*
X13732943Y-14987984D01*
X13732943Y-14987984D02*
X13856753Y-14987984D01*
X13971039Y-14873698D02*
X13951991Y-14864174D01*
X13951991Y-14864174D02*
X13942467Y-14854650D01*
X13942467Y-14854650D02*
X13932943Y-14835603D01*
X13932943Y-14835603D02*
X13932943Y-14826079D01*
X13932943Y-14826079D02*
X13942467Y-14807031D01*
X13942467Y-14807031D02*
X13951991Y-14797508D01*
X13951991Y-14797508D02*
X13971039Y-14787984D01*
X13971039Y-14787984D02*
X14009134Y-14787984D01*
X14009134Y-14787984D02*
X14028182Y-14797508D01*
X14028182Y-14797508D02*
X14037705Y-14807031D01*
X14037705Y-14807031D02*
X14047229Y-14826079D01*
X14047229Y-14826079D02*
X14047229Y-14835603D01*
X14047229Y-14835603D02*
X14037705Y-14854650D01*
X14037705Y-14854650D02*
X14028182Y-14864174D01*
X14028182Y-14864174D02*
X14009134Y-14873698D01*
X14009134Y-14873698D02*
X13971039Y-14873698D01*
X13971039Y-14873698D02*
X13951991Y-14883222D01*
X13951991Y-14883222D02*
X13942467Y-14892746D01*
X13942467Y-14892746D02*
X13932943Y-14911793D01*
X13932943Y-14911793D02*
X13932943Y-14949888D01*
X13932943Y-14949888D02*
X13942467Y-14968936D01*
X13942467Y-14968936D02*
X13951991Y-14978460D01*
X13951991Y-14978460D02*
X13971039Y-14987984D01*
X13971039Y-14987984D02*
X14009134Y-14987984D01*
X14009134Y-14987984D02*
X14028182Y-14978460D01*
X14028182Y-14978460D02*
X14037705Y-14968936D01*
X14037705Y-14968936D02*
X14047229Y-14949888D01*
X14047229Y-14949888D02*
X14047229Y-14911793D01*
X14047229Y-14911793D02*
X14037705Y-14892746D01*
X14037705Y-14892746D02*
X14028182Y-14883222D01*
X14028182Y-14883222D02*
X14009134Y-14873698D01*
X14171039Y-14787984D02*
X14190086Y-14787984D01*
X14190086Y-14787984D02*
X14209134Y-14797508D01*
X14209134Y-14797508D02*
X14218658Y-14807031D01*
X14218658Y-14807031D02*
X14228182Y-14826079D01*
X14228182Y-14826079D02*
X14237705Y-14864174D01*
X14237705Y-14864174D02*
X14237705Y-14911793D01*
X14237705Y-14911793D02*
X14228182Y-14949888D01*
X14228182Y-14949888D02*
X14218658Y-14968936D01*
X14218658Y-14968936D02*
X14209134Y-14978460D01*
X14209134Y-14978460D02*
X14190086Y-14987984D01*
X14190086Y-14987984D02*
X14171039Y-14987984D01*
X14171039Y-14987984D02*
X14151991Y-14978460D01*
X14151991Y-14978460D02*
X14142467Y-14968936D01*
X14142467Y-14968936D02*
X14132943Y-14949888D01*
X14132943Y-14949888D02*
X14123420Y-14911793D01*
X14123420Y-14911793D02*
X14123420Y-14864174D01*
X14123420Y-14864174D02*
X14132943Y-14826079D01*
X14132943Y-14826079D02*
X14142467Y-14807031D01*
X14142467Y-14807031D02*
X14151991Y-14797508D01*
X14151991Y-14797508D02*
X14171039Y-14787984D01*
X14323420Y-14987984D02*
X14323420Y-14854650D01*
X14323420Y-14873698D02*
X14332943Y-14864174D01*
X14332943Y-14864174D02*
X14351991Y-14854650D01*
X14351991Y-14854650D02*
X14380563Y-14854650D01*
X14380563Y-14854650D02*
X14399610Y-14864174D01*
X14399610Y-14864174D02*
X14409134Y-14883222D01*
X14409134Y-14883222D02*
X14409134Y-14987984D01*
X14409134Y-14883222D02*
X14418658Y-14864174D01*
X14418658Y-14864174D02*
X14437705Y-14854650D01*
X14437705Y-14854650D02*
X14466277Y-14854650D01*
X14466277Y-14854650D02*
X14485324Y-14864174D01*
X14485324Y-14864174D02*
X14494848Y-14883222D01*
X14494848Y-14883222D02*
X14494848Y-14987984D01*
X14590086Y-14987984D02*
X14590086Y-14854650D01*
X14590086Y-14873698D02*
X14599610Y-14864174D01*
X14599610Y-14864174D02*
X14618658Y-14854650D01*
X14618658Y-14854650D02*
X14647229Y-14854650D01*
X14647229Y-14854650D02*
X14666277Y-14864174D01*
X14666277Y-14864174D02*
X14675801Y-14883222D01*
X14675801Y-14883222D02*
X14675801Y-14987984D01*
X14675801Y-14883222D02*
X14685324Y-14864174D01*
X14685324Y-14864174D02*
X14704372Y-14854650D01*
X14704372Y-14854650D02*
X14732943Y-14854650D01*
X14732943Y-14854650D02*
X14751991Y-14864174D01*
X14751991Y-14864174D02*
X14761515Y-14883222D01*
X14761515Y-14883222D02*
X14761515Y-14987984D01*
X15151991Y-14778460D02*
X14980563Y-15035603D01*
X15409134Y-14787984D02*
X15428182Y-14787984D01*
X15428182Y-14787984D02*
X15447229Y-14797508D01*
X15447229Y-14797508D02*
X15456753Y-14807031D01*
X15456753Y-14807031D02*
X15466277Y-14826079D01*
X15466277Y-14826079D02*
X15475801Y-14864174D01*
X15475801Y-14864174D02*
X15475801Y-14911793D01*
X15475801Y-14911793D02*
X15466277Y-14949888D01*
X15466277Y-14949888D02*
X15456753Y-14968936D01*
X15456753Y-14968936D02*
X15447229Y-14978460D01*
X15447229Y-14978460D02*
X15428182Y-14987984D01*
X15428182Y-14987984D02*
X15409134Y-14987984D01*
X15409134Y-14987984D02*
X15390086Y-14978460D01*
X15390086Y-14978460D02*
X15380563Y-14968936D01*
X15380563Y-14968936D02*
X15371039Y-14949888D01*
X15371039Y-14949888D02*
X15361515Y-14911793D01*
X15361515Y-14911793D02*
X15361515Y-14864174D01*
X15361515Y-14864174D02*
X15371039Y-14826079D01*
X15371039Y-14826079D02*
X15380563Y-14807031D01*
X15380563Y-14807031D02*
X15390086Y-14797508D01*
X15390086Y-14797508D02*
X15409134Y-14787984D01*
X15561515Y-14968936D02*
X15571039Y-14978460D01*
X15571039Y-14978460D02*
X15561515Y-14987984D01*
X15561515Y-14987984D02*
X15551991Y-14978460D01*
X15551991Y-14978460D02*
X15561515Y-14968936D01*
X15561515Y-14968936D02*
X15561515Y-14987984D01*
X15694848Y-14787984D02*
X15713896Y-14787984D01*
X15713896Y-14787984D02*
X15732944Y-14797508D01*
X15732944Y-14797508D02*
X15742467Y-14807031D01*
X15742467Y-14807031D02*
X15751991Y-14826079D01*
X15751991Y-14826079D02*
X15761515Y-14864174D01*
X15761515Y-14864174D02*
X15761515Y-14911793D01*
X15761515Y-14911793D02*
X15751991Y-14949888D01*
X15751991Y-14949888D02*
X15742467Y-14968936D01*
X15742467Y-14968936D02*
X15732944Y-14978460D01*
X15732944Y-14978460D02*
X15713896Y-14987984D01*
X15713896Y-14987984D02*
X15694848Y-14987984D01*
X15694848Y-14987984D02*
X15675801Y-14978460D01*
X15675801Y-14978460D02*
X15666277Y-14968936D01*
X15666277Y-14968936D02*
X15656753Y-14949888D01*
X15656753Y-14949888D02*
X15647229Y-14911793D01*
X15647229Y-14911793D02*
X15647229Y-14864174D01*
X15647229Y-14864174D02*
X15656753Y-14826079D01*
X15656753Y-14826079D02*
X15666277Y-14807031D01*
X15666277Y-14807031D02*
X15675801Y-14797508D01*
X15675801Y-14797508D02*
X15694848Y-14787984D01*
X15942467Y-14787984D02*
X15847229Y-14787984D01*
X15847229Y-14787984D02*
X15837706Y-14883222D01*
X15837706Y-14883222D02*
X15847229Y-14873698D01*
X15847229Y-14873698D02*
X15866277Y-14864174D01*
X15866277Y-14864174D02*
X15913896Y-14864174D01*
X15913896Y-14864174D02*
X15932944Y-14873698D01*
X15932944Y-14873698D02*
X15942467Y-14883222D01*
X15942467Y-14883222D02*
X15951991Y-14902269D01*
X15951991Y-14902269D02*
X15951991Y-14949888D01*
X15951991Y-14949888D02*
X15942467Y-14968936D01*
X15942467Y-14968936D02*
X15932944Y-14978460D01*
X15932944Y-14978460D02*
X15913896Y-14987984D01*
X15913896Y-14987984D02*
X15866277Y-14987984D01*
X15866277Y-14987984D02*
X15847229Y-14978460D01*
X15847229Y-14978460D02*
X15837706Y-14968936D01*
X16075801Y-14787984D02*
X16094848Y-14787984D01*
X16094848Y-14787984D02*
X16113896Y-14797508D01*
X16113896Y-14797508D02*
X16123420Y-14807031D01*
X16123420Y-14807031D02*
X16132944Y-14826079D01*
X16132944Y-14826079D02*
X16142467Y-14864174D01*
X16142467Y-14864174D02*
X16142467Y-14911793D01*
X16142467Y-14911793D02*
X16132944Y-14949888D01*
X16132944Y-14949888D02*
X16123420Y-14968936D01*
X16123420Y-14968936D02*
X16113896Y-14978460D01*
X16113896Y-14978460D02*
X16094848Y-14987984D01*
X16094848Y-14987984D02*
X16075801Y-14987984D01*
X16075801Y-14987984D02*
X16056753Y-14978460D01*
X16056753Y-14978460D02*
X16047229Y-14968936D01*
X16047229Y-14968936D02*
X16037706Y-14949888D01*
X16037706Y-14949888D02*
X16028182Y-14911793D01*
X16028182Y-14911793D02*
X16028182Y-14864174D01*
X16028182Y-14864174D02*
X16037706Y-14826079D01*
X16037706Y-14826079D02*
X16047229Y-14807031D01*
X16047229Y-14807031D02*
X16056753Y-14797508D01*
X16056753Y-14797508D02*
X16075801Y-14787984D01*
X16313896Y-14854650D02*
X16313896Y-14987984D01*
X16266277Y-14778460D02*
X16218658Y-14921317D01*
X16218658Y-14921317D02*
X16342467Y-14921317D01*
X16409134Y-14787984D02*
X16409134Y-14826079D01*
X16485325Y-14787984D02*
X16485325Y-14826079D01*
X16780563Y-15064174D02*
X16771039Y-15054650D01*
X16771039Y-15054650D02*
X16751991Y-15026079D01*
X16751991Y-15026079D02*
X16742468Y-15007031D01*
X16742468Y-15007031D02*
X16732944Y-14978460D01*
X16732944Y-14978460D02*
X16723420Y-14930841D01*
X16723420Y-14930841D02*
X16723420Y-14892746D01*
X16723420Y-14892746D02*
X16732944Y-14845127D01*
X16732944Y-14845127D02*
X16742468Y-14816555D01*
X16742468Y-14816555D02*
X16751991Y-14797508D01*
X16751991Y-14797508D02*
X16771039Y-14768936D01*
X16771039Y-14768936D02*
X16780563Y-14759412D01*
X16942468Y-14854650D02*
X16942468Y-14987984D01*
X16894849Y-14778460D02*
X16847230Y-14921317D01*
X16847230Y-14921317D02*
X16971039Y-14921317D01*
X17199611Y-14987984D02*
X17199611Y-14787984D01*
X17285325Y-14987984D02*
X17285325Y-14883222D01*
X17285325Y-14883222D02*
X17275801Y-14864174D01*
X17275801Y-14864174D02*
X17256753Y-14854650D01*
X17256753Y-14854650D02*
X17228182Y-14854650D01*
X17228182Y-14854650D02*
X17209134Y-14864174D01*
X17209134Y-14864174D02*
X17199611Y-14873698D01*
X17409134Y-14987984D02*
X17390087Y-14978460D01*
X17390087Y-14978460D02*
X17380563Y-14968936D01*
X17380563Y-14968936D02*
X17371039Y-14949888D01*
X17371039Y-14949888D02*
X17371039Y-14892746D01*
X17371039Y-14892746D02*
X17380563Y-14873698D01*
X17380563Y-14873698D02*
X17390087Y-14864174D01*
X17390087Y-14864174D02*
X17409134Y-14854650D01*
X17409134Y-14854650D02*
X17437706Y-14854650D01*
X17437706Y-14854650D02*
X17456753Y-14864174D01*
X17456753Y-14864174D02*
X17466277Y-14873698D01*
X17466277Y-14873698D02*
X17475801Y-14892746D01*
X17475801Y-14892746D02*
X17475801Y-14949888D01*
X17475801Y-14949888D02*
X17466277Y-14968936D01*
X17466277Y-14968936D02*
X17456753Y-14978460D01*
X17456753Y-14978460D02*
X17437706Y-14987984D01*
X17437706Y-14987984D02*
X17409134Y-14987984D01*
X17590087Y-14987984D02*
X17571039Y-14978460D01*
X17571039Y-14978460D02*
X17561515Y-14959412D01*
X17561515Y-14959412D02*
X17561515Y-14787984D01*
X17742468Y-14978460D02*
X17723420Y-14987984D01*
X17723420Y-14987984D02*
X17685325Y-14987984D01*
X17685325Y-14987984D02*
X17666277Y-14978460D01*
X17666277Y-14978460D02*
X17656753Y-14959412D01*
X17656753Y-14959412D02*
X17656753Y-14883222D01*
X17656753Y-14883222D02*
X17666277Y-14864174D01*
X17666277Y-14864174D02*
X17685325Y-14854650D01*
X17685325Y-14854650D02*
X17723420Y-14854650D01*
X17723420Y-14854650D02*
X17742468Y-14864174D01*
X17742468Y-14864174D02*
X17751992Y-14883222D01*
X17751992Y-14883222D02*
X17751992Y-14902269D01*
X17751992Y-14902269D02*
X17656753Y-14921317D01*
X17828182Y-14978460D02*
X17847230Y-14987984D01*
X17847230Y-14987984D02*
X17885325Y-14987984D01*
X17885325Y-14987984D02*
X17904373Y-14978460D01*
X17904373Y-14978460D02*
X17913896Y-14959412D01*
X17913896Y-14959412D02*
X17913896Y-14949888D01*
X17913896Y-14949888D02*
X17904373Y-14930841D01*
X17904373Y-14930841D02*
X17885325Y-14921317D01*
X17885325Y-14921317D02*
X17856753Y-14921317D01*
X17856753Y-14921317D02*
X17837706Y-14911793D01*
X17837706Y-14911793D02*
X17828182Y-14892746D01*
X17828182Y-14892746D02*
X17828182Y-14883222D01*
X17828182Y-14883222D02*
X17837706Y-14864174D01*
X17837706Y-14864174D02*
X17856753Y-14854650D01*
X17856753Y-14854650D02*
X17885325Y-14854650D01*
X17885325Y-14854650D02*
X17904373Y-14864174D01*
X17980563Y-15064174D02*
X17990087Y-15054650D01*
X17990087Y-15054650D02*
X18009134Y-15026079D01*
X18009134Y-15026079D02*
X18018658Y-15007031D01*
X18018658Y-15007031D02*
X18028182Y-14978460D01*
X18028182Y-14978460D02*
X18037706Y-14930841D01*
X18037706Y-14930841D02*
X18037706Y-14892746D01*
X18037706Y-14892746D02*
X18028182Y-14845127D01*
X18028182Y-14845127D02*
X18018658Y-14816555D01*
X18018658Y-14816555D02*
X18009134Y-14797508D01*
X18009134Y-14797508D02*
X17990087Y-14768936D01*
X17990087Y-14768936D02*
X17980563Y-14759412D01*
M02*
