%TF.GenerationSoftware,KiCad,Pcbnew,8.0.3-1.fc40*%
%TF.CreationDate,2024-06-24T14:15:44-04:00*%
%TF.ProjectId,OS42Micro,4f533432-4d69-4637-926f-2e6b69636164,rev?*%
%TF.SameCoordinates,Original*%
%TF.FileFunction,Drillmap*%
%TF.FilePolarity,Positive*%
%FSLAX45Y45*%
G04 Gerber Fmt 4.5, Leading zero omitted, Abs format (unit mm)*
G04 Created by KiCad (PCBNEW 8.0.3-1.fc40) date 2024-06-24 14:15:44*
%MOMM*%
%LPD*%
G01*
G04 APERTURE LIST*
%ADD10C,0.050000*%
%ADD11C,0.200000*%
G04 APERTURE END LIST*
D10*
X15150000Y-9525000D02*
X14780000Y-9525000D01*
X15150000Y-10100000D02*
X15150000Y-9525000D01*
X15350000Y-11800000D02*
X15350000Y-10100000D01*
X13550000Y-14425000D02*
X13550000Y-14650000D01*
X13550000Y-14650000D02*
X13350000Y-14650000D01*
X14780000Y-9525000D02*
X14780000Y-10100000D01*
X15750000Y-15450000D02*
X15750000Y-11800000D01*
X13350000Y-15450000D02*
X15750000Y-15450000D01*
X13350000Y-14650000D02*
X13350000Y-15450000D01*
X15750000Y-11800000D02*
X15350000Y-11800000D01*
X13200000Y-14425000D02*
X13550000Y-14425000D01*
X15350000Y-10100000D02*
X15150000Y-10100000D01*
X14780000Y-10100000D02*
X13200000Y-10100000D01*
X13200000Y-10100000D02*
X13200000Y-14425000D01*
D11*
X13458277Y-15763984D02*
X13458277Y-15563984D01*
X13458277Y-15563984D02*
X13505896Y-15563984D01*
X13505896Y-15563984D02*
X13534467Y-15573508D01*
X13534467Y-15573508D02*
X13553515Y-15592555D01*
X13553515Y-15592555D02*
X13563039Y-15611603D01*
X13563039Y-15611603D02*
X13572562Y-15649698D01*
X13572562Y-15649698D02*
X13572562Y-15678269D01*
X13572562Y-15678269D02*
X13563039Y-15716365D01*
X13563039Y-15716365D02*
X13553515Y-15735412D01*
X13553515Y-15735412D02*
X13534467Y-15754460D01*
X13534467Y-15754460D02*
X13505896Y-15763984D01*
X13505896Y-15763984D02*
X13458277Y-15763984D01*
X13658277Y-15763984D02*
X13658277Y-15630650D01*
X13658277Y-15668746D02*
X13667801Y-15649698D01*
X13667801Y-15649698D02*
X13677324Y-15640174D01*
X13677324Y-15640174D02*
X13696372Y-15630650D01*
X13696372Y-15630650D02*
X13715420Y-15630650D01*
X13782086Y-15763984D02*
X13782086Y-15630650D01*
X13782086Y-15563984D02*
X13772562Y-15573508D01*
X13772562Y-15573508D02*
X13782086Y-15583031D01*
X13782086Y-15583031D02*
X13791610Y-15573508D01*
X13791610Y-15573508D02*
X13782086Y-15563984D01*
X13782086Y-15563984D02*
X13782086Y-15583031D01*
X13905896Y-15763984D02*
X13886848Y-15754460D01*
X13886848Y-15754460D02*
X13877324Y-15735412D01*
X13877324Y-15735412D02*
X13877324Y-15563984D01*
X14010658Y-15763984D02*
X13991610Y-15754460D01*
X13991610Y-15754460D02*
X13982086Y-15735412D01*
X13982086Y-15735412D02*
X13982086Y-15563984D01*
X14239229Y-15763984D02*
X14239229Y-15563984D01*
X14239229Y-15563984D02*
X14305896Y-15706841D01*
X14305896Y-15706841D02*
X14372562Y-15563984D01*
X14372562Y-15563984D02*
X14372562Y-15763984D01*
X14553515Y-15763984D02*
X14553515Y-15659222D01*
X14553515Y-15659222D02*
X14543991Y-15640174D01*
X14543991Y-15640174D02*
X14524943Y-15630650D01*
X14524943Y-15630650D02*
X14486848Y-15630650D01*
X14486848Y-15630650D02*
X14467801Y-15640174D01*
X14553515Y-15754460D02*
X14534467Y-15763984D01*
X14534467Y-15763984D02*
X14486848Y-15763984D01*
X14486848Y-15763984D02*
X14467801Y-15754460D01*
X14467801Y-15754460D02*
X14458277Y-15735412D01*
X14458277Y-15735412D02*
X14458277Y-15716365D01*
X14458277Y-15716365D02*
X14467801Y-15697317D01*
X14467801Y-15697317D02*
X14486848Y-15687793D01*
X14486848Y-15687793D02*
X14534467Y-15687793D01*
X14534467Y-15687793D02*
X14553515Y-15678269D01*
X14648753Y-15630650D02*
X14648753Y-15830650D01*
X14648753Y-15640174D02*
X14667801Y-15630650D01*
X14667801Y-15630650D02*
X14705896Y-15630650D01*
X14705896Y-15630650D02*
X14724943Y-15640174D01*
X14724943Y-15640174D02*
X14734467Y-15649698D01*
X14734467Y-15649698D02*
X14743991Y-15668746D01*
X14743991Y-15668746D02*
X14743991Y-15725888D01*
X14743991Y-15725888D02*
X14734467Y-15744936D01*
X14734467Y-15744936D02*
X14724943Y-15754460D01*
X14724943Y-15754460D02*
X14705896Y-15763984D01*
X14705896Y-15763984D02*
X14667801Y-15763984D01*
X14667801Y-15763984D02*
X14648753Y-15754460D01*
X14829705Y-15744936D02*
X14839229Y-15754460D01*
X14839229Y-15754460D02*
X14829705Y-15763984D01*
X14829705Y-15763984D02*
X14820182Y-15754460D01*
X14820182Y-15754460D02*
X14829705Y-15744936D01*
X14829705Y-15744936D02*
X14829705Y-15763984D01*
X14829705Y-15640174D02*
X14839229Y-15649698D01*
X14839229Y-15649698D02*
X14829705Y-15659222D01*
X14829705Y-15659222D02*
X14820182Y-15649698D01*
X14820182Y-15649698D02*
X14829705Y-15640174D01*
X14829705Y-15640174D02*
X14829705Y-15659222D01*
M02*
