%TF.GenerationSoftware,KiCad,Pcbnew,7.0.11-2.fc39*%
%TF.CreationDate,2024-04-30T19:09:02-04:00*%
%TF.ProjectId,OS42Mini,4f533432-4d69-46e6-992e-6b696361645f,rev?*%
%TF.SameCoordinates,Original*%
%TF.FileFunction,Copper,L1,Top*%
%TF.FilePolarity,Positive*%
%FSLAX46Y46*%
G04 Gerber Fmt 4.6, Leading zero omitted, Abs format (unit mm)*
G04 Created by KiCad (PCBNEW 7.0.11-2.fc39) date 2024-04-30 19:09:02*
%MOMM*%
%LPD*%
G01*
G04 APERTURE LIST*
G04 Aperture macros list*
%AMRoundRect*
0 Rectangle with rounded corners*
0 $1 Rounding radius*
0 $2 $3 $4 $5 $6 $7 $8 $9 X,Y pos of 4 corners*
0 Add a 4 corners polygon primitive as box body*
4,1,4,$2,$3,$4,$5,$6,$7,$8,$9,$2,$3,0*
0 Add four circle primitives for the rounded corners*
1,1,$1+$1,$2,$3*
1,1,$1+$1,$4,$5*
1,1,$1+$1,$6,$7*
1,1,$1+$1,$8,$9*
0 Add four rect primitives between the rounded corners*
20,1,$1+$1,$2,$3,$4,$5,0*
20,1,$1+$1,$4,$5,$6,$7,0*
20,1,$1+$1,$6,$7,$8,$9,0*
20,1,$1+$1,$8,$9,$2,$3,0*%
G04 Aperture macros list end*
%TA.AperFunction,ComponentPad*%
%ADD10C,1.665000*%
%TD*%
%TA.AperFunction,ComponentPad*%
%ADD11R,1.665000X1.665000*%
%TD*%
%TA.AperFunction,SMDPad,CuDef*%
%ADD12R,1.000000X2.600000*%
%TD*%
%TA.AperFunction,SMDPad,CuDef*%
%ADD13R,1.450000X1.700000*%
%TD*%
%TA.AperFunction,SMDPad,CuDef*%
%ADD14R,3.200000X1.700000*%
%TD*%
%TA.AperFunction,SMDPad,CuDef*%
%ADD15RoundRect,0.250000X-0.337500X-0.475000X0.337500X-0.475000X0.337500X0.475000X-0.337500X0.475000X0*%
%TD*%
%TA.AperFunction,SMDPad,CuDef*%
%ADD16RoundRect,0.250000X0.475000X-0.337500X0.475000X0.337500X-0.475000X0.337500X-0.475000X-0.337500X0*%
%TD*%
%TA.AperFunction,ComponentPad*%
%ADD17R,1.700000X1.700000*%
%TD*%
%TA.AperFunction,ComponentPad*%
%ADD18O,1.700000X1.700000*%
%TD*%
%TA.AperFunction,SMDPad,CuDef*%
%ADD19RoundRect,0.097900X0.347100X-0.887100X0.347100X0.887100X-0.347100X0.887100X-0.347100X-0.887100X0*%
%TD*%
%TA.AperFunction,SMDPad,CuDef*%
%ADD20RoundRect,0.788000X0.807000X-0.197000X0.807000X0.197000X-0.807000X0.197000X-0.807000X-0.197000X0*%
%TD*%
%TA.AperFunction,SMDPad,CuDef*%
%ADD21RoundRect,0.249999X-0.450001X-1.075001X0.450001X-1.075001X0.450001X1.075001X-0.450001X1.075001X0*%
%TD*%
%TA.AperFunction,ComponentPad*%
%ADD22C,1.508000*%
%TD*%
%TA.AperFunction,ComponentPad*%
%ADD23C,1.920000*%
%TD*%
%TA.AperFunction,ViaPad*%
%ADD24C,0.600000*%
%TD*%
%TA.AperFunction,Conductor*%
%ADD25C,0.200000*%
%TD*%
%TA.AperFunction,Conductor*%
%ADD26C,1.500000*%
%TD*%
G04 APERTURE END LIST*
D10*
%TO.P,IC1,1,IO4*%
%TO.N,SCK*%
X138684000Y-107696000D03*
%TO.P,IC1,2,IO2*%
%TO.N,MOSI*%
X138684000Y-105156000D03*
%TO.P,IC1,3,IO14*%
%TO.N,BATTREAD*%
X138684000Y-102616000D03*
%TO.P,IC1,4,IO15*%
%TO.N,RESET*%
X138684000Y-100076000D03*
%TO.P,IC1,5,IO13*%
%TO.N,MISO*%
X138684000Y-97536000D03*
%TO.P,IC1,6,IO12*%
%TO.N,NSS*%
X138684000Y-94996000D03*
%TO.P,IC1,7,GND_1*%
%TO.N,GND*%
X138684000Y-92456000D03*
D11*
%TO.P,IC1,8,5V*%
%TO.N,unconnected-(IC1-5V-Pad8)*%
X138684000Y-89916000D03*
%TO.P,IC1,9,3V3*%
%TO.N,VCC*%
X161544000Y-89916000D03*
D10*
%TO.P,IC1,10,IO16*%
%TO.N,unconnected-(IC1-IO16-Pad10)*%
X161544000Y-92456000D03*
%TO.P,IC1,11,IO0*%
%TO.N,PROG_EN*%
X161544000Y-94996000D03*
%TO.P,IC1,12,GND_2*%
%TO.N,GND*%
X161544000Y-97536000D03*
%TO.P,IC1,13,VCC*%
%TO.N,unconnected-(IC1-VCC-Pad13)*%
X161544000Y-100076000D03*
%TO.P,IC1,14,U0R*%
%TO.N,RXD*%
X161544000Y-102616000D03*
%TO.P,IC1,15,U0T*%
%TO.N,TXD*%
X161544000Y-105156000D03*
%TO.P,IC1,16,GND_3*%
%TO.N,GND*%
X161544000Y-107696000D03*
%TD*%
D12*
%TO.P,U1,1,GND*%
%TO.N,GND*%
X142660000Y-101230000D03*
%TO.P,U1,2,TXD*%
%TO.N,RXD*%
X144460000Y-101230000D03*
%TO.P,U1,3,RXD*%
%TO.N,TXD*%
X146260000Y-101230000D03*
%TO.P,U1,4,1PPS*%
%TO.N,unconnected-(U1-1PPS-Pad4)*%
X148060000Y-101230000D03*
%TO.P,U1,5,PIO5*%
%TO.N,unconnected-(U1-PIO5-Pad5)*%
X149860000Y-101230000D03*
%TO.P,U1,6,V_BCKP*%
%TO.N,VCC*%
X151660000Y-101230000D03*
%TO.P,U1,7,VCC_IO*%
X153460000Y-101230000D03*
%TO.P,U1,8,VCC*%
X155260000Y-101230000D03*
%TO.P,U1,9,nRESET*%
%TO.N,GPSFREEZE_1*%
X157060000Y-101230000D03*
%TO.P,U1,10,GND*%
%TO.N,ANTGND*%
X157060000Y-86730000D03*
%TO.P,U1,11,RF_IN*%
%TO.N,Net-(U1-RF_IN)*%
X155260000Y-86730000D03*
%TO.P,U1,12,GND*%
%TO.N,ANTGND*%
X153460000Y-86730000D03*
%TO.P,U1,13,NC*%
%TO.N,unconnected-(U1-NC-Pad13)*%
X151660000Y-86730000D03*
%TO.P,U1,14,VCC_RF*%
%TO.N,unconnected-(U1-VCC_RF-Pad14)*%
X149860000Y-86730000D03*
%TO.P,U1,15,NC*%
%TO.N,unconnected-(U1-NC-Pad15)*%
X148060000Y-86730000D03*
%TO.P,U1,16,SDA*%
%TO.N,unconnected-(U1-SDA-Pad16)*%
X146260000Y-86730000D03*
%TO.P,U1,17,SCL*%
%TO.N,unconnected-(U1-SCL-Pad17)*%
X144460000Y-86730000D03*
%TO.P,U1,18,NC*%
%TO.N,unconnected-(U1-NC-Pad18)*%
X142660000Y-86730000D03*
%TD*%
D13*
%TO.P,E1,1*%
%TO.N,Net-(U1-RF_IN)*%
X155242200Y-84201000D03*
%TO.P,E1,2*%
%TO.N,ANTGND*%
X153492200Y-84201000D03*
D14*
%TO.P,E1,3*%
%TO.N,N/C*%
X154367200Y-75101000D03*
%TD*%
D15*
%TO.P,C1,1*%
%TO.N,PWRIN_VCC*%
X153902500Y-116840000D03*
%TO.P,C1,2*%
%TO.N,GND*%
X155977500Y-116840000D03*
%TD*%
D16*
%TO.P,C3,1*%
%TO.N,GND*%
X153924000Y-106193500D03*
%TO.P,C3,2*%
%TO.N,VCC*%
X153924000Y-104118500D03*
%TD*%
D17*
%TO.P,PRG,1,Pin_1*%
%TO.N,PWRIN_VCC*%
X134340200Y-92720000D03*
D18*
%TO.P,PRG,2,Pin_2*%
%TO.N,RXD*%
X134340200Y-95260000D03*
%TO.P,PRG,3,Pin_3*%
%TO.N,TXD*%
X134340200Y-97800000D03*
%TO.P,PRG,4,Pin_4*%
%TO.N,GND*%
X134340200Y-100340000D03*
%TD*%
D19*
%TO.P,U3,1,VIN*%
%TO.N,PWRIN_VCC*%
X143496000Y-110924200D03*
%TO.P,U3,2,GND_(TAB)*%
%TO.N,GND*%
X145796000Y-110924200D03*
%TO.P,U3,3,VOUT*%
%TO.N,VCC*%
X148096000Y-110924200D03*
D20*
%TO.P,U3,4,GND_(TAB)_2*%
%TO.N,GND*%
X145796000Y-104874200D03*
%TD*%
D21*
%TO.P,R2,1*%
%TO.N,GND*%
X144920000Y-116840000D03*
%TO.P,R2,2*%
%TO.N,BATTREAD*%
X149720000Y-116840000D03*
%TD*%
%TO.P,R1,1*%
%TO.N,BATTREAD*%
X152540000Y-111760000D03*
%TO.P,R1,2*%
%TO.N,PWRIN_VCC*%
X157340000Y-111760000D03*
%TD*%
D16*
%TO.P,C4,1*%
%TO.N,GND*%
X157480000Y-106193500D03*
%TO.P,C4,2*%
%TO.N,VCC*%
X157480000Y-104118500D03*
%TD*%
D22*
%TO.P,RF OUT,1*%
%TO.N,Net-(U2-ANT)*%
X155969000Y-130696000D03*
D23*
%TO.P,RF OUT,G1*%
%TO.N,Net-(J5-PadG1)*%
X153569000Y-128296000D03*
%TO.P,RF OUT,G2*%
X153569000Y-133096000D03*
%TO.P,RF OUT,G3*%
X158369000Y-133096000D03*
%TO.P,RF OUT,G4*%
X158369000Y-128296000D03*
%TD*%
D17*
%TO.P,GF,1,Pin_1*%
%TO.N,GPSFREEZE_1*%
X134442200Y-116840000D03*
D18*
%TO.P,GF,2,Pin_2*%
%TO.N,GND*%
X134442200Y-119380000D03*
%TD*%
D17*
%TO.P,EN,1,Pin_1*%
%TO.N,PROG_EN*%
X134518000Y-107462000D03*
D18*
%TO.P,EN,2,Pin_2*%
%TO.N,GND*%
X134518000Y-110002000D03*
%TD*%
D15*
%TO.P,C2,1*%
%TO.N,VCC*%
X146282500Y-121920000D03*
%TO.P,C2,2*%
%TO.N,GND*%
X148357500Y-121920000D03*
%TD*%
D17*
%TO.P,J1,1,Pin_1*%
%TO.N,PWRIN_VCC*%
X142240000Y-129540000D03*
D18*
%TO.P,J1,2,Pin_2*%
%TO.N,GND*%
X139700000Y-129540000D03*
%TD*%
D24*
%TO.N,GND*%
X141478000Y-97663000D03*
X152654000Y-93980000D03*
X146812000Y-113030000D03*
X157226000Y-118364000D03*
X146812000Y-93980000D03*
X145415000Y-92837000D03*
X138430000Y-118618000D03*
X152146000Y-92075000D03*
X153162000Y-120650000D03*
X149098000Y-119634000D03*
X156718000Y-97282000D03*
X144272000Y-120142000D03*
X153670000Y-95758000D03*
X159512000Y-97028000D03*
X138303000Y-87884000D03*
X142875000Y-93980000D03*
X159512000Y-101092000D03*
X162814000Y-110998000D03*
X152146000Y-116078000D03*
X155702000Y-89154000D03*
X141224000Y-92964000D03*
X143764000Y-92710000D03*
X149098000Y-93726000D03*
X151384000Y-89662000D03*
X141986000Y-114808000D03*
X156718000Y-107696000D03*
X140462000Y-96520000D03*
X154940000Y-93218000D03*
X147066000Y-94996000D03*
X142759998Y-107696000D03*
X159512000Y-93726000D03*
X150114000Y-113792000D03*
X159639000Y-86233000D03*
X142748000Y-105410000D03*
X159258000Y-98552000D03*
X156718000Y-98552000D03*
X144018000Y-88900000D03*
X149098000Y-97536000D03*
X140716000Y-90170000D03*
X139192000Y-120904000D03*
X151130000Y-97536000D03*
X138811000Y-86233000D03*
X143764000Y-91186000D03*
X148082000Y-91948000D03*
X160020000Y-113030000D03*
X162433000Y-87884000D03*
X157480000Y-96012000D03*
X153162000Y-97282000D03*
X150622000Y-110744000D03*
X156972000Y-91694000D03*
X150622000Y-96266000D03*
X153416000Y-89662000D03*
X145542000Y-96266000D03*
X163068000Y-119126000D03*
X139313201Y-96170593D03*
X143764000Y-94996000D03*
X147066000Y-89662000D03*
X154686000Y-120142000D03*
X159004000Y-90932000D03*
X154813000Y-92075000D03*
X161036000Y-115316000D03*
X144780000Y-113030000D03*
X150114000Y-112268000D03*
X149098000Y-89662000D03*
X140208000Y-86614000D03*
X158750000Y-116332000D03*
X156972000Y-89408000D03*
X140208000Y-87630000D03*
%TO.N,VCC*%
X146304000Y-120142000D03*
X148082000Y-113030000D03*
X150866982Y-108719092D03*
X152654000Y-104648000D03*
%TO.N,BATTREAD*%
X142494000Y-103632000D03*
%TO.N,RESET*%
X152654000Y-105448003D03*
%TO.N,PROG_EN*%
X140462000Y-103886000D03*
%TO.N,RXD*%
X142367000Y-98425000D03*
X144228735Y-99270735D03*
X145259998Y-99935391D03*
X140483798Y-100330000D03*
%TO.N,TXD*%
X147283713Y-99513266D03*
X139954000Y-93472000D03*
%TO.N,GPSFREEZE_1*%
X141986000Y-111506000D03*
X155956000Y-103632000D03*
%TD*%
D25*
%TO.N,PWRIN_VCC*%
X145604744Y-118465000D02*
X144235256Y-118465000D01*
X153902500Y-117972244D02*
X148929744Y-122945000D01*
X153902500Y-115197500D02*
X157340000Y-111760000D01*
X145888000Y-125892000D02*
X146396000Y-125892000D01*
X138362700Y-96742500D02*
X139134097Y-96742500D01*
X146396000Y-125892000D02*
X153902500Y-118385500D01*
X147785256Y-122945000D02*
X147470000Y-122629744D01*
X141062000Y-103637471D02*
X141083798Y-103615673D01*
X143496000Y-110924200D02*
X141062000Y-108490200D01*
X142240000Y-129540000D02*
X145888000Y-125892000D01*
X134340200Y-92720000D02*
X138362700Y-96742500D01*
X141083798Y-103615673D02*
X141083798Y-98692202D01*
X153902500Y-118385500D02*
X153902500Y-116840000D01*
X147470000Y-122629744D02*
X147470000Y-120330256D01*
X139134097Y-96742500D02*
X141083798Y-98692202D01*
X147470000Y-120330256D02*
X145604744Y-118465000D01*
X144235256Y-118465000D02*
X143496000Y-117725744D01*
X143496000Y-117725744D02*
X143496000Y-110924200D01*
X153902500Y-116840000D02*
X153902500Y-115197500D01*
X141062000Y-108490200D02*
X141062000Y-103637471D01*
X153902500Y-116840000D02*
X153902500Y-117972244D01*
X148929744Y-122945000D02*
X147785256Y-122945000D01*
%TO.N,GND*%
X153330256Y-113460000D02*
X156655256Y-110135000D01*
X149098000Y-119634000D02*
X148357500Y-120374500D01*
X134518000Y-110002000D02*
X133292200Y-111227800D01*
X141894000Y-103880529D02*
X141894000Y-101996000D01*
X156655256Y-110135000D02*
X158024744Y-110135000D01*
X142759998Y-107888198D02*
X142759998Y-107696000D01*
X158340000Y-110450256D02*
X158340000Y-114477500D01*
X139223283Y-96266000D02*
X139223283Y-96260511D01*
X133292200Y-111227800D02*
X133292200Y-118230000D01*
X157226000Y-107696000D02*
X157480000Y-107950000D01*
X145796000Y-110924200D02*
X145796000Y-115964000D01*
X133292200Y-118230000D02*
X134442200Y-119380000D01*
X158505000Y-100575000D02*
X161544000Y-97536000D01*
X157226000Y-118088500D02*
X155977500Y-116840000D01*
X148357500Y-121920000D02*
X148357500Y-120277500D01*
X145796000Y-115964000D02*
X144920000Y-116840000D01*
X149511256Y-119634000D02*
X153330256Y-115815000D01*
X141894000Y-101996000D02*
X142660000Y-101230000D01*
X148357500Y-120374500D02*
X148357500Y-121920000D01*
X157480000Y-107950000D02*
X157480000Y-106193500D01*
X145796000Y-110924200D02*
X142759998Y-107888198D01*
X153330256Y-115815000D02*
X153330256Y-113460000D01*
X143283800Y-104874200D02*
X145796000Y-104874200D01*
X158340000Y-110450256D02*
X158789744Y-110450256D01*
X156655256Y-110135000D02*
X157480000Y-109310256D01*
X158505000Y-105168500D02*
X158505000Y-100575000D01*
X157480000Y-109310256D02*
X157480000Y-107950000D01*
X157480000Y-106193500D02*
X158505000Y-105168500D01*
X158024744Y-110135000D02*
X158340000Y-110450256D01*
X145796000Y-104874200D02*
X142887671Y-104874200D01*
X156655256Y-110135000D02*
X153924000Y-107403744D01*
X153924000Y-107403744D02*
X153924000Y-106193500D01*
X148357500Y-120277500D02*
X144920000Y-116840000D01*
X139223283Y-96260511D02*
X139313201Y-96170593D01*
X142660000Y-99702717D02*
X139223283Y-96266000D01*
X158789744Y-110450256D02*
X161544000Y-107696000D01*
X157226000Y-118364000D02*
X157226000Y-118088500D01*
X149098000Y-119634000D02*
X149511256Y-119634000D01*
X142748000Y-105410000D02*
X143283800Y-104874200D01*
X142887671Y-104874200D02*
X141894000Y-103880529D01*
X156718000Y-107696000D02*
X157226000Y-107696000D01*
X142660000Y-101230000D02*
X142660000Y-99702717D01*
X158340000Y-114477500D02*
X155977500Y-116840000D01*
%TO.N,VCC*%
X153924000Y-104118500D02*
X153924000Y-101694000D01*
X157366500Y-104232000D02*
X154037500Y-104232000D01*
X157480000Y-104118500D02*
X157366500Y-104232000D01*
X153394500Y-104648000D02*
X153924000Y-104118500D01*
X148082000Y-113030000D02*
X148096000Y-113016000D01*
X153924000Y-101694000D02*
X153460000Y-101230000D01*
X148096000Y-113016000D02*
X148096000Y-110924200D01*
X148096000Y-110924200D02*
X150301108Y-108719092D01*
X152654000Y-104648000D02*
X153394500Y-104648000D01*
X153460000Y-101230000D02*
X155260000Y-101230000D01*
X155260000Y-101230000D02*
X155260000Y-96200000D01*
X150301108Y-108719092D02*
X150866982Y-108719092D01*
X154037500Y-104232000D02*
X153924000Y-104118500D01*
X155260000Y-96200000D02*
X161544000Y-89916000D01*
X146282500Y-120120500D02*
X146304000Y-120142000D01*
X146282500Y-120120500D02*
X146282500Y-121920000D01*
D26*
%TO.N,Net-(U1-RF_IN)*%
X155260000Y-85404460D02*
X155217200Y-85361660D01*
X155260000Y-86730000D02*
X155260000Y-85404460D01*
%TO.N,ANTGND*%
X153460000Y-86730000D02*
X153460000Y-85418860D01*
X153460000Y-85418860D02*
X153517200Y-85361660D01*
D25*
%TO.N,BATTREAD*%
X152540000Y-109075536D02*
X146842464Y-103378000D01*
X142748000Y-103378000D02*
X142494000Y-103632000D01*
X146842464Y-103378000D02*
X142748000Y-103378000D01*
X152540000Y-111760000D02*
X152540000Y-114020000D01*
X152540000Y-111760000D02*
X152540000Y-109075536D01*
X152540000Y-114020000D02*
X149720000Y-116840000D01*
%TO.N,RESET*%
X135490200Y-91570000D02*
X133190200Y-91570000D01*
X137551500Y-98943500D02*
X138684000Y-100076000D01*
X133190200Y-93870000D02*
X134924514Y-93870000D01*
X149644003Y-105448003D02*
X147026000Y-102830000D01*
X139153097Y-93863500D02*
X137783700Y-93863500D01*
X143460000Y-102830000D02*
X143460000Y-98170403D01*
X137551500Y-96496986D02*
X137551500Y-98943500D01*
X147026000Y-102830000D02*
X143460000Y-102830000D01*
X143460000Y-98170403D02*
X139153097Y-93863500D01*
X134924514Y-93870000D02*
X137551500Y-96496986D01*
X137783700Y-93863500D02*
X135490200Y-91570000D01*
X133190200Y-91570000D02*
X133190200Y-93870000D01*
X152654000Y-105448003D02*
X149644003Y-105448003D01*
%TO.N,PROG_EN*%
X138094000Y-103886000D02*
X140462000Y-103886000D01*
X134518000Y-107462000D02*
X138094000Y-103886000D01*
%TO.N,RXD*%
X144460000Y-101230000D02*
X144460000Y-100430000D01*
X139467798Y-101346000D02*
X140483798Y-100330000D01*
X134340200Y-95260000D02*
X137151500Y-98071300D01*
X144765389Y-100430000D02*
X145259998Y-99935391D01*
X144460000Y-99502000D02*
X144460000Y-101230000D01*
X137151500Y-100145097D02*
X138352403Y-101346000D01*
X138352403Y-101346000D02*
X139467798Y-101346000D01*
X144228735Y-99270735D02*
X144460000Y-99502000D01*
X137151500Y-98071300D02*
X137151500Y-100145097D01*
X144460000Y-100430000D02*
X144765389Y-100430000D01*
%TO.N,TXD*%
X147283713Y-99513266D02*
X146260000Y-100536979D01*
X146260000Y-101230000D02*
X146260000Y-99778000D01*
X146260000Y-99778000D02*
X139954000Y-93472000D01*
X146260000Y-100536979D02*
X146260000Y-101230000D01*
%TO.N,GPSFREEZE_1*%
X136652000Y-116840000D02*
X141986000Y-111506000D01*
X134442200Y-116840000D02*
X136652000Y-116840000D01*
X155956000Y-103632000D02*
X157060000Y-102528000D01*
X157060000Y-102528000D02*
X157060000Y-101230000D01*
%TD*%
%TA.AperFunction,Conductor*%
%TO.N,RXD*%
G36*
X140216972Y-100219439D02*
G01*
X140380602Y-100286629D01*
X140479982Y-100327436D01*
X140486334Y-100333748D01*
X140486361Y-100333815D01*
X140594357Y-100596824D01*
X140594330Y-100605779D01*
X140588468Y-100611877D01*
X140137665Y-100821523D01*
X140128718Y-100821904D01*
X140124458Y-100819187D01*
X139994610Y-100689339D01*
X139991183Y-100681066D01*
X139992272Y-100676136D01*
X140201922Y-100225327D01*
X140208516Y-100219273D01*
X140216972Y-100219439D01*
G37*
%TD.AperFunction*%
%TD*%
%TA.AperFunction,Conductor*%
%TO.N,VCC*%
G36*
X146570411Y-120252312D02*
G01*
X146576723Y-120258664D01*
X146576714Y-120267575D01*
X146385488Y-120730490D01*
X146379162Y-120736828D01*
X146374674Y-120737723D01*
X146191010Y-120737723D01*
X146182737Y-120734296D01*
X146179879Y-120729626D01*
X146030152Y-120267050D01*
X146030864Y-120258126D01*
X146036770Y-120252653D01*
X146299490Y-120142883D01*
X146308444Y-120142857D01*
X146570411Y-120252312D01*
G37*
%TD.AperFunction*%
%TD*%
%TA.AperFunction,Conductor*%
%TO.N,VCC*%
G36*
X148195879Y-112436212D02*
G01*
X148198689Y-112440736D01*
X148355667Y-112904856D01*
X148355072Y-112913791D01*
X148349095Y-112919401D01*
X148086511Y-113029115D01*
X148077556Y-113029142D01*
X148077489Y-113029115D01*
X147815433Y-112919622D01*
X147809121Y-112913270D01*
X147809067Y-112904517D01*
X147926637Y-112607822D01*
X147993072Y-112440175D01*
X147999306Y-112433746D01*
X148003949Y-112432785D01*
X148187606Y-112432785D01*
X148195879Y-112436212D01*
G37*
%TD.AperFunction*%
%TD*%
%TA.AperFunction,Conductor*%
%TO.N,GND*%
G36*
X158534970Y-105279951D02*
G01*
X158205000Y-106299351D01*
X157479293Y-106194207D01*
X157236650Y-105606000D01*
X158393549Y-105138530D01*
X158534970Y-105279951D01*
G37*
%TD.AperFunction*%
%TD*%
%TA.AperFunction,Conductor*%
%TO.N,GND*%
G36*
X143242974Y-105056447D02*
G01*
X143025164Y-105524805D01*
X142747293Y-105410707D01*
X142633195Y-105132836D01*
X143101553Y-104915026D01*
X143242974Y-105056447D01*
G37*
%TD.AperFunction*%
%TD*%
%TA.AperFunction,Conductor*%
%TO.N,RXD*%
G36*
X144993172Y-99824830D02*
G01*
X145156802Y-99892020D01*
X145256182Y-99932827D01*
X145262534Y-99939139D01*
X145262561Y-99939206D01*
X145370557Y-100202215D01*
X145370530Y-100211170D01*
X145364668Y-100217268D01*
X144913865Y-100426914D01*
X144904918Y-100427295D01*
X144900658Y-100424578D01*
X144770810Y-100294730D01*
X144767383Y-100286457D01*
X144768472Y-100281527D01*
X144978122Y-99830718D01*
X144984716Y-99824664D01*
X144993172Y-99824830D01*
G37*
%TD.AperFunction*%
%TD*%
%TA.AperFunction,Conductor*%
%TO.N,VCC*%
G36*
X154026601Y-102946927D02*
G01*
X154027513Y-102947952D01*
X154504888Y-103552895D01*
X154507323Y-103561513D01*
X154503762Y-103568625D01*
X153932059Y-104111842D01*
X153923701Y-104115056D01*
X153915941Y-104111842D01*
X153344237Y-103568625D01*
X153340600Y-103560442D01*
X153343110Y-103552897D01*
X153820487Y-102947952D01*
X153828302Y-102943580D01*
X153829672Y-102943500D01*
X154018328Y-102943500D01*
X154026601Y-102946927D01*
G37*
%TD.AperFunction*%
%TD*%
%TA.AperFunction,Conductor*%
%TO.N,PROG_EN*%
G36*
X140345641Y-103613050D02*
G01*
X140351503Y-103619148D01*
X140461115Y-103881489D01*
X140461142Y-103890444D01*
X140461115Y-103890511D01*
X140351503Y-104152851D01*
X140345151Y-104159163D01*
X140336694Y-104159329D01*
X140202947Y-104110493D01*
X139869687Y-103988806D01*
X139863091Y-103982750D01*
X139862000Y-103977816D01*
X139862000Y-103794183D01*
X139865427Y-103785910D01*
X139869687Y-103783193D01*
X140336697Y-103612669D01*
X140345641Y-103613050D01*
G37*
%TD.AperFunction*%
%TD*%
%TA.AperFunction,Conductor*%
%TO.N,TXD*%
G36*
X140229779Y-93361467D02*
G01*
X140235877Y-93367329D01*
X140445523Y-93818132D01*
X140445904Y-93827079D01*
X140443187Y-93831339D01*
X140313339Y-93961187D01*
X140305066Y-93964614D01*
X140300132Y-93963523D01*
X140006736Y-93827079D01*
X139849328Y-93753876D01*
X139843273Y-93747281D01*
X139843439Y-93738825D01*
X139951436Y-93475814D01*
X139957746Y-93469464D01*
X140220825Y-93361440D01*
X140229779Y-93361467D01*
G37*
%TD.AperFunction*%
%TD*%
%TA.AperFunction,Conductor*%
%TO.N,GND*%
G36*
X133393934Y-118156897D02*
G01*
X134755359Y-118590838D01*
X134762201Y-118596615D01*
X134762953Y-118605538D01*
X134762617Y-118606458D01*
X134444056Y-119376512D01*
X134437727Y-119382846D01*
X134437711Y-119382853D01*
X133668858Y-119700343D01*
X133659903Y-119700334D01*
X133653578Y-119693995D01*
X133653185Y-119692891D01*
X133196719Y-118171407D01*
X133197624Y-118162498D01*
X133204564Y-118156838D01*
X133207926Y-118156345D01*
X133390382Y-118156345D01*
X133393934Y-118156897D01*
G37*
%TD.AperFunction*%
%TD*%
%TA.AperFunction,Conductor*%
%TO.N,GND*%
G36*
X143059998Y-107696000D02*
G01*
X143132757Y-108119536D01*
X142991336Y-108260957D01*
X142547866Y-107908132D01*
X142759291Y-107695293D01*
X143059998Y-107696000D01*
G37*
%TD.AperFunction*%
%TD*%
%TA.AperFunction,Conductor*%
%TO.N,RXD*%
G36*
X144487138Y-99389583D02*
G01*
X144487971Y-99390510D01*
X144919078Y-99924903D01*
X144921606Y-99933494D01*
X144920996Y-99936169D01*
X144471295Y-101200927D01*
X144465294Y-101207574D01*
X144456351Y-101208031D01*
X144449704Y-101202030D01*
X144449352Y-101201210D01*
X143962620Y-99936807D01*
X143962846Y-99927855D01*
X143964955Y-99924654D01*
X144338262Y-99521923D01*
X144338518Y-99521658D01*
X144470593Y-99389582D01*
X144478865Y-99386156D01*
X144487138Y-99389583D01*
G37*
%TD.AperFunction*%
%TD*%
%TA.AperFunction,Conductor*%
%TO.N,GND*%
G36*
X142660000Y-101229000D02*
G01*
X142273115Y-102445814D01*
X141994000Y-102119820D01*
X141794000Y-102119820D01*
X142160000Y-101043590D01*
X142660000Y-101229000D01*
G37*
%TD.AperFunction*%
%TD*%
%TA.AperFunction,Conductor*%
%TO.N,TXD*%
G36*
X147016887Y-99402705D02*
G01*
X147180517Y-99469895D01*
X147279897Y-99510702D01*
X147286249Y-99517014D01*
X147286276Y-99517081D01*
X147394272Y-99780090D01*
X147394245Y-99789045D01*
X147388383Y-99795143D01*
X146937580Y-100004789D01*
X146928633Y-100005170D01*
X146924373Y-100002453D01*
X146794525Y-99872605D01*
X146791098Y-99864332D01*
X146792187Y-99859402D01*
X147001837Y-99408593D01*
X147008431Y-99402539D01*
X147016887Y-99402705D01*
G37*
%TD.AperFunction*%
%TD*%
%TA.AperFunction,Conductor*%
%TO.N,GPSFREEZE_1*%
G36*
X141719174Y-111395439D02*
G01*
X141882804Y-111462629D01*
X141982184Y-111503436D01*
X141988536Y-111509748D01*
X141988563Y-111509815D01*
X142096559Y-111772824D01*
X142096532Y-111781779D01*
X142090670Y-111787877D01*
X141639867Y-111997523D01*
X141630920Y-111997904D01*
X141626660Y-111995187D01*
X141496812Y-111865339D01*
X141493385Y-111857066D01*
X141494474Y-111852136D01*
X141704124Y-111401327D01*
X141710718Y-111395273D01*
X141719174Y-111395439D01*
G37*
%TD.AperFunction*%
%TD*%
%TA.AperFunction,Conductor*%
%TO.N,GND*%
G36*
X161544707Y-97535293D02*
G01*
X161862584Y-98305130D01*
X160437379Y-98784043D01*
X160295957Y-98642621D01*
X160774870Y-97217416D01*
X161544707Y-97535293D01*
G37*
%TD.AperFunction*%
%TD*%
%TA.AperFunction,Conductor*%
%TO.N,RESET*%
G36*
X137653219Y-98880640D02*
G01*
X138990420Y-99303028D01*
X138997277Y-99308788D01*
X138998053Y-99317709D01*
X138997707Y-99318657D01*
X138685856Y-100072511D01*
X138679527Y-100078846D01*
X138679510Y-100078853D01*
X137926759Y-100389674D01*
X137917805Y-100389664D01*
X137911480Y-100383325D01*
X137911106Y-100382283D01*
X137817702Y-100077000D01*
X137456127Y-98895219D01*
X137456983Y-98886306D01*
X137463892Y-98880609D01*
X137467315Y-98880097D01*
X137649695Y-98880097D01*
X137653219Y-98880640D01*
G37*
%TD.AperFunction*%
%TD*%
%TA.AperFunction,Conductor*%
%TO.N,GND*%
G36*
X157032470Y-117753549D02*
G01*
X156891049Y-117894970D01*
X155871649Y-117565000D01*
X155976793Y-116839293D01*
X156565000Y-116596649D01*
X157032470Y-117753549D01*
G37*
%TD.AperFunction*%
%TD*%
%TA.AperFunction,Conductor*%
%TO.N,BATTREAD*%
G36*
X152545235Y-111774685D02*
G01*
X152550461Y-111779910D01*
X153163703Y-113005632D01*
X153164340Y-113014564D01*
X153162908Y-113017454D01*
X152643483Y-113779886D01*
X152635993Y-113784794D01*
X152633814Y-113784999D01*
X152446186Y-113784999D01*
X152437913Y-113781572D01*
X152436517Y-113779886D01*
X151917091Y-113017454D01*
X151915265Y-113008688D01*
X151916297Y-113005632D01*
X152529537Y-111779913D01*
X152536303Y-111774047D01*
X152545235Y-111774685D01*
G37*
%TD.AperFunction*%
%TD*%
%TA.AperFunction,Conductor*%
%TO.N,RESET*%
G36*
X152537641Y-105175053D02*
G01*
X152543503Y-105181151D01*
X152653115Y-105443492D01*
X152653142Y-105452447D01*
X152653115Y-105452514D01*
X152543503Y-105714854D01*
X152537151Y-105721166D01*
X152528694Y-105721332D01*
X152394947Y-105672496D01*
X152061687Y-105550809D01*
X152055091Y-105544753D01*
X152054000Y-105539819D01*
X152054000Y-105356186D01*
X152057427Y-105347913D01*
X152061687Y-105345196D01*
X152528697Y-105174672D01*
X152537641Y-105175053D01*
G37*
%TD.AperFunction*%
%TD*%
%TA.AperFunction,Conductor*%
%TO.N,VCC*%
G36*
X153968169Y-100736535D02*
G01*
X154455609Y-101126487D01*
X154459928Y-101134331D01*
X154460000Y-101135623D01*
X154460000Y-101324376D01*
X154456573Y-101332649D01*
X154455609Y-101333512D01*
X153968169Y-101723464D01*
X153959568Y-101725956D01*
X153952595Y-101722609D01*
X153559200Y-101330000D01*
X153467296Y-101238280D01*
X153463862Y-101230012D01*
X153467280Y-101221735D01*
X153952595Y-100737389D01*
X153960872Y-100733971D01*
X153968169Y-100736535D01*
G37*
%TD.AperFunction*%
%TD*%
%TA.AperFunction,Conductor*%
%TO.N,GND*%
G36*
X157361764Y-107690344D02*
G01*
X157220344Y-107831764D01*
X156832805Y-107973164D01*
X156717293Y-107695293D01*
X156832805Y-107418836D01*
X157361764Y-107690344D01*
G37*
%TD.AperFunction*%
%TD*%
%TA.AperFunction,Conductor*%
%TO.N,RXD*%
G36*
X144517775Y-99270698D02*
G01*
X144526036Y-99274152D01*
X144529413Y-99281674D01*
X144559230Y-99762518D01*
X144556321Y-99770987D01*
X144548276Y-99774920D01*
X144547552Y-99774942D01*
X144364302Y-99774942D01*
X144356722Y-99772154D01*
X144345393Y-99762518D01*
X144026240Y-99491064D01*
X144022159Y-99483095D01*
X144024909Y-99474573D01*
X144025516Y-99473910D01*
X144225290Y-99273196D01*
X144233552Y-99269751D01*
X144517775Y-99270698D01*
G37*
%TD.AperFunction*%
%TD*%
%TA.AperFunction,Conductor*%
%TO.N,PWRIN_VCC*%
G36*
X156650932Y-111474562D02*
G01*
X157330560Y-111755104D01*
X157336900Y-111761428D01*
X157337173Y-111769685D01*
X156892954Y-113076306D01*
X156887047Y-113083036D01*
X156880852Y-113084195D01*
X156219975Y-113026056D01*
X156212727Y-113022674D01*
X156079771Y-112889718D01*
X156076344Y-112881445D01*
X156077181Y-112877100D01*
X156520146Y-111769685D01*
X156635607Y-111481031D01*
X156641860Y-111474624D01*
X156650814Y-111474515D01*
X156650932Y-111474562D01*
G37*
%TD.AperFunction*%
%TD*%
%TA.AperFunction,Conductor*%
%TO.N,GND*%
G36*
X149098707Y-119633293D02*
G01*
X149212805Y-119911164D01*
X148744447Y-120128974D01*
X148603026Y-119987553D01*
X148820836Y-119519195D01*
X149098707Y-119633293D01*
G37*
%TD.AperFunction*%
%TD*%
%TA.AperFunction,Conductor*%
%TO.N,TXD*%
G36*
X146092905Y-99469089D02*
G01*
X146572103Y-99925335D01*
X146575731Y-99933522D01*
X146575404Y-99936574D01*
X146269549Y-101194342D01*
X146264264Y-101201571D01*
X146255415Y-101202946D01*
X146248186Y-101197661D01*
X146247264Y-101195788D01*
X145765769Y-99944988D01*
X145765108Y-99939123D01*
X145765645Y-99935391D01*
X145764438Y-99926997D01*
X145765808Y-99919621D01*
X145942428Y-99604046D01*
X145944359Y-99601495D01*
X146076565Y-99469289D01*
X146084837Y-99465863D01*
X146092905Y-99469089D01*
G37*
%TD.AperFunction*%
%TD*%
%TA.AperFunction,Conductor*%
%TO.N,BATTREAD*%
G36*
X142984417Y-103281924D02*
G01*
X142988721Y-103289777D01*
X142988790Y-103291046D01*
X142988790Y-103474009D01*
X142986351Y-103481159D01*
X142714241Y-103833627D01*
X142706473Y-103838081D01*
X142697830Y-103835738D01*
X142696726Y-103834770D01*
X142496462Y-103635446D01*
X142493016Y-103627181D01*
X142493016Y-103627114D01*
X142493527Y-103474009D01*
X142493965Y-103342456D01*
X142497419Y-103334195D01*
X142504394Y-103330865D01*
X142975821Y-103279415D01*
X142984417Y-103281924D01*
G37*
%TD.AperFunction*%
%TD*%
%TA.AperFunction,Conductor*%
%TO.N,GND*%
G36*
X146233548Y-111848765D02*
G01*
X145896000Y-112354200D01*
X145696000Y-112354200D01*
X145358452Y-111848765D01*
X145796000Y-110923200D01*
X146233548Y-111848765D01*
G37*
%TD.AperFunction*%
%TD*%
%TA.AperFunction,Conductor*%
%TO.N,RXD*%
G36*
X135122869Y-94939511D02*
G01*
X135129194Y-94945850D01*
X135129475Y-94946603D01*
X135496537Y-96043400D01*
X135610694Y-96384504D01*
X135610070Y-96393437D01*
X135607872Y-96396490D01*
X135476690Y-96527672D01*
X135468417Y-96531099D01*
X135464704Y-96530494D01*
X135055172Y-96393437D01*
X134800435Y-96308184D01*
X134026803Y-96049275D01*
X134020045Y-96043400D01*
X134019421Y-96034467D01*
X134019697Y-96033726D01*
X134337638Y-95263783D01*
X134343959Y-95257448D01*
X135113915Y-94939502D01*
X135122869Y-94939511D01*
G37*
%TD.AperFunction*%
%TD*%
%TA.AperFunction,Conductor*%
%TO.N,PWRIN_VCC*%
G36*
X143115704Y-109957583D02*
G01*
X143116057Y-109958389D01*
X143492486Y-110914189D01*
X143492329Y-110923142D01*
X143486057Y-110929294D01*
X143061553Y-111104177D01*
X143052598Y-111104160D01*
X143046392Y-111098083D01*
X142668862Y-110242579D01*
X142668657Y-110233626D01*
X142671291Y-110229584D01*
X142805653Y-110095222D01*
X142808826Y-110092967D01*
X143100078Y-109952142D01*
X143109018Y-109951627D01*
X143115704Y-109957583D01*
G37*
%TD.AperFunction*%
%TD*%
%TA.AperFunction,Conductor*%
%TO.N,PWRIN_VCC*%
G36*
X135188102Y-92372492D02*
G01*
X135194428Y-92378830D01*
X135194523Y-92379067D01*
X135704210Y-93693525D01*
X135859194Y-94093219D01*
X135858990Y-94102172D01*
X135856558Y-94105722D01*
X135729156Y-94233125D01*
X135720883Y-94236552D01*
X135712610Y-94233125D01*
X135173010Y-93693525D01*
X135170810Y-93690467D01*
X135168472Y-93685773D01*
X135168472Y-93685772D01*
X135168470Y-93685770D01*
X135168468Y-93685767D01*
X135132294Y-93652791D01*
X135131903Y-93652418D01*
X135117316Y-93637830D01*
X135117311Y-93637826D01*
X135112212Y-93634332D01*
X135110944Y-93633327D01*
X135085450Y-93610086D01*
X135085447Y-93610084D01*
X135066837Y-93602874D01*
X135064452Y-93601617D01*
X135047995Y-93590344D01*
X135047994Y-93590343D01*
X135014415Y-93582445D01*
X135012868Y-93581966D01*
X134980689Y-93569500D01*
X134980687Y-93569500D01*
X134960733Y-93569500D01*
X134958054Y-93569189D01*
X134956191Y-93568750D01*
X134938633Y-93564621D01*
X134938631Y-93564621D01*
X134916801Y-93567666D01*
X134904459Y-93569388D01*
X134902845Y-93569500D01*
X134005818Y-93569500D01*
X133997545Y-93566073D01*
X133994118Y-93557800D01*
X133995004Y-93553333D01*
X134153480Y-93169644D01*
X134337638Y-92723782D01*
X134343961Y-92717447D01*
X135179147Y-92372483D01*
X135188102Y-92372492D01*
G37*
%TD.AperFunction*%
%TD*%
%TA.AperFunction,Conductor*%
%TO.N,GND*%
G36*
X158067500Y-106750725D02*
G01*
X157580000Y-107368500D01*
X157380000Y-107368500D01*
X156892500Y-106750725D01*
X157480000Y-106192500D01*
X158067500Y-106750725D01*
G37*
%TD.AperFunction*%
%TD*%
%TA.AperFunction,Conductor*%
%TO.N,GND*%
G36*
X149572593Y-119431242D02*
G01*
X149714014Y-119572663D01*
X149310132Y-119846132D01*
X149097293Y-119634707D01*
X149212805Y-119356836D01*
X149572593Y-119431242D01*
G37*
%TD.AperFunction*%
%TD*%
%TA.AperFunction,Conductor*%
%TO.N,PWRIN_VCC*%
G36*
X143501000Y-110939998D02*
G01*
X143506578Y-110945576D01*
X143930716Y-111842776D01*
X143931153Y-111851720D01*
X143929868Y-111854274D01*
X143599474Y-112348998D01*
X143592029Y-112353975D01*
X143589744Y-112354200D01*
X143402256Y-112354200D01*
X143393983Y-112350773D01*
X143392526Y-112348998D01*
X143062131Y-111854274D01*
X143060386Y-111845491D01*
X143061283Y-111842776D01*
X143485422Y-110945576D01*
X143492056Y-110939561D01*
X143501000Y-110939998D01*
G37*
%TD.AperFunction*%
%TD*%
%TA.AperFunction,Conductor*%
%TO.N,VCC*%
G36*
X160722520Y-89575719D02*
G01*
X161540214Y-89913437D01*
X161546553Y-89919763D01*
X161546562Y-89919785D01*
X161884272Y-90737460D01*
X161884263Y-90746414D01*
X161877924Y-90752740D01*
X161877699Y-90752830D01*
X160200660Y-91405109D01*
X160191707Y-91404914D01*
X160188146Y-91402478D01*
X160057521Y-91271853D01*
X160054094Y-91263580D01*
X160054889Y-91259342D01*
X160707171Y-89582297D01*
X160713361Y-89575832D01*
X160722314Y-89575637D01*
X160722520Y-89575719D01*
G37*
%TD.AperFunction*%
%TD*%
%TA.AperFunction,Conductor*%
%TO.N,GND*%
G36*
X154511500Y-106750725D02*
G01*
X154024000Y-107368500D01*
X153824000Y-107368500D01*
X153336500Y-106750725D01*
X153924000Y-106192500D01*
X154511500Y-106750725D01*
G37*
%TD.AperFunction*%
%TD*%
%TA.AperFunction,Conductor*%
%TO.N,GND*%
G36*
X145619999Y-117051067D02*
G01*
X144920000Y-116841000D01*
X144956058Y-115515000D01*
X145696000Y-115512903D01*
X145896000Y-115512903D01*
X145619999Y-117051067D01*
G37*
%TD.AperFunction*%
%TD*%
%TA.AperFunction,Conductor*%
%TO.N,VCC*%
G36*
X155362650Y-99433427D02*
G01*
X155363513Y-99434391D01*
X155755807Y-99924759D01*
X155758299Y-99933360D01*
X155757592Y-99936265D01*
X155270921Y-101202583D01*
X155264755Y-101209076D01*
X155255803Y-101209307D01*
X155249310Y-101203141D01*
X155249079Y-101202583D01*
X155142332Y-100924829D01*
X154762407Y-99936263D01*
X154762638Y-99927313D01*
X154764189Y-99924763D01*
X155156487Y-99434390D01*
X155164331Y-99430072D01*
X155165623Y-99430000D01*
X155354377Y-99430000D01*
X155362650Y-99433427D01*
G37*
%TD.AperFunction*%
%TD*%
%TA.AperFunction,Conductor*%
%TO.N,PROG_EN*%
G36*
X135900172Y-105943209D02*
G01*
X135903722Y-105945641D01*
X136034358Y-106076277D01*
X136037785Y-106084550D01*
X136036994Y-106088780D01*
X135372323Y-107802932D01*
X135366137Y-107809407D01*
X135357184Y-107809611D01*
X135356947Y-107809516D01*
X134521784Y-107464562D01*
X134515446Y-107458236D01*
X134170483Y-106623052D01*
X134170492Y-106614097D01*
X134176830Y-106607771D01*
X134176996Y-106607704D01*
X135891222Y-105943005D01*
X135900172Y-105943209D01*
G37*
%TD.AperFunction*%
%TD*%
%TA.AperFunction,Conductor*%
%TO.N,GND*%
G36*
X139613201Y-96170593D02*
G01*
X139691692Y-96592988D01*
X139550623Y-96734055D01*
X139382593Y-96566025D01*
X139380393Y-96562967D01*
X139378055Y-96558273D01*
X139378055Y-96558272D01*
X139378053Y-96558270D01*
X139378051Y-96558267D01*
X139341877Y-96525291D01*
X139341486Y-96524918D01*
X139326899Y-96510330D01*
X139326894Y-96510326D01*
X139321795Y-96506832D01*
X139320527Y-96505827D01*
X139295033Y-96482586D01*
X139295030Y-96482584D01*
X139276420Y-96475374D01*
X139274035Y-96474117D01*
X139257578Y-96462844D01*
X139257577Y-96462843D01*
X139223998Y-96454945D01*
X139222451Y-96454466D01*
X139190272Y-96442000D01*
X139190270Y-96442000D01*
X139176780Y-96442000D01*
X139101069Y-96382725D01*
X139312494Y-96169886D01*
X139613201Y-96170593D01*
G37*
%TD.AperFunction*%
%TD*%
%TA.AperFunction,Conductor*%
%TO.N,GND*%
G36*
X157032470Y-115926451D02*
G01*
X156565000Y-117083351D01*
X155976793Y-116840707D01*
X155871650Y-116115000D01*
X156891049Y-115785030D01*
X157032470Y-115926451D01*
G37*
%TD.AperFunction*%
%TD*%
%TA.AperFunction,Conductor*%
%TO.N,VCC*%
G36*
X153246313Y-104545193D02*
G01*
X153252909Y-104551249D01*
X153254000Y-104556183D01*
X153254000Y-104739816D01*
X153250573Y-104748089D01*
X153246313Y-104750806D01*
X152779305Y-104921330D01*
X152770358Y-104920949D01*
X152764496Y-104914851D01*
X152654883Y-104652509D01*
X152654857Y-104643556D01*
X152654862Y-104643542D01*
X152764496Y-104381147D01*
X152770848Y-104374836D01*
X152779302Y-104374669D01*
X153246313Y-104545193D01*
G37*
%TD.AperFunction*%
%TD*%
%TA.AperFunction,Conductor*%
%TO.N,GND*%
G36*
X145796707Y-110924907D02*
G01*
X145351000Y-111108525D01*
X144965627Y-110235249D01*
X145107049Y-110093827D01*
X145411435Y-109946652D01*
X145796707Y-110924907D01*
G37*
%TD.AperFunction*%
%TD*%
%TA.AperFunction,Conductor*%
%TO.N,VCC*%
G36*
X154767404Y-100737390D02*
G01*
X155252702Y-101221719D01*
X155256137Y-101229988D01*
X155252718Y-101238265D01*
X155252702Y-101238281D01*
X154767404Y-101722609D01*
X154759127Y-101726028D01*
X154751830Y-101723464D01*
X154264391Y-101333512D01*
X154260072Y-101325668D01*
X154260000Y-101324376D01*
X154260000Y-101135623D01*
X154263427Y-101127350D01*
X154264391Y-101126487D01*
X154751831Y-100736534D01*
X154760431Y-100734043D01*
X154767404Y-100737390D01*
G37*
%TD.AperFunction*%
%TD*%
%TA.AperFunction,Conductor*%
%TO.N,GND*%
G36*
X133744282Y-109681501D02*
G01*
X134514215Y-109999438D01*
X134520552Y-110005761D01*
X134520562Y-110005785D01*
X134838497Y-110775714D01*
X134838488Y-110784669D01*
X134832149Y-110790994D01*
X134831396Y-110791275D01*
X133393495Y-111272494D01*
X133384562Y-111271870D01*
X133381509Y-111269672D01*
X133250327Y-111138490D01*
X133246900Y-111130217D01*
X133247503Y-111126510D01*
X133728725Y-109688601D01*
X133734599Y-109681845D01*
X133743532Y-109681221D01*
X133744282Y-109681501D01*
G37*
%TD.AperFunction*%
%TD*%
%TA.AperFunction,Conductor*%
%TO.N,VCC*%
G36*
X148491921Y-109952143D02*
G01*
X148783170Y-110092966D01*
X148786349Y-110095225D01*
X148920706Y-110229582D01*
X148924133Y-110237855D01*
X148923137Y-110242579D01*
X148545607Y-111098083D01*
X148539132Y-111104268D01*
X148530446Y-111104177D01*
X148105942Y-110929294D01*
X148099598Y-110922974D01*
X148099513Y-110914191D01*
X148475942Y-109958388D01*
X148482162Y-109951947D01*
X148491115Y-109951790D01*
X148491921Y-109952143D01*
G37*
%TD.AperFunction*%
%TD*%
%TA.AperFunction,Conductor*%
%TO.N,VCC*%
G36*
X150756687Y-108452724D02*
G01*
X150756705Y-108452765D01*
X150848522Y-108672513D01*
X150865809Y-108713885D01*
X150865836Y-108722840D01*
X150865817Y-108722887D01*
X150756802Y-108985128D01*
X150750462Y-108991452D01*
X150741507Y-108991441D01*
X150741190Y-108991303D01*
X150349638Y-108814812D01*
X150346173Y-108812419D01*
X150218555Y-108684801D01*
X150215128Y-108676528D01*
X150218555Y-108668255D01*
X150222271Y-108665752D01*
X150741357Y-108446497D01*
X150750311Y-108446436D01*
X150756687Y-108452724D01*
G37*
%TD.AperFunction*%
%TD*%
%TA.AperFunction,Conductor*%
%TO.N,BATTREAD*%
G36*
X152642087Y-109738428D02*
G01*
X152643483Y-109740114D01*
X153162908Y-110502545D01*
X153164734Y-110511311D01*
X153163702Y-110514367D01*
X152550463Y-111740086D01*
X152543697Y-111745952D01*
X152534765Y-111745315D01*
X152529537Y-111740086D01*
X151916297Y-110514367D01*
X151915659Y-110505435D01*
X151917091Y-110502545D01*
X152436517Y-109740114D01*
X152444007Y-109735206D01*
X152446186Y-109735001D01*
X152633814Y-109735001D01*
X152642087Y-109738428D01*
G37*
%TD.AperFunction*%
%TD*%
%TA.AperFunction,Conductor*%
%TO.N,VCC*%
G36*
X146384324Y-120610927D02*
G01*
X146385944Y-120612953D01*
X146845991Y-121341444D01*
X146847511Y-121350269D01*
X146844394Y-121355941D01*
X146290796Y-121912657D01*
X146282533Y-121916107D01*
X146274250Y-121912703D01*
X146274204Y-121912657D01*
X145720605Y-121355941D01*
X145717201Y-121347658D01*
X145719006Y-121341448D01*
X146179056Y-120612952D01*
X146186371Y-120607787D01*
X146188949Y-120607500D01*
X146376051Y-120607500D01*
X146384324Y-120610927D01*
G37*
%TD.AperFunction*%
%TD*%
%TA.AperFunction,Conductor*%
%TO.N,GND*%
G36*
X148925970Y-121349329D02*
G01*
X148357500Y-121921000D01*
X147789030Y-121349329D01*
X148257500Y-120607500D01*
X148457500Y-120607500D01*
X148925970Y-121349329D01*
G37*
%TD.AperFunction*%
%TD*%
%TA.AperFunction,Conductor*%
%TO.N,GND*%
G36*
X143017566Y-99930000D02*
G01*
X142660707Y-101230707D01*
X142160000Y-99930000D01*
X142396450Y-99580588D01*
X142537871Y-99439167D01*
X143017566Y-99930000D01*
G37*
%TD.AperFunction*%
%TD*%
%TA.AperFunction,Conductor*%
%TO.N,PWRIN_VCC*%
G36*
X153910749Y-116847295D02*
G01*
X154442911Y-117382454D01*
X154464394Y-117404058D01*
X154467798Y-117412341D01*
X154465991Y-117418555D01*
X154005944Y-118147047D01*
X153998629Y-118152213D01*
X153996051Y-118152500D01*
X153808949Y-118152500D01*
X153800676Y-118149073D01*
X153799056Y-118147047D01*
X153339007Y-117418553D01*
X153337488Y-117409730D01*
X153340603Y-117404060D01*
X153894205Y-116847341D01*
X153902467Y-116843892D01*
X153910749Y-116847295D01*
G37*
%TD.AperFunction*%
%TD*%
%TA.AperFunction,Conductor*%
%TO.N,GND*%
G36*
X142616512Y-112126071D02*
G01*
X142663702Y-112167875D01*
X142874619Y-112483695D01*
X142895481Y-112550375D01*
X142895500Y-112552559D01*
X142895500Y-117678256D01*
X142894439Y-117694441D01*
X142890318Y-117725742D01*
X142890318Y-117725744D01*
X142895500Y-117765104D01*
X142895500Y-117765105D01*
X142910955Y-117882504D01*
X142910956Y-117882506D01*
X142934545Y-117939456D01*
X142971464Y-118028585D01*
X143023172Y-118095972D01*
X143067719Y-118154027D01*
X143092769Y-118173248D01*
X143104964Y-118183943D01*
X143777055Y-118856034D01*
X143787749Y-118868228D01*
X143806974Y-118893282D01*
X143907664Y-118970544D01*
X143932415Y-118989536D01*
X144078494Y-119050044D01*
X144156875Y-119060363D01*
X144235255Y-119070682D01*
X144235256Y-119070682D01*
X144266558Y-119066560D01*
X144282743Y-119065500D01*
X145304647Y-119065500D01*
X145371686Y-119085185D01*
X145392328Y-119101819D01*
X145714534Y-119424025D01*
X145748019Y-119485348D01*
X145743035Y-119555040D01*
X145714535Y-119599386D01*
X145674184Y-119639737D01*
X145578211Y-119792476D01*
X145518631Y-119962745D01*
X145518630Y-119962750D01*
X145498435Y-120141996D01*
X145498435Y-120142003D01*
X145518631Y-120321253D01*
X145518631Y-120321254D01*
X145541054Y-120385337D01*
X145546219Y-120405278D01*
X145549217Y-120422715D01*
X145582872Y-120526693D01*
X145584789Y-120596536D01*
X145569742Y-120631087D01*
X145291599Y-121071532D01*
X145289559Y-121076063D01*
X145282034Y-121090244D01*
X145260185Y-121125668D01*
X145260184Y-121125671D01*
X145242574Y-121178810D01*
X145237942Y-121190700D01*
X145233595Y-121200357D01*
X145231793Y-121206556D01*
X145231790Y-121206567D01*
X145229094Y-121217972D01*
X145226127Y-121228445D01*
X145205001Y-121292199D01*
X145194500Y-121394983D01*
X145194500Y-122445001D01*
X145194501Y-122445019D01*
X145205000Y-122547796D01*
X145205001Y-122547799D01*
X145260185Y-122714331D01*
X145260186Y-122714334D01*
X145352288Y-122863656D01*
X145476344Y-122987712D01*
X145625666Y-123079814D01*
X145792203Y-123134999D01*
X145894991Y-123145500D01*
X146670008Y-123145499D01*
X146670016Y-123145498D01*
X146670019Y-123145498D01*
X146726302Y-123139748D01*
X146772797Y-123134999D01*
X146939334Y-123079814D01*
X146939340Y-123079810D01*
X146945883Y-123076760D01*
X146946706Y-123078525D01*
X147004597Y-123062678D01*
X147071263Y-123083592D01*
X147089997Y-123098976D01*
X147327055Y-123336034D01*
X147337749Y-123348228D01*
X147356971Y-123373279D01*
X147356972Y-123373280D01*
X147356974Y-123373282D01*
X147482415Y-123469536D01*
X147628494Y-123530044D01*
X147628499Y-123530044D01*
X147636344Y-123532147D01*
X147635891Y-123533835D01*
X147690721Y-123558090D01*
X147729192Y-123616415D01*
X147730023Y-123686280D01*
X147698320Y-123740444D01*
X146183584Y-125255181D01*
X146122261Y-125288666D01*
X146095903Y-125291500D01*
X145935487Y-125291500D01*
X145919302Y-125290439D01*
X145888000Y-125286318D01*
X145848639Y-125291500D01*
X145731239Y-125306955D01*
X145731237Y-125306956D01*
X145585160Y-125367463D01*
X145459714Y-125463721D01*
X145440495Y-125488769D01*
X145429800Y-125500964D01*
X143368263Y-127562500D01*
X143325411Y-127590432D01*
X141802074Y-128181113D01*
X141757245Y-128189500D01*
X141342129Y-128189500D01*
X141342123Y-128189501D01*
X141282516Y-128195908D01*
X141147671Y-128246202D01*
X141147664Y-128246206D01*
X141032455Y-128332452D01*
X141032452Y-128332455D01*
X140946206Y-128447664D01*
X140946202Y-128447671D01*
X140896997Y-128579598D01*
X140855126Y-128635532D01*
X140789661Y-128659949D01*
X140721388Y-128645097D01*
X140693134Y-128623946D01*
X140571082Y-128501894D01*
X140377578Y-128366399D01*
X140163492Y-128266570D01*
X140163486Y-128266567D01*
X139950000Y-128209364D01*
X139950000Y-129104498D01*
X139842315Y-129055320D01*
X139735763Y-129040000D01*
X139664237Y-129040000D01*
X139557685Y-129055320D01*
X139450000Y-129104498D01*
X139450000Y-128209364D01*
X139449999Y-128209364D01*
X139236513Y-128266567D01*
X139236507Y-128266570D01*
X139022422Y-128366399D01*
X139022420Y-128366400D01*
X138828926Y-128501886D01*
X138828920Y-128501891D01*
X138661891Y-128668920D01*
X138661886Y-128668926D01*
X138526400Y-128862420D01*
X138526399Y-128862422D01*
X138426570Y-129076507D01*
X138426567Y-129076513D01*
X138369364Y-129289999D01*
X138369364Y-129290000D01*
X139266314Y-129290000D01*
X139240507Y-129330156D01*
X139200000Y-129468111D01*
X139200000Y-129611889D01*
X139240507Y-129749844D01*
X139266314Y-129790000D01*
X138369364Y-129790000D01*
X138426567Y-130003486D01*
X138426570Y-130003492D01*
X138526399Y-130217578D01*
X138661894Y-130411082D01*
X138828917Y-130578105D01*
X139022421Y-130713600D01*
X139236507Y-130813429D01*
X139236516Y-130813433D01*
X139450000Y-130870634D01*
X139450000Y-129975501D01*
X139557685Y-130024680D01*
X139664237Y-130040000D01*
X139735763Y-130040000D01*
X139842315Y-130024680D01*
X139950000Y-129975501D01*
X139950000Y-130870633D01*
X140163483Y-130813433D01*
X140163492Y-130813429D01*
X140377578Y-130713600D01*
X140571078Y-130578108D01*
X140693133Y-130456053D01*
X140754456Y-130422568D01*
X140824148Y-130427552D01*
X140880082Y-130469423D01*
X140896997Y-130500401D01*
X140946202Y-130632328D01*
X140946206Y-130632335D01*
X141032452Y-130747544D01*
X141032455Y-130747547D01*
X141147664Y-130833793D01*
X141147671Y-130833797D01*
X141282517Y-130884091D01*
X141282516Y-130884091D01*
X141289444Y-130884835D01*
X141342127Y-130890500D01*
X143137872Y-130890499D01*
X143197483Y-130884091D01*
X143332331Y-130833796D01*
X143447546Y-130747546D01*
X143533796Y-130632331D01*
X143584091Y-130497483D01*
X143590500Y-130437873D01*
X143590499Y-130022749D01*
X143598886Y-129977921D01*
X143634318Y-129886543D01*
X144189567Y-128454583D01*
X144217496Y-128411737D01*
X145584320Y-127044913D01*
X145645642Y-127011430D01*
X145715334Y-127016414D01*
X145771267Y-127058286D01*
X145795684Y-127123750D01*
X145796000Y-127132596D01*
X145796000Y-131455500D01*
X145776315Y-131522539D01*
X145723511Y-131568294D01*
X145672000Y-131579500D01*
X136522000Y-131579500D01*
X136454961Y-131559815D01*
X136409206Y-131507011D01*
X136398000Y-131455500D01*
X136398000Y-117564500D01*
X136417685Y-117497461D01*
X136470489Y-117451706D01*
X136522000Y-117440500D01*
X136604513Y-117440500D01*
X136620697Y-117441560D01*
X136652000Y-117445682D01*
X136652001Y-117445682D01*
X136704254Y-117438802D01*
X136808762Y-117425044D01*
X136954841Y-117364536D01*
X136961141Y-117359702D01*
X137080282Y-117268282D01*
X137099509Y-117243223D01*
X137110190Y-117231043D01*
X141897950Y-112443283D01*
X141933337Y-112418532D01*
X142303830Y-112246236D01*
X142316117Y-112239878D01*
X142332135Y-112232973D01*
X142335522Y-112231789D01*
X142488262Y-112135816D01*
X142488262Y-112135815D01*
X142494158Y-112132111D01*
X142495792Y-112134712D01*
X142547801Y-112113403D01*
X142616512Y-112126071D01*
G37*
%TD.AperFunction*%
%TA.AperFunction,Conductor*%
G36*
X141602539Y-85356185D02*
G01*
X141648294Y-85408989D01*
X141659500Y-85460500D01*
X141659500Y-88077870D01*
X141659501Y-88077876D01*
X141665908Y-88137483D01*
X141716202Y-88272328D01*
X141716206Y-88272335D01*
X141802452Y-88387544D01*
X141802455Y-88387547D01*
X141917664Y-88473793D01*
X141917671Y-88473797D01*
X142052517Y-88524091D01*
X142052516Y-88524091D01*
X142059444Y-88524835D01*
X142112127Y-88530500D01*
X143207872Y-88530499D01*
X143267483Y-88524091D01*
X143402331Y-88473796D01*
X143485689Y-88411393D01*
X143551153Y-88386977D01*
X143619426Y-88401828D01*
X143634309Y-88411393D01*
X143717665Y-88473793D01*
X143717669Y-88473796D01*
X143717671Y-88473797D01*
X143852517Y-88524091D01*
X143852516Y-88524091D01*
X143859444Y-88524835D01*
X143912127Y-88530500D01*
X145007872Y-88530499D01*
X145067483Y-88524091D01*
X145202331Y-88473796D01*
X145285689Y-88411393D01*
X145351153Y-88386977D01*
X145419426Y-88401828D01*
X145434309Y-88411393D01*
X145517665Y-88473793D01*
X145517669Y-88473796D01*
X145517671Y-88473797D01*
X145652517Y-88524091D01*
X145652516Y-88524091D01*
X145659444Y-88524835D01*
X145712127Y-88530500D01*
X146807872Y-88530499D01*
X146867483Y-88524091D01*
X147002331Y-88473796D01*
X147085689Y-88411393D01*
X147151153Y-88386977D01*
X147219426Y-88401828D01*
X147234309Y-88411393D01*
X147317665Y-88473793D01*
X147317669Y-88473796D01*
X147317671Y-88473797D01*
X147452517Y-88524091D01*
X147452516Y-88524091D01*
X147459444Y-88524835D01*
X147512127Y-88530500D01*
X148607872Y-88530499D01*
X148667483Y-88524091D01*
X148802331Y-88473796D01*
X148885689Y-88411393D01*
X148951153Y-88386977D01*
X149019426Y-88401828D01*
X149034309Y-88411393D01*
X149117665Y-88473793D01*
X149117669Y-88473796D01*
X149117671Y-88473797D01*
X149252517Y-88524091D01*
X149252516Y-88524091D01*
X149259444Y-88524835D01*
X149312127Y-88530500D01*
X150407872Y-88530499D01*
X150467483Y-88524091D01*
X150602331Y-88473796D01*
X150685689Y-88411393D01*
X150751153Y-88386977D01*
X150819426Y-88401828D01*
X150834309Y-88411393D01*
X150917665Y-88473793D01*
X150917669Y-88473796D01*
X150917671Y-88473797D01*
X151052517Y-88524091D01*
X151052516Y-88524091D01*
X151059444Y-88524835D01*
X151112127Y-88530500D01*
X152207872Y-88530499D01*
X152267483Y-88524091D01*
X152402331Y-88473796D01*
X152485689Y-88411393D01*
X152551153Y-88386977D01*
X152619426Y-88401828D01*
X152634309Y-88411393D01*
X152717665Y-88473793D01*
X152717669Y-88473796D01*
X152717671Y-88473797D01*
X152852517Y-88524091D01*
X152852516Y-88524091D01*
X152859444Y-88524835D01*
X152912127Y-88530500D01*
X154007872Y-88530499D01*
X154067483Y-88524091D01*
X154202331Y-88473796D01*
X154285689Y-88411393D01*
X154351153Y-88386977D01*
X154419426Y-88401828D01*
X154434309Y-88411393D01*
X154517665Y-88473793D01*
X154517669Y-88473796D01*
X154517671Y-88473797D01*
X154652517Y-88524091D01*
X154652516Y-88524091D01*
X154659444Y-88524835D01*
X154712127Y-88530500D01*
X155807872Y-88530499D01*
X155867483Y-88524091D01*
X156002331Y-88473796D01*
X156085689Y-88411393D01*
X156151153Y-88386977D01*
X156219426Y-88401828D01*
X156234309Y-88411393D01*
X156317665Y-88473793D01*
X156317669Y-88473796D01*
X156317671Y-88473797D01*
X156452517Y-88524091D01*
X156452516Y-88524091D01*
X156459444Y-88524835D01*
X156512127Y-88530500D01*
X157607872Y-88530499D01*
X157667483Y-88524091D01*
X157802331Y-88473796D01*
X157917546Y-88387546D01*
X158003796Y-88272331D01*
X158054091Y-88137483D01*
X158060500Y-88077873D01*
X158060499Y-85460499D01*
X158080184Y-85393461D01*
X158132987Y-85347706D01*
X158184499Y-85336500D01*
X163459500Y-85336500D01*
X163526539Y-85356185D01*
X163572294Y-85408989D01*
X163583500Y-85460500D01*
X163583500Y-125867500D01*
X163563815Y-125934539D01*
X163511011Y-125980294D01*
X163459500Y-125991500D01*
X159837961Y-125991500D01*
X159694039Y-125991500D01*
X159694036Y-125991500D01*
X159694034Y-125991501D01*
X159667842Y-125999190D01*
X159650568Y-126002948D01*
X159623544Y-126006834D01*
X159623541Y-126006835D01*
X159598710Y-126018175D01*
X159582141Y-126024355D01*
X159569171Y-126028163D01*
X159555947Y-126032047D01*
X159555945Y-126032047D01*
X159555945Y-126032048D01*
X159532982Y-126046805D01*
X159517461Y-126055280D01*
X159492628Y-126066621D01*
X159492625Y-126066623D01*
X159472000Y-126084495D01*
X159457840Y-126095095D01*
X159434876Y-126109853D01*
X159434871Y-126109857D01*
X159416993Y-126130489D01*
X159404489Y-126142993D01*
X159383857Y-126160871D01*
X159383853Y-126160876D01*
X159370894Y-126181041D01*
X159318090Y-126226795D01*
X159266580Y-126238000D01*
X152645419Y-126238000D01*
X152578380Y-126218315D01*
X152541102Y-126181037D01*
X152528144Y-126160873D01*
X152528142Y-126160871D01*
X152507510Y-126142992D01*
X152495006Y-126130488D01*
X152477128Y-126109857D01*
X152477123Y-126109853D01*
X152454160Y-126095095D01*
X152440000Y-126084496D01*
X152433007Y-126078437D01*
X152419373Y-126066623D01*
X152394541Y-126055282D01*
X152379019Y-126046806D01*
X152379017Y-126046805D01*
X152356053Y-126032047D01*
X152356051Y-126032046D01*
X152329858Y-126024355D01*
X152313288Y-126018174D01*
X152288457Y-126006835D01*
X152261423Y-126002947D01*
X152244154Y-125999190D01*
X152217963Y-125991500D01*
X152217961Y-125991500D01*
X152181799Y-125991500D01*
X147445097Y-125991500D01*
X147378058Y-125971815D01*
X147332303Y-125919011D01*
X147322359Y-125849853D01*
X147351384Y-125786297D01*
X147357416Y-125779819D01*
X147882054Y-125255181D01*
X154293544Y-118843689D01*
X154305722Y-118833010D01*
X154330782Y-118813782D01*
X154427036Y-118688341D01*
X154487544Y-118542262D01*
X154503000Y-118424861D01*
X154508182Y-118385500D01*
X154504554Y-118357947D01*
X154515318Y-118288917D01*
X154522642Y-118275565D01*
X154835764Y-117779733D01*
X154888200Y-117733564D01*
X154957278Y-117723072D01*
X155021062Y-117751592D01*
X155046141Y-117780844D01*
X155047683Y-117783344D01*
X155171654Y-117907315D01*
X155320875Y-117999356D01*
X155320880Y-117999358D01*
X155487302Y-118054505D01*
X155487309Y-118054506D01*
X155590019Y-118064999D01*
X155727499Y-118064999D01*
X155727500Y-118064998D01*
X155727500Y-117090000D01*
X156227500Y-117090000D01*
X156227500Y-118064999D01*
X156364972Y-118064999D01*
X156364986Y-118064998D01*
X156467697Y-118054505D01*
X156634119Y-117999358D01*
X156634124Y-117999356D01*
X156783345Y-117907315D01*
X156907315Y-117783345D01*
X156999356Y-117634124D01*
X156999358Y-117634119D01*
X157054505Y-117467697D01*
X157054506Y-117467690D01*
X157064999Y-117364986D01*
X157065000Y-117364973D01*
X157065000Y-117090000D01*
X156227500Y-117090000D01*
X155727500Y-117090000D01*
X155727500Y-115615000D01*
X156227500Y-115615000D01*
X156227500Y-116590000D01*
X157064999Y-116590000D01*
X157064999Y-116315028D01*
X157064998Y-116315013D01*
X157054505Y-116212302D01*
X156999358Y-116045880D01*
X156999356Y-116045875D01*
X156907315Y-115896654D01*
X156783345Y-115772684D01*
X156634124Y-115680643D01*
X156634119Y-115680641D01*
X156467697Y-115625494D01*
X156467690Y-115625493D01*
X156364986Y-115615000D01*
X156227500Y-115615000D01*
X155727500Y-115615000D01*
X155590027Y-115615000D01*
X155590012Y-115615001D01*
X155487302Y-115625494D01*
X155320880Y-115680641D01*
X155320875Y-115680643D01*
X155171654Y-115772684D01*
X155047683Y-115896655D01*
X155047679Y-115896660D01*
X155046140Y-115899156D01*
X155044638Y-115900506D01*
X155043202Y-115902323D01*
X155042891Y-115902077D01*
X154994189Y-115945877D01*
X154925226Y-115957094D01*
X154861146Y-115929247D01*
X154835762Y-115900262D01*
X154584142Y-115501819D01*
X154564990Y-115434625D01*
X154585206Y-115367744D01*
X154601300Y-115347933D01*
X156358987Y-113590246D01*
X156420308Y-113556763D01*
X156457530Y-113554406D01*
X156836553Y-113587750D01*
X156878987Y-113585686D01*
X156879812Y-113585646D01*
X156885835Y-113585500D01*
X157840005Y-113585500D01*
X157840010Y-113585500D01*
X157942798Y-113574999D01*
X158109335Y-113519814D01*
X158258656Y-113427712D01*
X158382712Y-113303656D01*
X158474814Y-113154335D01*
X158529999Y-112987798D01*
X158540500Y-112885010D01*
X158540500Y-110634990D01*
X158529999Y-110532202D01*
X158474814Y-110365665D01*
X158382712Y-110216344D01*
X158258656Y-110092288D01*
X158109335Y-110000186D01*
X157942798Y-109945001D01*
X157942796Y-109945000D01*
X157840017Y-109934500D01*
X157840010Y-109934500D01*
X156839990Y-109934500D01*
X156839982Y-109934500D01*
X156737203Y-109945000D01*
X156737202Y-109945001D01*
X156654669Y-109972349D01*
X156570667Y-110000185D01*
X156570662Y-110000187D01*
X156421342Y-110092289D01*
X156297289Y-110216342D01*
X156205187Y-110365662D01*
X156205186Y-110365665D01*
X156150001Y-110532202D01*
X156150001Y-110532203D01*
X156150000Y-110532203D01*
X156139500Y-110634982D01*
X156139500Y-111336318D01*
X156130631Y-111382370D01*
X155648243Y-112588341D01*
X155620793Y-112629970D01*
X153511465Y-114739298D01*
X153499274Y-114749990D01*
X153474218Y-114769217D01*
X153450049Y-114800713D01*
X153450050Y-114800714D01*
X153377964Y-114894658D01*
X153377961Y-114894663D01*
X153317457Y-115040734D01*
X153317455Y-115040739D01*
X153296818Y-115197498D01*
X153296818Y-115197499D01*
X153300939Y-115228801D01*
X153302000Y-115244987D01*
X153302000Y-115337452D01*
X153282844Y-115403661D01*
X153206247Y-115524954D01*
X153206239Y-115524968D01*
X153189541Y-115553426D01*
X153167704Y-115612301D01*
X153139502Y-115688337D01*
X153138264Y-115692582D01*
X153137159Y-115692259D01*
X153106262Y-115749078D01*
X153106111Y-115749229D01*
X153034280Y-115821061D01*
X152996936Y-115862792D01*
X152996930Y-115862798D01*
X152995341Y-115864786D01*
X152979884Y-115886486D01*
X152976164Y-115891440D01*
X152972291Y-115896339D01*
X152970721Y-115898884D01*
X152966201Y-115905695D01*
X152962715Y-115910589D01*
X152962711Y-115910596D01*
X152911597Y-115991535D01*
X152909559Y-115996063D01*
X152902034Y-116010244D01*
X152880185Y-116045668D01*
X152880184Y-116045671D01*
X152862574Y-116098810D01*
X152857942Y-116110700D01*
X152853595Y-116120357D01*
X152851793Y-116126556D01*
X152851790Y-116126567D01*
X152849094Y-116137972D01*
X152846127Y-116148445D01*
X152825001Y-116212199D01*
X152814500Y-116314983D01*
X152814500Y-117365001D01*
X152814501Y-117365019D01*
X152825000Y-117467796D01*
X152825001Y-117467799D01*
X152844994Y-117528132D01*
X152848805Y-117542447D01*
X152849427Y-117545509D01*
X152851138Y-117551070D01*
X152852301Y-117555417D01*
X152852866Y-117557109D01*
X152857004Y-117566363D01*
X152861508Y-117577967D01*
X152880116Y-117634124D01*
X152880186Y-117634333D01*
X152880188Y-117634338D01*
X152895257Y-117658769D01*
X152904081Y-117675935D01*
X152905032Y-117678205D01*
X153020989Y-117871828D01*
X153038545Y-117939456D01*
X153016752Y-118005840D01*
X153002288Y-118023219D01*
X149646711Y-121378796D01*
X149585388Y-121412281D01*
X149515696Y-121407297D01*
X149459763Y-121365425D01*
X149435672Y-121303717D01*
X149434505Y-121292302D01*
X149379358Y-121125880D01*
X149379356Y-121125875D01*
X149287315Y-120976654D01*
X149163345Y-120852684D01*
X149014124Y-120760643D01*
X149014119Y-120760641D01*
X148847697Y-120705494D01*
X148847690Y-120705493D01*
X148744986Y-120695000D01*
X148607500Y-120695000D01*
X148607500Y-122046000D01*
X148587815Y-122113039D01*
X148535011Y-122158794D01*
X148483500Y-122170000D01*
X148231500Y-122170000D01*
X148164461Y-122150315D01*
X148118706Y-122097511D01*
X148107500Y-122046000D01*
X148107500Y-120695000D01*
X148106819Y-120694319D01*
X148073334Y-120632996D01*
X148070500Y-120606638D01*
X148070500Y-120377743D01*
X148071561Y-120361557D01*
X148075682Y-120330256D01*
X148075682Y-120330254D01*
X148055044Y-120173495D01*
X148055044Y-120173494D01*
X147994536Y-120027415D01*
X147987163Y-120017806D01*
X147898282Y-119901974D01*
X147898280Y-119901972D01*
X147898279Y-119901971D01*
X147873228Y-119882749D01*
X147861034Y-119872055D01*
X146146274Y-118157295D01*
X146112789Y-118095972D01*
X146110597Y-118057010D01*
X146119999Y-117964983D01*
X146120000Y-117964973D01*
X146120000Y-117090000D01*
X144794000Y-117090000D01*
X144726961Y-117070315D01*
X144681206Y-117017511D01*
X144670000Y-116966000D01*
X144670000Y-115015000D01*
X145170000Y-115015000D01*
X145170000Y-116590000D01*
X146119999Y-116590000D01*
X146119999Y-115715028D01*
X146119998Y-115715013D01*
X146109505Y-115612303D01*
X146109505Y-115612301D01*
X146054359Y-115445880D01*
X146054354Y-115445869D01*
X145962319Y-115296659D01*
X145962316Y-115296655D01*
X145838344Y-115172683D01*
X145838340Y-115172680D01*
X145689130Y-115080645D01*
X145689119Y-115080640D01*
X145522697Y-115025494D01*
X145419986Y-115015000D01*
X145170000Y-115015000D01*
X144670000Y-115015000D01*
X144420029Y-115015000D01*
X144420012Y-115015001D01*
X144317303Y-115025494D01*
X144317297Y-115025495D01*
X144259503Y-115044646D01*
X144189674Y-115047047D01*
X144129633Y-115011315D01*
X144098441Y-114948794D01*
X144096500Y-114926940D01*
X144096500Y-112552562D01*
X144116185Y-112485523D01*
X144117381Y-112483696D01*
X144144368Y-112443286D01*
X144350243Y-112135015D01*
X144350262Y-112134980D01*
X144350281Y-112134953D01*
X144351243Y-112133413D01*
X144351292Y-112133443D01*
X144351300Y-112133432D01*
X144351301Y-112133432D01*
X144359048Y-112121882D01*
X144365802Y-112113082D01*
X144369448Y-112104276D01*
X144376865Y-112089314D01*
X144381433Y-112081473D01*
X144381441Y-112081456D01*
X144382719Y-112078917D01*
X144403188Y-112023091D01*
X144405010Y-112018420D01*
X144426098Y-111967514D01*
X144441500Y-111850524D01*
X144441500Y-111174200D01*
X144851000Y-111174200D01*
X144851000Y-111850493D01*
X144866390Y-111967382D01*
X144866390Y-111967383D01*
X144926635Y-112112828D01*
X145022473Y-112237726D01*
X145147371Y-112333564D01*
X145292817Y-112393809D01*
X145409706Y-112409199D01*
X145409721Y-112409200D01*
X145546000Y-112409200D01*
X145546000Y-111174200D01*
X146046000Y-111174200D01*
X146046000Y-112409200D01*
X146182279Y-112409200D01*
X146182293Y-112409199D01*
X146299182Y-112393809D01*
X146299183Y-112393809D01*
X146444628Y-112333564D01*
X146569526Y-112237726D01*
X146665364Y-112112828D01*
X146725609Y-111967383D01*
X146725609Y-111967382D01*
X146740999Y-111850493D01*
X146741000Y-111850479D01*
X146741000Y-111174200D01*
X146046000Y-111174200D01*
X145546000Y-111174200D01*
X144851000Y-111174200D01*
X144441500Y-111174200D01*
X144441500Y-110674200D01*
X144851000Y-110674200D01*
X145546000Y-110674200D01*
X145546000Y-109439200D01*
X146046000Y-109439200D01*
X146046000Y-110674200D01*
X146741000Y-110674200D01*
X146741000Y-109997920D01*
X146740999Y-109997906D01*
X146725609Y-109881017D01*
X146725609Y-109881016D01*
X146665364Y-109735571D01*
X146569526Y-109610673D01*
X146444628Y-109514835D01*
X146299182Y-109454590D01*
X146182293Y-109439200D01*
X146046000Y-109439200D01*
X145546000Y-109439200D01*
X145409706Y-109439200D01*
X145292817Y-109454590D01*
X145292816Y-109454590D01*
X145147371Y-109514835D01*
X145022473Y-109610673D01*
X144926635Y-109735571D01*
X144866390Y-109881016D01*
X144866390Y-109881017D01*
X144851000Y-109997906D01*
X144851000Y-110674200D01*
X144441500Y-110674200D01*
X144441500Y-109997876D01*
X144426098Y-109880886D01*
X144365802Y-109735318D01*
X144269884Y-109610316D01*
X144144882Y-109514398D01*
X144144878Y-109514396D01*
X143999317Y-109454103D01*
X143999315Y-109454102D01*
X143999314Y-109454102D01*
X143984487Y-109452150D01*
X143882331Y-109438700D01*
X143882324Y-109438700D01*
X143109676Y-109438700D01*
X143109668Y-109438700D01*
X142992682Y-109454102D01*
X142986110Y-109456825D01*
X142916641Y-109464292D01*
X142854162Y-109433016D01*
X142850979Y-109429944D01*
X141698819Y-108277784D01*
X141665334Y-108216461D01*
X141662500Y-108190103D01*
X141662500Y-105124200D01*
X143701001Y-105124200D01*
X143701001Y-105127439D01*
X143715722Y-105295711D01*
X143715722Y-105295712D01*
X143774051Y-105513400D01*
X143774055Y-105513411D01*
X143869296Y-105717656D01*
X143869302Y-105717666D01*
X143998566Y-105902273D01*
X144157926Y-106061633D01*
X144342533Y-106190897D01*
X144342543Y-106190903D01*
X144546788Y-106286144D01*
X144546799Y-106286148D01*
X144764485Y-106344477D01*
X144764492Y-106344478D01*
X144932760Y-106359199D01*
X145545999Y-106359199D01*
X145546000Y-106359198D01*
X145546000Y-105124200D01*
X143701001Y-105124200D01*
X141662500Y-105124200D01*
X141662500Y-104231940D01*
X141682185Y-104164901D01*
X141734989Y-104119146D01*
X141804147Y-104109202D01*
X141867703Y-104138227D01*
X141874181Y-104144259D01*
X141991738Y-104261816D01*
X142144478Y-104357789D01*
X142314745Y-104417368D01*
X142314750Y-104417369D01*
X142493996Y-104437565D01*
X142494000Y-104437565D01*
X142494004Y-104437565D01*
X142673249Y-104417369D01*
X142673252Y-104417368D01*
X142673255Y-104417368D01*
X142843522Y-104357789D01*
X142996262Y-104261816D01*
X143123816Y-104134262D01*
X143133998Y-104118055D01*
X143140826Y-104108270D01*
X143203781Y-104026723D01*
X143260330Y-103985688D01*
X143301934Y-103978500D01*
X143699018Y-103978500D01*
X143766057Y-103998185D01*
X143811812Y-104050989D01*
X143821756Y-104120147D01*
X143811400Y-104154905D01*
X143774054Y-104234993D01*
X143774051Y-104234999D01*
X143715722Y-104452685D01*
X143715721Y-104452692D01*
X143701000Y-104620959D01*
X143701000Y-104624200D01*
X145922000Y-104624200D01*
X145989039Y-104643885D01*
X146034794Y-104696689D01*
X146046000Y-104748200D01*
X146046000Y-106359199D01*
X146659236Y-106359199D01*
X146659239Y-106359198D01*
X146827511Y-106344477D01*
X146827512Y-106344477D01*
X147045200Y-106286148D01*
X147045211Y-106286144D01*
X147249456Y-106190903D01*
X147249466Y-106190897D01*
X147434073Y-106061633D01*
X147593433Y-105902273D01*
X147722697Y-105717666D01*
X147722703Y-105717656D01*
X147817944Y-105513411D01*
X147817950Y-105513395D01*
X147828015Y-105475831D01*
X147864379Y-105416170D01*
X147927226Y-105385640D01*
X147996601Y-105393934D01*
X148035471Y-105420242D01*
X150450558Y-107835329D01*
X150484043Y-107896652D01*
X150479059Y-107966344D01*
X150437187Y-108022277D01*
X150411126Y-108037238D01*
X150276086Y-108094277D01*
X150214390Y-108120336D01*
X150182330Y-108129047D01*
X150144346Y-108134047D01*
X149998265Y-108194556D01*
X149872826Y-108290808D01*
X149853597Y-108315867D01*
X149842906Y-108328057D01*
X148741020Y-109429943D01*
X148679697Y-109463428D01*
X148610005Y-109458444D01*
X148605893Y-109456826D01*
X148599316Y-109454102D01*
X148599318Y-109454102D01*
X148482331Y-109438700D01*
X148482324Y-109438700D01*
X147709676Y-109438700D01*
X147709668Y-109438700D01*
X147592686Y-109454102D01*
X147592682Y-109454103D01*
X147447121Y-109514396D01*
X147447118Y-109514397D01*
X147447118Y-109514398D01*
X147372269Y-109571832D01*
X147322116Y-109610316D01*
X147226196Y-109735321D01*
X147165903Y-109880882D01*
X147165902Y-109880886D01*
X147150500Y-109997868D01*
X147150500Y-111850531D01*
X147165902Y-111967513D01*
X147173370Y-111985544D01*
X147178960Y-112002344D01*
X147179691Y-112005210D01*
X147179693Y-112005214D01*
X147191916Y-112030779D01*
X147194606Y-112036813D01*
X147226198Y-112113082D01*
X147232930Y-112121855D01*
X147239246Y-112131370D01*
X147239299Y-112131335D01*
X147411802Y-112389636D01*
X147432665Y-112456318D01*
X147423963Y-112504183D01*
X147339122Y-112718284D01*
X147323172Y-112765101D01*
X147322648Y-112768913D01*
X147316847Y-112792970D01*
X147296631Y-112850745D01*
X147296631Y-112850746D01*
X147276435Y-113029996D01*
X147276435Y-113030003D01*
X147296630Y-113209249D01*
X147296631Y-113209254D01*
X147356211Y-113379523D01*
X147444361Y-113519812D01*
X147452184Y-113532262D01*
X147579738Y-113659816D01*
X147732478Y-113755789D01*
X147902745Y-113815368D01*
X147902750Y-113815369D01*
X148081996Y-113835565D01*
X148082000Y-113835565D01*
X148082004Y-113835565D01*
X148261249Y-113815369D01*
X148261252Y-113815368D01*
X148261255Y-113815368D01*
X148431522Y-113755789D01*
X148584262Y-113659816D01*
X148711816Y-113532262D01*
X148807789Y-113379522D01*
X148867368Y-113209255D01*
X148873556Y-113154335D01*
X148887565Y-113030003D01*
X148887565Y-113029996D01*
X148867369Y-112850750D01*
X148867368Y-112850746D01*
X148867368Y-112850745D01*
X148843172Y-112781599D01*
X148838295Y-112763262D01*
X148834519Y-112742895D01*
X148756501Y-112512231D01*
X148753669Y-112442420D01*
X148770845Y-112403639D01*
X148950243Y-112135015D01*
X148950262Y-112134980D01*
X148950281Y-112134953D01*
X148951243Y-112133413D01*
X148951292Y-112133443D01*
X148951301Y-112133431D01*
X148951302Y-112133431D01*
X148959048Y-112121882D01*
X148965802Y-112113082D01*
X148969448Y-112104276D01*
X148976865Y-112089314D01*
X148981433Y-112081473D01*
X148981441Y-112081456D01*
X148982719Y-112078917D01*
X149003188Y-112023091D01*
X149005010Y-112018420D01*
X149026098Y-111967514D01*
X149041500Y-111850524D01*
X149041500Y-111252576D01*
X149052055Y-111202513D01*
X149346895Y-110534390D01*
X149372653Y-110496780D01*
X150392824Y-109476609D01*
X150454145Y-109443126D01*
X150523837Y-109448110D01*
X150531446Y-109451240D01*
X150533464Y-109452150D01*
X150533508Y-109452169D01*
X150533518Y-109452174D01*
X150539322Y-109454746D01*
X150539369Y-109454766D01*
X150539420Y-109454789D01*
X150539737Y-109454927D01*
X150598496Y-109476289D01*
X150601533Y-109476729D01*
X150624700Y-109482405D01*
X150687727Y-109504460D01*
X150687731Y-109504460D01*
X150687733Y-109504461D01*
X150687730Y-109504461D01*
X150866978Y-109524657D01*
X150866982Y-109524657D01*
X150866986Y-109524657D01*
X151046231Y-109504461D01*
X151046234Y-109504460D01*
X151046237Y-109504460D01*
X151216504Y-109444881D01*
X151369244Y-109348908D01*
X151496798Y-109221354D01*
X151545187Y-109144342D01*
X151597521Y-109098051D01*
X151666575Y-109087402D01*
X151730423Y-109115777D01*
X151737862Y-109122633D01*
X151903181Y-109287952D01*
X151936666Y-109349275D01*
X151939500Y-109375633D01*
X151939500Y-109533607D01*
X151919815Y-109600646D01*
X151917978Y-109603423D01*
X151513642Y-110196920D01*
X151498858Y-110214772D01*
X151497295Y-110216335D01*
X151497290Y-110216341D01*
X151405187Y-110365662D01*
X151405186Y-110365665D01*
X151350001Y-110532202D01*
X151350001Y-110532203D01*
X151350000Y-110532203D01*
X151339500Y-110634982D01*
X151339500Y-112885017D01*
X151350000Y-112987796D01*
X151405185Y-113154332D01*
X151405187Y-113154337D01*
X151497289Y-113303657D01*
X151498847Y-113305215D01*
X151513644Y-113323080D01*
X151604149Y-113455926D01*
X151809993Y-113758071D01*
X151831470Y-113824557D01*
X151813593Y-113892101D01*
X151795196Y-113915567D01*
X150701014Y-115009749D01*
X150639691Y-115043234D01*
X150602467Y-115045591D01*
X150223441Y-115012248D01*
X150180223Y-115014353D01*
X150174193Y-115014500D01*
X149219982Y-115014500D01*
X149117203Y-115025000D01*
X149117202Y-115025001D01*
X149055066Y-115045591D01*
X148950667Y-115080185D01*
X148950662Y-115080187D01*
X148801342Y-115172289D01*
X148677289Y-115296342D01*
X148585187Y-115445662D01*
X148585185Y-115445667D01*
X148569931Y-115491701D01*
X148530001Y-115612202D01*
X148530001Y-115612203D01*
X148530000Y-115612203D01*
X148519500Y-115714982D01*
X148519500Y-117965017D01*
X148530000Y-118067796D01*
X148566583Y-118178195D01*
X148585186Y-118234335D01*
X148677288Y-118383656D01*
X148801344Y-118507712D01*
X148950665Y-118599814D01*
X149117202Y-118654999D01*
X149219990Y-118665500D01*
X149219995Y-118665500D01*
X150220005Y-118665500D01*
X150220010Y-118665500D01*
X150322798Y-118654999D01*
X150489335Y-118599814D01*
X150638656Y-118507712D01*
X150762712Y-118383656D01*
X150854814Y-118234335D01*
X150909999Y-118067798D01*
X150920500Y-117965010D01*
X150920500Y-117263675D01*
X150929369Y-117217623D01*
X151080418Y-116840000D01*
X151411754Y-116011656D01*
X151439201Y-115970032D01*
X152931043Y-114478190D01*
X152943223Y-114467509D01*
X152968282Y-114448282D01*
X153064536Y-114322841D01*
X153125044Y-114176762D01*
X153140500Y-114059361D01*
X153145682Y-114020000D01*
X153143092Y-114000328D01*
X153153857Y-113931296D01*
X153163549Y-113914333D01*
X153566357Y-113323075D01*
X153581155Y-113305211D01*
X153582712Y-113303656D01*
X153674814Y-113154335D01*
X153729999Y-112987798D01*
X153740500Y-112885010D01*
X153740500Y-110634990D01*
X153729999Y-110532202D01*
X153674814Y-110365665D01*
X153582712Y-110216344D01*
X153581154Y-110214786D01*
X153566357Y-110196921D01*
X153162022Y-109603422D01*
X153140545Y-109536935D01*
X153140500Y-109533606D01*
X153140500Y-109123023D01*
X153141561Y-109106837D01*
X153145682Y-109075536D01*
X153145682Y-109075534D01*
X153129602Y-108953395D01*
X153125044Y-108918774D01*
X153064536Y-108772695D01*
X152968282Y-108647254D01*
X152968280Y-108647252D01*
X152968279Y-108647251D01*
X152943228Y-108628029D01*
X152931034Y-108617335D01*
X150573883Y-106260184D01*
X150540398Y-106198861D01*
X150545382Y-106129169D01*
X150587254Y-106073236D01*
X150652718Y-106048819D01*
X150661564Y-106048503D01*
X151928975Y-106048503D01*
X151971506Y-106056025D01*
X152198783Y-106139013D01*
X152355312Y-106196168D01*
X152395824Y-106209057D01*
X152397230Y-106209231D01*
X152422956Y-106215249D01*
X152474745Y-106233371D01*
X152474749Y-106233371D01*
X152474751Y-106233372D01*
X152553694Y-106242266D01*
X152588883Y-106246231D01*
X152653297Y-106273297D01*
X152692852Y-106330891D01*
X152699000Y-106369450D01*
X152699000Y-106580970D01*
X152699001Y-106580987D01*
X152709494Y-106683697D01*
X152764641Y-106850119D01*
X152764643Y-106850124D01*
X152856684Y-106999345D01*
X152980654Y-107123315D01*
X153129875Y-107215356D01*
X153129880Y-107215358D01*
X153296302Y-107270505D01*
X153296309Y-107270506D01*
X153399019Y-107280999D01*
X153673999Y-107280999D01*
X153674000Y-107280998D01*
X153674000Y-106443500D01*
X154174000Y-106443500D01*
X154174000Y-107280999D01*
X154448972Y-107280999D01*
X154448986Y-107280998D01*
X154551697Y-107270505D01*
X154718119Y-107215358D01*
X154718124Y-107215356D01*
X154867345Y-107123315D01*
X154991315Y-106999345D01*
X155083356Y-106850124D01*
X155083358Y-106850119D01*
X155138505Y-106683697D01*
X155138506Y-106683690D01*
X155148999Y-106580986D01*
X155149000Y-106580973D01*
X155149000Y-106443500D01*
X156255001Y-106443500D01*
X156255001Y-106580986D01*
X156265494Y-106683697D01*
X156320641Y-106850119D01*
X156320643Y-106850124D01*
X156412684Y-106999345D01*
X156536654Y-107123315D01*
X156685875Y-107215356D01*
X156685880Y-107215358D01*
X156852302Y-107270505D01*
X156852309Y-107270506D01*
X156955019Y-107280999D01*
X157229999Y-107280999D01*
X157230000Y-107280998D01*
X157230000Y-106443500D01*
X157730000Y-106443500D01*
X157730000Y-107280999D01*
X158004972Y-107280999D01*
X158004986Y-107280998D01*
X158107697Y-107270505D01*
X158274119Y-107215358D01*
X158274124Y-107215356D01*
X158423345Y-107123315D01*
X158547315Y-106999345D01*
X158639356Y-106850124D01*
X158639358Y-106850119D01*
X158694505Y-106683697D01*
X158694506Y-106683690D01*
X158704999Y-106580986D01*
X158705000Y-106580973D01*
X158705000Y-106443500D01*
X157730000Y-106443500D01*
X157230000Y-106443500D01*
X156255001Y-106443500D01*
X155149000Y-106443500D01*
X154174000Y-106443500D01*
X153674000Y-106443500D01*
X153674000Y-106067500D01*
X153693685Y-106000461D01*
X153746489Y-105954706D01*
X153798000Y-105943500D01*
X155148999Y-105943500D01*
X155148999Y-105806028D01*
X155148998Y-105806013D01*
X155138505Y-105703302D01*
X155083358Y-105536880D01*
X155083356Y-105536875D01*
X154991315Y-105387654D01*
X154862237Y-105258576D01*
X154863773Y-105257039D01*
X154829546Y-105208690D01*
X154826415Y-105138891D01*
X154861518Y-105078479D01*
X154893313Y-105056606D01*
X155169068Y-104924657D01*
X155336280Y-104844646D01*
X155389802Y-104832500D01*
X156014197Y-104832500D01*
X156067720Y-104844646D01*
X156510683Y-105056606D01*
X156562659Y-105103299D01*
X156581140Y-105170680D01*
X156560258Y-105237356D01*
X156541197Y-105258010D01*
X156541763Y-105258576D01*
X156412684Y-105387654D01*
X156320643Y-105536875D01*
X156320641Y-105536880D01*
X156265494Y-105703302D01*
X156265493Y-105703309D01*
X156255000Y-105806013D01*
X156255000Y-105943500D01*
X158704999Y-105943500D01*
X158704999Y-105806028D01*
X158704998Y-105806013D01*
X158694505Y-105703302D01*
X158639358Y-105536880D01*
X158639356Y-105536875D01*
X158547315Y-105387654D01*
X158423344Y-105263683D01*
X158423341Y-105263681D01*
X158420339Y-105261829D01*
X158418713Y-105260021D01*
X158417677Y-105259202D01*
X158417817Y-105259024D01*
X158373617Y-105209880D01*
X158362397Y-105140917D01*
X158390243Y-105076836D01*
X158420344Y-105050754D01*
X158423656Y-105048712D01*
X158547712Y-104924656D01*
X158639814Y-104775334D01*
X158694999Y-104608797D01*
X158705500Y-104506009D01*
X158705499Y-103730992D01*
X158694999Y-103628203D01*
X158639814Y-103461666D01*
X158547712Y-103312344D01*
X158423656Y-103188288D01*
X158274334Y-103096186D01*
X158107797Y-103041001D01*
X158107794Y-103041000D01*
X158042316Y-103034311D01*
X157977624Y-103007914D01*
X157937473Y-102950734D01*
X157934610Y-102880923D01*
X157955652Y-102836642D01*
X158003796Y-102772331D01*
X158054091Y-102637483D01*
X158060500Y-102577873D01*
X158060499Y-99882128D01*
X158054091Y-99822517D01*
X158003796Y-99687669D01*
X158003795Y-99687668D01*
X158003793Y-99687664D01*
X157917547Y-99572455D01*
X157917544Y-99572452D01*
X157802335Y-99486206D01*
X157802328Y-99486202D01*
X157667482Y-99435908D01*
X157667483Y-99435908D01*
X157607883Y-99429501D01*
X157607881Y-99429500D01*
X157607873Y-99429500D01*
X157607864Y-99429500D01*
X156512129Y-99429500D01*
X156512123Y-99429501D01*
X156452516Y-99435908D01*
X156317671Y-99486202D01*
X156317665Y-99486206D01*
X156247834Y-99538481D01*
X156182370Y-99562898D01*
X156114097Y-99548046D01*
X156076696Y-99516676D01*
X156073814Y-99513074D01*
X155887672Y-99280395D01*
X155861164Y-99215749D01*
X155860500Y-99202933D01*
X155860500Y-96500096D01*
X155880185Y-96433057D01*
X155896814Y-96412420D01*
X159998821Y-92310412D01*
X160060142Y-92276929D01*
X160129834Y-92281913D01*
X160185767Y-92323785D01*
X160210184Y-92389249D01*
X160210028Y-92408901D01*
X160205908Y-92455996D01*
X160205908Y-92456000D01*
X160226236Y-92688352D01*
X160226238Y-92688362D01*
X160286602Y-92913646D01*
X160286607Y-92913660D01*
X160385176Y-93125042D01*
X160385178Y-93125046D01*
X160518962Y-93316109D01*
X160683891Y-93481038D01*
X160874954Y-93614822D01*
X160874959Y-93614824D01*
X160879640Y-93617527D01*
X160878688Y-93619175D01*
X160924818Y-93659801D01*
X160943963Y-93726997D01*
X160923740Y-93793876D01*
X160878722Y-93832884D01*
X160879640Y-93834473D01*
X160874955Y-93837177D01*
X160874954Y-93837178D01*
X160683891Y-93970962D01*
X160683889Y-93970963D01*
X160683886Y-93970966D01*
X160518966Y-94135886D01*
X160518963Y-94135889D01*
X160518962Y-94135891D01*
X160435887Y-94254534D01*
X160385177Y-94326955D01*
X160385176Y-94326957D01*
X160286607Y-94538339D01*
X160286602Y-94538353D01*
X160226238Y-94763637D01*
X160226236Y-94763647D01*
X160205908Y-94995999D01*
X160205908Y-94996000D01*
X160226236Y-95228352D01*
X160226238Y-95228362D01*
X160286602Y-95453646D01*
X160286607Y-95453660D01*
X160352555Y-95595085D01*
X160385178Y-95665046D01*
X160518962Y-95856109D01*
X160683891Y-96021038D01*
X160874954Y-96154822D01*
X160874959Y-96154824D01*
X160879640Y-96157527D01*
X160878781Y-96159013D01*
X160925408Y-96200073D01*
X160944555Y-96267268D01*
X160924335Y-96334148D01*
X160879022Y-96373412D01*
X160879887Y-96374910D01*
X160875204Y-96377613D01*
X160795190Y-96433637D01*
X161368631Y-97007078D01*
X161252920Y-97057339D01*
X161134573Y-97153621D01*
X161046591Y-97278263D01*
X161016729Y-97362282D01*
X160441637Y-96787190D01*
X160385614Y-96867202D01*
X160287078Y-97078515D01*
X160287075Y-97078521D01*
X160226731Y-97303727D01*
X160226730Y-97303735D01*
X160206410Y-97535998D01*
X160206410Y-97536001D01*
X160226730Y-97768264D01*
X160226731Y-97768272D01*
X160287075Y-97993478D01*
X160287078Y-97993484D01*
X160385612Y-98204793D01*
X160385613Y-98204795D01*
X160441638Y-98284807D01*
X160441639Y-98284808D01*
X161013842Y-97712604D01*
X161016128Y-97723606D01*
X161086319Y-97859067D01*
X161190453Y-97970567D01*
X161320809Y-98049838D01*
X161369946Y-98063605D01*
X160795190Y-98638360D01*
X160875212Y-98694390D01*
X160879896Y-98697095D01*
X160878993Y-98698657D01*
X160925389Y-98739490D01*
X160944555Y-98806680D01*
X160924354Y-98873565D01*
X160878816Y-98913046D01*
X160879640Y-98914473D01*
X160874955Y-98917177D01*
X160805313Y-98965941D01*
X160683891Y-99050962D01*
X160683889Y-99050963D01*
X160683886Y-99050966D01*
X160518966Y-99215886D01*
X160518963Y-99215889D01*
X160518962Y-99215891D01*
X160473796Y-99280395D01*
X160385177Y-99406955D01*
X160385176Y-99406957D01*
X160286607Y-99618339D01*
X160286602Y-99618353D01*
X160226238Y-99843637D01*
X160226236Y-99843647D01*
X160205908Y-100075999D01*
X160205908Y-100076000D01*
X160226236Y-100308352D01*
X160226238Y-100308362D01*
X160286602Y-100533646D01*
X160286607Y-100533660D01*
X160319079Y-100603296D01*
X160385178Y-100745046D01*
X160518962Y-100936109D01*
X160683891Y-101101038D01*
X160874954Y-101234822D01*
X160874959Y-101234824D01*
X160879640Y-101237527D01*
X160878688Y-101239175D01*
X160924818Y-101279801D01*
X160943963Y-101346997D01*
X160923740Y-101413876D01*
X160878722Y-101452884D01*
X160879640Y-101454473D01*
X160874955Y-101457177D01*
X160856285Y-101470250D01*
X160683891Y-101590962D01*
X160683889Y-101590963D01*
X160683886Y-101590966D01*
X160518966Y-101755886D01*
X160518963Y-101755889D01*
X160518962Y-101755891D01*
X160495491Y-101789411D01*
X160385177Y-101946955D01*
X160385176Y-101946957D01*
X160286607Y-102158339D01*
X160286602Y-102158353D01*
X160226238Y-102383637D01*
X160226236Y-102383647D01*
X160205908Y-102615999D01*
X160205908Y-102616000D01*
X160226236Y-102848352D01*
X160226238Y-102848362D01*
X160286602Y-103073646D01*
X160286607Y-103073660D01*
X160385120Y-103284922D01*
X160385178Y-103285046D01*
X160518962Y-103476109D01*
X160683891Y-103641038D01*
X160874954Y-103774822D01*
X160874959Y-103774824D01*
X160879640Y-103777527D01*
X160878688Y-103779175D01*
X160924818Y-103819801D01*
X160943963Y-103886997D01*
X160923740Y-103953876D01*
X160878722Y-103992884D01*
X160879640Y-103994473D01*
X160874955Y-103997177D01*
X160844954Y-104018184D01*
X160683891Y-104130962D01*
X160683889Y-104130963D01*
X160683886Y-104130966D01*
X160518966Y-104295886D01*
X160518963Y-104295889D01*
X160518962Y-104295891D01*
X160435391Y-104415241D01*
X160385177Y-104486955D01*
X160385176Y-104486957D01*
X160286607Y-104698339D01*
X160286602Y-104698353D01*
X160226238Y-104923637D01*
X160226236Y-104923647D01*
X160205908Y-105155999D01*
X160205908Y-105156000D01*
X160226236Y-105388352D01*
X160226238Y-105388362D01*
X160286602Y-105613646D01*
X160286607Y-105613660D01*
X160335106Y-105717666D01*
X160385178Y-105825046D01*
X160518962Y-106016109D01*
X160683891Y-106181038D01*
X160874954Y-106314822D01*
X160874959Y-106314824D01*
X160879640Y-106317527D01*
X160878781Y-106319013D01*
X160925408Y-106360073D01*
X160944555Y-106427268D01*
X160924335Y-106494148D01*
X160879022Y-106533412D01*
X160879887Y-106534910D01*
X160875204Y-106537613D01*
X160795190Y-106593637D01*
X161368631Y-107167078D01*
X161252920Y-107217339D01*
X161134573Y-107313621D01*
X161046591Y-107438263D01*
X161016729Y-107522282D01*
X160441637Y-106947190D01*
X160385614Y-107027202D01*
X160287078Y-107238515D01*
X160287075Y-107238521D01*
X160226731Y-107463727D01*
X160226730Y-107463735D01*
X160206410Y-107695998D01*
X160206410Y-107696001D01*
X160226730Y-107928264D01*
X160226731Y-107928272D01*
X160287075Y-108153478D01*
X160287078Y-108153484D01*
X160385612Y-108364793D01*
X160385613Y-108364795D01*
X160441638Y-108444807D01*
X160441639Y-108444808D01*
X161013842Y-107872604D01*
X161016128Y-107883606D01*
X161086319Y-108019067D01*
X161190453Y-108130567D01*
X161320809Y-108209838D01*
X161369946Y-108223605D01*
X160795190Y-108798360D01*
X160875209Y-108854388D01*
X161086515Y-108952921D01*
X161086521Y-108952924D01*
X161311727Y-109013268D01*
X161311735Y-109013269D01*
X161543998Y-109033590D01*
X161544002Y-109033590D01*
X161776264Y-109013269D01*
X161776272Y-109013268D01*
X162001478Y-108952924D01*
X162001484Y-108952921D01*
X162212794Y-108854386D01*
X162292808Y-108798360D01*
X161719369Y-108224921D01*
X161835080Y-108174661D01*
X161953427Y-108078379D01*
X162041409Y-107953737D01*
X162071269Y-107869717D01*
X162646360Y-108444808D01*
X162702386Y-108364794D01*
X162800921Y-108153484D01*
X162800924Y-108153478D01*
X162861268Y-107928272D01*
X162861269Y-107928264D01*
X162881590Y-107696001D01*
X162881590Y-107695998D01*
X162861269Y-107463735D01*
X162861268Y-107463727D01*
X162800924Y-107238521D01*
X162800921Y-107238515D01*
X162702388Y-107027209D01*
X162646359Y-106947190D01*
X162074157Y-107519393D01*
X162071872Y-107508394D01*
X162001681Y-107372933D01*
X161897547Y-107261433D01*
X161767191Y-107182162D01*
X161718053Y-107168394D01*
X162292808Y-106593639D01*
X162292807Y-106593638D01*
X162212795Y-106537613D01*
X162208104Y-106534905D01*
X162209004Y-106533346D01*
X162162600Y-106492491D01*
X162143444Y-106425299D01*
X162163656Y-106358417D01*
X162209188Y-106318962D01*
X162208360Y-106317527D01*
X162213035Y-106314826D01*
X162213046Y-106314822D01*
X162404109Y-106181038D01*
X162569038Y-106016109D01*
X162702822Y-105825046D01*
X162801395Y-105613654D01*
X162861763Y-105388357D01*
X162882092Y-105156000D01*
X162861763Y-104923643D01*
X162801395Y-104698346D01*
X162800622Y-104696689D01*
X162734351Y-104554568D01*
X162702822Y-104486954D01*
X162569038Y-104295891D01*
X162404109Y-104130962D01*
X162213046Y-103997178D01*
X162213044Y-103997177D01*
X162208360Y-103994473D01*
X162209313Y-103992820D01*
X162163192Y-103952216D01*
X162144036Y-103885024D01*
X162164248Y-103818141D01*
X162209280Y-103779120D01*
X162208360Y-103777527D01*
X162213035Y-103774826D01*
X162213046Y-103774822D01*
X162404109Y-103641038D01*
X162569038Y-103476109D01*
X162702822Y-103285046D01*
X162801395Y-103073654D01*
X162861763Y-102848357D01*
X162882092Y-102616000D01*
X162861763Y-102383643D01*
X162801395Y-102158346D01*
X162702822Y-101946954D01*
X162569038Y-101755891D01*
X162404109Y-101590962D01*
X162213046Y-101457178D01*
X162213044Y-101457177D01*
X162208360Y-101454473D01*
X162209313Y-101452820D01*
X162163192Y-101412216D01*
X162144036Y-101345024D01*
X162164248Y-101278141D01*
X162209280Y-101239120D01*
X162208360Y-101237527D01*
X162213035Y-101234826D01*
X162213046Y-101234822D01*
X162404109Y-101101038D01*
X162569038Y-100936109D01*
X162702822Y-100745046D01*
X162801395Y-100533654D01*
X162861763Y-100308357D01*
X162882092Y-100076000D01*
X162861763Y-99843643D01*
X162801395Y-99618346D01*
X162779994Y-99572452D01*
X162739982Y-99486645D01*
X162702822Y-99406954D01*
X162569038Y-99215891D01*
X162404109Y-99050962D01*
X162213046Y-98917178D01*
X162213044Y-98917177D01*
X162208360Y-98914473D01*
X162209216Y-98912989D01*
X162162581Y-98871910D01*
X162143444Y-98804712D01*
X162163675Y-98737835D01*
X162208980Y-98698600D01*
X162208109Y-98697092D01*
X162212793Y-98694387D01*
X162292808Y-98638360D01*
X161719369Y-98064921D01*
X161835080Y-98014661D01*
X161953427Y-97918379D01*
X162041409Y-97793737D01*
X162071269Y-97709717D01*
X162646360Y-98284808D01*
X162702386Y-98204794D01*
X162800921Y-97993484D01*
X162800924Y-97993478D01*
X162861268Y-97768272D01*
X162861269Y-97768264D01*
X162881590Y-97536001D01*
X162881590Y-97535998D01*
X162861269Y-97303735D01*
X162861268Y-97303727D01*
X162800924Y-97078521D01*
X162800921Y-97078515D01*
X162702388Y-96867209D01*
X162646359Y-96787190D01*
X162074157Y-97359393D01*
X162071872Y-97348394D01*
X162001681Y-97212933D01*
X161897547Y-97101433D01*
X161767191Y-97022162D01*
X161718053Y-97008394D01*
X162292808Y-96433639D01*
X162292807Y-96433638D01*
X162212795Y-96377613D01*
X162208104Y-96374905D01*
X162209004Y-96373346D01*
X162162600Y-96332491D01*
X162143444Y-96265299D01*
X162163656Y-96198417D01*
X162209188Y-96158962D01*
X162208360Y-96157527D01*
X162213035Y-96154826D01*
X162213046Y-96154822D01*
X162404109Y-96021038D01*
X162569038Y-95856109D01*
X162702822Y-95665046D01*
X162801395Y-95453654D01*
X162861763Y-95228357D01*
X162882092Y-94996000D01*
X162861763Y-94763643D01*
X162801395Y-94538346D01*
X162702822Y-94326954D01*
X162569038Y-94135891D01*
X162404109Y-93970962D01*
X162213046Y-93837178D01*
X162213044Y-93837177D01*
X162208360Y-93834473D01*
X162209313Y-93832820D01*
X162163192Y-93792216D01*
X162144036Y-93725024D01*
X162164248Y-93658141D01*
X162209280Y-93619120D01*
X162208360Y-93617527D01*
X162213035Y-93614826D01*
X162213046Y-93614822D01*
X162404109Y-93481038D01*
X162569038Y-93316109D01*
X162702822Y-93125046D01*
X162801395Y-92913654D01*
X162861763Y-92688357D01*
X162882092Y-92456000D01*
X162861763Y-92223643D01*
X162801395Y-91998346D01*
X162791599Y-91977339D01*
X162742871Y-91872841D01*
X162702822Y-91786954D01*
X162569038Y-91595891D01*
X162424233Y-91451086D01*
X162390748Y-91389763D01*
X162395732Y-91320071D01*
X162437604Y-91264138D01*
X162476890Y-91245773D01*
X162476715Y-91245302D01*
X162482578Y-91243115D01*
X162483413Y-91242725D01*
X162483970Y-91242592D01*
X162483983Y-91242591D01*
X162618831Y-91192296D01*
X162734046Y-91106046D01*
X162820296Y-90990831D01*
X162870591Y-90855983D01*
X162877000Y-90796373D01*
X162876999Y-89035628D01*
X162870591Y-88976017D01*
X162869078Y-88971961D01*
X162820297Y-88841171D01*
X162820293Y-88841164D01*
X162734047Y-88725955D01*
X162734044Y-88725952D01*
X162618835Y-88639706D01*
X162618828Y-88639702D01*
X162483982Y-88589408D01*
X162483983Y-88589408D01*
X162424383Y-88583001D01*
X162424381Y-88583000D01*
X162424373Y-88583000D01*
X162424364Y-88583000D01*
X160663629Y-88583000D01*
X160663623Y-88583001D01*
X160604016Y-88589408D01*
X160469171Y-88639702D01*
X160469164Y-88639706D01*
X160353955Y-88725952D01*
X160353952Y-88725955D01*
X160267706Y-88841164D01*
X160267702Y-88841171D01*
X160217408Y-88976017D01*
X160211001Y-89035616D01*
X160211001Y-89035623D01*
X160211000Y-89035635D01*
X160211000Y-89440201D01*
X160202566Y-89485150D01*
X159624477Y-90971439D01*
X159596592Y-91014171D01*
X154868965Y-95741798D01*
X154856774Y-95752490D01*
X154831718Y-95771717D01*
X154807549Y-95803213D01*
X154807550Y-95803214D01*
X154735464Y-95897158D01*
X154735461Y-95897163D01*
X154674957Y-96043234D01*
X154674955Y-96043239D01*
X154654318Y-96199998D01*
X154654318Y-96199999D01*
X154658439Y-96231301D01*
X154659500Y-96247487D01*
X154659500Y-99202932D01*
X154639815Y-99269971D01*
X154632328Y-99280394D01*
X154443303Y-99516676D01*
X154386053Y-99556728D01*
X154316237Y-99559471D01*
X154272164Y-99538481D01*
X154270048Y-99536897D01*
X154202331Y-99486204D01*
X154202329Y-99486203D01*
X154202328Y-99486202D01*
X154067482Y-99435908D01*
X154067483Y-99435908D01*
X154007883Y-99429501D01*
X154007881Y-99429500D01*
X154007873Y-99429500D01*
X154007864Y-99429500D01*
X152912129Y-99429500D01*
X152912123Y-99429501D01*
X152852516Y-99435908D01*
X152717671Y-99486202D01*
X152717669Y-99486203D01*
X152634311Y-99548606D01*
X152568847Y-99573023D01*
X152500574Y-99558172D01*
X152485689Y-99548606D01*
X152480380Y-99544632D01*
X152402331Y-99486204D01*
X152402330Y-99486203D01*
X152402328Y-99486202D01*
X152267482Y-99435908D01*
X152267483Y-99435908D01*
X152207883Y-99429501D01*
X152207881Y-99429500D01*
X152207873Y-99429500D01*
X152207864Y-99429500D01*
X151112129Y-99429500D01*
X151112123Y-99429501D01*
X151052516Y-99435908D01*
X150917671Y-99486202D01*
X150917669Y-99486203D01*
X150834311Y-99548606D01*
X150768847Y-99573023D01*
X150700574Y-99558172D01*
X150685689Y-99548606D01*
X150680380Y-99544632D01*
X150602331Y-99486204D01*
X150602330Y-99486203D01*
X150602328Y-99486202D01*
X150467482Y-99435908D01*
X150467483Y-99435908D01*
X150407883Y-99429501D01*
X150407881Y-99429500D01*
X150407873Y-99429500D01*
X150407864Y-99429500D01*
X149312129Y-99429500D01*
X149312123Y-99429501D01*
X149252516Y-99435908D01*
X149117671Y-99486202D01*
X149117669Y-99486203D01*
X149034311Y-99548606D01*
X148968847Y-99573023D01*
X148900574Y-99558172D01*
X148885689Y-99548606D01*
X148880380Y-99544632D01*
X148802331Y-99486204D01*
X148802330Y-99486203D01*
X148802328Y-99486202D01*
X148667482Y-99435908D01*
X148667483Y-99435908D01*
X148607883Y-99429501D01*
X148607881Y-99429500D01*
X148607873Y-99429500D01*
X148607865Y-99429500D01*
X148189763Y-99429500D01*
X148122724Y-99409815D01*
X148076969Y-99357011D01*
X148071404Y-99340575D01*
X148071381Y-99340584D01*
X148009502Y-99163744D01*
X147948915Y-99067321D01*
X147913529Y-99011004D01*
X147785975Y-98883450D01*
X147721749Y-98843094D01*
X147633236Y-98787477D01*
X147462967Y-98727897D01*
X147462962Y-98727896D01*
X147283717Y-98707701D01*
X147283709Y-98707701D01*
X147104463Y-98727896D01*
X147104458Y-98727897D01*
X146934189Y-98787477D01*
X146781450Y-98883450D01*
X146653895Y-99011005D01*
X146618510Y-99067321D01*
X146566175Y-99113611D01*
X146497122Y-99124259D01*
X146433274Y-99095884D01*
X146432433Y-99095163D01*
X146405217Y-99071608D01*
X146405214Y-99071606D01*
X146403624Y-99070230D01*
X146389648Y-99058413D01*
X140891287Y-93560052D01*
X140866532Y-93524659D01*
X140694246Y-93154190D01*
X140694243Y-93154185D01*
X140694236Y-93154169D01*
X140687874Y-93141873D01*
X140680970Y-93125855D01*
X140679789Y-93122478D01*
X140583816Y-92969738D01*
X140456262Y-92842184D01*
X140450206Y-92838379D01*
X140303523Y-92746211D01*
X140133254Y-92686631D01*
X140133249Y-92686630D01*
X140122885Y-92685463D01*
X140058471Y-92658397D01*
X140018916Y-92600802D01*
X140013240Y-92551435D01*
X140021590Y-92456000D01*
X140021590Y-92455998D01*
X140001269Y-92223735D01*
X140001268Y-92223727D01*
X139940924Y-91998521D01*
X139940921Y-91998515D01*
X139842387Y-91787206D01*
X139842386Y-91787204D01*
X139786360Y-91707191D01*
X139786360Y-91707190D01*
X139214157Y-92279392D01*
X139211872Y-92268394D01*
X139141681Y-92132933D01*
X139037547Y-92021433D01*
X138907191Y-91942162D01*
X138858053Y-91928394D01*
X139443699Y-91342747D01*
X139449215Y-91315306D01*
X139497831Y-91265123D01*
X139558975Y-91248999D01*
X139564372Y-91248999D01*
X139623983Y-91242591D01*
X139758831Y-91192296D01*
X139874046Y-91106046D01*
X139960296Y-90990831D01*
X140010591Y-90855983D01*
X140017000Y-90796373D01*
X140016999Y-89035628D01*
X140010591Y-88976017D01*
X140009078Y-88971961D01*
X139960297Y-88841171D01*
X139960293Y-88841164D01*
X139874047Y-88725955D01*
X139874044Y-88725952D01*
X139758835Y-88639706D01*
X139758828Y-88639702D01*
X139623982Y-88589408D01*
X139623983Y-88589408D01*
X139564383Y-88583001D01*
X139564381Y-88583000D01*
X139564373Y-88583000D01*
X139564364Y-88583000D01*
X137803629Y-88583000D01*
X137803623Y-88583001D01*
X137744016Y-88589408D01*
X137609171Y-88639702D01*
X137609164Y-88639706D01*
X137493955Y-88725952D01*
X137493952Y-88725955D01*
X137407706Y-88841164D01*
X137407702Y-88841171D01*
X137357408Y-88976017D01*
X137351001Y-89035616D01*
X137351001Y-89035623D01*
X137351000Y-89035635D01*
X137351000Y-90796370D01*
X137351001Y-90796376D01*
X137357408Y-90855983D01*
X137407702Y-90990828D01*
X137407706Y-90990835D01*
X137493952Y-91106044D01*
X137493955Y-91106047D01*
X137609164Y-91192293D01*
X137609171Y-91192297D01*
X137654118Y-91209061D01*
X137744017Y-91242591D01*
X137803627Y-91249000D01*
X137809012Y-91248999D01*
X137876050Y-91268676D01*
X137921811Y-91321475D01*
X137925721Y-91344168D01*
X138508631Y-91927078D01*
X138392920Y-91977339D01*
X138274573Y-92073621D01*
X138186591Y-92198263D01*
X138156729Y-92282282D01*
X137581637Y-91707190D01*
X137525614Y-91787202D01*
X137427078Y-91998515D01*
X137427075Y-91998521D01*
X137366731Y-92223727D01*
X137366730Y-92223734D01*
X137359853Y-92302337D01*
X137334400Y-92367405D01*
X137277808Y-92408383D01*
X137208046Y-92412260D01*
X137148644Y-92379209D01*
X136434319Y-91664884D01*
X136400834Y-91603561D01*
X136398000Y-91577203D01*
X136398000Y-89399417D01*
X136417685Y-89332378D01*
X136454961Y-89295102D01*
X136475128Y-89282143D01*
X136493015Y-89261499D01*
X136505499Y-89249015D01*
X136526143Y-89231128D01*
X136540910Y-89208148D01*
X136551497Y-89194006D01*
X136569377Y-89173373D01*
X136580717Y-89148540D01*
X136589192Y-89133020D01*
X136603953Y-89110053D01*
X136611642Y-89083862D01*
X136617824Y-89067287D01*
X136629165Y-89042457D01*
X136633050Y-89015436D01*
X136636809Y-88998153D01*
X136644500Y-88971961D01*
X136644500Y-88828039D01*
X136644500Y-85460500D01*
X136664185Y-85393461D01*
X136716989Y-85347706D01*
X136768500Y-85336500D01*
X141535500Y-85336500D01*
X141602539Y-85356185D01*
G37*
%TD.AperFunction*%
%TA.AperFunction,Conductor*%
G36*
X142824952Y-99189647D02*
G01*
X142857179Y-99251640D01*
X142859500Y-99275521D01*
X142859500Y-101356000D01*
X142839815Y-101423039D01*
X142787011Y-101468794D01*
X142735500Y-101480000D01*
X142534000Y-101480000D01*
X142466961Y-101460315D01*
X142421206Y-101407511D01*
X142410000Y-101356000D01*
X142410000Y-99430000D01*
X142408478Y-99428478D01*
X142374993Y-99367155D01*
X142379977Y-99297463D01*
X142421849Y-99241530D01*
X142482276Y-99217577D01*
X142546249Y-99210369D01*
X142546252Y-99210368D01*
X142546255Y-99210368D01*
X142694545Y-99158478D01*
X142764324Y-99154918D01*
X142824952Y-99189647D01*
G37*
%TD.AperFunction*%
%TA.AperFunction,Conductor*%
G36*
X141874268Y-99060804D02*
G01*
X142017478Y-99150789D01*
X142128528Y-99189647D01*
X142131240Y-99190596D01*
X142188016Y-99231318D01*
X142213763Y-99296271D01*
X142200307Y-99364832D01*
X142151920Y-99415235D01*
X142103542Y-99430927D01*
X142052626Y-99436401D01*
X142052620Y-99436403D01*
X141917913Y-99486645D01*
X141917910Y-99486647D01*
X141882609Y-99513074D01*
X141817145Y-99537491D01*
X141748872Y-99522639D01*
X141699466Y-99473234D01*
X141684298Y-99413807D01*
X141684298Y-99165799D01*
X141703983Y-99098760D01*
X141756787Y-99053005D01*
X141825945Y-99043061D01*
X141874268Y-99060804D01*
G37*
%TD.AperFunction*%
%TA.AperFunction,Conductor*%
G36*
X140031729Y-95595085D02*
G01*
X140051549Y-95611187D01*
X141982510Y-97542148D01*
X142015995Y-97603471D01*
X142011011Y-97673163D01*
X141969139Y-97729096D01*
X141960802Y-97734822D01*
X141864739Y-97795182D01*
X141737184Y-97922737D01*
X141641209Y-98075480D01*
X141622170Y-98129891D01*
X141581449Y-98186667D01*
X141516496Y-98212414D01*
X141447934Y-98198958D01*
X141417448Y-98176617D01*
X140519094Y-97278263D01*
X139592296Y-96351464D01*
X139581600Y-96339267D01*
X139562383Y-96314222D01*
X139562380Y-96314220D01*
X139562379Y-96314218D01*
X139488049Y-96257183D01*
X139446849Y-96200757D01*
X139442694Y-96131011D01*
X139476906Y-96070090D01*
X139492403Y-96057242D01*
X139544109Y-96021038D01*
X139709038Y-95856109D01*
X139842822Y-95665046D01*
X139851485Y-95646465D01*
X139897654Y-95594027D01*
X139964847Y-95574872D01*
X140031729Y-95595085D01*
G37*
%TD.AperFunction*%
%TD*%
%TA.AperFunction,Conductor*%
%TO.N,PWRIN_VCC*%
G36*
X143622172Y-128021209D02*
G01*
X143625722Y-128023641D01*
X143756358Y-128154277D01*
X143759785Y-128162550D01*
X143758994Y-128166780D01*
X143094323Y-129880932D01*
X143088137Y-129887407D01*
X143079184Y-129887611D01*
X143078947Y-129887516D01*
X142243784Y-129542562D01*
X142237446Y-129536236D01*
X141892483Y-128701052D01*
X141892492Y-128692097D01*
X141898830Y-128685771D01*
X141898996Y-128685704D01*
X143613222Y-128021005D01*
X143622172Y-128021209D01*
G37*
%TD.AperFunction*%
%TD*%
%TA.AperFunction,Conductor*%
%TO.N,PWRIN_VCC*%
G36*
X153910435Y-116848614D02*
G01*
X153911372Y-116849667D01*
X154410887Y-117484294D01*
X154413311Y-117492914D01*
X154410645Y-117499063D01*
X153853959Y-118160657D01*
X153846011Y-118164781D01*
X153837474Y-118162076D01*
X153836734Y-118161397D01*
X153705352Y-118030015D01*
X153703587Y-118027753D01*
X153338708Y-117418483D01*
X153337399Y-117409627D01*
X153340456Y-117404219D01*
X153893890Y-116848645D01*
X153902155Y-116845203D01*
X153910435Y-116848614D01*
G37*
%TD.AperFunction*%
%TD*%
%TA.AperFunction,Conductor*%
%TO.N,BATTREAD*%
G36*
X150840024Y-115573943D02*
G01*
X150847272Y-115577325D01*
X150980228Y-115710281D01*
X150983655Y-115718554D01*
X150982818Y-115722899D01*
X150424392Y-117118966D01*
X150418138Y-117125375D01*
X150409184Y-117125484D01*
X150409065Y-117125436D01*
X149729439Y-116844895D01*
X149723099Y-116838571D01*
X149722826Y-116830314D01*
X150099320Y-115722899D01*
X150167045Y-115523691D01*
X150172952Y-115516963D01*
X150179144Y-115515804D01*
X150840024Y-115573943D01*
G37*
%TD.AperFunction*%
%TD*%
%TA.AperFunction,Conductor*%
%TO.N,GND*%
G36*
X157438132Y-118151868D02*
G01*
X157226707Y-118364707D01*
X156926000Y-118364000D01*
X156922723Y-117926644D01*
X157064144Y-117785223D01*
X157438132Y-118151868D01*
G37*
%TD.AperFunction*%
%TD*%
%TA.AperFunction,Conductor*%
%TO.N,GPSFREEZE_1*%
G36*
X135300435Y-115997266D02*
G01*
X136138241Y-116736507D01*
X136142177Y-116744549D01*
X136142200Y-116745279D01*
X136142200Y-116934720D01*
X136138773Y-116942993D01*
X136138241Y-116943493D01*
X135300436Y-117682732D01*
X135291965Y-117685636D01*
X135284428Y-117682237D01*
X134449486Y-116848276D01*
X134446055Y-116840007D01*
X134449476Y-116831733D01*
X135284430Y-115997760D01*
X135292702Y-115994340D01*
X135300435Y-115997266D01*
G37*
%TD.AperFunction*%
%TD*%
%TA.AperFunction,Conductor*%
%TO.N,GND*%
G36*
X161544707Y-107695293D02*
G01*
X161862584Y-108465130D01*
X160437379Y-108944043D01*
X160295957Y-108802621D01*
X160774870Y-107377416D01*
X161544707Y-107695293D01*
G37*
%TD.AperFunction*%
%TD*%
%TA.AperFunction,Conductor*%
%TO.N,GND*%
G36*
X145797000Y-104874200D02*
G01*
X144687445Y-105799217D01*
X143216000Y-104974200D01*
X143216000Y-104774200D01*
X144687445Y-103949183D01*
X145797000Y-104874200D01*
G37*
%TD.AperFunction*%
%TD*%
%TA.AperFunction,Conductor*%
%TO.N,GND*%
G36*
X145796707Y-104873493D02*
G01*
X144687445Y-105799217D01*
X143306568Y-104992852D01*
X143165148Y-104851432D01*
X144687445Y-103949183D01*
X145796707Y-104873493D01*
G37*
%TD.AperFunction*%
%TD*%
%TA.AperFunction,Conductor*%
%TO.N,GND*%
G36*
X148925970Y-121349329D02*
G01*
X148357500Y-121921000D01*
X147789030Y-121349329D01*
X148257500Y-120607500D01*
X148457500Y-120607500D01*
X148925970Y-121349329D01*
G37*
%TD.AperFunction*%
%TD*%
%TA.AperFunction,Conductor*%
%TO.N,GPSFREEZE_1*%
G36*
X156315339Y-103142812D02*
G01*
X156445187Y-103272660D01*
X156448614Y-103280933D01*
X156447523Y-103285867D01*
X156237877Y-103736670D01*
X156231281Y-103742726D01*
X156222824Y-103742559D01*
X155959815Y-103634563D01*
X155953463Y-103628251D01*
X155953436Y-103628184D01*
X155845440Y-103365175D01*
X155845467Y-103356220D01*
X155851326Y-103350124D01*
X156302134Y-103140475D01*
X156311079Y-103140095D01*
X156315339Y-103142812D01*
G37*
%TD.AperFunction*%
%TD*%
%TA.AperFunction,Conductor*%
%TO.N,VCC*%
G36*
X156835514Y-103609967D02*
G01*
X157470625Y-104110326D01*
X157475002Y-104118137D01*
X157472574Y-104126757D01*
X157471634Y-104127812D01*
X156915182Y-104681148D01*
X156906899Y-104684552D01*
X156901882Y-104683406D01*
X156174150Y-104335182D01*
X156168166Y-104328520D01*
X156167500Y-104324628D01*
X156167500Y-104137628D01*
X156170927Y-104129355D01*
X156171888Y-104128494D01*
X156820972Y-103610014D01*
X156829574Y-103607530D01*
X156835514Y-103609967D01*
G37*
%TD.AperFunction*%
%TD*%
%TA.AperFunction,Conductor*%
%TO.N,VCC*%
G36*
X154583027Y-103610014D02*
G01*
X155232102Y-104128487D01*
X155236427Y-104136327D01*
X155236500Y-104137628D01*
X155236500Y-104324628D01*
X155233073Y-104332901D01*
X155229850Y-104335182D01*
X154502117Y-104683406D01*
X154493175Y-104683886D01*
X154488817Y-104681148D01*
X153932365Y-104127812D01*
X153928915Y-104119549D01*
X153932319Y-104111266D01*
X153933363Y-104110335D01*
X154568486Y-103609966D01*
X154577105Y-103607539D01*
X154583027Y-103610014D01*
G37*
%TD.AperFunction*%
%TD*%
%TA.AperFunction,Conductor*%
%TO.N,RXD*%
G36*
X145192235Y-99867760D02*
G01*
X145193344Y-99868738D01*
X145325913Y-100001307D01*
X145329340Y-100009580D01*
X145328931Y-100012645D01*
X144963093Y-101360229D01*
X144957619Y-101367316D01*
X144948737Y-101368455D01*
X144948632Y-101368426D01*
X144469384Y-101233547D01*
X144462349Y-101228007D01*
X144461012Y-101220366D01*
X144674086Y-99938588D01*
X144678823Y-99930990D01*
X144684148Y-99928902D01*
X145183596Y-99865404D01*
X145192235Y-99867760D01*
G37*
%TD.AperFunction*%
%TD*%
%TA.AperFunction,Conductor*%
%TO.N,PWRIN_VCC*%
G36*
X154004324Y-115530927D02*
G01*
X154005942Y-115532950D01*
X154413605Y-116178491D01*
X154465991Y-116261444D01*
X154467511Y-116270269D01*
X154464394Y-116275941D01*
X153910796Y-116832657D01*
X153902533Y-116836107D01*
X153894250Y-116832703D01*
X153894204Y-116832657D01*
X153340605Y-116275941D01*
X153337201Y-116267658D01*
X153339006Y-116261448D01*
X153390120Y-116180508D01*
X153391725Y-116178501D01*
X153506734Y-116063492D01*
X153509788Y-116061295D01*
X153514484Y-116058958D01*
X153547493Y-116022747D01*
X153547804Y-116022422D01*
X153562431Y-116007797D01*
X153565929Y-116002688D01*
X153566917Y-116001440D01*
X153590172Y-115975933D01*
X153597379Y-115957324D01*
X153598637Y-115954939D01*
X153609913Y-115938480D01*
X153617813Y-115904891D01*
X153618290Y-115903350D01*
X153630756Y-115871173D01*
X153630756Y-115851218D01*
X153631067Y-115848539D01*
X153635635Y-115829119D01*
X153631954Y-115802735D01*
X153633648Y-115794879D01*
X153799056Y-115532952D01*
X153806371Y-115527787D01*
X153808949Y-115527500D01*
X153996051Y-115527500D01*
X154004324Y-115530927D01*
G37*
%TD.AperFunction*%
%TD*%
%TA.AperFunction,Conductor*%
%TO.N,GND*%
G36*
X146185685Y-117964264D02*
G01*
X146044264Y-118105685D01*
X145375672Y-118164500D01*
X145369830Y-118164500D01*
X144919293Y-116839293D01*
X145619999Y-116550050D01*
X146185685Y-117964264D01*
G37*
%TD.AperFunction*%
%TD*%
%TA.AperFunction,Conductor*%
%TO.N,VCC*%
G36*
X148101000Y-110939998D02*
G01*
X148106578Y-110945576D01*
X148530716Y-111842776D01*
X148531153Y-111851720D01*
X148529868Y-111854274D01*
X148199474Y-112348998D01*
X148192029Y-112353975D01*
X148189744Y-112354200D01*
X148002256Y-112354200D01*
X147993983Y-112350773D01*
X147992526Y-112348998D01*
X147662131Y-111854274D01*
X147660386Y-111845491D01*
X147661283Y-111842776D01*
X148085422Y-110945576D01*
X148092056Y-110939561D01*
X148101000Y-110939998D01*
G37*
%TD.AperFunction*%
%TD*%
M02*
