M48
; DRILL file {KiCad 7.0.11-2.fc39} date Tue 30 Apr 2024 07:09:00 PM EDT
; FORMAT={-:-/ absolute / inch / decimal}
; #@! TF.CreationDate,2024-04-30T19:09:00-04:00
; #@! TF.GenerationSoftware,Kicad,Pcbnew,7.0.11-2.fc39
; #@! TF.FileFunction,Plated,1,2,PTH
FMAT,2
INCH
; #@! TA.AperFunction,Plated,PTH,ViaDrill
T1C0.0118
; #@! TA.AperFunction,Plated,PTH,ComponentDrill
T2C0.0394
; #@! TA.AperFunction,Plated,PTH,ComponentDrill
T3C0.0437
; #@! TA.AperFunction,Plated,PTH,ComponentDrill
T4C0.0504
%
G90
G05
T1
X5.445Y-3.46
X5.45Y-4.67
X5.465Y-3.395
X5.48Y-4.76
X5.4848Y-3.7862
X5.51Y-3.68
X5.52Y-3.41
X5.52Y-3.45
X5.53Y-3.8
X5.53Y-4.09
X5.5309Y-3.95
X5.54Y-3.55
X5.56Y-3.66
X5.57Y-3.845
X5.59Y-4.39
X5.59Y-4.52
X5.605Y-3.875
X5.61Y-4.08
X5.62Y-4.15
X5.6205Y-4.24
X5.625Y-3.7
X5.66Y-3.59
X5.66Y-3.65
X5.66Y-3.74
X5.67Y-3.5
X5.6783Y-3.9083
X5.68Y-4.73
X5.7Y-4.45
X5.7189Y-3.9345
X5.725Y-3.655
X5.73Y-3.79
X5.76Y-4.73
X5.78Y-3.7
X5.78Y-4.45
X5.79Y-3.53
X5.79Y-3.74
X5.7986Y-3.9178
X5.83Y-3.62
X5.83Y-4.45
X5.87Y-3.53
X5.87Y-3.69
X5.87Y-3.84
X5.87Y-4.71
X5.91Y-4.42
X5.91Y-4.48
X5.93Y-3.79
X5.93Y-4.36
X5.9396Y-4.2803
X5.95Y-3.84
X5.96Y-3.53
X5.99Y-3.625
X5.99Y-4.57
X6.01Y-3.7
X6.01Y-4.12
X6.01Y-4.1515
X6.03Y-3.83
X6.03Y-4.75
X6.04Y-3.53
X6.05Y-3.77
X6.09Y-4.73
X6.095Y-3.625
X6.1Y-3.67
X6.13Y-3.51
X6.14Y-4.08
X6.17Y-3.83
X6.17Y-3.88
X6.17Y-4.24
X6.18Y-3.52
X6.18Y-3.61
X6.19Y-4.66
X6.2Y-3.78
X6.25Y-4.58
X6.26Y-3.58
X6.27Y-3.88
X6.28Y-3.69
X6.28Y-3.82
X6.28Y-3.98
X6.285Y-3.395
X6.3Y-4.45
X6.34Y-4.54
X6.395Y-3.46
X6.41Y-4.37
X6.42Y-4.69
T2
X5.289Y-3.6504
X5.289Y-3.7504
X5.289Y-3.8504
X5.289Y-3.9504
X5.293Y-4.6
X5.293Y-4.7
X5.296Y-4.2308
X5.296Y-4.3308
X5.5Y-5.1
X5.6Y-5.1
X6.1405Y-5.1455
T3
X5.46Y-3.54
X5.46Y-3.64
X5.46Y-3.74
X5.46Y-3.84
X5.46Y-3.94
X5.46Y-4.04
X5.46Y-4.14
X5.46Y-4.24
X6.36Y-3.54
X6.36Y-3.64
X6.36Y-3.74
X6.36Y-3.84
X6.36Y-3.94
X6.36Y-4.04
X6.36Y-4.14
X6.36Y-4.24
T4
X6.046Y-5.051
X6.046Y-5.24
X6.235Y-5.051
X6.235Y-5.24
M30
