%TF.GenerationSoftware,KiCad,Pcbnew,8.0.3-1.fc40*%
%TF.CreationDate,2024-06-24T14:15:44-04:00*%
%TF.ProjectId,OS42Micro,4f533432-4d69-4637-926f-2e6b69636164,rev?*%
%TF.SameCoordinates,Original*%
%TF.FileFunction,Drillmap*%
%TF.FilePolarity,Positive*%
%FSLAX45Y45*%
G04 Gerber Fmt 4.5, Leading zero omitted, Abs format (unit mm)*
G04 Created by KiCad (PCBNEW 8.0.3-1.fc40) date 2024-06-24 14:15:44*
%MOMM*%
%LPD*%
G01*
G04 APERTURE LIST*
%ADD10C,0.050000*%
%ADD11C,0.200000*%
%ADD12C,0.100000*%
%ADD13C,0.128000*%
G04 APERTURE END LIST*
D10*
X15150000Y-9525000D02*
X14780000Y-9525000D01*
X15150000Y-10100000D02*
X15150000Y-9525000D01*
X15350000Y-11800000D02*
X15350000Y-10100000D01*
X13550000Y-14425000D02*
X13550000Y-14650000D01*
X13550000Y-14650000D02*
X13350000Y-14650000D01*
X14780000Y-9525000D02*
X14780000Y-10100000D01*
X15750000Y-15450000D02*
X15750000Y-11800000D01*
X13350000Y-15450000D02*
X15750000Y-15450000D01*
X13350000Y-14650000D02*
X13350000Y-15450000D01*
X15750000Y-11800000D02*
X15350000Y-11800000D01*
X13200000Y-14425000D02*
X13550000Y-14425000D01*
X15350000Y-10100000D02*
X15150000Y-10100000D01*
X14780000Y-10100000D02*
X13200000Y-10100000D01*
X13200000Y-10100000D02*
X13200000Y-14425000D01*
D11*
D12*
X13485000Y-15005000D02*
X13515000Y-15035000D01*
X13515000Y-15005000D02*
X13485000Y-15035000D01*
X13515000Y-12145000D02*
X13545000Y-12175000D01*
X13545000Y-12145000D02*
X13515000Y-12175000D01*
X13568436Y-11940624D02*
X13598436Y-11970624D01*
X13598436Y-11940624D02*
X13568436Y-11970624D01*
X13635000Y-11985000D02*
X13665000Y-12015000D01*
X13665000Y-11985000D02*
X13635000Y-12015000D01*
X13685000Y-10775000D02*
X13715000Y-10805000D01*
X13715000Y-10775000D02*
X13685000Y-10805000D01*
X13717573Y-11317573D02*
X13747573Y-11347573D01*
X13747573Y-11317573D02*
X13717573Y-11347573D01*
X13725000Y-13805000D02*
X13755000Y-13835000D01*
X13755000Y-13805000D02*
X13725000Y-13835000D01*
X13735000Y-11935000D02*
X13765000Y-11965000D01*
X13765000Y-11935000D02*
X13735000Y-11965000D01*
X13745000Y-14125000D02*
X13775000Y-14155000D01*
X13775000Y-14125000D02*
X13745000Y-14155000D01*
X13745000Y-15265000D02*
X13775000Y-15295000D01*
X13775000Y-15265000D02*
X13745000Y-15295000D01*
X13785000Y-11435000D02*
X13815000Y-11465000D01*
X13815000Y-11435000D02*
X13785000Y-11465000D01*
X13805000Y-10535000D02*
X13835000Y-10565000D01*
X13835000Y-10535000D02*
X13805000Y-10565000D01*
X13825000Y-13085000D02*
X13855000Y-13115000D01*
X13855000Y-13085000D02*
X13825000Y-13115000D01*
X13835000Y-11085000D02*
X13865000Y-11115000D01*
X13865000Y-11085000D02*
X13835000Y-11115000D01*
X13835000Y-11285000D02*
X13865000Y-11315000D01*
X13865000Y-11285000D02*
X13835000Y-11315000D01*
X13925000Y-10625000D02*
X13955000Y-10655000D01*
X13955000Y-10625000D02*
X13925000Y-10655000D01*
X13935000Y-12045000D02*
X13965000Y-12075000D01*
X13965000Y-12045000D02*
X13935000Y-12075000D01*
X13945000Y-10825000D02*
X13975000Y-10855000D01*
X13975000Y-10825000D02*
X13945000Y-10855000D01*
X13985000Y-15025000D02*
X14015000Y-15055000D01*
X14015000Y-15025000D02*
X13985000Y-15055000D01*
X13990355Y-11950355D02*
X14020355Y-11980355D01*
X14020355Y-11950355D02*
X13990355Y-11980355D01*
X14017573Y-13852426D02*
X14047573Y-13882426D01*
X14047573Y-13852426D02*
X14017573Y-13882426D01*
X14035000Y-12285000D02*
X14065000Y-12315000D01*
X14065000Y-12285000D02*
X14035000Y-12315000D01*
X14035000Y-14165000D02*
X14065000Y-14195000D01*
X14065000Y-14165000D02*
X14035000Y-14195000D01*
X14085000Y-11035000D02*
X14115000Y-11065000D01*
X14115000Y-11035000D02*
X14085000Y-11065000D01*
X14085000Y-11975000D02*
X14115000Y-12005000D01*
X14115000Y-11975000D02*
X14085000Y-12005000D01*
X14090641Y-11134471D02*
X14120641Y-11164471D01*
X14120641Y-11134471D02*
X14090641Y-11164471D01*
X14094853Y-11294853D02*
X14124853Y-11324853D01*
X14124853Y-11294853D02*
X14094853Y-11324853D01*
X14105000Y-10565000D02*
X14135000Y-10595000D01*
X14135000Y-10565000D02*
X14105000Y-10595000D01*
X14135000Y-10735000D02*
X14165000Y-10765000D01*
X14165000Y-10735000D02*
X14135000Y-10765000D01*
X14135000Y-13785000D02*
X14165000Y-13815000D01*
X14165000Y-13785000D02*
X14135000Y-13815000D01*
X14151422Y-11351422D02*
X14181422Y-11381422D01*
X14181422Y-11351422D02*
X14151422Y-11381422D01*
X14162400Y-12494836D02*
X14192400Y-12524836D01*
X14192400Y-12494836D02*
X14162400Y-12524836D01*
X14185000Y-10975000D02*
X14215000Y-11005000D01*
X14215000Y-10975000D02*
X14185000Y-11005000D01*
X14185000Y-12585000D02*
X14215000Y-12615000D01*
X14215000Y-12585000D02*
X14185000Y-12615000D01*
X14225000Y-15045000D02*
X14255000Y-15075000D01*
X14255000Y-15045000D02*
X14225000Y-15075000D01*
X14245000Y-15305000D02*
X14275000Y-15335000D01*
X14275000Y-15305000D02*
X14245000Y-15335000D01*
X14265000Y-14645000D02*
X14295000Y-14675000D01*
X14295000Y-14645000D02*
X14265000Y-14675000D01*
X14265000Y-14805000D02*
X14295000Y-14835000D01*
X14295000Y-14805000D02*
X14265000Y-14835000D01*
X14284126Y-10975000D02*
X14314126Y-11005000D01*
X14314126Y-10975000D02*
X14284126Y-11005000D01*
X14317334Y-11974325D02*
X14347334Y-12004325D01*
X14347334Y-11974325D02*
X14317334Y-12004325D01*
X14335000Y-11535000D02*
X14365000Y-11565000D01*
X14365000Y-11535000D02*
X14335000Y-11565000D01*
X14385000Y-11385000D02*
X14415000Y-11415000D01*
X14415000Y-11385000D02*
X14385000Y-11415000D01*
X14385804Y-12015700D02*
X14415804Y-12045700D01*
X14415804Y-12015700D02*
X14385804Y-12045700D01*
X14397426Y-12522573D02*
X14427426Y-12552573D01*
X14427426Y-12522573D02*
X14397426Y-12552573D01*
X14445000Y-10685000D02*
X14475000Y-10715000D01*
X14475000Y-10685000D02*
X14445000Y-10715000D01*
X14535000Y-12585000D02*
X14565000Y-12615000D01*
X14565000Y-12585000D02*
X14535000Y-12615000D01*
X14535000Y-14585000D02*
X14565000Y-14615000D01*
X14565000Y-14585000D02*
X14535000Y-14615000D01*
X14599600Y-11597426D02*
X14629600Y-11627426D01*
X14629600Y-11597426D02*
X14599600Y-11627426D01*
X14635000Y-11335000D02*
X14665000Y-11365000D01*
X14665000Y-11335000D02*
X14635000Y-11365000D01*
X14675000Y-11435000D02*
X14705000Y-11465000D01*
X14705000Y-11435000D02*
X14675000Y-11465000D01*
X14675000Y-11535000D02*
X14705000Y-11565000D01*
X14705000Y-11535000D02*
X14675000Y-11565000D01*
X14735000Y-14185000D02*
X14765000Y-14215000D01*
X14765000Y-14185000D02*
X14735000Y-14215000D01*
X14785000Y-10885000D02*
X14815000Y-10915000D01*
X14815000Y-10885000D02*
X14785000Y-10915000D01*
X14805000Y-10565000D02*
X14835000Y-10595000D01*
X14835000Y-10565000D02*
X14805000Y-10595000D01*
X14831564Y-10129376D02*
X14861564Y-10159376D01*
X14861564Y-10129376D02*
X14831564Y-10159376D01*
X14835000Y-12377500D02*
X14865000Y-12407500D01*
X14865000Y-12377500D02*
X14835000Y-12407500D01*
X14845000Y-13205000D02*
X14875000Y-13235000D01*
X14875000Y-13205000D02*
X14845000Y-13235000D01*
X14845000Y-13905000D02*
X14875000Y-13935000D01*
X14875000Y-13905000D02*
X14845000Y-13935000D01*
X14885000Y-12535000D02*
X14915000Y-12565000D01*
X14915000Y-12535000D02*
X14885000Y-12565000D01*
X14885000Y-15325000D02*
X14915000Y-15355000D01*
X14915000Y-15325000D02*
X14885000Y-15355000D01*
X14925000Y-14865000D02*
X14955000Y-14895000D01*
X14955000Y-14865000D02*
X14925000Y-14895000D01*
X14949750Y-14199750D02*
X14979750Y-14229750D01*
X14979750Y-14199750D02*
X14949750Y-14229750D01*
X15009750Y-11085000D02*
X15039750Y-11115000D01*
X15039750Y-11085000D02*
X15009750Y-11115000D01*
X15025000Y-14665000D02*
X15055000Y-14695000D01*
X15055000Y-14665000D02*
X15025000Y-14695000D01*
X15035000Y-10735000D02*
X15065000Y-10765000D01*
X15065000Y-10735000D02*
X15035000Y-10765000D01*
X15049750Y-11435000D02*
X15079750Y-11465000D01*
X15079750Y-11435000D02*
X15049750Y-11465000D01*
X15085000Y-11985000D02*
X15115000Y-12015000D01*
X15115000Y-11985000D02*
X15085000Y-12015000D01*
X15085000Y-12585000D02*
X15115000Y-12615000D01*
X15115000Y-12585000D02*
X15085000Y-12615000D01*
X15125000Y-13365000D02*
X15155000Y-13395000D01*
X15155000Y-13365000D02*
X15125000Y-13395000D01*
X15135000Y-14235000D02*
X15165000Y-14265000D01*
X15165000Y-14235000D02*
X15135000Y-14265000D01*
X15165000Y-10565000D02*
X15195000Y-10595000D01*
X15195000Y-10565000D02*
X15165000Y-10595000D01*
X15165000Y-11185000D02*
X15195000Y-11215000D01*
X15195000Y-11185000D02*
X15165000Y-11215000D01*
X15185000Y-12445000D02*
X15215000Y-12475000D01*
X15215000Y-12445000D02*
X15185000Y-12475000D01*
X15235000Y-10165000D02*
X15265000Y-10195000D01*
X15265000Y-10165000D02*
X15235000Y-10195000D01*
X15235000Y-12885000D02*
X15265000Y-12915000D01*
X15265000Y-12885000D02*
X15235000Y-12915000D01*
X15235000Y-13585000D02*
X15265000Y-13615000D01*
X15265000Y-13585000D02*
X15235000Y-13615000D01*
X15265000Y-12705000D02*
X15295000Y-12735000D01*
X15295000Y-12705000D02*
X15265000Y-12735000D01*
X15335000Y-11885000D02*
X15365000Y-11915000D01*
X15365000Y-11885000D02*
X15335000Y-11915000D01*
X15335000Y-13185000D02*
X15365000Y-13215000D01*
X15365000Y-13185000D02*
X15335000Y-13215000D01*
X15385000Y-14085000D02*
X15415000Y-14115000D01*
X15415000Y-14085000D02*
X15385000Y-14115000D01*
X15485000Y-14735000D02*
X15515000Y-14765000D01*
X15515000Y-14735000D02*
X15485000Y-14765000D01*
X15635000Y-11885000D02*
X15665000Y-11915000D01*
X15665000Y-11885000D02*
X15635000Y-11915000D01*
X15635000Y-12585000D02*
X15665000Y-12615000D01*
X15665000Y-12585000D02*
X15635000Y-12615000D01*
X15635000Y-12685000D02*
X15665000Y-12715000D01*
X15665000Y-12685000D02*
X15635000Y-12715000D01*
X15635000Y-13035000D02*
X15665000Y-13065000D01*
X15665000Y-13035000D02*
X15635000Y-13065000D01*
X15635000Y-13235000D02*
X15665000Y-13265000D01*
X15665000Y-13235000D02*
X15635000Y-13265000D01*
X14182000Y-12146000D02*
G75*
G02*
X14102000Y-12146000I-40000J0D01*
G01*
X14102000Y-12146000D02*
G75*
G02*
X14182000Y-12146000I40000J0D01*
G01*
X14182000Y-12400000D02*
G75*
G02*
X14102000Y-12400000I-40000J0D01*
G01*
X14102000Y-12400000D02*
G75*
G02*
X14182000Y-12400000I40000J0D01*
G01*
X14436000Y-12146000D02*
G75*
G02*
X14356000Y-12146000I-40000J0D01*
G01*
X14356000Y-12146000D02*
G75*
G02*
X14436000Y-12146000I40000J0D01*
G01*
X14436000Y-12400000D02*
G75*
G02*
X14356000Y-12400000I-40000J0D01*
G01*
X14356000Y-12400000D02*
G75*
G02*
X14436000Y-12400000I40000J0D01*
G01*
X14690000Y-12146000D02*
G75*
G02*
X14610000Y-12146000I-40000J0D01*
G01*
X14610000Y-12146000D02*
G75*
G02*
X14690000Y-12146000I40000J0D01*
G01*
X14690000Y-12400000D02*
G75*
G02*
X14610000Y-12400000I-40000J0D01*
G01*
X14610000Y-12400000D02*
G75*
G02*
X14690000Y-12400000I40000J0D01*
G01*
X13397500Y-10336000D02*
X13397500Y-10436000D01*
X13347500Y-10386000D02*
X13447500Y-10386000D01*
X13397500Y-10590000D02*
X13397500Y-10690000D01*
X13347500Y-10640000D02*
X13447500Y-10640000D01*
X13397500Y-10844000D02*
X13397500Y-10944000D01*
X13347500Y-10894000D02*
X13447500Y-10894000D01*
X13397500Y-11098000D02*
X13397500Y-11198000D01*
X13347500Y-11148000D02*
X13447500Y-11148000D01*
X13397500Y-11352000D02*
X13397500Y-11452000D01*
X13347500Y-11402000D02*
X13447500Y-11402000D01*
X13397500Y-11606000D02*
X13397500Y-11706000D01*
X13347500Y-11656000D02*
X13447500Y-11656000D01*
X13397500Y-11860000D02*
X13397500Y-11960000D01*
X13347500Y-11910000D02*
X13447500Y-11910000D01*
X13400000Y-12546000D02*
X13400000Y-12646000D01*
X13350000Y-12596000D02*
X13450000Y-12596000D01*
X13400000Y-12800000D02*
X13400000Y-12900000D01*
X13350000Y-12850000D02*
X13450000Y-12850000D01*
X13400000Y-13346000D02*
X13400000Y-13446000D01*
X13350000Y-13396000D02*
X13450000Y-13396000D01*
X13400000Y-13600000D02*
X13400000Y-13700000D01*
X13350000Y-13650000D02*
X13450000Y-13650000D01*
X13400000Y-13854000D02*
X13400000Y-13954000D01*
X13350000Y-13904000D02*
X13450000Y-13904000D01*
X13400000Y-14108000D02*
X13400000Y-14208000D01*
X13350000Y-14158000D02*
X13450000Y-14158000D01*
X13763750Y-14990000D02*
X13763750Y-15090000D01*
X13713750Y-15040000D02*
X13813750Y-15040000D01*
X14515000Y-15092500D02*
X14515000Y-15192500D01*
X14465000Y-15142500D02*
X14565000Y-15142500D01*
X14769000Y-15092500D02*
X14769000Y-15192500D01*
X14719000Y-15142500D02*
X14819000Y-15142500D01*
X15485000Y-13445000D02*
X15485000Y-13545000D01*
X15435000Y-13495000D02*
X15535000Y-13495000D01*
X15485000Y-13699000D02*
X15485000Y-13799000D01*
X15435000Y-13749000D02*
X15535000Y-13749000D01*
X15485000Y-14235000D02*
X15485000Y-14335000D01*
X15435000Y-14285000D02*
X15535000Y-14285000D01*
X15485000Y-14489000D02*
X15485000Y-14589000D01*
X15435000Y-14539000D02*
X15535000Y-14539000D01*
X15500000Y-12096000D02*
X15500000Y-12196000D01*
X15450000Y-12146000D02*
X15550000Y-12146000D01*
X15500000Y-12350000D02*
X15500000Y-12450000D01*
X15450000Y-12400000D02*
X15550000Y-12400000D01*
D13*
X13569005Y-14845255D02*
X13569005Y-14754745D01*
X13478495Y-14754745D01*
X13478495Y-14845255D01*
X13569005Y-14845255D01*
X13569005Y-15325255D02*
X13569005Y-15234745D01*
X13478495Y-15234745D01*
X13478495Y-15325255D01*
X13569005Y-15325255D01*
X14049005Y-14845255D02*
X14049005Y-14754745D01*
X13958495Y-14754745D01*
X13958495Y-14845255D01*
X14049005Y-14845255D01*
X14049005Y-15325255D02*
X14049005Y-15234745D01*
X13958495Y-15234745D01*
X13958495Y-15325255D01*
X14049005Y-15325255D01*
D11*
X13458277Y-15763984D02*
X13458277Y-15563984D01*
X13458277Y-15563984D02*
X13505896Y-15563984D01*
X13505896Y-15563984D02*
X13534467Y-15573508D01*
X13534467Y-15573508D02*
X13553515Y-15592555D01*
X13553515Y-15592555D02*
X13563039Y-15611603D01*
X13563039Y-15611603D02*
X13572562Y-15649698D01*
X13572562Y-15649698D02*
X13572562Y-15678269D01*
X13572562Y-15678269D02*
X13563039Y-15716365D01*
X13563039Y-15716365D02*
X13553515Y-15735412D01*
X13553515Y-15735412D02*
X13534467Y-15754460D01*
X13534467Y-15754460D02*
X13505896Y-15763984D01*
X13505896Y-15763984D02*
X13458277Y-15763984D01*
X13658277Y-15763984D02*
X13658277Y-15630650D01*
X13658277Y-15668746D02*
X13667801Y-15649698D01*
X13667801Y-15649698D02*
X13677324Y-15640174D01*
X13677324Y-15640174D02*
X13696372Y-15630650D01*
X13696372Y-15630650D02*
X13715420Y-15630650D01*
X13782086Y-15763984D02*
X13782086Y-15630650D01*
X13782086Y-15563984D02*
X13772562Y-15573508D01*
X13772562Y-15573508D02*
X13782086Y-15583031D01*
X13782086Y-15583031D02*
X13791610Y-15573508D01*
X13791610Y-15573508D02*
X13782086Y-15563984D01*
X13782086Y-15563984D02*
X13782086Y-15583031D01*
X13905896Y-15763984D02*
X13886848Y-15754460D01*
X13886848Y-15754460D02*
X13877324Y-15735412D01*
X13877324Y-15735412D02*
X13877324Y-15563984D01*
X14010658Y-15763984D02*
X13991610Y-15754460D01*
X13991610Y-15754460D02*
X13982086Y-15735412D01*
X13982086Y-15735412D02*
X13982086Y-15563984D01*
X14239229Y-15763984D02*
X14239229Y-15563984D01*
X14239229Y-15563984D02*
X14305896Y-15706841D01*
X14305896Y-15706841D02*
X14372562Y-15563984D01*
X14372562Y-15563984D02*
X14372562Y-15763984D01*
X14553515Y-15763984D02*
X14553515Y-15659222D01*
X14553515Y-15659222D02*
X14543991Y-15640174D01*
X14543991Y-15640174D02*
X14524943Y-15630650D01*
X14524943Y-15630650D02*
X14486848Y-15630650D01*
X14486848Y-15630650D02*
X14467801Y-15640174D01*
X14553515Y-15754460D02*
X14534467Y-15763984D01*
X14534467Y-15763984D02*
X14486848Y-15763984D01*
X14486848Y-15763984D02*
X14467801Y-15754460D01*
X14467801Y-15754460D02*
X14458277Y-15735412D01*
X14458277Y-15735412D02*
X14458277Y-15716365D01*
X14458277Y-15716365D02*
X14467801Y-15697317D01*
X14467801Y-15697317D02*
X14486848Y-15687793D01*
X14486848Y-15687793D02*
X14534467Y-15687793D01*
X14534467Y-15687793D02*
X14553515Y-15678269D01*
X14648753Y-15630650D02*
X14648753Y-15830650D01*
X14648753Y-15640174D02*
X14667801Y-15630650D01*
X14667801Y-15630650D02*
X14705896Y-15630650D01*
X14705896Y-15630650D02*
X14724943Y-15640174D01*
X14724943Y-15640174D02*
X14734467Y-15649698D01*
X14734467Y-15649698D02*
X14743991Y-15668746D01*
X14743991Y-15668746D02*
X14743991Y-15725888D01*
X14743991Y-15725888D02*
X14734467Y-15744936D01*
X14734467Y-15744936D02*
X14724943Y-15754460D01*
X14724943Y-15754460D02*
X14705896Y-15763984D01*
X14705896Y-15763984D02*
X14667801Y-15763984D01*
X14667801Y-15763984D02*
X14648753Y-15754460D01*
X14829705Y-15744936D02*
X14839229Y-15754460D01*
X14839229Y-15754460D02*
X14829705Y-15763984D01*
X14829705Y-15763984D02*
X14820182Y-15754460D01*
X14820182Y-15754460D02*
X14829705Y-15744936D01*
X14829705Y-15744936D02*
X14829705Y-15763984D01*
X14829705Y-15640174D02*
X14839229Y-15649698D01*
X14839229Y-15649698D02*
X14829705Y-15659222D01*
X14829705Y-15659222D02*
X14820182Y-15649698D01*
X14820182Y-15649698D02*
X14829705Y-15640174D01*
X14829705Y-15640174D02*
X14829705Y-15659222D01*
D12*
X13167500Y-16077500D02*
X13197500Y-16107500D01*
X13197500Y-16077500D02*
X13167500Y-16107500D01*
D11*
X13496372Y-15983984D02*
X13515420Y-15983984D01*
X13515420Y-15983984D02*
X13534467Y-15993508D01*
X13534467Y-15993508D02*
X13543991Y-16003031D01*
X13543991Y-16003031D02*
X13553515Y-16022079D01*
X13553515Y-16022079D02*
X13563039Y-16060174D01*
X13563039Y-16060174D02*
X13563039Y-16107793D01*
X13563039Y-16107793D02*
X13553515Y-16145888D01*
X13553515Y-16145888D02*
X13543991Y-16164936D01*
X13543991Y-16164936D02*
X13534467Y-16174460D01*
X13534467Y-16174460D02*
X13515420Y-16183984D01*
X13515420Y-16183984D02*
X13496372Y-16183984D01*
X13496372Y-16183984D02*
X13477324Y-16174460D01*
X13477324Y-16174460D02*
X13467801Y-16164936D01*
X13467801Y-16164936D02*
X13458277Y-16145888D01*
X13458277Y-16145888D02*
X13448753Y-16107793D01*
X13448753Y-16107793D02*
X13448753Y-16060174D01*
X13448753Y-16060174D02*
X13458277Y-16022079D01*
X13458277Y-16022079D02*
X13467801Y-16003031D01*
X13467801Y-16003031D02*
X13477324Y-15993508D01*
X13477324Y-15993508D02*
X13496372Y-15983984D01*
X13648753Y-16164936D02*
X13658277Y-16174460D01*
X13658277Y-16174460D02*
X13648753Y-16183984D01*
X13648753Y-16183984D02*
X13639229Y-16174460D01*
X13639229Y-16174460D02*
X13648753Y-16164936D01*
X13648753Y-16164936D02*
X13648753Y-16183984D01*
X13724943Y-15983984D02*
X13848753Y-15983984D01*
X13848753Y-15983984D02*
X13782086Y-16060174D01*
X13782086Y-16060174D02*
X13810658Y-16060174D01*
X13810658Y-16060174D02*
X13829705Y-16069698D01*
X13829705Y-16069698D02*
X13839229Y-16079222D01*
X13839229Y-16079222D02*
X13848753Y-16098269D01*
X13848753Y-16098269D02*
X13848753Y-16145888D01*
X13848753Y-16145888D02*
X13839229Y-16164936D01*
X13839229Y-16164936D02*
X13829705Y-16174460D01*
X13829705Y-16174460D02*
X13810658Y-16183984D01*
X13810658Y-16183984D02*
X13753515Y-16183984D01*
X13753515Y-16183984D02*
X13734467Y-16174460D01*
X13734467Y-16174460D02*
X13724943Y-16164936D01*
X13972562Y-15983984D02*
X13991610Y-15983984D01*
X13991610Y-15983984D02*
X14010658Y-15993508D01*
X14010658Y-15993508D02*
X14020182Y-16003031D01*
X14020182Y-16003031D02*
X14029705Y-16022079D01*
X14029705Y-16022079D02*
X14039229Y-16060174D01*
X14039229Y-16060174D02*
X14039229Y-16107793D01*
X14039229Y-16107793D02*
X14029705Y-16145888D01*
X14029705Y-16145888D02*
X14020182Y-16164936D01*
X14020182Y-16164936D02*
X14010658Y-16174460D01*
X14010658Y-16174460D02*
X13991610Y-16183984D01*
X13991610Y-16183984D02*
X13972562Y-16183984D01*
X13972562Y-16183984D02*
X13953515Y-16174460D01*
X13953515Y-16174460D02*
X13943991Y-16164936D01*
X13943991Y-16164936D02*
X13934467Y-16145888D01*
X13934467Y-16145888D02*
X13924943Y-16107793D01*
X13924943Y-16107793D02*
X13924943Y-16060174D01*
X13924943Y-16060174D02*
X13934467Y-16022079D01*
X13934467Y-16022079D02*
X13943991Y-16003031D01*
X13943991Y-16003031D02*
X13953515Y-15993508D01*
X13953515Y-15993508D02*
X13972562Y-15983984D01*
X14163039Y-15983984D02*
X14182086Y-15983984D01*
X14182086Y-15983984D02*
X14201134Y-15993508D01*
X14201134Y-15993508D02*
X14210658Y-16003031D01*
X14210658Y-16003031D02*
X14220182Y-16022079D01*
X14220182Y-16022079D02*
X14229705Y-16060174D01*
X14229705Y-16060174D02*
X14229705Y-16107793D01*
X14229705Y-16107793D02*
X14220182Y-16145888D01*
X14220182Y-16145888D02*
X14210658Y-16164936D01*
X14210658Y-16164936D02*
X14201134Y-16174460D01*
X14201134Y-16174460D02*
X14182086Y-16183984D01*
X14182086Y-16183984D02*
X14163039Y-16183984D01*
X14163039Y-16183984D02*
X14143991Y-16174460D01*
X14143991Y-16174460D02*
X14134467Y-16164936D01*
X14134467Y-16164936D02*
X14124943Y-16145888D01*
X14124943Y-16145888D02*
X14115420Y-16107793D01*
X14115420Y-16107793D02*
X14115420Y-16060174D01*
X14115420Y-16060174D02*
X14124943Y-16022079D01*
X14124943Y-16022079D02*
X14134467Y-16003031D01*
X14134467Y-16003031D02*
X14143991Y-15993508D01*
X14143991Y-15993508D02*
X14163039Y-15983984D01*
X14315420Y-16183984D02*
X14315420Y-16050650D01*
X14315420Y-16069698D02*
X14324943Y-16060174D01*
X14324943Y-16060174D02*
X14343991Y-16050650D01*
X14343991Y-16050650D02*
X14372563Y-16050650D01*
X14372563Y-16050650D02*
X14391610Y-16060174D01*
X14391610Y-16060174D02*
X14401134Y-16079222D01*
X14401134Y-16079222D02*
X14401134Y-16183984D01*
X14401134Y-16079222D02*
X14410658Y-16060174D01*
X14410658Y-16060174D02*
X14429705Y-16050650D01*
X14429705Y-16050650D02*
X14458277Y-16050650D01*
X14458277Y-16050650D02*
X14477324Y-16060174D01*
X14477324Y-16060174D02*
X14486848Y-16079222D01*
X14486848Y-16079222D02*
X14486848Y-16183984D01*
X14582086Y-16183984D02*
X14582086Y-16050650D01*
X14582086Y-16069698D02*
X14591610Y-16060174D01*
X14591610Y-16060174D02*
X14610658Y-16050650D01*
X14610658Y-16050650D02*
X14639229Y-16050650D01*
X14639229Y-16050650D02*
X14658277Y-16060174D01*
X14658277Y-16060174D02*
X14667801Y-16079222D01*
X14667801Y-16079222D02*
X14667801Y-16183984D01*
X14667801Y-16079222D02*
X14677324Y-16060174D01*
X14677324Y-16060174D02*
X14696372Y-16050650D01*
X14696372Y-16050650D02*
X14724943Y-16050650D01*
X14724943Y-16050650D02*
X14743991Y-16060174D01*
X14743991Y-16060174D02*
X14753515Y-16079222D01*
X14753515Y-16079222D02*
X14753515Y-16183984D01*
X15143991Y-15974460D02*
X14972563Y-16231603D01*
X15401134Y-15983984D02*
X15420182Y-15983984D01*
X15420182Y-15983984D02*
X15439229Y-15993508D01*
X15439229Y-15993508D02*
X15448753Y-16003031D01*
X15448753Y-16003031D02*
X15458277Y-16022079D01*
X15458277Y-16022079D02*
X15467801Y-16060174D01*
X15467801Y-16060174D02*
X15467801Y-16107793D01*
X15467801Y-16107793D02*
X15458277Y-16145888D01*
X15458277Y-16145888D02*
X15448753Y-16164936D01*
X15448753Y-16164936D02*
X15439229Y-16174460D01*
X15439229Y-16174460D02*
X15420182Y-16183984D01*
X15420182Y-16183984D02*
X15401134Y-16183984D01*
X15401134Y-16183984D02*
X15382086Y-16174460D01*
X15382086Y-16174460D02*
X15372563Y-16164936D01*
X15372563Y-16164936D02*
X15363039Y-16145888D01*
X15363039Y-16145888D02*
X15353515Y-16107793D01*
X15353515Y-16107793D02*
X15353515Y-16060174D01*
X15353515Y-16060174D02*
X15363039Y-16022079D01*
X15363039Y-16022079D02*
X15372563Y-16003031D01*
X15372563Y-16003031D02*
X15382086Y-15993508D01*
X15382086Y-15993508D02*
X15401134Y-15983984D01*
X15553515Y-16164936D02*
X15563039Y-16174460D01*
X15563039Y-16174460D02*
X15553515Y-16183984D01*
X15553515Y-16183984D02*
X15543991Y-16174460D01*
X15543991Y-16174460D02*
X15553515Y-16164936D01*
X15553515Y-16164936D02*
X15553515Y-16183984D01*
X15686848Y-15983984D02*
X15705896Y-15983984D01*
X15705896Y-15983984D02*
X15724944Y-15993508D01*
X15724944Y-15993508D02*
X15734467Y-16003031D01*
X15734467Y-16003031D02*
X15743991Y-16022079D01*
X15743991Y-16022079D02*
X15753515Y-16060174D01*
X15753515Y-16060174D02*
X15753515Y-16107793D01*
X15753515Y-16107793D02*
X15743991Y-16145888D01*
X15743991Y-16145888D02*
X15734467Y-16164936D01*
X15734467Y-16164936D02*
X15724944Y-16174460D01*
X15724944Y-16174460D02*
X15705896Y-16183984D01*
X15705896Y-16183984D02*
X15686848Y-16183984D01*
X15686848Y-16183984D02*
X15667801Y-16174460D01*
X15667801Y-16174460D02*
X15658277Y-16164936D01*
X15658277Y-16164936D02*
X15648753Y-16145888D01*
X15648753Y-16145888D02*
X15639229Y-16107793D01*
X15639229Y-16107793D02*
X15639229Y-16060174D01*
X15639229Y-16060174D02*
X15648753Y-16022079D01*
X15648753Y-16022079D02*
X15658277Y-16003031D01*
X15658277Y-16003031D02*
X15667801Y-15993508D01*
X15667801Y-15993508D02*
X15686848Y-15983984D01*
X15943991Y-16183984D02*
X15829706Y-16183984D01*
X15886848Y-16183984D02*
X15886848Y-15983984D01*
X15886848Y-15983984D02*
X15867801Y-16012555D01*
X15867801Y-16012555D02*
X15848753Y-16031603D01*
X15848753Y-16031603D02*
X15829706Y-16041127D01*
X16134467Y-16183984D02*
X16020182Y-16183984D01*
X16077325Y-16183984D02*
X16077325Y-15983984D01*
X16077325Y-15983984D02*
X16058277Y-16012555D01*
X16058277Y-16012555D02*
X16039229Y-16031603D01*
X16039229Y-16031603D02*
X16020182Y-16041127D01*
X16248753Y-16069698D02*
X16229706Y-16060174D01*
X16229706Y-16060174D02*
X16220182Y-16050650D01*
X16220182Y-16050650D02*
X16210658Y-16031603D01*
X16210658Y-16031603D02*
X16210658Y-16022079D01*
X16210658Y-16022079D02*
X16220182Y-16003031D01*
X16220182Y-16003031D02*
X16229706Y-15993508D01*
X16229706Y-15993508D02*
X16248753Y-15983984D01*
X16248753Y-15983984D02*
X16286848Y-15983984D01*
X16286848Y-15983984D02*
X16305896Y-15993508D01*
X16305896Y-15993508D02*
X16315420Y-16003031D01*
X16315420Y-16003031D02*
X16324944Y-16022079D01*
X16324944Y-16022079D02*
X16324944Y-16031603D01*
X16324944Y-16031603D02*
X16315420Y-16050650D01*
X16315420Y-16050650D02*
X16305896Y-16060174D01*
X16305896Y-16060174D02*
X16286848Y-16069698D01*
X16286848Y-16069698D02*
X16248753Y-16069698D01*
X16248753Y-16069698D02*
X16229706Y-16079222D01*
X16229706Y-16079222D02*
X16220182Y-16088746D01*
X16220182Y-16088746D02*
X16210658Y-16107793D01*
X16210658Y-16107793D02*
X16210658Y-16145888D01*
X16210658Y-16145888D02*
X16220182Y-16164936D01*
X16220182Y-16164936D02*
X16229706Y-16174460D01*
X16229706Y-16174460D02*
X16248753Y-16183984D01*
X16248753Y-16183984D02*
X16286848Y-16183984D01*
X16286848Y-16183984D02*
X16305896Y-16174460D01*
X16305896Y-16174460D02*
X16315420Y-16164936D01*
X16315420Y-16164936D02*
X16324944Y-16145888D01*
X16324944Y-16145888D02*
X16324944Y-16107793D01*
X16324944Y-16107793D02*
X16315420Y-16088746D01*
X16315420Y-16088746D02*
X16305896Y-16079222D01*
X16305896Y-16079222D02*
X16286848Y-16069698D01*
X16401134Y-15983984D02*
X16401134Y-16022079D01*
X16477325Y-15983984D02*
X16477325Y-16022079D01*
X16772563Y-16260174D02*
X16763039Y-16250650D01*
X16763039Y-16250650D02*
X16743991Y-16222079D01*
X16743991Y-16222079D02*
X16734468Y-16203031D01*
X16734468Y-16203031D02*
X16724944Y-16174460D01*
X16724944Y-16174460D02*
X16715420Y-16126841D01*
X16715420Y-16126841D02*
X16715420Y-16088746D01*
X16715420Y-16088746D02*
X16724944Y-16041127D01*
X16724944Y-16041127D02*
X16734468Y-16012555D01*
X16734468Y-16012555D02*
X16743991Y-15993508D01*
X16743991Y-15993508D02*
X16763039Y-15964936D01*
X16763039Y-15964936D02*
X16772563Y-15955412D01*
X16877325Y-16069698D02*
X16858277Y-16060174D01*
X16858277Y-16060174D02*
X16848753Y-16050650D01*
X16848753Y-16050650D02*
X16839230Y-16031603D01*
X16839230Y-16031603D02*
X16839230Y-16022079D01*
X16839230Y-16022079D02*
X16848753Y-16003031D01*
X16848753Y-16003031D02*
X16858277Y-15993508D01*
X16858277Y-15993508D02*
X16877325Y-15983984D01*
X16877325Y-15983984D02*
X16915420Y-15983984D01*
X16915420Y-15983984D02*
X16934468Y-15993508D01*
X16934468Y-15993508D02*
X16943991Y-16003031D01*
X16943991Y-16003031D02*
X16953515Y-16022079D01*
X16953515Y-16022079D02*
X16953515Y-16031603D01*
X16953515Y-16031603D02*
X16943991Y-16050650D01*
X16943991Y-16050650D02*
X16934468Y-16060174D01*
X16934468Y-16060174D02*
X16915420Y-16069698D01*
X16915420Y-16069698D02*
X16877325Y-16069698D01*
X16877325Y-16069698D02*
X16858277Y-16079222D01*
X16858277Y-16079222D02*
X16848753Y-16088746D01*
X16848753Y-16088746D02*
X16839230Y-16107793D01*
X16839230Y-16107793D02*
X16839230Y-16145888D01*
X16839230Y-16145888D02*
X16848753Y-16164936D01*
X16848753Y-16164936D02*
X16858277Y-16174460D01*
X16858277Y-16174460D02*
X16877325Y-16183984D01*
X16877325Y-16183984D02*
X16915420Y-16183984D01*
X16915420Y-16183984D02*
X16934468Y-16174460D01*
X16934468Y-16174460D02*
X16943991Y-16164936D01*
X16943991Y-16164936D02*
X16953515Y-16145888D01*
X16953515Y-16145888D02*
X16953515Y-16107793D01*
X16953515Y-16107793D02*
X16943991Y-16088746D01*
X16943991Y-16088746D02*
X16934468Y-16079222D01*
X16934468Y-16079222D02*
X16915420Y-16069698D01*
X17124944Y-15983984D02*
X17086849Y-15983984D01*
X17086849Y-15983984D02*
X17067801Y-15993508D01*
X17067801Y-15993508D02*
X17058277Y-16003031D01*
X17058277Y-16003031D02*
X17039230Y-16031603D01*
X17039230Y-16031603D02*
X17029706Y-16069698D01*
X17029706Y-16069698D02*
X17029706Y-16145888D01*
X17029706Y-16145888D02*
X17039230Y-16164936D01*
X17039230Y-16164936D02*
X17048753Y-16174460D01*
X17048753Y-16174460D02*
X17067801Y-16183984D01*
X17067801Y-16183984D02*
X17105896Y-16183984D01*
X17105896Y-16183984D02*
X17124944Y-16174460D01*
X17124944Y-16174460D02*
X17134468Y-16164936D01*
X17134468Y-16164936D02*
X17143991Y-16145888D01*
X17143991Y-16145888D02*
X17143991Y-16098269D01*
X17143991Y-16098269D02*
X17134468Y-16079222D01*
X17134468Y-16079222D02*
X17124944Y-16069698D01*
X17124944Y-16069698D02*
X17105896Y-16060174D01*
X17105896Y-16060174D02*
X17067801Y-16060174D01*
X17067801Y-16060174D02*
X17048753Y-16069698D01*
X17048753Y-16069698D02*
X17039230Y-16079222D01*
X17039230Y-16079222D02*
X17029706Y-16098269D01*
X17382087Y-16183984D02*
X17382087Y-15983984D01*
X17467801Y-16183984D02*
X17467801Y-16079222D01*
X17467801Y-16079222D02*
X17458277Y-16060174D01*
X17458277Y-16060174D02*
X17439230Y-16050650D01*
X17439230Y-16050650D02*
X17410658Y-16050650D01*
X17410658Y-16050650D02*
X17391611Y-16060174D01*
X17391611Y-16060174D02*
X17382087Y-16069698D01*
X17591611Y-16183984D02*
X17572563Y-16174460D01*
X17572563Y-16174460D02*
X17563039Y-16164936D01*
X17563039Y-16164936D02*
X17553515Y-16145888D01*
X17553515Y-16145888D02*
X17553515Y-16088746D01*
X17553515Y-16088746D02*
X17563039Y-16069698D01*
X17563039Y-16069698D02*
X17572563Y-16060174D01*
X17572563Y-16060174D02*
X17591611Y-16050650D01*
X17591611Y-16050650D02*
X17620182Y-16050650D01*
X17620182Y-16050650D02*
X17639230Y-16060174D01*
X17639230Y-16060174D02*
X17648753Y-16069698D01*
X17648753Y-16069698D02*
X17658277Y-16088746D01*
X17658277Y-16088746D02*
X17658277Y-16145888D01*
X17658277Y-16145888D02*
X17648753Y-16164936D01*
X17648753Y-16164936D02*
X17639230Y-16174460D01*
X17639230Y-16174460D02*
X17620182Y-16183984D01*
X17620182Y-16183984D02*
X17591611Y-16183984D01*
X17772563Y-16183984D02*
X17753515Y-16174460D01*
X17753515Y-16174460D02*
X17743992Y-16155412D01*
X17743992Y-16155412D02*
X17743992Y-15983984D01*
X17924944Y-16174460D02*
X17905896Y-16183984D01*
X17905896Y-16183984D02*
X17867801Y-16183984D01*
X17867801Y-16183984D02*
X17848753Y-16174460D01*
X17848753Y-16174460D02*
X17839230Y-16155412D01*
X17839230Y-16155412D02*
X17839230Y-16079222D01*
X17839230Y-16079222D02*
X17848753Y-16060174D01*
X17848753Y-16060174D02*
X17867801Y-16050650D01*
X17867801Y-16050650D02*
X17905896Y-16050650D01*
X17905896Y-16050650D02*
X17924944Y-16060174D01*
X17924944Y-16060174D02*
X17934468Y-16079222D01*
X17934468Y-16079222D02*
X17934468Y-16098269D01*
X17934468Y-16098269D02*
X17839230Y-16117317D01*
X18010658Y-16174460D02*
X18029706Y-16183984D01*
X18029706Y-16183984D02*
X18067801Y-16183984D01*
X18067801Y-16183984D02*
X18086849Y-16174460D01*
X18086849Y-16174460D02*
X18096373Y-16155412D01*
X18096373Y-16155412D02*
X18096373Y-16145888D01*
X18096373Y-16145888D02*
X18086849Y-16126841D01*
X18086849Y-16126841D02*
X18067801Y-16117317D01*
X18067801Y-16117317D02*
X18039230Y-16117317D01*
X18039230Y-16117317D02*
X18020182Y-16107793D01*
X18020182Y-16107793D02*
X18010658Y-16088746D01*
X18010658Y-16088746D02*
X18010658Y-16079222D01*
X18010658Y-16079222D02*
X18020182Y-16060174D01*
X18020182Y-16060174D02*
X18039230Y-16050650D01*
X18039230Y-16050650D02*
X18067801Y-16050650D01*
X18067801Y-16050650D02*
X18086849Y-16060174D01*
X18163039Y-16260174D02*
X18172563Y-16250650D01*
X18172563Y-16250650D02*
X18191611Y-16222079D01*
X18191611Y-16222079D02*
X18201134Y-16203031D01*
X18201134Y-16203031D02*
X18210658Y-16174460D01*
X18210658Y-16174460D02*
X18220182Y-16126841D01*
X18220182Y-16126841D02*
X18220182Y-16088746D01*
X18220182Y-16088746D02*
X18210658Y-16041127D01*
X18210658Y-16041127D02*
X18201134Y-16012555D01*
X18201134Y-16012555D02*
X18191611Y-15993508D01*
X18191611Y-15993508D02*
X18172563Y-15964936D01*
X18172563Y-15964936D02*
X18163039Y-15955412D01*
D12*
X13197500Y-16356500D02*
G75*
G02*
X13117500Y-16356500I-40000J0D01*
G01*
X13117500Y-16356500D02*
G75*
G02*
X13197500Y-16356500I40000J0D01*
G01*
D11*
X13496372Y-16247984D02*
X13515420Y-16247984D01*
X13515420Y-16247984D02*
X13534467Y-16257508D01*
X13534467Y-16257508D02*
X13543991Y-16267031D01*
X13543991Y-16267031D02*
X13553515Y-16286079D01*
X13553515Y-16286079D02*
X13563039Y-16324174D01*
X13563039Y-16324174D02*
X13563039Y-16371793D01*
X13563039Y-16371793D02*
X13553515Y-16409888D01*
X13553515Y-16409888D02*
X13543991Y-16428936D01*
X13543991Y-16428936D02*
X13534467Y-16438460D01*
X13534467Y-16438460D02*
X13515420Y-16447984D01*
X13515420Y-16447984D02*
X13496372Y-16447984D01*
X13496372Y-16447984D02*
X13477324Y-16438460D01*
X13477324Y-16438460D02*
X13467801Y-16428936D01*
X13467801Y-16428936D02*
X13458277Y-16409888D01*
X13458277Y-16409888D02*
X13448753Y-16371793D01*
X13448753Y-16371793D02*
X13448753Y-16324174D01*
X13448753Y-16324174D02*
X13458277Y-16286079D01*
X13458277Y-16286079D02*
X13467801Y-16267031D01*
X13467801Y-16267031D02*
X13477324Y-16257508D01*
X13477324Y-16257508D02*
X13496372Y-16247984D01*
X13648753Y-16428936D02*
X13658277Y-16438460D01*
X13658277Y-16438460D02*
X13648753Y-16447984D01*
X13648753Y-16447984D02*
X13639229Y-16438460D01*
X13639229Y-16438460D02*
X13648753Y-16428936D01*
X13648753Y-16428936D02*
X13648753Y-16447984D01*
X13772562Y-16333698D02*
X13753515Y-16324174D01*
X13753515Y-16324174D02*
X13743991Y-16314650D01*
X13743991Y-16314650D02*
X13734467Y-16295603D01*
X13734467Y-16295603D02*
X13734467Y-16286079D01*
X13734467Y-16286079D02*
X13743991Y-16267031D01*
X13743991Y-16267031D02*
X13753515Y-16257508D01*
X13753515Y-16257508D02*
X13772562Y-16247984D01*
X13772562Y-16247984D02*
X13810658Y-16247984D01*
X13810658Y-16247984D02*
X13829705Y-16257508D01*
X13829705Y-16257508D02*
X13839229Y-16267031D01*
X13839229Y-16267031D02*
X13848753Y-16286079D01*
X13848753Y-16286079D02*
X13848753Y-16295603D01*
X13848753Y-16295603D02*
X13839229Y-16314650D01*
X13839229Y-16314650D02*
X13829705Y-16324174D01*
X13829705Y-16324174D02*
X13810658Y-16333698D01*
X13810658Y-16333698D02*
X13772562Y-16333698D01*
X13772562Y-16333698D02*
X13753515Y-16343222D01*
X13753515Y-16343222D02*
X13743991Y-16352746D01*
X13743991Y-16352746D02*
X13734467Y-16371793D01*
X13734467Y-16371793D02*
X13734467Y-16409888D01*
X13734467Y-16409888D02*
X13743991Y-16428936D01*
X13743991Y-16428936D02*
X13753515Y-16438460D01*
X13753515Y-16438460D02*
X13772562Y-16447984D01*
X13772562Y-16447984D02*
X13810658Y-16447984D01*
X13810658Y-16447984D02*
X13829705Y-16438460D01*
X13829705Y-16438460D02*
X13839229Y-16428936D01*
X13839229Y-16428936D02*
X13848753Y-16409888D01*
X13848753Y-16409888D02*
X13848753Y-16371793D01*
X13848753Y-16371793D02*
X13839229Y-16352746D01*
X13839229Y-16352746D02*
X13829705Y-16343222D01*
X13829705Y-16343222D02*
X13810658Y-16333698D01*
X13972562Y-16247984D02*
X13991610Y-16247984D01*
X13991610Y-16247984D02*
X14010658Y-16257508D01*
X14010658Y-16257508D02*
X14020182Y-16267031D01*
X14020182Y-16267031D02*
X14029705Y-16286079D01*
X14029705Y-16286079D02*
X14039229Y-16324174D01*
X14039229Y-16324174D02*
X14039229Y-16371793D01*
X14039229Y-16371793D02*
X14029705Y-16409888D01*
X14029705Y-16409888D02*
X14020182Y-16428936D01*
X14020182Y-16428936D02*
X14010658Y-16438460D01*
X14010658Y-16438460D02*
X13991610Y-16447984D01*
X13991610Y-16447984D02*
X13972562Y-16447984D01*
X13972562Y-16447984D02*
X13953515Y-16438460D01*
X13953515Y-16438460D02*
X13943991Y-16428936D01*
X13943991Y-16428936D02*
X13934467Y-16409888D01*
X13934467Y-16409888D02*
X13924943Y-16371793D01*
X13924943Y-16371793D02*
X13924943Y-16324174D01*
X13924943Y-16324174D02*
X13934467Y-16286079D01*
X13934467Y-16286079D02*
X13943991Y-16267031D01*
X13943991Y-16267031D02*
X13953515Y-16257508D01*
X13953515Y-16257508D02*
X13972562Y-16247984D01*
X14163039Y-16247984D02*
X14182086Y-16247984D01*
X14182086Y-16247984D02*
X14201134Y-16257508D01*
X14201134Y-16257508D02*
X14210658Y-16267031D01*
X14210658Y-16267031D02*
X14220182Y-16286079D01*
X14220182Y-16286079D02*
X14229705Y-16324174D01*
X14229705Y-16324174D02*
X14229705Y-16371793D01*
X14229705Y-16371793D02*
X14220182Y-16409888D01*
X14220182Y-16409888D02*
X14210658Y-16428936D01*
X14210658Y-16428936D02*
X14201134Y-16438460D01*
X14201134Y-16438460D02*
X14182086Y-16447984D01*
X14182086Y-16447984D02*
X14163039Y-16447984D01*
X14163039Y-16447984D02*
X14143991Y-16438460D01*
X14143991Y-16438460D02*
X14134467Y-16428936D01*
X14134467Y-16428936D02*
X14124943Y-16409888D01*
X14124943Y-16409888D02*
X14115420Y-16371793D01*
X14115420Y-16371793D02*
X14115420Y-16324174D01*
X14115420Y-16324174D02*
X14124943Y-16286079D01*
X14124943Y-16286079D02*
X14134467Y-16267031D01*
X14134467Y-16267031D02*
X14143991Y-16257508D01*
X14143991Y-16257508D02*
X14163039Y-16247984D01*
X14315420Y-16447984D02*
X14315420Y-16314650D01*
X14315420Y-16333698D02*
X14324943Y-16324174D01*
X14324943Y-16324174D02*
X14343991Y-16314650D01*
X14343991Y-16314650D02*
X14372563Y-16314650D01*
X14372563Y-16314650D02*
X14391610Y-16324174D01*
X14391610Y-16324174D02*
X14401134Y-16343222D01*
X14401134Y-16343222D02*
X14401134Y-16447984D01*
X14401134Y-16343222D02*
X14410658Y-16324174D01*
X14410658Y-16324174D02*
X14429705Y-16314650D01*
X14429705Y-16314650D02*
X14458277Y-16314650D01*
X14458277Y-16314650D02*
X14477324Y-16324174D01*
X14477324Y-16324174D02*
X14486848Y-16343222D01*
X14486848Y-16343222D02*
X14486848Y-16447984D01*
X14582086Y-16447984D02*
X14582086Y-16314650D01*
X14582086Y-16333698D02*
X14591610Y-16324174D01*
X14591610Y-16324174D02*
X14610658Y-16314650D01*
X14610658Y-16314650D02*
X14639229Y-16314650D01*
X14639229Y-16314650D02*
X14658277Y-16324174D01*
X14658277Y-16324174D02*
X14667801Y-16343222D01*
X14667801Y-16343222D02*
X14667801Y-16447984D01*
X14667801Y-16343222D02*
X14677324Y-16324174D01*
X14677324Y-16324174D02*
X14696372Y-16314650D01*
X14696372Y-16314650D02*
X14724943Y-16314650D01*
X14724943Y-16314650D02*
X14743991Y-16324174D01*
X14743991Y-16324174D02*
X14753515Y-16343222D01*
X14753515Y-16343222D02*
X14753515Y-16447984D01*
X15143991Y-16238460D02*
X14972563Y-16495603D01*
X15401134Y-16247984D02*
X15420182Y-16247984D01*
X15420182Y-16247984D02*
X15439229Y-16257508D01*
X15439229Y-16257508D02*
X15448753Y-16267031D01*
X15448753Y-16267031D02*
X15458277Y-16286079D01*
X15458277Y-16286079D02*
X15467801Y-16324174D01*
X15467801Y-16324174D02*
X15467801Y-16371793D01*
X15467801Y-16371793D02*
X15458277Y-16409888D01*
X15458277Y-16409888D02*
X15448753Y-16428936D01*
X15448753Y-16428936D02*
X15439229Y-16438460D01*
X15439229Y-16438460D02*
X15420182Y-16447984D01*
X15420182Y-16447984D02*
X15401134Y-16447984D01*
X15401134Y-16447984D02*
X15382086Y-16438460D01*
X15382086Y-16438460D02*
X15372563Y-16428936D01*
X15372563Y-16428936D02*
X15363039Y-16409888D01*
X15363039Y-16409888D02*
X15353515Y-16371793D01*
X15353515Y-16371793D02*
X15353515Y-16324174D01*
X15353515Y-16324174D02*
X15363039Y-16286079D01*
X15363039Y-16286079D02*
X15372563Y-16267031D01*
X15372563Y-16267031D02*
X15382086Y-16257508D01*
X15382086Y-16257508D02*
X15401134Y-16247984D01*
X15553515Y-16428936D02*
X15563039Y-16438460D01*
X15563039Y-16438460D02*
X15553515Y-16447984D01*
X15553515Y-16447984D02*
X15543991Y-16438460D01*
X15543991Y-16438460D02*
X15553515Y-16428936D01*
X15553515Y-16428936D02*
X15553515Y-16447984D01*
X15686848Y-16247984D02*
X15705896Y-16247984D01*
X15705896Y-16247984D02*
X15724944Y-16257508D01*
X15724944Y-16257508D02*
X15734467Y-16267031D01*
X15734467Y-16267031D02*
X15743991Y-16286079D01*
X15743991Y-16286079D02*
X15753515Y-16324174D01*
X15753515Y-16324174D02*
X15753515Y-16371793D01*
X15753515Y-16371793D02*
X15743991Y-16409888D01*
X15743991Y-16409888D02*
X15734467Y-16428936D01*
X15734467Y-16428936D02*
X15724944Y-16438460D01*
X15724944Y-16438460D02*
X15705896Y-16447984D01*
X15705896Y-16447984D02*
X15686848Y-16447984D01*
X15686848Y-16447984D02*
X15667801Y-16438460D01*
X15667801Y-16438460D02*
X15658277Y-16428936D01*
X15658277Y-16428936D02*
X15648753Y-16409888D01*
X15648753Y-16409888D02*
X15639229Y-16371793D01*
X15639229Y-16371793D02*
X15639229Y-16324174D01*
X15639229Y-16324174D02*
X15648753Y-16286079D01*
X15648753Y-16286079D02*
X15658277Y-16267031D01*
X15658277Y-16267031D02*
X15667801Y-16257508D01*
X15667801Y-16257508D02*
X15686848Y-16247984D01*
X15820182Y-16247984D02*
X15943991Y-16247984D01*
X15943991Y-16247984D02*
X15877325Y-16324174D01*
X15877325Y-16324174D02*
X15905896Y-16324174D01*
X15905896Y-16324174D02*
X15924944Y-16333698D01*
X15924944Y-16333698D02*
X15934467Y-16343222D01*
X15934467Y-16343222D02*
X15943991Y-16362269D01*
X15943991Y-16362269D02*
X15943991Y-16409888D01*
X15943991Y-16409888D02*
X15934467Y-16428936D01*
X15934467Y-16428936D02*
X15924944Y-16438460D01*
X15924944Y-16438460D02*
X15905896Y-16447984D01*
X15905896Y-16447984D02*
X15848753Y-16447984D01*
X15848753Y-16447984D02*
X15829706Y-16438460D01*
X15829706Y-16438460D02*
X15820182Y-16428936D01*
X16134467Y-16447984D02*
X16020182Y-16447984D01*
X16077325Y-16447984D02*
X16077325Y-16247984D01*
X16077325Y-16247984D02*
X16058277Y-16276555D01*
X16058277Y-16276555D02*
X16039229Y-16295603D01*
X16039229Y-16295603D02*
X16020182Y-16305127D01*
X16315420Y-16247984D02*
X16220182Y-16247984D01*
X16220182Y-16247984D02*
X16210658Y-16343222D01*
X16210658Y-16343222D02*
X16220182Y-16333698D01*
X16220182Y-16333698D02*
X16239229Y-16324174D01*
X16239229Y-16324174D02*
X16286848Y-16324174D01*
X16286848Y-16324174D02*
X16305896Y-16333698D01*
X16305896Y-16333698D02*
X16315420Y-16343222D01*
X16315420Y-16343222D02*
X16324944Y-16362269D01*
X16324944Y-16362269D02*
X16324944Y-16409888D01*
X16324944Y-16409888D02*
X16315420Y-16428936D01*
X16315420Y-16428936D02*
X16305896Y-16438460D01*
X16305896Y-16438460D02*
X16286848Y-16447984D01*
X16286848Y-16447984D02*
X16239229Y-16447984D01*
X16239229Y-16447984D02*
X16220182Y-16438460D01*
X16220182Y-16438460D02*
X16210658Y-16428936D01*
X16401134Y-16247984D02*
X16401134Y-16286079D01*
X16477325Y-16247984D02*
X16477325Y-16286079D01*
X16772563Y-16524174D02*
X16763039Y-16514650D01*
X16763039Y-16514650D02*
X16743991Y-16486079D01*
X16743991Y-16486079D02*
X16734468Y-16467031D01*
X16734468Y-16467031D02*
X16724944Y-16438460D01*
X16724944Y-16438460D02*
X16715420Y-16390841D01*
X16715420Y-16390841D02*
X16715420Y-16352746D01*
X16715420Y-16352746D02*
X16724944Y-16305127D01*
X16724944Y-16305127D02*
X16734468Y-16276555D01*
X16734468Y-16276555D02*
X16743991Y-16257508D01*
X16743991Y-16257508D02*
X16763039Y-16228936D01*
X16763039Y-16228936D02*
X16772563Y-16219412D01*
X16934468Y-16247984D02*
X16896372Y-16247984D01*
X16896372Y-16247984D02*
X16877325Y-16257508D01*
X16877325Y-16257508D02*
X16867801Y-16267031D01*
X16867801Y-16267031D02*
X16848753Y-16295603D01*
X16848753Y-16295603D02*
X16839230Y-16333698D01*
X16839230Y-16333698D02*
X16839230Y-16409888D01*
X16839230Y-16409888D02*
X16848753Y-16428936D01*
X16848753Y-16428936D02*
X16858277Y-16438460D01*
X16858277Y-16438460D02*
X16877325Y-16447984D01*
X16877325Y-16447984D02*
X16915420Y-16447984D01*
X16915420Y-16447984D02*
X16934468Y-16438460D01*
X16934468Y-16438460D02*
X16943991Y-16428936D01*
X16943991Y-16428936D02*
X16953515Y-16409888D01*
X16953515Y-16409888D02*
X16953515Y-16362269D01*
X16953515Y-16362269D02*
X16943991Y-16343222D01*
X16943991Y-16343222D02*
X16934468Y-16333698D01*
X16934468Y-16333698D02*
X16915420Y-16324174D01*
X16915420Y-16324174D02*
X16877325Y-16324174D01*
X16877325Y-16324174D02*
X16858277Y-16333698D01*
X16858277Y-16333698D02*
X16848753Y-16343222D01*
X16848753Y-16343222D02*
X16839230Y-16362269D01*
X17191611Y-16447984D02*
X17191611Y-16247984D01*
X17277325Y-16447984D02*
X17277325Y-16343222D01*
X17277325Y-16343222D02*
X17267801Y-16324174D01*
X17267801Y-16324174D02*
X17248753Y-16314650D01*
X17248753Y-16314650D02*
X17220182Y-16314650D01*
X17220182Y-16314650D02*
X17201134Y-16324174D01*
X17201134Y-16324174D02*
X17191611Y-16333698D01*
X17401134Y-16447984D02*
X17382087Y-16438460D01*
X17382087Y-16438460D02*
X17372563Y-16428936D01*
X17372563Y-16428936D02*
X17363039Y-16409888D01*
X17363039Y-16409888D02*
X17363039Y-16352746D01*
X17363039Y-16352746D02*
X17372563Y-16333698D01*
X17372563Y-16333698D02*
X17382087Y-16324174D01*
X17382087Y-16324174D02*
X17401134Y-16314650D01*
X17401134Y-16314650D02*
X17429706Y-16314650D01*
X17429706Y-16314650D02*
X17448753Y-16324174D01*
X17448753Y-16324174D02*
X17458277Y-16333698D01*
X17458277Y-16333698D02*
X17467801Y-16352746D01*
X17467801Y-16352746D02*
X17467801Y-16409888D01*
X17467801Y-16409888D02*
X17458277Y-16428936D01*
X17458277Y-16428936D02*
X17448753Y-16438460D01*
X17448753Y-16438460D02*
X17429706Y-16447984D01*
X17429706Y-16447984D02*
X17401134Y-16447984D01*
X17582087Y-16447984D02*
X17563039Y-16438460D01*
X17563039Y-16438460D02*
X17553515Y-16419412D01*
X17553515Y-16419412D02*
X17553515Y-16247984D01*
X17734468Y-16438460D02*
X17715420Y-16447984D01*
X17715420Y-16447984D02*
X17677325Y-16447984D01*
X17677325Y-16447984D02*
X17658277Y-16438460D01*
X17658277Y-16438460D02*
X17648753Y-16419412D01*
X17648753Y-16419412D02*
X17648753Y-16343222D01*
X17648753Y-16343222D02*
X17658277Y-16324174D01*
X17658277Y-16324174D02*
X17677325Y-16314650D01*
X17677325Y-16314650D02*
X17715420Y-16314650D01*
X17715420Y-16314650D02*
X17734468Y-16324174D01*
X17734468Y-16324174D02*
X17743992Y-16343222D01*
X17743992Y-16343222D02*
X17743992Y-16362269D01*
X17743992Y-16362269D02*
X17648753Y-16381317D01*
X17820182Y-16438460D02*
X17839230Y-16447984D01*
X17839230Y-16447984D02*
X17877325Y-16447984D01*
X17877325Y-16447984D02*
X17896373Y-16438460D01*
X17896373Y-16438460D02*
X17905896Y-16419412D01*
X17905896Y-16419412D02*
X17905896Y-16409888D01*
X17905896Y-16409888D02*
X17896373Y-16390841D01*
X17896373Y-16390841D02*
X17877325Y-16381317D01*
X17877325Y-16381317D02*
X17848753Y-16381317D01*
X17848753Y-16381317D02*
X17829706Y-16371793D01*
X17829706Y-16371793D02*
X17820182Y-16352746D01*
X17820182Y-16352746D02*
X17820182Y-16343222D01*
X17820182Y-16343222D02*
X17829706Y-16324174D01*
X17829706Y-16324174D02*
X17848753Y-16314650D01*
X17848753Y-16314650D02*
X17877325Y-16314650D01*
X17877325Y-16314650D02*
X17896373Y-16324174D01*
X17972563Y-16524174D02*
X17982087Y-16514650D01*
X17982087Y-16514650D02*
X18001134Y-16486079D01*
X18001134Y-16486079D02*
X18010658Y-16467031D01*
X18010658Y-16467031D02*
X18020182Y-16438460D01*
X18020182Y-16438460D02*
X18029706Y-16390841D01*
X18029706Y-16390841D02*
X18029706Y-16352746D01*
X18029706Y-16352746D02*
X18020182Y-16305127D01*
X18020182Y-16305127D02*
X18010658Y-16276555D01*
X18010658Y-16276555D02*
X18001134Y-16257508D01*
X18001134Y-16257508D02*
X17982087Y-16228936D01*
X17982087Y-16228936D02*
X17972563Y-16219412D01*
D12*
X13147500Y-16570500D02*
X13147500Y-16670500D01*
X13097500Y-16620500D02*
X13197500Y-16620500D01*
D11*
X13563039Y-16711984D02*
X13448753Y-16711984D01*
X13505896Y-16711984D02*
X13505896Y-16511984D01*
X13505896Y-16511984D02*
X13486848Y-16540555D01*
X13486848Y-16540555D02*
X13467801Y-16559603D01*
X13467801Y-16559603D02*
X13448753Y-16569127D01*
X13648753Y-16692936D02*
X13658277Y-16702460D01*
X13658277Y-16702460D02*
X13648753Y-16711984D01*
X13648753Y-16711984D02*
X13639229Y-16702460D01*
X13639229Y-16702460D02*
X13648753Y-16692936D01*
X13648753Y-16692936D02*
X13648753Y-16711984D01*
X13782086Y-16511984D02*
X13801134Y-16511984D01*
X13801134Y-16511984D02*
X13820182Y-16521508D01*
X13820182Y-16521508D02*
X13829705Y-16531031D01*
X13829705Y-16531031D02*
X13839229Y-16550079D01*
X13839229Y-16550079D02*
X13848753Y-16588174D01*
X13848753Y-16588174D02*
X13848753Y-16635793D01*
X13848753Y-16635793D02*
X13839229Y-16673888D01*
X13839229Y-16673888D02*
X13829705Y-16692936D01*
X13829705Y-16692936D02*
X13820182Y-16702460D01*
X13820182Y-16702460D02*
X13801134Y-16711984D01*
X13801134Y-16711984D02*
X13782086Y-16711984D01*
X13782086Y-16711984D02*
X13763039Y-16702460D01*
X13763039Y-16702460D02*
X13753515Y-16692936D01*
X13753515Y-16692936D02*
X13743991Y-16673888D01*
X13743991Y-16673888D02*
X13734467Y-16635793D01*
X13734467Y-16635793D02*
X13734467Y-16588174D01*
X13734467Y-16588174D02*
X13743991Y-16550079D01*
X13743991Y-16550079D02*
X13753515Y-16531031D01*
X13753515Y-16531031D02*
X13763039Y-16521508D01*
X13763039Y-16521508D02*
X13782086Y-16511984D01*
X13972562Y-16511984D02*
X13991610Y-16511984D01*
X13991610Y-16511984D02*
X14010658Y-16521508D01*
X14010658Y-16521508D02*
X14020182Y-16531031D01*
X14020182Y-16531031D02*
X14029705Y-16550079D01*
X14029705Y-16550079D02*
X14039229Y-16588174D01*
X14039229Y-16588174D02*
X14039229Y-16635793D01*
X14039229Y-16635793D02*
X14029705Y-16673888D01*
X14029705Y-16673888D02*
X14020182Y-16692936D01*
X14020182Y-16692936D02*
X14010658Y-16702460D01*
X14010658Y-16702460D02*
X13991610Y-16711984D01*
X13991610Y-16711984D02*
X13972562Y-16711984D01*
X13972562Y-16711984D02*
X13953515Y-16702460D01*
X13953515Y-16702460D02*
X13943991Y-16692936D01*
X13943991Y-16692936D02*
X13934467Y-16673888D01*
X13934467Y-16673888D02*
X13924943Y-16635793D01*
X13924943Y-16635793D02*
X13924943Y-16588174D01*
X13924943Y-16588174D02*
X13934467Y-16550079D01*
X13934467Y-16550079D02*
X13943991Y-16531031D01*
X13943991Y-16531031D02*
X13953515Y-16521508D01*
X13953515Y-16521508D02*
X13972562Y-16511984D01*
X14163039Y-16511984D02*
X14182086Y-16511984D01*
X14182086Y-16511984D02*
X14201134Y-16521508D01*
X14201134Y-16521508D02*
X14210658Y-16531031D01*
X14210658Y-16531031D02*
X14220182Y-16550079D01*
X14220182Y-16550079D02*
X14229705Y-16588174D01*
X14229705Y-16588174D02*
X14229705Y-16635793D01*
X14229705Y-16635793D02*
X14220182Y-16673888D01*
X14220182Y-16673888D02*
X14210658Y-16692936D01*
X14210658Y-16692936D02*
X14201134Y-16702460D01*
X14201134Y-16702460D02*
X14182086Y-16711984D01*
X14182086Y-16711984D02*
X14163039Y-16711984D01*
X14163039Y-16711984D02*
X14143991Y-16702460D01*
X14143991Y-16702460D02*
X14134467Y-16692936D01*
X14134467Y-16692936D02*
X14124943Y-16673888D01*
X14124943Y-16673888D02*
X14115420Y-16635793D01*
X14115420Y-16635793D02*
X14115420Y-16588174D01*
X14115420Y-16588174D02*
X14124943Y-16550079D01*
X14124943Y-16550079D02*
X14134467Y-16531031D01*
X14134467Y-16531031D02*
X14143991Y-16521508D01*
X14143991Y-16521508D02*
X14163039Y-16511984D01*
X14315420Y-16711984D02*
X14315420Y-16578650D01*
X14315420Y-16597698D02*
X14324943Y-16588174D01*
X14324943Y-16588174D02*
X14343991Y-16578650D01*
X14343991Y-16578650D02*
X14372563Y-16578650D01*
X14372563Y-16578650D02*
X14391610Y-16588174D01*
X14391610Y-16588174D02*
X14401134Y-16607222D01*
X14401134Y-16607222D02*
X14401134Y-16711984D01*
X14401134Y-16607222D02*
X14410658Y-16588174D01*
X14410658Y-16588174D02*
X14429705Y-16578650D01*
X14429705Y-16578650D02*
X14458277Y-16578650D01*
X14458277Y-16578650D02*
X14477324Y-16588174D01*
X14477324Y-16588174D02*
X14486848Y-16607222D01*
X14486848Y-16607222D02*
X14486848Y-16711984D01*
X14582086Y-16711984D02*
X14582086Y-16578650D01*
X14582086Y-16597698D02*
X14591610Y-16588174D01*
X14591610Y-16588174D02*
X14610658Y-16578650D01*
X14610658Y-16578650D02*
X14639229Y-16578650D01*
X14639229Y-16578650D02*
X14658277Y-16588174D01*
X14658277Y-16588174D02*
X14667801Y-16607222D01*
X14667801Y-16607222D02*
X14667801Y-16711984D01*
X14667801Y-16607222D02*
X14677324Y-16588174D01*
X14677324Y-16588174D02*
X14696372Y-16578650D01*
X14696372Y-16578650D02*
X14724943Y-16578650D01*
X14724943Y-16578650D02*
X14743991Y-16588174D01*
X14743991Y-16588174D02*
X14753515Y-16607222D01*
X14753515Y-16607222D02*
X14753515Y-16711984D01*
X15143991Y-16502460D02*
X14972563Y-16759603D01*
X15401134Y-16511984D02*
X15420182Y-16511984D01*
X15420182Y-16511984D02*
X15439229Y-16521508D01*
X15439229Y-16521508D02*
X15448753Y-16531031D01*
X15448753Y-16531031D02*
X15458277Y-16550079D01*
X15458277Y-16550079D02*
X15467801Y-16588174D01*
X15467801Y-16588174D02*
X15467801Y-16635793D01*
X15467801Y-16635793D02*
X15458277Y-16673888D01*
X15458277Y-16673888D02*
X15448753Y-16692936D01*
X15448753Y-16692936D02*
X15439229Y-16702460D01*
X15439229Y-16702460D02*
X15420182Y-16711984D01*
X15420182Y-16711984D02*
X15401134Y-16711984D01*
X15401134Y-16711984D02*
X15382086Y-16702460D01*
X15382086Y-16702460D02*
X15372563Y-16692936D01*
X15372563Y-16692936D02*
X15363039Y-16673888D01*
X15363039Y-16673888D02*
X15353515Y-16635793D01*
X15353515Y-16635793D02*
X15353515Y-16588174D01*
X15353515Y-16588174D02*
X15363039Y-16550079D01*
X15363039Y-16550079D02*
X15372563Y-16531031D01*
X15372563Y-16531031D02*
X15382086Y-16521508D01*
X15382086Y-16521508D02*
X15401134Y-16511984D01*
X15553515Y-16692936D02*
X15563039Y-16702460D01*
X15563039Y-16702460D02*
X15553515Y-16711984D01*
X15553515Y-16711984D02*
X15543991Y-16702460D01*
X15543991Y-16702460D02*
X15553515Y-16692936D01*
X15553515Y-16692936D02*
X15553515Y-16711984D01*
X15686848Y-16511984D02*
X15705896Y-16511984D01*
X15705896Y-16511984D02*
X15724944Y-16521508D01*
X15724944Y-16521508D02*
X15734467Y-16531031D01*
X15734467Y-16531031D02*
X15743991Y-16550079D01*
X15743991Y-16550079D02*
X15753515Y-16588174D01*
X15753515Y-16588174D02*
X15753515Y-16635793D01*
X15753515Y-16635793D02*
X15743991Y-16673888D01*
X15743991Y-16673888D02*
X15734467Y-16692936D01*
X15734467Y-16692936D02*
X15724944Y-16702460D01*
X15724944Y-16702460D02*
X15705896Y-16711984D01*
X15705896Y-16711984D02*
X15686848Y-16711984D01*
X15686848Y-16711984D02*
X15667801Y-16702460D01*
X15667801Y-16702460D02*
X15658277Y-16692936D01*
X15658277Y-16692936D02*
X15648753Y-16673888D01*
X15648753Y-16673888D02*
X15639229Y-16635793D01*
X15639229Y-16635793D02*
X15639229Y-16588174D01*
X15639229Y-16588174D02*
X15648753Y-16550079D01*
X15648753Y-16550079D02*
X15658277Y-16531031D01*
X15658277Y-16531031D02*
X15667801Y-16521508D01*
X15667801Y-16521508D02*
X15686848Y-16511984D01*
X15820182Y-16511984D02*
X15943991Y-16511984D01*
X15943991Y-16511984D02*
X15877325Y-16588174D01*
X15877325Y-16588174D02*
X15905896Y-16588174D01*
X15905896Y-16588174D02*
X15924944Y-16597698D01*
X15924944Y-16597698D02*
X15934467Y-16607222D01*
X15934467Y-16607222D02*
X15943991Y-16626269D01*
X15943991Y-16626269D02*
X15943991Y-16673888D01*
X15943991Y-16673888D02*
X15934467Y-16692936D01*
X15934467Y-16692936D02*
X15924944Y-16702460D01*
X15924944Y-16702460D02*
X15905896Y-16711984D01*
X15905896Y-16711984D02*
X15848753Y-16711984D01*
X15848753Y-16711984D02*
X15829706Y-16702460D01*
X15829706Y-16702460D02*
X15820182Y-16692936D01*
X16039229Y-16711984D02*
X16077325Y-16711984D01*
X16077325Y-16711984D02*
X16096372Y-16702460D01*
X16096372Y-16702460D02*
X16105896Y-16692936D01*
X16105896Y-16692936D02*
X16124944Y-16664365D01*
X16124944Y-16664365D02*
X16134467Y-16626269D01*
X16134467Y-16626269D02*
X16134467Y-16550079D01*
X16134467Y-16550079D02*
X16124944Y-16531031D01*
X16124944Y-16531031D02*
X16115420Y-16521508D01*
X16115420Y-16521508D02*
X16096372Y-16511984D01*
X16096372Y-16511984D02*
X16058277Y-16511984D01*
X16058277Y-16511984D02*
X16039229Y-16521508D01*
X16039229Y-16521508D02*
X16029706Y-16531031D01*
X16029706Y-16531031D02*
X16020182Y-16550079D01*
X16020182Y-16550079D02*
X16020182Y-16597698D01*
X16020182Y-16597698D02*
X16029706Y-16616746D01*
X16029706Y-16616746D02*
X16039229Y-16626269D01*
X16039229Y-16626269D02*
X16058277Y-16635793D01*
X16058277Y-16635793D02*
X16096372Y-16635793D01*
X16096372Y-16635793D02*
X16115420Y-16626269D01*
X16115420Y-16626269D02*
X16124944Y-16616746D01*
X16124944Y-16616746D02*
X16134467Y-16597698D01*
X16305896Y-16578650D02*
X16305896Y-16711984D01*
X16258277Y-16502460D02*
X16210658Y-16645317D01*
X16210658Y-16645317D02*
X16334467Y-16645317D01*
X16401134Y-16511984D02*
X16401134Y-16550079D01*
X16477325Y-16511984D02*
X16477325Y-16550079D01*
X16772563Y-16788174D02*
X16763039Y-16778650D01*
X16763039Y-16778650D02*
X16743991Y-16750079D01*
X16743991Y-16750079D02*
X16734468Y-16731031D01*
X16734468Y-16731031D02*
X16724944Y-16702460D01*
X16724944Y-16702460D02*
X16715420Y-16654841D01*
X16715420Y-16654841D02*
X16715420Y-16616746D01*
X16715420Y-16616746D02*
X16724944Y-16569127D01*
X16724944Y-16569127D02*
X16734468Y-16540555D01*
X16734468Y-16540555D02*
X16743991Y-16521508D01*
X16743991Y-16521508D02*
X16763039Y-16492936D01*
X16763039Y-16492936D02*
X16772563Y-16483412D01*
X16839230Y-16531031D02*
X16848753Y-16521508D01*
X16848753Y-16521508D02*
X16867801Y-16511984D01*
X16867801Y-16511984D02*
X16915420Y-16511984D01*
X16915420Y-16511984D02*
X16934468Y-16521508D01*
X16934468Y-16521508D02*
X16943991Y-16531031D01*
X16943991Y-16531031D02*
X16953515Y-16550079D01*
X16953515Y-16550079D02*
X16953515Y-16569127D01*
X16953515Y-16569127D02*
X16943991Y-16597698D01*
X16943991Y-16597698D02*
X16829706Y-16711984D01*
X16829706Y-16711984D02*
X16953515Y-16711984D01*
X17029706Y-16531031D02*
X17039230Y-16521508D01*
X17039230Y-16521508D02*
X17058277Y-16511984D01*
X17058277Y-16511984D02*
X17105896Y-16511984D01*
X17105896Y-16511984D02*
X17124944Y-16521508D01*
X17124944Y-16521508D02*
X17134468Y-16531031D01*
X17134468Y-16531031D02*
X17143991Y-16550079D01*
X17143991Y-16550079D02*
X17143991Y-16569127D01*
X17143991Y-16569127D02*
X17134468Y-16597698D01*
X17134468Y-16597698D02*
X17020182Y-16711984D01*
X17020182Y-16711984D02*
X17143991Y-16711984D01*
X17382087Y-16711984D02*
X17382087Y-16511984D01*
X17467801Y-16711984D02*
X17467801Y-16607222D01*
X17467801Y-16607222D02*
X17458277Y-16588174D01*
X17458277Y-16588174D02*
X17439230Y-16578650D01*
X17439230Y-16578650D02*
X17410658Y-16578650D01*
X17410658Y-16578650D02*
X17391611Y-16588174D01*
X17391611Y-16588174D02*
X17382087Y-16597698D01*
X17591611Y-16711984D02*
X17572563Y-16702460D01*
X17572563Y-16702460D02*
X17563039Y-16692936D01*
X17563039Y-16692936D02*
X17553515Y-16673888D01*
X17553515Y-16673888D02*
X17553515Y-16616746D01*
X17553515Y-16616746D02*
X17563039Y-16597698D01*
X17563039Y-16597698D02*
X17572563Y-16588174D01*
X17572563Y-16588174D02*
X17591611Y-16578650D01*
X17591611Y-16578650D02*
X17620182Y-16578650D01*
X17620182Y-16578650D02*
X17639230Y-16588174D01*
X17639230Y-16588174D02*
X17648753Y-16597698D01*
X17648753Y-16597698D02*
X17658277Y-16616746D01*
X17658277Y-16616746D02*
X17658277Y-16673888D01*
X17658277Y-16673888D02*
X17648753Y-16692936D01*
X17648753Y-16692936D02*
X17639230Y-16702460D01*
X17639230Y-16702460D02*
X17620182Y-16711984D01*
X17620182Y-16711984D02*
X17591611Y-16711984D01*
X17772563Y-16711984D02*
X17753515Y-16702460D01*
X17753515Y-16702460D02*
X17743992Y-16683412D01*
X17743992Y-16683412D02*
X17743992Y-16511984D01*
X17924944Y-16702460D02*
X17905896Y-16711984D01*
X17905896Y-16711984D02*
X17867801Y-16711984D01*
X17867801Y-16711984D02*
X17848753Y-16702460D01*
X17848753Y-16702460D02*
X17839230Y-16683412D01*
X17839230Y-16683412D02*
X17839230Y-16607222D01*
X17839230Y-16607222D02*
X17848753Y-16588174D01*
X17848753Y-16588174D02*
X17867801Y-16578650D01*
X17867801Y-16578650D02*
X17905896Y-16578650D01*
X17905896Y-16578650D02*
X17924944Y-16588174D01*
X17924944Y-16588174D02*
X17934468Y-16607222D01*
X17934468Y-16607222D02*
X17934468Y-16626269D01*
X17934468Y-16626269D02*
X17839230Y-16645317D01*
X18010658Y-16702460D02*
X18029706Y-16711984D01*
X18029706Y-16711984D02*
X18067801Y-16711984D01*
X18067801Y-16711984D02*
X18086849Y-16702460D01*
X18086849Y-16702460D02*
X18096373Y-16683412D01*
X18096373Y-16683412D02*
X18096373Y-16673888D01*
X18096373Y-16673888D02*
X18086849Y-16654841D01*
X18086849Y-16654841D02*
X18067801Y-16645317D01*
X18067801Y-16645317D02*
X18039230Y-16645317D01*
X18039230Y-16645317D02*
X18020182Y-16635793D01*
X18020182Y-16635793D02*
X18010658Y-16616746D01*
X18010658Y-16616746D02*
X18010658Y-16607222D01*
X18010658Y-16607222D02*
X18020182Y-16588174D01*
X18020182Y-16588174D02*
X18039230Y-16578650D01*
X18039230Y-16578650D02*
X18067801Y-16578650D01*
X18067801Y-16578650D02*
X18086849Y-16588174D01*
X18163039Y-16788174D02*
X18172563Y-16778650D01*
X18172563Y-16778650D02*
X18191611Y-16750079D01*
X18191611Y-16750079D02*
X18201134Y-16731031D01*
X18201134Y-16731031D02*
X18210658Y-16702460D01*
X18210658Y-16702460D02*
X18220182Y-16654841D01*
X18220182Y-16654841D02*
X18220182Y-16616746D01*
X18220182Y-16616746D02*
X18210658Y-16569127D01*
X18210658Y-16569127D02*
X18201134Y-16540555D01*
X18201134Y-16540555D02*
X18191611Y-16521508D01*
X18191611Y-16521508D02*
X18172563Y-16492936D01*
X18172563Y-16492936D02*
X18163039Y-16483412D01*
D13*
X13178755Y-16929755D02*
X13178755Y-16839245D01*
X13088245Y-16839245D01*
X13088245Y-16929755D01*
X13178755Y-16929755D01*
D11*
X13563039Y-16975984D02*
X13448753Y-16975984D01*
X13505896Y-16975984D02*
X13505896Y-16775984D01*
X13505896Y-16775984D02*
X13486848Y-16804555D01*
X13486848Y-16804555D02*
X13467801Y-16823603D01*
X13467801Y-16823603D02*
X13448753Y-16833127D01*
X13648753Y-16956936D02*
X13658277Y-16966460D01*
X13658277Y-16966460D02*
X13648753Y-16975984D01*
X13648753Y-16975984D02*
X13639229Y-16966460D01*
X13639229Y-16966460D02*
X13648753Y-16956936D01*
X13648753Y-16956936D02*
X13648753Y-16975984D01*
X13734467Y-16795031D02*
X13743991Y-16785508D01*
X13743991Y-16785508D02*
X13763039Y-16775984D01*
X13763039Y-16775984D02*
X13810658Y-16775984D01*
X13810658Y-16775984D02*
X13829705Y-16785508D01*
X13829705Y-16785508D02*
X13839229Y-16795031D01*
X13839229Y-16795031D02*
X13848753Y-16814079D01*
X13848753Y-16814079D02*
X13848753Y-16833127D01*
X13848753Y-16833127D02*
X13839229Y-16861698D01*
X13839229Y-16861698D02*
X13724943Y-16975984D01*
X13724943Y-16975984D02*
X13848753Y-16975984D01*
X13963039Y-16861698D02*
X13943991Y-16852174D01*
X13943991Y-16852174D02*
X13934467Y-16842650D01*
X13934467Y-16842650D02*
X13924943Y-16823603D01*
X13924943Y-16823603D02*
X13924943Y-16814079D01*
X13924943Y-16814079D02*
X13934467Y-16795031D01*
X13934467Y-16795031D02*
X13943991Y-16785508D01*
X13943991Y-16785508D02*
X13963039Y-16775984D01*
X13963039Y-16775984D02*
X14001134Y-16775984D01*
X14001134Y-16775984D02*
X14020182Y-16785508D01*
X14020182Y-16785508D02*
X14029705Y-16795031D01*
X14029705Y-16795031D02*
X14039229Y-16814079D01*
X14039229Y-16814079D02*
X14039229Y-16823603D01*
X14039229Y-16823603D02*
X14029705Y-16842650D01*
X14029705Y-16842650D02*
X14020182Y-16852174D01*
X14020182Y-16852174D02*
X14001134Y-16861698D01*
X14001134Y-16861698D02*
X13963039Y-16861698D01*
X13963039Y-16861698D02*
X13943991Y-16871222D01*
X13943991Y-16871222D02*
X13934467Y-16880746D01*
X13934467Y-16880746D02*
X13924943Y-16899793D01*
X13924943Y-16899793D02*
X13924943Y-16937889D01*
X13924943Y-16937889D02*
X13934467Y-16956936D01*
X13934467Y-16956936D02*
X13943991Y-16966460D01*
X13943991Y-16966460D02*
X13963039Y-16975984D01*
X13963039Y-16975984D02*
X14001134Y-16975984D01*
X14001134Y-16975984D02*
X14020182Y-16966460D01*
X14020182Y-16966460D02*
X14029705Y-16956936D01*
X14029705Y-16956936D02*
X14039229Y-16937889D01*
X14039229Y-16937889D02*
X14039229Y-16899793D01*
X14039229Y-16899793D02*
X14029705Y-16880746D01*
X14029705Y-16880746D02*
X14020182Y-16871222D01*
X14020182Y-16871222D02*
X14001134Y-16861698D01*
X14163039Y-16775984D02*
X14182086Y-16775984D01*
X14182086Y-16775984D02*
X14201134Y-16785508D01*
X14201134Y-16785508D02*
X14210658Y-16795031D01*
X14210658Y-16795031D02*
X14220182Y-16814079D01*
X14220182Y-16814079D02*
X14229705Y-16852174D01*
X14229705Y-16852174D02*
X14229705Y-16899793D01*
X14229705Y-16899793D02*
X14220182Y-16937889D01*
X14220182Y-16937889D02*
X14210658Y-16956936D01*
X14210658Y-16956936D02*
X14201134Y-16966460D01*
X14201134Y-16966460D02*
X14182086Y-16975984D01*
X14182086Y-16975984D02*
X14163039Y-16975984D01*
X14163039Y-16975984D02*
X14143991Y-16966460D01*
X14143991Y-16966460D02*
X14134467Y-16956936D01*
X14134467Y-16956936D02*
X14124943Y-16937889D01*
X14124943Y-16937889D02*
X14115420Y-16899793D01*
X14115420Y-16899793D02*
X14115420Y-16852174D01*
X14115420Y-16852174D02*
X14124943Y-16814079D01*
X14124943Y-16814079D02*
X14134467Y-16795031D01*
X14134467Y-16795031D02*
X14143991Y-16785508D01*
X14143991Y-16785508D02*
X14163039Y-16775984D01*
X14315420Y-16975984D02*
X14315420Y-16842650D01*
X14315420Y-16861698D02*
X14324943Y-16852174D01*
X14324943Y-16852174D02*
X14343991Y-16842650D01*
X14343991Y-16842650D02*
X14372563Y-16842650D01*
X14372563Y-16842650D02*
X14391610Y-16852174D01*
X14391610Y-16852174D02*
X14401134Y-16871222D01*
X14401134Y-16871222D02*
X14401134Y-16975984D01*
X14401134Y-16871222D02*
X14410658Y-16852174D01*
X14410658Y-16852174D02*
X14429705Y-16842650D01*
X14429705Y-16842650D02*
X14458277Y-16842650D01*
X14458277Y-16842650D02*
X14477324Y-16852174D01*
X14477324Y-16852174D02*
X14486848Y-16871222D01*
X14486848Y-16871222D02*
X14486848Y-16975984D01*
X14582086Y-16975984D02*
X14582086Y-16842650D01*
X14582086Y-16861698D02*
X14591610Y-16852174D01*
X14591610Y-16852174D02*
X14610658Y-16842650D01*
X14610658Y-16842650D02*
X14639229Y-16842650D01*
X14639229Y-16842650D02*
X14658277Y-16852174D01*
X14658277Y-16852174D02*
X14667801Y-16871222D01*
X14667801Y-16871222D02*
X14667801Y-16975984D01*
X14667801Y-16871222D02*
X14677324Y-16852174D01*
X14677324Y-16852174D02*
X14696372Y-16842650D01*
X14696372Y-16842650D02*
X14724943Y-16842650D01*
X14724943Y-16842650D02*
X14743991Y-16852174D01*
X14743991Y-16852174D02*
X14753515Y-16871222D01*
X14753515Y-16871222D02*
X14753515Y-16975984D01*
X15143991Y-16766460D02*
X14972563Y-17023603D01*
X15401134Y-16775984D02*
X15420182Y-16775984D01*
X15420182Y-16775984D02*
X15439229Y-16785508D01*
X15439229Y-16785508D02*
X15448753Y-16795031D01*
X15448753Y-16795031D02*
X15458277Y-16814079D01*
X15458277Y-16814079D02*
X15467801Y-16852174D01*
X15467801Y-16852174D02*
X15467801Y-16899793D01*
X15467801Y-16899793D02*
X15458277Y-16937889D01*
X15458277Y-16937889D02*
X15448753Y-16956936D01*
X15448753Y-16956936D02*
X15439229Y-16966460D01*
X15439229Y-16966460D02*
X15420182Y-16975984D01*
X15420182Y-16975984D02*
X15401134Y-16975984D01*
X15401134Y-16975984D02*
X15382086Y-16966460D01*
X15382086Y-16966460D02*
X15372563Y-16956936D01*
X15372563Y-16956936D02*
X15363039Y-16937889D01*
X15363039Y-16937889D02*
X15353515Y-16899793D01*
X15353515Y-16899793D02*
X15353515Y-16852174D01*
X15353515Y-16852174D02*
X15363039Y-16814079D01*
X15363039Y-16814079D02*
X15372563Y-16795031D01*
X15372563Y-16795031D02*
X15382086Y-16785508D01*
X15382086Y-16785508D02*
X15401134Y-16775984D01*
X15553515Y-16956936D02*
X15563039Y-16966460D01*
X15563039Y-16966460D02*
X15553515Y-16975984D01*
X15553515Y-16975984D02*
X15543991Y-16966460D01*
X15543991Y-16966460D02*
X15553515Y-16956936D01*
X15553515Y-16956936D02*
X15553515Y-16975984D01*
X15686848Y-16775984D02*
X15705896Y-16775984D01*
X15705896Y-16775984D02*
X15724944Y-16785508D01*
X15724944Y-16785508D02*
X15734467Y-16795031D01*
X15734467Y-16795031D02*
X15743991Y-16814079D01*
X15743991Y-16814079D02*
X15753515Y-16852174D01*
X15753515Y-16852174D02*
X15753515Y-16899793D01*
X15753515Y-16899793D02*
X15743991Y-16937889D01*
X15743991Y-16937889D02*
X15734467Y-16956936D01*
X15734467Y-16956936D02*
X15724944Y-16966460D01*
X15724944Y-16966460D02*
X15705896Y-16975984D01*
X15705896Y-16975984D02*
X15686848Y-16975984D01*
X15686848Y-16975984D02*
X15667801Y-16966460D01*
X15667801Y-16966460D02*
X15658277Y-16956936D01*
X15658277Y-16956936D02*
X15648753Y-16937889D01*
X15648753Y-16937889D02*
X15639229Y-16899793D01*
X15639229Y-16899793D02*
X15639229Y-16852174D01*
X15639229Y-16852174D02*
X15648753Y-16814079D01*
X15648753Y-16814079D02*
X15658277Y-16795031D01*
X15658277Y-16795031D02*
X15667801Y-16785508D01*
X15667801Y-16785508D02*
X15686848Y-16775984D01*
X15934467Y-16775984D02*
X15839229Y-16775984D01*
X15839229Y-16775984D02*
X15829706Y-16871222D01*
X15829706Y-16871222D02*
X15839229Y-16861698D01*
X15839229Y-16861698D02*
X15858277Y-16852174D01*
X15858277Y-16852174D02*
X15905896Y-16852174D01*
X15905896Y-16852174D02*
X15924944Y-16861698D01*
X15924944Y-16861698D02*
X15934467Y-16871222D01*
X15934467Y-16871222D02*
X15943991Y-16890270D01*
X15943991Y-16890270D02*
X15943991Y-16937889D01*
X15943991Y-16937889D02*
X15934467Y-16956936D01*
X15934467Y-16956936D02*
X15924944Y-16966460D01*
X15924944Y-16966460D02*
X15905896Y-16975984D01*
X15905896Y-16975984D02*
X15858277Y-16975984D01*
X15858277Y-16975984D02*
X15839229Y-16966460D01*
X15839229Y-16966460D02*
X15829706Y-16956936D01*
X16067801Y-16775984D02*
X16086848Y-16775984D01*
X16086848Y-16775984D02*
X16105896Y-16785508D01*
X16105896Y-16785508D02*
X16115420Y-16795031D01*
X16115420Y-16795031D02*
X16124944Y-16814079D01*
X16124944Y-16814079D02*
X16134467Y-16852174D01*
X16134467Y-16852174D02*
X16134467Y-16899793D01*
X16134467Y-16899793D02*
X16124944Y-16937889D01*
X16124944Y-16937889D02*
X16115420Y-16956936D01*
X16115420Y-16956936D02*
X16105896Y-16966460D01*
X16105896Y-16966460D02*
X16086848Y-16975984D01*
X16086848Y-16975984D02*
X16067801Y-16975984D01*
X16067801Y-16975984D02*
X16048753Y-16966460D01*
X16048753Y-16966460D02*
X16039229Y-16956936D01*
X16039229Y-16956936D02*
X16029706Y-16937889D01*
X16029706Y-16937889D02*
X16020182Y-16899793D01*
X16020182Y-16899793D02*
X16020182Y-16852174D01*
X16020182Y-16852174D02*
X16029706Y-16814079D01*
X16029706Y-16814079D02*
X16039229Y-16795031D01*
X16039229Y-16795031D02*
X16048753Y-16785508D01*
X16048753Y-16785508D02*
X16067801Y-16775984D01*
X16305896Y-16842650D02*
X16305896Y-16975984D01*
X16258277Y-16766460D02*
X16210658Y-16909317D01*
X16210658Y-16909317D02*
X16334467Y-16909317D01*
X16401134Y-16775984D02*
X16401134Y-16814079D01*
X16477325Y-16775984D02*
X16477325Y-16814079D01*
X16772563Y-17052174D02*
X16763039Y-17042650D01*
X16763039Y-17042650D02*
X16743991Y-17014079D01*
X16743991Y-17014079D02*
X16734468Y-16995031D01*
X16734468Y-16995031D02*
X16724944Y-16966460D01*
X16724944Y-16966460D02*
X16715420Y-16918841D01*
X16715420Y-16918841D02*
X16715420Y-16880746D01*
X16715420Y-16880746D02*
X16724944Y-16833127D01*
X16724944Y-16833127D02*
X16734468Y-16804555D01*
X16734468Y-16804555D02*
X16743991Y-16785508D01*
X16743991Y-16785508D02*
X16763039Y-16756936D01*
X16763039Y-16756936D02*
X16772563Y-16747412D01*
X16934468Y-16842650D02*
X16934468Y-16975984D01*
X16886849Y-16766460D02*
X16839230Y-16909317D01*
X16839230Y-16909317D02*
X16963039Y-16909317D01*
X17191611Y-16975984D02*
X17191611Y-16775984D01*
X17277325Y-16975984D02*
X17277325Y-16871222D01*
X17277325Y-16871222D02*
X17267801Y-16852174D01*
X17267801Y-16852174D02*
X17248753Y-16842650D01*
X17248753Y-16842650D02*
X17220182Y-16842650D01*
X17220182Y-16842650D02*
X17201134Y-16852174D01*
X17201134Y-16852174D02*
X17191611Y-16861698D01*
X17401134Y-16975984D02*
X17382087Y-16966460D01*
X17382087Y-16966460D02*
X17372563Y-16956936D01*
X17372563Y-16956936D02*
X17363039Y-16937889D01*
X17363039Y-16937889D02*
X17363039Y-16880746D01*
X17363039Y-16880746D02*
X17372563Y-16861698D01*
X17372563Y-16861698D02*
X17382087Y-16852174D01*
X17382087Y-16852174D02*
X17401134Y-16842650D01*
X17401134Y-16842650D02*
X17429706Y-16842650D01*
X17429706Y-16842650D02*
X17448753Y-16852174D01*
X17448753Y-16852174D02*
X17458277Y-16861698D01*
X17458277Y-16861698D02*
X17467801Y-16880746D01*
X17467801Y-16880746D02*
X17467801Y-16937889D01*
X17467801Y-16937889D02*
X17458277Y-16956936D01*
X17458277Y-16956936D02*
X17448753Y-16966460D01*
X17448753Y-16966460D02*
X17429706Y-16975984D01*
X17429706Y-16975984D02*
X17401134Y-16975984D01*
X17582087Y-16975984D02*
X17563039Y-16966460D01*
X17563039Y-16966460D02*
X17553515Y-16947412D01*
X17553515Y-16947412D02*
X17553515Y-16775984D01*
X17734468Y-16966460D02*
X17715420Y-16975984D01*
X17715420Y-16975984D02*
X17677325Y-16975984D01*
X17677325Y-16975984D02*
X17658277Y-16966460D01*
X17658277Y-16966460D02*
X17648753Y-16947412D01*
X17648753Y-16947412D02*
X17648753Y-16871222D01*
X17648753Y-16871222D02*
X17658277Y-16852174D01*
X17658277Y-16852174D02*
X17677325Y-16842650D01*
X17677325Y-16842650D02*
X17715420Y-16842650D01*
X17715420Y-16842650D02*
X17734468Y-16852174D01*
X17734468Y-16852174D02*
X17743992Y-16871222D01*
X17743992Y-16871222D02*
X17743992Y-16890270D01*
X17743992Y-16890270D02*
X17648753Y-16909317D01*
X17820182Y-16966460D02*
X17839230Y-16975984D01*
X17839230Y-16975984D02*
X17877325Y-16975984D01*
X17877325Y-16975984D02*
X17896373Y-16966460D01*
X17896373Y-16966460D02*
X17905896Y-16947412D01*
X17905896Y-16947412D02*
X17905896Y-16937889D01*
X17905896Y-16937889D02*
X17896373Y-16918841D01*
X17896373Y-16918841D02*
X17877325Y-16909317D01*
X17877325Y-16909317D02*
X17848753Y-16909317D01*
X17848753Y-16909317D02*
X17829706Y-16899793D01*
X17829706Y-16899793D02*
X17820182Y-16880746D01*
X17820182Y-16880746D02*
X17820182Y-16871222D01*
X17820182Y-16871222D02*
X17829706Y-16852174D01*
X17829706Y-16852174D02*
X17848753Y-16842650D01*
X17848753Y-16842650D02*
X17877325Y-16842650D01*
X17877325Y-16842650D02*
X17896373Y-16852174D01*
X17972563Y-17052174D02*
X17982087Y-17042650D01*
X17982087Y-17042650D02*
X18001134Y-17014079D01*
X18001134Y-17014079D02*
X18010658Y-16995031D01*
X18010658Y-16995031D02*
X18020182Y-16966460D01*
X18020182Y-16966460D02*
X18029706Y-16918841D01*
X18029706Y-16918841D02*
X18029706Y-16880746D01*
X18029706Y-16880746D02*
X18020182Y-16833127D01*
X18020182Y-16833127D02*
X18010658Y-16804555D01*
X18010658Y-16804555D02*
X18001134Y-16785508D01*
X18001134Y-16785508D02*
X17982087Y-16756936D01*
X17982087Y-16756936D02*
X17972563Y-16747412D01*
M02*
