%TF.GenerationSoftware,KiCad,Pcbnew,7.0.11-2.fc39*%
%TF.CreationDate,2024-04-30T19:09:02-04:00*%
%TF.ProjectId,OS42Mini,4f533432-4d69-46e6-992e-6b696361645f,rev?*%
%TF.SameCoordinates,Original*%
%TF.FileFunction,Legend,Top*%
%TF.FilePolarity,Positive*%
%FSLAX46Y46*%
G04 Gerber Fmt 4.6, Leading zero omitted, Abs format (unit mm)*
G04 Created by KiCad (PCBNEW 7.0.11-2.fc39) date 2024-04-30 19:09:02*
%MOMM*%
%LPD*%
G01*
G04 APERTURE LIST*
%ADD10C,0.075000*%
%ADD11C,0.050000*%
%ADD12C,0.100000*%
%ADD13C,0.300000*%
%ADD14C,0.200000*%
%ADD15C,0.150000*%
%ADD16C,0.250000*%
%ADD17C,0.127000*%
%ADD18C,0.120000*%
G04 APERTURE END LIST*
D10*
X132291671Y-100966467D02*
X132891671Y-100699800D01*
X132891671Y-100699800D02*
X132291671Y-100433134D01*
X132834528Y-99709324D02*
X132863100Y-99747420D01*
X132863100Y-99747420D02*
X132891671Y-99861705D01*
X132891671Y-99861705D02*
X132891671Y-99937896D01*
X132891671Y-99937896D02*
X132863100Y-100052182D01*
X132863100Y-100052182D02*
X132805957Y-100128372D01*
X132805957Y-100128372D02*
X132748814Y-100166467D01*
X132748814Y-100166467D02*
X132634528Y-100204563D01*
X132634528Y-100204563D02*
X132548814Y-100204563D01*
X132548814Y-100204563D02*
X132434528Y-100166467D01*
X132434528Y-100166467D02*
X132377385Y-100128372D01*
X132377385Y-100128372D02*
X132320242Y-100052182D01*
X132320242Y-100052182D02*
X132291671Y-99937896D01*
X132291671Y-99937896D02*
X132291671Y-99861705D01*
X132291671Y-99861705D02*
X132320242Y-99747420D01*
X132320242Y-99747420D02*
X132348814Y-99709324D01*
X132834528Y-98909324D02*
X132863100Y-98947420D01*
X132863100Y-98947420D02*
X132891671Y-99061705D01*
X132891671Y-99061705D02*
X132891671Y-99137896D01*
X132891671Y-99137896D02*
X132863100Y-99252182D01*
X132863100Y-99252182D02*
X132805957Y-99328372D01*
X132805957Y-99328372D02*
X132748814Y-99366467D01*
X132748814Y-99366467D02*
X132634528Y-99404563D01*
X132634528Y-99404563D02*
X132548814Y-99404563D01*
X132548814Y-99404563D02*
X132434528Y-99366467D01*
X132434528Y-99366467D02*
X132377385Y-99328372D01*
X132377385Y-99328372D02*
X132320242Y-99252182D01*
X132320242Y-99252182D02*
X132291671Y-99137896D01*
X132291671Y-99137896D02*
X132291671Y-99061705D01*
X132291671Y-99061705D02*
X132320242Y-98947420D01*
X132320242Y-98947420D02*
X132348814Y-98909324D01*
X132891671Y-97499800D02*
X132605957Y-97766467D01*
X132891671Y-97956943D02*
X132291671Y-97956943D01*
X132291671Y-97956943D02*
X132291671Y-97652181D01*
X132291671Y-97652181D02*
X132320242Y-97575991D01*
X132320242Y-97575991D02*
X132348814Y-97537896D01*
X132348814Y-97537896D02*
X132405957Y-97499800D01*
X132405957Y-97499800D02*
X132491671Y-97499800D01*
X132491671Y-97499800D02*
X132548814Y-97537896D01*
X132548814Y-97537896D02*
X132577385Y-97575991D01*
X132577385Y-97575991D02*
X132605957Y-97652181D01*
X132605957Y-97652181D02*
X132605957Y-97956943D01*
X132291671Y-97233134D02*
X132891671Y-96699800D01*
X132291671Y-96699800D02*
X132891671Y-97233134D01*
X132291671Y-95899800D02*
X132291671Y-95442657D01*
X132891671Y-95671229D02*
X132291671Y-95671229D01*
X132291671Y-95252181D02*
X132891671Y-94718847D01*
X132291671Y-94718847D02*
X132891671Y-95252181D01*
X132320242Y-93385514D02*
X132291671Y-93461704D01*
X132291671Y-93461704D02*
X132291671Y-93575990D01*
X132291671Y-93575990D02*
X132320242Y-93690276D01*
X132320242Y-93690276D02*
X132377385Y-93766466D01*
X132377385Y-93766466D02*
X132434528Y-93804561D01*
X132434528Y-93804561D02*
X132548814Y-93842657D01*
X132548814Y-93842657D02*
X132634528Y-93842657D01*
X132634528Y-93842657D02*
X132748814Y-93804561D01*
X132748814Y-93804561D02*
X132805957Y-93766466D01*
X132805957Y-93766466D02*
X132863100Y-93690276D01*
X132863100Y-93690276D02*
X132891671Y-93575990D01*
X132891671Y-93575990D02*
X132891671Y-93499799D01*
X132891671Y-93499799D02*
X132863100Y-93385514D01*
X132863100Y-93385514D02*
X132834528Y-93347418D01*
X132834528Y-93347418D02*
X132634528Y-93347418D01*
X132634528Y-93347418D02*
X132634528Y-93499799D01*
X132891671Y-93004561D02*
X132291671Y-93004561D01*
X132291671Y-93004561D02*
X132891671Y-92547418D01*
X132891671Y-92547418D02*
X132291671Y-92547418D01*
X132891671Y-92166466D02*
X132291671Y-92166466D01*
X132291671Y-92166466D02*
X132291671Y-91975990D01*
X132291671Y-91975990D02*
X132320242Y-91861704D01*
X132320242Y-91861704D02*
X132377385Y-91785514D01*
X132377385Y-91785514D02*
X132434528Y-91747419D01*
X132434528Y-91747419D02*
X132548814Y-91709323D01*
X132548814Y-91709323D02*
X132634528Y-91709323D01*
X132634528Y-91709323D02*
X132748814Y-91747419D01*
X132748814Y-91747419D02*
X132805957Y-91785514D01*
X132805957Y-91785514D02*
X132863100Y-91861704D01*
X132863100Y-91861704D02*
X132891671Y-91975990D01*
X132891671Y-91975990D02*
X132891671Y-92166466D01*
X147216913Y-122006385D02*
X147045484Y-122006385D01*
X147131199Y-122006385D02*
X147131199Y-121706385D01*
X147131199Y-121706385D02*
X147102627Y-121749242D01*
X147102627Y-121749242D02*
X147074056Y-121777814D01*
X147074056Y-121777814D02*
X147045484Y-121792100D01*
X147474056Y-121806385D02*
X147474056Y-122006385D01*
X147345484Y-121806385D02*
X147345484Y-121963528D01*
X147345484Y-121963528D02*
X147359770Y-121992100D01*
X147359770Y-121992100D02*
X147388341Y-122006385D01*
X147388341Y-122006385D02*
X147431198Y-122006385D01*
X147431198Y-122006385D02*
X147459770Y-121992100D01*
X147459770Y-121992100D02*
X147474056Y-121977814D01*
X147716913Y-121849242D02*
X147616913Y-121849242D01*
X147616913Y-122006385D02*
X147616913Y-121706385D01*
X147616913Y-121706385D02*
X147759770Y-121706385D01*
D11*
X153661608Y-105055923D02*
X153680655Y-105055923D01*
X153680655Y-105055923D02*
X153699703Y-105065447D01*
X153699703Y-105065447D02*
X153709227Y-105074971D01*
X153709227Y-105074971D02*
X153718751Y-105094019D01*
X153718751Y-105094019D02*
X153728274Y-105132114D01*
X153728274Y-105132114D02*
X153728274Y-105179733D01*
X153728274Y-105179733D02*
X153718751Y-105217828D01*
X153718751Y-105217828D02*
X153709227Y-105236876D01*
X153709227Y-105236876D02*
X153699703Y-105246400D01*
X153699703Y-105246400D02*
X153680655Y-105255923D01*
X153680655Y-105255923D02*
X153661608Y-105255923D01*
X153661608Y-105255923D02*
X153642560Y-105246400D01*
X153642560Y-105246400D02*
X153633036Y-105236876D01*
X153633036Y-105236876D02*
X153623513Y-105217828D01*
X153623513Y-105217828D02*
X153613989Y-105179733D01*
X153613989Y-105179733D02*
X153613989Y-105132114D01*
X153613989Y-105132114D02*
X153623513Y-105094019D01*
X153623513Y-105094019D02*
X153633036Y-105074971D01*
X153633036Y-105074971D02*
X153642560Y-105065447D01*
X153642560Y-105065447D02*
X153661608Y-105055923D01*
X153813989Y-105236876D02*
X153823512Y-105246400D01*
X153823512Y-105246400D02*
X153813989Y-105255923D01*
X153813989Y-105255923D02*
X153804465Y-105246400D01*
X153804465Y-105246400D02*
X153813989Y-105236876D01*
X153813989Y-105236876D02*
X153813989Y-105255923D01*
X154013988Y-105255923D02*
X153899703Y-105255923D01*
X153956846Y-105255923D02*
X153956846Y-105055923D01*
X153956846Y-105055923D02*
X153937798Y-105084495D01*
X153937798Y-105084495D02*
X153918750Y-105103542D01*
X153918750Y-105103542D02*
X153899703Y-105113066D01*
X154185417Y-105122590D02*
X154185417Y-105255923D01*
X154099703Y-105122590D02*
X154099703Y-105227352D01*
X154099703Y-105227352D02*
X154109226Y-105246400D01*
X154109226Y-105246400D02*
X154128274Y-105255923D01*
X154128274Y-105255923D02*
X154156845Y-105255923D01*
X154156845Y-105255923D02*
X154175893Y-105246400D01*
X154175893Y-105246400D02*
X154185417Y-105236876D01*
X154347321Y-105151161D02*
X154280655Y-105151161D01*
X154280655Y-105255923D02*
X154280655Y-105055923D01*
X154280655Y-105055923D02*
X154375893Y-105055923D01*
D12*
X154548550Y-112213847D02*
X154319979Y-112213847D01*
X154434265Y-112213847D02*
X154434265Y-111813847D01*
X154434265Y-111813847D02*
X154396169Y-111870990D01*
X154396169Y-111870990D02*
X154358074Y-111909085D01*
X154358074Y-111909085D02*
X154319979Y-111928133D01*
X154796169Y-111813847D02*
X154834264Y-111813847D01*
X154834264Y-111813847D02*
X154872360Y-111832895D01*
X154872360Y-111832895D02*
X154891407Y-111851942D01*
X154891407Y-111851942D02*
X154910455Y-111890038D01*
X154910455Y-111890038D02*
X154929502Y-111966228D01*
X154929502Y-111966228D02*
X154929502Y-112061466D01*
X154929502Y-112061466D02*
X154910455Y-112137657D01*
X154910455Y-112137657D02*
X154891407Y-112175752D01*
X154891407Y-112175752D02*
X154872360Y-112194800D01*
X154872360Y-112194800D02*
X154834264Y-112213847D01*
X154834264Y-112213847D02*
X154796169Y-112213847D01*
X154796169Y-112213847D02*
X154758074Y-112194800D01*
X154758074Y-112194800D02*
X154739026Y-112175752D01*
X154739026Y-112175752D02*
X154719979Y-112137657D01*
X154719979Y-112137657D02*
X154700931Y-112061466D01*
X154700931Y-112061466D02*
X154700931Y-111966228D01*
X154700931Y-111966228D02*
X154719979Y-111890038D01*
X154719979Y-111890038D02*
X154739026Y-111851942D01*
X154739026Y-111851942D02*
X154758074Y-111832895D01*
X154758074Y-111832895D02*
X154796169Y-111813847D01*
X155177121Y-111813847D02*
X155215216Y-111813847D01*
X155215216Y-111813847D02*
X155253312Y-111832895D01*
X155253312Y-111832895D02*
X155272359Y-111851942D01*
X155272359Y-111851942D02*
X155291407Y-111890038D01*
X155291407Y-111890038D02*
X155310454Y-111966228D01*
X155310454Y-111966228D02*
X155310454Y-112061466D01*
X155310454Y-112061466D02*
X155291407Y-112137657D01*
X155291407Y-112137657D02*
X155272359Y-112175752D01*
X155272359Y-112175752D02*
X155253312Y-112194800D01*
X155253312Y-112194800D02*
X155215216Y-112213847D01*
X155215216Y-112213847D02*
X155177121Y-112213847D01*
X155177121Y-112213847D02*
X155139026Y-112194800D01*
X155139026Y-112194800D02*
X155119978Y-112175752D01*
X155119978Y-112175752D02*
X155100931Y-112137657D01*
X155100931Y-112137657D02*
X155081883Y-112061466D01*
X155081883Y-112061466D02*
X155081883Y-111966228D01*
X155081883Y-111966228D02*
X155100931Y-111890038D01*
X155100931Y-111890038D02*
X155119978Y-111851942D01*
X155119978Y-111851942D02*
X155139026Y-111832895D01*
X155139026Y-111832895D02*
X155177121Y-111813847D01*
X155481883Y-112213847D02*
X155481883Y-111813847D01*
X155519978Y-112061466D02*
X155634264Y-112213847D01*
X155634264Y-111947180D02*
X155481883Y-112099561D01*
D13*
X138984510Y-127435828D02*
X138984510Y-125935828D01*
X138984510Y-125935828D02*
X139555939Y-125935828D01*
X139555939Y-125935828D02*
X139698796Y-126007257D01*
X139698796Y-126007257D02*
X139770225Y-126078685D01*
X139770225Y-126078685D02*
X139841653Y-126221542D01*
X139841653Y-126221542D02*
X139841653Y-126435828D01*
X139841653Y-126435828D02*
X139770225Y-126578685D01*
X139770225Y-126578685D02*
X139698796Y-126650114D01*
X139698796Y-126650114D02*
X139555939Y-126721542D01*
X139555939Y-126721542D02*
X138984510Y-126721542D01*
X140341653Y-125935828D02*
X140698796Y-127435828D01*
X140698796Y-127435828D02*
X140984510Y-126364400D01*
X140984510Y-126364400D02*
X141270225Y-127435828D01*
X141270225Y-127435828D02*
X141627368Y-125935828D01*
X143055939Y-127435828D02*
X142555939Y-126721542D01*
X142198796Y-127435828D02*
X142198796Y-125935828D01*
X142198796Y-125935828D02*
X142770225Y-125935828D01*
X142770225Y-125935828D02*
X142913082Y-126007257D01*
X142913082Y-126007257D02*
X142984511Y-126078685D01*
X142984511Y-126078685D02*
X143055939Y-126221542D01*
X143055939Y-126221542D02*
X143055939Y-126435828D01*
X143055939Y-126435828D02*
X142984511Y-126578685D01*
X142984511Y-126578685D02*
X142913082Y-126650114D01*
X142913082Y-126650114D02*
X142770225Y-126721542D01*
X142770225Y-126721542D02*
X142198796Y-126721542D01*
D12*
X146890455Y-116773180D02*
X146890455Y-117039847D01*
X146795217Y-116620800D02*
X146699979Y-116906514D01*
X146699979Y-116906514D02*
X146947598Y-116906514D01*
X147061883Y-116639847D02*
X147328550Y-116639847D01*
X147328550Y-116639847D02*
X147157121Y-117039847D01*
X147480931Y-117039847D02*
X147480931Y-116639847D01*
X147519026Y-116887466D02*
X147633312Y-117039847D01*
X147633312Y-116773180D02*
X147480931Y-116925561D01*
D13*
G36*
X145142366Y-90216683D02*
G01*
X145182393Y-90219256D01*
X145221504Y-90223512D01*
X145259672Y-90229424D01*
X145296869Y-90236965D01*
X145333069Y-90246108D01*
X145368245Y-90256825D01*
X145402371Y-90269090D01*
X145435418Y-90282877D01*
X145467362Y-90298157D01*
X145498174Y-90314904D01*
X145527828Y-90333091D01*
X145556296Y-90352691D01*
X145583554Y-90373678D01*
X145609572Y-90396023D01*
X145634325Y-90419700D01*
X145657786Y-90444683D01*
X145679927Y-90470944D01*
X145700723Y-90498456D01*
X145720146Y-90527193D01*
X145738169Y-90557126D01*
X145754766Y-90588230D01*
X145769909Y-90620478D01*
X145783573Y-90653842D01*
X145795729Y-90688295D01*
X145806352Y-90723811D01*
X145815414Y-90760362D01*
X145822888Y-90797921D01*
X145828748Y-90836463D01*
X145832967Y-90875959D01*
X145835519Y-90916382D01*
X145836375Y-90957706D01*
X145835494Y-91000046D01*
X145832869Y-91041455D01*
X145828528Y-91081905D01*
X145822497Y-91121371D01*
X145814805Y-91159825D01*
X145805477Y-91197239D01*
X145794542Y-91233587D01*
X145782027Y-91268841D01*
X145767959Y-91302975D01*
X145752364Y-91335961D01*
X145735271Y-91367773D01*
X145716707Y-91398383D01*
X145696698Y-91427763D01*
X145675273Y-91455888D01*
X145652458Y-91482729D01*
X145628280Y-91508260D01*
X145602767Y-91532454D01*
X145575946Y-91555283D01*
X145547845Y-91576721D01*
X145518490Y-91596740D01*
X145487908Y-91615313D01*
X145456128Y-91632414D01*
X145423175Y-91648014D01*
X145389079Y-91662088D01*
X145353864Y-91674607D01*
X145317560Y-91685544D01*
X145280193Y-91694874D01*
X145241790Y-91702568D01*
X145202379Y-91708599D01*
X145161987Y-91712941D01*
X145120640Y-91715566D01*
X145078367Y-91716447D01*
X145037822Y-91715590D01*
X144998156Y-91713039D01*
X144959396Y-91708818D01*
X144921568Y-91702955D01*
X144884700Y-91695476D01*
X144848818Y-91686407D01*
X144813948Y-91675774D01*
X144780118Y-91663604D01*
X144747355Y-91649924D01*
X144715684Y-91634759D01*
X144685133Y-91618137D01*
X144655730Y-91600083D01*
X144627499Y-91580623D01*
X144600469Y-91559784D01*
X144574665Y-91537594D01*
X144550116Y-91514076D01*
X144526847Y-91489259D01*
X144504885Y-91463169D01*
X144484257Y-91435831D01*
X144464990Y-91407273D01*
X144447110Y-91377521D01*
X144430645Y-91346600D01*
X144415621Y-91314538D01*
X144402065Y-91281361D01*
X144390003Y-91247094D01*
X144379463Y-91211765D01*
X144370470Y-91175400D01*
X144363053Y-91138026D01*
X144357238Y-91099667D01*
X144353051Y-91060352D01*
X144350519Y-91020106D01*
X144349669Y-90978956D01*
X144350106Y-90957706D01*
X144731787Y-90957706D01*
X144732209Y-90982466D01*
X144733467Y-91006657D01*
X144735549Y-91030266D01*
X144738444Y-91053278D01*
X144742140Y-91075679D01*
X144746624Y-91097455D01*
X144751886Y-91118591D01*
X144757913Y-91139074D01*
X144764693Y-91158888D01*
X144772216Y-91178020D01*
X144780467Y-91196455D01*
X144789438Y-91214179D01*
X144799114Y-91231178D01*
X144809485Y-91247437D01*
X144820538Y-91262943D01*
X144832262Y-91277680D01*
X144844645Y-91291635D01*
X144857676Y-91304792D01*
X144871342Y-91317139D01*
X144885631Y-91328661D01*
X144900532Y-91339343D01*
X144916034Y-91349171D01*
X144932123Y-91358131D01*
X144948789Y-91366208D01*
X144966019Y-91373389D01*
X144983802Y-91379658D01*
X145002126Y-91385003D01*
X145020980Y-91389407D01*
X145040350Y-91392858D01*
X145060227Y-91395340D01*
X145080596Y-91396840D01*
X145101448Y-91397344D01*
X145121317Y-91396865D01*
X145140730Y-91395438D01*
X145159675Y-91393077D01*
X145178142Y-91389794D01*
X145196119Y-91385605D01*
X145213594Y-91380521D01*
X145230555Y-91374556D01*
X145246992Y-91367725D01*
X145262893Y-91360041D01*
X145278246Y-91351517D01*
X145293040Y-91342166D01*
X145307264Y-91332003D01*
X145320906Y-91321041D01*
X145333954Y-91309294D01*
X145346397Y-91296774D01*
X145358224Y-91283496D01*
X145369423Y-91269473D01*
X145379982Y-91254719D01*
X145389891Y-91239246D01*
X145399137Y-91223070D01*
X145407710Y-91206203D01*
X145415597Y-91188659D01*
X145422787Y-91170451D01*
X145429270Y-91151593D01*
X145435033Y-91132099D01*
X145440064Y-91111982D01*
X145444353Y-91091255D01*
X145447888Y-91069933D01*
X145450657Y-91048028D01*
X145452649Y-91025554D01*
X145453853Y-91002526D01*
X145454257Y-90978956D01*
X145453829Y-90953991D01*
X145452551Y-90929597D01*
X145450437Y-90905789D01*
X145447497Y-90882580D01*
X145443744Y-90859985D01*
X145439190Y-90838019D01*
X145433846Y-90816696D01*
X145427724Y-90796031D01*
X145420837Y-90776039D01*
X145413195Y-90756733D01*
X145404812Y-90738129D01*
X145395698Y-90720242D01*
X145385866Y-90703084D01*
X145375328Y-90686673D01*
X145364095Y-90671021D01*
X145352179Y-90656143D01*
X145339592Y-90642054D01*
X145326347Y-90628769D01*
X145312454Y-90616301D01*
X145297926Y-90604666D01*
X145282775Y-90593879D01*
X145267012Y-90583953D01*
X145250650Y-90574903D01*
X145233700Y-90566744D01*
X145216174Y-90559491D01*
X145198084Y-90553157D01*
X145179443Y-90547758D01*
X145160260Y-90543308D01*
X145140550Y-90539821D01*
X145120323Y-90537313D01*
X145099592Y-90535797D01*
X145078367Y-90535288D01*
X145058903Y-90535772D01*
X145039880Y-90537215D01*
X145021310Y-90539602D01*
X145003203Y-90542921D01*
X144985573Y-90547156D01*
X144968429Y-90552295D01*
X144951785Y-90558323D01*
X144935651Y-90565227D01*
X144920040Y-90572993D01*
X144904962Y-90581607D01*
X144890429Y-90591055D01*
X144876454Y-90601324D01*
X144863047Y-90612399D01*
X144850221Y-90624268D01*
X144837986Y-90636915D01*
X144826354Y-90650327D01*
X144815338Y-90664490D01*
X144804948Y-90679391D01*
X144795197Y-90695016D01*
X144786095Y-90711351D01*
X144777655Y-90728381D01*
X144769888Y-90746094D01*
X144762805Y-90764476D01*
X144756419Y-90783512D01*
X144750741Y-90803188D01*
X144745782Y-90823492D01*
X144741554Y-90844409D01*
X144738069Y-90865925D01*
X144735338Y-90888027D01*
X144733373Y-90910700D01*
X144732185Y-90933931D01*
X144731787Y-90957706D01*
X144350106Y-90957706D01*
X144350543Y-90936442D01*
X144353149Y-90894856D01*
X144357458Y-90854225D01*
X144363444Y-90814576D01*
X144371079Y-90775938D01*
X144380337Y-90738337D01*
X144391189Y-90701802D01*
X144403610Y-90666361D01*
X144417572Y-90632041D01*
X144433047Y-90598869D01*
X144450008Y-90566874D01*
X144468429Y-90536083D01*
X144488282Y-90506525D01*
X144509539Y-90478225D01*
X144532175Y-90451213D01*
X144556161Y-90425517D01*
X144581470Y-90401162D01*
X144608076Y-90378179D01*
X144635951Y-90356593D01*
X144665068Y-90336433D01*
X144695399Y-90317727D01*
X144726918Y-90300502D01*
X144759598Y-90284787D01*
X144793410Y-90270607D01*
X144828329Y-90257993D01*
X144864327Y-90246970D01*
X144901376Y-90237567D01*
X144939450Y-90229811D01*
X144978521Y-90223731D01*
X145018563Y-90219354D01*
X145059548Y-90216707D01*
X145101448Y-90215819D01*
X145142366Y-90216683D01*
G37*
G36*
X146496930Y-91716447D02*
G01*
X146532660Y-91715908D01*
X146567373Y-91714302D01*
X146601062Y-91711642D01*
X146633719Y-91707942D01*
X146665336Y-91703218D01*
X146695905Y-91697482D01*
X146725420Y-91690749D01*
X146753871Y-91683033D01*
X146781252Y-91674349D01*
X146807554Y-91664710D01*
X146832771Y-91654131D01*
X146856893Y-91642625D01*
X146879914Y-91630208D01*
X146901826Y-91616892D01*
X146922621Y-91602693D01*
X146942291Y-91587624D01*
X146960829Y-91571700D01*
X146978227Y-91554934D01*
X146994477Y-91537341D01*
X147009571Y-91518936D01*
X147023503Y-91499731D01*
X147036263Y-91479742D01*
X147047845Y-91458982D01*
X147058240Y-91437466D01*
X147067441Y-91415208D01*
X147075440Y-91392221D01*
X147082230Y-91368521D01*
X147087803Y-91344121D01*
X147092151Y-91319036D01*
X147095266Y-91293279D01*
X147097141Y-91266864D01*
X147097767Y-91239807D01*
X147095700Y-91191536D01*
X147089674Y-91147160D01*
X147079953Y-91106481D01*
X147066802Y-91069302D01*
X147050484Y-91035426D01*
X147031263Y-91004656D01*
X147009403Y-90976794D01*
X146985167Y-90951644D01*
X146958821Y-90929008D01*
X146930627Y-90908690D01*
X146900849Y-90890491D01*
X146869753Y-90874215D01*
X146837600Y-90859664D01*
X146804656Y-90846642D01*
X146771184Y-90834952D01*
X146737448Y-90824396D01*
X146703712Y-90814776D01*
X146670240Y-90805897D01*
X146637296Y-90797560D01*
X146605143Y-90789569D01*
X146574046Y-90781726D01*
X146544269Y-90773834D01*
X146516075Y-90765697D01*
X146489728Y-90757116D01*
X146465493Y-90747895D01*
X146443633Y-90737837D01*
X146424412Y-90726744D01*
X146408094Y-90714420D01*
X146394942Y-90700666D01*
X146385222Y-90685287D01*
X146379196Y-90668084D01*
X146377129Y-90648861D01*
X146379275Y-90629044D01*
X146385644Y-90611035D01*
X146396130Y-90594865D01*
X146410629Y-90580565D01*
X146429036Y-90568166D01*
X146443426Y-90560970D01*
X146459475Y-90554643D01*
X146477151Y-90549192D01*
X146496424Y-90544626D01*
X146517263Y-90540956D01*
X146539636Y-90538189D01*
X146563512Y-90536336D01*
X146588860Y-90535405D01*
X146602076Y-90535288D01*
X146624263Y-90535532D01*
X146646684Y-90536256D01*
X146669281Y-90537452D01*
X146691996Y-90539112D01*
X146714771Y-90541228D01*
X146737548Y-90543789D01*
X146760269Y-90546789D01*
X146782877Y-90550218D01*
X146805313Y-90554067D01*
X146827519Y-90558329D01*
X146849438Y-90562995D01*
X146871011Y-90568055D01*
X146892180Y-90573502D01*
X146912888Y-90579327D01*
X146933076Y-90585520D01*
X146952687Y-90592075D01*
X147053437Y-90302281D01*
X147030172Y-90292253D01*
X147006039Y-90282788D01*
X146981118Y-90273895D01*
X146955486Y-90265587D01*
X146929221Y-90257876D01*
X146902400Y-90250774D01*
X146875101Y-90244292D01*
X146847403Y-90238442D01*
X146819383Y-90233236D01*
X146791118Y-90228686D01*
X146762687Y-90224803D01*
X146734168Y-90221600D01*
X146705638Y-90219089D01*
X146677174Y-90217280D01*
X146648856Y-90216186D01*
X146620761Y-90215819D01*
X146586455Y-90216383D01*
X146552864Y-90218063D01*
X146520014Y-90220843D01*
X146487929Y-90224705D01*
X146456632Y-90229633D01*
X146426150Y-90235610D01*
X146396505Y-90242618D01*
X146367723Y-90250641D01*
X146339829Y-90259661D01*
X146312845Y-90269662D01*
X146286798Y-90280627D01*
X146261712Y-90292538D01*
X146237610Y-90305380D01*
X146214518Y-90319134D01*
X146192460Y-90333784D01*
X146171461Y-90349313D01*
X146151544Y-90365703D01*
X146132735Y-90382939D01*
X146115058Y-90401003D01*
X146098538Y-90419877D01*
X146083198Y-90439546D01*
X146069064Y-90459991D01*
X146056160Y-90481197D01*
X146044510Y-90503146D01*
X146034139Y-90525820D01*
X146025071Y-90549204D01*
X146017331Y-90573281D01*
X146010944Y-90598032D01*
X146005933Y-90623441D01*
X146002324Y-90649492D01*
X146000140Y-90676167D01*
X145999407Y-90703450D01*
X146001461Y-90748152D01*
X146007447Y-90789304D01*
X146017103Y-90827087D01*
X146030167Y-90861687D01*
X146046378Y-90893286D01*
X146065472Y-90922069D01*
X146087187Y-90948219D01*
X146111263Y-90971920D01*
X146137435Y-90993356D01*
X146165443Y-91012710D01*
X146195023Y-91030167D01*
X146225915Y-91045909D01*
X146257855Y-91060121D01*
X146290581Y-91072987D01*
X146323832Y-91084690D01*
X146357345Y-91095414D01*
X146390858Y-91105342D01*
X146424109Y-91114659D01*
X146456835Y-91123548D01*
X146488775Y-91132192D01*
X146519667Y-91140777D01*
X146549247Y-91149485D01*
X146577255Y-91158499D01*
X146603427Y-91168005D01*
X146627502Y-91178186D01*
X146649218Y-91189224D01*
X146668312Y-91201305D01*
X146684523Y-91214611D01*
X146697587Y-91229328D01*
X146707243Y-91245637D01*
X146713229Y-91263723D01*
X146715283Y-91283771D01*
X146713609Y-91301941D01*
X146708540Y-91318506D01*
X146700003Y-91333427D01*
X146687926Y-91346664D01*
X146672235Y-91358176D01*
X146652860Y-91367924D01*
X146637860Y-91373423D01*
X146621168Y-91378108D01*
X146602763Y-91381968D01*
X146582624Y-91384990D01*
X146560729Y-91387164D01*
X146537056Y-91388477D01*
X146511584Y-91388917D01*
X146486474Y-91388618D01*
X146460783Y-91387712D01*
X146434572Y-91386183D01*
X146407903Y-91384017D01*
X146380840Y-91381198D01*
X146353444Y-91377712D01*
X146325777Y-91373542D01*
X146297902Y-91368676D01*
X146269882Y-91363096D01*
X146241777Y-91356789D01*
X146213651Y-91349739D01*
X146185566Y-91341931D01*
X146157584Y-91333350D01*
X146143651Y-91328766D01*
X146129767Y-91323982D01*
X146115940Y-91318998D01*
X146102178Y-91313811D01*
X146088488Y-91308419D01*
X146074878Y-91302822D01*
X145974128Y-91601042D01*
X145988234Y-91607304D01*
X146002588Y-91613447D01*
X146017178Y-91619466D01*
X146031995Y-91625355D01*
X146047028Y-91631110D01*
X146062267Y-91636724D01*
X146077702Y-91642194D01*
X146093322Y-91647513D01*
X146109117Y-91652677D01*
X146125077Y-91657679D01*
X146141191Y-91662516D01*
X146157449Y-91667181D01*
X146173840Y-91671669D01*
X146190355Y-91675976D01*
X146206983Y-91680096D01*
X146223714Y-91684024D01*
X146240536Y-91687754D01*
X146257441Y-91691281D01*
X146274417Y-91694600D01*
X146291455Y-91697706D01*
X146308544Y-91700594D01*
X146325673Y-91703258D01*
X146342833Y-91705693D01*
X146360013Y-91707894D01*
X146377202Y-91709856D01*
X146394390Y-91711573D01*
X146411568Y-91713041D01*
X146428724Y-91714253D01*
X146445849Y-91715205D01*
X146462932Y-91715891D01*
X146479962Y-91716307D01*
X146496930Y-91716447D01*
G37*
G36*
X147260066Y-91294395D02*
G01*
X147890213Y-91294395D01*
X147890213Y-91000571D01*
X147260066Y-91000571D01*
X147260066Y-91294395D01*
G37*
G36*
X149051221Y-91128799D02*
G01*
X149307310Y-91128799D01*
X149307310Y-91435079D01*
X149051221Y-91435079D01*
X149051221Y-91693000D01*
X148696214Y-91693000D01*
X148696214Y-91435079D01*
X148028332Y-91435079D01*
X148028332Y-91244203D01*
X148109218Y-91124402D01*
X148391766Y-91124402D01*
X148696214Y-91126600D01*
X148696214Y-90644099D01*
X148391766Y-91124402D01*
X148109218Y-91124402D01*
X148706839Y-90239266D01*
X149051221Y-90239266D01*
X149051221Y-91128799D01*
G37*
G36*
X149438835Y-91693000D02*
G01*
X150467952Y-91693000D01*
X150467952Y-91378293D01*
X149968231Y-91378293D01*
X149996697Y-91355311D01*
X150024255Y-91332391D01*
X150050906Y-91309531D01*
X150076649Y-91286729D01*
X150101486Y-91263984D01*
X150125415Y-91241296D01*
X150148439Y-91218663D01*
X150170556Y-91196084D01*
X150191767Y-91173557D01*
X150212073Y-91151081D01*
X150231473Y-91128656D01*
X150249968Y-91106280D01*
X150267559Y-91083952D01*
X150284244Y-91061670D01*
X150300026Y-91039433D01*
X150314903Y-91017241D01*
X150328877Y-90995091D01*
X150341947Y-90972983D01*
X150354115Y-90950916D01*
X150365379Y-90928888D01*
X150375740Y-90906898D01*
X150385199Y-90884945D01*
X150393756Y-90863028D01*
X150401411Y-90841145D01*
X150408165Y-90819296D01*
X150414017Y-90797478D01*
X150418968Y-90775692D01*
X150423018Y-90753935D01*
X150426168Y-90732206D01*
X150428417Y-90710505D01*
X150429767Y-90688830D01*
X150430217Y-90667180D01*
X150429592Y-90641903D01*
X150427729Y-90617192D01*
X150424647Y-90593061D01*
X150420363Y-90569526D01*
X150414896Y-90546604D01*
X150408264Y-90524308D01*
X150400485Y-90502656D01*
X150391577Y-90481662D01*
X150381557Y-90461342D01*
X150370445Y-90441712D01*
X150358259Y-90422787D01*
X150345015Y-90404582D01*
X150330734Y-90387114D01*
X150315432Y-90370398D01*
X150299127Y-90354449D01*
X150281839Y-90339284D01*
X150263585Y-90324916D01*
X150244382Y-90311363D01*
X150224250Y-90298640D01*
X150203207Y-90286762D01*
X150181269Y-90275744D01*
X150158457Y-90265604D01*
X150134787Y-90256355D01*
X150110277Y-90248013D01*
X150084947Y-90240595D01*
X150058814Y-90234115D01*
X150031896Y-90228589D01*
X150004211Y-90224033D01*
X149975777Y-90220463D01*
X149946613Y-90217893D01*
X149916736Y-90216340D01*
X149886166Y-90215819D01*
X149868493Y-90215991D01*
X149850921Y-90216509D01*
X149833453Y-90217372D01*
X149816093Y-90218579D01*
X149798841Y-90220129D01*
X149781702Y-90222023D01*
X149764678Y-90224259D01*
X149747771Y-90226838D01*
X149730985Y-90229759D01*
X149714321Y-90233021D01*
X149697783Y-90236624D01*
X149681374Y-90240568D01*
X149665095Y-90244851D01*
X149648950Y-90249474D01*
X149632941Y-90254436D01*
X149617071Y-90259737D01*
X149601343Y-90265375D01*
X149585759Y-90271352D01*
X149570322Y-90277665D01*
X149555035Y-90284315D01*
X149539901Y-90291302D01*
X149524921Y-90298624D01*
X149510099Y-90306281D01*
X149495438Y-90314273D01*
X149480940Y-90322600D01*
X149466608Y-90331260D01*
X149452444Y-90340254D01*
X149438451Y-90349581D01*
X149424633Y-90359240D01*
X149410990Y-90369232D01*
X149397528Y-90379554D01*
X149384247Y-90390208D01*
X149476570Y-90656921D01*
X149498597Y-90642007D01*
X149520568Y-90628039D01*
X149542468Y-90615020D01*
X149564286Y-90602951D01*
X149586007Y-90591836D01*
X149607618Y-90581676D01*
X149629105Y-90572474D01*
X149650456Y-90564231D01*
X149671656Y-90556950D01*
X149692693Y-90550633D01*
X149713553Y-90545281D01*
X149734222Y-90540898D01*
X149754687Y-90537486D01*
X149774935Y-90535045D01*
X149794952Y-90533579D01*
X149814725Y-90533090D01*
X149841299Y-90533990D01*
X149866579Y-90536649D01*
X149890507Y-90541004D01*
X149913025Y-90546995D01*
X149934074Y-90554559D01*
X149953597Y-90563635D01*
X149971535Y-90574161D01*
X149987832Y-90586076D01*
X150002428Y-90599317D01*
X150015266Y-90613823D01*
X150026288Y-90629532D01*
X150035436Y-90646383D01*
X150042652Y-90664313D01*
X150047878Y-90683262D01*
X150051056Y-90703167D01*
X150052129Y-90723966D01*
X150051449Y-90740977D01*
X150049419Y-90758220D01*
X150046055Y-90775705D01*
X150041374Y-90793444D01*
X150035390Y-90811448D01*
X150028119Y-90829726D01*
X150019577Y-90848290D01*
X150009779Y-90867151D01*
X149998742Y-90886320D01*
X149986481Y-90905807D01*
X149973011Y-90925623D01*
X149958349Y-90945779D01*
X149942510Y-90966285D01*
X149925510Y-90987154D01*
X149907365Y-91008394D01*
X149888089Y-91030018D01*
X149867699Y-91052035D01*
X149846211Y-91074457D01*
X149823641Y-91097295D01*
X149800003Y-91120559D01*
X149775314Y-91144260D01*
X149749589Y-91168409D01*
X149722844Y-91193017D01*
X149695095Y-91218094D01*
X149666358Y-91243652D01*
X149636647Y-91269700D01*
X149605980Y-91296251D01*
X149574371Y-91323314D01*
X149541836Y-91350901D01*
X149508392Y-91379022D01*
X149474053Y-91407689D01*
X149438835Y-91436911D01*
X149438835Y-91693000D01*
G37*
G36*
X151119714Y-91693000D02*
G01*
X151472523Y-91693000D01*
X151472523Y-90876374D01*
X151774773Y-91469151D01*
X152049913Y-91469151D01*
X152358758Y-90838638D01*
X152358758Y-91693000D01*
X152711567Y-91693000D01*
X152711567Y-90239266D01*
X152364986Y-90239266D01*
X151930112Y-91087766D01*
X151470325Y-90239266D01*
X151119714Y-90239266D01*
X151119714Y-91693000D01*
G37*
G36*
X152989637Y-91693000D02*
G01*
X153353071Y-91693000D01*
X153353071Y-90661318D01*
X152989637Y-90661318D01*
X152989637Y-91693000D01*
G37*
G36*
X153172453Y-90520634D02*
G01*
X153195193Y-90519661D01*
X153216932Y-90516787D01*
X153237607Y-90512075D01*
X153257152Y-90505590D01*
X153275504Y-90497396D01*
X153292598Y-90487558D01*
X153308369Y-90476140D01*
X153322754Y-90463206D01*
X153335688Y-90448821D01*
X153347106Y-90433050D01*
X153356944Y-90415956D01*
X153365138Y-90397604D01*
X153371623Y-90378059D01*
X153376335Y-90357384D01*
X153379209Y-90335645D01*
X153380182Y-90312905D01*
X153379209Y-90289779D01*
X153376335Y-90267701D01*
X153371623Y-90246733D01*
X153365138Y-90226936D01*
X153356944Y-90208371D01*
X153347106Y-90191099D01*
X153335688Y-90175182D01*
X153322754Y-90160681D01*
X153308369Y-90147657D01*
X153292598Y-90136170D01*
X153275504Y-90126283D01*
X153257152Y-90118057D01*
X153237607Y-90111552D01*
X153216932Y-90106830D01*
X153195193Y-90103952D01*
X153172453Y-90102979D01*
X153149649Y-90103952D01*
X153127853Y-90106830D01*
X153107130Y-90111552D01*
X153087542Y-90118057D01*
X153069155Y-90126283D01*
X153052032Y-90136170D01*
X153036236Y-90147657D01*
X153021832Y-90160681D01*
X153008883Y-90175182D01*
X152997453Y-90191099D01*
X152987607Y-90208371D01*
X152979408Y-90226936D01*
X152972919Y-90246733D01*
X152968206Y-90267701D01*
X152965331Y-90289779D01*
X152964358Y-90312905D01*
X152965331Y-90335645D01*
X152968206Y-90357384D01*
X152972919Y-90378059D01*
X152979408Y-90397604D01*
X152987607Y-90415956D01*
X152997453Y-90433050D01*
X153008883Y-90448821D01*
X153021832Y-90463206D01*
X153036236Y-90476140D01*
X153052032Y-90487558D01*
X153069155Y-90497396D01*
X153087542Y-90505590D01*
X153107130Y-90512075D01*
X153127853Y-90516787D01*
X153149649Y-90519661D01*
X153172453Y-90520634D01*
G37*
G36*
X153631508Y-91693000D02*
G01*
X153975890Y-91693000D01*
X153975890Y-90737888D01*
X154580757Y-91693000D01*
X154988154Y-91693000D01*
X154988154Y-90239266D01*
X154639376Y-90239266D01*
X154635346Y-91186318D01*
X154047331Y-90239266D01*
X153631508Y-90239266D01*
X153631508Y-91693000D01*
G37*
G36*
X155266958Y-91693000D02*
G01*
X155630391Y-91693000D01*
X155630391Y-90661318D01*
X155266958Y-90661318D01*
X155266958Y-91693000D01*
G37*
G36*
X155449773Y-90520634D02*
G01*
X155472513Y-90519661D01*
X155494252Y-90516787D01*
X155514927Y-90512075D01*
X155534472Y-90505590D01*
X155552824Y-90497396D01*
X155569918Y-90487558D01*
X155585690Y-90476140D01*
X155600074Y-90463206D01*
X155613008Y-90448821D01*
X155624426Y-90433050D01*
X155634264Y-90415956D01*
X155642458Y-90397604D01*
X155648943Y-90378059D01*
X155653655Y-90357384D01*
X155656530Y-90335645D01*
X155657502Y-90312905D01*
X155656530Y-90289779D01*
X155653655Y-90267701D01*
X155648943Y-90246733D01*
X155642458Y-90226936D01*
X155634264Y-90208371D01*
X155624426Y-90191099D01*
X155613008Y-90175182D01*
X155600074Y-90160681D01*
X155585690Y-90147657D01*
X155569918Y-90136170D01*
X155552824Y-90126283D01*
X155534472Y-90118057D01*
X155514927Y-90111552D01*
X155494252Y-90106830D01*
X155472513Y-90103952D01*
X155449773Y-90102979D01*
X155426969Y-90103952D01*
X155405174Y-90106830D01*
X155384450Y-90111552D01*
X155364863Y-90118057D01*
X155346475Y-90126283D01*
X155329352Y-90136170D01*
X155313556Y-90147657D01*
X155299152Y-90160681D01*
X155286203Y-90175182D01*
X155274774Y-90191099D01*
X155264927Y-90208371D01*
X155256728Y-90226936D01*
X155250240Y-90246733D01*
X155245526Y-90267701D01*
X155242651Y-90289779D01*
X155241678Y-90312905D01*
X155242651Y-90335645D01*
X155245526Y-90357384D01*
X155250240Y-90378059D01*
X155256728Y-90397604D01*
X155264927Y-90415956D01*
X155274774Y-90433050D01*
X155286203Y-90448821D01*
X155299152Y-90463206D01*
X155313556Y-90476140D01*
X155329352Y-90487558D01*
X155346475Y-90497396D01*
X155364863Y-90505590D01*
X155384450Y-90512075D01*
X155405174Y-90516787D01*
X155426969Y-90519661D01*
X155449773Y-90520634D01*
G37*
D10*
X157249913Y-105369385D02*
X157078484Y-105369385D01*
X157164199Y-105369385D02*
X157164199Y-105069385D01*
X157164199Y-105069385D02*
X157135627Y-105112242D01*
X157135627Y-105112242D02*
X157107056Y-105140814D01*
X157107056Y-105140814D02*
X157078484Y-105155100D01*
X157435627Y-105069385D02*
X157464198Y-105069385D01*
X157464198Y-105069385D02*
X157492770Y-105083671D01*
X157492770Y-105083671D02*
X157507056Y-105097957D01*
X157507056Y-105097957D02*
X157521341Y-105126528D01*
X157521341Y-105126528D02*
X157535627Y-105183671D01*
X157535627Y-105183671D02*
X157535627Y-105255100D01*
X157535627Y-105255100D02*
X157521341Y-105312242D01*
X157521341Y-105312242D02*
X157507056Y-105340814D01*
X157507056Y-105340814D02*
X157492770Y-105355100D01*
X157492770Y-105355100D02*
X157464198Y-105369385D01*
X157464198Y-105369385D02*
X157435627Y-105369385D01*
X157435627Y-105369385D02*
X157407056Y-105355100D01*
X157407056Y-105355100D02*
X157392770Y-105340814D01*
X157392770Y-105340814D02*
X157378484Y-105312242D01*
X157378484Y-105312242D02*
X157364198Y-105255100D01*
X157364198Y-105255100D02*
X157364198Y-105183671D01*
X157364198Y-105183671D02*
X157378484Y-105126528D01*
X157378484Y-105126528D02*
X157392770Y-105097957D01*
X157392770Y-105097957D02*
X157407056Y-105083671D01*
X157407056Y-105083671D02*
X157435627Y-105069385D01*
X157792770Y-105169385D02*
X157792770Y-105369385D01*
X157664198Y-105169385D02*
X157664198Y-105326528D01*
X157664198Y-105326528D02*
X157678484Y-105355100D01*
X157678484Y-105355100D02*
X157707055Y-105369385D01*
X157707055Y-105369385D02*
X157749912Y-105369385D01*
X157749912Y-105369385D02*
X157778484Y-105355100D01*
X157778484Y-105355100D02*
X157792770Y-105340814D01*
X158035627Y-105212242D02*
X157935627Y-105212242D01*
X157935627Y-105369385D02*
X157935627Y-105069385D01*
X157935627Y-105069385D02*
X158078484Y-105069385D01*
X154836913Y-117053385D02*
X154665484Y-117053385D01*
X154751199Y-117053385D02*
X154751199Y-116753385D01*
X154751199Y-116753385D02*
X154722627Y-116796242D01*
X154722627Y-116796242D02*
X154694056Y-116824814D01*
X154694056Y-116824814D02*
X154665484Y-116839100D01*
X155094056Y-116853385D02*
X155094056Y-117053385D01*
X154965484Y-116853385D02*
X154965484Y-117010528D01*
X154965484Y-117010528D02*
X154979770Y-117039100D01*
X154979770Y-117039100D02*
X155008341Y-117053385D01*
X155008341Y-117053385D02*
X155051198Y-117053385D01*
X155051198Y-117053385D02*
X155079770Y-117039100D01*
X155079770Y-117039100D02*
X155094056Y-117024814D01*
X155336913Y-116896242D02*
X155236913Y-116896242D01*
X155236913Y-117053385D02*
X155236913Y-116753385D01*
X155236913Y-116753385D02*
X155379770Y-116753385D01*
D12*
G36*
X148331159Y-92502207D02*
G01*
X148340360Y-92502571D01*
X148349253Y-92503173D01*
X148357838Y-92504008D01*
X148366117Y-92505072D01*
X148374089Y-92506361D01*
X148381755Y-92507871D01*
X148389115Y-92509597D01*
X148396170Y-92511534D01*
X148402920Y-92513680D01*
X148409366Y-92516028D01*
X148415508Y-92518576D01*
X148421346Y-92521319D01*
X148426881Y-92524252D01*
X148432113Y-92527372D01*
X148437043Y-92530673D01*
X148441671Y-92534153D01*
X148445997Y-92537805D01*
X148450022Y-92541627D01*
X148453747Y-92545614D01*
X148457171Y-92549762D01*
X148460295Y-92554066D01*
X148463120Y-92558522D01*
X148465645Y-92563126D01*
X148467872Y-92567873D01*
X148469801Y-92572759D01*
X148471432Y-92577781D01*
X148472765Y-92582933D01*
X148473802Y-92588212D01*
X148474541Y-92593613D01*
X148474985Y-92599132D01*
X148475133Y-92604764D01*
X148474911Y-92611782D01*
X148474249Y-92618616D01*
X148473153Y-92625257D01*
X148471631Y-92631697D01*
X148469689Y-92637928D01*
X148467333Y-92643942D01*
X148464570Y-92649731D01*
X148461406Y-92655286D01*
X148457849Y-92660600D01*
X148453905Y-92665664D01*
X148449579Y-92670470D01*
X148444880Y-92675010D01*
X148439814Y-92679276D01*
X148434386Y-92683260D01*
X148428604Y-92686953D01*
X148422474Y-92690347D01*
X148426574Y-92691874D01*
X148430573Y-92693505D01*
X148434469Y-92695240D01*
X148438262Y-92697077D01*
X148441948Y-92699018D01*
X148445526Y-92701060D01*
X148448994Y-92703203D01*
X148452350Y-92705447D01*
X148455591Y-92707792D01*
X148458717Y-92710236D01*
X148461724Y-92712779D01*
X148467378Y-92718159D01*
X148472537Y-92723929D01*
X148477184Y-92730084D01*
X148481305Y-92736619D01*
X148484884Y-92743529D01*
X148486466Y-92747124D01*
X148487906Y-92750811D01*
X148489203Y-92754589D01*
X148490354Y-92758458D01*
X148491359Y-92762418D01*
X148492214Y-92766468D01*
X148492918Y-92770607D01*
X148493469Y-92774834D01*
X148493865Y-92779150D01*
X148494104Y-92783554D01*
X148494184Y-92788044D01*
X148494020Y-92794354D01*
X148493528Y-92800494D01*
X148492711Y-92806464D01*
X148491569Y-92812262D01*
X148490103Y-92817884D01*
X148488315Y-92823329D01*
X148486206Y-92828596D01*
X148483777Y-92833681D01*
X148481030Y-92838583D01*
X148477966Y-92843300D01*
X148474586Y-92847829D01*
X148470892Y-92852169D01*
X148466884Y-92856318D01*
X148462563Y-92860273D01*
X148457933Y-92864032D01*
X148452992Y-92867594D01*
X148447744Y-92870956D01*
X148442188Y-92874116D01*
X148436326Y-92877072D01*
X148430161Y-92879822D01*
X148423692Y-92882364D01*
X148416921Y-92884696D01*
X148409849Y-92886816D01*
X148402478Y-92888721D01*
X148394809Y-92890410D01*
X148386843Y-92891880D01*
X148378582Y-92893130D01*
X148370026Y-92894158D01*
X148361177Y-92894960D01*
X148352037Y-92895536D01*
X148342606Y-92895883D01*
X148332886Y-92896000D01*
X148121176Y-92896000D01*
X148121176Y-92735190D01*
X148230890Y-92735190D01*
X148230890Y-92815986D01*
X148323898Y-92815986D01*
X148330831Y-92815832D01*
X148337339Y-92815370D01*
X148343420Y-92814597D01*
X148349070Y-92813513D01*
X148354286Y-92812114D01*
X148359065Y-92810401D01*
X148363404Y-92808370D01*
X148367300Y-92806020D01*
X148370749Y-92803350D01*
X148373748Y-92800358D01*
X148376295Y-92797041D01*
X148378385Y-92793399D01*
X148380017Y-92789430D01*
X148381186Y-92785131D01*
X148381890Y-92780501D01*
X148382125Y-92775539D01*
X148381890Y-92770594D01*
X148381186Y-92765979D01*
X148380017Y-92761694D01*
X148378385Y-92757735D01*
X148376295Y-92754102D01*
X148373748Y-92750794D01*
X148370749Y-92747808D01*
X148367300Y-92745143D01*
X148363404Y-92742797D01*
X148359065Y-92740770D01*
X148354286Y-92739058D01*
X148349070Y-92737661D01*
X148343420Y-92736578D01*
X148337339Y-92735806D01*
X148330831Y-92735344D01*
X148323898Y-92735190D01*
X148230890Y-92735190D01*
X148121176Y-92735190D01*
X148121176Y-92582196D01*
X148230890Y-92582196D01*
X148230890Y-92658400D01*
X148307094Y-92658400D01*
X148313808Y-92658249D01*
X148320102Y-92657796D01*
X148325973Y-92657043D01*
X148331420Y-92655988D01*
X148336441Y-92654634D01*
X148341035Y-92652980D01*
X148345199Y-92651028D01*
X148348933Y-92648777D01*
X148352233Y-92646228D01*
X148355099Y-92643383D01*
X148357529Y-92640241D01*
X148359520Y-92636803D01*
X148361073Y-92633069D01*
X148362183Y-92629041D01*
X148362851Y-92624719D01*
X148363074Y-92620103D01*
X148362851Y-92615572D01*
X148362183Y-92611321D01*
X148361073Y-92607354D01*
X148359520Y-92603670D01*
X148357529Y-92600272D01*
X148355099Y-92597161D01*
X148352233Y-92594339D01*
X148348933Y-92591807D01*
X148345199Y-92589568D01*
X148341035Y-92587621D01*
X148336441Y-92585970D01*
X148331420Y-92584616D01*
X148325973Y-92583560D01*
X148320102Y-92582803D01*
X148313808Y-92582348D01*
X148307094Y-92582196D01*
X148230890Y-92582196D01*
X148121176Y-92582196D01*
X148121176Y-92502085D01*
X148321651Y-92502085D01*
X148331159Y-92502207D01*
G37*
G36*
X148685214Y-92583497D02*
G01*
X148694083Y-92583884D01*
X148702701Y-92584532D01*
X148711064Y-92585443D01*
X148719171Y-92586618D01*
X148727018Y-92588061D01*
X148734603Y-92589772D01*
X148741924Y-92591755D01*
X148748977Y-92594012D01*
X148755759Y-92596543D01*
X148762269Y-92599352D01*
X148768504Y-92602441D01*
X148774460Y-92605812D01*
X148780136Y-92609467D01*
X148785528Y-92613407D01*
X148790633Y-92617636D01*
X148795451Y-92622155D01*
X148799976Y-92626966D01*
X148804208Y-92632072D01*
X148808142Y-92637474D01*
X148811778Y-92643175D01*
X148815111Y-92649177D01*
X148818139Y-92655482D01*
X148820860Y-92662091D01*
X148823271Y-92669008D01*
X148825369Y-92676234D01*
X148827151Y-92683771D01*
X148828616Y-92691622D01*
X148829759Y-92699788D01*
X148830580Y-92708272D01*
X148831074Y-92717076D01*
X148831239Y-92726202D01*
X148831239Y-92896000D01*
X148732174Y-92896000D01*
X148732174Y-92858093D01*
X148730710Y-92860781D01*
X148727517Y-92865910D01*
X148723971Y-92870706D01*
X148720075Y-92875169D01*
X148715830Y-92879298D01*
X148711237Y-92883090D01*
X148706299Y-92886544D01*
X148701018Y-92889660D01*
X148695394Y-92892435D01*
X148689430Y-92894868D01*
X148683128Y-92896958D01*
X148676488Y-92898704D01*
X148669514Y-92900103D01*
X148662206Y-92901154D01*
X148654566Y-92901856D01*
X148650622Y-92902076D01*
X148646596Y-92902208D01*
X148642488Y-92902252D01*
X148635760Y-92902133D01*
X148629223Y-92901780D01*
X148622879Y-92901198D01*
X148616730Y-92900392D01*
X148610776Y-92899368D01*
X148605020Y-92898129D01*
X148599462Y-92896682D01*
X148594105Y-92895032D01*
X148588949Y-92893183D01*
X148583997Y-92891141D01*
X148579249Y-92888911D01*
X148574707Y-92886497D01*
X148570372Y-92883906D01*
X148566246Y-92881142D01*
X148562331Y-92878211D01*
X148558627Y-92875117D01*
X148555137Y-92871865D01*
X148551861Y-92868461D01*
X148548802Y-92864910D01*
X148545960Y-92861217D01*
X148543337Y-92857387D01*
X148540934Y-92853426D01*
X148538754Y-92849337D01*
X148536796Y-92845127D01*
X148535064Y-92840800D01*
X148533558Y-92836362D01*
X148532280Y-92831818D01*
X148531231Y-92827172D01*
X148530412Y-92822431D01*
X148529826Y-92817598D01*
X148529473Y-92812680D01*
X148529355Y-92807681D01*
X148529459Y-92803090D01*
X148632425Y-92803090D01*
X148632806Y-92808169D01*
X148633935Y-92812940D01*
X148635793Y-92817359D01*
X148638360Y-92821386D01*
X148641618Y-92824979D01*
X148645547Y-92828096D01*
X148650128Y-92830696D01*
X148655341Y-92832738D01*
X148659159Y-92833768D01*
X148663243Y-92834519D01*
X148667588Y-92834978D01*
X148672188Y-92835134D01*
X148676567Y-92834996D01*
X148680866Y-92834582D01*
X148685071Y-92833887D01*
X148689167Y-92832912D01*
X148693142Y-92831652D01*
X148696981Y-92830106D01*
X148700670Y-92828271D01*
X148704196Y-92826146D01*
X148707544Y-92823728D01*
X148710701Y-92821014D01*
X148713653Y-92818002D01*
X148716385Y-92814691D01*
X148718885Y-92811077D01*
X148721137Y-92807159D01*
X148723129Y-92802934D01*
X148724847Y-92798400D01*
X148724847Y-92770947D01*
X148678929Y-92770947D01*
X148675787Y-92770985D01*
X148669881Y-92771282D01*
X148664467Y-92771867D01*
X148659531Y-92772730D01*
X148655058Y-92773862D01*
X148651035Y-92775253D01*
X148645814Y-92777804D01*
X148641526Y-92780885D01*
X148638123Y-92784462D01*
X148635559Y-92788503D01*
X148633787Y-92792976D01*
X148632758Y-92797849D01*
X148632425Y-92803090D01*
X148529459Y-92803090D01*
X148529475Y-92802363D01*
X148529837Y-92797180D01*
X148530444Y-92792135D01*
X148531297Y-92787229D01*
X148532399Y-92782466D01*
X148533753Y-92777847D01*
X148535359Y-92773375D01*
X148537221Y-92769051D01*
X148539340Y-92764878D01*
X148541720Y-92760858D01*
X148544362Y-92756994D01*
X148547268Y-92753286D01*
X148550441Y-92749739D01*
X148553883Y-92746353D01*
X148557596Y-92743131D01*
X148561583Y-92740075D01*
X148565845Y-92737187D01*
X148570385Y-92734470D01*
X148575205Y-92731926D01*
X148580307Y-92729556D01*
X148585694Y-92727363D01*
X148591368Y-92725350D01*
X148597331Y-92723518D01*
X148603585Y-92721870D01*
X148610132Y-92720407D01*
X148616976Y-92719132D01*
X148624117Y-92718048D01*
X148631559Y-92717155D01*
X148639303Y-92716458D01*
X148647352Y-92715956D01*
X148655707Y-92715654D01*
X148664372Y-92715553D01*
X148724847Y-92715553D01*
X148724311Y-92709620D01*
X148723326Y-92704025D01*
X148721888Y-92698775D01*
X148719994Y-92693875D01*
X148717640Y-92689331D01*
X148714823Y-92685151D01*
X148711539Y-92681339D01*
X148707786Y-92677903D01*
X148703561Y-92674848D01*
X148698859Y-92672180D01*
X148693677Y-92669905D01*
X148688013Y-92668031D01*
X148681863Y-92666562D01*
X148675224Y-92665505D01*
X148668092Y-92664867D01*
X148660464Y-92664653D01*
X148654969Y-92664776D01*
X148649416Y-92665144D01*
X148643828Y-92665749D01*
X148638226Y-92666585D01*
X148632633Y-92667647D01*
X148627072Y-92668929D01*
X148621565Y-92670424D01*
X148616134Y-92672127D01*
X148610802Y-92674031D01*
X148605590Y-92676130D01*
X148600521Y-92678419D01*
X148595618Y-92680892D01*
X148590902Y-92683542D01*
X148586397Y-92686363D01*
X148582124Y-92689350D01*
X148578106Y-92692496D01*
X148542251Y-92618735D01*
X148545560Y-92616614D01*
X148548963Y-92614554D01*
X148552456Y-92612558D01*
X148556036Y-92610624D01*
X148559699Y-92608753D01*
X148563441Y-92606946D01*
X148567258Y-92605202D01*
X148571146Y-92603523D01*
X148575102Y-92601909D01*
X148579122Y-92600359D01*
X148583203Y-92598874D01*
X148587339Y-92597456D01*
X148591528Y-92596103D01*
X148595766Y-92594816D01*
X148600050Y-92593596D01*
X148604374Y-92592442D01*
X148608736Y-92591356D01*
X148613131Y-92590338D01*
X148617557Y-92589387D01*
X148622008Y-92588505D01*
X148626482Y-92587692D01*
X148630975Y-92586947D01*
X148635483Y-92586272D01*
X148640001Y-92585666D01*
X148644527Y-92585130D01*
X148649057Y-92584665D01*
X148653586Y-92584270D01*
X148658111Y-92583947D01*
X148662628Y-92583694D01*
X148667134Y-92583514D01*
X148671624Y-92583405D01*
X148676096Y-92583369D01*
X148685214Y-92583497D01*
G37*
G36*
X149040065Y-92583527D02*
G01*
X149047604Y-92584004D01*
X149054915Y-92584801D01*
X149061993Y-92585921D01*
X149068836Y-92587366D01*
X149075439Y-92589139D01*
X149081799Y-92591241D01*
X149087914Y-92593676D01*
X149093778Y-92596444D01*
X149099390Y-92599550D01*
X149104745Y-92602994D01*
X149109841Y-92606779D01*
X149114673Y-92610908D01*
X149119238Y-92615383D01*
X149123533Y-92620205D01*
X149127554Y-92625378D01*
X149127554Y-92589621D01*
X149228866Y-92589621D01*
X149228866Y-92837479D01*
X149228676Y-92848241D01*
X149228109Y-92858640D01*
X149227167Y-92868675D01*
X149225854Y-92878349D01*
X149224172Y-92887663D01*
X149222125Y-92896619D01*
X149219716Y-92905218D01*
X149216947Y-92913461D01*
X149213823Y-92921351D01*
X149210345Y-92928888D01*
X149206518Y-92936074D01*
X149202344Y-92942911D01*
X149197826Y-92949400D01*
X149192967Y-92955542D01*
X149187771Y-92961340D01*
X149182240Y-92966793D01*
X149176378Y-92971905D01*
X149170188Y-92976676D01*
X149163672Y-92981108D01*
X149156834Y-92985203D01*
X149149676Y-92988961D01*
X149142203Y-92992385D01*
X149134417Y-92995476D01*
X149126321Y-92998235D01*
X149117918Y-93000664D01*
X149109211Y-93002764D01*
X149100204Y-93004537D01*
X149090899Y-93005985D01*
X149081299Y-93007108D01*
X149071408Y-93007908D01*
X149061229Y-93008387D01*
X149050764Y-93008547D01*
X149045314Y-93008507D01*
X149039884Y-93008390D01*
X149034475Y-93008194D01*
X149029092Y-93007920D01*
X149023737Y-93007568D01*
X149018413Y-93007138D01*
X149013122Y-93006629D01*
X149007868Y-93006043D01*
X149002653Y-93005379D01*
X148997480Y-93004637D01*
X148992353Y-93003818D01*
X148987273Y-93002921D01*
X148982244Y-93001946D01*
X148977268Y-93000894D01*
X148972349Y-92999764D01*
X148967490Y-92998557D01*
X148962692Y-92997273D01*
X148957959Y-92995911D01*
X148953295Y-92994473D01*
X148948700Y-92992957D01*
X148944180Y-92991364D01*
X148939735Y-92989695D01*
X148935370Y-92987948D01*
X148931087Y-92986125D01*
X148926889Y-92984225D01*
X148922778Y-92982249D01*
X148918758Y-92980195D01*
X148914831Y-92978066D01*
X148911001Y-92975860D01*
X148907269Y-92973577D01*
X148903640Y-92971219D01*
X148900115Y-92968784D01*
X148938803Y-92893069D01*
X148943714Y-92896894D01*
X148948973Y-92900524D01*
X148954549Y-92903952D01*
X148960408Y-92907171D01*
X148966520Y-92910173D01*
X148972853Y-92912952D01*
X148979374Y-92915500D01*
X148986052Y-92917810D01*
X148992855Y-92919876D01*
X148999751Y-92921689D01*
X149006707Y-92923243D01*
X149013693Y-92924530D01*
X149020676Y-92925544D01*
X149027624Y-92926277D01*
X149034505Y-92926722D01*
X149041288Y-92926872D01*
X149046549Y-92926793D01*
X149051618Y-92926558D01*
X149056496Y-92926168D01*
X149061185Y-92925623D01*
X149065687Y-92924924D01*
X149070003Y-92924073D01*
X149074135Y-92923070D01*
X149078084Y-92921917D01*
X149085443Y-92919162D01*
X149092092Y-92915816D01*
X149098044Y-92911886D01*
X149103313Y-92907381D01*
X149107913Y-92902308D01*
X149111856Y-92896675D01*
X149115156Y-92890490D01*
X149117826Y-92883760D01*
X149119879Y-92876493D01*
X149120679Y-92872660D01*
X149121330Y-92868697D01*
X149121833Y-92864602D01*
X149122190Y-92860379D01*
X149122403Y-92856027D01*
X149122474Y-92851547D01*
X149122474Y-92841484D01*
X149118473Y-92845847D01*
X149114240Y-92849921D01*
X149109777Y-92853709D01*
X149105087Y-92857211D01*
X149100174Y-92860427D01*
X149095041Y-92863360D01*
X149089692Y-92866009D01*
X149084128Y-92868376D01*
X149078354Y-92870461D01*
X149072372Y-92872265D01*
X149066186Y-92873789D01*
X149059798Y-92875034D01*
X149053213Y-92876001D01*
X149046432Y-92876691D01*
X149039460Y-92877104D01*
X149032300Y-92877242D01*
X149024781Y-92877075D01*
X149017344Y-92876579D01*
X149009999Y-92875757D01*
X149002757Y-92874614D01*
X148995627Y-92873154D01*
X148988620Y-92871383D01*
X148981747Y-92869303D01*
X148975017Y-92866919D01*
X148968441Y-92864237D01*
X148962029Y-92861260D01*
X148955792Y-92857992D01*
X148949739Y-92854439D01*
X148943881Y-92850604D01*
X148938229Y-92846492D01*
X148932792Y-92842107D01*
X148927580Y-92837454D01*
X148922605Y-92832538D01*
X148917877Y-92827361D01*
X148913405Y-92821930D01*
X148909200Y-92816248D01*
X148905273Y-92810319D01*
X148901633Y-92804149D01*
X148898290Y-92797741D01*
X148895256Y-92791100D01*
X148892541Y-92784231D01*
X148890154Y-92777137D01*
X148888106Y-92769823D01*
X148886407Y-92762294D01*
X148885068Y-92754553D01*
X148884099Y-92746606D01*
X148883510Y-92738457D01*
X148883311Y-92730110D01*
X148990876Y-92730110D01*
X148991206Y-92736947D01*
X148992176Y-92743488D01*
X148993760Y-92749711D01*
X148995929Y-92755598D01*
X148998655Y-92761128D01*
X149001912Y-92766282D01*
X149005670Y-92771039D01*
X149009903Y-92775380D01*
X149014582Y-92779285D01*
X149019679Y-92782734D01*
X149025168Y-92785706D01*
X149031020Y-92788183D01*
X149037208Y-92790144D01*
X149043703Y-92791569D01*
X149050478Y-92792439D01*
X149057505Y-92792734D01*
X149064526Y-92792439D01*
X149071283Y-92791569D01*
X149077749Y-92790144D01*
X149083899Y-92788183D01*
X149089707Y-92785706D01*
X149095146Y-92782734D01*
X149100191Y-92779285D01*
X149104815Y-92775380D01*
X149108993Y-92771039D01*
X149112699Y-92766282D01*
X149115905Y-92761128D01*
X149118588Y-92755598D01*
X149120719Y-92749711D01*
X149122274Y-92743488D01*
X149123226Y-92736947D01*
X149123549Y-92730110D01*
X149123226Y-92723262D01*
X149122274Y-92716725D01*
X149120719Y-92710517D01*
X149118588Y-92704657D01*
X149115905Y-92699161D01*
X149112699Y-92694049D01*
X149108993Y-92689338D01*
X149104815Y-92685047D01*
X149100191Y-92681193D01*
X149095146Y-92677794D01*
X149089707Y-92674869D01*
X149083899Y-92672435D01*
X149077749Y-92670510D01*
X149071283Y-92669114D01*
X149064526Y-92668262D01*
X149057505Y-92667974D01*
X149050478Y-92668262D01*
X149043703Y-92669114D01*
X149037208Y-92670510D01*
X149031020Y-92672435D01*
X149025168Y-92674869D01*
X149019679Y-92677794D01*
X149014582Y-92681193D01*
X149009903Y-92685047D01*
X149005670Y-92689338D01*
X149001912Y-92694049D01*
X148998655Y-92699161D01*
X148995929Y-92704657D01*
X148993760Y-92710517D01*
X148992176Y-92716725D01*
X148991206Y-92723262D01*
X148990876Y-92730110D01*
X148883311Y-92730110D01*
X148883510Y-92721807D01*
X148884099Y-92713698D01*
X148885068Y-92705789D01*
X148886407Y-92698083D01*
X148888106Y-92690585D01*
X148890154Y-92683300D01*
X148892541Y-92676232D01*
X148895256Y-92669386D01*
X148898290Y-92662767D01*
X148901633Y-92656378D01*
X148905273Y-92650224D01*
X148909200Y-92644310D01*
X148913405Y-92638641D01*
X148917877Y-92633220D01*
X148922605Y-92628053D01*
X148927580Y-92623144D01*
X148932792Y-92618497D01*
X148938229Y-92614117D01*
X148943881Y-92610009D01*
X148949739Y-92606177D01*
X148955792Y-92602625D01*
X148962029Y-92599358D01*
X148968441Y-92596381D01*
X148975017Y-92593699D01*
X148981747Y-92591314D01*
X148988620Y-92589234D01*
X148995627Y-92587460D01*
X149002757Y-92585999D01*
X149009999Y-92584855D01*
X149017344Y-92584032D01*
X149024781Y-92583535D01*
X149032300Y-92583369D01*
X149040065Y-92583527D01*
G37*
G36*
X149509843Y-92738512D02*
G01*
X149509769Y-92743294D01*
X149509547Y-92747898D01*
X149509182Y-92752324D01*
X149508678Y-92756574D01*
X149508038Y-92760651D01*
X149507265Y-92764556D01*
X149505338Y-92771857D01*
X149502927Y-92778492D01*
X149500060Y-92784474D01*
X149496766Y-92789819D01*
X149493076Y-92794541D01*
X149489018Y-92798654D01*
X149484622Y-92802171D01*
X149479917Y-92805109D01*
X149474933Y-92807480D01*
X149469699Y-92809299D01*
X149464244Y-92810581D01*
X149458597Y-92811339D01*
X149452788Y-92811589D01*
X149446957Y-92811366D01*
X149441450Y-92810685D01*
X149436273Y-92809534D01*
X149431434Y-92807895D01*
X149426940Y-92805755D01*
X149422798Y-92803099D01*
X149419017Y-92799911D01*
X149415602Y-92796177D01*
X149412562Y-92791883D01*
X149409903Y-92787012D01*
X149407634Y-92781551D01*
X149405761Y-92775484D01*
X149404291Y-92768796D01*
X149403232Y-92761474D01*
X149402859Y-92757569D01*
X149402591Y-92753500D01*
X149402430Y-92749265D01*
X149402376Y-92744862D01*
X149402376Y-92589621D01*
X149295984Y-92589621D01*
X149295984Y-92762545D01*
X149296142Y-92771499D01*
X149296612Y-92780134D01*
X149297388Y-92788453D01*
X149298464Y-92796458D01*
X149299832Y-92804151D01*
X149301488Y-92811535D01*
X149303424Y-92818612D01*
X149305635Y-92825384D01*
X149308114Y-92831854D01*
X149310855Y-92838023D01*
X149313851Y-92843893D01*
X149317097Y-92849468D01*
X149320586Y-92854749D01*
X149324312Y-92859738D01*
X149328269Y-92864439D01*
X149332450Y-92868852D01*
X149336849Y-92872980D01*
X149341460Y-92876826D01*
X149346276Y-92880392D01*
X149351292Y-92883679D01*
X149356501Y-92886691D01*
X149361896Y-92889429D01*
X149367472Y-92891895D01*
X149373223Y-92894093D01*
X149379141Y-92896023D01*
X149385222Y-92897689D01*
X149391457Y-92899093D01*
X149397842Y-92900236D01*
X149404370Y-92901121D01*
X149411035Y-92901751D01*
X149417830Y-92902127D01*
X149424749Y-92902252D01*
X149431241Y-92902108D01*
X149437668Y-92901674D01*
X149444019Y-92900950D01*
X149450283Y-92899935D01*
X149456451Y-92898628D01*
X149462511Y-92897028D01*
X149468454Y-92895134D01*
X149474269Y-92892946D01*
X149479946Y-92890463D01*
X149485473Y-92887683D01*
X149490841Y-92884607D01*
X149496039Y-92881232D01*
X149501057Y-92877558D01*
X149505884Y-92873585D01*
X149510509Y-92869312D01*
X149514923Y-92864736D01*
X149514923Y-92896000D01*
X149616333Y-92896000D01*
X149616333Y-92589621D01*
X149509843Y-92589621D01*
X149509843Y-92738512D01*
G37*
G36*
X149840592Y-92583536D02*
G01*
X149848831Y-92584036D01*
X149856951Y-92584867D01*
X149864942Y-92586027D01*
X149872794Y-92587515D01*
X149880496Y-92589328D01*
X149888038Y-92591464D01*
X149895410Y-92593921D01*
X149902601Y-92596699D01*
X149909601Y-92599794D01*
X149916401Y-92603204D01*
X149922989Y-92606929D01*
X149929356Y-92610965D01*
X149935491Y-92615311D01*
X149941385Y-92619966D01*
X149947026Y-92624927D01*
X149952404Y-92630191D01*
X149957510Y-92635759D01*
X149962333Y-92641626D01*
X149966863Y-92647792D01*
X149971089Y-92654255D01*
X149975001Y-92661013D01*
X149978590Y-92668063D01*
X149981844Y-92675404D01*
X149984754Y-92683034D01*
X149987309Y-92690951D01*
X149989499Y-92699153D01*
X149991314Y-92707638D01*
X149992743Y-92716405D01*
X149993777Y-92725451D01*
X149994405Y-92734775D01*
X149994616Y-92744374D01*
X149994603Y-92745882D01*
X149994468Y-92749835D01*
X149994220Y-92753982D01*
X149993902Y-92758234D01*
X149993557Y-92762505D01*
X149993228Y-92766706D01*
X149992956Y-92770752D01*
X149772258Y-92770752D01*
X149774145Y-92776565D01*
X149776430Y-92782058D01*
X149779109Y-92787222D01*
X149782174Y-92792050D01*
X149785619Y-92796534D01*
X149789438Y-92800668D01*
X149793624Y-92804443D01*
X149798172Y-92807852D01*
X149803074Y-92810888D01*
X149808325Y-92813544D01*
X149813919Y-92815811D01*
X149819848Y-92817683D01*
X149826108Y-92819152D01*
X149832690Y-92820210D01*
X149839590Y-92820851D01*
X149846801Y-92821066D01*
X149852237Y-92820964D01*
X149857456Y-92820656D01*
X149862474Y-92820142D01*
X149867306Y-92819419D01*
X149871970Y-92818486D01*
X149876481Y-92817341D01*
X149880856Y-92815983D01*
X149885110Y-92814410D01*
X149889260Y-92812621D01*
X149893322Y-92810614D01*
X149897312Y-92808387D01*
X149901247Y-92805940D01*
X149905142Y-92803269D01*
X149909014Y-92800374D01*
X149912878Y-92797254D01*
X149916752Y-92793906D01*
X149972732Y-92853013D01*
X149969964Y-92856016D01*
X149967116Y-92858927D01*
X149964190Y-92861745D01*
X149961184Y-92864469D01*
X149958098Y-92867100D01*
X149954932Y-92869638D01*
X149951685Y-92872081D01*
X149948358Y-92874431D01*
X149944950Y-92876687D01*
X149941460Y-92878849D01*
X149937889Y-92880916D01*
X149934235Y-92882889D01*
X149930498Y-92884767D01*
X149926679Y-92886551D01*
X149922777Y-92888239D01*
X149918791Y-92889832D01*
X149914721Y-92891330D01*
X149910568Y-92892733D01*
X149906329Y-92894040D01*
X149902006Y-92895251D01*
X149897597Y-92896366D01*
X149893103Y-92897385D01*
X149888523Y-92898307D01*
X149883857Y-92899133D01*
X149879104Y-92899863D01*
X149874264Y-92900496D01*
X149869337Y-92901032D01*
X149864323Y-92901471D01*
X149859220Y-92901812D01*
X149854029Y-92902057D01*
X149848750Y-92902203D01*
X149843381Y-92902252D01*
X149833364Y-92902058D01*
X149823574Y-92901481D01*
X149814020Y-92900529D01*
X149804705Y-92899209D01*
X149795637Y-92897528D01*
X149786821Y-92895495D01*
X149778263Y-92893116D01*
X149769968Y-92890399D01*
X149761943Y-92887351D01*
X149754193Y-92883981D01*
X149746725Y-92880295D01*
X149739544Y-92876302D01*
X149732657Y-92872007D01*
X149726068Y-92867420D01*
X149719784Y-92862548D01*
X149713810Y-92857397D01*
X149708154Y-92851976D01*
X149702819Y-92846292D01*
X149697813Y-92840352D01*
X149693141Y-92834165D01*
X149688809Y-92827737D01*
X149684824Y-92821076D01*
X149681189Y-92814189D01*
X149677913Y-92807084D01*
X149675000Y-92799769D01*
X149672456Y-92792251D01*
X149670288Y-92784538D01*
X149668500Y-92776636D01*
X149667100Y-92768554D01*
X149666092Y-92760298D01*
X149665484Y-92751878D01*
X149665279Y-92743299D01*
X149665486Y-92734485D01*
X149666101Y-92725854D01*
X149667116Y-92717411D01*
X149667583Y-92714674D01*
X149770597Y-92714674D01*
X149894965Y-92714674D01*
X149893695Y-92708429D01*
X149892019Y-92702491D01*
X149889948Y-92696873D01*
X149887495Y-92691588D01*
X149884672Y-92686649D01*
X149881491Y-92682070D01*
X149877965Y-92677864D01*
X149874107Y-92674044D01*
X149869928Y-92670623D01*
X149865441Y-92667616D01*
X149860657Y-92665034D01*
X149855590Y-92662893D01*
X149850252Y-92661204D01*
X149844655Y-92659981D01*
X149838811Y-92659237D01*
X149832732Y-92658986D01*
X149826660Y-92659237D01*
X149820834Y-92659981D01*
X149815263Y-92661204D01*
X149809958Y-92662893D01*
X149804928Y-92665034D01*
X149800184Y-92667616D01*
X149795734Y-92670623D01*
X149791590Y-92674044D01*
X149787760Y-92677864D01*
X149784255Y-92682070D01*
X149781084Y-92686649D01*
X149778258Y-92691588D01*
X149775787Y-92696873D01*
X149773679Y-92702491D01*
X149771946Y-92708429D01*
X149770597Y-92714674D01*
X149667583Y-92714674D01*
X149668523Y-92709162D01*
X149670312Y-92701116D01*
X149672475Y-92693277D01*
X149675004Y-92685652D01*
X149677890Y-92678248D01*
X149681125Y-92671071D01*
X149684700Y-92664127D01*
X149688607Y-92657423D01*
X149692837Y-92650965D01*
X149697382Y-92644759D01*
X149702234Y-92638813D01*
X149707383Y-92633132D01*
X149712821Y-92627723D01*
X149718540Y-92622592D01*
X149724532Y-92617746D01*
X149730787Y-92613191D01*
X149737298Y-92608933D01*
X149744055Y-92604979D01*
X149751051Y-92601335D01*
X149758276Y-92598008D01*
X149765723Y-92595004D01*
X149773382Y-92592329D01*
X149781246Y-92589990D01*
X149789306Y-92587994D01*
X149797553Y-92586346D01*
X149805978Y-92585053D01*
X149814575Y-92584121D01*
X149823332Y-92583558D01*
X149832244Y-92583369D01*
X149840592Y-92583536D01*
G37*
G36*
X150227038Y-92810417D02*
G01*
X150223544Y-92812595D01*
X150219825Y-92814509D01*
X150215911Y-92816151D01*
X150211834Y-92817512D01*
X150207623Y-92818585D01*
X150203311Y-92819361D01*
X150198928Y-92819832D01*
X150194505Y-92819991D01*
X150189314Y-92819666D01*
X150184482Y-92818697D01*
X150180041Y-92817097D01*
X150176025Y-92814875D01*
X150172466Y-92812044D01*
X150169398Y-92808614D01*
X150166855Y-92804596D01*
X150164870Y-92800001D01*
X150163477Y-92794842D01*
X150162707Y-92789127D01*
X150162558Y-92785016D01*
X150162558Y-92683411D01*
X150232020Y-92683411D01*
X150232020Y-92603885D01*
X150162558Y-92603885D01*
X150162558Y-92524946D01*
X150056166Y-92524946D01*
X150056166Y-92603885D01*
X150011909Y-92603885D01*
X150011909Y-92683411D01*
X150056166Y-92683411D01*
X150056166Y-92786090D01*
X150056298Y-92793300D01*
X150056695Y-92800275D01*
X150057353Y-92807015D01*
X150058270Y-92813521D01*
X150059443Y-92819794D01*
X150060871Y-92825833D01*
X150062550Y-92831639D01*
X150064479Y-92837213D01*
X150066655Y-92842555D01*
X150069075Y-92847665D01*
X150071738Y-92852544D01*
X150074641Y-92857191D01*
X150077781Y-92861608D01*
X150081156Y-92865795D01*
X150084763Y-92869752D01*
X150088601Y-92873480D01*
X150092667Y-92876979D01*
X150096958Y-92880249D01*
X150101472Y-92883291D01*
X150106207Y-92886106D01*
X150111160Y-92888693D01*
X150116329Y-92891052D01*
X150121711Y-92893186D01*
X150127304Y-92895093D01*
X150133106Y-92896774D01*
X150139115Y-92898230D01*
X150145327Y-92899460D01*
X150151740Y-92900466D01*
X150158353Y-92901248D01*
X150165163Y-92901806D01*
X150172166Y-92902141D01*
X150179362Y-92902252D01*
X150184610Y-92902187D01*
X150189832Y-92901990D01*
X150195016Y-92901661D01*
X150200150Y-92901199D01*
X150205220Y-92900603D01*
X150210215Y-92899872D01*
X150215123Y-92899005D01*
X150219930Y-92898002D01*
X150224626Y-92896862D01*
X150229197Y-92895583D01*
X150233631Y-92894165D01*
X150237916Y-92892608D01*
X150242039Y-92890909D01*
X150245989Y-92889069D01*
X150249753Y-92887086D01*
X150253318Y-92884960D01*
X150227038Y-92810417D01*
G37*
G36*
X150470890Y-92810417D02*
G01*
X150467396Y-92812595D01*
X150463677Y-92814509D01*
X150459763Y-92816151D01*
X150455686Y-92817512D01*
X150451475Y-92818585D01*
X150447163Y-92819361D01*
X150442780Y-92819832D01*
X150438357Y-92819991D01*
X150433167Y-92819666D01*
X150428334Y-92818697D01*
X150423893Y-92817097D01*
X150419877Y-92814875D01*
X150416318Y-92812044D01*
X150413250Y-92808614D01*
X150410708Y-92804596D01*
X150408723Y-92800001D01*
X150407329Y-92794842D01*
X150406559Y-92789127D01*
X150406410Y-92785016D01*
X150406410Y-92683411D01*
X150475872Y-92683411D01*
X150475872Y-92603885D01*
X150406410Y-92603885D01*
X150406410Y-92524946D01*
X150300018Y-92524946D01*
X150300018Y-92603885D01*
X150255761Y-92603885D01*
X150255761Y-92683411D01*
X150300018Y-92683411D01*
X150300018Y-92786090D01*
X150300150Y-92793300D01*
X150300547Y-92800275D01*
X150301205Y-92807015D01*
X150302122Y-92813521D01*
X150303295Y-92819794D01*
X150304723Y-92825833D01*
X150306402Y-92831639D01*
X150308331Y-92837213D01*
X150310507Y-92842555D01*
X150312927Y-92847665D01*
X150315590Y-92852544D01*
X150318493Y-92857191D01*
X150321633Y-92861608D01*
X150325008Y-92865795D01*
X150328615Y-92869752D01*
X150332453Y-92873480D01*
X150336519Y-92876979D01*
X150340810Y-92880249D01*
X150345324Y-92883291D01*
X150350059Y-92886106D01*
X150355012Y-92888693D01*
X150360181Y-92891052D01*
X150365563Y-92893186D01*
X150371156Y-92895093D01*
X150376958Y-92896774D01*
X150382967Y-92898230D01*
X150389179Y-92899460D01*
X150395593Y-92900466D01*
X150402205Y-92901248D01*
X150409015Y-92901806D01*
X150416018Y-92902141D01*
X150423214Y-92902252D01*
X150428462Y-92902187D01*
X150433685Y-92901990D01*
X150438869Y-92901661D01*
X150444002Y-92901199D01*
X150449072Y-92900603D01*
X150454067Y-92899872D01*
X150458975Y-92899005D01*
X150463782Y-92898002D01*
X150468478Y-92896862D01*
X150473049Y-92895583D01*
X150477483Y-92894165D01*
X150481768Y-92892608D01*
X150485891Y-92890909D01*
X150489841Y-92889069D01*
X150493605Y-92887086D01*
X150497170Y-92884960D01*
X150470890Y-92810417D01*
G37*
G36*
X150685086Y-92583536D02*
G01*
X150693325Y-92584036D01*
X150701445Y-92584867D01*
X150709436Y-92586027D01*
X150717288Y-92587515D01*
X150724990Y-92589328D01*
X150732532Y-92591464D01*
X150739904Y-92593921D01*
X150747095Y-92596699D01*
X150754095Y-92599794D01*
X150760895Y-92603204D01*
X150767483Y-92606929D01*
X150773850Y-92610965D01*
X150779985Y-92615311D01*
X150785879Y-92619966D01*
X150791520Y-92624927D01*
X150796898Y-92630191D01*
X150802004Y-92635759D01*
X150806827Y-92641626D01*
X150811357Y-92647792D01*
X150815583Y-92654255D01*
X150819495Y-92661013D01*
X150823084Y-92668063D01*
X150826338Y-92675404D01*
X150829248Y-92683034D01*
X150831803Y-92690951D01*
X150833993Y-92699153D01*
X150835808Y-92707638D01*
X150837237Y-92716405D01*
X150838271Y-92725451D01*
X150838899Y-92734775D01*
X150839110Y-92744374D01*
X150839097Y-92745882D01*
X150838962Y-92749835D01*
X150838714Y-92753982D01*
X150838396Y-92758234D01*
X150838051Y-92762505D01*
X150837722Y-92766706D01*
X150837450Y-92770752D01*
X150616752Y-92770752D01*
X150618639Y-92776565D01*
X150620925Y-92782058D01*
X150623603Y-92787222D01*
X150626668Y-92792050D01*
X150630113Y-92796534D01*
X150633932Y-92800668D01*
X150638118Y-92804443D01*
X150642666Y-92807852D01*
X150647568Y-92810888D01*
X150652820Y-92813544D01*
X150658413Y-92815811D01*
X150664342Y-92817683D01*
X150670602Y-92819152D01*
X150677184Y-92820210D01*
X150684084Y-92820851D01*
X150691295Y-92821066D01*
X150696731Y-92820964D01*
X150701950Y-92820656D01*
X150706968Y-92820142D01*
X150711800Y-92819419D01*
X150716464Y-92818486D01*
X150720975Y-92817341D01*
X150725350Y-92815983D01*
X150729604Y-92814410D01*
X150733754Y-92812621D01*
X150737816Y-92810614D01*
X150741806Y-92808387D01*
X150745741Y-92805940D01*
X150749636Y-92803269D01*
X150753508Y-92800374D01*
X150757372Y-92797254D01*
X150761246Y-92793906D01*
X150817226Y-92853013D01*
X150814458Y-92856016D01*
X150811610Y-92858927D01*
X150808684Y-92861745D01*
X150805678Y-92864469D01*
X150802592Y-92867100D01*
X150799426Y-92869638D01*
X150796180Y-92872081D01*
X150792852Y-92874431D01*
X150789444Y-92876687D01*
X150785954Y-92878849D01*
X150782383Y-92880916D01*
X150778729Y-92882889D01*
X150774993Y-92884767D01*
X150771173Y-92886551D01*
X150767271Y-92888239D01*
X150763285Y-92889832D01*
X150759216Y-92891330D01*
X150755062Y-92892733D01*
X150750823Y-92894040D01*
X150746500Y-92895251D01*
X150742091Y-92896366D01*
X150737597Y-92897385D01*
X150733017Y-92898307D01*
X150728351Y-92899133D01*
X150723598Y-92899863D01*
X150718758Y-92900496D01*
X150713831Y-92901032D01*
X150708817Y-92901471D01*
X150703714Y-92901812D01*
X150698523Y-92902057D01*
X150693244Y-92902203D01*
X150687875Y-92902252D01*
X150677858Y-92902058D01*
X150668069Y-92901481D01*
X150658514Y-92900529D01*
X150649199Y-92899209D01*
X150640131Y-92897528D01*
X150631315Y-92895495D01*
X150622757Y-92893116D01*
X150614462Y-92890399D01*
X150606437Y-92887351D01*
X150598688Y-92883981D01*
X150591219Y-92880295D01*
X150584038Y-92876302D01*
X150577151Y-92872007D01*
X150570562Y-92867420D01*
X150564278Y-92862548D01*
X150558304Y-92857397D01*
X150552648Y-92851976D01*
X150547313Y-92846292D01*
X150542307Y-92840352D01*
X150537635Y-92834165D01*
X150533304Y-92827737D01*
X150529318Y-92821076D01*
X150525683Y-92814189D01*
X150522407Y-92807084D01*
X150519494Y-92799769D01*
X150516950Y-92792251D01*
X150514782Y-92784538D01*
X150512994Y-92776636D01*
X150511594Y-92768554D01*
X150510586Y-92760298D01*
X150509978Y-92751878D01*
X150509773Y-92743299D01*
X150509980Y-92734485D01*
X150510596Y-92725854D01*
X150511610Y-92717411D01*
X150512077Y-92714674D01*
X150615091Y-92714674D01*
X150739459Y-92714674D01*
X150738189Y-92708429D01*
X150736513Y-92702491D01*
X150734442Y-92696873D01*
X150731989Y-92691588D01*
X150729166Y-92686649D01*
X150725985Y-92682070D01*
X150722460Y-92677864D01*
X150718601Y-92674044D01*
X150714422Y-92670623D01*
X150709935Y-92667616D01*
X150705151Y-92665034D01*
X150700084Y-92662893D01*
X150694746Y-92661204D01*
X150689149Y-92659981D01*
X150683305Y-92659237D01*
X150677226Y-92658986D01*
X150671154Y-92659237D01*
X150665328Y-92659981D01*
X150659757Y-92661204D01*
X150654452Y-92662893D01*
X150649422Y-92665034D01*
X150644678Y-92667616D01*
X150640228Y-92670623D01*
X150636084Y-92674044D01*
X150632254Y-92677864D01*
X150628749Y-92682070D01*
X150625578Y-92686649D01*
X150622753Y-92691588D01*
X150620281Y-92696873D01*
X150618174Y-92702491D01*
X150616440Y-92708429D01*
X150615091Y-92714674D01*
X150512077Y-92714674D01*
X150513017Y-92709162D01*
X150514806Y-92701116D01*
X150516969Y-92693277D01*
X150519498Y-92685652D01*
X150522384Y-92678248D01*
X150525619Y-92671071D01*
X150529194Y-92664127D01*
X150533101Y-92657423D01*
X150537331Y-92650965D01*
X150541876Y-92644759D01*
X150546728Y-92638813D01*
X150551877Y-92633132D01*
X150557315Y-92627723D01*
X150563034Y-92622592D01*
X150569026Y-92617746D01*
X150575281Y-92613191D01*
X150581792Y-92608933D01*
X150588549Y-92604979D01*
X150595545Y-92601335D01*
X150602770Y-92598008D01*
X150610217Y-92595004D01*
X150617876Y-92592329D01*
X150625740Y-92589990D01*
X150633800Y-92587994D01*
X150642047Y-92586346D01*
X150650473Y-92585053D01*
X150659069Y-92584121D01*
X150667827Y-92583558D01*
X150676738Y-92583369D01*
X150685086Y-92583536D01*
G37*
G36*
X151191309Y-92896000D02*
G01*
X151191309Y-92808170D01*
X151004316Y-92808170D01*
X151004316Y-92502085D01*
X150893430Y-92502085D01*
X150893430Y-92896000D01*
X151191309Y-92896000D01*
G37*
G36*
X151372276Y-92583497D02*
G01*
X151381145Y-92583884D01*
X151389763Y-92584532D01*
X151398126Y-92585443D01*
X151406233Y-92586618D01*
X151414080Y-92588061D01*
X151421666Y-92589772D01*
X151428986Y-92591755D01*
X151436039Y-92594012D01*
X151442822Y-92596543D01*
X151449331Y-92599352D01*
X151455566Y-92602441D01*
X151461522Y-92605812D01*
X151467198Y-92609467D01*
X151472590Y-92613407D01*
X151477696Y-92617636D01*
X151482513Y-92622155D01*
X151487038Y-92626966D01*
X151491270Y-92632072D01*
X151495205Y-92637474D01*
X151498840Y-92643175D01*
X151502173Y-92649177D01*
X151505201Y-92655482D01*
X151507922Y-92662091D01*
X151510333Y-92669008D01*
X151512431Y-92676234D01*
X151514213Y-92683771D01*
X151515678Y-92691622D01*
X151516821Y-92699788D01*
X151517642Y-92708272D01*
X151518136Y-92717076D01*
X151518301Y-92726202D01*
X151518301Y-92896000D01*
X151419236Y-92896000D01*
X151419236Y-92858093D01*
X151417772Y-92860781D01*
X151414579Y-92865910D01*
X151411033Y-92870706D01*
X151407137Y-92875169D01*
X151402892Y-92879298D01*
X151398299Y-92883090D01*
X151393361Y-92886544D01*
X151388080Y-92889660D01*
X151382456Y-92892435D01*
X151376492Y-92894868D01*
X151370190Y-92896958D01*
X151363550Y-92898704D01*
X151356576Y-92900103D01*
X151349268Y-92901154D01*
X151341628Y-92901856D01*
X151337684Y-92902076D01*
X151333658Y-92902208D01*
X151329550Y-92902252D01*
X151322822Y-92902133D01*
X151316285Y-92901780D01*
X151309941Y-92901198D01*
X151303792Y-92900392D01*
X151297838Y-92899368D01*
X151292082Y-92898129D01*
X151286524Y-92896682D01*
X151281167Y-92895032D01*
X151276011Y-92893183D01*
X151271059Y-92891141D01*
X151266311Y-92888911D01*
X151261769Y-92886497D01*
X151257434Y-92883906D01*
X151253308Y-92881142D01*
X151249393Y-92878211D01*
X151245689Y-92875117D01*
X151242199Y-92871865D01*
X151238923Y-92868461D01*
X151235864Y-92864910D01*
X151233022Y-92861217D01*
X151230399Y-92857387D01*
X151227996Y-92853426D01*
X151225816Y-92849337D01*
X151223859Y-92845127D01*
X151222126Y-92840800D01*
X151220620Y-92836362D01*
X151219342Y-92831818D01*
X151218293Y-92827172D01*
X151217474Y-92822431D01*
X151216888Y-92817598D01*
X151216535Y-92812680D01*
X151216417Y-92807681D01*
X151216521Y-92803090D01*
X151319487Y-92803090D01*
X151319868Y-92808169D01*
X151320997Y-92812940D01*
X151322855Y-92817359D01*
X151325422Y-92821386D01*
X151328680Y-92824979D01*
X151332609Y-92828096D01*
X151337190Y-92830696D01*
X151342403Y-92832738D01*
X151346221Y-92833768D01*
X151350305Y-92834519D01*
X151354650Y-92834978D01*
X151359250Y-92835134D01*
X151363629Y-92834996D01*
X151367928Y-92834582D01*
X151372133Y-92833887D01*
X151376229Y-92832912D01*
X151380204Y-92831652D01*
X151384043Y-92830106D01*
X151387732Y-92828271D01*
X151391258Y-92826146D01*
X151394606Y-92823728D01*
X151397763Y-92821014D01*
X151400715Y-92818002D01*
X151403447Y-92814691D01*
X151405947Y-92811077D01*
X151408200Y-92807159D01*
X151410191Y-92802934D01*
X151411909Y-92798400D01*
X151411909Y-92770947D01*
X151365991Y-92770947D01*
X151362849Y-92770985D01*
X151356943Y-92771282D01*
X151351529Y-92771867D01*
X151346593Y-92772730D01*
X151342120Y-92773862D01*
X151338097Y-92775253D01*
X151332876Y-92777804D01*
X151328588Y-92780885D01*
X151325185Y-92784462D01*
X151322621Y-92788503D01*
X151320849Y-92792976D01*
X151319820Y-92797849D01*
X151319487Y-92803090D01*
X151216521Y-92803090D01*
X151216537Y-92802363D01*
X151216899Y-92797180D01*
X151217506Y-92792135D01*
X151218359Y-92787229D01*
X151219462Y-92782466D01*
X151220815Y-92777847D01*
X151222421Y-92773375D01*
X151224283Y-92769051D01*
X151226403Y-92764878D01*
X151228782Y-92760858D01*
X151231424Y-92756994D01*
X151234330Y-92753286D01*
X151237503Y-92749739D01*
X151240945Y-92746353D01*
X151244658Y-92743131D01*
X151248645Y-92740075D01*
X151252907Y-92737187D01*
X151257447Y-92734470D01*
X151262267Y-92731926D01*
X151267369Y-92729556D01*
X151272756Y-92727363D01*
X151278430Y-92725350D01*
X151284393Y-92723518D01*
X151290647Y-92721870D01*
X151297194Y-92720407D01*
X151304038Y-92719132D01*
X151311179Y-92718048D01*
X151318621Y-92717155D01*
X151326365Y-92716458D01*
X151334414Y-92715956D01*
X151342769Y-92715654D01*
X151351434Y-92715553D01*
X151411909Y-92715553D01*
X151411374Y-92709620D01*
X151410389Y-92704025D01*
X151408950Y-92698775D01*
X151407056Y-92693875D01*
X151404702Y-92689331D01*
X151401885Y-92685151D01*
X151398601Y-92681339D01*
X151394848Y-92677903D01*
X151390623Y-92674848D01*
X151385921Y-92672180D01*
X151380739Y-92669905D01*
X151375075Y-92668031D01*
X151368925Y-92666562D01*
X151362286Y-92665505D01*
X151355154Y-92664867D01*
X151347526Y-92664653D01*
X151342031Y-92664776D01*
X151336478Y-92665144D01*
X151330890Y-92665749D01*
X151325288Y-92666585D01*
X151319696Y-92667647D01*
X151314135Y-92668929D01*
X151308627Y-92670424D01*
X151303196Y-92672127D01*
X151297864Y-92674031D01*
X151292652Y-92676130D01*
X151287583Y-92678419D01*
X151282680Y-92680892D01*
X151277964Y-92683542D01*
X151273459Y-92686363D01*
X151269186Y-92689350D01*
X151265168Y-92692496D01*
X151229313Y-92618735D01*
X151232622Y-92616614D01*
X151236025Y-92614554D01*
X151239518Y-92612558D01*
X151243098Y-92610624D01*
X151246761Y-92608753D01*
X151250503Y-92606946D01*
X151254320Y-92605202D01*
X151258208Y-92603523D01*
X151262164Y-92601909D01*
X151266185Y-92600359D01*
X151270265Y-92598874D01*
X151274401Y-92597456D01*
X151278591Y-92596103D01*
X151282829Y-92594816D01*
X151287112Y-92593596D01*
X151291436Y-92592442D01*
X151295798Y-92591356D01*
X151300193Y-92590338D01*
X151304619Y-92589387D01*
X151309071Y-92588505D01*
X151313545Y-92587692D01*
X151318037Y-92586947D01*
X151322545Y-92586272D01*
X151327063Y-92585666D01*
X151331589Y-92585130D01*
X151336119Y-92584665D01*
X151340648Y-92584270D01*
X151345173Y-92583947D01*
X151349690Y-92583694D01*
X151354196Y-92583514D01*
X151358687Y-92583405D01*
X151363158Y-92583369D01*
X151372276Y-92583497D01*
G37*
G36*
X151691909Y-92614827D02*
G01*
X151695885Y-92610964D01*
X151700044Y-92607361D01*
X151704385Y-92604015D01*
X151708907Y-92600927D01*
X151713606Y-92598093D01*
X151718481Y-92595514D01*
X151723531Y-92593187D01*
X151728753Y-92591111D01*
X151734146Y-92589285D01*
X151739707Y-92587707D01*
X151745435Y-92586375D01*
X151751328Y-92585289D01*
X151757385Y-92584447D01*
X151763603Y-92583847D01*
X151769980Y-92583488D01*
X151776515Y-92583369D01*
X151784188Y-92583544D01*
X151791760Y-92584066D01*
X151799221Y-92584933D01*
X151806562Y-92586139D01*
X151813774Y-92587682D01*
X151820847Y-92589557D01*
X151827772Y-92591760D01*
X151834539Y-92594288D01*
X151841140Y-92597136D01*
X151847564Y-92600302D01*
X151853803Y-92603780D01*
X151859848Y-92607568D01*
X151865689Y-92611660D01*
X151871316Y-92616055D01*
X151876720Y-92620747D01*
X151881893Y-92625733D01*
X151886824Y-92631008D01*
X151891505Y-92636570D01*
X151895926Y-92642414D01*
X151900078Y-92648537D01*
X151903951Y-92654934D01*
X151907536Y-92661601D01*
X151910824Y-92668536D01*
X151913805Y-92675734D01*
X151916470Y-92683190D01*
X151918811Y-92690903D01*
X151920817Y-92698866D01*
X151922479Y-92707077D01*
X151923788Y-92715533D01*
X151924734Y-92724227D01*
X151925309Y-92733159D01*
X151925503Y-92742322D01*
X151925309Y-92751531D01*
X151924734Y-92760508D01*
X151923788Y-92769248D01*
X151922479Y-92777749D01*
X151920817Y-92786005D01*
X151918811Y-92794013D01*
X151916470Y-92801769D01*
X151913805Y-92809269D01*
X151910824Y-92816509D01*
X151907536Y-92823485D01*
X151903951Y-92830194D01*
X151900078Y-92836631D01*
X151895926Y-92842792D01*
X151891505Y-92848674D01*
X151886824Y-92854272D01*
X151881893Y-92859583D01*
X151876720Y-92864602D01*
X151871316Y-92869326D01*
X151865689Y-92873751D01*
X151859848Y-92877873D01*
X151853803Y-92881687D01*
X151847564Y-92885191D01*
X151841140Y-92888379D01*
X151834539Y-92891249D01*
X151827772Y-92893796D01*
X151820847Y-92896016D01*
X151813774Y-92897905D01*
X151806562Y-92899459D01*
X151799221Y-92900675D01*
X151791760Y-92901549D01*
X151784188Y-92902076D01*
X151776515Y-92902252D01*
X151769177Y-92902121D01*
X151762074Y-92901726D01*
X151755206Y-92901065D01*
X151748572Y-92900135D01*
X151742170Y-92898933D01*
X151736001Y-92897456D01*
X151730063Y-92895701D01*
X151724356Y-92893667D01*
X151718880Y-92891350D01*
X151713632Y-92888747D01*
X151708614Y-92885856D01*
X151703823Y-92882675D01*
X151699260Y-92879199D01*
X151694923Y-92875427D01*
X151690812Y-92871356D01*
X151686926Y-92866983D01*
X151686926Y-92896000D01*
X151585517Y-92896000D01*
X151585517Y-92742322D01*
X151690248Y-92742322D01*
X151690329Y-92746776D01*
X151690572Y-92751106D01*
X151690971Y-92755312D01*
X151691523Y-92759391D01*
X151692224Y-92763344D01*
X151693072Y-92767168D01*
X151695189Y-92774426D01*
X151697845Y-92781157D01*
X151701010Y-92787352D01*
X151704655Y-92793001D01*
X151708749Y-92798095D01*
X151713264Y-92802624D01*
X151718169Y-92806580D01*
X151723435Y-92809952D01*
X151729032Y-92812733D01*
X151734931Y-92814911D01*
X151741102Y-92816479D01*
X151747516Y-92817426D01*
X151754142Y-92817744D01*
X151760767Y-92817426D01*
X151767177Y-92816479D01*
X151773344Y-92814911D01*
X151779236Y-92812733D01*
X151784826Y-92809952D01*
X151790084Y-92806580D01*
X151794980Y-92802624D01*
X151799486Y-92798095D01*
X151803571Y-92793001D01*
X151807206Y-92787352D01*
X151810363Y-92781157D01*
X151813012Y-92774426D01*
X151815123Y-92767168D01*
X151815968Y-92763344D01*
X151816667Y-92759391D01*
X151817218Y-92755312D01*
X151817616Y-92751106D01*
X151817857Y-92746776D01*
X151817938Y-92742322D01*
X151817857Y-92737914D01*
X151817616Y-92733630D01*
X151817218Y-92729471D01*
X151816667Y-92725439D01*
X151815123Y-92717757D01*
X151813012Y-92710592D01*
X151810363Y-92703952D01*
X151807206Y-92697846D01*
X151803571Y-92692283D01*
X151799486Y-92687270D01*
X151794980Y-92682815D01*
X151790084Y-92678928D01*
X151784826Y-92675615D01*
X151779236Y-92672887D01*
X151773344Y-92670750D01*
X151767177Y-92669214D01*
X151760767Y-92668286D01*
X151754142Y-92667974D01*
X151750804Y-92668052D01*
X151744280Y-92668673D01*
X151737984Y-92669906D01*
X151731946Y-92671744D01*
X151726194Y-92674178D01*
X151720759Y-92677199D01*
X151715669Y-92680800D01*
X151710956Y-92684972D01*
X151706648Y-92689707D01*
X151702775Y-92694996D01*
X151699366Y-92700832D01*
X151696452Y-92707206D01*
X151694061Y-92714109D01*
X151692224Y-92721534D01*
X151691523Y-92725439D01*
X151690971Y-92729471D01*
X151690572Y-92733630D01*
X151690329Y-92737914D01*
X151690248Y-92742322D01*
X151585517Y-92742322D01*
X151585517Y-92483327D01*
X151691909Y-92483327D01*
X151691909Y-92614827D01*
G37*
G36*
X152085042Y-92902252D02*
G01*
X152094146Y-92902125D01*
X152102973Y-92901748D01*
X152111524Y-92901125D01*
X152119796Y-92900263D01*
X152127790Y-92899167D01*
X152135505Y-92897842D01*
X152142939Y-92896294D01*
X152150092Y-92894528D01*
X152156962Y-92892550D01*
X152163550Y-92890364D01*
X152169854Y-92887978D01*
X152175874Y-92885395D01*
X152181607Y-92882621D01*
X152187055Y-92879663D01*
X152192216Y-92876524D01*
X152197088Y-92873212D01*
X152201672Y-92869730D01*
X152205967Y-92866085D01*
X152209970Y-92862282D01*
X152213683Y-92858327D01*
X152217103Y-92854224D01*
X152220230Y-92849980D01*
X152223064Y-92845599D01*
X152225602Y-92841088D01*
X152227845Y-92836451D01*
X152229792Y-92831694D01*
X152231442Y-92826823D01*
X152232794Y-92821843D01*
X152233846Y-92816759D01*
X152234599Y-92811577D01*
X152235052Y-92806302D01*
X152235203Y-92800940D01*
X152234690Y-92789880D01*
X152233196Y-92779768D01*
X152230786Y-92770557D01*
X152227525Y-92762198D01*
X152223478Y-92754645D01*
X152218712Y-92747849D01*
X152213292Y-92741763D01*
X152207283Y-92736339D01*
X152200750Y-92731531D01*
X152193759Y-92727290D01*
X152186375Y-92723569D01*
X152178665Y-92720320D01*
X152170692Y-92717496D01*
X152162523Y-92715049D01*
X152154224Y-92712931D01*
X152145859Y-92711095D01*
X152137493Y-92709494D01*
X152129194Y-92708080D01*
X152121025Y-92706805D01*
X152113053Y-92705622D01*
X152105342Y-92704482D01*
X152097958Y-92703340D01*
X152090967Y-92702146D01*
X152084435Y-92700854D01*
X152078425Y-92699416D01*
X152073005Y-92697784D01*
X152068239Y-92695911D01*
X152064193Y-92693749D01*
X152060932Y-92691250D01*
X152057027Y-92685054D01*
X152056515Y-92681261D01*
X152057139Y-92676938D01*
X152059090Y-92672835D01*
X152062486Y-92669061D01*
X152066052Y-92666514D01*
X152070547Y-92664260D01*
X152076020Y-92662346D01*
X152080237Y-92661281D01*
X152084926Y-92660403D01*
X152090102Y-92659723D01*
X152095778Y-92659257D01*
X152101971Y-92659017D01*
X152105265Y-92658986D01*
X152110342Y-92659056D01*
X152115494Y-92659272D01*
X152120715Y-92659643D01*
X152126002Y-92660177D01*
X152131347Y-92660882D01*
X152136748Y-92661768D01*
X152142197Y-92662843D01*
X152147690Y-92664115D01*
X152153223Y-92665594D01*
X152158789Y-92667287D01*
X152164384Y-92669203D01*
X152170002Y-92671351D01*
X152175639Y-92673740D01*
X152181288Y-92676377D01*
X152186946Y-92679272D01*
X152192607Y-92682434D01*
X152224554Y-92609161D01*
X152218684Y-92606102D01*
X152212454Y-92603228D01*
X152205895Y-92600541D01*
X152199036Y-92598042D01*
X152191910Y-92595733D01*
X152184547Y-92593615D01*
X152176977Y-92591692D01*
X152173125Y-92590803D01*
X152169233Y-92589963D01*
X152165304Y-92589173D01*
X152161344Y-92588432D01*
X152157355Y-92587740D01*
X152153342Y-92587099D01*
X152149308Y-92586507D01*
X152145257Y-92585966D01*
X152141193Y-92585476D01*
X152137121Y-92585036D01*
X152133043Y-92584647D01*
X152128964Y-92584309D01*
X152124888Y-92584022D01*
X152120818Y-92583788D01*
X152116758Y-92583605D01*
X152112712Y-92583474D01*
X152108685Y-92583395D01*
X152104679Y-92583369D01*
X152095883Y-92583496D01*
X152087338Y-92583874D01*
X152079045Y-92584499D01*
X152071007Y-92585363D01*
X152063226Y-92586463D01*
X152055703Y-92587792D01*
X152048440Y-92589345D01*
X152041439Y-92591117D01*
X152034702Y-92593103D01*
X152028230Y-92595297D01*
X152022027Y-92597694D01*
X152016092Y-92600288D01*
X152010429Y-92603074D01*
X152005040Y-92606047D01*
X151999925Y-92609201D01*
X151995087Y-92612531D01*
X151990529Y-92616032D01*
X151986250Y-92619698D01*
X151982254Y-92623524D01*
X151978543Y-92627504D01*
X151975118Y-92631634D01*
X151971981Y-92635907D01*
X151969134Y-92640318D01*
X151966578Y-92644863D01*
X151964316Y-92649535D01*
X151962350Y-92654330D01*
X151960682Y-92659241D01*
X151959312Y-92664264D01*
X151958244Y-92669393D01*
X151957478Y-92674623D01*
X151957017Y-92679949D01*
X151956863Y-92685364D01*
X151957377Y-92696543D01*
X151958876Y-92706756D01*
X151961293Y-92716051D01*
X151964562Y-92724477D01*
X151968620Y-92732082D01*
X151973399Y-92738915D01*
X151978834Y-92745024D01*
X151984860Y-92750457D01*
X151991410Y-92755263D01*
X151998420Y-92759489D01*
X152005824Y-92763186D01*
X152013556Y-92766400D01*
X152021550Y-92769181D01*
X152029741Y-92771576D01*
X152038064Y-92773635D01*
X152046452Y-92775405D01*
X152054840Y-92776934D01*
X152063162Y-92778272D01*
X152071353Y-92779467D01*
X152079347Y-92780567D01*
X152087079Y-92781620D01*
X152094483Y-92782675D01*
X152101493Y-92783780D01*
X152108044Y-92784983D01*
X152114069Y-92786334D01*
X152119505Y-92787880D01*
X152124284Y-92789670D01*
X152128341Y-92791752D01*
X152131611Y-92794174D01*
X152135526Y-92800234D01*
X152136040Y-92803969D01*
X152135466Y-92808877D01*
X152133648Y-92813245D01*
X152130440Y-92817039D01*
X152127034Y-92819486D01*
X152122703Y-92821575D01*
X152117386Y-92823291D01*
X152113264Y-92824220D01*
X152108657Y-92824972D01*
X152103548Y-92825542D01*
X152097920Y-92825927D01*
X152091753Y-92826122D01*
X152088461Y-92826146D01*
X152081494Y-92826013D01*
X152074458Y-92825619D01*
X152067378Y-92824969D01*
X152060277Y-92824070D01*
X152053182Y-92822928D01*
X152046117Y-92821550D01*
X152039107Y-92819942D01*
X152032176Y-92818110D01*
X152025349Y-92816061D01*
X152018651Y-92813800D01*
X152012107Y-92811335D01*
X152005741Y-92808670D01*
X151999578Y-92805814D01*
X151993644Y-92802771D01*
X151987962Y-92799549D01*
X151982558Y-92796153D01*
X151950709Y-92870891D01*
X151956546Y-92874303D01*
X151962896Y-92877568D01*
X151969722Y-92880678D01*
X151976988Y-92883622D01*
X151980773Y-92885029D01*
X151984655Y-92886390D01*
X151988629Y-92887705D01*
X151992689Y-92888971D01*
X151996831Y-92890189D01*
X152001051Y-92891356D01*
X152005344Y-92892471D01*
X152009705Y-92893533D01*
X152014131Y-92894540D01*
X152018615Y-92895492D01*
X152023154Y-92896387D01*
X152027743Y-92897224D01*
X152032378Y-92898001D01*
X152037053Y-92898717D01*
X152041765Y-92899372D01*
X152046508Y-92899962D01*
X152051279Y-92900488D01*
X152056071Y-92900949D01*
X152060882Y-92901342D01*
X152065706Y-92901666D01*
X152070538Y-92901920D01*
X152075375Y-92902104D01*
X152080211Y-92902215D01*
X152085042Y-92902252D01*
G37*
D14*
X142247838Y-98801517D02*
X142200219Y-98896755D01*
X142200219Y-98896755D02*
X142200219Y-99039612D01*
X142200219Y-99039612D02*
X142247838Y-99182469D01*
X142247838Y-99182469D02*
X142343076Y-99277707D01*
X142343076Y-99277707D02*
X142438314Y-99325326D01*
X142438314Y-99325326D02*
X142628790Y-99372945D01*
X142628790Y-99372945D02*
X142771647Y-99372945D01*
X142771647Y-99372945D02*
X142962123Y-99325326D01*
X142962123Y-99325326D02*
X143057361Y-99277707D01*
X143057361Y-99277707D02*
X143152600Y-99182469D01*
X143152600Y-99182469D02*
X143200219Y-99039612D01*
X143200219Y-99039612D02*
X143200219Y-98944374D01*
X143200219Y-98944374D02*
X143152600Y-98801517D01*
X143152600Y-98801517D02*
X143104980Y-98753898D01*
X143104980Y-98753898D02*
X142771647Y-98753898D01*
X142771647Y-98753898D02*
X142771647Y-98944374D01*
X143200219Y-98325326D02*
X142200219Y-98325326D01*
X142200219Y-98325326D02*
X143200219Y-97753898D01*
X143200219Y-97753898D02*
X142200219Y-97753898D01*
X143200219Y-97277707D02*
X142200219Y-97277707D01*
X142200219Y-97277707D02*
X142200219Y-97039612D01*
X142200219Y-97039612D02*
X142247838Y-96896755D01*
X142247838Y-96896755D02*
X142343076Y-96801517D01*
X142343076Y-96801517D02*
X142438314Y-96753898D01*
X142438314Y-96753898D02*
X142628790Y-96706279D01*
X142628790Y-96706279D02*
X142771647Y-96706279D01*
X142771647Y-96706279D02*
X142962123Y-96753898D01*
X142962123Y-96753898D02*
X143057361Y-96801517D01*
X143057361Y-96801517D02*
X143152600Y-96896755D01*
X143152600Y-96896755D02*
X143200219Y-97039612D01*
X143200219Y-97039612D02*
X143200219Y-97277707D01*
X143073219Y-90054326D02*
X142073219Y-90054326D01*
X142073219Y-90054326D02*
X143073219Y-89482898D01*
X143073219Y-89482898D02*
X142073219Y-89482898D01*
X142977980Y-88435279D02*
X143025600Y-88482898D01*
X143025600Y-88482898D02*
X143073219Y-88625755D01*
X143073219Y-88625755D02*
X143073219Y-88720993D01*
X143073219Y-88720993D02*
X143025600Y-88863850D01*
X143025600Y-88863850D02*
X142930361Y-88959088D01*
X142930361Y-88959088D02*
X142835123Y-89006707D01*
X142835123Y-89006707D02*
X142644647Y-89054326D01*
X142644647Y-89054326D02*
X142501790Y-89054326D01*
X142501790Y-89054326D02*
X142311314Y-89006707D01*
X142311314Y-89006707D02*
X142216076Y-88959088D01*
X142216076Y-88959088D02*
X142120838Y-88863850D01*
X142120838Y-88863850D02*
X142073219Y-88720993D01*
X142073219Y-88720993D02*
X142073219Y-88625755D01*
X142073219Y-88625755D02*
X142120838Y-88482898D01*
X142120838Y-88482898D02*
X142168457Y-88435279D01*
D15*
X154773333Y-115519580D02*
X154725714Y-115567200D01*
X154725714Y-115567200D02*
X154582857Y-115614819D01*
X154582857Y-115614819D02*
X154487619Y-115614819D01*
X154487619Y-115614819D02*
X154344762Y-115567200D01*
X154344762Y-115567200D02*
X154249524Y-115471961D01*
X154249524Y-115471961D02*
X154201905Y-115376723D01*
X154201905Y-115376723D02*
X154154286Y-115186247D01*
X154154286Y-115186247D02*
X154154286Y-115043390D01*
X154154286Y-115043390D02*
X154201905Y-114852914D01*
X154201905Y-114852914D02*
X154249524Y-114757676D01*
X154249524Y-114757676D02*
X154344762Y-114662438D01*
X154344762Y-114662438D02*
X154487619Y-114614819D01*
X154487619Y-114614819D02*
X154582857Y-114614819D01*
X154582857Y-114614819D02*
X154725714Y-114662438D01*
X154725714Y-114662438D02*
X154773333Y-114710057D01*
X155725714Y-115614819D02*
X155154286Y-115614819D01*
X155440000Y-115614819D02*
X155440000Y-114614819D01*
X155440000Y-114614819D02*
X155344762Y-114757676D01*
X155344762Y-114757676D02*
X155249524Y-114852914D01*
X155249524Y-114852914D02*
X155154286Y-114900533D01*
X152603580Y-105322666D02*
X152651200Y-105370285D01*
X152651200Y-105370285D02*
X152698819Y-105513142D01*
X152698819Y-105513142D02*
X152698819Y-105608380D01*
X152698819Y-105608380D02*
X152651200Y-105751237D01*
X152651200Y-105751237D02*
X152555961Y-105846475D01*
X152555961Y-105846475D02*
X152460723Y-105894094D01*
X152460723Y-105894094D02*
X152270247Y-105941713D01*
X152270247Y-105941713D02*
X152127390Y-105941713D01*
X152127390Y-105941713D02*
X151936914Y-105894094D01*
X151936914Y-105894094D02*
X151841676Y-105846475D01*
X151841676Y-105846475D02*
X151746438Y-105751237D01*
X151746438Y-105751237D02*
X151698819Y-105608380D01*
X151698819Y-105608380D02*
X151698819Y-105513142D01*
X151698819Y-105513142D02*
X151746438Y-105370285D01*
X151746438Y-105370285D02*
X151794057Y-105322666D01*
X151698819Y-104989332D02*
X151698819Y-104370285D01*
X151698819Y-104370285D02*
X152079771Y-104703618D01*
X152079771Y-104703618D02*
X152079771Y-104560761D01*
X152079771Y-104560761D02*
X152127390Y-104465523D01*
X152127390Y-104465523D02*
X152175009Y-104417904D01*
X152175009Y-104417904D02*
X152270247Y-104370285D01*
X152270247Y-104370285D02*
X152508342Y-104370285D01*
X152508342Y-104370285D02*
X152603580Y-104417904D01*
X152603580Y-104417904D02*
X152651200Y-104465523D01*
X152651200Y-104465523D02*
X152698819Y-104560761D01*
X152698819Y-104560761D02*
X152698819Y-104846475D01*
X152698819Y-104846475D02*
X152651200Y-104941713D01*
X152651200Y-104941713D02*
X152603580Y-104989332D01*
X133078295Y-90404819D02*
X133078295Y-89404819D01*
X133078295Y-89404819D02*
X133459247Y-89404819D01*
X133459247Y-89404819D02*
X133554485Y-89452438D01*
X133554485Y-89452438D02*
X133602104Y-89500057D01*
X133602104Y-89500057D02*
X133649723Y-89595295D01*
X133649723Y-89595295D02*
X133649723Y-89738152D01*
X133649723Y-89738152D02*
X133602104Y-89833390D01*
X133602104Y-89833390D02*
X133554485Y-89881009D01*
X133554485Y-89881009D02*
X133459247Y-89928628D01*
X133459247Y-89928628D02*
X133078295Y-89928628D01*
X134649723Y-90404819D02*
X134316390Y-89928628D01*
X134078295Y-90404819D02*
X134078295Y-89404819D01*
X134078295Y-89404819D02*
X134459247Y-89404819D01*
X134459247Y-89404819D02*
X134554485Y-89452438D01*
X134554485Y-89452438D02*
X134602104Y-89500057D01*
X134602104Y-89500057D02*
X134649723Y-89595295D01*
X134649723Y-89595295D02*
X134649723Y-89738152D01*
X134649723Y-89738152D02*
X134602104Y-89833390D01*
X134602104Y-89833390D02*
X134554485Y-89881009D01*
X134554485Y-89881009D02*
X134459247Y-89928628D01*
X134459247Y-89928628D02*
X134078295Y-89928628D01*
X135602104Y-89452438D02*
X135506866Y-89404819D01*
X135506866Y-89404819D02*
X135364009Y-89404819D01*
X135364009Y-89404819D02*
X135221152Y-89452438D01*
X135221152Y-89452438D02*
X135125914Y-89547676D01*
X135125914Y-89547676D02*
X135078295Y-89642914D01*
X135078295Y-89642914D02*
X135030676Y-89833390D01*
X135030676Y-89833390D02*
X135030676Y-89976247D01*
X135030676Y-89976247D02*
X135078295Y-90166723D01*
X135078295Y-90166723D02*
X135125914Y-90261961D01*
X135125914Y-90261961D02*
X135221152Y-90357200D01*
X135221152Y-90357200D02*
X135364009Y-90404819D01*
X135364009Y-90404819D02*
X135459247Y-90404819D01*
X135459247Y-90404819D02*
X135602104Y-90357200D01*
X135602104Y-90357200D02*
X135649723Y-90309580D01*
X135649723Y-90309580D02*
X135649723Y-89976247D01*
X135649723Y-89976247D02*
X135459247Y-89976247D01*
X140615819Y-109286104D02*
X141425342Y-109286104D01*
X141425342Y-109286104D02*
X141520580Y-109238485D01*
X141520580Y-109238485D02*
X141568200Y-109190866D01*
X141568200Y-109190866D02*
X141615819Y-109095628D01*
X141615819Y-109095628D02*
X141615819Y-108905152D01*
X141615819Y-108905152D02*
X141568200Y-108809914D01*
X141568200Y-108809914D02*
X141520580Y-108762295D01*
X141520580Y-108762295D02*
X141425342Y-108714676D01*
X141425342Y-108714676D02*
X140615819Y-108714676D01*
X140615819Y-108333723D02*
X140615819Y-107714676D01*
X140615819Y-107714676D02*
X140996771Y-108048009D01*
X140996771Y-108048009D02*
X140996771Y-107905152D01*
X140996771Y-107905152D02*
X141044390Y-107809914D01*
X141044390Y-107809914D02*
X141092009Y-107762295D01*
X141092009Y-107762295D02*
X141187247Y-107714676D01*
X141187247Y-107714676D02*
X141425342Y-107714676D01*
X141425342Y-107714676D02*
X141520580Y-107762295D01*
X141520580Y-107762295D02*
X141568200Y-107809914D01*
X141568200Y-107809914D02*
X141615819Y-107905152D01*
X141615819Y-107905152D02*
X141615819Y-108190866D01*
X141615819Y-108190866D02*
X141568200Y-108286104D01*
X141568200Y-108286104D02*
X141520580Y-108333723D01*
X147153333Y-115014819D02*
X146820000Y-114538628D01*
X146581905Y-115014819D02*
X146581905Y-114014819D01*
X146581905Y-114014819D02*
X146962857Y-114014819D01*
X146962857Y-114014819D02*
X147058095Y-114062438D01*
X147058095Y-114062438D02*
X147105714Y-114110057D01*
X147105714Y-114110057D02*
X147153333Y-114205295D01*
X147153333Y-114205295D02*
X147153333Y-114348152D01*
X147153333Y-114348152D02*
X147105714Y-114443390D01*
X147105714Y-114443390D02*
X147058095Y-114491009D01*
X147058095Y-114491009D02*
X146962857Y-114538628D01*
X146962857Y-114538628D02*
X146581905Y-114538628D01*
X147534286Y-114110057D02*
X147581905Y-114062438D01*
X147581905Y-114062438D02*
X147677143Y-114014819D01*
X147677143Y-114014819D02*
X147915238Y-114014819D01*
X147915238Y-114014819D02*
X148010476Y-114062438D01*
X148010476Y-114062438D02*
X148058095Y-114110057D01*
X148058095Y-114110057D02*
X148105714Y-114205295D01*
X148105714Y-114205295D02*
X148105714Y-114300533D01*
X148105714Y-114300533D02*
X148058095Y-114443390D01*
X148058095Y-114443390D02*
X147486667Y-115014819D01*
X147486667Y-115014819D02*
X148105714Y-115014819D01*
X154773333Y-109934819D02*
X154440000Y-109458628D01*
X154201905Y-109934819D02*
X154201905Y-108934819D01*
X154201905Y-108934819D02*
X154582857Y-108934819D01*
X154582857Y-108934819D02*
X154678095Y-108982438D01*
X154678095Y-108982438D02*
X154725714Y-109030057D01*
X154725714Y-109030057D02*
X154773333Y-109125295D01*
X154773333Y-109125295D02*
X154773333Y-109268152D01*
X154773333Y-109268152D02*
X154725714Y-109363390D01*
X154725714Y-109363390D02*
X154678095Y-109411009D01*
X154678095Y-109411009D02*
X154582857Y-109458628D01*
X154582857Y-109458628D02*
X154201905Y-109458628D01*
X155725714Y-109934819D02*
X155154286Y-109934819D01*
X155440000Y-109934819D02*
X155440000Y-108934819D01*
X155440000Y-108934819D02*
X155344762Y-109077676D01*
X155344762Y-109077676D02*
X155249524Y-109172914D01*
X155249524Y-109172914D02*
X155154286Y-109220533D01*
X156159580Y-105322666D02*
X156207200Y-105370285D01*
X156207200Y-105370285D02*
X156254819Y-105513142D01*
X156254819Y-105513142D02*
X156254819Y-105608380D01*
X156254819Y-105608380D02*
X156207200Y-105751237D01*
X156207200Y-105751237D02*
X156111961Y-105846475D01*
X156111961Y-105846475D02*
X156016723Y-105894094D01*
X156016723Y-105894094D02*
X155826247Y-105941713D01*
X155826247Y-105941713D02*
X155683390Y-105941713D01*
X155683390Y-105941713D02*
X155492914Y-105894094D01*
X155492914Y-105894094D02*
X155397676Y-105846475D01*
X155397676Y-105846475D02*
X155302438Y-105751237D01*
X155302438Y-105751237D02*
X155254819Y-105608380D01*
X155254819Y-105608380D02*
X155254819Y-105513142D01*
X155254819Y-105513142D02*
X155302438Y-105370285D01*
X155302438Y-105370285D02*
X155350057Y-105322666D01*
X155588152Y-104465523D02*
X156254819Y-104465523D01*
X155207200Y-104703618D02*
X155921485Y-104941713D01*
X155921485Y-104941713D02*
X155921485Y-104322666D01*
X154154428Y-126438819D02*
X153821095Y-125962628D01*
X153583000Y-126438819D02*
X153583000Y-125438819D01*
X153583000Y-125438819D02*
X153963952Y-125438819D01*
X153963952Y-125438819D02*
X154059190Y-125486438D01*
X154059190Y-125486438D02*
X154106809Y-125534057D01*
X154106809Y-125534057D02*
X154154428Y-125629295D01*
X154154428Y-125629295D02*
X154154428Y-125772152D01*
X154154428Y-125772152D02*
X154106809Y-125867390D01*
X154106809Y-125867390D02*
X154059190Y-125915009D01*
X154059190Y-125915009D02*
X153963952Y-125962628D01*
X153963952Y-125962628D02*
X153583000Y-125962628D01*
X154916333Y-125915009D02*
X154583000Y-125915009D01*
X154583000Y-126438819D02*
X154583000Y-125438819D01*
X154583000Y-125438819D02*
X155059190Y-125438819D01*
X156392524Y-125438819D02*
X156583000Y-125438819D01*
X156583000Y-125438819D02*
X156678238Y-125486438D01*
X156678238Y-125486438D02*
X156773476Y-125581676D01*
X156773476Y-125581676D02*
X156821095Y-125772152D01*
X156821095Y-125772152D02*
X156821095Y-126105485D01*
X156821095Y-126105485D02*
X156773476Y-126295961D01*
X156773476Y-126295961D02*
X156678238Y-126391200D01*
X156678238Y-126391200D02*
X156583000Y-126438819D01*
X156583000Y-126438819D02*
X156392524Y-126438819D01*
X156392524Y-126438819D02*
X156297286Y-126391200D01*
X156297286Y-126391200D02*
X156202048Y-126295961D01*
X156202048Y-126295961D02*
X156154429Y-126105485D01*
X156154429Y-126105485D02*
X156154429Y-125772152D01*
X156154429Y-125772152D02*
X156202048Y-125581676D01*
X156202048Y-125581676D02*
X156297286Y-125486438D01*
X156297286Y-125486438D02*
X156392524Y-125438819D01*
X157249667Y-125438819D02*
X157249667Y-126248342D01*
X157249667Y-126248342D02*
X157297286Y-126343580D01*
X157297286Y-126343580D02*
X157344905Y-126391200D01*
X157344905Y-126391200D02*
X157440143Y-126438819D01*
X157440143Y-126438819D02*
X157630619Y-126438819D01*
X157630619Y-126438819D02*
X157725857Y-126391200D01*
X157725857Y-126391200D02*
X157773476Y-126343580D01*
X157773476Y-126343580D02*
X157821095Y-126248342D01*
X157821095Y-126248342D02*
X157821095Y-125438819D01*
X158154429Y-125438819D02*
X158725857Y-125438819D01*
X158440143Y-126438819D02*
X158440143Y-125438819D01*
X134275533Y-113572438D02*
X134180295Y-113524819D01*
X134180295Y-113524819D02*
X134037438Y-113524819D01*
X134037438Y-113524819D02*
X133894581Y-113572438D01*
X133894581Y-113572438D02*
X133799343Y-113667676D01*
X133799343Y-113667676D02*
X133751724Y-113762914D01*
X133751724Y-113762914D02*
X133704105Y-113953390D01*
X133704105Y-113953390D02*
X133704105Y-114096247D01*
X133704105Y-114096247D02*
X133751724Y-114286723D01*
X133751724Y-114286723D02*
X133799343Y-114381961D01*
X133799343Y-114381961D02*
X133894581Y-114477200D01*
X133894581Y-114477200D02*
X134037438Y-114524819D01*
X134037438Y-114524819D02*
X134132676Y-114524819D01*
X134132676Y-114524819D02*
X134275533Y-114477200D01*
X134275533Y-114477200D02*
X134323152Y-114429580D01*
X134323152Y-114429580D02*
X134323152Y-114096247D01*
X134323152Y-114096247D02*
X134132676Y-114096247D01*
X135085057Y-114001009D02*
X134751724Y-114001009D01*
X134751724Y-114524819D02*
X134751724Y-113524819D01*
X134751724Y-113524819D02*
X135227914Y-113524819D01*
X133779905Y-104623009D02*
X134113238Y-104623009D01*
X134256095Y-105146819D02*
X133779905Y-105146819D01*
X133779905Y-105146819D02*
X133779905Y-104146819D01*
X133779905Y-104146819D02*
X134256095Y-104146819D01*
X134684667Y-105146819D02*
X134684667Y-104146819D01*
X134684667Y-104146819D02*
X135256095Y-105146819D01*
X135256095Y-105146819D02*
X135256095Y-104146819D01*
X147153333Y-120599580D02*
X147105714Y-120647200D01*
X147105714Y-120647200D02*
X146962857Y-120694819D01*
X146962857Y-120694819D02*
X146867619Y-120694819D01*
X146867619Y-120694819D02*
X146724762Y-120647200D01*
X146724762Y-120647200D02*
X146629524Y-120551961D01*
X146629524Y-120551961D02*
X146581905Y-120456723D01*
X146581905Y-120456723D02*
X146534286Y-120266247D01*
X146534286Y-120266247D02*
X146534286Y-120123390D01*
X146534286Y-120123390D02*
X146581905Y-119932914D01*
X146581905Y-119932914D02*
X146629524Y-119837676D01*
X146629524Y-119837676D02*
X146724762Y-119742438D01*
X146724762Y-119742438D02*
X146867619Y-119694819D01*
X146867619Y-119694819D02*
X146962857Y-119694819D01*
X146962857Y-119694819D02*
X147105714Y-119742438D01*
X147105714Y-119742438D02*
X147153333Y-119790057D01*
X147534286Y-119790057D02*
X147581905Y-119742438D01*
X147581905Y-119742438D02*
X147677143Y-119694819D01*
X147677143Y-119694819D02*
X147915238Y-119694819D01*
X147915238Y-119694819D02*
X148010476Y-119742438D01*
X148010476Y-119742438D02*
X148058095Y-119790057D01*
X148058095Y-119790057D02*
X148105714Y-119885295D01*
X148105714Y-119885295D02*
X148105714Y-119980533D01*
X148105714Y-119980533D02*
X148058095Y-120123390D01*
X148058095Y-120123390D02*
X147486667Y-120694819D01*
X147486667Y-120694819D02*
X148105714Y-120694819D01*
X144464819Y-129873333D02*
X145179104Y-129873333D01*
X145179104Y-129873333D02*
X145321961Y-129920952D01*
X145321961Y-129920952D02*
X145417200Y-130016190D01*
X145417200Y-130016190D02*
X145464819Y-130159047D01*
X145464819Y-130159047D02*
X145464819Y-130254285D01*
X145464819Y-128873333D02*
X145464819Y-129444761D01*
X145464819Y-129159047D02*
X144464819Y-129159047D01*
X144464819Y-129159047D02*
X144607676Y-129254285D01*
X144607676Y-129254285D02*
X144702914Y-129349523D01*
X144702914Y-129349523D02*
X144750533Y-129444761D01*
D12*
%TO.C,IC1*%
X136614000Y-85336000D02*
X136614000Y-125336000D01*
X136614000Y-125336000D02*
X163614000Y-125336000D01*
X163614000Y-85336000D02*
X136614000Y-85336000D01*
X163614000Y-125336000D02*
X163614000Y-85336000D01*
D16*
%TO.C,U1*%
X141640000Y-101230000D02*
X141640000Y-86730000D01*
X158090000Y-101230000D02*
X158090000Y-86730000D01*
D17*
%TO.C,E1*%
X155967200Y-76301000D02*
X155967200Y-83001000D01*
X152767200Y-76301000D02*
X152767200Y-83001000D01*
D14*
X155467200Y-85751000D02*
G75*
G03*
X155267200Y-85751000I-100000J0D01*
G01*
X155267200Y-85751000D02*
G75*
G03*
X155467200Y-85751000I100000J0D01*
G01*
D18*
%TO.C,C1*%
X154678748Y-116105000D02*
X155201252Y-116105000D01*
X154678748Y-117575000D02*
X155201252Y-117575000D01*
%TO.C,C3*%
X153189000Y-105417252D02*
X153189000Y-104894748D01*
X154659000Y-105417252D02*
X154659000Y-104894748D01*
%TO.C,PRG*%
X133010200Y-93990000D02*
X133010200Y-101670000D01*
X133010200Y-93990000D02*
X135670200Y-93990000D01*
X133010200Y-101670000D02*
X135670200Y-101670000D01*
X134340200Y-91390000D02*
X135670200Y-91390000D01*
X135670200Y-91390000D02*
X135670200Y-92720000D01*
X135670200Y-93990000D02*
X135670200Y-101670000D01*
D17*
%TO.C,U3*%
X142446000Y-109749200D02*
X142696000Y-109749200D01*
X149146000Y-109749200D02*
X148896000Y-109749200D01*
X142446000Y-106049200D02*
X142446000Y-109749200D01*
X143846000Y-106049200D02*
X142446000Y-106049200D01*
X147746000Y-106049200D02*
X149146000Y-106049200D01*
X149146000Y-106049200D02*
X149146000Y-109749200D01*
D14*
X143596000Y-112499200D02*
G75*
G03*
X143396000Y-112499200I-100000J0D01*
G01*
X143396000Y-112499200D02*
G75*
G03*
X143596000Y-112499200I100000J0D01*
G01*
D18*
%TO.C,R2*%
X145792936Y-115480000D02*
X148847064Y-115480000D01*
X145792936Y-118200000D02*
X148847064Y-118200000D01*
%TO.C,G\u002A\u002A\u002A*%
G36*
X153197774Y-92679785D02*
G01*
X153233463Y-92692266D01*
X153237009Y-92694014D01*
X153258485Y-92708343D01*
X153279900Y-92728495D01*
X153298255Y-92751387D01*
X153306861Y-92765759D01*
X153313238Y-92781709D01*
X153318672Y-92801133D01*
X153320549Y-92810762D01*
X153322194Y-92849352D01*
X153315289Y-92885716D01*
X153300584Y-92918804D01*
X153278832Y-92947568D01*
X153250783Y-92970959D01*
X153217189Y-92987927D01*
X153187907Y-92995976D01*
X153172785Y-92998634D01*
X153161698Y-93000329D01*
X153157623Y-93000690D01*
X153151933Y-92999533D01*
X153140039Y-92996960D01*
X153129184Y-92994564D01*
X153094911Y-92983621D01*
X153066433Y-92966780D01*
X153046092Y-92948031D01*
X153024092Y-92919723D01*
X153010036Y-92890368D01*
X153003451Y-92863238D01*
X153001740Y-92825275D01*
X153008193Y-92790013D01*
X153021807Y-92758178D01*
X153041582Y-92730495D01*
X153066513Y-92707691D01*
X153095601Y-92690492D01*
X153127841Y-92679624D01*
X153162233Y-92675813D01*
X153197774Y-92679785D01*
G37*
G36*
X153504012Y-92239670D02*
G01*
X153517107Y-92246951D01*
X153534197Y-92257687D01*
X153553559Y-92270753D01*
X153573472Y-92285024D01*
X153592214Y-92299374D01*
X153592617Y-92299696D01*
X153651110Y-92352332D01*
X153702829Y-92411112D01*
X153747420Y-92475345D01*
X153784529Y-92544343D01*
X153813802Y-92617416D01*
X153834886Y-92693874D01*
X153847426Y-92773028D01*
X153849695Y-92800668D01*
X153852564Y-92846376D01*
X153714729Y-92845317D01*
X153674073Y-92844977D01*
X153631427Y-92844571D01*
X153589134Y-92844126D01*
X153549538Y-92843667D01*
X153514984Y-92843219D01*
X153491337Y-92842867D01*
X153405780Y-92841477D01*
X153405711Y-92826346D01*
X153401452Y-92790482D01*
X153389815Y-92753139D01*
X153372036Y-92716537D01*
X153349353Y-92682896D01*
X153323003Y-92654437D01*
X153300197Y-92636946D01*
X153288695Y-92629099D01*
X153281592Y-92623121D01*
X153280383Y-92621039D01*
X153284884Y-92611890D01*
X153293153Y-92596201D01*
X153304640Y-92574951D01*
X153318795Y-92549115D01*
X153335068Y-92519671D01*
X153352909Y-92487596D01*
X153371768Y-92453866D01*
X153391094Y-92419457D01*
X153410339Y-92385348D01*
X153428951Y-92352515D01*
X153446381Y-92321934D01*
X153462079Y-92294582D01*
X153475495Y-92271437D01*
X153486079Y-92253475D01*
X153493280Y-92241673D01*
X153496549Y-92237008D01*
X153496635Y-92236971D01*
X153504012Y-92239670D01*
G37*
G36*
X152810310Y-92250200D02*
G01*
X152817441Y-92261346D01*
X152828347Y-92278919D01*
X152842526Y-92302098D01*
X152859478Y-92330061D01*
X152878702Y-92361989D01*
X152899698Y-92397060D01*
X152913928Y-92420934D01*
X152936167Y-92458302D01*
X152957224Y-92493675D01*
X152976550Y-92526131D01*
X152993594Y-92554745D01*
X153007807Y-92578596D01*
X153018639Y-92596761D01*
X153025541Y-92608318D01*
X153027508Y-92611598D01*
X153037172Y-92627632D01*
X153025749Y-92634758D01*
X153016933Y-92641507D01*
X153004182Y-92652763D01*
X152990044Y-92666259D01*
X152988063Y-92668235D01*
X152960844Y-92701717D01*
X152939488Y-92740803D01*
X152925295Y-92782907D01*
X152921925Y-92799947D01*
X152916336Y-92835560D01*
X152811038Y-92838624D01*
X152773468Y-92839555D01*
X152729851Y-92840373D01*
X152683519Y-92841030D01*
X152637801Y-92841482D01*
X152596028Y-92841683D01*
X152588592Y-92841688D01*
X152471443Y-92841688D01*
X152474569Y-92793995D01*
X152484427Y-92714782D01*
X152503432Y-92637266D01*
X152531443Y-92561855D01*
X152568320Y-92488956D01*
X152593761Y-92447919D01*
X152611363Y-92424127D01*
X152634620Y-92396637D01*
X152661657Y-92367342D01*
X152690603Y-92338136D01*
X152719584Y-92310912D01*
X152746728Y-92287562D01*
X152768968Y-92270790D01*
X152784912Y-92260099D01*
X152797819Y-92251774D01*
X152805835Y-92246995D01*
X152807454Y-92246303D01*
X152810310Y-92250200D01*
G37*
G36*
X153058890Y-93057354D02*
G01*
X153094301Y-93070799D01*
X153134118Y-93078106D01*
X153175534Y-93079128D01*
X153215742Y-93073717D01*
X153239353Y-93066879D01*
X153255603Y-93061360D01*
X153269371Y-93057331D01*
X153276511Y-93055841D01*
X153279488Y-93057051D01*
X153283927Y-93061528D01*
X153290199Y-93069877D01*
X153298674Y-93082701D01*
X153309726Y-93100606D01*
X153323723Y-93124196D01*
X153341039Y-93154075D01*
X153362043Y-93190848D01*
X153387108Y-93235119D01*
X153392605Y-93244863D01*
X153418056Y-93289865D01*
X153439285Y-93327362D01*
X153456511Y-93358107D01*
X153469950Y-93382852D01*
X153479822Y-93402352D01*
X153486343Y-93417359D01*
X153489732Y-93428626D01*
X153490207Y-93436906D01*
X153487985Y-93442953D01*
X153483285Y-93447520D01*
X153476324Y-93451360D01*
X153467320Y-93455225D01*
X153456491Y-93459869D01*
X153455005Y-93460549D01*
X153410663Y-93478935D01*
X153361890Y-93495594D01*
X153313632Y-93508892D01*
X153298887Y-93512216D01*
X153271902Y-93516665D01*
X153238736Y-93520220D01*
X153202052Y-93522771D01*
X153164512Y-93524208D01*
X153128779Y-93524420D01*
X153097516Y-93523298D01*
X153077615Y-93521379D01*
X152996521Y-93505423D01*
X152918033Y-93480594D01*
X152858447Y-93454882D01*
X152841481Y-93446171D01*
X152828301Y-93438512D01*
X152820800Y-93433051D01*
X152819770Y-93431500D01*
X152822029Y-93426900D01*
X152828426Y-93415177D01*
X152838396Y-93397316D01*
X152851374Y-93374305D01*
X152866794Y-93347128D01*
X152884089Y-93316774D01*
X152902694Y-93284227D01*
X152922043Y-93250475D01*
X152941569Y-93216505D01*
X152960709Y-93183301D01*
X152978894Y-93151852D01*
X152995560Y-93123142D01*
X153010141Y-93098159D01*
X153022071Y-93077889D01*
X153030784Y-93063319D01*
X153033755Y-93058482D01*
X153040366Y-93047904D01*
X153058890Y-93057354D01*
G37*
%TO.C,R1*%
X153412936Y-110400000D02*
X156467064Y-110400000D01*
X153412936Y-113120000D02*
X156467064Y-113120000D01*
%TO.C,C4*%
X156745000Y-105417252D02*
X156745000Y-104894748D01*
X158215000Y-105417252D02*
X158215000Y-104894748D01*
D17*
%TO.C,RF OUT*%
X152769000Y-131696000D02*
X152769000Y-129696000D01*
X154969000Y-127496000D02*
X156969000Y-127496000D01*
X156969000Y-133896000D02*
X154969000Y-133896000D01*
X159169000Y-129696000D02*
X159169000Y-131696000D01*
D18*
%TO.C,GF*%
X133112200Y-118110000D02*
X133112200Y-120710000D01*
X133112200Y-118110000D02*
X135772200Y-118110000D01*
X133112200Y-120710000D02*
X135772200Y-120710000D01*
X134442200Y-115510000D02*
X135772200Y-115510000D01*
X135772200Y-115510000D02*
X135772200Y-116840000D01*
X135772200Y-118110000D02*
X135772200Y-120710000D01*
%TO.C,EN*%
X133188000Y-108732000D02*
X133188000Y-111332000D01*
X133188000Y-108732000D02*
X135848000Y-108732000D01*
X133188000Y-111332000D02*
X135848000Y-111332000D01*
X134518000Y-106132000D02*
X135848000Y-106132000D01*
X135848000Y-106132000D02*
X135848000Y-107462000D01*
X135848000Y-108732000D02*
X135848000Y-111332000D01*
%TO.C,C2*%
X147058748Y-121185000D02*
X147581252Y-121185000D01*
X147058748Y-122655000D02*
X147581252Y-122655000D01*
%TO.C,J1*%
X140970000Y-128210000D02*
X138370000Y-128210000D01*
X140970000Y-128210000D02*
X140970000Y-130870000D01*
X138370000Y-128210000D02*
X138370000Y-130870000D01*
X143570000Y-129540000D02*
X143570000Y-130870000D01*
X143570000Y-130870000D02*
X142240000Y-130870000D01*
X140970000Y-130870000D02*
X138370000Y-130870000D01*
%TD*%
M02*
