%TF.GenerationSoftware,KiCad,Pcbnew,8.0.3-1.fc40*%
%TF.CreationDate,2024-06-24T14:15:41-04:00*%
%TF.ProjectId,OS42Micro,4f533432-4d69-4637-926f-2e6b69636164,rev?*%
%TF.SameCoordinates,Original*%
%TF.FileFunction,Paste,Bot*%
%TF.FilePolarity,Positive*%
%FSLAX46Y46*%
G04 Gerber Fmt 4.6, Leading zero omitted, Abs format (unit mm)*
G04 Created by KiCad (PCBNEW 8.0.3-1.fc40) date 2024-06-24 14:15:41*
%MOMM*%
%LPD*%
G01*
G04 APERTURE LIST*
G04 Aperture macros list*
%AMRoundRect*
0 Rectangle with rounded corners*
0 $1 Rounding radius*
0 $2 $3 $4 $5 $6 $7 $8 $9 X,Y pos of 4 corners*
0 Add a 4 corners polygon primitive as box body*
4,1,4,$2,$3,$4,$5,$6,$7,$8,$9,$2,$3,0*
0 Add four circle primitives for the rounded corners*
1,1,$1+$1,$2,$3*
1,1,$1+$1,$4,$5*
1,1,$1+$1,$6,$7*
1,1,$1+$1,$8,$9*
0 Add four rect primitives between the rounded corners*
20,1,$1+$1,$2,$3,$4,$5,0*
20,1,$1+$1,$4,$5,$6,$7,0*
20,1,$1+$1,$6,$7,$8,$9,0*
20,1,$1+$1,$8,$9,$2,$3,0*%
G04 Aperture macros list end*
%ADD10RoundRect,0.250000X0.337500X0.475000X-0.337500X0.475000X-0.337500X-0.475000X0.337500X-0.475000X0*%
%ADD11RoundRect,0.250000X-0.475000X0.337500X-0.475000X-0.337500X0.475000X-0.337500X0.475000X0.337500X0*%
%ADD12RoundRect,0.250000X0.625000X-0.400000X0.625000X0.400000X-0.625000X0.400000X-0.625000X-0.400000X0*%
%ADD13RoundRect,0.250001X0.624999X-0.462499X0.624999X0.462499X-0.624999X0.462499X-0.624999X-0.462499X0*%
%ADD14RoundRect,0.097900X-0.887100X-0.347100X0.887100X-0.347100X0.887100X0.347100X-0.887100X0.347100X0*%
%ADD15RoundRect,0.788000X-0.197000X-0.807000X0.197000X-0.807000X0.197000X0.807000X-0.197000X0.807000X0*%
%ADD16RoundRect,0.249999X1.075001X-0.450001X1.075001X0.450001X-1.075001X0.450001X-1.075001X-0.450001X0*%
%ADD17RoundRect,0.068750X-0.206250X0.666250X-0.206250X-0.666250X0.206250X-0.666250X0.206250X0.666250X0*%
%ADD18RoundRect,0.068750X-0.666250X0.206250X-0.666250X-0.206250X0.666250X-0.206250X0.666250X0.206250X0*%
%ADD19RoundRect,0.249999X-1.075001X0.450001X-1.075001X-0.450001X1.075001X-0.450001X1.075001X0.450001X0*%
G04 APERTURE END LIST*
D10*
%TO.C,C7*%
X145787500Y-105350000D03*
X143712500Y-105350000D03*
%TD*%
D11*
%TO.C,C2*%
X141500000Y-134962500D03*
X141500000Y-137037500D03*
%TD*%
D12*
%TO.C,R4*%
X137400000Y-129100000D03*
X137400000Y-126000000D03*
%TD*%
D11*
%TO.C,C6*%
X151550000Y-113662500D03*
X151550000Y-115737500D03*
%TD*%
D13*
%TO.C,D1*%
X151800000Y-110287500D03*
X151800000Y-107312500D03*
%TD*%
D14*
%TO.C,U3*%
X144975000Y-139800000D03*
X144975000Y-137500000D03*
X144975000Y-135200000D03*
D15*
X151025000Y-137500000D03*
%TD*%
D16*
%TO.C,R1*%
X141500000Y-132300000D03*
X141500000Y-127500000D03*
%TD*%
D10*
%TO.C,C4*%
X152087500Y-125750000D03*
X150012500Y-125750000D03*
%TD*%
D17*
%TO.C,U4*%
X141200000Y-108830000D03*
X142000000Y-108830000D03*
X142800000Y-108830000D03*
X143600000Y-108830000D03*
X144400000Y-108830000D03*
X145200000Y-108830000D03*
X146000000Y-108830000D03*
X146800000Y-108830000D03*
D18*
X148170000Y-110200000D03*
X148170000Y-111000000D03*
X148170000Y-111800000D03*
X148170000Y-112600000D03*
X148170000Y-113400000D03*
X148170000Y-114200000D03*
X148170000Y-115000000D03*
X148170000Y-115800000D03*
D17*
X146800000Y-117170000D03*
X146000000Y-117170000D03*
X145200000Y-117170000D03*
X144400000Y-117170000D03*
X143600000Y-117170000D03*
X142800000Y-117170000D03*
X142000000Y-117170000D03*
X141200000Y-117170000D03*
D18*
X139830000Y-115800000D03*
X139830000Y-115000000D03*
X139830000Y-114200000D03*
X139830000Y-113400000D03*
X139830000Y-112600000D03*
X139830000Y-111800000D03*
X139830000Y-111000000D03*
X139830000Y-110200000D03*
%TD*%
D10*
%TO.C,C5*%
X147737500Y-147450000D03*
X145662500Y-147450000D03*
%TD*%
%TO.C,C1*%
X142500000Y-140000000D03*
X140425000Y-140000000D03*
%TD*%
D19*
%TO.C,R2*%
X145400000Y-127500000D03*
X145400000Y-132300000D03*
%TD*%
D10*
%TO.C,C3*%
X152087500Y-123500000D03*
X150012500Y-123500000D03*
%TD*%
M02*
