%TF.GenerationSoftware,KiCad,Pcbnew,8.0.3-1.fc40*%
%TF.CreationDate,2024-06-24T14:15:41-04:00*%
%TF.ProjectId,OS42Micro,4f533432-4d69-4637-926f-2e6b69636164,rev?*%
%TF.SameCoordinates,Original*%
%TF.FileFunction,Legend,Top*%
%TF.FilePolarity,Positive*%
%FSLAX46Y46*%
G04 Gerber Fmt 4.6, Leading zero omitted, Abs format (unit mm)*
G04 Created by KiCad (PCBNEW 8.0.3-1.fc40) date 2024-06-24 14:15:41*
%MOMM*%
%LPD*%
G01*
G04 APERTURE LIST*
%ADD10C,0.100000*%
%ADD11C,0.250000*%
%ADD12C,0.200000*%
%ADD13C,0.300000*%
%ADD14C,0.075000*%
%ADD15C,0.150000*%
%ADD16C,0.120000*%
%ADD17C,0.127000*%
%ADD18C,0.000000*%
G04 APERTURE END LIST*
D10*
X149800000Y-147800000D02*
X157200000Y-147800000D01*
X157200000Y-153800000D01*
X149800000Y-153800000D01*
X149800000Y-147800000D01*
D11*
X155097431Y-146983666D02*
X154335527Y-146983666D01*
X155197431Y-132983666D02*
X154435527Y-132983666D01*
X154816479Y-133364619D02*
X154816479Y-132602714D01*
D10*
D11*
G36*
X152389776Y-151030000D02*
G01*
X152433457Y-151003823D01*
X152439602Y-150980418D01*
X152439602Y-150167578D01*
X152848953Y-150985059D01*
X152887551Y-151015506D01*
X152895115Y-151016078D01*
X152938590Y-150992142D01*
X153349406Y-150155854D01*
X153349406Y-150980418D01*
X153373990Y-151022701D01*
X153400697Y-151030000D01*
X153443302Y-151003823D01*
X153449057Y-150980418D01*
X153449057Y-149970718D01*
X153423927Y-149927087D01*
X153400697Y-149920893D01*
X153356887Y-149944581D01*
X153356001Y-149946050D01*
X152898046Y-150862205D01*
X152434473Y-149946294D01*
X152391644Y-149920920D01*
X152389776Y-149920893D01*
X152347259Y-149945171D01*
X152339951Y-149970718D01*
X152339951Y-150980418D01*
X152366207Y-151023911D01*
X152389776Y-151030000D01*
G37*
G36*
X153774877Y-150103342D02*
G01*
X153821919Y-150086594D01*
X153847152Y-150044531D01*
X153848639Y-150029581D01*
X153832734Y-149983210D01*
X153789407Y-149958682D01*
X153776343Y-149957529D01*
X153728679Y-149973589D01*
X153703779Y-150016855D01*
X153702826Y-150029581D01*
X153719352Y-150076623D01*
X153763957Y-150102499D01*
X153774877Y-150103342D01*
G37*
G36*
X153776343Y-151030000D02*
G01*
X153820319Y-151004472D01*
X153826168Y-150980418D01*
X153826168Y-150298492D01*
X153802541Y-150255691D01*
X153776343Y-150248667D01*
X153733541Y-150272294D01*
X153726517Y-150298492D01*
X153726517Y-150980418D01*
X153752232Y-151024206D01*
X153776343Y-151030000D01*
G37*
G36*
X154437020Y-151038548D02*
G01*
X154492748Y-151034945D01*
X154546006Y-151024354D01*
X154596128Y-151007105D01*
X154642447Y-150983525D01*
X154684297Y-150953943D01*
X154697138Y-150942805D01*
X154707139Y-150893309D01*
X154694452Y-150875150D01*
X154644683Y-150867902D01*
X154628995Y-150877836D01*
X154589038Y-150907317D01*
X154543082Y-150928120D01*
X154492089Y-150940450D01*
X154437020Y-150944515D01*
X154374876Y-150938611D01*
X154318779Y-150921556D01*
X154269421Y-150894334D01*
X154227490Y-150857930D01*
X154193676Y-150813329D01*
X154168669Y-150761516D01*
X154153159Y-150703474D01*
X154147836Y-150640188D01*
X154152728Y-150576050D01*
X154167002Y-150517586D01*
X154190057Y-150465681D01*
X154221292Y-150421224D01*
X154260107Y-150385102D01*
X154305899Y-150358202D01*
X154358069Y-150341411D01*
X154416015Y-150335617D01*
X154465654Y-150339190D01*
X154518443Y-150352485D01*
X154566255Y-150375772D01*
X154609659Y-150409217D01*
X154638276Y-150439420D01*
X154685372Y-150456939D01*
X154703244Y-150449190D01*
X154724217Y-150403338D01*
X154714724Y-150383244D01*
X154677885Y-150342570D01*
X154636952Y-150308721D01*
X154592234Y-150281726D01*
X154544038Y-150261612D01*
X154492670Y-150248408D01*
X154438440Y-150242141D01*
X154416015Y-150241584D01*
X154357952Y-150246009D01*
X154303345Y-150258904D01*
X154252685Y-150279696D01*
X154206466Y-150307813D01*
X154165180Y-150342681D01*
X154129319Y-150383730D01*
X154099377Y-150430387D01*
X154075846Y-150482079D01*
X154059218Y-150538234D01*
X154049987Y-150598279D01*
X154048185Y-150640188D01*
X154052462Y-150701826D01*
X154064939Y-150760210D01*
X154085080Y-150814727D01*
X154112353Y-150864763D01*
X154146224Y-150909706D01*
X154186159Y-150948941D01*
X154231624Y-150981855D01*
X154282086Y-151007834D01*
X154337011Y-151026267D01*
X154395864Y-151036538D01*
X154437020Y-151038548D01*
G37*
G36*
X154969469Y-151030000D02*
G01*
X155012328Y-151006549D01*
X155019295Y-150980418D01*
X155019295Y-150554703D01*
X155026040Y-150498026D01*
X155045493Y-150447719D01*
X155076480Y-150405107D01*
X155117827Y-150371514D01*
X155168359Y-150348265D01*
X155226904Y-150336685D01*
X155252302Y-150335617D01*
X155303065Y-150340195D01*
X155352051Y-150331872D01*
X155364898Y-150307041D01*
X155346904Y-150258926D01*
X155295963Y-150242681D01*
X155252302Y-150240118D01*
X155196028Y-150245541D01*
X155143887Y-150260623D01*
X155097388Y-150283588D01*
X155058038Y-150312658D01*
X155023174Y-150351918D01*
X155019295Y-150357843D01*
X155019295Y-150298492D01*
X154993688Y-150254516D01*
X154969469Y-150248667D01*
X154926668Y-150272294D01*
X154919644Y-150298492D01*
X154919644Y-150980418D01*
X154945359Y-151024206D01*
X154969469Y-151030000D01*
G37*
G36*
X155876242Y-150242113D02*
G01*
X155936027Y-150252316D01*
X155992030Y-150270652D01*
X156043661Y-150296540D01*
X156090327Y-150329395D01*
X156131437Y-150368635D01*
X156166399Y-150413676D01*
X156194622Y-150463935D01*
X156215514Y-150518829D01*
X156228483Y-150577774D01*
X156232937Y-150640188D01*
X156230943Y-150681853D01*
X156220746Y-150741637D01*
X156202430Y-150797641D01*
X156176585Y-150849271D01*
X156143803Y-150895937D01*
X156104677Y-150937048D01*
X156059797Y-150972010D01*
X156009755Y-151000233D01*
X155955144Y-151021125D01*
X155896554Y-151034094D01*
X155834577Y-151038548D01*
X155792612Y-151036554D01*
X155732445Y-151026357D01*
X155676136Y-151008041D01*
X155624267Y-150982196D01*
X155577422Y-150949414D01*
X155536184Y-150910287D01*
X155501136Y-150865407D01*
X155472861Y-150815366D01*
X155451942Y-150760754D01*
X155438963Y-150702164D01*
X155434508Y-150640188D01*
X155534159Y-150640188D01*
X155540015Y-150703403D01*
X155556919Y-150761413D01*
X155583875Y-150813222D01*
X155619888Y-150857839D01*
X155663960Y-150894270D01*
X155715097Y-150921521D01*
X155772301Y-150938601D01*
X155834577Y-150944515D01*
X155896710Y-150938601D01*
X155953688Y-150921521D01*
X156004546Y-150894270D01*
X156048320Y-150857839D01*
X156084046Y-150813222D01*
X156110759Y-150761413D01*
X156127494Y-150703403D01*
X156133286Y-150640188D01*
X156127494Y-150576478D01*
X156110759Y-150518078D01*
X156084046Y-150465969D01*
X156048320Y-150421133D01*
X156004546Y-150384551D01*
X155953688Y-150357206D01*
X155896710Y-150340079D01*
X155834577Y-150334152D01*
X155772301Y-150340079D01*
X155715097Y-150357206D01*
X155663960Y-150384551D01*
X155619888Y-150421133D01*
X155583875Y-150465969D01*
X155556919Y-150518078D01*
X155540015Y-150576478D01*
X155534159Y-150640188D01*
X155434508Y-150640188D01*
X155436502Y-150598222D01*
X155446705Y-150538056D01*
X155465042Y-150481747D01*
X155490929Y-150429878D01*
X155523785Y-150383033D01*
X155563024Y-150341795D01*
X155608065Y-150306746D01*
X155658324Y-150278471D01*
X155713218Y-150257553D01*
X155772164Y-150244574D01*
X155834577Y-150240118D01*
X155876242Y-150242113D01*
G37*
D12*
G36*
X136164000Y-103907606D02*
G01*
X136151714Y-103946182D01*
X136135472Y-103960949D01*
X135912527Y-104093817D01*
X135894355Y-104112379D01*
X135888884Y-104141102D01*
X135888884Y-104190146D01*
X136164000Y-104190146D01*
X136164000Y-104335129D01*
X135438696Y-104335129D01*
X135438696Y-104115310D01*
X135544600Y-104115310D01*
X135544600Y-104190146D01*
X135782981Y-104190146D01*
X135782981Y-104116482D01*
X135779317Y-104076259D01*
X135773602Y-104055715D01*
X135754349Y-104021325D01*
X135747419Y-104013705D01*
X135714611Y-103991938D01*
X135707558Y-103989281D01*
X135668842Y-103981653D01*
X135657147Y-103981270D01*
X135617299Y-103986719D01*
X135581578Y-104006552D01*
X135573909Y-104014291D01*
X135553873Y-104049783D01*
X135545630Y-104090981D01*
X135544600Y-104115310D01*
X135438696Y-104115310D01*
X135439932Y-104075858D01*
X135444207Y-104035901D01*
X135452435Y-103996665D01*
X135454327Y-103990062D01*
X135469092Y-103950802D01*
X135489608Y-103915518D01*
X135498096Y-103904675D01*
X135526878Y-103877344D01*
X135562880Y-103856992D01*
X135565311Y-103856022D01*
X135603525Y-103844942D01*
X135645259Y-103840646D01*
X135651090Y-103840586D01*
X135690203Y-103843739D01*
X135719087Y-103850551D01*
X135755280Y-103865390D01*
X135777900Y-103879274D01*
X135808828Y-103906324D01*
X135825186Y-103925778D01*
X135845794Y-103959211D01*
X135858403Y-103988890D01*
X135876575Y-103963098D01*
X135902171Y-103940628D01*
X136164000Y-103777278D01*
X136164000Y-103907606D01*
G37*
G36*
X135791383Y-103557850D02*
G01*
X135438696Y-103758520D01*
X135438696Y-103613342D01*
X135442213Y-103592826D01*
X135454523Y-103580907D01*
X135706972Y-103449016D01*
X135691145Y-103440223D01*
X135457258Y-103324940D01*
X135443385Y-103312240D01*
X135438696Y-103296413D01*
X135438696Y-103158464D01*
X135784935Y-103361088D01*
X136164000Y-103153970D01*
X136164000Y-103297390D01*
X136156770Y-103320837D01*
X136139966Y-103335296D01*
X135878528Y-103467773D01*
X135883804Y-103470704D01*
X135888884Y-103473244D01*
X136139380Y-103596343D01*
X136156379Y-103610216D01*
X136164000Y-103630537D01*
X136164000Y-103766140D01*
X135791383Y-103557850D01*
G37*
D13*
G36*
X150915219Y-148052307D02*
G01*
X151013410Y-148075590D01*
X151103578Y-148113437D01*
X151185065Y-148165063D01*
X151257210Y-148229685D01*
X151319355Y-148306517D01*
X151370840Y-148394776D01*
X151411006Y-148493677D01*
X151431169Y-148565136D01*
X151445813Y-148640745D01*
X151454743Y-148720269D01*
X151457763Y-148803478D01*
X151454697Y-148886391D01*
X151445636Y-148965833D01*
X151430783Y-149041545D01*
X151410342Y-149113268D01*
X151369649Y-149212806D01*
X151317532Y-149301911D01*
X151254677Y-149379707D01*
X151181773Y-149445321D01*
X151099509Y-149497876D01*
X151008573Y-149536499D01*
X150909652Y-149560314D01*
X150803436Y-149568447D01*
X150697266Y-149560424D01*
X150598469Y-149536917D01*
X150507717Y-149498764D01*
X150425679Y-149446808D01*
X150353026Y-149381888D01*
X150290428Y-149304845D01*
X150238555Y-149216519D01*
X150198077Y-149117750D01*
X150177753Y-149046518D01*
X150162990Y-148971267D01*
X150153987Y-148892247D01*
X150150942Y-148809706D01*
X150151173Y-148803478D01*
X150220551Y-148803478D01*
X150223258Y-148880129D01*
X150237212Y-148988789D01*
X150262540Y-149089202D01*
X150298682Y-149180618D01*
X150345079Y-149262283D01*
X150401170Y-149333447D01*
X150466398Y-149393357D01*
X150540201Y-149441262D01*
X150622019Y-149476411D01*
X150711295Y-149498052D01*
X150807466Y-149505432D01*
X150840076Y-149504626D01*
X150933397Y-149492728D01*
X151019545Y-149467128D01*
X151097995Y-149428488D01*
X151168222Y-149377471D01*
X151229701Y-149314740D01*
X151281906Y-149240958D01*
X151324313Y-149156787D01*
X151356395Y-149062892D01*
X151377628Y-148959934D01*
X151385496Y-148886589D01*
X151388154Y-148809706D01*
X151385447Y-148733056D01*
X151371501Y-148624396D01*
X151346199Y-148523982D01*
X151310112Y-148432567D01*
X151263810Y-148350902D01*
X151207864Y-148279738D01*
X151142844Y-148219828D01*
X151069320Y-148171922D01*
X150987864Y-148136774D01*
X150899046Y-148115133D01*
X150803436Y-148107752D01*
X150770820Y-148108565D01*
X150677411Y-148120547D01*
X150591088Y-148146303D01*
X150512398Y-148185140D01*
X150441887Y-148236360D01*
X150380102Y-148299269D01*
X150327592Y-148373172D01*
X150284902Y-148457371D01*
X150252579Y-148551173D01*
X150231171Y-148653881D01*
X150223233Y-148726958D01*
X150220551Y-148803478D01*
X150151173Y-148803478D01*
X150154008Y-148727152D01*
X150163077Y-148647967D01*
X150177951Y-148572422D01*
X150198432Y-148500787D01*
X150239234Y-148401255D01*
X150291541Y-148312038D01*
X150354687Y-148234047D01*
X150428005Y-148168193D01*
X150510828Y-148115388D01*
X150602490Y-148076542D01*
X150702324Y-148052566D01*
X150809665Y-148044371D01*
X150915219Y-148052307D01*
G37*
G36*
X152197819Y-149568447D02*
G01*
X152280616Y-149564147D01*
X152357260Y-149551551D01*
X152449129Y-149522642D01*
X152528255Y-149480879D01*
X152593608Y-149427343D01*
X152644158Y-149363117D01*
X152678874Y-149289283D01*
X152696725Y-149206921D01*
X152699005Y-149162882D01*
X152689122Y-149074033D01*
X152661192Y-149000624D01*
X152617794Y-148940552D01*
X152561504Y-148891715D01*
X152494902Y-148852009D01*
X152420565Y-148819333D01*
X152341073Y-148791584D01*
X152259002Y-148766659D01*
X152176931Y-148742454D01*
X152097438Y-148716869D01*
X152023101Y-148687799D01*
X151956499Y-148653143D01*
X151876738Y-148586084D01*
X151828881Y-148494627D01*
X151818998Y-148416598D01*
X151829977Y-148330802D01*
X151862394Y-148257951D01*
X151915470Y-148198697D01*
X151988424Y-148153695D01*
X152060575Y-148128395D01*
X152144551Y-148112969D01*
X152239951Y-148107752D01*
X152321943Y-148111432D01*
X152403764Y-148122886D01*
X152485138Y-148142735D01*
X152554322Y-148166902D01*
X152611444Y-148192383D01*
X152634525Y-148133032D01*
X152564664Y-148100770D01*
X152492948Y-148076482D01*
X152420305Y-148059488D01*
X152347662Y-148049106D01*
X152264149Y-148044442D01*
X152252407Y-148044371D01*
X152168210Y-148048152D01*
X152090620Y-148059313D01*
X151998075Y-148085210D01*
X151918791Y-148123108D01*
X151853638Y-148172369D01*
X151803480Y-148232352D01*
X151769187Y-148302418D01*
X151751625Y-148381928D01*
X151749389Y-148425024D01*
X151759272Y-148513278D01*
X151787202Y-148586384D01*
X151830600Y-148646405D01*
X151886890Y-148695401D01*
X151953492Y-148735432D01*
X152027829Y-148768559D01*
X152107321Y-148796844D01*
X152189392Y-148822346D01*
X152271463Y-148847127D01*
X152350956Y-148873248D01*
X152425293Y-148902769D01*
X152491895Y-148937751D01*
X152571656Y-149004971D01*
X152619513Y-149096072D01*
X152629396Y-149173506D01*
X152617987Y-149261672D01*
X152584598Y-149338642D01*
X152530487Y-149402884D01*
X152456911Y-149452862D01*
X152384882Y-149481544D01*
X152301845Y-149499329D01*
X152208443Y-149505432D01*
X152128529Y-149501491D01*
X152045640Y-149489667D01*
X151960123Y-149469961D01*
X151887103Y-149447517D01*
X151812701Y-149419600D01*
X151752320Y-149393325D01*
X151729605Y-149455240D01*
X151803108Y-149487609D01*
X151877516Y-149514614D01*
X151952125Y-149536206D01*
X152026231Y-149552334D01*
X152099130Y-149562948D01*
X152184023Y-149568334D01*
X152197819Y-149568447D01*
G37*
G36*
X153701744Y-149087411D02*
G01*
X153960031Y-149087411D01*
X153960031Y-149146395D01*
X153701744Y-149146395D01*
X153701744Y-149568447D01*
X153640195Y-149568447D01*
X153640195Y-149146395D01*
X152884385Y-149146395D01*
X152884385Y-149110125D01*
X152901031Y-149087411D01*
X152973778Y-149087411D01*
X153640195Y-149087411D01*
X153640195Y-148172233D01*
X152973778Y-149087411D01*
X152901031Y-149087411D01*
X153648255Y-148067819D01*
X153701744Y-148067819D01*
X153701744Y-149087411D01*
G37*
G36*
X154116102Y-149545000D02*
G01*
X154985851Y-149545000D01*
X154985851Y-149486015D01*
X154220516Y-149486015D01*
X154274143Y-149430938D01*
X154325088Y-149378109D01*
X154419192Y-149278893D01*
X154503340Y-149187766D01*
X154578047Y-149104126D01*
X154643826Y-149027373D01*
X154701191Y-148956905D01*
X154750655Y-148892121D01*
X154811160Y-148804289D01*
X154856777Y-148725866D01*
X154889240Y-148654823D01*
X154915057Y-148568074D01*
X154924678Y-148486030D01*
X154925034Y-148465690D01*
X154917374Y-148373325D01*
X154895010Y-148290740D01*
X154858863Y-148218716D01*
X154809859Y-148158036D01*
X154748918Y-148109480D01*
X154676966Y-148073829D01*
X154594924Y-148051866D01*
X154503715Y-148044371D01*
X154419449Y-148050346D01*
X154339940Y-148068212D01*
X154265464Y-148097883D01*
X154196296Y-148139271D01*
X154132711Y-148192290D01*
X154112805Y-148212533D01*
X154144678Y-148259061D01*
X154208283Y-148205339D01*
X154271907Y-148163755D01*
X154347319Y-148129866D01*
X154425322Y-148110917D01*
X154495289Y-148105921D01*
X154574680Y-148112296D01*
X154645853Y-148131028D01*
X154722152Y-148170916D01*
X154783046Y-148228028D01*
X154827108Y-148301206D01*
X154852914Y-148389293D01*
X154859455Y-148469720D01*
X154853120Y-148547641D01*
X154831096Y-148629953D01*
X154801561Y-148697749D01*
X154758748Y-148773218D01*
X154700746Y-148858590D01*
X154652698Y-148922107D01*
X154596485Y-148991677D01*
X154531543Y-149067960D01*
X154457305Y-149151617D01*
X154373205Y-149243309D01*
X154278679Y-149343697D01*
X154227329Y-149397358D01*
X154173160Y-149453440D01*
X154116102Y-149512027D01*
X154116102Y-149545000D01*
G37*
D11*
X155197431Y-140883666D02*
X154435527Y-140883666D01*
X154816479Y-141264619D02*
X154816479Y-140502714D01*
D12*
G36*
X135238696Y-139152700D02*
G01*
X135351243Y-139152700D01*
X135351243Y-139349462D01*
X135964000Y-139349462D01*
X135964000Y-139493272D01*
X135351243Y-139493272D01*
X135351243Y-139690034D01*
X135238696Y-139690034D01*
X135238696Y-139152700D01*
G37*
G36*
X135591383Y-138933663D02*
G01*
X135238696Y-139134333D01*
X135238696Y-138989155D01*
X135242213Y-138968639D01*
X135254523Y-138956720D01*
X135506972Y-138824829D01*
X135491145Y-138816036D01*
X135257258Y-138700753D01*
X135243385Y-138688053D01*
X135238696Y-138672226D01*
X135238696Y-138534277D01*
X135584935Y-138736901D01*
X135964000Y-138529783D01*
X135964000Y-138673203D01*
X135956770Y-138696650D01*
X135939966Y-138711109D01*
X135678528Y-138843586D01*
X135683804Y-138846517D01*
X135688884Y-138849057D01*
X135939380Y-138972156D01*
X135956379Y-138986029D01*
X135964000Y-139006350D01*
X135964000Y-139141953D01*
X135591383Y-138933663D01*
G37*
D10*
X151127580Y-138803884D02*
X152127580Y-138803884D01*
X152127580Y-138803884D02*
X152127580Y-139041979D01*
X152127580Y-139041979D02*
X152079961Y-139184836D01*
X152079961Y-139184836D02*
X151984723Y-139280074D01*
X151984723Y-139280074D02*
X151889485Y-139327693D01*
X151889485Y-139327693D02*
X151699009Y-139375312D01*
X151699009Y-139375312D02*
X151556152Y-139375312D01*
X151556152Y-139375312D02*
X151365676Y-139327693D01*
X151365676Y-139327693D02*
X151270438Y-139280074D01*
X151270438Y-139280074D02*
X151175200Y-139184836D01*
X151175200Y-139184836D02*
X151127580Y-139041979D01*
X151127580Y-139041979D02*
X151127580Y-138803884D01*
X151127580Y-139803884D02*
X152127580Y-139803884D01*
X152127580Y-140470550D02*
X152127580Y-140661026D01*
X152127580Y-140661026D02*
X152079961Y-140756264D01*
X152079961Y-140756264D02*
X151984723Y-140851502D01*
X151984723Y-140851502D02*
X151794247Y-140899121D01*
X151794247Y-140899121D02*
X151460914Y-140899121D01*
X151460914Y-140899121D02*
X151270438Y-140851502D01*
X151270438Y-140851502D02*
X151175200Y-140756264D01*
X151175200Y-140756264D02*
X151127580Y-140661026D01*
X151127580Y-140661026D02*
X151127580Y-140470550D01*
X151127580Y-140470550D02*
X151175200Y-140375312D01*
X151175200Y-140375312D02*
X151270438Y-140280074D01*
X151270438Y-140280074D02*
X151460914Y-140232455D01*
X151460914Y-140232455D02*
X151794247Y-140232455D01*
X151794247Y-140232455D02*
X151984723Y-140280074D01*
X151984723Y-140280074D02*
X152079961Y-140375312D01*
X152079961Y-140375312D02*
X152127580Y-140470550D01*
X152032342Y-141280074D02*
X152079961Y-141327693D01*
X152079961Y-141327693D02*
X152127580Y-141422931D01*
X152127580Y-141422931D02*
X152127580Y-141661026D01*
X152127580Y-141661026D02*
X152079961Y-141756264D01*
X152079961Y-141756264D02*
X152032342Y-141803883D01*
X152032342Y-141803883D02*
X151937104Y-141851502D01*
X151937104Y-141851502D02*
X151841866Y-141851502D01*
X151841866Y-141851502D02*
X151699009Y-141803883D01*
X151699009Y-141803883D02*
X151127580Y-141232455D01*
X151127580Y-141232455D02*
X151127580Y-141851502D01*
D12*
G36*
X135574104Y-116848834D02*
G01*
X135589540Y-116861730D01*
X135594034Y-116880097D01*
X135586414Y-116902763D01*
X135569610Y-116930900D01*
X135553284Y-116967273D01*
X135552806Y-116968611D01*
X135545265Y-117007794D01*
X135544990Y-117018046D01*
X135550271Y-117059024D01*
X135569024Y-117092491D01*
X135602799Y-117113374D01*
X135631941Y-117117501D01*
X135669664Y-117106428D01*
X135672778Y-117104019D01*
X135698288Y-117072522D01*
X135700524Y-117068457D01*
X135716791Y-117031638D01*
X135721627Y-117017850D01*
X135734353Y-116980075D01*
X135741557Y-116959818D01*
X135756273Y-116923227D01*
X135766568Y-116901786D01*
X135788743Y-116867293D01*
X135802911Y-116851374D01*
X135834159Y-116826965D01*
X135856644Y-116815617D01*
X135896583Y-116804715D01*
X135933630Y-116802135D01*
X135972637Y-116804811D01*
X136012409Y-116813681D01*
X136026051Y-116818353D01*
X136061704Y-116835423D01*
X136095172Y-116860104D01*
X136101278Y-116865833D01*
X136126603Y-116895881D01*
X136146841Y-116931315D01*
X136151690Y-116942428D01*
X136163708Y-116981420D01*
X136169364Y-117021249D01*
X136170252Y-117046182D01*
X136167733Y-117087215D01*
X136163804Y-117111835D01*
X136154218Y-117149757D01*
X136145437Y-117174752D01*
X136128538Y-117211144D01*
X136116714Y-117231807D01*
X136093148Y-117264337D01*
X136079394Y-117279092D01*
X136010420Y-117236301D01*
X135997328Y-117222819D01*
X135992248Y-117204452D01*
X136002408Y-117177292D01*
X136025074Y-117144466D01*
X136044317Y-117108639D01*
X136047545Y-117101088D01*
X136056713Y-117062627D01*
X136057705Y-117042274D01*
X136052880Y-117003245D01*
X136034050Y-116967216D01*
X136032499Y-116965484D01*
X135998935Y-116943988D01*
X135958054Y-116937934D01*
X135919803Y-116946834D01*
X135912918Y-116951416D01*
X135886631Y-116981400D01*
X135883609Y-116986782D01*
X135867709Y-117023236D01*
X135863288Y-117036999D01*
X135851499Y-117074690D01*
X135844921Y-117094836D01*
X135830331Y-117132883D01*
X135821278Y-117152477D01*
X135800258Y-117185450D01*
X135784348Y-117202889D01*
X135751254Y-117226962D01*
X135727293Y-117238255D01*
X135689240Y-117248220D01*
X135649292Y-117251490D01*
X135643078Y-117251542D01*
X135603560Y-117247732D01*
X135565116Y-117236301D01*
X135529163Y-117217299D01*
X135497510Y-117191165D01*
X135472425Y-117160402D01*
X135452493Y-117123800D01*
X135450224Y-117118478D01*
X135438069Y-117078338D01*
X135432877Y-117036845D01*
X135432443Y-117019804D01*
X135434752Y-116977768D01*
X135441679Y-116937903D01*
X135451983Y-116903545D01*
X135468863Y-116865562D01*
X135490195Y-116831920D01*
X135506889Y-116811905D01*
X135574104Y-116848834D01*
G37*
G36*
X135984237Y-116264214D02*
G01*
X135992834Y-116244480D01*
X136053993Y-116186643D01*
X136086794Y-116213380D01*
X136114366Y-116244009D01*
X136136711Y-116278532D01*
X136140552Y-116285903D01*
X136156214Y-116325326D01*
X136165350Y-116364525D01*
X136169788Y-116407249D01*
X136170252Y-116427369D01*
X136168088Y-116467960D01*
X136160608Y-116510305D01*
X136147786Y-116549750D01*
X136142897Y-116561018D01*
X136123560Y-116596304D01*
X136099987Y-116628155D01*
X136072177Y-116656571D01*
X136066107Y-116661842D01*
X136033539Y-116685862D01*
X135997383Y-116706141D01*
X135957640Y-116722681D01*
X135949261Y-116725540D01*
X135910133Y-116736308D01*
X135869027Y-116743552D01*
X135825943Y-116747271D01*
X135801152Y-116747815D01*
X135761451Y-116746325D01*
X135718801Y-116741088D01*
X135678284Y-116732078D01*
X135652457Y-116723977D01*
X135615818Y-116708928D01*
X135578624Y-116688618D01*
X135545133Y-116664529D01*
X135535807Y-116656566D01*
X135507292Y-116627795D01*
X135483050Y-116595704D01*
X135463084Y-116560292D01*
X135459603Y-116552812D01*
X135445281Y-116513790D01*
X135436263Y-116472441D01*
X135432682Y-116433236D01*
X135432443Y-116419748D01*
X135434561Y-116379673D01*
X135441880Y-116338335D01*
X135454428Y-116300355D01*
X135459212Y-116289616D01*
X135479537Y-116252852D01*
X135503971Y-116220476D01*
X135529750Y-116194849D01*
X135596379Y-116243307D01*
X135607126Y-116254640D01*
X135612011Y-116272421D01*
X135603413Y-116294696D01*
X135584851Y-116321074D01*
X135567174Y-116357424D01*
X135566093Y-116360348D01*
X135558335Y-116399045D01*
X135557496Y-116420725D01*
X135562128Y-116461452D01*
X135573909Y-116493998D01*
X135596914Y-116528022D01*
X135621390Y-116550467D01*
X135656170Y-116571423D01*
X135695165Y-116586189D01*
X135697984Y-116587006D01*
X135736721Y-116595355D01*
X135776142Y-116599285D01*
X135800762Y-116599902D01*
X135842765Y-116597896D01*
X135884176Y-116591196D01*
X135904711Y-116585638D01*
X135941684Y-116571212D01*
X135977343Y-116549963D01*
X135981306Y-116546950D01*
X136010332Y-116518573D01*
X136028982Y-116489504D01*
X136042096Y-116450809D01*
X136045200Y-116418576D01*
X136042999Y-116379074D01*
X136042855Y-116377934D01*
X136034258Y-116344131D01*
X136018431Y-116314822D01*
X135994397Y-116287271D01*
X135987168Y-116276133D01*
X135984237Y-116264214D01*
G37*
G36*
X136051452Y-115974640D02*
G01*
X136051452Y-115721214D01*
X136164000Y-115721214D01*
X136164000Y-116119036D01*
X135438696Y-116119036D01*
X135438696Y-115974640D01*
X136051452Y-115974640D01*
G37*
D10*
X152079961Y-130827693D02*
X152127580Y-130732455D01*
X152127580Y-130732455D02*
X152127580Y-130589598D01*
X152127580Y-130589598D02*
X152079961Y-130446741D01*
X152079961Y-130446741D02*
X151984723Y-130351503D01*
X151984723Y-130351503D02*
X151889485Y-130303884D01*
X151889485Y-130303884D02*
X151699009Y-130256265D01*
X151699009Y-130256265D02*
X151556152Y-130256265D01*
X151556152Y-130256265D02*
X151365676Y-130303884D01*
X151365676Y-130303884D02*
X151270438Y-130351503D01*
X151270438Y-130351503D02*
X151175200Y-130446741D01*
X151175200Y-130446741D02*
X151127580Y-130589598D01*
X151127580Y-130589598D02*
X151127580Y-130684836D01*
X151127580Y-130684836D02*
X151175200Y-130827693D01*
X151175200Y-130827693D02*
X151222819Y-130875312D01*
X151222819Y-130875312D02*
X151556152Y-130875312D01*
X151556152Y-130875312D02*
X151556152Y-130684836D01*
X151127580Y-131303884D02*
X152127580Y-131303884D01*
X152127580Y-131303884D02*
X151127580Y-131875312D01*
X151127580Y-131875312D02*
X152127580Y-131875312D01*
X151127580Y-132351503D02*
X152127580Y-132351503D01*
X152127580Y-132351503D02*
X152127580Y-132589598D01*
X152127580Y-132589598D02*
X152079961Y-132732455D01*
X152079961Y-132732455D02*
X151984723Y-132827693D01*
X151984723Y-132827693D02*
X151889485Y-132875312D01*
X151889485Y-132875312D02*
X151699009Y-132922931D01*
X151699009Y-132922931D02*
X151556152Y-132922931D01*
X151556152Y-132922931D02*
X151365676Y-132875312D01*
X151365676Y-132875312D02*
X151270438Y-132827693D01*
X151270438Y-132827693D02*
X151175200Y-132732455D01*
X151175200Y-132732455D02*
X151127580Y-132589598D01*
X151127580Y-132589598D02*
X151127580Y-132351503D01*
D11*
X155197431Y-139183666D02*
X154435527Y-139183666D01*
D12*
G36*
X135964000Y-136507606D02*
G01*
X135951714Y-136546182D01*
X135935472Y-136560949D01*
X135712527Y-136693817D01*
X135694355Y-136712379D01*
X135688884Y-136741102D01*
X135688884Y-136790146D01*
X135964000Y-136790146D01*
X135964000Y-136935129D01*
X135238696Y-136935129D01*
X135238696Y-136715310D01*
X135344600Y-136715310D01*
X135344600Y-136790146D01*
X135582981Y-136790146D01*
X135582981Y-136716482D01*
X135579317Y-136676259D01*
X135573602Y-136655715D01*
X135554349Y-136621325D01*
X135547419Y-136613705D01*
X135514611Y-136591938D01*
X135507558Y-136589281D01*
X135468842Y-136581653D01*
X135457147Y-136581270D01*
X135417299Y-136586719D01*
X135381578Y-136606552D01*
X135373909Y-136614291D01*
X135353873Y-136649783D01*
X135345630Y-136690981D01*
X135344600Y-136715310D01*
X135238696Y-136715310D01*
X135239932Y-136675858D01*
X135244207Y-136635901D01*
X135252435Y-136596665D01*
X135254327Y-136590062D01*
X135269092Y-136550802D01*
X135289608Y-136515518D01*
X135298096Y-136504675D01*
X135326878Y-136477344D01*
X135362880Y-136456992D01*
X135365311Y-136456022D01*
X135403525Y-136444942D01*
X135445259Y-136440646D01*
X135451090Y-136440586D01*
X135490203Y-136443739D01*
X135519087Y-136450551D01*
X135555280Y-136465390D01*
X135577900Y-136479274D01*
X135608828Y-136506324D01*
X135625186Y-136525778D01*
X135645794Y-136559211D01*
X135658403Y-136588890D01*
X135676575Y-136563098D01*
X135702171Y-136540628D01*
X135964000Y-136377278D01*
X135964000Y-136507606D01*
G37*
G36*
X135591383Y-136157850D02*
G01*
X135238696Y-136358520D01*
X135238696Y-136213342D01*
X135242213Y-136192826D01*
X135254523Y-136180907D01*
X135506972Y-136049016D01*
X135491145Y-136040223D01*
X135257258Y-135924940D01*
X135243385Y-135912240D01*
X135238696Y-135896413D01*
X135238696Y-135758464D01*
X135584935Y-135961088D01*
X135964000Y-135753970D01*
X135964000Y-135897390D01*
X135956770Y-135920837D01*
X135939966Y-135935296D01*
X135678528Y-136067773D01*
X135683804Y-136070704D01*
X135688884Y-136073244D01*
X135939380Y-136196343D01*
X135956379Y-136210216D01*
X135964000Y-136230537D01*
X135964000Y-136366140D01*
X135591383Y-136157850D01*
G37*
G36*
X136164000Y-114129644D02*
G01*
X136155207Y-114160321D01*
X136133323Y-114177320D01*
X135994788Y-114223628D01*
X135994788Y-114492295D01*
X136132736Y-114537822D01*
X136154230Y-114554626D01*
X136164000Y-114585108D01*
X136164000Y-114697850D01*
X135438696Y-114431723D01*
X135438696Y-114358646D01*
X135571173Y-114358646D01*
X135609129Y-114368941D01*
X135620803Y-114372519D01*
X135658344Y-114384849D01*
X135660468Y-114385610D01*
X135888884Y-114459860D01*
X135888884Y-114256454D01*
X135660078Y-114330704D01*
X135622007Y-114344126D01*
X135620608Y-114344577D01*
X135582688Y-114355568D01*
X135571173Y-114358646D01*
X135438696Y-114358646D01*
X135438696Y-114284591D01*
X136164000Y-114018464D01*
X136164000Y-114129644D01*
G37*
G36*
X135432443Y-113713258D02*
G01*
X135434894Y-113673849D01*
X135443015Y-113635231D01*
X135447293Y-113622400D01*
X135464830Y-113585080D01*
X135487740Y-113554012D01*
X135517265Y-113527811D01*
X135547531Y-113510830D01*
X135585393Y-113498938D01*
X135620999Y-113495589D01*
X135661192Y-113498490D01*
X135682157Y-113503014D01*
X135719318Y-113518790D01*
X135728270Y-113524703D01*
X135756470Y-113552267D01*
X135761878Y-113559874D01*
X135780268Y-113595881D01*
X135784348Y-113607159D01*
X135802774Y-113564727D01*
X135826984Y-113531075D01*
X135862539Y-113502909D01*
X135899281Y-113488277D01*
X135941807Y-113482424D01*
X135949457Y-113482302D01*
X135988474Y-113485133D01*
X136026527Y-113494586D01*
X136045200Y-113502428D01*
X136078731Y-113522656D01*
X136109014Y-113550139D01*
X136114369Y-113556357D01*
X136137516Y-113590452D01*
X136153619Y-113626612D01*
X136156379Y-113634905D01*
X136165863Y-113674955D01*
X136170035Y-113716800D01*
X136170252Y-113729085D01*
X136168317Y-113769442D01*
X136161906Y-113808359D01*
X136158528Y-113821116D01*
X136143727Y-113858534D01*
X136122771Y-113891067D01*
X136094037Y-113920515D01*
X136063371Y-113942651D01*
X136027682Y-113961611D01*
X135989802Y-113976827D01*
X135981110Y-113979776D01*
X135956491Y-113921549D01*
X135951046Y-113882166D01*
X135951801Y-113878367D01*
X135973490Y-113850034D01*
X136007828Y-113829810D01*
X136008856Y-113829127D01*
X136037579Y-113804117D01*
X136057119Y-113772072D01*
X136064320Y-113733192D01*
X136064348Y-113730258D01*
X136058963Y-113690764D01*
X136054774Y-113679455D01*
X136032092Y-113646242D01*
X136029177Y-113643503D01*
X135995701Y-113622918D01*
X135993225Y-113622009D01*
X135954610Y-113614787D01*
X135953364Y-113614780D01*
X135913370Y-113618118D01*
X135906665Y-113619469D01*
X135871647Y-113639374D01*
X135870713Y-113640376D01*
X135851259Y-113675019D01*
X135847265Y-113688053D01*
X135840710Y-113727611D01*
X135838872Y-113769713D01*
X135838863Y-113773049D01*
X135751327Y-113773049D01*
X135749324Y-113732114D01*
X135743316Y-113699190D01*
X135727672Y-113662847D01*
X135720845Y-113653859D01*
X135687880Y-113631777D01*
X135686651Y-113631388D01*
X135646837Y-113625384D01*
X135642297Y-113625331D01*
X135602023Y-113630118D01*
X135566191Y-113648803D01*
X135564530Y-113650341D01*
X135543359Y-113684784D01*
X135538347Y-113720293D01*
X135544964Y-113759310D01*
X135561794Y-113787508D01*
X135593427Y-113813579D01*
X135619436Y-113824829D01*
X135652408Y-113846467D01*
X135653434Y-113848276D01*
X135657013Y-113888026D01*
X135656756Y-113889699D01*
X135644642Y-113959455D01*
X135603684Y-113950880D01*
X135564554Y-113936668D01*
X135551829Y-113930341D01*
X135517563Y-113907787D01*
X135489135Y-113880424D01*
X135485786Y-113876413D01*
X135463793Y-113844029D01*
X135447638Y-113807696D01*
X135445926Y-113802554D01*
X135436248Y-113762205D01*
X135432562Y-113722144D01*
X135432443Y-113713258D01*
G37*
G36*
X135839828Y-111417903D02*
G01*
X135881881Y-111423484D01*
X135921924Y-111433084D01*
X135947503Y-111441716D01*
X135983608Y-111457579D01*
X136020244Y-111479157D01*
X136053217Y-111504894D01*
X136062394Y-111513426D01*
X136090356Y-111544239D01*
X136114159Y-111578791D01*
X136133801Y-111617084D01*
X136137230Y-111625191D01*
X136150171Y-111663124D01*
X136158876Y-111703282D01*
X136163346Y-111745666D01*
X136164000Y-111770174D01*
X136164000Y-112036301D01*
X135438696Y-112036301D01*
X135438696Y-111770174D01*
X135544600Y-111770174D01*
X135544600Y-111891123D01*
X136051452Y-111891123D01*
X136051452Y-111770174D01*
X136048161Y-111729814D01*
X136037331Y-111690722D01*
X136034258Y-111683419D01*
X136013009Y-111647906D01*
X135984041Y-111618353D01*
X135950176Y-111596004D01*
X135912990Y-111580104D01*
X135904321Y-111577320D01*
X135864028Y-111568085D01*
X135823229Y-111563739D01*
X135797831Y-111563056D01*
X135758716Y-111564741D01*
X135719364Y-111570425D01*
X135692122Y-111577320D01*
X135653782Y-111592194D01*
X135618680Y-111613443D01*
X135612401Y-111618353D01*
X135583434Y-111647906D01*
X135562185Y-111683419D01*
X135549563Y-111721652D01*
X135544754Y-111761211D01*
X135544600Y-111770174D01*
X135438696Y-111770174D01*
X135440813Y-111726554D01*
X135447166Y-111685159D01*
X135457753Y-111645990D01*
X135465465Y-111625191D01*
X135484275Y-111586151D01*
X135507246Y-111550850D01*
X135534376Y-111519289D01*
X135540301Y-111513426D01*
X135572156Y-111486441D01*
X135607636Y-111463616D01*
X135646741Y-111444950D01*
X135654997Y-111441716D01*
X135693466Y-111429437D01*
X135733912Y-111421177D01*
X135776337Y-111416935D01*
X135800762Y-111416315D01*
X135839828Y-111417903D01*
G37*
G36*
X135986777Y-110848108D02*
G01*
X135994788Y-110867648D01*
X135994788Y-110924898D01*
X136164000Y-110924898D01*
X136164000Y-111040376D01*
X135994788Y-111040376D01*
X135994788Y-111336399D01*
X135986777Y-111359260D01*
X135966260Y-111372156D01*
X135899436Y-111386029D01*
X135438696Y-111051318D01*
X135438696Y-111035882D01*
X135591103Y-111035882D01*
X135888884Y-111246322D01*
X135888884Y-111040376D01*
X135664767Y-111040376D01*
X135630182Y-111039595D01*
X135591103Y-111035882D01*
X135438696Y-111035882D01*
X135438696Y-110924898D01*
X135888884Y-110924898D01*
X135888884Y-110840879D01*
X135967433Y-110840879D01*
X135986777Y-110848108D01*
G37*
D10*
G36*
X150377598Y-151570016D02*
G01*
X150398394Y-151572293D01*
X150416789Y-151576187D01*
X150435579Y-151582631D01*
X150453452Y-151592471D01*
X150457529Y-151595531D01*
X150471946Y-151610334D01*
X150480683Y-151625914D01*
X150486179Y-151644745D01*
X150488004Y-151664307D01*
X150488011Y-151665677D01*
X150485624Y-151685576D01*
X150484396Y-151690004D01*
X150476007Y-151707864D01*
X150473356Y-151711692D01*
X150459224Y-151726342D01*
X150454305Y-151730060D01*
X150437024Y-151739865D01*
X150426461Y-151744128D01*
X150446782Y-151750568D01*
X150466621Y-151761275D01*
X150481500Y-151775232D01*
X150491419Y-151792437D01*
X150496379Y-151812892D01*
X150496999Y-151824337D01*
X150495372Y-151844076D01*
X150490018Y-151863690D01*
X150488499Y-151867422D01*
X150478792Y-151884694D01*
X150465607Y-151899690D01*
X150463586Y-151901518D01*
X150446595Y-151913608D01*
X150427676Y-151922413D01*
X150423237Y-151923988D01*
X150404223Y-151928870D01*
X150383230Y-151931499D01*
X150368136Y-151932000D01*
X150232728Y-151932000D01*
X150232728Y-151879048D01*
X150304926Y-151879048D01*
X150366769Y-151879048D01*
X150386982Y-151877154D01*
X150395589Y-151874651D01*
X150412569Y-151864099D01*
X150413859Y-151862732D01*
X150423335Y-151845440D01*
X150426166Y-151825680D01*
X150426168Y-151825021D01*
X150423335Y-151805661D01*
X150422944Y-151804505D01*
X150412784Y-151788971D01*
X150395127Y-151779418D01*
X150394417Y-151779201D01*
X150374413Y-151775904D01*
X150366475Y-151775684D01*
X150304926Y-151775684D01*
X150304926Y-151879048D01*
X150232728Y-151879048D01*
X150232728Y-151722732D01*
X150304926Y-151722732D01*
X150352505Y-151722732D01*
X150373401Y-151721111D01*
X150392814Y-151715122D01*
X150399497Y-151711204D01*
X150411880Y-151695792D01*
X150415943Y-151676096D01*
X150416008Y-151672809D01*
X150413638Y-151652911D01*
X150403385Y-151635114D01*
X150401646Y-151633632D01*
X150383255Y-151625133D01*
X150362233Y-151622399D01*
X150356608Y-151622300D01*
X150304926Y-151622300D01*
X150304926Y-151722732D01*
X150232728Y-151722732D01*
X150232728Y-151569348D01*
X150356608Y-151569348D01*
X150377598Y-151570016D01*
G37*
G36*
X150680534Y-151661488D02*
G01*
X150699835Y-151666349D01*
X150703433Y-151667729D01*
X150720945Y-151676912D01*
X150735575Y-151689222D01*
X150747796Y-151705375D01*
X150755603Y-151722146D01*
X150760732Y-151742150D01*
X150762435Y-151762633D01*
X150762442Y-151764058D01*
X150762442Y-151932000D01*
X150730593Y-151932000D01*
X150715450Y-151928971D01*
X150707243Y-151916368D01*
X150701186Y-151896926D01*
X150685945Y-151909731D01*
X150681060Y-151913437D01*
X150664347Y-151923872D01*
X150661130Y-151925454D01*
X150642056Y-151932036D01*
X150639148Y-151932683D01*
X150619373Y-151935009D01*
X150613258Y-151935126D01*
X150593443Y-151933438D01*
X150581116Y-151930339D01*
X150562947Y-151921632D01*
X150555910Y-151916270D01*
X150543216Y-151900607D01*
X150539595Y-151893214D01*
X150534641Y-151874231D01*
X150533831Y-151861267D01*
X150534571Y-151856870D01*
X150600655Y-151856870D01*
X150606718Y-151876021D01*
X150609839Y-151878755D01*
X150629212Y-151884882D01*
X150634947Y-151885105D01*
X150654411Y-151883157D01*
X150667285Y-151878950D01*
X150684222Y-151868623D01*
X150694347Y-151859899D01*
X150694347Y-151819452D01*
X150673732Y-151819984D01*
X150653752Y-151821921D01*
X150649113Y-151822676D01*
X150629467Y-151827393D01*
X150620390Y-151830883D01*
X150605150Y-151842509D01*
X150600655Y-151856870D01*
X150534571Y-151856870D01*
X150537155Y-151841520D01*
X150541549Y-151831176D01*
X150553663Y-151815177D01*
X150567829Y-151804016D01*
X150586428Y-151794135D01*
X150606120Y-151786945D01*
X150617264Y-151783793D01*
X150638057Y-151779517D01*
X150659332Y-151777022D01*
X150680281Y-151775882D01*
X150694347Y-151775684D01*
X150694347Y-151761811D01*
X150692234Y-151742318D01*
X150683307Y-151724784D01*
X150665852Y-151714625D01*
X150651751Y-151712963D01*
X150631619Y-151714886D01*
X150626252Y-151716382D01*
X150608569Y-151723709D01*
X150594305Y-151731134D01*
X150579455Y-151734456D01*
X150567243Y-151730939D01*
X150559134Y-151722537D01*
X150546531Y-151701825D01*
X150563363Y-151688543D01*
X150581349Y-151677846D01*
X150598702Y-151670367D01*
X150618924Y-151664471D01*
X150638250Y-151661234D01*
X150658472Y-151660021D01*
X150660544Y-151660011D01*
X150680534Y-151661488D01*
G37*
G36*
X150936633Y-151661461D02*
G01*
X150947871Y-151663723D01*
X150967047Y-151670217D01*
X150975031Y-151674177D01*
X151050844Y-151674177D01*
X151050844Y-151700848D01*
X151047424Y-151710715D01*
X151035994Y-151715991D01*
X151014598Y-151720485D01*
X151019097Y-151740022D01*
X151019483Y-151748133D01*
X151017010Y-151768611D01*
X151011667Y-151782914D01*
X151000251Y-151799660D01*
X150989979Y-151809292D01*
X150972795Y-151819994D01*
X150957250Y-151826096D01*
X150937759Y-151830492D01*
X150918156Y-151831952D01*
X150916803Y-151831958D01*
X150903810Y-151831469D01*
X150891207Y-151829808D01*
X150881046Y-151845147D01*
X150888178Y-151856675D01*
X150906838Y-151861755D01*
X150926879Y-151863151D01*
X150933217Y-151863221D01*
X150953002Y-151863810D01*
X150963600Y-151864588D01*
X150983694Y-151867225D01*
X150993984Y-151869278D01*
X151012833Y-151875650D01*
X151020362Y-151879829D01*
X151035182Y-151893623D01*
X151039023Y-151899466D01*
X151045312Y-151918566D01*
X151046154Y-151931023D01*
X151043465Y-151950937D01*
X151037655Y-151965998D01*
X151026446Y-151983040D01*
X151012937Y-151996382D01*
X150996102Y-152007749D01*
X150977445Y-152016228D01*
X150973077Y-152017778D01*
X150952787Y-152022965D01*
X150932140Y-152025405D01*
X150919246Y-152025789D01*
X150898056Y-152024937D01*
X150877550Y-152022092D01*
X150867564Y-152019732D01*
X150848652Y-152013286D01*
X150831318Y-152003905D01*
X150816313Y-151990311D01*
X150810020Y-151980946D01*
X150803543Y-151961763D01*
X150802986Y-151953981D01*
X150804713Y-151944700D01*
X150863461Y-151944700D01*
X150866294Y-151957205D01*
X150875771Y-151967073D01*
X150893356Y-151973423D01*
X150912828Y-151975621D01*
X150920614Y-151975768D01*
X150940611Y-151974632D01*
X150949239Y-151973130D01*
X150967736Y-151966185D01*
X150968192Y-151965900D01*
X150978646Y-151954861D01*
X150981870Y-151940988D01*
X150977766Y-151928775D01*
X150966531Y-151921351D01*
X150949727Y-151917443D01*
X150929893Y-151916174D01*
X150929211Y-151916173D01*
X150909560Y-151916173D01*
X150906643Y-151916173D01*
X150886597Y-151914228D01*
X150883782Y-151913632D01*
X150869030Y-151927017D01*
X150863461Y-151944700D01*
X150804713Y-151944700D01*
X150806672Y-151934168D01*
X150813440Y-151922914D01*
X150828643Y-151909588D01*
X150842260Y-151902495D01*
X150827486Y-151888985D01*
X150826727Y-151887840D01*
X150821008Y-151868397D01*
X150820865Y-151864002D01*
X150822916Y-151851888D01*
X150829364Y-151839285D01*
X150840111Y-151827366D01*
X150855254Y-151817205D01*
X150838507Y-151805380D01*
X150825453Y-151790421D01*
X150823991Y-151788189D01*
X150815857Y-151769871D01*
X150812758Y-151750295D01*
X150812725Y-151748817D01*
X150875868Y-151748817D01*
X150879761Y-151768120D01*
X150885833Y-151777247D01*
X150903711Y-151786896D01*
X150916803Y-151788189D01*
X150937020Y-151784789D01*
X150947871Y-151777443D01*
X150956951Y-151759253D01*
X150957934Y-151748817D01*
X150954003Y-151729324D01*
X150947871Y-151720485D01*
X150929995Y-151711267D01*
X150916803Y-151710032D01*
X150896714Y-151713339D01*
X150885833Y-151720485D01*
X150876841Y-151738326D01*
X150875868Y-151748817D01*
X150812725Y-151748817D01*
X150812658Y-151745789D01*
X150814892Y-151725896D01*
X150820572Y-151710129D01*
X150831439Y-151693760D01*
X150842456Y-151683165D01*
X150859701Y-151672274D01*
X150875380Y-151666068D01*
X150895310Y-151661525D01*
X150915414Y-151660017D01*
X150916803Y-151660011D01*
X150936633Y-151661461D01*
G37*
G36*
X151154598Y-151663137D02*
G01*
X151154598Y-151833521D01*
X151156960Y-151853001D01*
X151165345Y-151869473D01*
X151181861Y-151880078D01*
X151197487Y-151882174D01*
X151217288Y-151879229D01*
X151227090Y-151875335D01*
X151244026Y-151864879D01*
X151253565Y-151856773D01*
X151253565Y-151663137D01*
X151323321Y-151663137D01*
X151323321Y-151932000D01*
X151280432Y-151932000D01*
X151269295Y-151928873D01*
X151263433Y-151919397D01*
X151258450Y-151899759D01*
X151242544Y-151913218D01*
X151225048Y-151924100D01*
X151222595Y-151925356D01*
X151204029Y-151932035D01*
X151184311Y-151934887D01*
X151176092Y-151935126D01*
X151156347Y-151933473D01*
X151136720Y-151927603D01*
X151119327Y-151917175D01*
X151108192Y-151906501D01*
X151096985Y-151889726D01*
X151090704Y-151874456D01*
X151086308Y-151854868D01*
X151084848Y-151834818D01*
X151084842Y-151833423D01*
X151084842Y-151663137D01*
X151154598Y-151663137D01*
G37*
G36*
X151524340Y-151661365D02*
G01*
X151544664Y-151665853D01*
X151551542Y-151668217D01*
X151569427Y-151676715D01*
X151585975Y-151688932D01*
X151588960Y-151691762D01*
X151602112Y-151707709D01*
X151611675Y-151725421D01*
X151613384Y-151729571D01*
X151619077Y-151748892D01*
X151621756Y-151768616D01*
X151622177Y-151780960D01*
X151621297Y-151793758D01*
X151618757Y-151801574D01*
X151613775Y-151805775D01*
X151605959Y-151806947D01*
X151442805Y-151806947D01*
X151445879Y-151827181D01*
X151449937Y-151840653D01*
X151459669Y-151858532D01*
X151464494Y-151864100D01*
X151480658Y-151875587D01*
X151485889Y-151877778D01*
X151505138Y-151881826D01*
X151513440Y-151882174D01*
X151533049Y-151880307D01*
X151539623Y-151878559D01*
X151558101Y-151871255D01*
X151559162Y-151870743D01*
X151574110Y-151862928D01*
X151587006Y-151859215D01*
X151599706Y-151865468D01*
X151619734Y-151891162D01*
X151605497Y-151904926D01*
X151594724Y-151912558D01*
X151577161Y-151921725D01*
X151566294Y-151925942D01*
X151546849Y-151931176D01*
X151536496Y-151932976D01*
X151516229Y-151934916D01*
X151507383Y-151935126D01*
X151486669Y-151933848D01*
X151467028Y-151930015D01*
X151454528Y-151926040D01*
X151435716Y-151917111D01*
X151418967Y-151905248D01*
X151411933Y-151898782D01*
X151398521Y-151882599D01*
X151388403Y-151865142D01*
X151383503Y-151853842D01*
X151377662Y-151834445D01*
X151374457Y-151815089D01*
X151373254Y-151794092D01*
X151373244Y-151791902D01*
X151374522Y-151771972D01*
X151376344Y-151763179D01*
X151444173Y-151763179D01*
X151559553Y-151763179D01*
X151556329Y-151744128D01*
X151546461Y-151728106D01*
X151529560Y-151717066D01*
X151509701Y-151713063D01*
X151505429Y-151712963D01*
X151485661Y-151715139D01*
X151467580Y-151723060D01*
X151463614Y-151726152D01*
X151451231Y-151741954D01*
X151444458Y-151761693D01*
X151444173Y-151763179D01*
X151376344Y-151763179D01*
X151378790Y-151751373D01*
X151382330Y-151740709D01*
X151391002Y-151722197D01*
X151402254Y-151705717D01*
X151408318Y-151698796D01*
X151423243Y-151685495D01*
X151440555Y-151674645D01*
X151449351Y-151670464D01*
X151468401Y-151664094D01*
X151489211Y-151660664D01*
X151504061Y-151660011D01*
X151524340Y-151661365D01*
G37*
G36*
X151751919Y-151935126D02*
G01*
X151731244Y-151933160D01*
X151712226Y-151926458D01*
X151697110Y-151915000D01*
X151685501Y-151897790D01*
X151679566Y-151878297D01*
X151678060Y-151859704D01*
X151678060Y-151713158D01*
X151652756Y-151713158D01*
X151643279Y-151709445D01*
X151639274Y-151698503D01*
X151639274Y-151670464D01*
X151681577Y-151662453D01*
X151696133Y-151590060D01*
X151711570Y-151578727D01*
X151747815Y-151578727D01*
X151747815Y-151663137D01*
X151852840Y-151663137D01*
X151867592Y-151590060D01*
X151883028Y-151578727D01*
X151919274Y-151578727D01*
X151919274Y-151663137D01*
X151987955Y-151663137D01*
X151987955Y-151713158D01*
X151919274Y-151713158D01*
X151919274Y-151856773D01*
X151924745Y-151875531D01*
X151939888Y-151882174D01*
X151948876Y-151881002D01*
X151955324Y-151878071D01*
X151960111Y-151875237D01*
X151964605Y-151873967D01*
X151973691Y-151880025D01*
X151994891Y-151912460D01*
X151978322Y-151922853D01*
X151961870Y-151929459D01*
X151941941Y-151933881D01*
X151923670Y-151935126D01*
X151902841Y-151933160D01*
X151883719Y-151926458D01*
X151868569Y-151915000D01*
X151856960Y-151897790D01*
X151851025Y-151878297D01*
X151849518Y-151859704D01*
X151849518Y-151713158D01*
X151747815Y-151713158D01*
X151747815Y-151856773D01*
X151753286Y-151875531D01*
X151768429Y-151882174D01*
X151777418Y-151881002D01*
X151783670Y-151878071D01*
X151788360Y-151875237D01*
X151792854Y-151873967D01*
X151797836Y-151875433D01*
X151801939Y-151880025D01*
X151823140Y-151912460D01*
X151806570Y-151922853D01*
X151790118Y-151929459D01*
X151770190Y-151933881D01*
X151751919Y-151935126D01*
G37*
G36*
X152162888Y-151661365D02*
G01*
X152183212Y-151665853D01*
X152190090Y-151668217D01*
X152207975Y-151676715D01*
X152224523Y-151688932D01*
X152227508Y-151691762D01*
X152240660Y-151707709D01*
X152250224Y-151725421D01*
X152251933Y-151729571D01*
X152257625Y-151748892D01*
X152260305Y-151768616D01*
X152260725Y-151780960D01*
X152259846Y-151793758D01*
X152257306Y-151801574D01*
X152252323Y-151805775D01*
X152244508Y-151806947D01*
X152081353Y-151806947D01*
X152084427Y-151827181D01*
X152088485Y-151840653D01*
X152098217Y-151858532D01*
X152103042Y-151864100D01*
X152119206Y-151875587D01*
X152124438Y-151877778D01*
X152143687Y-151881826D01*
X152151988Y-151882174D01*
X152171597Y-151880307D01*
X152178171Y-151878559D01*
X152196650Y-151871255D01*
X152197711Y-151870743D01*
X152212658Y-151862928D01*
X152225554Y-151859215D01*
X152238255Y-151865468D01*
X152258283Y-151891162D01*
X152244046Y-151904926D01*
X152233272Y-151912558D01*
X152215710Y-151921725D01*
X152204842Y-151925942D01*
X152185398Y-151931176D01*
X152175045Y-151932976D01*
X152154777Y-151934916D01*
X152145931Y-151935126D01*
X152125218Y-151933848D01*
X152105576Y-151930015D01*
X152093077Y-151926040D01*
X152074264Y-151917111D01*
X152057515Y-151905248D01*
X152050481Y-151898782D01*
X152037070Y-151882599D01*
X152026951Y-151865142D01*
X152022051Y-151853842D01*
X152016211Y-151834445D01*
X152013005Y-151815089D01*
X152011803Y-151794092D01*
X152011793Y-151791902D01*
X152013071Y-151771972D01*
X152014892Y-151763179D01*
X152082721Y-151763179D01*
X152198101Y-151763179D01*
X152194877Y-151744128D01*
X152185010Y-151728106D01*
X152168108Y-151717066D01*
X152148250Y-151713063D01*
X152143977Y-151712963D01*
X152124209Y-151715139D01*
X152106129Y-151723060D01*
X152102163Y-151726152D01*
X152089780Y-151741954D01*
X152083006Y-151761693D01*
X152082721Y-151763179D01*
X152014892Y-151763179D01*
X152017338Y-151751373D01*
X152020879Y-151740709D01*
X152029551Y-151722197D01*
X152040803Y-151705717D01*
X152046866Y-151698796D01*
X152061792Y-151685495D01*
X152079104Y-151674645D01*
X152087899Y-151670464D01*
X152106950Y-151664094D01*
X152127759Y-151660664D01*
X152142609Y-151660011D01*
X152162888Y-151661365D01*
G37*
G36*
X152378157Y-151875726D02*
G01*
X152504870Y-151875726D01*
X152504870Y-151932000D01*
X152305959Y-151932000D01*
X152305959Y-151569348D01*
X152378157Y-151569348D01*
X152378157Y-151875726D01*
G37*
G36*
X152679808Y-151661488D02*
G01*
X152699110Y-151666349D01*
X152702707Y-151667729D01*
X152720219Y-151676912D01*
X152734849Y-151689222D01*
X152747071Y-151705375D01*
X152754877Y-151722146D01*
X152760006Y-151742150D01*
X152761709Y-151762633D01*
X152761716Y-151764058D01*
X152761716Y-151932000D01*
X152729867Y-151932000D01*
X152714724Y-151928971D01*
X152706517Y-151916368D01*
X152700460Y-151896926D01*
X152685219Y-151909731D01*
X152680334Y-151913437D01*
X152663621Y-151923872D01*
X152660404Y-151925454D01*
X152641330Y-151932036D01*
X152638422Y-151932683D01*
X152618647Y-151935009D01*
X152612533Y-151935126D01*
X152592718Y-151933438D01*
X152580390Y-151930339D01*
X152562222Y-151921632D01*
X152555184Y-151916270D01*
X152542490Y-151900607D01*
X152538869Y-151893214D01*
X152533915Y-151874231D01*
X152533105Y-151861267D01*
X152533845Y-151856870D01*
X152599930Y-151856870D01*
X152605992Y-151876021D01*
X152609113Y-151878755D01*
X152628487Y-151884882D01*
X152634221Y-151885105D01*
X152653686Y-151883157D01*
X152666559Y-151878950D01*
X152683496Y-151868623D01*
X152693621Y-151859899D01*
X152693621Y-151819452D01*
X152673006Y-151819984D01*
X152653027Y-151821921D01*
X152648387Y-151822676D01*
X152628741Y-151827393D01*
X152619665Y-151830883D01*
X152604424Y-151842509D01*
X152599930Y-151856870D01*
X152533845Y-151856870D01*
X152536429Y-151841520D01*
X152540823Y-151831176D01*
X152552937Y-151815177D01*
X152567103Y-151804016D01*
X152585702Y-151794135D01*
X152605394Y-151786945D01*
X152616538Y-151783793D01*
X152637331Y-151779517D01*
X152658606Y-151777022D01*
X152679555Y-151775882D01*
X152693621Y-151775684D01*
X152693621Y-151761811D01*
X152691508Y-151742318D01*
X152682581Y-151724784D01*
X152665126Y-151714625D01*
X152651025Y-151712963D01*
X152630894Y-151714886D01*
X152625526Y-151716382D01*
X152607843Y-151723709D01*
X152593579Y-151731134D01*
X152578729Y-151734456D01*
X152566517Y-151730939D01*
X152558408Y-151722537D01*
X152545806Y-151701825D01*
X152562637Y-151688543D01*
X152580623Y-151677846D01*
X152597976Y-151670367D01*
X152618198Y-151664471D01*
X152637524Y-151661234D01*
X152657746Y-151660021D01*
X152659818Y-151660011D01*
X152679808Y-151661488D01*
G37*
G36*
X152893217Y-151695866D02*
G01*
X152908940Y-151682078D01*
X152926252Y-151671124D01*
X152928681Y-151669878D01*
X152948072Y-151662796D01*
X152968108Y-151660097D01*
X152972644Y-151660011D01*
X152992178Y-151661768D01*
X153011114Y-151667553D01*
X153014654Y-151669194D01*
X153032020Y-151680283D01*
X153045771Y-151694316D01*
X153046601Y-151695377D01*
X153057635Y-151712902D01*
X153065532Y-151732126D01*
X153066922Y-151736605D01*
X153071540Y-151757195D01*
X153073713Y-151777948D01*
X153074054Y-151790827D01*
X153073243Y-151810578D01*
X153070478Y-151830960D01*
X153065750Y-151849934D01*
X153058619Y-151868793D01*
X153048693Y-151886804D01*
X153042400Y-151895461D01*
X153028076Y-151910399D01*
X153011433Y-151922047D01*
X153006252Y-151924770D01*
X152986957Y-151931849D01*
X152967398Y-151934873D01*
X152959455Y-151935126D01*
X152939345Y-151933256D01*
X152936789Y-151932683D01*
X152918227Y-151925845D01*
X152902693Y-151915098D01*
X152889113Y-151900932D01*
X152886085Y-151918713D01*
X152880614Y-151929069D01*
X152869867Y-151932000D01*
X152823461Y-151932000D01*
X152823461Y-151744128D01*
X152893217Y-151744128D01*
X152893217Y-151859704D01*
X152908375Y-151873301D01*
X152915785Y-151877191D01*
X152934836Y-151881863D01*
X152941577Y-151882174D01*
X152961550Y-151879192D01*
X152966587Y-151877289D01*
X152982587Y-151865387D01*
X152985638Y-151861560D01*
X152994764Y-151843786D01*
X152997752Y-151833814D01*
X153001107Y-151813767D01*
X153002051Y-151792781D01*
X153001147Y-151772973D01*
X152998436Y-151756340D01*
X152991715Y-151737539D01*
X152988178Y-151731720D01*
X152973232Y-151718442D01*
X152971374Y-151717554D01*
X152951617Y-151713034D01*
X152948415Y-151712963D01*
X152928265Y-151716092D01*
X152917934Y-151720974D01*
X152902234Y-151733774D01*
X152893217Y-151744128D01*
X152823461Y-151744128D01*
X152823461Y-151538085D01*
X152893217Y-151538085D01*
X152893217Y-151695866D01*
G37*
G36*
X153279511Y-151720681D02*
G01*
X153273551Y-151727031D01*
X153265736Y-151728789D01*
X153255478Y-151726347D01*
X153243656Y-151720876D01*
X153228904Y-151715405D01*
X153209951Y-151712963D01*
X153190052Y-151716748D01*
X153184354Y-151720290D01*
X153175401Y-151738224D01*
X153175366Y-151739732D01*
X153180544Y-151753409D01*
X153194417Y-151762886D01*
X153213281Y-151770194D01*
X153213956Y-151770408D01*
X153232743Y-151776596D01*
X153236329Y-151777833D01*
X153254611Y-151785310D01*
X153258702Y-151787310D01*
X153275497Y-151798186D01*
X153278241Y-151800597D01*
X153290410Y-151816455D01*
X153292114Y-151819941D01*
X153297060Y-151839560D01*
X153297390Y-151847198D01*
X153295432Y-151866640D01*
X153290453Y-151882467D01*
X153280024Y-151900025D01*
X153270230Y-151910213D01*
X153253273Y-151921716D01*
X153237306Y-151928482D01*
X153217544Y-151933251D01*
X153196659Y-151935067D01*
X153191877Y-151935126D01*
X153172203Y-151933697D01*
X153165694Y-151932586D01*
X153146200Y-151927365D01*
X153140976Y-151925454D01*
X153122734Y-151916866D01*
X153118799Y-151914609D01*
X153103017Y-151902941D01*
X153101116Y-151901127D01*
X153117334Y-151875140D01*
X153124466Y-151867812D01*
X153135212Y-151865077D01*
X153146643Y-151868203D01*
X153158269Y-151875140D01*
X153173412Y-151881979D01*
X153192959Y-151885077D01*
X153195394Y-151885105D01*
X153212295Y-151882760D01*
X153223531Y-151876214D01*
X153229881Y-151866836D01*
X153231933Y-151855893D01*
X153223406Y-151838130D01*
X153222847Y-151837722D01*
X153205081Y-151828246D01*
X153200083Y-151826389D01*
X153181120Y-151820022D01*
X153170481Y-151816619D01*
X153151583Y-151808819D01*
X153140976Y-151802746D01*
X153125673Y-151789580D01*
X153118213Y-151779592D01*
X153110866Y-151760499D01*
X153109127Y-151741588D01*
X153111570Y-151721674D01*
X153115380Y-151710422D01*
X153125722Y-151693394D01*
X153134235Y-151684533D01*
X153151221Y-151672810D01*
X153165303Y-151666654D01*
X153185404Y-151661672D01*
X153205517Y-151660037D01*
X153208583Y-151660011D01*
X153228312Y-151661494D01*
X153234668Y-151662648D01*
X153253559Y-151667989D01*
X153258506Y-151669976D01*
X153275910Y-151679280D01*
X153278827Y-151681309D01*
X153293787Y-151694232D01*
X153295143Y-151695670D01*
X153279511Y-151720681D01*
G37*
D12*
G36*
X135897761Y-142031751D02*
G01*
X135919636Y-142066773D01*
X135937389Y-142103207D01*
X135951021Y-142141054D01*
X135953253Y-142148792D01*
X135962217Y-142188371D01*
X135967862Y-142229438D01*
X135970186Y-142271994D01*
X135970252Y-142280683D01*
X135968542Y-142323890D01*
X135963413Y-142364996D01*
X135954865Y-142404002D01*
X135942897Y-142440907D01*
X135925684Y-142479621D01*
X135905040Y-142515089D01*
X135880965Y-142547311D01*
X135866107Y-142563810D01*
X135836957Y-142590657D01*
X135804901Y-142613825D01*
X135769940Y-142633315D01*
X135749261Y-142642554D01*
X135710133Y-142655966D01*
X135669027Y-142664989D01*
X135625943Y-142669622D01*
X135601152Y-142670300D01*
X135561451Y-142668651D01*
X135518801Y-142662855D01*
X135478284Y-142652886D01*
X135452457Y-142643921D01*
X135415818Y-142627291D01*
X135382177Y-142607074D01*
X135348315Y-142580406D01*
X135335807Y-142568499D01*
X135309951Y-142539195D01*
X135287557Y-142506675D01*
X135268625Y-142470941D01*
X135259603Y-142449699D01*
X135246474Y-142409289D01*
X135237642Y-142366313D01*
X135233398Y-142325958D01*
X135232443Y-142294361D01*
X135234075Y-142254067D01*
X135239411Y-142213925D01*
X135239868Y-142211514D01*
X135249149Y-142172159D01*
X135259994Y-142140000D01*
X135277168Y-142102853D01*
X135291062Y-142079818D01*
X135315058Y-142047853D01*
X135330922Y-142030579D01*
X135395988Y-142071807D01*
X135414942Y-142096817D01*
X135407517Y-142130621D01*
X135387977Y-142164815D01*
X135372150Y-142201353D01*
X135362129Y-142239945D01*
X135361404Y-142244340D01*
X135357740Y-142283871D01*
X135357496Y-142298855D01*
X135360430Y-142339058D01*
X135370154Y-142378531D01*
X135375277Y-142391667D01*
X135395123Y-142427657D01*
X135421324Y-142458323D01*
X135425297Y-142462009D01*
X135458614Y-142486384D01*
X135495287Y-142503866D01*
X135503846Y-142506950D01*
X135542990Y-142517071D01*
X135582099Y-142521834D01*
X135606233Y-142522581D01*
X135646843Y-142520573D01*
X135687565Y-142513800D01*
X135715653Y-142505582D01*
X135752257Y-142489322D01*
X135786195Y-142466690D01*
X135796937Y-142457320D01*
X135822802Y-142427667D01*
X135842608Y-142393078D01*
X135847154Y-142382288D01*
X135858908Y-142341950D01*
X135863929Y-142301144D01*
X135864348Y-142284591D01*
X135861662Y-142244120D01*
X135856728Y-142219525D01*
X135843945Y-142181906D01*
X135835235Y-142162470D01*
X135701390Y-142162470D01*
X135701390Y-142246685D01*
X135693965Y-142267787D01*
X135675402Y-142275799D01*
X135595486Y-142275799D01*
X135595486Y-142031751D01*
X135897761Y-142031751D01*
G37*
G36*
X135238696Y-141843586D02*
G01*
X135239478Y-141827564D01*
X135242799Y-141815840D01*
X135249638Y-141805875D01*
X135261166Y-141795129D01*
X135732262Y-141435799D01*
X135692832Y-141438484D01*
X135663874Y-141439120D01*
X135238696Y-141439120D01*
X135238696Y-141312114D01*
X135964000Y-141312114D01*
X135964000Y-141386364D01*
X135958333Y-141414696D01*
X135939380Y-141436775D01*
X135471997Y-141795129D01*
X135512343Y-141792274D01*
X135534718Y-141791807D01*
X135964000Y-141791807D01*
X135964000Y-141919399D01*
X135238696Y-141919399D01*
X135238696Y-141843586D01*
G37*
G36*
X135639828Y-140566514D02*
G01*
X135681881Y-140572095D01*
X135721924Y-140581695D01*
X135747503Y-140590327D01*
X135783608Y-140606190D01*
X135820244Y-140627768D01*
X135853217Y-140653505D01*
X135862394Y-140662037D01*
X135890356Y-140692850D01*
X135914159Y-140727403D01*
X135933801Y-140765695D01*
X135937230Y-140773803D01*
X135950171Y-140811735D01*
X135958876Y-140851893D01*
X135963346Y-140894277D01*
X135964000Y-140918785D01*
X135964000Y-141184912D01*
X135238696Y-141184912D01*
X135238696Y-140918785D01*
X135344600Y-140918785D01*
X135344600Y-141039734D01*
X135851452Y-141039734D01*
X135851452Y-140918785D01*
X135848161Y-140878426D01*
X135837331Y-140839333D01*
X135834258Y-140832030D01*
X135813009Y-140796517D01*
X135784041Y-140766964D01*
X135750176Y-140744616D01*
X135712990Y-140728715D01*
X135704321Y-140725931D01*
X135664028Y-140716696D01*
X135623229Y-140712350D01*
X135597831Y-140711667D01*
X135558716Y-140713353D01*
X135519364Y-140719036D01*
X135492122Y-140725931D01*
X135453782Y-140740806D01*
X135418680Y-140762055D01*
X135412401Y-140766964D01*
X135383434Y-140796517D01*
X135362185Y-140832030D01*
X135349563Y-140870264D01*
X135344754Y-140909822D01*
X135344600Y-140918785D01*
X135238696Y-140918785D01*
X135240813Y-140875165D01*
X135247166Y-140833770D01*
X135257753Y-140794602D01*
X135265465Y-140773803D01*
X135284275Y-140734762D01*
X135307246Y-140699461D01*
X135334376Y-140667901D01*
X135340301Y-140662037D01*
X135372156Y-140635052D01*
X135407636Y-140612227D01*
X135446741Y-140593561D01*
X135454997Y-140590327D01*
X135493466Y-140578049D01*
X135533912Y-140569788D01*
X135576337Y-140565546D01*
X135600762Y-140564926D01*
X135639828Y-140566514D01*
G37*
G36*
X135238696Y-135499413D02*
G01*
X135238696Y-135383545D01*
X135247489Y-135353063D01*
X135270350Y-135335087D01*
X135698654Y-135197725D01*
X135736149Y-135184902D01*
X135747503Y-135181311D01*
X135786251Y-135170019D01*
X135802018Y-135165875D01*
X135763456Y-135156900D01*
X135746721Y-135152393D01*
X135709169Y-135140486D01*
X135697677Y-135136175D01*
X135270350Y-134999399D01*
X135248270Y-134982400D01*
X135238696Y-134951528D01*
X135238696Y-134835073D01*
X135964000Y-135102177D01*
X135964000Y-135232309D01*
X135238696Y-135499413D01*
G37*
G36*
X135784237Y-134349323D02*
G01*
X135792834Y-134329588D01*
X135853993Y-134271751D01*
X135886794Y-134298488D01*
X135914366Y-134329118D01*
X135936711Y-134363640D01*
X135940552Y-134371011D01*
X135956214Y-134410434D01*
X135965350Y-134449634D01*
X135969788Y-134492357D01*
X135970252Y-134512477D01*
X135968088Y-134553068D01*
X135960608Y-134595413D01*
X135947786Y-134634859D01*
X135942897Y-134646127D01*
X135923560Y-134681412D01*
X135899987Y-134713263D01*
X135872177Y-134741679D01*
X135866107Y-134746950D01*
X135833539Y-134770970D01*
X135797383Y-134791250D01*
X135757640Y-134807789D01*
X135749261Y-134810648D01*
X135710133Y-134821416D01*
X135669027Y-134828660D01*
X135625943Y-134832380D01*
X135601152Y-134832923D01*
X135561451Y-134831434D01*
X135518801Y-134826196D01*
X135478284Y-134817187D01*
X135452457Y-134809085D01*
X135415818Y-134794036D01*
X135378624Y-134773726D01*
X135345133Y-134749638D01*
X135335807Y-134741674D01*
X135307292Y-134712903D01*
X135283050Y-134680812D01*
X135263084Y-134645401D01*
X135259603Y-134637920D01*
X135245281Y-134598898D01*
X135236263Y-134557549D01*
X135232682Y-134518344D01*
X135232443Y-134504856D01*
X135234561Y-134464781D01*
X135241880Y-134423443D01*
X135254428Y-134385463D01*
X135259212Y-134374724D01*
X135279537Y-134337961D01*
X135303971Y-134305584D01*
X135329750Y-134279958D01*
X135396379Y-134328415D01*
X135407126Y-134339748D01*
X135412011Y-134357529D01*
X135403413Y-134379804D01*
X135384851Y-134406182D01*
X135367174Y-134442533D01*
X135366093Y-134445457D01*
X135358335Y-134484153D01*
X135357496Y-134505833D01*
X135362128Y-134546560D01*
X135373909Y-134579106D01*
X135396914Y-134613130D01*
X135421390Y-134635575D01*
X135456170Y-134656531D01*
X135495165Y-134671297D01*
X135497984Y-134672114D01*
X135536721Y-134680464D01*
X135576142Y-134684393D01*
X135600762Y-134685010D01*
X135642765Y-134683004D01*
X135684176Y-134676304D01*
X135704711Y-134670746D01*
X135741684Y-134656321D01*
X135777343Y-134635071D01*
X135781306Y-134632058D01*
X135810332Y-134603681D01*
X135828982Y-134574612D01*
X135842096Y-134535917D01*
X135845200Y-134503684D01*
X135842999Y-134464182D01*
X135842855Y-134463042D01*
X135834258Y-134429239D01*
X135818431Y-134399930D01*
X135794397Y-134372379D01*
X135787168Y-134361242D01*
X135784237Y-134349323D01*
G37*
G36*
X135784237Y-133756887D02*
G01*
X135792834Y-133737152D01*
X135853993Y-133679316D01*
X135886794Y-133706053D01*
X135914366Y-133736682D01*
X135936711Y-133771204D01*
X135940552Y-133778576D01*
X135956214Y-133817998D01*
X135965350Y-133857198D01*
X135969788Y-133899922D01*
X135970252Y-133920041D01*
X135968088Y-133960632D01*
X135960608Y-134002978D01*
X135947786Y-134042423D01*
X135942897Y-134053691D01*
X135923560Y-134088977D01*
X135899987Y-134120827D01*
X135872177Y-134149243D01*
X135866107Y-134154515D01*
X135833539Y-134178534D01*
X135797383Y-134198814D01*
X135757640Y-134215354D01*
X135749261Y-134218213D01*
X135710133Y-134228981D01*
X135669027Y-134236224D01*
X135625943Y-134239944D01*
X135601152Y-134240488D01*
X135561451Y-134238998D01*
X135518801Y-134233760D01*
X135478284Y-134224751D01*
X135452457Y-134216650D01*
X135415818Y-134201601D01*
X135378624Y-134181291D01*
X135345133Y-134157202D01*
X135335807Y-134149239D01*
X135307292Y-134120468D01*
X135283050Y-134088377D01*
X135263084Y-134052965D01*
X135259603Y-134045484D01*
X135245281Y-134006463D01*
X135236263Y-133965113D01*
X135232682Y-133925908D01*
X135232443Y-133912421D01*
X135234561Y-133872345D01*
X135241880Y-133831007D01*
X135254428Y-133793027D01*
X135259212Y-133782288D01*
X135279537Y-133745525D01*
X135303971Y-133713149D01*
X135329750Y-133687522D01*
X135396379Y-133735980D01*
X135407126Y-133747313D01*
X135412011Y-133765094D01*
X135403413Y-133787369D01*
X135384851Y-133813747D01*
X135367174Y-133850097D01*
X135366093Y-133853021D01*
X135358335Y-133891718D01*
X135357496Y-133913398D01*
X135362128Y-133954125D01*
X135373909Y-133986671D01*
X135396914Y-134020695D01*
X135421390Y-134043140D01*
X135456170Y-134064096D01*
X135495165Y-134078862D01*
X135497984Y-134079678D01*
X135536721Y-134088028D01*
X135576142Y-134091957D01*
X135600762Y-134092575D01*
X135642765Y-134090569D01*
X135684176Y-134083869D01*
X135704711Y-134078311D01*
X135741684Y-134063885D01*
X135777343Y-134042636D01*
X135781306Y-134039623D01*
X135810332Y-134011245D01*
X135828982Y-133982177D01*
X135842096Y-133943482D01*
X135845200Y-133911249D01*
X135842999Y-133871747D01*
X135842855Y-133870607D01*
X135834258Y-133836803D01*
X135818431Y-133807494D01*
X135794397Y-133779944D01*
X135787168Y-133768806D01*
X135784237Y-133756887D01*
G37*
G36*
X135426274Y-133462819D02*
G01*
X135964000Y-133462819D01*
X135964000Y-133602330D01*
X135426274Y-133602330D01*
X135426274Y-133462819D01*
G37*
G36*
X135263902Y-133445624D02*
G01*
X135297900Y-133452854D01*
X135325451Y-133472002D01*
X135344404Y-133500725D01*
X135351243Y-133535310D01*
X135344404Y-133568527D01*
X135325451Y-133596078D01*
X135297900Y-133614640D01*
X135263902Y-133621479D01*
X135229708Y-133614640D01*
X135201766Y-133596078D01*
X135183009Y-133568527D01*
X135176170Y-133535310D01*
X135183009Y-133500725D01*
X135201766Y-133472002D01*
X135229708Y-133452854D01*
X135263902Y-133445624D01*
G37*
G36*
X135964000Y-133327801D02*
G01*
X135426274Y-133327801D01*
X135426274Y-133242023D01*
X135432332Y-133219944D01*
X135451090Y-133208025D01*
X135491145Y-133198646D01*
X135465543Y-133169025D01*
X135462227Y-133164647D01*
X135441708Y-133130527D01*
X135439952Y-133126741D01*
X135426681Y-133089234D01*
X135425297Y-133083558D01*
X135420207Y-133043442D01*
X135420022Y-133033342D01*
X135423371Y-132993895D01*
X135435263Y-132954794D01*
X135455960Y-132919849D01*
X135477272Y-132897543D01*
X135510788Y-132875190D01*
X135541557Y-132862763D01*
X135580734Y-132853824D01*
X135620478Y-132850856D01*
X135623232Y-132850844D01*
X135964000Y-132850844D01*
X135964000Y-132990355D01*
X135622646Y-132990355D01*
X135581857Y-132995729D01*
X135551327Y-133011849D01*
X135530118Y-133044881D01*
X135525926Y-133076133D01*
X135531984Y-133116169D01*
X135539994Y-133135729D01*
X135562006Y-133169266D01*
X135579464Y-133188290D01*
X135964000Y-133188290D01*
X135964000Y-133327801D01*
G37*
G36*
X135438696Y-106552700D02*
G01*
X135551243Y-106552700D01*
X135551243Y-106749462D01*
X136164000Y-106749462D01*
X136164000Y-106893272D01*
X135551243Y-106893272D01*
X135551243Y-107090034D01*
X135438696Y-107090034D01*
X135438696Y-106552700D01*
G37*
G36*
X135791383Y-106333663D02*
G01*
X135438696Y-106534333D01*
X135438696Y-106389155D01*
X135442213Y-106368639D01*
X135454523Y-106356720D01*
X135706972Y-106224829D01*
X135691145Y-106216036D01*
X135457258Y-106100753D01*
X135443385Y-106088053D01*
X135438696Y-106072226D01*
X135438696Y-105934277D01*
X135784935Y-106136901D01*
X136164000Y-105929783D01*
X136164000Y-106073203D01*
X136156770Y-106096650D01*
X136139966Y-106111109D01*
X135878528Y-106243586D01*
X135883804Y-106246517D01*
X135888884Y-106249057D01*
X136139380Y-106372156D01*
X136156379Y-106386029D01*
X136164000Y-106406350D01*
X136164000Y-106541953D01*
X135791383Y-106333663D01*
G37*
D14*
G36*
X150195523Y-153157903D02*
G01*
X150212607Y-153159669D01*
X150233623Y-153165140D01*
X150252322Y-153173922D01*
X150268369Y-153185737D01*
X150281431Y-153200309D01*
X150291173Y-153217361D01*
X150297264Y-153236617D01*
X150299368Y-153257801D01*
X150299146Y-153263981D01*
X150295902Y-153281592D01*
X150289038Y-153297599D01*
X150278869Y-153311730D01*
X150265709Y-153323715D01*
X150249872Y-153333284D01*
X150261724Y-153336878D01*
X150279525Y-153345333D01*
X150294621Y-153356785D01*
X150306707Y-153371132D01*
X150315477Y-153388277D01*
X150320628Y-153408117D01*
X150321936Y-153425864D01*
X150321346Y-153438210D01*
X150318320Y-153455779D01*
X150312857Y-153472086D01*
X150302042Y-153491625D01*
X150287518Y-153508346D01*
X150269639Y-153521922D01*
X150254243Y-153529842D01*
X150237311Y-153535671D01*
X150218991Y-153539269D01*
X150199436Y-153540500D01*
X150073004Y-153540500D01*
X150071724Y-153540473D01*
X150055832Y-153534163D01*
X150048982Y-153517504D01*
X150048982Y-153497415D01*
X150095059Y-153497415D01*
X150199436Y-153497415D01*
X150207819Y-153497112D01*
X150227235Y-153493752D01*
X150244100Y-153486790D01*
X150257976Y-153476373D01*
X150268428Y-153462649D01*
X150275019Y-153445764D01*
X150277313Y-153425864D01*
X150275019Y-153407260D01*
X150266632Y-153388722D01*
X150252812Y-153374512D01*
X150237688Y-153366125D01*
X150219751Y-153361005D01*
X150199436Y-153359271D01*
X150095059Y-153359271D01*
X150095059Y-153497415D01*
X150048982Y-153497415D01*
X150048982Y-153316101D01*
X150095059Y-153316101D01*
X150189605Y-153316101D01*
X150193156Y-153316043D01*
X150212961Y-153313238D01*
X150229725Y-153306287D01*
X150244560Y-153293040D01*
X150252473Y-153277370D01*
X150255258Y-153257801D01*
X150254940Y-153250865D01*
X150250373Y-153232798D01*
X150238886Y-153216873D01*
X150224516Y-153207598D01*
X150206665Y-153202322D01*
X150189605Y-153200953D01*
X150095059Y-153200953D01*
X150095059Y-153316101D01*
X150048982Y-153316101D01*
X150048982Y-153180864D01*
X150055511Y-153164355D01*
X150071978Y-153157783D01*
X150189605Y-153157783D01*
X150195523Y-153157903D01*
G37*
G36*
X150528560Y-153271217D02*
G01*
X150548910Y-153274692D01*
X150567951Y-153280938D01*
X150585486Y-153289755D01*
X150601319Y-153300945D01*
X150615255Y-153314310D01*
X150627096Y-153329651D01*
X150636647Y-153346769D01*
X150643713Y-153365466D01*
X150648095Y-153385543D01*
X150649600Y-153406801D01*
X150649600Y-153518530D01*
X150643295Y-153534548D01*
X150627117Y-153541012D01*
X150611025Y-153534548D01*
X150604549Y-153518530D01*
X150604549Y-153495449D01*
X150600176Y-153500823D01*
X150588056Y-153512993D01*
X150574364Y-153523248D01*
X150559257Y-153531456D01*
X150542891Y-153537484D01*
X150525424Y-153541198D01*
X150507011Y-153542466D01*
X150493544Y-153541792D01*
X150474258Y-153538345D01*
X150456230Y-153532147D01*
X150439643Y-153523392D01*
X150424678Y-153512274D01*
X150411516Y-153498987D01*
X150400340Y-153483724D01*
X150391331Y-153466680D01*
X150384671Y-153448049D01*
X150380542Y-153428025D01*
X150379125Y-153406801D01*
X150422723Y-153406801D01*
X150424529Y-153426661D01*
X150429733Y-153444874D01*
X150438014Y-153461131D01*
X150449052Y-153475125D01*
X150462527Y-153486546D01*
X150478117Y-153495086D01*
X150495503Y-153500436D01*
X150514363Y-153502288D01*
X150533346Y-153500436D01*
X150550789Y-153495086D01*
X150566387Y-153486546D01*
X150579834Y-153475125D01*
X150590824Y-153461131D01*
X150599053Y-153444874D01*
X150604214Y-153426661D01*
X150606003Y-153406801D01*
X150604214Y-153386915D01*
X150599053Y-153368635D01*
X150590824Y-153352281D01*
X150579834Y-153338178D01*
X150566387Y-153326647D01*
X150550789Y-153318011D01*
X150533346Y-153312593D01*
X150514363Y-153310716D01*
X150495503Y-153312593D01*
X150478117Y-153318011D01*
X150462527Y-153326647D01*
X150449052Y-153338178D01*
X150438014Y-153352281D01*
X150429733Y-153368635D01*
X150424529Y-153386915D01*
X150422723Y-153406801D01*
X150379125Y-153406801D01*
X150379799Y-153392507D01*
X150383244Y-153372015D01*
X150389437Y-153352836D01*
X150398181Y-153335169D01*
X150409281Y-153319214D01*
X150422540Y-153305168D01*
X150437763Y-153293231D01*
X150454752Y-153283601D01*
X150473313Y-153276476D01*
X150493248Y-153272056D01*
X150514363Y-153270538D01*
X150528560Y-153271217D01*
G37*
G36*
X150824331Y-153540500D02*
G01*
X150833564Y-153540500D01*
X150850066Y-153535678D01*
X150858998Y-153520876D01*
X150859124Y-153518530D01*
X150853524Y-153502277D01*
X150839462Y-153495962D01*
X150824331Y-153495962D01*
X150807019Y-153492203D01*
X150793354Y-153481729D01*
X150784384Y-153465740D01*
X150781214Y-153448172D01*
X150781161Y-153445440D01*
X150781161Y-153320974D01*
X150828178Y-153320974D01*
X150844377Y-153314138D01*
X150848780Y-153301911D01*
X150840905Y-153285934D01*
X150828178Y-153282335D01*
X150781161Y-153282335D01*
X150781161Y-153209758D01*
X150774846Y-153193505D01*
X150758593Y-153187190D01*
X150742073Y-153194272D01*
X150736538Y-153209758D01*
X150736538Y-153282335D01*
X150710123Y-153282335D01*
X150693953Y-153289049D01*
X150689521Y-153301911D01*
X150697433Y-153317258D01*
X150710123Y-153320974D01*
X150736538Y-153320974D01*
X150736538Y-153445440D01*
X150738238Y-153465159D01*
X150743151Y-153483266D01*
X150750995Y-153499448D01*
X150761489Y-153513390D01*
X150774351Y-153524780D01*
X150789300Y-153533304D01*
X150806054Y-153538648D01*
X150824331Y-153540500D01*
G37*
G36*
X151041121Y-153542466D02*
G01*
X151060402Y-153541290D01*
X151078487Y-153537782D01*
X151095313Y-153531973D01*
X151110821Y-153523893D01*
X151124949Y-153513572D01*
X151129342Y-153509639D01*
X151134481Y-153493108D01*
X151126435Y-153481771D01*
X151109483Y-153477969D01*
X151098482Y-153483737D01*
X151083170Y-153493684D01*
X151065589Y-153499777D01*
X151047606Y-153502134D01*
X151041121Y-153502288D01*
X151021596Y-153500436D01*
X151003946Y-153495086D01*
X150988396Y-153486546D01*
X150975170Y-153475125D01*
X150964492Y-153461131D01*
X150956587Y-153444874D01*
X150951680Y-153426661D01*
X150949994Y-153406801D01*
X150951613Y-153386204D01*
X150956321Y-153367589D01*
X150963901Y-153351192D01*
X150974133Y-153337248D01*
X150990317Y-153323627D01*
X151005713Y-153316065D01*
X151023048Y-153311720D01*
X151037189Y-153310716D01*
X151056004Y-153312391D01*
X151072879Y-153317512D01*
X151088087Y-153326223D01*
X151101901Y-153338669D01*
X151117277Y-153346854D01*
X151129342Y-153343542D01*
X151139383Y-153329380D01*
X151134727Y-153315588D01*
X151122283Y-153302505D01*
X151108823Y-153291692D01*
X151091312Y-153281683D01*
X151072294Y-153274874D01*
X151055280Y-153271618D01*
X151037189Y-153270538D01*
X151016303Y-153272009D01*
X150996740Y-153276308D01*
X150978659Y-153283265D01*
X150962221Y-153292713D01*
X150947585Y-153304480D01*
X150934910Y-153318398D01*
X150924358Y-153334296D01*
X150916086Y-153352006D01*
X150910256Y-153371359D01*
X150907026Y-153392183D01*
X150906397Y-153406801D01*
X150907854Y-153428025D01*
X150912112Y-153448049D01*
X150919003Y-153466680D01*
X150928355Y-153483724D01*
X150940001Y-153498987D01*
X150953770Y-153512274D01*
X150969493Y-153523392D01*
X150987000Y-153532147D01*
X151006122Y-153538345D01*
X151026690Y-153541792D01*
X151041121Y-153542466D01*
G37*
G36*
X151236027Y-153541012D02*
G01*
X151252472Y-153534708D01*
X151258595Y-153518530D01*
X151258595Y-153377394D01*
X151260981Y-153360444D01*
X151269635Y-153342533D01*
X151283750Y-153327982D01*
X151299030Y-153318964D01*
X151316950Y-153313235D01*
X151336985Y-153311229D01*
X151357872Y-153313181D01*
X151376504Y-153319106D01*
X151392356Y-153329108D01*
X151404901Y-153343290D01*
X151413613Y-153361756D01*
X151417468Y-153379684D01*
X151418367Y-153395004D01*
X151418367Y-153518530D01*
X151424895Y-153534548D01*
X151441362Y-153541012D01*
X151457423Y-153534548D01*
X151463930Y-153518530D01*
X151463930Y-153395004D01*
X151462602Y-153373235D01*
X151458732Y-153353441D01*
X151452492Y-153335658D01*
X151444054Y-153319922D01*
X151433591Y-153306270D01*
X151416786Y-153291372D01*
X151397093Y-153280329D01*
X151380673Y-153274629D01*
X151363030Y-153271182D01*
X151344337Y-153270025D01*
X151325306Y-153271390D01*
X151307463Y-153275353D01*
X151290965Y-153281720D01*
X151275971Y-153290293D01*
X151260593Y-153302822D01*
X151258595Y-153304817D01*
X151258595Y-153180351D01*
X151252472Y-153164098D01*
X151236027Y-153157783D01*
X151219774Y-153164098D01*
X151213459Y-153180351D01*
X151213459Y-153518530D01*
X151219774Y-153534708D01*
X151236027Y-153541012D01*
G37*
G36*
X151717564Y-153540500D02*
G01*
X151734073Y-153533971D01*
X151740645Y-153517504D01*
X151740645Y-153239165D01*
X151962650Y-153532720D01*
X151978437Y-153540436D01*
X151980259Y-153540500D01*
X151996512Y-153533971D01*
X152002827Y-153517504D01*
X152002827Y-153180864D01*
X151996512Y-153164355D01*
X151980259Y-153157783D01*
X151963793Y-153164355D01*
X151957264Y-153180864D01*
X151957264Y-153459203D01*
X151735259Y-153166161D01*
X151720004Y-153157943D01*
X151717564Y-153157783D01*
X151701386Y-153164355D01*
X151695081Y-153180864D01*
X151695081Y-153517504D01*
X151701386Y-153533971D01*
X151717564Y-153540500D01*
G37*
G36*
X152209872Y-153542979D02*
G01*
X152228902Y-153541614D01*
X152246746Y-153537650D01*
X152263244Y-153531284D01*
X152278237Y-153522711D01*
X152293616Y-153510181D01*
X152295614Y-153508186D01*
X152295614Y-153518017D01*
X152301736Y-153534227D01*
X152318182Y-153540500D01*
X152334434Y-153534227D01*
X152340750Y-153518017D01*
X152340750Y-153294559D01*
X152334434Y-153278306D01*
X152318182Y-153271991D01*
X152301736Y-153278306D01*
X152295614Y-153294559D01*
X152295614Y-153435695D01*
X152292203Y-153455800D01*
X152282576Y-153473197D01*
X152267639Y-153487125D01*
X152251789Y-153495533D01*
X152233404Y-153500563D01*
X152217224Y-153501860D01*
X152196337Y-153499903D01*
X152177704Y-153493963D01*
X152161852Y-153483943D01*
X152149308Y-153469741D01*
X152140596Y-153451258D01*
X152136741Y-153433322D01*
X152135842Y-153418000D01*
X152135842Y-153294559D01*
X152129313Y-153278499D01*
X152112847Y-153271991D01*
X152096786Y-153278499D01*
X152090279Y-153294559D01*
X152090279Y-153418000D01*
X152091607Y-153439769D01*
X152095477Y-153459563D01*
X152101717Y-153477346D01*
X152110154Y-153493082D01*
X152120618Y-153506734D01*
X152137423Y-153521632D01*
X152157116Y-153532675D01*
X152173536Y-153538375D01*
X152191178Y-153541822D01*
X152209872Y-153542979D01*
G37*
G36*
X152451282Y-153541012D02*
G01*
X152467727Y-153534708D01*
X152473850Y-153518530D01*
X152473850Y-153377394D01*
X152475723Y-153360130D01*
X152482561Y-153342116D01*
X152493805Y-153327653D01*
X152508820Y-153317381D01*
X152526971Y-153311939D01*
X152537023Y-153311229D01*
X152555212Y-153313682D01*
X152570734Y-153320939D01*
X152583015Y-153332843D01*
X152591480Y-153349240D01*
X152595204Y-153366223D01*
X152595837Y-153377822D01*
X152595837Y-153518530D01*
X152602152Y-153534708D01*
X152618405Y-153541012D01*
X152634658Y-153534708D01*
X152640973Y-153518530D01*
X152640973Y-153378334D01*
X152642613Y-153360695D01*
X152649199Y-153342381D01*
X152660235Y-153327750D01*
X152675097Y-153317402D01*
X152693165Y-153311940D01*
X152703206Y-153311229D01*
X152721546Y-153313682D01*
X152737078Y-153320939D01*
X152750960Y-153335268D01*
X152758635Y-153352399D01*
X152761657Y-153369974D01*
X152761934Y-153377822D01*
X152761934Y-153518530D01*
X152768249Y-153534708D01*
X152784502Y-153541012D01*
X152800755Y-153534708D01*
X152807070Y-153518530D01*
X152807070Y-153377822D01*
X152806043Y-153359538D01*
X152801612Y-153337519D01*
X152793923Y-153318335D01*
X152783240Y-153302133D01*
X152769826Y-153289064D01*
X152753945Y-153279276D01*
X152735861Y-153272919D01*
X152715836Y-153270142D01*
X152710558Y-153270025D01*
X152690534Y-153271601D01*
X152671977Y-153276210D01*
X152655126Y-153283677D01*
X152640221Y-153293827D01*
X152627503Y-153306483D01*
X152623790Y-153311229D01*
X152613216Y-153297586D01*
X152598060Y-153284967D01*
X152580209Y-153276075D01*
X152563036Y-153271557D01*
X152544375Y-153270025D01*
X152526334Y-153271535D01*
X152509591Y-153275924D01*
X152492294Y-153284187D01*
X152477232Y-153295608D01*
X152473850Y-153298919D01*
X152473850Y-153295500D01*
X152467727Y-153279321D01*
X152451282Y-153273017D01*
X152435029Y-153279321D01*
X152428714Y-153295500D01*
X152428714Y-153518530D01*
X152435029Y-153534708D01*
X152451282Y-153541012D01*
G37*
G36*
X152890162Y-153337644D02*
G01*
X152906923Y-153332931D01*
X152918991Y-153319427D01*
X152922048Y-153305843D01*
X152917451Y-153289131D01*
X152904023Y-153276673D01*
X152890162Y-153273444D01*
X152872587Y-153278917D01*
X152860926Y-153293135D01*
X152858361Y-153305843D01*
X152862954Y-153322354D01*
X152876354Y-153334516D01*
X152890162Y-153337644D01*
G37*
G36*
X152894094Y-153548364D02*
G01*
X152910628Y-153543652D01*
X152922836Y-153530147D01*
X152925980Y-153516564D01*
X152921364Y-153499992D01*
X152907918Y-153487808D01*
X152894094Y-153484678D01*
X152876454Y-153489988D01*
X152864774Y-153503936D01*
X152862208Y-153516564D01*
X152866824Y-153533074D01*
X152880270Y-153545236D01*
X152894094Y-153548364D01*
G37*
G36*
X153222955Y-153545458D02*
G01*
X153241456Y-153544191D01*
X153258825Y-153540492D01*
X153274911Y-153534509D01*
X153294103Y-153523240D01*
X153310394Y-153508535D01*
X153323425Y-153490749D01*
X153332842Y-153470238D01*
X153337320Y-153453280D01*
X153339414Y-153435140D01*
X153339556Y-153428856D01*
X153339556Y-153180864D01*
X153333188Y-153164355D01*
X153316561Y-153157783D01*
X153300052Y-153164355D01*
X153293480Y-153180864D01*
X153293480Y-153428856D01*
X153291367Y-153448119D01*
X153285319Y-153465217D01*
X153275768Y-153479699D01*
X153260298Y-153492991D01*
X153244573Y-153500134D01*
X153226737Y-153503222D01*
X153222955Y-153503314D01*
X153204743Y-153501091D01*
X153188547Y-153494722D01*
X153172390Y-153482241D01*
X153162173Y-153468337D01*
X153155374Y-153451726D01*
X153152431Y-153432860D01*
X153152344Y-153428856D01*
X153145815Y-153412347D01*
X153129349Y-153405775D01*
X153112839Y-153412347D01*
X153106268Y-153428856D01*
X153107536Y-153447357D01*
X153111242Y-153464726D01*
X153117233Y-153480812D01*
X153128516Y-153500005D01*
X153143237Y-153516295D01*
X153161039Y-153529326D01*
X153181563Y-153538744D01*
X153198527Y-153543221D01*
X153216671Y-153545315D01*
X153222955Y-153545458D01*
G37*
G36*
X153460090Y-153540500D02*
G01*
X153665938Y-153540500D01*
X153682405Y-153534035D01*
X153688934Y-153518017D01*
X153682405Y-153501700D01*
X153665938Y-153494936D01*
X153483171Y-153494936D01*
X153483171Y-153180864D01*
X153476600Y-153164547D01*
X153460090Y-153157783D01*
X153444265Y-153164547D01*
X153437608Y-153180864D01*
X153437608Y-153517504D01*
X153444072Y-153533971D01*
X153460090Y-153540500D01*
G37*
G36*
X153887430Y-153545458D02*
G01*
X153908078Y-153544476D01*
X153928138Y-153541487D01*
X153947536Y-153536424D01*
X153966198Y-153529220D01*
X153984049Y-153519810D01*
X154001014Y-153508126D01*
X154007536Y-153502801D01*
X154014375Y-153486644D01*
X154007518Y-153469817D01*
X153990359Y-153464901D01*
X153980095Y-153469461D01*
X153964335Y-153480569D01*
X153947890Y-153489515D01*
X153930706Y-153496226D01*
X153912728Y-153500633D01*
X153893903Y-153502664D01*
X153887430Y-153502801D01*
X153865401Y-153501046D01*
X153844393Y-153495948D01*
X153824657Y-153487757D01*
X153806442Y-153476722D01*
X153789999Y-153463093D01*
X153775577Y-153447121D01*
X153763428Y-153429054D01*
X153753801Y-153409142D01*
X153746946Y-153387636D01*
X153743114Y-153364785D01*
X153742362Y-153348928D01*
X153744040Y-153325654D01*
X153748907Y-153303428D01*
X153756714Y-153282520D01*
X153767210Y-153263201D01*
X153780144Y-153245742D01*
X153795268Y-153230416D01*
X153812329Y-153217493D01*
X153831079Y-153207244D01*
X153851267Y-153199942D01*
X153872643Y-153195857D01*
X153887430Y-153195055D01*
X153905759Y-153195877D01*
X153925013Y-153199013D01*
X153941931Y-153204455D01*
X153957207Y-153212162D01*
X153971533Y-153222093D01*
X153978557Y-153227881D01*
X153995433Y-153233146D01*
X154010593Y-153224065D01*
X154012922Y-153216597D01*
X154011171Y-153199315D01*
X154007536Y-153195568D01*
X153993953Y-153185144D01*
X153976897Y-153174301D01*
X153959418Y-153165792D01*
X153941156Y-153159515D01*
X153921752Y-153155368D01*
X153900845Y-153153250D01*
X153887430Y-153152911D01*
X153867691Y-153153917D01*
X153848603Y-153156873D01*
X153830252Y-153161682D01*
X153812724Y-153168247D01*
X153796104Y-153176472D01*
X153780479Y-153186261D01*
X153765934Y-153197516D01*
X153752556Y-153210143D01*
X153740430Y-153224043D01*
X153729641Y-153239122D01*
X153720277Y-153255282D01*
X153712423Y-153272427D01*
X153706165Y-153290460D01*
X153701588Y-153309286D01*
X153698779Y-153328807D01*
X153697824Y-153348928D01*
X153698791Y-153369223D01*
X153701630Y-153388886D01*
X153706253Y-153407823D01*
X153712567Y-153425942D01*
X153720484Y-153443147D01*
X153729912Y-153459347D01*
X153740761Y-153474447D01*
X153752940Y-153488354D01*
X153766360Y-153500975D01*
X153780930Y-153512216D01*
X153796559Y-153521984D01*
X153813157Y-153530185D01*
X153830633Y-153536727D01*
X153848898Y-153541515D01*
X153867860Y-153544456D01*
X153887430Y-153545458D01*
G37*
G36*
X154184832Y-153545458D02*
G01*
X154203333Y-153544191D01*
X154220702Y-153540492D01*
X154236788Y-153534509D01*
X154255981Y-153523240D01*
X154272271Y-153508535D01*
X154285302Y-153490749D01*
X154294719Y-153470238D01*
X154299197Y-153453280D01*
X154301291Y-153435140D01*
X154301434Y-153428856D01*
X154301434Y-153180864D01*
X154295065Y-153164355D01*
X154278438Y-153157783D01*
X154261929Y-153164355D01*
X154255357Y-153180864D01*
X154255357Y-153428856D01*
X154253244Y-153448119D01*
X154247196Y-153465217D01*
X154237646Y-153479699D01*
X154222175Y-153492991D01*
X154206450Y-153500134D01*
X154188614Y-153503222D01*
X154184832Y-153503314D01*
X154166620Y-153501091D01*
X154150424Y-153494722D01*
X154134268Y-153482241D01*
X154124050Y-153468337D01*
X154117251Y-153451726D01*
X154114308Y-153432860D01*
X154114221Y-153428856D01*
X154107692Y-153412347D01*
X154091226Y-153405775D01*
X154074717Y-153412347D01*
X154068145Y-153428856D01*
X154069414Y-153447357D01*
X154073119Y-153464726D01*
X154079110Y-153480812D01*
X154090393Y-153500005D01*
X154105115Y-153516295D01*
X154122916Y-153529326D01*
X154143440Y-153538744D01*
X154160404Y-153543221D01*
X154178548Y-153545315D01*
X154184832Y-153545458D01*
G37*
G36*
X154421967Y-153540500D02*
G01*
X154627815Y-153540500D01*
X154644282Y-153534035D01*
X154650811Y-153518017D01*
X154644282Y-153501700D01*
X154627815Y-153494936D01*
X154445048Y-153494936D01*
X154445048Y-153180864D01*
X154438477Y-153164547D01*
X154421967Y-153157783D01*
X154406142Y-153164547D01*
X154399485Y-153180864D01*
X154399485Y-153517504D01*
X154405950Y-153533971D01*
X154421967Y-153540500D01*
G37*
G36*
X154849307Y-153545458D02*
G01*
X154869955Y-153544476D01*
X154890015Y-153541487D01*
X154909413Y-153536424D01*
X154928075Y-153529220D01*
X154945926Y-153519810D01*
X154962892Y-153508126D01*
X154969413Y-153502801D01*
X154976252Y-153486644D01*
X154969395Y-153469817D01*
X154952237Y-153464901D01*
X154941973Y-153469461D01*
X154926213Y-153480569D01*
X154909767Y-153489515D01*
X154892583Y-153496226D01*
X154874605Y-153500633D01*
X154855780Y-153502664D01*
X154849307Y-153502801D01*
X154827278Y-153501046D01*
X154806271Y-153495948D01*
X154786534Y-153487757D01*
X154768319Y-153476722D01*
X154751876Y-153463093D01*
X154737454Y-153447121D01*
X154725305Y-153429054D01*
X154715678Y-153409142D01*
X154708823Y-153387636D01*
X154704991Y-153364785D01*
X154704239Y-153348928D01*
X154705917Y-153325654D01*
X154710784Y-153303428D01*
X154718591Y-153282520D01*
X154729087Y-153263201D01*
X154742022Y-153245742D01*
X154757145Y-153230416D01*
X154774206Y-153217493D01*
X154792956Y-153207244D01*
X154813144Y-153199942D01*
X154834520Y-153195857D01*
X154849307Y-153195055D01*
X154867636Y-153195877D01*
X154886890Y-153199013D01*
X154903808Y-153204455D01*
X154919084Y-153212162D01*
X154933410Y-153222093D01*
X154940434Y-153227881D01*
X154957310Y-153233146D01*
X154972470Y-153224065D01*
X154974799Y-153216597D01*
X154973048Y-153199315D01*
X154969413Y-153195568D01*
X154955831Y-153185144D01*
X154938774Y-153174301D01*
X154921295Y-153165792D01*
X154903033Y-153159515D01*
X154883629Y-153155368D01*
X154862722Y-153153250D01*
X154849307Y-153152911D01*
X154829568Y-153153917D01*
X154810480Y-153156873D01*
X154792129Y-153161682D01*
X154774601Y-153168247D01*
X154757981Y-153176472D01*
X154742356Y-153186261D01*
X154727811Y-153197516D01*
X154714433Y-153210143D01*
X154702307Y-153224043D01*
X154691519Y-153239122D01*
X154682155Y-153255282D01*
X154674300Y-153272427D01*
X154668042Y-153290460D01*
X154663466Y-153309286D01*
X154660657Y-153328807D01*
X154659701Y-153348928D01*
X154660668Y-153369223D01*
X154663508Y-153388886D01*
X154668130Y-153407823D01*
X154674445Y-153425942D01*
X154682361Y-153443147D01*
X154691789Y-153459347D01*
X154702638Y-153474447D01*
X154714818Y-153488354D01*
X154728237Y-153500975D01*
X154742807Y-153512216D01*
X154758436Y-153521984D01*
X154775034Y-153530185D01*
X154792510Y-153536727D01*
X154810775Y-153541515D01*
X154829737Y-153544456D01*
X154849307Y-153545458D01*
G37*
G36*
X155146709Y-153545458D02*
G01*
X155165211Y-153544191D01*
X155182579Y-153540492D01*
X155198665Y-153534509D01*
X155217858Y-153523240D01*
X155234148Y-153508535D01*
X155247179Y-153490749D01*
X155256597Y-153470238D01*
X155261074Y-153453280D01*
X155263168Y-153435140D01*
X155263311Y-153428856D01*
X155263311Y-153180864D01*
X155256942Y-153164355D01*
X155240315Y-153157783D01*
X155223806Y-153164355D01*
X155217234Y-153180864D01*
X155217234Y-153428856D01*
X155215122Y-153448119D01*
X155209073Y-153465217D01*
X155199523Y-153479699D01*
X155184052Y-153492991D01*
X155168328Y-153500134D01*
X155150492Y-153503222D01*
X155146709Y-153503314D01*
X155128497Y-153501091D01*
X155112301Y-153494722D01*
X155096145Y-153482241D01*
X155085927Y-153468337D01*
X155079128Y-153451726D01*
X155076186Y-153432860D01*
X155076099Y-153428856D01*
X155069570Y-153412347D01*
X155053103Y-153405775D01*
X155036594Y-153412347D01*
X155030022Y-153428856D01*
X155031291Y-153447357D01*
X155034996Y-153464726D01*
X155040987Y-153480812D01*
X155052271Y-153500005D01*
X155066992Y-153516295D01*
X155084793Y-153529326D01*
X155105317Y-153538744D01*
X155122281Y-153543221D01*
X155140425Y-153545315D01*
X155146709Y-153545458D01*
G37*
G36*
X155383845Y-153540500D02*
G01*
X155589692Y-153540500D01*
X155606159Y-153534035D01*
X155612688Y-153518017D01*
X155606159Y-153501700D01*
X155589692Y-153494936D01*
X155406926Y-153494936D01*
X155406926Y-153180864D01*
X155400354Y-153164547D01*
X155383845Y-153157783D01*
X155368019Y-153164547D01*
X155361362Y-153180864D01*
X155361362Y-153517504D01*
X155367827Y-153533971D01*
X155383845Y-153540500D01*
G37*
G36*
X155811184Y-153545458D02*
G01*
X155831832Y-153544476D01*
X155851892Y-153541487D01*
X155871290Y-153536424D01*
X155889952Y-153529220D01*
X155907803Y-153519810D01*
X155924769Y-153508126D01*
X155931290Y-153502801D01*
X155938129Y-153486644D01*
X155931273Y-153469817D01*
X155914114Y-153464901D01*
X155903850Y-153469461D01*
X155888090Y-153480569D01*
X155871645Y-153489515D01*
X155854460Y-153496226D01*
X155836482Y-153500633D01*
X155817657Y-153502664D01*
X155811184Y-153502801D01*
X155789155Y-153501046D01*
X155768148Y-153495948D01*
X155748411Y-153487757D01*
X155730196Y-153476722D01*
X155713753Y-153463093D01*
X155699332Y-153447121D01*
X155687182Y-153429054D01*
X155677555Y-153409142D01*
X155670700Y-153387636D01*
X155666868Y-153364785D01*
X155666116Y-153348928D01*
X155667794Y-153325654D01*
X155672662Y-153303428D01*
X155680468Y-153282520D01*
X155690964Y-153263201D01*
X155703899Y-153245742D01*
X155719022Y-153230416D01*
X155736084Y-153217493D01*
X155754833Y-153207244D01*
X155775021Y-153199942D01*
X155796397Y-153195857D01*
X155811184Y-153195055D01*
X155829513Y-153195877D01*
X155848767Y-153199013D01*
X155865686Y-153204455D01*
X155880961Y-153212162D01*
X155895287Y-153222093D01*
X155902311Y-153227881D01*
X155919188Y-153233146D01*
X155934347Y-153224065D01*
X155936676Y-153216597D01*
X155934925Y-153199315D01*
X155931290Y-153195568D01*
X155917708Y-153185144D01*
X155900651Y-153174301D01*
X155883172Y-153165792D01*
X155864911Y-153159515D01*
X155845506Y-153155368D01*
X155824599Y-153153250D01*
X155811184Y-153152911D01*
X155791445Y-153153917D01*
X155772358Y-153156873D01*
X155754007Y-153161682D01*
X155736478Y-153168247D01*
X155719859Y-153176472D01*
X155704233Y-153186261D01*
X155689689Y-153197516D01*
X155676310Y-153210143D01*
X155664184Y-153224043D01*
X155653396Y-153239122D01*
X155644032Y-153255282D01*
X155636178Y-153272427D01*
X155629919Y-153290460D01*
X155625343Y-153309286D01*
X155622534Y-153328807D01*
X155621578Y-153348928D01*
X155622545Y-153369223D01*
X155625385Y-153388886D01*
X155630007Y-153407823D01*
X155636322Y-153425942D01*
X155644238Y-153443147D01*
X155653666Y-153459347D01*
X155664515Y-153474447D01*
X155676695Y-153488354D01*
X155690115Y-153500975D01*
X155704684Y-153512216D01*
X155720313Y-153521984D01*
X155736911Y-153530185D01*
X155754387Y-153536727D01*
X155772652Y-153541515D01*
X155791614Y-153544456D01*
X155811184Y-153545458D01*
G37*
G36*
X156108586Y-153545458D02*
G01*
X156127088Y-153544191D01*
X156144456Y-153540492D01*
X156160542Y-153534509D01*
X156179735Y-153523240D01*
X156196025Y-153508535D01*
X156209057Y-153490749D01*
X156218474Y-153470238D01*
X156222951Y-153453280D01*
X156225045Y-153435140D01*
X156225188Y-153428856D01*
X156225188Y-153180864D01*
X156218819Y-153164355D01*
X156202192Y-153157783D01*
X156185683Y-153164355D01*
X156179112Y-153180864D01*
X156179112Y-153428856D01*
X156176999Y-153448119D01*
X156170950Y-153465217D01*
X156161400Y-153479699D01*
X156145929Y-153492991D01*
X156130205Y-153500134D01*
X156112369Y-153503222D01*
X156108586Y-153503314D01*
X156090374Y-153501091D01*
X156074179Y-153494722D01*
X156058022Y-153482241D01*
X156047804Y-153468337D01*
X156041005Y-153451726D01*
X156038063Y-153432860D01*
X156037976Y-153428856D01*
X156031447Y-153412347D01*
X156014980Y-153405775D01*
X155998471Y-153412347D01*
X155991899Y-153428856D01*
X155993168Y-153447357D01*
X155996873Y-153464726D01*
X156002865Y-153480812D01*
X156014148Y-153500005D01*
X156028869Y-153516295D01*
X156046670Y-153529326D01*
X156067194Y-153538744D01*
X156084159Y-153543221D01*
X156102302Y-153545315D01*
X156108586Y-153545458D01*
G37*
G36*
X156345722Y-153540500D02*
G01*
X156551570Y-153540500D01*
X156568036Y-153534035D01*
X156574565Y-153518017D01*
X156568036Y-153501700D01*
X156551570Y-153494936D01*
X156368803Y-153494936D01*
X156368803Y-153180864D01*
X156362231Y-153164547D01*
X156345722Y-153157783D01*
X156329896Y-153164547D01*
X156323239Y-153180864D01*
X156323239Y-153517504D01*
X156329704Y-153533971D01*
X156345722Y-153540500D01*
G37*
G36*
X156773061Y-153545458D02*
G01*
X156793709Y-153544476D01*
X156813770Y-153541487D01*
X156833168Y-153536424D01*
X156851829Y-153529220D01*
X156869680Y-153519810D01*
X156886646Y-153508126D01*
X156893168Y-153502801D01*
X156900006Y-153486644D01*
X156893150Y-153469817D01*
X156875991Y-153464901D01*
X156865727Y-153469461D01*
X156849967Y-153480569D01*
X156833522Y-153489515D01*
X156816337Y-153496226D01*
X156798359Y-153500633D01*
X156779534Y-153502664D01*
X156773061Y-153502801D01*
X156751033Y-153501046D01*
X156730025Y-153495948D01*
X156710289Y-153487757D01*
X156692074Y-153476722D01*
X156675630Y-153463093D01*
X156661209Y-153447121D01*
X156649059Y-153429054D01*
X156639432Y-153409142D01*
X156632577Y-153387636D01*
X156628745Y-153364785D01*
X156627993Y-153348928D01*
X156629671Y-153325654D01*
X156634539Y-153303428D01*
X156642346Y-153282520D01*
X156652841Y-153263201D01*
X156665776Y-153245742D01*
X156680899Y-153230416D01*
X156697961Y-153217493D01*
X156716711Y-153207244D01*
X156736899Y-153199942D01*
X156758274Y-153195857D01*
X156773061Y-153195055D01*
X156791391Y-153195877D01*
X156810644Y-153199013D01*
X156827563Y-153204455D01*
X156842838Y-153212162D01*
X156857165Y-153222093D01*
X156864188Y-153227881D01*
X156881065Y-153233146D01*
X156896224Y-153224065D01*
X156898553Y-153216597D01*
X156896802Y-153199315D01*
X156893168Y-153195568D01*
X156879585Y-153185144D01*
X156862529Y-153174301D01*
X156845049Y-153165792D01*
X156826788Y-153159515D01*
X156807383Y-153155368D01*
X156786476Y-153153250D01*
X156773061Y-153152911D01*
X156753323Y-153153917D01*
X156734235Y-153156873D01*
X156715884Y-153161682D01*
X156698355Y-153168247D01*
X156681736Y-153176472D01*
X156666111Y-153186261D01*
X156651566Y-153197516D01*
X156638187Y-153210143D01*
X156626061Y-153224043D01*
X156615273Y-153239122D01*
X156605909Y-153255282D01*
X156598055Y-153272427D01*
X156591796Y-153290460D01*
X156587220Y-153309286D01*
X156584411Y-153328807D01*
X156583456Y-153348928D01*
X156584422Y-153369223D01*
X156587262Y-153388886D01*
X156591884Y-153407823D01*
X156598199Y-153425942D01*
X156606116Y-153443147D01*
X156615543Y-153459347D01*
X156626392Y-153474447D01*
X156638572Y-153488354D01*
X156651992Y-153500975D01*
X156666561Y-153512216D01*
X156682190Y-153521984D01*
X156698788Y-153530185D01*
X156716265Y-153536727D01*
X156734529Y-153541515D01*
X156753492Y-153544456D01*
X156773061Y-153545458D01*
G37*
D10*
G36*
X135574104Y-119648834D02*
G01*
X135589540Y-119661730D01*
X135594034Y-119680097D01*
X135586414Y-119702763D01*
X135569610Y-119730900D01*
X135553284Y-119767273D01*
X135552806Y-119768611D01*
X135545265Y-119807794D01*
X135544990Y-119818046D01*
X135550271Y-119859024D01*
X135569024Y-119892491D01*
X135602799Y-119913374D01*
X135631941Y-119917501D01*
X135669664Y-119906428D01*
X135672778Y-119904019D01*
X135698288Y-119872522D01*
X135700524Y-119868457D01*
X135716791Y-119831638D01*
X135721627Y-119817850D01*
X135734353Y-119780075D01*
X135741557Y-119759818D01*
X135756273Y-119723227D01*
X135766568Y-119701786D01*
X135788743Y-119667293D01*
X135802911Y-119651374D01*
X135834159Y-119626965D01*
X135856644Y-119615617D01*
X135896583Y-119604715D01*
X135933630Y-119602135D01*
X135972637Y-119604811D01*
X136012409Y-119613681D01*
X136026051Y-119618353D01*
X136061704Y-119635423D01*
X136095172Y-119660104D01*
X136101278Y-119665833D01*
X136126603Y-119695881D01*
X136146841Y-119731315D01*
X136151690Y-119742428D01*
X136163708Y-119781420D01*
X136169364Y-119821249D01*
X136170252Y-119846182D01*
X136167733Y-119887215D01*
X136163804Y-119911835D01*
X136154218Y-119949757D01*
X136145437Y-119974752D01*
X136128538Y-120011144D01*
X136116714Y-120031807D01*
X136093148Y-120064337D01*
X136079394Y-120079092D01*
X136010420Y-120036301D01*
X135997328Y-120022819D01*
X135992248Y-120004452D01*
X136002408Y-119977292D01*
X136025074Y-119944466D01*
X136044317Y-119908639D01*
X136047545Y-119901088D01*
X136056713Y-119862627D01*
X136057705Y-119842274D01*
X136052880Y-119803245D01*
X136034050Y-119767216D01*
X136032499Y-119765484D01*
X135998935Y-119743988D01*
X135958054Y-119737934D01*
X135919803Y-119746834D01*
X135912918Y-119751416D01*
X135886631Y-119781400D01*
X135883609Y-119786782D01*
X135867709Y-119823236D01*
X135863288Y-119836999D01*
X135851499Y-119874690D01*
X135844921Y-119894836D01*
X135830331Y-119932883D01*
X135821278Y-119952477D01*
X135800258Y-119985450D01*
X135784348Y-120002889D01*
X135751254Y-120026962D01*
X135727293Y-120038255D01*
X135689240Y-120048220D01*
X135649292Y-120051490D01*
X135643078Y-120051542D01*
X135603560Y-120047732D01*
X135565116Y-120036301D01*
X135529163Y-120017299D01*
X135497510Y-119991165D01*
X135472425Y-119960402D01*
X135452493Y-119923800D01*
X135450224Y-119918478D01*
X135438069Y-119878338D01*
X135432877Y-119836845D01*
X135432443Y-119819804D01*
X135434752Y-119777768D01*
X135441679Y-119737903D01*
X135451983Y-119703545D01*
X135468863Y-119665562D01*
X135490195Y-119631920D01*
X135506889Y-119611905D01*
X135574104Y-119648834D01*
G37*
G36*
X135839828Y-118888775D02*
G01*
X135881881Y-118894356D01*
X135921924Y-118903956D01*
X135947503Y-118912588D01*
X135983608Y-118928451D01*
X136020244Y-118950029D01*
X136053217Y-118975766D01*
X136062394Y-118984298D01*
X136090356Y-119015111D01*
X136114159Y-119049664D01*
X136133801Y-119087956D01*
X136137230Y-119096064D01*
X136150171Y-119133996D01*
X136158876Y-119174154D01*
X136163346Y-119216538D01*
X136164000Y-119241046D01*
X136164000Y-119507173D01*
X135438696Y-119507173D01*
X135438696Y-119241046D01*
X135544600Y-119241046D01*
X135544600Y-119361995D01*
X136051452Y-119361995D01*
X136051452Y-119241046D01*
X136048161Y-119200687D01*
X136037331Y-119161594D01*
X136034258Y-119154291D01*
X136013009Y-119118778D01*
X135984041Y-119089225D01*
X135950176Y-119066877D01*
X135912990Y-119050976D01*
X135904321Y-119048192D01*
X135864028Y-119038957D01*
X135823229Y-119034611D01*
X135797831Y-119033928D01*
X135758716Y-119035614D01*
X135719364Y-119041297D01*
X135692122Y-119048192D01*
X135653782Y-119063066D01*
X135618680Y-119084316D01*
X135612401Y-119089225D01*
X135583434Y-119118778D01*
X135562185Y-119154291D01*
X135549563Y-119192525D01*
X135544754Y-119232083D01*
X135544600Y-119241046D01*
X135438696Y-119241046D01*
X135440813Y-119197426D01*
X135447166Y-119156031D01*
X135457753Y-119116863D01*
X135465465Y-119096064D01*
X135484275Y-119057023D01*
X135507246Y-119021722D01*
X135534376Y-118990162D01*
X135540301Y-118984298D01*
X135572156Y-118957313D01*
X135607636Y-118934488D01*
X135646741Y-118915822D01*
X135654997Y-118912588D01*
X135693466Y-118900310D01*
X135733912Y-118892049D01*
X135776337Y-118887807D01*
X135800762Y-118887187D01*
X135839828Y-118888775D01*
G37*
G36*
X136164000Y-118321325D02*
G01*
X136155207Y-118352002D01*
X136133323Y-118369002D01*
X135994788Y-118415310D01*
X135994788Y-118683977D01*
X136132736Y-118729504D01*
X136154230Y-118746308D01*
X136164000Y-118776789D01*
X136164000Y-118889532D01*
X135438696Y-118623405D01*
X135438696Y-118550327D01*
X135571173Y-118550327D01*
X135609129Y-118560622D01*
X135620803Y-118564200D01*
X135658344Y-118576531D01*
X135660468Y-118577292D01*
X135888884Y-118651542D01*
X135888884Y-118448136D01*
X135660078Y-118522386D01*
X135622007Y-118535808D01*
X135620608Y-118536259D01*
X135582688Y-118547250D01*
X135571173Y-118550327D01*
X135438696Y-118550327D01*
X135438696Y-118476273D01*
X136164000Y-118210146D01*
X136164000Y-118321325D01*
G37*
D15*
X132976190Y-123644819D02*
X132642857Y-123168628D01*
X132404762Y-123644819D02*
X132404762Y-122644819D01*
X132404762Y-122644819D02*
X132785714Y-122644819D01*
X132785714Y-122644819D02*
X132880952Y-122692438D01*
X132880952Y-122692438D02*
X132928571Y-122740057D01*
X132928571Y-122740057D02*
X132976190Y-122835295D01*
X132976190Y-122835295D02*
X132976190Y-122978152D01*
X132976190Y-122978152D02*
X132928571Y-123073390D01*
X132928571Y-123073390D02*
X132880952Y-123121009D01*
X132880952Y-123121009D02*
X132785714Y-123168628D01*
X132785714Y-123168628D02*
X132404762Y-123168628D01*
X133357143Y-123597200D02*
X133500000Y-123644819D01*
X133500000Y-123644819D02*
X133738095Y-123644819D01*
X133738095Y-123644819D02*
X133833333Y-123597200D01*
X133833333Y-123597200D02*
X133880952Y-123549580D01*
X133880952Y-123549580D02*
X133928571Y-123454342D01*
X133928571Y-123454342D02*
X133928571Y-123359104D01*
X133928571Y-123359104D02*
X133880952Y-123263866D01*
X133880952Y-123263866D02*
X133833333Y-123216247D01*
X133833333Y-123216247D02*
X133738095Y-123168628D01*
X133738095Y-123168628D02*
X133547619Y-123121009D01*
X133547619Y-123121009D02*
X133452381Y-123073390D01*
X133452381Y-123073390D02*
X133404762Y-123025771D01*
X133404762Y-123025771D02*
X133357143Y-122930533D01*
X133357143Y-122930533D02*
X133357143Y-122835295D01*
X133357143Y-122835295D02*
X133404762Y-122740057D01*
X133404762Y-122740057D02*
X133452381Y-122692438D01*
X133452381Y-122692438D02*
X133547619Y-122644819D01*
X133547619Y-122644819D02*
X133785714Y-122644819D01*
X133785714Y-122644819D02*
X133928571Y-122692438D01*
X134214286Y-122644819D02*
X134785714Y-122644819D01*
X134500000Y-123644819D02*
X134500000Y-122644819D01*
X135642857Y-123644819D02*
X135071429Y-123644819D01*
X135357143Y-123644819D02*
X135357143Y-122644819D01*
X135357143Y-122644819D02*
X135261905Y-122787676D01*
X135261905Y-122787676D02*
X135166667Y-122882914D01*
X135166667Y-122882914D02*
X135071429Y-122930533D01*
X154016666Y-140216033D02*
X154016666Y-139516033D01*
X154016666Y-139516033D02*
X154283333Y-139516033D01*
X154283333Y-139516033D02*
X154350000Y-139549366D01*
X154350000Y-139549366D02*
X154383333Y-139582700D01*
X154383333Y-139582700D02*
X154416666Y-139649366D01*
X154416666Y-139649366D02*
X154416666Y-139749366D01*
X154416666Y-139749366D02*
X154383333Y-139816033D01*
X154383333Y-139816033D02*
X154350000Y-139849366D01*
X154350000Y-139849366D02*
X154283333Y-139882700D01*
X154283333Y-139882700D02*
X154016666Y-139882700D01*
X154850000Y-139516033D02*
X154983333Y-139516033D01*
X154983333Y-139516033D02*
X155050000Y-139549366D01*
X155050000Y-139549366D02*
X155116666Y-139616033D01*
X155116666Y-139616033D02*
X155150000Y-139749366D01*
X155150000Y-139749366D02*
X155150000Y-139982700D01*
X155150000Y-139982700D02*
X155116666Y-140116033D01*
X155116666Y-140116033D02*
X155050000Y-140182700D01*
X155050000Y-140182700D02*
X154983333Y-140216033D01*
X154983333Y-140216033D02*
X154850000Y-140216033D01*
X154850000Y-140216033D02*
X154783333Y-140182700D01*
X154783333Y-140182700D02*
X154716666Y-140116033D01*
X154716666Y-140116033D02*
X154683333Y-139982700D01*
X154683333Y-139982700D02*
X154683333Y-139749366D01*
X154683333Y-139749366D02*
X154716666Y-139616033D01*
X154716666Y-139616033D02*
X154783333Y-139549366D01*
X154783333Y-139549366D02*
X154850000Y-139516033D01*
X155816666Y-140216033D02*
X155416666Y-140216033D01*
X155616666Y-140216033D02*
X155616666Y-139516033D01*
X155616666Y-139516033D02*
X155549999Y-139616033D01*
X155549999Y-139616033D02*
X155483333Y-139682700D01*
X155483333Y-139682700D02*
X155416666Y-139716033D01*
X154357142Y-118192438D02*
X154261904Y-118144819D01*
X154261904Y-118144819D02*
X154119047Y-118144819D01*
X154119047Y-118144819D02*
X153976190Y-118192438D01*
X153976190Y-118192438D02*
X153880952Y-118287676D01*
X153880952Y-118287676D02*
X153833333Y-118382914D01*
X153833333Y-118382914D02*
X153785714Y-118573390D01*
X153785714Y-118573390D02*
X153785714Y-118716247D01*
X153785714Y-118716247D02*
X153833333Y-118906723D01*
X153833333Y-118906723D02*
X153880952Y-119001961D01*
X153880952Y-119001961D02*
X153976190Y-119097200D01*
X153976190Y-119097200D02*
X154119047Y-119144819D01*
X154119047Y-119144819D02*
X154214285Y-119144819D01*
X154214285Y-119144819D02*
X154357142Y-119097200D01*
X154357142Y-119097200D02*
X154404761Y-119049580D01*
X154404761Y-119049580D02*
X154404761Y-118716247D01*
X154404761Y-118716247D02*
X154214285Y-118716247D01*
X155166666Y-118621009D02*
X154833333Y-118621009D01*
X154833333Y-119144819D02*
X154833333Y-118144819D01*
X154833333Y-118144819D02*
X155309523Y-118144819D01*
X156214285Y-119144819D02*
X155642857Y-119144819D01*
X155928571Y-119144819D02*
X155928571Y-118144819D01*
X155928571Y-118144819D02*
X155833333Y-118287676D01*
X155833333Y-118287676D02*
X155738095Y-118382914D01*
X155738095Y-118382914D02*
X155642857Y-118430533D01*
D10*
X148220080Y-134598095D02*
X147410557Y-134598095D01*
X147410557Y-134598095D02*
X147315319Y-134645714D01*
X147315319Y-134645714D02*
X147267700Y-134693333D01*
X147267700Y-134693333D02*
X147220080Y-134788571D01*
X147220080Y-134788571D02*
X147220080Y-134979047D01*
X147220080Y-134979047D02*
X147267700Y-135074285D01*
X147267700Y-135074285D02*
X147315319Y-135121904D01*
X147315319Y-135121904D02*
X147410557Y-135169523D01*
X147410557Y-135169523D02*
X148220080Y-135169523D01*
X148124842Y-135598095D02*
X148172461Y-135645714D01*
X148172461Y-135645714D02*
X148220080Y-135740952D01*
X148220080Y-135740952D02*
X148220080Y-135979047D01*
X148220080Y-135979047D02*
X148172461Y-136074285D01*
X148172461Y-136074285D02*
X148124842Y-136121904D01*
X148124842Y-136121904D02*
X148029604Y-136169523D01*
X148029604Y-136169523D02*
X147934366Y-136169523D01*
X147934366Y-136169523D02*
X147791509Y-136121904D01*
X147791509Y-136121904D02*
X147220080Y-135550476D01*
X147220080Y-135550476D02*
X147220080Y-136169523D01*
D15*
X144790476Y-153954819D02*
X144790476Y-152954819D01*
X144790476Y-152954819D02*
X145171428Y-152954819D01*
X145171428Y-152954819D02*
X145266666Y-153002438D01*
X145266666Y-153002438D02*
X145314285Y-153050057D01*
X145314285Y-153050057D02*
X145361904Y-153145295D01*
X145361904Y-153145295D02*
X145361904Y-153288152D01*
X145361904Y-153288152D02*
X145314285Y-153383390D01*
X145314285Y-153383390D02*
X145266666Y-153431009D01*
X145266666Y-153431009D02*
X145171428Y-153478628D01*
X145171428Y-153478628D02*
X144790476Y-153478628D01*
X145695238Y-152954819D02*
X145933333Y-153954819D01*
X145933333Y-153954819D02*
X146123809Y-153240533D01*
X146123809Y-153240533D02*
X146314285Y-153954819D01*
X146314285Y-153954819D02*
X146552381Y-152954819D01*
X147504761Y-153954819D02*
X147171428Y-153478628D01*
X146933333Y-153954819D02*
X146933333Y-152954819D01*
X146933333Y-152954819D02*
X147314285Y-152954819D01*
X147314285Y-152954819D02*
X147409523Y-153002438D01*
X147409523Y-153002438D02*
X147457142Y-153050057D01*
X147457142Y-153050057D02*
X147504761Y-153145295D01*
X147504761Y-153145295D02*
X147504761Y-153288152D01*
X147504761Y-153288152D02*
X147457142Y-153383390D01*
X147457142Y-153383390D02*
X147409523Y-153431009D01*
X147409523Y-153431009D02*
X147314285Y-153478628D01*
X147314285Y-153478628D02*
X146933333Y-153478628D01*
X148457142Y-153954819D02*
X147885714Y-153954819D01*
X148171428Y-153954819D02*
X148171428Y-152954819D01*
X148171428Y-152954819D02*
X148076190Y-153097676D01*
X148076190Y-153097676D02*
X147980952Y-153192914D01*
X147980952Y-153192914D02*
X147885714Y-153240533D01*
X132823809Y-101502438D02*
X132728571Y-101454819D01*
X132728571Y-101454819D02*
X132585714Y-101454819D01*
X132585714Y-101454819D02*
X132442857Y-101502438D01*
X132442857Y-101502438D02*
X132347619Y-101597676D01*
X132347619Y-101597676D02*
X132300000Y-101692914D01*
X132300000Y-101692914D02*
X132252381Y-101883390D01*
X132252381Y-101883390D02*
X132252381Y-102026247D01*
X132252381Y-102026247D02*
X132300000Y-102216723D01*
X132300000Y-102216723D02*
X132347619Y-102311961D01*
X132347619Y-102311961D02*
X132442857Y-102407200D01*
X132442857Y-102407200D02*
X132585714Y-102454819D01*
X132585714Y-102454819D02*
X132680952Y-102454819D01*
X132680952Y-102454819D02*
X132823809Y-102407200D01*
X132823809Y-102407200D02*
X132871428Y-102359580D01*
X132871428Y-102359580D02*
X132871428Y-102026247D01*
X132871428Y-102026247D02*
X132680952Y-102026247D01*
X133300000Y-102454819D02*
X133300000Y-101454819D01*
X133300000Y-101454819D02*
X133680952Y-101454819D01*
X133680952Y-101454819D02*
X133776190Y-101502438D01*
X133776190Y-101502438D02*
X133823809Y-101550057D01*
X133823809Y-101550057D02*
X133871428Y-101645295D01*
X133871428Y-101645295D02*
X133871428Y-101788152D01*
X133871428Y-101788152D02*
X133823809Y-101883390D01*
X133823809Y-101883390D02*
X133776190Y-101931009D01*
X133776190Y-101931009D02*
X133680952Y-101978628D01*
X133680952Y-101978628D02*
X133300000Y-101978628D01*
X134300000Y-102454819D02*
X134300000Y-101454819D01*
X134966666Y-101454819D02*
X135157142Y-101454819D01*
X135157142Y-101454819D02*
X135252380Y-101502438D01*
X135252380Y-101502438D02*
X135347618Y-101597676D01*
X135347618Y-101597676D02*
X135395237Y-101788152D01*
X135395237Y-101788152D02*
X135395237Y-102121485D01*
X135395237Y-102121485D02*
X135347618Y-102311961D01*
X135347618Y-102311961D02*
X135252380Y-102407200D01*
X135252380Y-102407200D02*
X135157142Y-102454819D01*
X135157142Y-102454819D02*
X134966666Y-102454819D01*
X134966666Y-102454819D02*
X134871428Y-102407200D01*
X134871428Y-102407200D02*
X134776190Y-102311961D01*
X134776190Y-102311961D02*
X134728571Y-102121485D01*
X134728571Y-102121485D02*
X134728571Y-101788152D01*
X134728571Y-101788152D02*
X134776190Y-101597676D01*
X134776190Y-101597676D02*
X134871428Y-101502438D01*
X134871428Y-101502438D02*
X134966666Y-101454819D01*
X136347618Y-102454819D02*
X135776190Y-102454819D01*
X136061904Y-102454819D02*
X136061904Y-101454819D01*
X136061904Y-101454819D02*
X135966666Y-101597676D01*
X135966666Y-101597676D02*
X135871428Y-101692914D01*
X135871428Y-101692914D02*
X135776190Y-101740533D01*
X137204166Y-147954819D02*
X137204166Y-148669104D01*
X137204166Y-148669104D02*
X137156547Y-148811961D01*
X137156547Y-148811961D02*
X137061309Y-148907200D01*
X137061309Y-148907200D02*
X136918452Y-148954819D01*
X136918452Y-148954819D02*
X136823214Y-148954819D01*
X138156547Y-147954819D02*
X137680357Y-147954819D01*
X137680357Y-147954819D02*
X137632738Y-148431009D01*
X137632738Y-148431009D02*
X137680357Y-148383390D01*
X137680357Y-148383390D02*
X137775595Y-148335771D01*
X137775595Y-148335771D02*
X138013690Y-148335771D01*
X138013690Y-148335771D02*
X138108928Y-148383390D01*
X138108928Y-148383390D02*
X138156547Y-148431009D01*
X138156547Y-148431009D02*
X138204166Y-148526247D01*
X138204166Y-148526247D02*
X138204166Y-148764342D01*
X138204166Y-148764342D02*
X138156547Y-148859580D01*
X138156547Y-148859580D02*
X138108928Y-148907200D01*
X138108928Y-148907200D02*
X138013690Y-148954819D01*
X138013690Y-148954819D02*
X137775595Y-148954819D01*
X137775595Y-148954819D02*
X137680357Y-148907200D01*
X137680357Y-148907200D02*
X137632738Y-148859580D01*
X153840476Y-132062295D02*
X153840476Y-131262295D01*
X153840476Y-131262295D02*
X154145238Y-131262295D01*
X154145238Y-131262295D02*
X154221428Y-131300390D01*
X154221428Y-131300390D02*
X154259523Y-131338485D01*
X154259523Y-131338485D02*
X154297619Y-131414676D01*
X154297619Y-131414676D02*
X154297619Y-131528961D01*
X154297619Y-131528961D02*
X154259523Y-131605152D01*
X154259523Y-131605152D02*
X154221428Y-131643247D01*
X154221428Y-131643247D02*
X154145238Y-131681342D01*
X154145238Y-131681342D02*
X153840476Y-131681342D01*
X154792857Y-131262295D02*
X154945238Y-131262295D01*
X154945238Y-131262295D02*
X155021428Y-131300390D01*
X155021428Y-131300390D02*
X155097619Y-131376580D01*
X155097619Y-131376580D02*
X155135714Y-131528961D01*
X155135714Y-131528961D02*
X155135714Y-131795628D01*
X155135714Y-131795628D02*
X155097619Y-131948009D01*
X155097619Y-131948009D02*
X155021428Y-132024200D01*
X155021428Y-132024200D02*
X154945238Y-132062295D01*
X154945238Y-132062295D02*
X154792857Y-132062295D01*
X154792857Y-132062295D02*
X154716666Y-132024200D01*
X154716666Y-132024200D02*
X154640476Y-131948009D01*
X154640476Y-131948009D02*
X154602380Y-131795628D01*
X154602380Y-131795628D02*
X154602380Y-131528961D01*
X154602380Y-131528961D02*
X154640476Y-131376580D01*
X154640476Y-131376580D02*
X154716666Y-131300390D01*
X154716666Y-131300390D02*
X154792857Y-131262295D01*
X155440475Y-131338485D02*
X155478571Y-131300390D01*
X155478571Y-131300390D02*
X155554761Y-131262295D01*
X155554761Y-131262295D02*
X155745237Y-131262295D01*
X155745237Y-131262295D02*
X155821428Y-131300390D01*
X155821428Y-131300390D02*
X155859523Y-131338485D01*
X155859523Y-131338485D02*
X155897618Y-131414676D01*
X155897618Y-131414676D02*
X155897618Y-131490866D01*
X155897618Y-131490866D02*
X155859523Y-131605152D01*
X155859523Y-131605152D02*
X155402380Y-132062295D01*
X155402380Y-132062295D02*
X155897618Y-132062295D01*
X149034819Y-123538094D02*
X148034819Y-123538094D01*
X148034819Y-123538094D02*
X148034819Y-123299999D01*
X148034819Y-123299999D02*
X148082438Y-123157142D01*
X148082438Y-123157142D02*
X148177676Y-123061904D01*
X148177676Y-123061904D02*
X148272914Y-123014285D01*
X148272914Y-123014285D02*
X148463390Y-122966666D01*
X148463390Y-122966666D02*
X148606247Y-122966666D01*
X148606247Y-122966666D02*
X148796723Y-123014285D01*
X148796723Y-123014285D02*
X148891961Y-123061904D01*
X148891961Y-123061904D02*
X148987200Y-123157142D01*
X148987200Y-123157142D02*
X149034819Y-123299999D01*
X149034819Y-123299999D02*
X149034819Y-123538094D01*
X148130057Y-122585713D02*
X148082438Y-122538094D01*
X148082438Y-122538094D02*
X148034819Y-122442856D01*
X148034819Y-122442856D02*
X148034819Y-122204761D01*
X148034819Y-122204761D02*
X148082438Y-122109523D01*
X148082438Y-122109523D02*
X148130057Y-122061904D01*
X148130057Y-122061904D02*
X148225295Y-122014285D01*
X148225295Y-122014285D02*
X148320533Y-122014285D01*
X148320533Y-122014285D02*
X148463390Y-122061904D01*
X148463390Y-122061904D02*
X149034819Y-122633332D01*
X149034819Y-122633332D02*
X149034819Y-122014285D01*
X140274819Y-122966666D02*
X139798628Y-123299999D01*
X140274819Y-123538094D02*
X139274819Y-123538094D01*
X139274819Y-123538094D02*
X139274819Y-123157142D01*
X139274819Y-123157142D02*
X139322438Y-123061904D01*
X139322438Y-123061904D02*
X139370057Y-123014285D01*
X139370057Y-123014285D02*
X139465295Y-122966666D01*
X139465295Y-122966666D02*
X139608152Y-122966666D01*
X139608152Y-122966666D02*
X139703390Y-123014285D01*
X139703390Y-123014285D02*
X139751009Y-123061904D01*
X139751009Y-123061904D02*
X139798628Y-123157142D01*
X139798628Y-123157142D02*
X139798628Y-123538094D01*
X139274819Y-122061904D02*
X139274819Y-122538094D01*
X139274819Y-122538094D02*
X139751009Y-122585713D01*
X139751009Y-122585713D02*
X139703390Y-122538094D01*
X139703390Y-122538094D02*
X139655771Y-122442856D01*
X139655771Y-122442856D02*
X139655771Y-122204761D01*
X139655771Y-122204761D02*
X139703390Y-122109523D01*
X139703390Y-122109523D02*
X139751009Y-122061904D01*
X139751009Y-122061904D02*
X139846247Y-122014285D01*
X139846247Y-122014285D02*
X140084342Y-122014285D01*
X140084342Y-122014285D02*
X140179580Y-122061904D01*
X140179580Y-122061904D02*
X140227200Y-122109523D01*
X140227200Y-122109523D02*
X140274819Y-122204761D01*
X140274819Y-122204761D02*
X140274819Y-122442856D01*
X140274819Y-122442856D02*
X140227200Y-122538094D01*
X140227200Y-122538094D02*
X140179580Y-122585713D01*
X149931009Y-98590475D02*
X149931009Y-98257142D01*
X150454819Y-98114285D02*
X150454819Y-98590475D01*
X150454819Y-98590475D02*
X149454819Y-98590475D01*
X149454819Y-98590475D02*
X149454819Y-98114285D01*
X150454819Y-97161904D02*
X150454819Y-97733332D01*
X150454819Y-97447618D02*
X149454819Y-97447618D01*
X149454819Y-97447618D02*
X149597676Y-97542856D01*
X149597676Y-97542856D02*
X149692914Y-97638094D01*
X149692914Y-97638094D02*
X149740533Y-97733332D01*
X156824819Y-128816666D02*
X156348628Y-129149999D01*
X156824819Y-129388094D02*
X155824819Y-129388094D01*
X155824819Y-129388094D02*
X155824819Y-129007142D01*
X155824819Y-129007142D02*
X155872438Y-128911904D01*
X155872438Y-128911904D02*
X155920057Y-128864285D01*
X155920057Y-128864285D02*
X156015295Y-128816666D01*
X156015295Y-128816666D02*
X156158152Y-128816666D01*
X156158152Y-128816666D02*
X156253390Y-128864285D01*
X156253390Y-128864285D02*
X156301009Y-128911904D01*
X156301009Y-128911904D02*
X156348628Y-129007142D01*
X156348628Y-129007142D02*
X156348628Y-129388094D01*
X155824819Y-128483332D02*
X155824819Y-127864285D01*
X155824819Y-127864285D02*
X156205771Y-128197618D01*
X156205771Y-128197618D02*
X156205771Y-128054761D01*
X156205771Y-128054761D02*
X156253390Y-127959523D01*
X156253390Y-127959523D02*
X156301009Y-127911904D01*
X156301009Y-127911904D02*
X156396247Y-127864285D01*
X156396247Y-127864285D02*
X156634342Y-127864285D01*
X156634342Y-127864285D02*
X156729580Y-127911904D01*
X156729580Y-127911904D02*
X156777200Y-127959523D01*
X156777200Y-127959523D02*
X156824819Y-128054761D01*
X156824819Y-128054761D02*
X156824819Y-128340475D01*
X156824819Y-128340475D02*
X156777200Y-128435713D01*
X156777200Y-128435713D02*
X156729580Y-128483332D01*
X132235714Y-130754819D02*
X132235714Y-131564342D01*
X132235714Y-131564342D02*
X132278571Y-131659580D01*
X132278571Y-131659580D02*
X132321429Y-131707200D01*
X132321429Y-131707200D02*
X132407143Y-131754819D01*
X132407143Y-131754819D02*
X132578571Y-131754819D01*
X132578571Y-131754819D02*
X132664286Y-131707200D01*
X132664286Y-131707200D02*
X132707143Y-131659580D01*
X132707143Y-131659580D02*
X132750000Y-131564342D01*
X132750000Y-131564342D02*
X132750000Y-130754819D01*
X133135714Y-131469104D02*
X133564286Y-131469104D01*
X133050000Y-131754819D02*
X133350000Y-130754819D01*
X133350000Y-130754819D02*
X133650000Y-131754819D01*
X134464286Y-131754819D02*
X134164286Y-131278628D01*
X133950000Y-131754819D02*
X133950000Y-130754819D01*
X133950000Y-130754819D02*
X134292857Y-130754819D01*
X134292857Y-130754819D02*
X134378572Y-130802438D01*
X134378572Y-130802438D02*
X134421429Y-130850057D01*
X134421429Y-130850057D02*
X134464286Y-130945295D01*
X134464286Y-130945295D02*
X134464286Y-131088152D01*
X134464286Y-131088152D02*
X134421429Y-131183390D01*
X134421429Y-131183390D02*
X134378572Y-131231009D01*
X134378572Y-131231009D02*
X134292857Y-131278628D01*
X134292857Y-131278628D02*
X133950000Y-131278628D01*
X134721429Y-130754819D02*
X135235715Y-130754819D01*
X134978572Y-131754819D02*
X134978572Y-130754819D01*
X136007143Y-131754819D02*
X135492857Y-131754819D01*
X135750000Y-131754819D02*
X135750000Y-130754819D01*
X135750000Y-130754819D02*
X135664286Y-130897676D01*
X135664286Y-130897676D02*
X135578571Y-130992914D01*
X135578571Y-130992914D02*
X135492857Y-131040533D01*
X144054819Y-111511904D02*
X144864342Y-111511904D01*
X144864342Y-111511904D02*
X144959580Y-111464285D01*
X144959580Y-111464285D02*
X145007200Y-111416666D01*
X145007200Y-111416666D02*
X145054819Y-111321428D01*
X145054819Y-111321428D02*
X145054819Y-111130952D01*
X145054819Y-111130952D02*
X145007200Y-111035714D01*
X145007200Y-111035714D02*
X144959580Y-110988095D01*
X144959580Y-110988095D02*
X144864342Y-110940476D01*
X144864342Y-110940476D02*
X144054819Y-110940476D01*
X145054819Y-109940476D02*
X145054819Y-110511904D01*
X145054819Y-110226190D02*
X144054819Y-110226190D01*
X144054819Y-110226190D02*
X144197676Y-110321428D01*
X144197676Y-110321428D02*
X144292914Y-110416666D01*
X144292914Y-110416666D02*
X144340533Y-110511904D01*
D12*
X136999838Y-115316517D02*
X136952219Y-115411755D01*
X136952219Y-115411755D02*
X136952219Y-115554612D01*
X136952219Y-115554612D02*
X136999838Y-115697469D01*
X136999838Y-115697469D02*
X137095076Y-115792707D01*
X137095076Y-115792707D02*
X137190314Y-115840326D01*
X137190314Y-115840326D02*
X137380790Y-115887945D01*
X137380790Y-115887945D02*
X137523647Y-115887945D01*
X137523647Y-115887945D02*
X137714123Y-115840326D01*
X137714123Y-115840326D02*
X137809361Y-115792707D01*
X137809361Y-115792707D02*
X137904600Y-115697469D01*
X137904600Y-115697469D02*
X137952219Y-115554612D01*
X137952219Y-115554612D02*
X137952219Y-115459374D01*
X137952219Y-115459374D02*
X137904600Y-115316517D01*
X137904600Y-115316517D02*
X137856980Y-115268898D01*
X137856980Y-115268898D02*
X137523647Y-115268898D01*
X137523647Y-115268898D02*
X137523647Y-115459374D01*
X137952219Y-114840326D02*
X136952219Y-114840326D01*
X136952219Y-114840326D02*
X137952219Y-114268898D01*
X137952219Y-114268898D02*
X136952219Y-114268898D01*
X137952219Y-113792707D02*
X136952219Y-113792707D01*
X136952219Y-113792707D02*
X136952219Y-113554612D01*
X136952219Y-113554612D02*
X136999838Y-113411755D01*
X136999838Y-113411755D02*
X137095076Y-113316517D01*
X137095076Y-113316517D02*
X137190314Y-113268898D01*
X137190314Y-113268898D02*
X137380790Y-113221279D01*
X137380790Y-113221279D02*
X137523647Y-113221279D01*
X137523647Y-113221279D02*
X137714123Y-113268898D01*
X137714123Y-113268898D02*
X137809361Y-113316517D01*
X137809361Y-113316517D02*
X137904600Y-113411755D01*
X137904600Y-113411755D02*
X137952219Y-113554612D01*
X137952219Y-113554612D02*
X137952219Y-113792707D01*
X137952219Y-107130326D02*
X136952219Y-107130326D01*
X136952219Y-107130326D02*
X137952219Y-106558898D01*
X137952219Y-106558898D02*
X136952219Y-106558898D01*
X137856980Y-105511279D02*
X137904600Y-105558898D01*
X137904600Y-105558898D02*
X137952219Y-105701755D01*
X137952219Y-105701755D02*
X137952219Y-105796993D01*
X137952219Y-105796993D02*
X137904600Y-105939850D01*
X137904600Y-105939850D02*
X137809361Y-106035088D01*
X137809361Y-106035088D02*
X137714123Y-106082707D01*
X137714123Y-106082707D02*
X137523647Y-106130326D01*
X137523647Y-106130326D02*
X137380790Y-106130326D01*
X137380790Y-106130326D02*
X137190314Y-106082707D01*
X137190314Y-106082707D02*
X137095076Y-106035088D01*
X137095076Y-106035088D02*
X136999838Y-105939850D01*
X136999838Y-105939850D02*
X136952219Y-105796993D01*
X136952219Y-105796993D02*
X136952219Y-105701755D01*
X136952219Y-105701755D02*
X136999838Y-105558898D01*
X136999838Y-105558898D02*
X137047457Y-105511279D01*
D16*
%TO.C,RST1*%
X132670000Y-127230000D02*
X132670000Y-129830000D01*
X132670000Y-127230000D02*
X135330000Y-127230000D01*
X132670000Y-129830000D02*
X135330000Y-129830000D01*
X134000000Y-124630000D02*
X135330000Y-124630000D01*
X135330000Y-124630000D02*
X135330000Y-125960000D01*
X135330000Y-127230000D02*
X135330000Y-129830000D01*
%TO.C,PO1*%
X153520000Y-144120000D02*
X153520000Y-146720000D01*
X153520000Y-144120000D02*
X156180000Y-144120000D01*
X153520000Y-146720000D02*
X156180000Y-146720000D01*
X154850000Y-141520000D02*
X156180000Y-141520000D01*
X156180000Y-141520000D02*
X156180000Y-142850000D01*
X156180000Y-144120000D02*
X156180000Y-146720000D01*
%TO.C,GF1*%
X153670000Y-122730000D02*
X153670000Y-125330000D01*
X153670000Y-122730000D02*
X156330000Y-122730000D01*
X153670000Y-125330000D02*
X156330000Y-125330000D01*
X155000000Y-120130000D02*
X156330000Y-120130000D01*
X156330000Y-120130000D02*
X156330000Y-121460000D01*
X156330000Y-122730000D02*
X156330000Y-125330000D01*
D11*
%TO.C,U2*%
X136317500Y-128210000D02*
X136307500Y-144220000D01*
X152767500Y-128210000D02*
X152767500Y-144390000D01*
D16*
%TO.C,PWR1*%
X143820000Y-150095000D02*
X145150000Y-150095000D01*
X143820000Y-151425000D02*
X143820000Y-150095000D01*
X146420000Y-150095000D02*
X149020000Y-150095000D01*
X146420000Y-152755000D02*
X146420000Y-150095000D01*
X146420000Y-152755000D02*
X149020000Y-152755000D01*
X149020000Y-152755000D02*
X149020000Y-150095000D01*
D17*
%TO.C,J5*%
X134437500Y-151400000D02*
X134437500Y-149400000D01*
X136637500Y-147200000D02*
X138637500Y-147200000D01*
X138637500Y-153600000D02*
X136637500Y-153600000D01*
X140837500Y-149400000D02*
X140837500Y-151400000D01*
D16*
%TO.C,PO2*%
X153520000Y-136220000D02*
X153520000Y-138820000D01*
X153520000Y-136220000D02*
X156180000Y-136220000D01*
X153520000Y-138820000D02*
X156180000Y-138820000D01*
X154850000Y-133620000D02*
X156180000Y-133620000D01*
X156180000Y-133620000D02*
X156180000Y-134950000D01*
X156180000Y-136220000D02*
X156180000Y-138820000D01*
%TO.C,D2*%
X149265000Y-121200000D02*
X149265000Y-125260000D01*
X149265000Y-125260000D02*
X151535000Y-125260000D01*
X151535000Y-125260000D02*
X151535000Y-121200000D01*
%TO.C,R5*%
X137090000Y-122072936D02*
X137090000Y-123527064D01*
X138910000Y-122072936D02*
X138910000Y-123527064D01*
D17*
%TO.C,E1*%
X149200000Y-98880000D02*
X149200000Y-96920000D01*
X150800000Y-98880000D02*
X150800000Y-96920000D01*
D12*
X150100000Y-100800000D02*
G75*
G02*
X149900000Y-100800000I-100000J0D01*
G01*
X149900000Y-100800000D02*
G75*
G02*
X150100000Y-100800000I100000J0D01*
G01*
D16*
%TO.C,R3*%
X153415000Y-126190000D02*
X153415000Y-130250000D01*
X155685000Y-126190000D02*
X153415000Y-126190000D01*
X155685000Y-130250000D02*
X155685000Y-126190000D01*
D18*
%TO.C,G\u002A\u002A\u002A*%
G36*
X156033950Y-149273164D02*
G01*
X156058051Y-149283592D01*
X156078078Y-149300275D01*
X156093386Y-149322642D01*
X156103335Y-149350122D01*
X156104779Y-149357006D01*
X156105013Y-149374380D01*
X156100825Y-149394661D01*
X156093124Y-149414922D01*
X156082823Y-149432235D01*
X156080450Y-149435180D01*
X156064218Y-149449702D01*
X156043410Y-149462088D01*
X156021349Y-149470561D01*
X156009881Y-149472911D01*
X155996121Y-149473016D01*
X155980374Y-149470897D01*
X155974988Y-149469612D01*
X155949288Y-149458698D01*
X155926583Y-149441766D01*
X155911511Y-149424063D01*
X155905626Y-149414453D01*
X155902145Y-149405577D01*
X155900435Y-149394766D01*
X155899861Y-149379349D01*
X155899823Y-149374809D01*
X155900071Y-149357595D01*
X155901451Y-149345444D01*
X155904565Y-149335531D01*
X155910013Y-149325032D01*
X155910627Y-149323981D01*
X155928670Y-149300191D01*
X155950832Y-149283142D01*
X155976982Y-149272907D01*
X156006414Y-149269561D01*
X156033950Y-149273164D01*
G37*
G36*
X156082150Y-149503868D02*
G01*
X156087229Y-149508720D01*
X156093547Y-149518112D01*
X156101936Y-149532846D01*
X156113231Y-149553722D01*
X156113464Y-149554155D01*
X156122858Y-149571201D01*
X156133219Y-149589380D01*
X156140720Y-149602105D01*
X156147569Y-149613716D01*
X156152409Y-149622426D01*
X156154155Y-149626242D01*
X156156010Y-149630236D01*
X156161018Y-149639529D01*
X156168342Y-149652593D01*
X156174462Y-149663275D01*
X156194172Y-149697606D01*
X156210002Y-149725680D01*
X156222204Y-149747981D01*
X156231029Y-149764993D01*
X156236730Y-149777200D01*
X156239557Y-149785086D01*
X156239799Y-149789042D01*
X156235451Y-149793316D01*
X156226127Y-149799338D01*
X156216788Y-149804318D01*
X156186691Y-149818256D01*
X156158760Y-149829135D01*
X156129731Y-149838079D01*
X156096340Y-149846214D01*
X156093276Y-149846887D01*
X156069322Y-149850712D01*
X156039954Y-149853242D01*
X156007358Y-149854481D01*
X155973717Y-149854435D01*
X155941216Y-149853108D01*
X155912039Y-149850507D01*
X155888369Y-149846635D01*
X155887348Y-149846403D01*
X155856507Y-149838718D01*
X155827901Y-149830513D01*
X155802400Y-149822129D01*
X155780871Y-149813907D01*
X155764182Y-149806187D01*
X155753200Y-149799312D01*
X155748793Y-149793620D01*
X155748938Y-149792039D01*
X155751850Y-149786241D01*
X155758464Y-149774420D01*
X155768844Y-149756463D01*
X155783056Y-149732262D01*
X155801166Y-149701703D01*
X155823239Y-149664676D01*
X155849340Y-149621071D01*
X155863401Y-149597635D01*
X155919164Y-149504747D01*
X155940767Y-149513362D01*
X155973872Y-149522967D01*
X156006051Y-149524871D01*
X156032127Y-149520738D01*
X156046700Y-149516472D01*
X156059260Y-149511868D01*
X156066014Y-149508542D01*
X156072376Y-149504580D01*
X156077477Y-149502755D01*
X156082150Y-149503868D01*
G37*
G36*
X156251140Y-148946822D02*
G01*
X156259055Y-148950395D01*
X156268576Y-148955503D01*
X156277178Y-148960778D01*
X156282339Y-148964852D01*
X156282681Y-148965308D01*
X156287355Y-148969739D01*
X156296308Y-148976274D01*
X156301725Y-148979808D01*
X156315864Y-148990191D01*
X156333084Y-149005109D01*
X156351644Y-149022834D01*
X156369801Y-149041638D01*
X156385812Y-149059794D01*
X156397162Y-149074454D01*
X156426910Y-149122103D01*
X156451215Y-149171897D01*
X156469207Y-149221951D01*
X156474506Y-149241892D01*
X156477544Y-149257082D01*
X156480798Y-149277217D01*
X156483971Y-149299948D01*
X156486764Y-149322922D01*
X156488879Y-149343787D01*
X156490018Y-149360194D01*
X156490134Y-149365112D01*
X156489810Y-149366870D01*
X156488374Y-149368318D01*
X156485126Y-149369485D01*
X156479369Y-149370401D01*
X156470404Y-149371097D01*
X156457532Y-149371602D01*
X156440055Y-149371948D01*
X156417275Y-149372163D01*
X156388493Y-149372279D01*
X156353011Y-149372325D01*
X156322685Y-149372331D01*
X156155237Y-149372331D01*
X156153068Y-149347627D01*
X156148894Y-149325706D01*
X156140766Y-149303237D01*
X156129725Y-149282034D01*
X156116816Y-149263912D01*
X156103081Y-149250686D01*
X156094450Y-149245674D01*
X156086449Y-149240998D01*
X156083009Y-149236289D01*
X156083006Y-149236186D01*
X156084952Y-149230258D01*
X156090191Y-149219322D01*
X156097824Y-149205072D01*
X156106950Y-149189201D01*
X156114600Y-149176673D01*
X156120063Y-149167619D01*
X156127892Y-149154200D01*
X156136609Y-149138960D01*
X156138733Y-149135198D01*
X156148288Y-149118459D01*
X156160041Y-149098197D01*
X156172104Y-149077658D01*
X156177837Y-149068002D01*
X156187616Y-149051569D01*
X156195765Y-149037718D01*
X156203388Y-149024527D01*
X156211584Y-149010072D01*
X156221454Y-148992430D01*
X156233292Y-148971133D01*
X156239997Y-148959102D01*
X156245035Y-148950149D01*
X156247341Y-148946172D01*
X156247354Y-148946153D01*
X156251140Y-148946822D01*
G37*
G36*
X155777830Y-148980151D02*
G01*
X155787350Y-148996397D01*
X155797003Y-149013174D01*
X155804489Y-149026471D01*
X155813143Y-149041384D01*
X155822630Y-149056645D01*
X155826671Y-149062757D01*
X155833138Y-149072732D01*
X155837213Y-149079966D01*
X155837939Y-149081983D01*
X155839866Y-149086384D01*
X155844997Y-149095742D01*
X155852356Y-149108304D01*
X155855131Y-149112892D01*
X155875579Y-149146693D01*
X155892771Y-149175632D01*
X155906501Y-149199352D01*
X155916568Y-149217496D01*
X155922768Y-149229707D01*
X155924898Y-149235626D01*
X155924899Y-149235643D01*
X155921626Y-149241452D01*
X155917635Y-149243665D01*
X155908826Y-149248795D01*
X155897328Y-149258606D01*
X155884935Y-149271271D01*
X155873441Y-149284961D01*
X155864882Y-149297430D01*
X155858332Y-149310999D01*
X155851872Y-149328248D01*
X155847583Y-149342870D01*
X155844042Y-149357185D01*
X155841158Y-149368753D01*
X155839532Y-149375164D01*
X155839497Y-149375296D01*
X155837503Y-149376566D01*
X155831868Y-149377615D01*
X155822010Y-149378459D01*
X155807349Y-149379118D01*
X155787303Y-149379606D01*
X155761291Y-149379943D01*
X155728732Y-149380146D01*
X155689045Y-149380231D01*
X155674027Y-149380237D01*
X155509866Y-149380237D01*
X155509973Y-149371343D01*
X155510603Y-149358256D01*
X155512065Y-149341050D01*
X155514086Y-149322055D01*
X155516393Y-149303601D01*
X155518714Y-149288020D01*
X155520776Y-149277642D01*
X155521048Y-149276673D01*
X155527926Y-149253837D01*
X155533146Y-149236795D01*
X155537372Y-149223781D01*
X155541267Y-149213032D01*
X155545497Y-149202784D01*
X155550726Y-149191274D01*
X155557617Y-149176736D01*
X155562648Y-149166199D01*
X155580338Y-149133595D01*
X155602309Y-149100174D01*
X155627206Y-149067586D01*
X155653676Y-149037480D01*
X155680364Y-149011504D01*
X155705917Y-148991307D01*
X155706794Y-148990711D01*
X155718465Y-148982854D01*
X155732784Y-148973234D01*
X155741710Y-148967248D01*
X155762085Y-148953595D01*
X155777830Y-148980151D01*
G37*
D11*
%TO.C,U1*%
X136380000Y-118000000D02*
X136380000Y-103500000D01*
X152830000Y-118000000D02*
X152830000Y-103500000D01*
%TD*%
M02*
