%TF.GenerationSoftware,KiCad,Pcbnew,8.0.3-1.fc40*%
%TF.CreationDate,2024-06-24T14:15:41-04:00*%
%TF.ProjectId,OS42Micro,4f533432-4d69-4637-926f-2e6b69636164,rev?*%
%TF.SameCoordinates,Original*%
%TF.FileFunction,Legend,Bot*%
%TF.FilePolarity,Positive*%
%FSLAX46Y46*%
G04 Gerber Fmt 4.6, Leading zero omitted, Abs format (unit mm)*
G04 Created by KiCad (PCBNEW 8.0.3-1.fc40) date 2024-06-24 14:15:41*
%MOMM*%
%LPD*%
G01*
G04 APERTURE LIST*
%ADD10C,0.150000*%
%ADD11C,0.120000*%
%ADD12C,0.127000*%
%ADD13C,0.200000*%
G04 APERTURE END LIST*
D10*
X144916666Y-104029580D02*
X144964285Y-104077200D01*
X144964285Y-104077200D02*
X145107142Y-104124819D01*
X145107142Y-104124819D02*
X145202380Y-104124819D01*
X145202380Y-104124819D02*
X145345237Y-104077200D01*
X145345237Y-104077200D02*
X145440475Y-103981961D01*
X145440475Y-103981961D02*
X145488094Y-103886723D01*
X145488094Y-103886723D02*
X145535713Y-103696247D01*
X145535713Y-103696247D02*
X145535713Y-103553390D01*
X145535713Y-103553390D02*
X145488094Y-103362914D01*
X145488094Y-103362914D02*
X145440475Y-103267676D01*
X145440475Y-103267676D02*
X145345237Y-103172438D01*
X145345237Y-103172438D02*
X145202380Y-103124819D01*
X145202380Y-103124819D02*
X145107142Y-103124819D01*
X145107142Y-103124819D02*
X144964285Y-103172438D01*
X144964285Y-103172438D02*
X144916666Y-103220057D01*
X144583332Y-103124819D02*
X143916666Y-103124819D01*
X143916666Y-103124819D02*
X144345237Y-104124819D01*
X140179580Y-135833333D02*
X140227200Y-135785714D01*
X140227200Y-135785714D02*
X140274819Y-135642857D01*
X140274819Y-135642857D02*
X140274819Y-135547619D01*
X140274819Y-135547619D02*
X140227200Y-135404762D01*
X140227200Y-135404762D02*
X140131961Y-135309524D01*
X140131961Y-135309524D02*
X140036723Y-135261905D01*
X140036723Y-135261905D02*
X139846247Y-135214286D01*
X139846247Y-135214286D02*
X139703390Y-135214286D01*
X139703390Y-135214286D02*
X139512914Y-135261905D01*
X139512914Y-135261905D02*
X139417676Y-135309524D01*
X139417676Y-135309524D02*
X139322438Y-135404762D01*
X139322438Y-135404762D02*
X139274819Y-135547619D01*
X139274819Y-135547619D02*
X139274819Y-135642857D01*
X139274819Y-135642857D02*
X139322438Y-135785714D01*
X139322438Y-135785714D02*
X139370057Y-135833333D01*
X139370057Y-136214286D02*
X139322438Y-136261905D01*
X139322438Y-136261905D02*
X139274819Y-136357143D01*
X139274819Y-136357143D02*
X139274819Y-136595238D01*
X139274819Y-136595238D02*
X139322438Y-136690476D01*
X139322438Y-136690476D02*
X139370057Y-136738095D01*
X139370057Y-136738095D02*
X139465295Y-136785714D01*
X139465295Y-136785714D02*
X139560533Y-136785714D01*
X139560533Y-136785714D02*
X139703390Y-136738095D01*
X139703390Y-136738095D02*
X140274819Y-136166667D01*
X140274819Y-136166667D02*
X140274819Y-136785714D01*
X139674819Y-127383333D02*
X139198628Y-127050000D01*
X139674819Y-126811905D02*
X138674819Y-126811905D01*
X138674819Y-126811905D02*
X138674819Y-127192857D01*
X138674819Y-127192857D02*
X138722438Y-127288095D01*
X138722438Y-127288095D02*
X138770057Y-127335714D01*
X138770057Y-127335714D02*
X138865295Y-127383333D01*
X138865295Y-127383333D02*
X139008152Y-127383333D01*
X139008152Y-127383333D02*
X139103390Y-127335714D01*
X139103390Y-127335714D02*
X139151009Y-127288095D01*
X139151009Y-127288095D02*
X139198628Y-127192857D01*
X139198628Y-127192857D02*
X139198628Y-126811905D01*
X139008152Y-128240476D02*
X139674819Y-128240476D01*
X138627200Y-128002381D02*
X139341485Y-127764286D01*
X139341485Y-127764286D02*
X139341485Y-128383333D01*
X150229580Y-114533333D02*
X150277200Y-114485714D01*
X150277200Y-114485714D02*
X150324819Y-114342857D01*
X150324819Y-114342857D02*
X150324819Y-114247619D01*
X150324819Y-114247619D02*
X150277200Y-114104762D01*
X150277200Y-114104762D02*
X150181961Y-114009524D01*
X150181961Y-114009524D02*
X150086723Y-113961905D01*
X150086723Y-113961905D02*
X149896247Y-113914286D01*
X149896247Y-113914286D02*
X149753390Y-113914286D01*
X149753390Y-113914286D02*
X149562914Y-113961905D01*
X149562914Y-113961905D02*
X149467676Y-114009524D01*
X149467676Y-114009524D02*
X149372438Y-114104762D01*
X149372438Y-114104762D02*
X149324819Y-114247619D01*
X149324819Y-114247619D02*
X149324819Y-114342857D01*
X149324819Y-114342857D02*
X149372438Y-114485714D01*
X149372438Y-114485714D02*
X149420057Y-114533333D01*
X149324819Y-115390476D02*
X149324819Y-115200000D01*
X149324819Y-115200000D02*
X149372438Y-115104762D01*
X149372438Y-115104762D02*
X149420057Y-115057143D01*
X149420057Y-115057143D02*
X149562914Y-114961905D01*
X149562914Y-114961905D02*
X149753390Y-114914286D01*
X149753390Y-114914286D02*
X150134342Y-114914286D01*
X150134342Y-114914286D02*
X150229580Y-114961905D01*
X150229580Y-114961905D02*
X150277200Y-115009524D01*
X150277200Y-115009524D02*
X150324819Y-115104762D01*
X150324819Y-115104762D02*
X150324819Y-115295238D01*
X150324819Y-115295238D02*
X150277200Y-115390476D01*
X150277200Y-115390476D02*
X150229580Y-115438095D01*
X150229580Y-115438095D02*
X150134342Y-115485714D01*
X150134342Y-115485714D02*
X149896247Y-115485714D01*
X149896247Y-115485714D02*
X149801009Y-115438095D01*
X149801009Y-115438095D02*
X149753390Y-115390476D01*
X149753390Y-115390476D02*
X149705771Y-115295238D01*
X149705771Y-115295238D02*
X149705771Y-115104762D01*
X149705771Y-115104762D02*
X149753390Y-115009524D01*
X149753390Y-115009524D02*
X149801009Y-114961905D01*
X149801009Y-114961905D02*
X149896247Y-114914286D01*
X150554819Y-108061905D02*
X149554819Y-108061905D01*
X149554819Y-108061905D02*
X149554819Y-108300000D01*
X149554819Y-108300000D02*
X149602438Y-108442857D01*
X149602438Y-108442857D02*
X149697676Y-108538095D01*
X149697676Y-108538095D02*
X149792914Y-108585714D01*
X149792914Y-108585714D02*
X149983390Y-108633333D01*
X149983390Y-108633333D02*
X150126247Y-108633333D01*
X150126247Y-108633333D02*
X150316723Y-108585714D01*
X150316723Y-108585714D02*
X150411961Y-108538095D01*
X150411961Y-108538095D02*
X150507200Y-108442857D01*
X150507200Y-108442857D02*
X150554819Y-108300000D01*
X150554819Y-108300000D02*
X150554819Y-108061905D01*
X150554819Y-109585714D02*
X150554819Y-109014286D01*
X150554819Y-109300000D02*
X149554819Y-109300000D01*
X149554819Y-109300000D02*
X149697676Y-109204762D01*
X149697676Y-109204762D02*
X149792914Y-109109524D01*
X149792914Y-109109524D02*
X149840533Y-109014286D01*
X149174404Y-141589819D02*
X149174404Y-142399342D01*
X149174404Y-142399342D02*
X149126785Y-142494580D01*
X149126785Y-142494580D02*
X149079166Y-142542200D01*
X149079166Y-142542200D02*
X148983928Y-142589819D01*
X148983928Y-142589819D02*
X148793452Y-142589819D01*
X148793452Y-142589819D02*
X148698214Y-142542200D01*
X148698214Y-142542200D02*
X148650595Y-142494580D01*
X148650595Y-142494580D02*
X148602976Y-142399342D01*
X148602976Y-142399342D02*
X148602976Y-141589819D01*
X148222023Y-141589819D02*
X147602976Y-141589819D01*
X147602976Y-141589819D02*
X147936309Y-141970771D01*
X147936309Y-141970771D02*
X147793452Y-141970771D01*
X147793452Y-141970771D02*
X147698214Y-142018390D01*
X147698214Y-142018390D02*
X147650595Y-142066009D01*
X147650595Y-142066009D02*
X147602976Y-142161247D01*
X147602976Y-142161247D02*
X147602976Y-142399342D01*
X147602976Y-142399342D02*
X147650595Y-142494580D01*
X147650595Y-142494580D02*
X147698214Y-142542200D01*
X147698214Y-142542200D02*
X147793452Y-142589819D01*
X147793452Y-142589819D02*
X148079166Y-142589819D01*
X148079166Y-142589819D02*
X148174404Y-142542200D01*
X148174404Y-142542200D02*
X148222023Y-142494580D01*
X141954819Y-129733333D02*
X141478628Y-129400000D01*
X141954819Y-129161905D02*
X140954819Y-129161905D01*
X140954819Y-129161905D02*
X140954819Y-129542857D01*
X140954819Y-129542857D02*
X141002438Y-129638095D01*
X141002438Y-129638095D02*
X141050057Y-129685714D01*
X141050057Y-129685714D02*
X141145295Y-129733333D01*
X141145295Y-129733333D02*
X141288152Y-129733333D01*
X141288152Y-129733333D02*
X141383390Y-129685714D01*
X141383390Y-129685714D02*
X141431009Y-129638095D01*
X141431009Y-129638095D02*
X141478628Y-129542857D01*
X141478628Y-129542857D02*
X141478628Y-129161905D01*
X141954819Y-130685714D02*
X141954819Y-130114286D01*
X141954819Y-130400000D02*
X140954819Y-130400000D01*
X140954819Y-130400000D02*
X141097676Y-130304762D01*
X141097676Y-130304762D02*
X141192914Y-130209524D01*
X141192914Y-130209524D02*
X141240533Y-130114286D01*
X144559925Y-122299065D02*
X144559925Y-122936486D01*
X144559925Y-122936486D02*
X144522430Y-123011476D01*
X144522430Y-123011476D02*
X144484934Y-123048972D01*
X144484934Y-123048972D02*
X144409944Y-123086467D01*
X144409944Y-123086467D02*
X144259962Y-123086467D01*
X144259962Y-123086467D02*
X144184972Y-123048972D01*
X144184972Y-123048972D02*
X144147476Y-123011476D01*
X144147476Y-123011476D02*
X144109981Y-122936486D01*
X144109981Y-122936486D02*
X144109981Y-122299065D01*
X143360075Y-122299065D02*
X143735028Y-122299065D01*
X143735028Y-122299065D02*
X143772523Y-122674018D01*
X143772523Y-122674018D02*
X143735028Y-122636523D01*
X143735028Y-122636523D02*
X143660037Y-122599028D01*
X143660037Y-122599028D02*
X143472561Y-122599028D01*
X143472561Y-122599028D02*
X143397570Y-122636523D01*
X143397570Y-122636523D02*
X143360075Y-122674018D01*
X143360075Y-122674018D02*
X143322579Y-122749009D01*
X143322579Y-122749009D02*
X143322579Y-122936486D01*
X143322579Y-122936486D02*
X143360075Y-123011476D01*
X143360075Y-123011476D02*
X143397570Y-123048972D01*
X143397570Y-123048972D02*
X143472561Y-123086467D01*
X143472561Y-123086467D02*
X143660037Y-123086467D01*
X143660037Y-123086467D02*
X143735028Y-123048972D01*
X143735028Y-123048972D02*
X143772523Y-123011476D01*
X151216666Y-127759580D02*
X151264285Y-127807200D01*
X151264285Y-127807200D02*
X151407142Y-127854819D01*
X151407142Y-127854819D02*
X151502380Y-127854819D01*
X151502380Y-127854819D02*
X151645237Y-127807200D01*
X151645237Y-127807200D02*
X151740475Y-127711961D01*
X151740475Y-127711961D02*
X151788094Y-127616723D01*
X151788094Y-127616723D02*
X151835713Y-127426247D01*
X151835713Y-127426247D02*
X151835713Y-127283390D01*
X151835713Y-127283390D02*
X151788094Y-127092914D01*
X151788094Y-127092914D02*
X151740475Y-126997676D01*
X151740475Y-126997676D02*
X151645237Y-126902438D01*
X151645237Y-126902438D02*
X151502380Y-126854819D01*
X151502380Y-126854819D02*
X151407142Y-126854819D01*
X151407142Y-126854819D02*
X151264285Y-126902438D01*
X151264285Y-126902438D02*
X151216666Y-126950057D01*
X150359523Y-127188152D02*
X150359523Y-127854819D01*
X150597618Y-126807200D02*
X150835713Y-127521485D01*
X150835713Y-127521485D02*
X150216666Y-127521485D01*
X136664819Y-109443095D02*
X137474342Y-109443095D01*
X137474342Y-109443095D02*
X137569580Y-109490714D01*
X137569580Y-109490714D02*
X137617200Y-109538333D01*
X137617200Y-109538333D02*
X137664819Y-109633571D01*
X137664819Y-109633571D02*
X137664819Y-109824047D01*
X137664819Y-109824047D02*
X137617200Y-109919285D01*
X137617200Y-109919285D02*
X137569580Y-109966904D01*
X137569580Y-109966904D02*
X137474342Y-110014523D01*
X137474342Y-110014523D02*
X136664819Y-110014523D01*
X136998152Y-110919285D02*
X137664819Y-110919285D01*
X136617200Y-110681190D02*
X137331485Y-110443095D01*
X137331485Y-110443095D02*
X137331485Y-111062142D01*
X146866666Y-146129580D02*
X146914285Y-146177200D01*
X146914285Y-146177200D02*
X147057142Y-146224819D01*
X147057142Y-146224819D02*
X147152380Y-146224819D01*
X147152380Y-146224819D02*
X147295237Y-146177200D01*
X147295237Y-146177200D02*
X147390475Y-146081961D01*
X147390475Y-146081961D02*
X147438094Y-145986723D01*
X147438094Y-145986723D02*
X147485713Y-145796247D01*
X147485713Y-145796247D02*
X147485713Y-145653390D01*
X147485713Y-145653390D02*
X147438094Y-145462914D01*
X147438094Y-145462914D02*
X147390475Y-145367676D01*
X147390475Y-145367676D02*
X147295237Y-145272438D01*
X147295237Y-145272438D02*
X147152380Y-145224819D01*
X147152380Y-145224819D02*
X147057142Y-145224819D01*
X147057142Y-145224819D02*
X146914285Y-145272438D01*
X146914285Y-145272438D02*
X146866666Y-145320057D01*
X145961904Y-145224819D02*
X146438094Y-145224819D01*
X146438094Y-145224819D02*
X146485713Y-145701009D01*
X146485713Y-145701009D02*
X146438094Y-145653390D01*
X146438094Y-145653390D02*
X146342856Y-145605771D01*
X146342856Y-145605771D02*
X146104761Y-145605771D01*
X146104761Y-145605771D02*
X146009523Y-145653390D01*
X146009523Y-145653390D02*
X145961904Y-145701009D01*
X145961904Y-145701009D02*
X145914285Y-145796247D01*
X145914285Y-145796247D02*
X145914285Y-146034342D01*
X145914285Y-146034342D02*
X145961904Y-146129580D01*
X145961904Y-146129580D02*
X146009523Y-146177200D01*
X146009523Y-146177200D02*
X146104761Y-146224819D01*
X146104761Y-146224819D02*
X146342856Y-146224819D01*
X146342856Y-146224819D02*
X146438094Y-146177200D01*
X146438094Y-146177200D02*
X146485713Y-146129580D01*
X142666666Y-142359580D02*
X142714285Y-142407200D01*
X142714285Y-142407200D02*
X142857142Y-142454819D01*
X142857142Y-142454819D02*
X142952380Y-142454819D01*
X142952380Y-142454819D02*
X143095237Y-142407200D01*
X143095237Y-142407200D02*
X143190475Y-142311961D01*
X143190475Y-142311961D02*
X143238094Y-142216723D01*
X143238094Y-142216723D02*
X143285713Y-142026247D01*
X143285713Y-142026247D02*
X143285713Y-141883390D01*
X143285713Y-141883390D02*
X143238094Y-141692914D01*
X143238094Y-141692914D02*
X143190475Y-141597676D01*
X143190475Y-141597676D02*
X143095237Y-141502438D01*
X143095237Y-141502438D02*
X142952380Y-141454819D01*
X142952380Y-141454819D02*
X142857142Y-141454819D01*
X142857142Y-141454819D02*
X142714285Y-141502438D01*
X142714285Y-141502438D02*
X142666666Y-141550057D01*
X141714285Y-142454819D02*
X142285713Y-142454819D01*
X141999999Y-142454819D02*
X141999999Y-141454819D01*
X141999999Y-141454819D02*
X142095237Y-141597676D01*
X142095237Y-141597676D02*
X142190475Y-141692914D01*
X142190475Y-141692914D02*
X142285713Y-141740533D01*
X145854819Y-129733333D02*
X145378628Y-129400000D01*
X145854819Y-129161905D02*
X144854819Y-129161905D01*
X144854819Y-129161905D02*
X144854819Y-129542857D01*
X144854819Y-129542857D02*
X144902438Y-129638095D01*
X144902438Y-129638095D02*
X144950057Y-129685714D01*
X144950057Y-129685714D02*
X145045295Y-129733333D01*
X145045295Y-129733333D02*
X145188152Y-129733333D01*
X145188152Y-129733333D02*
X145283390Y-129685714D01*
X145283390Y-129685714D02*
X145331009Y-129638095D01*
X145331009Y-129638095D02*
X145378628Y-129542857D01*
X145378628Y-129542857D02*
X145378628Y-129161905D01*
X144950057Y-130114286D02*
X144902438Y-130161905D01*
X144902438Y-130161905D02*
X144854819Y-130257143D01*
X144854819Y-130257143D02*
X144854819Y-130495238D01*
X144854819Y-130495238D02*
X144902438Y-130590476D01*
X144902438Y-130590476D02*
X144950057Y-130638095D01*
X144950057Y-130638095D02*
X145045295Y-130685714D01*
X145045295Y-130685714D02*
X145140533Y-130685714D01*
X145140533Y-130685714D02*
X145283390Y-130638095D01*
X145283390Y-130638095D02*
X145854819Y-130066667D01*
X145854819Y-130066667D02*
X145854819Y-130685714D01*
X151216666Y-122179580D02*
X151264285Y-122227200D01*
X151264285Y-122227200D02*
X151407142Y-122274819D01*
X151407142Y-122274819D02*
X151502380Y-122274819D01*
X151502380Y-122274819D02*
X151645237Y-122227200D01*
X151645237Y-122227200D02*
X151740475Y-122131961D01*
X151740475Y-122131961D02*
X151788094Y-122036723D01*
X151788094Y-122036723D02*
X151835713Y-121846247D01*
X151835713Y-121846247D02*
X151835713Y-121703390D01*
X151835713Y-121703390D02*
X151788094Y-121512914D01*
X151788094Y-121512914D02*
X151740475Y-121417676D01*
X151740475Y-121417676D02*
X151645237Y-121322438D01*
X151645237Y-121322438D02*
X151502380Y-121274819D01*
X151502380Y-121274819D02*
X151407142Y-121274819D01*
X151407142Y-121274819D02*
X151264285Y-121322438D01*
X151264285Y-121322438D02*
X151216666Y-121370057D01*
X150883332Y-121274819D02*
X150264285Y-121274819D01*
X150264285Y-121274819D02*
X150597618Y-121655771D01*
X150597618Y-121655771D02*
X150454761Y-121655771D01*
X150454761Y-121655771D02*
X150359523Y-121703390D01*
X150359523Y-121703390D02*
X150311904Y-121751009D01*
X150311904Y-121751009D02*
X150264285Y-121846247D01*
X150264285Y-121846247D02*
X150264285Y-122084342D01*
X150264285Y-122084342D02*
X150311904Y-122179580D01*
X150311904Y-122179580D02*
X150359523Y-122227200D01*
X150359523Y-122227200D02*
X150454761Y-122274819D01*
X150454761Y-122274819D02*
X150740475Y-122274819D01*
X150740475Y-122274819D02*
X150835713Y-122227200D01*
X150835713Y-122227200D02*
X150883332Y-122179580D01*
D11*
%TO.C,C7*%
X144488748Y-104615000D02*
X145011252Y-104615000D01*
X144488748Y-106085000D02*
X145011252Y-106085000D01*
%TO.C,C2*%
X140765000Y-136261252D02*
X140765000Y-135738748D01*
X142235000Y-136261252D02*
X142235000Y-135738748D01*
%TO.C,R4*%
X136490000Y-126822936D02*
X136490000Y-128277064D01*
X138310000Y-126822936D02*
X138310000Y-128277064D01*
%TO.C,C6*%
X150815000Y-114961252D02*
X150815000Y-114438748D01*
X152285000Y-114961252D02*
X152285000Y-114438748D01*
%TO.C,D1*%
X150665000Y-107200000D02*
X150665000Y-111260000D01*
X150665000Y-111260000D02*
X152935000Y-111260000D01*
X152935000Y-111260000D02*
X152935000Y-107200000D01*
D12*
%TO.C,U3*%
X146150000Y-134150000D02*
X149850000Y-134150000D01*
X146150000Y-134400000D02*
X146150000Y-134150000D01*
X146150000Y-140600000D02*
X146150000Y-140850000D01*
X146150000Y-140850000D02*
X149850000Y-140850000D01*
X149850000Y-134150000D02*
X149850000Y-135550000D01*
X149850000Y-140850000D02*
X149850000Y-139450000D01*
D13*
X143500000Y-139800000D02*
G75*
G02*
X143300000Y-139800000I-100000J0D01*
G01*
X143300000Y-139800000D02*
G75*
G02*
X143500000Y-139800000I100000J0D01*
G01*
D11*
%TO.C,R1*%
X140140000Y-128372936D02*
X140140000Y-131427064D01*
X142860000Y-128372936D02*
X142860000Y-131427064D01*
D12*
%TO.C,U5*%
X140150000Y-120190000D02*
X147770000Y-120190000D01*
X140150000Y-125270000D02*
X140150000Y-120190000D01*
X147770000Y-120190000D02*
X147770000Y-125270000D01*
X147770000Y-125270000D02*
X140150000Y-125270000D01*
D11*
%TO.C,C4*%
X150788748Y-125015000D02*
X151311252Y-125015000D01*
X150788748Y-126485000D02*
X151311252Y-126485000D01*
D12*
%TO.C,U4*%
X140500000Y-109605000D02*
X140500000Y-109500000D01*
X140500000Y-116395000D02*
X140500000Y-116500000D01*
X140605000Y-109500000D02*
X140500000Y-109500000D01*
X140605000Y-116500000D02*
X140500000Y-116500000D01*
X147395000Y-109500000D02*
X147500000Y-109500000D01*
X147395000Y-116500000D02*
X147500000Y-116500000D01*
X147500000Y-109605000D02*
X147500000Y-109500000D01*
X147500000Y-116395000D02*
X147500000Y-116500000D01*
D13*
X141300000Y-107160000D02*
G75*
G02*
X141100000Y-107160000I-100000J0D01*
G01*
X141100000Y-107160000D02*
G75*
G02*
X141300000Y-107160000I100000J0D01*
G01*
D11*
%TO.C,C5*%
X146438748Y-146715000D02*
X146961252Y-146715000D01*
X146438748Y-148185000D02*
X146961252Y-148185000D01*
%TO.C,C1*%
X141201248Y-139265000D02*
X141723752Y-139265000D01*
X141201248Y-140735000D02*
X141723752Y-140735000D01*
%TO.C,R2*%
X144040000Y-131427064D02*
X144040000Y-128372936D01*
X146760000Y-131427064D02*
X146760000Y-128372936D01*
%TO.C,C3*%
X150788748Y-122765000D02*
X151311252Y-122765000D01*
X150788748Y-124235000D02*
X151311252Y-124235000D01*
%TD*%
M02*
