%TF.GenerationSoftware,KiCad,Pcbnew,7.0.11-2.fc39*%
%TF.CreationDate,2024-04-30T19:09:02-04:00*%
%TF.ProjectId,OS42Mini,4f533432-4d69-46e6-992e-6b696361645f,rev?*%
%TF.SameCoordinates,Original*%
%TF.FileFunction,Legend,Bot*%
%TF.FilePolarity,Positive*%
%FSLAX46Y46*%
G04 Gerber Fmt 4.6, Leading zero omitted, Abs format (unit mm)*
G04 Created by KiCad (PCBNEW 7.0.11-2.fc39) date 2024-04-30 19:09:02*
%MOMM*%
%LPD*%
G01*
G04 APERTURE LIST*
%ADD10C,0.100000*%
%ADD11C,0.200000*%
%ADD12C,0.150000*%
%ADD13C,0.250000*%
%ADD14C,0.120000*%
G04 APERTURE END LIST*
D10*
X145287419Y-113438095D02*
X146096942Y-113438095D01*
X146096942Y-113438095D02*
X146192180Y-113485714D01*
X146192180Y-113485714D02*
X146239800Y-113533333D01*
X146239800Y-113533333D02*
X146287419Y-113628571D01*
X146287419Y-113628571D02*
X146287419Y-113819047D01*
X146287419Y-113819047D02*
X146239800Y-113914285D01*
X146239800Y-113914285D02*
X146192180Y-113961904D01*
X146192180Y-113961904D02*
X146096942Y-114009523D01*
X146096942Y-114009523D02*
X145287419Y-114009523D01*
X145382657Y-114438095D02*
X145335038Y-114485714D01*
X145335038Y-114485714D02*
X145287419Y-114580952D01*
X145287419Y-114580952D02*
X145287419Y-114819047D01*
X145287419Y-114819047D02*
X145335038Y-114914285D01*
X145335038Y-114914285D02*
X145382657Y-114961904D01*
X145382657Y-114961904D02*
X145477895Y-115009523D01*
X145477895Y-115009523D02*
X145573133Y-115009523D01*
X145573133Y-115009523D02*
X145715990Y-114961904D01*
X145715990Y-114961904D02*
X146287419Y-114390476D01*
X146287419Y-114390476D02*
X146287419Y-115009523D01*
D11*
X141469838Y-109723482D02*
X141422219Y-109628244D01*
X141422219Y-109628244D02*
X141422219Y-109485387D01*
X141422219Y-109485387D02*
X141469838Y-109342530D01*
X141469838Y-109342530D02*
X141565076Y-109247292D01*
X141565076Y-109247292D02*
X141660314Y-109199673D01*
X141660314Y-109199673D02*
X141850790Y-109152054D01*
X141850790Y-109152054D02*
X141993647Y-109152054D01*
X141993647Y-109152054D02*
X142184123Y-109199673D01*
X142184123Y-109199673D02*
X142279361Y-109247292D01*
X142279361Y-109247292D02*
X142374600Y-109342530D01*
X142374600Y-109342530D02*
X142422219Y-109485387D01*
X142422219Y-109485387D02*
X142422219Y-109580625D01*
X142422219Y-109580625D02*
X142374600Y-109723482D01*
X142374600Y-109723482D02*
X142326980Y-109771101D01*
X142326980Y-109771101D02*
X141993647Y-109771101D01*
X141993647Y-109771101D02*
X141993647Y-109580625D01*
X142422219Y-110199673D02*
X141422219Y-110199673D01*
X141422219Y-110199673D02*
X142422219Y-110771101D01*
X142422219Y-110771101D02*
X141422219Y-110771101D01*
X142422219Y-111247292D02*
X141422219Y-111247292D01*
X141422219Y-111247292D02*
X141422219Y-111485387D01*
X141422219Y-111485387D02*
X141469838Y-111628244D01*
X141469838Y-111628244D02*
X141565076Y-111723482D01*
X141565076Y-111723482D02*
X141660314Y-111771101D01*
X141660314Y-111771101D02*
X141850790Y-111818720D01*
X141850790Y-111818720D02*
X141993647Y-111818720D01*
X141993647Y-111818720D02*
X142184123Y-111771101D01*
X142184123Y-111771101D02*
X142279361Y-111723482D01*
X142279361Y-111723482D02*
X142374600Y-111628244D01*
X142374600Y-111628244D02*
X142422219Y-111485387D01*
X142422219Y-111485387D02*
X142422219Y-111247292D01*
X142372219Y-118159673D02*
X141372219Y-118159673D01*
X141372219Y-118159673D02*
X141372219Y-118397768D01*
X141372219Y-118397768D02*
X141419838Y-118540625D01*
X141419838Y-118540625D02*
X141515076Y-118635863D01*
X141515076Y-118635863D02*
X141610314Y-118683482D01*
X141610314Y-118683482D02*
X141800790Y-118731101D01*
X141800790Y-118731101D02*
X141943647Y-118731101D01*
X141943647Y-118731101D02*
X142134123Y-118683482D01*
X142134123Y-118683482D02*
X142229361Y-118635863D01*
X142229361Y-118635863D02*
X142324600Y-118540625D01*
X142324600Y-118540625D02*
X142372219Y-118397768D01*
X142372219Y-118397768D02*
X142372219Y-118159673D01*
X142372219Y-119159673D02*
X141372219Y-119159673D01*
X141372219Y-119826339D02*
X141372219Y-120016815D01*
X141372219Y-120016815D02*
X141419838Y-120112053D01*
X141419838Y-120112053D02*
X141515076Y-120207291D01*
X141515076Y-120207291D02*
X141705552Y-120254910D01*
X141705552Y-120254910D02*
X142038885Y-120254910D01*
X142038885Y-120254910D02*
X142229361Y-120207291D01*
X142229361Y-120207291D02*
X142324600Y-120112053D01*
X142324600Y-120112053D02*
X142372219Y-120016815D01*
X142372219Y-120016815D02*
X142372219Y-119826339D01*
X142372219Y-119826339D02*
X142324600Y-119731101D01*
X142324600Y-119731101D02*
X142229361Y-119635863D01*
X142229361Y-119635863D02*
X142038885Y-119588244D01*
X142038885Y-119588244D02*
X141705552Y-119588244D01*
X141705552Y-119588244D02*
X141515076Y-119635863D01*
X141515076Y-119635863D02*
X141419838Y-119731101D01*
X141419838Y-119731101D02*
X141372219Y-119826339D01*
X141467457Y-120635863D02*
X141419838Y-120683482D01*
X141419838Y-120683482D02*
X141372219Y-120778720D01*
X141372219Y-120778720D02*
X141372219Y-121016815D01*
X141372219Y-121016815D02*
X141419838Y-121112053D01*
X141419838Y-121112053D02*
X141467457Y-121159672D01*
X141467457Y-121159672D02*
X141562695Y-121207291D01*
X141562695Y-121207291D02*
X141657933Y-121207291D01*
X141657933Y-121207291D02*
X141800790Y-121159672D01*
X141800790Y-121159672D02*
X142372219Y-120588244D01*
X142372219Y-120588244D02*
X142372219Y-121207291D01*
D12*
X161805580Y-120229333D02*
X161853200Y-120181714D01*
X161853200Y-120181714D02*
X161900819Y-120038857D01*
X161900819Y-120038857D02*
X161900819Y-119943619D01*
X161900819Y-119943619D02*
X161853200Y-119800762D01*
X161853200Y-119800762D02*
X161757961Y-119705524D01*
X161757961Y-119705524D02*
X161662723Y-119657905D01*
X161662723Y-119657905D02*
X161472247Y-119610286D01*
X161472247Y-119610286D02*
X161329390Y-119610286D01*
X161329390Y-119610286D02*
X161138914Y-119657905D01*
X161138914Y-119657905D02*
X161043676Y-119705524D01*
X161043676Y-119705524D02*
X160948438Y-119800762D01*
X160948438Y-119800762D02*
X160900819Y-119943619D01*
X160900819Y-119943619D02*
X160900819Y-120038857D01*
X160900819Y-120038857D02*
X160948438Y-120181714D01*
X160948438Y-120181714D02*
X160996057Y-120229333D01*
X160900819Y-121134095D02*
X160900819Y-120657905D01*
X160900819Y-120657905D02*
X161377009Y-120610286D01*
X161377009Y-120610286D02*
X161329390Y-120657905D01*
X161329390Y-120657905D02*
X161281771Y-120753143D01*
X161281771Y-120753143D02*
X161281771Y-120991238D01*
X161281771Y-120991238D02*
X161329390Y-121086476D01*
X161329390Y-121086476D02*
X161377009Y-121134095D01*
X161377009Y-121134095D02*
X161472247Y-121181714D01*
X161472247Y-121181714D02*
X161710342Y-121181714D01*
X161710342Y-121181714D02*
X161805580Y-121134095D01*
X161805580Y-121134095D02*
X161853200Y-121086476D01*
X161853200Y-121086476D02*
X161900819Y-120991238D01*
X161900819Y-120991238D02*
X161900819Y-120753143D01*
X161900819Y-120753143D02*
X161853200Y-120657905D01*
X161853200Y-120657905D02*
X161805580Y-120610286D01*
D13*
%TO.C,U2*%
X157190000Y-107050000D02*
X157200000Y-123060000D01*
X140740000Y-107050000D02*
X140740000Y-123230000D01*
D14*
%TO.C,C5*%
X159031000Y-120657252D02*
X159031000Y-120134748D01*
X160501000Y-120657252D02*
X160501000Y-120134748D01*
%TD*%
M02*
